<svg xmlns="http://www.w3.org/2000/svg" width="132.773" height="90.011" viewBox="0 0 132.773 90.011"><defs><style>.a{fill:#ffc107;}.b{fill:#a86749;}.c{fill:#3783ff;}.d{fill:#4de94c;}.e{fill:#fe0;}.f{fill:#4c1ac6;}.g{fill:#2a3e4f;}.h{fill:#7e8c8d;}.i{fill:#f89b36;}.j{fill:#ff8c00;}.k{fill:#8f9fa0;}.l{fill:#e9bb42;}.m{fill:#32495d;}.n{fill:#f60000;}</style></defs><g transform="translate(-29 -319.488)"><g transform="translate(-5 85)"><g transform="translate(16 -18)"><path class="a" d="M102.856,111.089a11.235,11.235,0,0,0-5.664-1.528H44.934a6.817,6.817,0,0,1-6.428-4.6l-.384-1.239A11.355,11.355,0,0,0,27.395,96H11.3a10.816,10.816,0,0,0-5.533,1.46A11.274,11.274,0,0,0,0,107.3v54.247a11.3,11.3,0,0,0,11.3,11.3H97.192a11.3,11.3,0,0,0,11.3-11.3V120.862A11.224,11.224,0,0,0,102.856,111.089Z" transform="translate(18 156.49)"/></g></g><g transform="translate(-43 -163.883)"><path class="b" d="M79.038,23.291a27.851,27.851,0,0,1,5.594,5.036,16.561,16.561,0,0,1,.6,21.6A18.413,18.413,0,0,1,74.009,56.2a33.107,33.107,0,0,1-12-.259,38.987,38.987,0,0,0-5.707-.625,3.194,3.194,0,0,0-3.712,2.57v.053a3.336,3.336,0,0,0,.639,2.634,37.183,37.183,0,0,0,3.01,3.933,7.72,7.72,0,0,1,1.878,3.514,2.793,2.793,0,0,1-1.743,3.358,22.612,22.612,0,0,1-11.141,1.959,53.181,53.181,0,0,1-27.457-9.068A24.27,24.27,0,0,1,7.383,48.59a20.83,20.83,0,0,1,3.549-16.128A36.156,36.156,0,0,1,26.254,19.685a53.426,53.426,0,0,1,41.419-2.13C67.815,17.626,78.786,23.507,79.038,23.291Z" transform="translate(112.6 499.982)"/><path class="c" d="M16.605,22.682a8.749,8.749,0,0,1,5.657,1.824A4,4,0,0,1,23.4,29.947a3.872,3.872,0,0,1-1.139,1.164,9.821,9.821,0,0,1-11.34,0,4.007,4.007,0,0,1-1.171-5.448,3.865,3.865,0,0,1,1.2-1.214,8.728,8.728,0,0,1,5.657-1.767Z" transform="translate(118.058 521.159)"/><path class="d" d="M15.025,27.21a6.829,6.829,0,0,1-4.156-1.317A3.194,3.194,0,0,1,9.8,21.584a3.077,3.077,0,0,1,1.029-1.065,7.5,7.5,0,0,1,8.724.089,3.148,3.148,0,0,1,.834,4.3,3.027,3.027,0,0,1-.8.831,6.914,6.914,0,0,1-4.564,1.469Z" transform="translate(118.637 512.212)"/><path class="e" d="M17.479,23.23a5.189,5.189,0,0,1-3.8-1.366,2.552,2.552,0,0,1-.309-3.549A2.6,2.6,0,0,1,13.674,18a5.877,5.877,0,0,1,7.539,0,2.559,2.559,0,0,1,.309,3.549,2.406,2.406,0,0,1-.454.437A5.3,5.3,0,0,1,17.479,23.23Z" transform="translate(127.345 505.754)"/><path class="f" d="M21.911,25.419a9.938,9.938,0,0,1,6.364,2.016A4.383,4.383,0,0,1,29.6,33.387a4.309,4.309,0,0,1-1.324,1.356,11.208,11.208,0,0,1-12.777,0,4.394,4.394,0,0,1-1.384-5.956,4.309,4.309,0,0,1,1.42-1.42,9.938,9.938,0,0,1,6.378-1.949Z" transform="translate(129.121 528.132)"/><path class="g" d="M48.093,14.56a20.511,20.511,0,0,1-4.085,6.775A166.41,166.41,0,0,1,30.7,35.831,1.817,1.817,0,0,1,28.8,36.5a2.4,2.4,0,0,1-.891-.543q-1.523-1.452-3-2.956a1.679,1.679,0,0,1-.27-2.318,1.977,1.977,0,0,1,.185-.2,2.357,2.357,0,0,1,.2-.185A171.507,171.507,0,0,1,39.575,17.165a30.147,30.147,0,0,1,5.04-3.358,9.108,9.108,0,0,1,1.8-.671,1.253,1.253,0,0,1,1.643.664v.05Z" transform="translate(156.677 496.592)"/><path class="h" d="M20,29.795a.284.284,0,0,1,.106.021,8.018,8.018,0,0,0,10.566-1.65,5.441,5.441,0,0,0,1.459-4.295A4.153,4.153,0,0,0,28.582,20.3a3.638,3.638,0,0,0-3.276,1.448A5.487,5.487,0,0,0,24.3,24.081,9.132,9.132,0,0,1,20,29.706Z" transform="translate(145.729 515.064)"/><path class="i" d="M30.943,22.53c-1.153-1.161-2.325-2.311-3.492-3.464a.838.838,0,0,0-1.171-.188h-.021a.855.855,0,0,0-.224.256q-1.48,1.931-2.946,3.876a.777.777,0,0,0,.028,1.065l.039.035q1.31,1.3,2.619,2.584a.8.8,0,0,0,1.122.124h0c1.331-.983,2.665-1.966,3.975-2.978a2.839,2.839,0,0,0,.483-.71,4.259,4.259,0,0,0-.412-.6Z" transform="translate(153.1 511.075)"/><path class="j" d="M20.559,21.067a4.064,4.064,0,0,1-3.049-1.139,2.19,2.19,0,0,1-.17-3.038,2.012,2.012,0,0,1,.17-.177,4.564,4.564,0,0,1,6.034,0,2.19,2.19,0,0,1,.17,3.042,2.069,2.069,0,0,1-.284.273,4.142,4.142,0,0,1-2.871,1.04Z" transform="translate(137.592 503.057)"/><path class="k" d="M20,29.756s13.9-4.032,9.437-9.278c0,0-3.042-1.395-5.164,3.574A13.917,13.917,0,0,1,20,29.756Z" transform="translate(145.729 515.103)"/><path class="l" d="M24.353,25.343l4.873-4.515-1.775-1.775a.848.848,0,0,0-1.193-.16l-.028.021a.9.9,0,0,0-.2.224c-.71.919-4.089,3.8-2.882,4.994Z" transform="translate(153.11 511.076)"/><path class="m" d="M26.426,34.553,48.154,13.9s.146-1.395-1.661-.71-2.839-.628-21.629,17.391a1.569,1.569,0,0,0,.085,2.52Z" transform="translate(156.616 496.5)"/><path class="n" d="M24.414,21.356a4.078,4.078,0,0,1-3.045-1.139,2.19,2.19,0,0,1-.17-3.042,1.969,1.969,0,0,1,.17-.174A4.564,4.564,0,0,1,27.4,17a2.19,2.19,0,0,1,.17,3.035,1.949,1.949,0,0,1-.291.277A4.121,4.121,0,0,1,24.414,21.356Z" transform="translate(147.423 503.794)"/></g></g></svg>