<svg xmlns="http://www.w3.org/2000/svg" xmlns:xlink="http://www.w3.org/1999/xlink" width="108.84" height="113.123" viewBox="0 0 108.84 113.123"><defs><linearGradient id="a" x1="-244.515" y1="45.04" x2="-246.887" y2="45.042" gradientUnits="objectBoundingBox"><stop offset="0.231" stop-color="#999875"/><stop offset="0.563" stop-color="#9b9977"/><stop offset="0.683" stop-color="#a09f7e"/><stop offset="0.768" stop-color="#a9a889"/><stop offset="0.837" stop-color="#b7b69a"/><stop offset="0.896" stop-color="#c9c7b0"/><stop offset="0.948" stop-color="#deddcb"/><stop offset="0.994" stop-color="#f8f6eb"/><stop offset="1" stop-color="#fbf9ef"/></linearGradient><linearGradient id="b" x1="-142.274" y1="44.946" x2="-144.258" y2="45.856" gradientUnits="objectBoundingBox"><stop offset="0" stop-color="#48a547"/><stop offset="1" stop-color="#3f9143"/></linearGradient><linearGradient id="c" x1="-138.764" y1="45.031" x2="-140.147" y2="44.784" gradientUnits="objectBoundingBox"><stop offset="0" stop-color="#41a247"/><stop offset="0.352" stop-color="#4ba74b"/><stop offset="0.956" stop-color="#67b554"/><stop offset="1" stop-color="#69b655"/></linearGradient></defs><g transform="translate(1116 -2443)"><path d="M121.846,74.667H53.978c-6.247,0-11.311,11.193-11.311,25v10c0,2.762,1.013,5,2.262,5H64.294c.965.01,1.824,1.352,2.149,3.36l2.466,16.491c.951,6.052,3.526,10.12,6.425,10.15H130.9c1.249,0,2.262-2.239,2.262-5v-40C133.157,85.86,128.093,74.667,121.846,74.667Z" transform="translate(-1149.667 2368.333)" fill="#dcb67a"/><path d="M101.709,155.135H41.678a2.4,2.4,0,0,1-2.147-1.844l-2.464-9.052c-.952-3.321-3.523-5.553-6.419-5.572H6.781C3.036,138.667,0,142.353,0,146.9a93.392,93.392,0,0,0,2.672,22.308l9.041,36.515c1.432,5.819,5.843,9.8,10.845,9.793H86.385c4.728.016,8.964-3.542,10.618-8.92l9.764-31.629a39.708,39.708,0,0,0,1.722-11.6C108.49,158.821,105.454,155.135,101.709,155.135Z" transform="translate(-1116 2314.333)" fill="#c09553"/><g transform="translate(181 234)"><path d="M31.084,76.132l-1.947-.647s.249-9.859-3.306-10.548c-2.345-2.718.346-116.045,8.877-.387A7.031,7.031,0,0,0,31.25,68.5a36.571,36.571,0,0,0-.166,7.632Z" transform="translate(-1233.96 2245.991)" fill="url(#a)"/><path d="M29.2,72.967a34.3,34.3,0,0,0,12.961-34.3c-3.8-16.821-12.833-22.351-13.805-24.46a25.318,25.318,0,0,1-2.141-4.15l.719,46.866S25.445,71.242,29.2,72.967Z" transform="translate(-1231.025 2239.635)" fill="url(#b)"/><path d="M36.584,73.725S20.707,62.911,21.627,43.784A40.309,40.309,0,0,1,35.941,13.572,4.5,4.5,0,0,0,37.514,10c.989,2.127.827,31.754.93,35.219C38.849,58.7,37.7,71.18,36.584,73.725Z" transform="translate(-1242.4 2239.5)" fill="url(#c)"/></g></g></svg>