<svg xmlns="http://www.w3.org/2000/svg" width="138.5" height="111.504" viewBox="0 0 138.5 111.504"><defs><style>.a{fill:#3f85aa;}.b{fill:#0f6695;}.c{fill:#0096e6;}.d{fill:#fff;}</style></defs><g transform="translate(-215 -317)"><path class="a" d="M121.846,74.667H53.978c-6.247,0-11.311,11.193-11.311,25v10c0,2.762,1.013,5,2.262,5H64.294c.965.01,1.824,1.352,2.149,3.36l2.466,16.491c.951,6.052,3.526,10.12,6.425,10.15h55.561c1.249,0,2.262-2.239,2.262-5v-40C133.157,85.86,128.093,74.667,121.846,74.667Z" transform="translate(181.333 242.333)"/><path class="b" d="M101.709,155.135H41.678a2.4,2.4,0,0,1-2.147-1.844l-2.464-9.052c-.952-3.321-3.523-5.553-6.419-5.572H6.781C3.036,138.667,0,142.353,0,146.9a93.392,93.392,0,0,0,2.672,22.308l9.041,36.515c1.432,5.819,5.843,9.8,10.845,9.793H86.385c4.728.016,8.964-3.542,10.618-8.92l9.764-31.629a39.708,39.708,0,0,0,1.722-11.6C108.49,158.821,105.454,155.135,101.709,155.135Z" transform="translate(215 188.333)"/><g transform="translate(113 -235.84)"><path class="c" d="M60.789,37.439H70.8V47.656h5.062a21.928,21.928,0,0,0,6.956-1.166A17.812,17.812,0,0,0,86.2,44.964a12.541,12.541,0,0,1-2.333-6.471,13.674,13.674,0,0,1,2.454-9.634l1.04-1.218,1.25,1.008a15.946,15.946,0,0,1,6.28,10.119A15.312,15.312,0,0,1,106.5,39.851l1.4.793-.723,1.4A14.491,14.491,0,0,1,92.63,48.986c-8.678,21.582-27.526,31.8-50.414,31.8A31.725,31.725,0,0,1,13.365,65.9l-.1-.173L12.358,63.9a29.1,29.1,0,0,1-2.3-14.724l.14-1.512h8.561V37.439H28.761V27.418H48.78V17.406H60.766Z" transform="translate(132.6 583.5)"/><path class="d" d="M38.8,39.118a21.074,21.074,0,0,1-10.987-10.81,36.142,36.142,0,0,1-7.931,1.2q-1.74.1-3.658.1-2.211,0-4.665-.131a31.673,31.673,0,0,0,24.5,9.69Q37.463,39.169,38.8,39.118Z" transform="translate(138.701 623.46)"/><path class="d" d="M19.421,38.5h.686v7.231h-.686Zm-1.316,0h.709v7.231H18.1V38.5Zm-1.316,0h.718v7.231H16.8Zm-1.316,0h.714v7.231h-.714Zm-1.316,0h.709v7.231h-.709Zm-1.288,0h.686v7.231H12.87Zm-.718-.723H20.82v8.673H12.157ZM22.173,27.771h8.678v8.673H22.173Zm7.269.723H30.1v7.227h-.686Zm-1.316,0h.709v7.227h-.709Zm-1.316,0h.709v7.227h-.681V28.494Zm-1.316,0H26.2v7.227h-.718Zm-1.316,0h.709v7.227h-.709Zm-1.288,0h.681v7.227h-.686Zm-.723,9.284h8.678v8.678H22.173V37.783Zm7.269.723H30.1v7.231h-.686Zm-1.316,0h.709v7.231h-.709Zm-1.316,0h.709v7.231h-.7V38.5Zm-1.316,0H26.2v7.231h-.714Zm-1.316,0h.709v7.231h-.709Zm-1.288,0h.686v7.231h-.686Zm9.289-.723h8.659v8.678H32.157V37.783Zm7.259.723h.686v7.231h-.686Zm-1.316,0h.709v7.231H38.12Zm-1.316,0h.709v7.231H36.8Zm-1.316,0H36.2v7.231h-.709Zm-1.316,0h.709v7.231h-.709Zm-1.288,0h.686v7.231H32.9Zm-.723-10.73h8.673v8.673H32.157V27.771Zm7.273.723h.686v7.227h-.686Zm-1.316,0h.709v7.227H38.12Zm-1.316,0h.709v7.227H36.8Zm-1.316,0H36.2v7.227h-.709Zm-1.316,0h.709v7.227h-.709Zm-1.288,0h.686v7.227H32.9Zm9.289,9.284h8.673v8.678H42.169V37.783Zm7.264.723h.686v7.231h-.686Zm-1.316,0h.709v7.231h-.709Zm-1.316,0h.709v7.231h-.709Zm-1.316,0H46.2v7.231h-.7Zm-1.316,0h.709v7.231h-.69Zm-1.288,0h.672v7.231h-.686V38.5Zm-.723-10.73h8.673v8.673H42.16V27.771Zm7.264.723h.686v7.227h-.686Zm-1.316,0h.709v7.227h-.709Zm-1.316,0h.709v7.227H46.8Zm-1.316,0h.709v7.227H45.5Zm-1.316,0h.709v7.227h-.681Zm-1.288,0h.672v7.227h-.686V28.494Zm-.723-10.73h8.673v8.673H42.15V17.764Zm7.264.723H50.1v7.227h-.686Zm-1.316,0h.709v7.227H48.1Zm-1.316,0H47.5v7.227h-.709Zm-1.316,0h.709v7.227H45.5Zm-1.316,0h.709v7.227h-.672Zm-1.288,0h.672v7.227h-.686V18.487Zm9.284,19.291h8.673v8.678H52.148V37.783Zm7.264.723H60.1v7.231h-.686V38.5Zm-1.316,0h.723v7.231h-.681Zm-1.316,0h.709v7.231h-.709Zm-1.316,0h.76v7.231h-.709Zm-1.316,0h.709v7.231h-.718V38.5Zm-1.288,0h.686v7.231h-.635V38.5Z" transform="translate(140.867 584.812)"/><path class="d" d="M17.921,26.929a2.393,2.393,0,1,1-2.393,2.393,2.393,2.393,0,0,1,2.393-2.393Zm0,.676a1.712,1.712,0,0,1,.62.117.7.7,0,1,0,.966.933,1.712,1.712,0,1,1-1.582-1.064Z" transform="translate(153.242 618.405)"/></g></g></svg>