<svg xmlns="http://www.w3.org/2000/svg" width="118" height="99.206" viewBox="0 0 118 99.206"><g transform="translate(-44 -1580.488)"><path d="M117.206,53.334H33.653a12.257,12.257,0,0,0-12.17,13.885,2.457,2.457,0,0,0,3.681,1.8,6.96,6.96,0,0,1,3.573-.944h17.5a7.412,7.412,0,0,1,6.989,5l.418,1.347a12.346,12.346,0,0,0,11.656,8.4h56.816a7.372,7.372,0,0,1,3.671.983,2.462,2.462,0,0,0,3.7-2.123V65.621a12.287,12.287,0,0,0-12.281-12.287Z" transform="translate(23 1528.224)" fill="#9b9b9b"/><path d="M102.856,111.089a11.235,11.235,0,0,0-5.664-1.528H44.934a6.817,6.817,0,0,1-6.428-4.6l-.384-1.239A11.355,11.355,0,0,0,27.4,96H11.3a10.816,10.816,0,0,0-5.533,1.46A11.274,11.274,0,0,0,0,107.3v54.247a11.3,11.3,0,0,0,11.3,11.3H97.192a11.3,11.3,0,0,0,11.3-11.3V120.862A11.224,11.224,0,0,0,102.856,111.089Z" transform="translate(44 1484.489)" fill="gray"/><path d="M70.544,53.448a18.676,18.676,0,0,1,8.912-15.716,19.277,19.277,0,0,0-15.1-8.183c-6.428-.653-12.544,3.785-15.809,3.785s-8.291-3.689-13.618-3.6A20.2,20.2,0,0,0,17.855,40.091c-7.281,12.632-1.866,31.349,5.231,41.594C26.554,86.7,30.7,92.334,36.115,92.13c5.227-.208,7.209-3.384,13.526-3.384s8.1,3.384,13.618,3.28c5.607-.1,9.188-5.111,12.632-10.141A45.519,45.519,0,0,0,81.622,70.13,18.236,18.236,0,0,1,70.544,53.448ZM60.13,22.768A18.2,18.2,0,0,0,64.424,9.583a18.508,18.508,0,0,0-12.16,6.252,17.306,17.306,0,0,0-4.386,12.773,15.312,15.312,0,0,0,12.272-5.84Z" transform="translate(80.378 1587.559)" fill="#b3b3b3"/></g></svg>