<svg xmlns="http://www.w3.org/2000/svg" width="116.282" height="111.282" viewBox="0 0 116.282 111.282"><g transform="translate(-1769 -763)"><g transform="translate(1555 223)"><path d="M121.846,74.667H53.978c-6.247,0-11.311,11.193-11.311,25v10c0,2.762,1.013,5,2.262,5H64.294c.965.01,1.824,1.352,2.149,3.36l2.466,16.491c.951,6.052,3.526,10.12,6.425,10.15H130.9c1.249,0,2.262-2.239,2.262-5v-40C133.157,85.86,128.093,74.667,121.846,74.667Z" transform="translate(180.333 465.333)" fill="#dcb67a"/><path d="M101.709,155.135H41.678a2.4,2.4,0,0,1-2.147-1.844l-2.464-9.052c-.952-3.321-3.523-5.553-6.419-5.572H6.781C3.036,138.667,0,142.353,0,146.9a93.392,93.392,0,0,0,2.672,22.308l9.041,36.515c1.432,5.819,5.843,9.8,10.845,9.793H86.385c4.728.016,8.964-3.542,10.618-8.92l9.764-31.629a39.708,39.708,0,0,0,1.722-11.6C108.49,158.821,105.454,155.135,101.709,155.135Z" transform="translate(214 411.333)" fill="#c09553"/></g><g transform="translate(1825 814)"><path d="M30.641,59.282A28.641,28.641,0,1,1,59.282,30.641,28.641,28.641,0,0,1,30.641,59.282Zm0-54.868A26.227,26.227,0,1,0,56.868,30.641,26.227,26.227,0,0,0,30.641,4.414Z" transform="translate(0 0)" fill="#5578bf" stroke="#5578bf" stroke-width="2"/><rect width="54.071" height="2.414" transform="translate(3.596 29.434)" fill="#5578bf" stroke="#5578bf" stroke-width="2"/><path d="M28.765,13.273A91.611,91.611,0,0,1,4.42,10.1l.7-2.312c.225,0,23.077,6.792,45.887,0l.675,2.312a80.543,80.543,0,0,1-22.913,3.171Z" transform="translate(2.531 6.055)" fill="#5578bf" stroke="#5578bf" stroke-width="2"/><path d="M5.146,26.714,4.45,24.4c23.527-7,46.3-.286,47.258,0l-.7,2.312C50.787,26.633,27.956,19.922,5.146,26.714Z" transform="translate(2.562 20.109)" fill="#5578bf" stroke="#5578bf" stroke-width="2"/><path d="M14.4,55.648a72.524,72.524,0,0,1-1.514-52.6l2.209.941a70.028,70.028,0,0,0,1.514,50.715Z" transform="translate(6.977 1.098)" fill="#5578bf" stroke="#5578bf" stroke-width="2"/><path d="M21.569,55.637,19.36,54.7A70.028,70.028,0,0,0,20.874,4l2.209-.941a72.544,72.544,0,0,1-1.514,52.577Z" transform="translate(18.155 1.109)" fill="#5578bf" stroke="#5578bf" stroke-width="2"/><rect width="2.414" height="55.073" transform="translate(29.434 3.596)" fill="#5578bf" stroke="#5578bf" stroke-width="2"/></g></g></svg>