<svg xmlns="http://www.w3.org/2000/svg" viewBox="0 0 128.78 111.12"><defs><style>.cls-1{fill:#897d7d;}.cls-2{fill:#e8dad9;}.cls-3{fill:#7c2424;stroke:#7c2424;stroke-miterlimit:32;stroke-width:2px;}</style></defs><g id="Camada_2" data-name="Camada 2"><g id="Camada_1-2" data-name="Camada 1"><path class="cls-1" d="M88.3,0H20.4C14.2,0,9.1,11.2,9.1,25V35c0,2.8,1,5,2.3,5H30.8c1,0,1.8,1.4,2.2,3.4l2.5,16.5c1,6,3.5,10.1,6.4,10.1H97.5c1.2,0,2.3-2.2,2.3-5V25C99.6,11.2,94.5,0,88.3,0Z"/><path class="cls-2" d="M101.8,26.5h-60a2.58,2.58,0,0,1-2.2-1.8l-2.5-9c-1-3.3-3.5-5.6-6.4-5.6H6.8C3,10,0,13.7,0,18.3A93.21,93.21,0,0,0,2.7,40.6l9,36.5c1.4,5.8,5.9,9.8,10.9,9.8H86.5c4.7,0,9-3.5,10.6-8.9l9.8-31.6a41.75,41.75,0,0,0,1.7-11.6C108.6,30.1,105.5,26.5,101.8,26.5Z"/><g id="SVGRepo_iconCarrier" data-name="SVGRepo iconCarrier"><path class="cls-3" d="M56.92,60.54H68.55A3,3,0,0,0,70,59.67l10.39-13a1.85,1.85,0,0,1,2.6-.37,1.62,1.62,0,0,1,.37.37l10.4,13a1.79,1.79,0,0,0,1.48.62h11.89a2,2,0,0,0,2-1.93V42.05a5.81,5.81,0,0,0-5.8-5.82H60.75A5.8,5.8,0,0,0,54.94,42V58.51a2,2,0,0,0,1.88,2Z"/><path class="cls-3" d="M106.25,71.13a12.35,12.35,0,0,1,2.77-.34V68a2,2,0,0,0-1.93-2H95.41a3.38,3.38,0,0,0-1.49.74l-10.39,13a1.86,1.86,0,0,1-3,0L70,66.8a1.84,1.84,0,0,0-1.49-.62H56.92a2,2,0,0,0-2,1.93V84.62a5.79,5.79,0,0,0,5.79,5.82h30.1l8-13.74A13,13,0,0,1,106.25,71.13Z"/><path class="cls-3" d="M126.94,101.28l-12.46-21.4a5.73,5.73,0,0,0-2.08-2.07,5.1,5.1,0,0,0-2.93-.86,6.21,6.21,0,0,0-1.6.25,5.93,5.93,0,0,0-3.54,2.68l-12.47,21.4a5.13,5.13,0,0,0-.86,2.94,5.83,5.83,0,0,0,5.76,5.9h25.17a6.38,6.38,0,0,0,2.95-.85,5.67,5.67,0,0,0,2.68-3.54A5.53,5.53,0,0,0,126.94,101.28Zm-17.6,3.79a2.69,2.69,0,0,1-2.72-2.67h0a2.91,2.91,0,0,1,1.24-2.24,2.69,2.69,0,1,1,2.89,4.53,2.8,2.8,0,0,1-1.41.42ZM112,97a.84.84,0,0,1-.8.86h-3.59a.85.85,0,0,1-.87-.82V85.37a.84.84,0,0,1,.83-.86h3.58a.83.83,0,0,1,.85.81V97Z"/></g></g></g></svg>