<svg xmlns="http://www.w3.org/2000/svg" width="38.067" height="28.002" viewBox="0 0 38.067 28.002"><g transform="translate(691 -1611)"><path d="M23,19.418a6.971,6.971,0,1,1-.05-6.918l6.093-3.509a14,14,0,1,0,.036,13.95Z" transform="translate(-693.922 1609.004)" fill="#854cc7"/><path d="M19.2,7.071h1.964V9.222h1.965V7.071H25.1V9.222h1.96v2.151H25.094v2.15h1.962v2.151H25.093v2.151H23.133V15.676H21.171v2.151H19.2V15.678H17.24V13.521H19.2V11.376H17.24V9.221H19.2Zm1.964,6.453h1.965V11.373H21.167Z" transform="translate(-679.989 1605.934)" fill="#854cc7"/></g></svg>