<svg xmlns="http://www.w3.org/2000/svg" xmlns:xlink="http://www.w3.org/1999/xlink" width="123.6" height="96.012" viewBox="0 0 123.6 96.012"><defs><style>.a{fill:#58af7b;}.b{fill:url(#a);}.c{fill:url(#b);}</style><linearGradient id="a" x1="-9.653" y1="15.022" x2="-9.649" y2="15.019" gradientUnits="objectBoundingBox"><stop offset="0" stop-color="#387eb8"/><stop offset="1" stop-color="#366994"/></linearGradient><linearGradient id="b" x1="-10" y1="14.707" x2="-9.996" y2="14.704" gradientUnits="objectBoundingBox"><stop offset="0" stop-color="#ffe052"/><stop offset="1" stop-color="#ffc331"/></linearGradient></defs><g transform="translate(-32 -309.488)"><g transform="translate(-2 75)"><g transform="translate(16 -18)"><path class="a" d="M102.856,111.089a11.235,11.235,0,0,0-5.664-1.528H44.934a6.817,6.817,0,0,1-6.428-4.6l-.384-1.239A11.355,11.355,0,0,0,27.395,96H11.3a10.816,10.816,0,0,0-5.533,1.46A11.274,11.274,0,0,0,0,107.3v54.247a11.3,11.3,0,0,0,11.3,11.3H97.192a11.3,11.3,0,0,0,11.3-11.3V120.862A11.224,11.224,0,0,0,102.856,111.089Z" transform="translate(18 156.49)"/></g></g><g transform="translate(-103 -123.9)"><path class="b" d="M39.713,11.026c-14.683,0-13.754,6.386-13.754,6.386v6.638H39.921v2.082H20.4S11,24.968,11,39.95s8.3,14.382,8.3,14.382h4.791V47.35A7.877,7.877,0,0,1,32.154,39H46.137a7.478,7.478,0,0,0,7.8-7.6V18.724S55.12,11,39.788,11h0Zm-7.718,4.447a2.524,2.524,0,1,1-2.446,2.588h0V18.02a2.519,2.519,0,0,1,2.51-2.527h0Z" transform="translate(189.7 460.5)"/><path class="c" d="M30.4,59.366c14.681,0,13.751-6.41,13.751-6.41V46.338H30.193V44.254H49.778s9.4,1.057,9.4-13.838-8.3-14.382-8.3-14.382H46.023v6.9a7.877,7.877,0,0,1-8.065,8.349H23.969a7.486,7.486,0,0,0-7.817,7.605V51.651s-1.172,7.715,14.159,7.715Zm7.715-4.47a2.524,2.524,0,1,1,2.446-2.588h0v.064a2.516,2.516,0,0,1-2.51,2.524h.064Z" transform="translate(199.425 470.034)"/></g></g></svg>