<svg xmlns="http://www.w3.org/2000/svg" width="110" height="102.5" viewBox="0 0 110 102.5"><g transform="translate(-196 -1569)"><g transform="translate(-18 1029)"><path d="M121.846,74.667H53.978c-6.247,0-11.311,11.193-11.311,25v10c0,2.762,1.013,5,2.262,5H64.294c.965.01,1.824,1.352,2.149,3.36l2.466,16.491c.951,6.052,3.526,10.12,6.425,10.15H130.9c1.249,0,2.262-2.239,2.262-5v-40C133.157,85.86,128.093,74.667,121.846,74.667Z" transform="translate(180.333 465.333)" fill="#dcb67a"/><path d="M101.709,155.135H41.678a2.4,2.4,0,0,1-2.147-1.844l-2.464-9.052c-.952-3.321-3.523-5.553-6.419-5.572H6.781C3.036,138.667,0,142.353,0,146.9a93.392,93.392,0,0,0,2.672,22.308l9.041,36.515c1.432,5.819,5.843,9.8,10.845,9.793H86.385c4.728.016,8.964-3.542,10.618-8.92l9.764-31.629a39.708,39.708,0,0,0,1.722-11.6C108.49,158.821,105.454,155.135,101.709,155.135Z" transform="translate(214 411.333)" fill="#c09553"/></g><g transform="translate(-149 -11.4)"><rect width="60.4" height="60.4" rx="2.761" transform="translate(394.6 1622.5)" fill="#414141"/><path d="M17.714,11.925h37.75a5.79,5.79,0,0,1,5.79,5.79v37.75a5.787,5.787,0,0,1-5.787,5.787H17.714a5.79,5.79,0,0,1-5.79-5.79V17.715a5.79,5.79,0,0,1,5.79-5.79Z" transform="translate(388.21 1616.112)" fill="#c2c2c2"/><path d="M15.085,13.325H52.838a1.76,1.76,0,0,1,1.76,1.76V52.838A1.763,1.763,0,0,1,52.835,54.6H15.088a1.763,1.763,0,0,1-1.763-1.763V15.085a1.76,1.76,0,0,1,1.76-1.76Z" transform="translate(390.838 1618.738)" fill="#414141"/><path d="M46.932,33.759H43.769a12.031,12.031,0,0,1-2.131,5.088l2.243,2.243a2.013,2.013,0,0,1-2.847,2.847l-2.261-2.261a12.034,12.034,0,0,1-5.065,2.048v3.247a2.013,2.013,0,1,1-4.027,0V43.691a12.08,12.08,0,0,1-4.97-2.114l-2.358,2.358a2.013,2.013,0,0,1-2.847-2.847l2.376-2.376a12.08,12.08,0,0,1-2.033-4.956H16.479a2.013,2.013,0,0,1,0-4.027h3.377a12.08,12.08,0,0,1,2.033-4.953L19.514,22.4a2.013,2.013,0,0,1,2.847-2.847l2.356,2.358A12.08,12.08,0,0,1,29.69,19.8V16.519a2.013,2.013,0,0,1,4.027,0v3.247a12.045,12.045,0,0,1,5.068,2.051l2.261-2.264A2.013,2.013,0,0,1,43.892,22.4l-2.246,2.246a12.051,12.051,0,0,1,2.131,5.085h3.164a2.013,2.013,0,1,1,0,4.027Z" transform="translate(392.979 1620.954)" fill="#c2c2c2"/><circle cx="8.117" cy="8.117" r="8.117" transform="translate(416.683 1644.583)" fill="#414141"/><circle cx="3.224" cy="3.224" r="3.224" transform="translate(421.576 1649.476)" fill="#c2c2c2"/></g></g></svg>