<svg xmlns="http://www.w3.org/2000/svg" viewBox="0 0 137.9 114.11"><defs><style>.cls-1{fill:#ef3f3f;}.cls-2{fill:#961c12;}.cls-3{fill:#e23237;}.cls-4{fill:#b52e31;}.cls-5{fill:#fff;}</style></defs><g id="Camada_2" data-name="Camada 2"><g id="Camada_1-2" data-name="Camada 1"><path class="cls-1" d="M96.3,1H12.7A12.27,12.27,0,0,0,.4,13.2a8.08,8.08,0,0,0,.1,1.6,2.49,2.49,0,0,0,2.8,2.1,3.18,3.18,0,0,0,.9-.3,6.44,6.44,0,0,1,3.6-.9H25.3a7.33,7.33,0,0,1,7,5l.4,1.3a12.38,12.38,0,0,0,11.7,8.4h56.8a6.86,6.86,0,0,1,3.7,1,2.47,2.47,0,0,0,3.4-.9,2.66,2.66,0,0,0,.3-1.2V13.2A12.4,12.4,0,0,0,96.3,1Z"/><path class="cls-2" d="M102.9,15a11.29,11.29,0,0,0-5.7-1.5H44.9a6.79,6.79,0,0,1-6.4-4.6l-.4-1.2A11.39,11.39,0,0,0,27.4,0H11.3A10.58,10.58,0,0,0,5.8,1.5,11.27,11.27,0,0,0,0,11.3V65.5A11.35,11.35,0,0,0,11.3,76.8H97.2a11.35,11.35,0,0,0,11.3-11.3h0V24.8A11.2,11.2,0,0,0,102.9,15Z"/><path class="cls-3" d="M62,46.94,99.44,33.59,137.9,46.7l-6.23,49.56L99.44,114.11,67.7,96.49Z"/><path class="cls-4" d="M137.9,46.7,99.44,33.59v80.52l32.23-17.82L137.9,46.7Z"/><path class="cls-5" d="M99.5,43h0L76.15,94.92l8.72-.15,4.69-11.71H110.5l5.13,11.86,8.33.15L99.5,43Zm0,16.64,7.89,16.49H92.61l6.94-16.49Z"/></g></g></svg>