<svg xmlns="http://www.w3.org/2000/svg" width="113.485" height="94.189" viewBox="0 0 113.485 94.189"><g transform="translate(1502 -2136)"><path d="M121.846,74.667H53.978c-6.247,0-11.311,11.193-11.311,25v10c0,2.762,1.013,5,2.262,5H64.294c.965.01,1.824,1.352,2.149,3.36l2.466,16.491c.951,6.052,3.526,10.12,6.425,10.15H130.9c1.249,0,2.262-2.239,2.262-5v-40C133.157,85.86,128.093,74.667,121.846,74.667Z" transform="translate(-1535.667 2061.333)" fill="#55a1bf"/><path d="M101.709,155.135H41.678a2.4,2.4,0,0,1-2.147-1.844l-2.464-9.052c-.952-3.321-3.523-5.553-6.419-5.572H6.781C3.036,138.667,0,142.353,0,146.9a93.392,93.392,0,0,0,2.672,22.308l9.041,36.515c1.432,5.819,5.843,9.8,10.845,9.793H86.385c4.728.016,8.964-3.542,10.618-8.92l9.764-31.629a39.708,39.708,0,0,0,1.722-11.6C108.49,158.821,105.454,155.135,101.709,155.135Z" transform="translate(-1502 2007.333)" fill="#00608b"/><g transform="translate(-244 -98)"><path d="M18.415,48.522a2.459,2.459,0,0,1-2.546.4l-4.463-1.867a2.462,2.462,0,0,1-1.515-2.269V18.576a2.459,2.459,0,0,1,1.515-2.261l4.472-1.859a2.457,2.457,0,0,1,2.546.4l1,.858a1.358,1.358,0,0,0-2.149,1.118V46.557a1.358,1.358,0,0,0,2.149,1.118Z" transform="translate(-1213.4 2267.158)" fill="#52218a"/><path d="M11.406,54.716a2.462,2.462,0,0,1-1.515-2.269v-.2a1.42,1.42,0,0,0,2.473.95L50.44,11.076a3.678,3.678,0,0,1,4.192-.713l12.157,5.855a3.686,3.686,0,0,1,2.1,3.32v.143a2.328,2.328,0,0,0-3.8-1.8L19.418,55.322l-1,.858a2.459,2.459,0,0,1-2.546.4Z" transform="translate(-1213.4 2259.5)" fill="#6c33af"/><path d="M11.406,16.32A2.462,2.462,0,0,0,9.891,18.59v.2a1.42,1.42,0,0,1,2.473-.95L50.44,59.958a3.672,3.672,0,0,0,4.192.713l12.157-5.852a3.683,3.683,0,0,0,2.1-3.323v-.14a2.328,2.328,0,0,1-3.8,1.8L19.418,15.714l-1-.858a2.459,2.459,0,0,0-2.546-.4Z" transform="translate(-1213.4 2267.153)" fill="#854cc7"/><path d="M28.592,68.326a3.681,3.681,0,0,1-4.192-.713,2.16,2.16,0,0,0,3.689-1.529V12.6A2.16,2.16,0,0,0,24.4,11.075a3.681,3.681,0,0,1,4.192-.713l12.152,5.844a3.689,3.689,0,0,1,2.1,3.323v39.63a3.689,3.689,0,0,1-2.09,3.323Z" transform="translate(-1187.36 2259.5)" fill="#b179f1"/></g></g></svg>