<svg xmlns="http://www.w3.org/2000/svg" viewBox="0 0 135.47 105.94"><defs><style>.cls-1{fill:#ef7b7b;}.cls-2{fill:#e02b22;}.cls-3{fill:#912626;}.cls-4{fill:#c6302b;}.cls-5{fill:#fff;}.cls-6{fill:#621b1c;}.cls-7{fill:#9a2928;}</style></defs><g id="Camada_2" data-name="Camada 2"><g id="Camada_1-2" data-name="Camada 1"><path class="cls-1" d="M96.3,1H12.7A12.27,12.27,0,0,0,.4,13.2a8.08,8.08,0,0,0,.1,1.6,2.49,2.49,0,0,0,2.8,2.1,3.18,3.18,0,0,0,.9-.3,6.44,6.44,0,0,1,3.6-.9H25.3a7.33,7.33,0,0,1,7,5l.4,1.3a12.38,12.38,0,0,0,11.7,8.4h56.8a6.86,6.86,0,0,1,3.7,1,2.47,2.47,0,0,0,3.4-.9,2.66,2.66,0,0,0,.3-1.2V13.2A12.4,12.4,0,0,0,96.3,1Z"/><path class="cls-2" d="M102.9,15a11.29,11.29,0,0,0-5.7-1.5H44.9a6.79,6.79,0,0,1-6.4-4.6l-.4-1.2A11.39,11.39,0,0,0,27.4,0H11.3A10.58,10.58,0,0,0,5.8,1.5,11.27,11.27,0,0,0,0,11.3V65.5A11.35,11.35,0,0,0,11.3,76.8H97.2a11.35,11.35,0,0,0,11.3-11.3h0V24.8A11.2,11.2,0,0,0,102.9,15Z"/><path class="cls-3" d="M132.23,89.74C127.83,92,105,101.42,100.14,104s-7.55,2.51-11.39.68S60.62,93,56.25,90.89c-2.19-1-3.34-1.93-3.34-2.76V79.79s31.62-6.89,36.73-8.72,6.87-1.89,11.21-.3,30.32,6.27,34.62,7.85c0,0,0,7.45,0,8.22s-1,1.73-3.23,2.9"/><path class="cls-4" d="M132.23,81.45c-4.41,2.29-27.23,11.68-32.09,14.21s-7.55,2.51-11.39.67S60.62,84.69,56.25,82.6s-4.47-3.53-.17-5.22,28.45-11.16,33.56-13,6.87-1.89,11.21-.3,27,10.62,31.33,12.19,4.46,2.87,0,5.17"/><path class="cls-3" d="M132.23,76.24c-4.4,2.3-27.23,11.68-32.09,14.21s-7.55,2.51-11.39.68S60.62,79.48,56.25,77.39c-2.19-1-3.34-1.93-3.34-2.76V66.29s31.62-6.89,36.73-8.72,6.87-1.9,11.21-.31,30.32,6.28,34.62,7.85c0,0,0,7.46,0,8.23s-1,1.73-3.23,2.9"/><path class="cls-4" d="M132.23,67.94c-4.41,2.3-27.23,11.68-32.09,14.22s-7.55,2.51-11.39.67S60.62,71.19,56.25,69.1s-4.47-3.54-.17-5.22,28.45-11.16,33.56-13,6.87-1.9,11.21-.3,27,10.62,31.33,12.19,4.46,2.87,0,5.16h0"/><path class="cls-3" d="M132.23,62.24c-4.4,2.29-27.23,11.68-32.09,14.21s-7.55,2.51-11.39.67S60.62,65.48,56.25,63.39c-2.19-1-3.34-1.93-3.34-2.76V52.28s31.62-6.88,36.73-8.71,6.87-1.9,11.21-.31,30.32,6.28,34.62,7.85c0,0,0,7.46,0,8.23s-1,1.73-3.23,2.9"/><path class="cls-4" d="M132.23,53.94c-4.41,2.3-27.23,11.68-32.09,14.22s-7.55,2.5-11.39.67S60.62,57.18,56.25,55.09s-4.47-3.53-.17-5.21,28.45-11.16,33.56-13,6.87-1.9,11.21-.31,27,10.62,31.33,12.2,4.46,2.87,0,5.16"/><path class="cls-5" d="M104.28,45.82l-7.1.74-1.59,3.82L93,46.12l-8.19-.74,6.11-2.2-1.83-3.39L94.83,42l5.4-1.77-1.46,3.5,5.51,2.06"/><path class="cls-5" d="M95.17,64.37,81.92,58.88l19-2.91-5.73,8.4"/><path class="cls-5" d="M76.8,48C82.4,48,87,49.71,87,51.88S82.4,55.81,76.8,55.81s-10.14-1.76-10.14-3.93S71.2,48,76.8,48"/><path class="cls-6" d="M112.67,46.87l11.23,4.44-11.22,4.43V46.87"/><path class="cls-7" d="M100.24,51.79l12.43-4.92v8.87l-1.22.48-11.22-4.43"/></g></g></svg>