<svg xmlns="http://www.w3.org/2000/svg" width="89.684" height="63.75" viewBox="0 0 89.684 63.75"><g transform="translate(-1217.6 -691)"><path d="M91.25,14.38H18.43c-4.652.008-8.421,3.393-8.43,7.572V70.57c.016,4.174,3.783,7.552,8.43,7.56H91.25c4.654-.006,8.425-3.392,8.435-7.572V21.952c-.012-4.179-3.782-7.563-8.435-7.572Z" transform="translate(1207.6 676.62)" fill="#675f58"/><path d="M93.182,62.865a3.778,3.778,0,0,1-3.92,3.57H14.994a3.778,3.778,0,0,1-3.92-3.57V17.62h82.1V62.865Z" transform="translate(1210.15 684.229)" fill="#ccc"/><rect width="37.715" height="4.618" transform="translate(1258.791 707.514)" fill="#c09553"/><rect width="16.423" height="4.618" transform="translate(1258.791 719)" fill="#c09553"/><rect width="20.01" height="4.618" transform="translate(1231.854 707.514)" fill="#c09553"/><rect width="20.01" height="4.618" transform="translate(1231.854 719)" fill="#c09553"/><rect width="23.423" height="4.618" transform="translate(1258.791 730)" fill="#c09553"/><rect width="20.01" height="4.618" transform="translate(1231.854 730)" fill="#c09553"/><rect width="33.423" height="4.618" transform="translate(1258.791 741)" fill="#c09553"/><rect width="20.01" height="4.618" transform="translate(1231.854 741)" fill="#c09553"/></g></svg>