<svg xmlns="http://www.w3.org/2000/svg" xmlns:xlink="http://www.w3.org/1999/xlink" width="129.134" height="114.012" viewBox="0 0 129.134 114.012"><defs><style>.a{fill:#9cb6e0;}.b{fill:#5578bf;}.c{fill:url(#a);}.d{fill:#6f95db;}.e{fill:rgba(255,255,255,0.1);}</style><radialGradient id="a" cx="0.484" cy="0.466" r="0.396" gradientTransform="matrix(1.155, 0, 0, -1.155, 0.68, -8.126)" gradientUnits="objectBoundingBox"><stop offset="0" stop-color="#93b4e7"/><stop offset="0.593" stop-color="#b9d1f8"/><stop offset="1" stop-color="#9cb6e0"/></radialGradient></defs><g transform="translate(-32 -309.488)"><path class="a" d="M117.206,53.334H33.653A12.257,12.257,0,0,0,21.483,67.219a2.457,2.457,0,0,0,3.681,1.8,6.96,6.96,0,0,1,3.573-.944h17.5a7.412,7.412,0,0,1,6.989,5l.418,1.347A12.346,12.346,0,0,0,65.3,82.823h56.816a7.372,7.372,0,0,1,3.671.983,2.462,2.462,0,0,0,3.7-2.123V65.621A12.287,12.287,0,0,0,117.206,53.334Z" transform="translate(11 256.225)"/><g transform="translate(-2 75)"><g transform="translate(16 -18)"><path class="b" d="M102.856,111.089a11.235,11.235,0,0,0-5.664-1.528H44.934a6.817,6.817,0,0,1-6.428-4.6l-.384-1.239A11.355,11.355,0,0,0,27.395,96H11.3a10.816,10.816,0,0,0-5.533,1.46A11.274,11.274,0,0,0,0,107.3v54.247a11.3,11.3,0,0,0,11.3,11.3H97.192a11.3,11.3,0,0,0,11.3-11.3V120.862A11.224,11.224,0,0,0,102.856,111.089Z" transform="translate(18 156.49)"/></g></g><g transform="translate(-17 -157.77)"><path class="c" d="M48.605,10.032,12.821,30.693V72.015L48.605,92.676,84.39,72.015V30.693Z" transform="translate(93.662 488.594)"/><path class="d" d="M35.136,15.35,17.4,25.6v20.5L35.136,56.341,52.873,46.093V25.6Z" transform="translate(107.131 504.237)"/><path class="e" d="M48.667,10,12.8,30.8,48.667,50.329l35.867-19.4Zm0,43L12.8,72.018,48.667,92.691,84.4,71.881Z" transform="translate(93.6 488.5)"/></g></g></svg>