<svg xmlns="http://www.w3.org/2000/svg" viewBox="0 0 108.6 108.45"><defs><style>.cls-1{fill:#b29264;}.cls-2{fill:#84725a;}.cls-3,.cls-4{fill:#c48703;stroke:#c48703;stroke-miterlimit:26.53;}.cls-3{stroke-width:0.25px;}.cls-4{stroke-width:6.63px;}</style></defs><g id="Camada_2" data-name="Camada 2"><g id="Camada_1-2" data-name="Camada 1"><path class="cls-1" d="M88.3,0H20.4C14.2,0,9.1,11.2,9.1,25V35c0,2.8,1,5,2.3,5H30.8c1,0,1.8,1.4,2.2,3.4l2.5,16.5c1,6,3.5,10.1,6.4,10.1H97.5c1.2,0,2.3-2.2,2.3-5V25C99.6,11.2,94.5,0,88.3,0Z"/><path class="cls-2" d="M101.8,26.5h-60a2.58,2.58,0,0,1-2.2-1.8l-2.5-9c-1-3.3-3.5-5.6-6.4-5.6H6.8C3,10,0,13.7,0,18.3A93.21,93.21,0,0,0,2.7,40.6l9,36.5c1.4,5.8,5.9,9.8,10.9,9.8H86.5c4.7,0,9-3.5,10.6-8.9l9.8-31.6a41.75,41.75,0,0,0,1.7-11.6C108.6,30.1,105.5,26.5,101.8,26.5Z"/><path class="cls-3" d="M57.3,96a1.77,1.77,0,1,1-1.77,1.76A1.76,1.76,0,0,1,57.3,96Z"/><path class="cls-4" d="M103.67,95.13,98.76,51a3,3,0,0,0-3-2.45H57.48a3,3,0,0,0-3,2.45L49.56,95.13c0,.06,0,.1,0,.15v4.93a4.93,4.93,0,0,0,4.92,4.92H98.78a4.93,4.93,0,0,0,4.92-4.92V95.28S103.67,95.18,103.67,95.13Zm-27-34.31,7.12,8.9H79.29v8.9H74v-8.9H69.5Zm24.62,39.39a2.47,2.47,0,0,1-2.47,2.46H54.45A2.46,2.46,0,0,1,52,100.21V95.28a2.47,2.47,0,0,1,2.46-2.46H98.78a2.47,2.47,0,0,1,2.46,2.46v4.93Z"/></g></g></svg>