<svg xmlns="http://www.w3.org/2000/svg" width="134" height="99.002" viewBox="0 0 134 99.002"><g transform="translate(-407 -943)"><path d="M121.846,74.667H53.978c-6.247,0-11.311,11.193-11.311,25v10c0,2.762,1.013,5,2.262,5H64.294c.965.01,1.824,1.352,2.149,3.36l2.466,16.491c.951,6.052,3.526,10.12,6.425,10.15H130.9c1.249,0,2.262-2.239,2.262-5v-40C133.157,85.86,128.093,74.667,121.846,74.667Z" transform="translate(373.333 868.333)" fill="#55bbbf"/><path d="M101.709,155.135H41.678a2.4,2.4,0,0,1-2.147-1.844l-2.464-9.052c-.952-3.321-3.523-5.553-6.419-5.572H6.781C3.036,138.667,0,142.353,0,146.9a93.392,93.392,0,0,0,2.672,22.308l9.041,36.515c1.432,5.819,5.843,9.8,10.845,9.793H86.385c4.728.016,8.964-3.542,10.618-8.92l9.764-31.629a39.708,39.708,0,0,0,1.722-11.6C108.49,158.821,105.454,155.135,101.709,155.135Z" transform="translate(407 814.333)" fill="#11a798"/><path d="M37.353,4a2.309,2.309,0,0,0-1.321.454L18.389,16.831a3,3,0,0,1-2.217.642H4.8a3.07,3.07,0,0,0-1.988.688A2.178,2.178,0,0,0,2,19.838V35.164a2.179,2.179,0,0,0,.818,1.675,3.071,3.071,0,0,0,1.987.687H16.161a3,3,0,0,1,2.217.642L36.021,50.543c1.209.848,2.509.439,2.509-.566V5.022a.887.887,0,0,0-.322-.729A1.264,1.264,0,0,0,37.353,4ZM60.036,8.5l-4.158,3.511a25.071,25.071,0,0,1,0,31.026l4.144,3.478c9.3-11.457,9.3-26.554.014-38.015ZM49.977,16.97l-4.09,3.48a10.372,10.372,0,0,1,0,14.172l4.076,3.439a14.768,14.768,0,0,0,.023-21.088Z" transform="translate(474 991)" fill="#55bbbf"/></g></svg>