<svg xmlns="http://www.w3.org/2000/svg" width="116.485" height="84.189" viewBox="0 0 116.485 84.189"><g transform="translate(1642 -2136)"><path d="M117.206,53.334H33.653a12.257,12.257,0,0,0-12.17,13.885,2.457,2.457,0,0,0,3.681,1.8,6.96,6.96,0,0,1,3.573-.944h17.5a7.412,7.412,0,0,1,6.989,5l.418,1.347a12.346,12.346,0,0,0,11.656,8.4h56.816a7.372,7.372,0,0,1,3.671.983,2.462,2.462,0,0,0,3.7-2.123V65.621a12.287,12.287,0,0,0-12.281-12.287Z" transform="translate(-1663 2082.735)" fill="#55a1bf"/><g transform="translate(-1676 1901.51)"><g transform="translate(16 -18)"><path d="M102.856,111.089a11.235,11.235,0,0,0-5.664-1.528H44.934a6.817,6.817,0,0,1-6.428-4.6l-.384-1.239A11.355,11.355,0,0,0,27.4,96H11.3a10.816,10.816,0,0,0-5.533,1.46A11.274,11.274,0,0,0,0,107.3v54.247a11.3,11.3,0,0,0,11.3,11.3H97.192a11.3,11.3,0,0,0,11.3-11.3V120.862A11.224,11.224,0,0,0,102.856,111.089Z" transform="translate(18 156.49)" fill="#00608b"/></g></g><g transform="translate(-381 -108)"><path d="M18.415,48.522a2.459,2.459,0,0,1-2.546.4l-4.463-1.867a2.462,2.462,0,0,1-1.515-2.269V18.576a2.459,2.459,0,0,1,1.515-2.261l4.472-1.859a2.457,2.457,0,0,1,2.546.4l1,.858a1.358,1.358,0,0,0-2.149,1.118V46.557a1.358,1.358,0,0,0,2.149,1.118Z" transform="translate(-1213.4 2267.158)" fill="#52218a"/><path d="M11.406,54.716a2.462,2.462,0,0,1-1.515-2.269v-.2a1.42,1.42,0,0,0,2.473.95L50.44,11.076a3.678,3.678,0,0,1,4.192-.713l12.157,5.855a3.686,3.686,0,0,1,2.1,3.32v.143a2.328,2.328,0,0,0-3.8-1.8L19.418,55.322l-1,.858a2.459,2.459,0,0,1-2.546.4Z" transform="translate(-1213.4 2259.5)" fill="#6c33af"/><path d="M11.406,16.32A2.462,2.462,0,0,0,9.891,18.59v.2a1.42,1.42,0,0,1,2.473-.95L50.44,59.958a3.672,3.672,0,0,0,4.192.713l12.157-5.852a3.683,3.683,0,0,0,2.1-3.323v-.14a2.328,2.328,0,0,1-3.8,1.8L19.418,15.714l-1-.858a2.459,2.459,0,0,0-2.546-.4Z" transform="translate(-1213.4 2267.153)" fill="#854cc7"/><path d="M28.592,68.326a3.681,3.681,0,0,1-4.192-.713,2.16,2.16,0,0,0,3.689-1.529V12.6A2.16,2.16,0,0,0,24.4,11.075a3.681,3.681,0,0,1,4.192-.713l12.152,5.844a3.689,3.689,0,0,1,2.1,3.323v39.63a3.689,3.689,0,0,1-2.09,3.323Z" transform="translate(-1187.36 2259.5)" fill="#b179f1"/></g></g></svg>