<svg xmlns="http://www.w3.org/2000/svg" xmlns:xlink="http://www.w3.org/1999/xlink" width="110.46" height="91.961" viewBox="0 0 110.46 91.961"><defs><linearGradient id="a" x1="24.919" y1="-44.851" x2="24.548" y2="-45.763" gradientUnits="objectBoundingBox"><stop offset="0" stop-color="#fff"/><stop offset="1" stop-color="#fff"/></linearGradient><linearGradient id="b" x1="24.798" y1="-44.639" x2="24.428" y2="-45.549" gradientUnits="objectBoundingBox"><stop offset="0"/><stop offset="1" stop-color="#6a6a6a"/></linearGradient><linearGradient id="c" x1="58.314" y1="-172.228" x2="59.469" y2="-172.228" gradientUnits="objectBoundingBox"><stop offset="0" stop-color="#e7ebef"/><stop offset="1" stop-color="#c4ce00"/></linearGradient><linearGradient id="d" x1="24.919" y1="-44.899" x2="24.548" y2="-45.81" xlink:href="#a"/><linearGradient id="e" x1="24.798" y1="-44.746" x2="24.428" y2="-45.655" xlink:href="#b"/><linearGradient id="f" x1="24.919" y1="-45.063" x2="24.548" y2="-45.975" xlink:href="#a"/><linearGradient id="g" x1="24.798" y1="-44.85" x2="24.428" y2="-45.76" xlink:href="#b"/><linearGradient id="h" x1="24.931" y1="-45.167" x2="24.559" y2="-46.079" xlink:href="#a"/><linearGradient id="i" x1="24.798" y1="-44.926" x2="24.428" y2="-45.835" xlink:href="#b"/><linearGradient id="j" x1="24.919" y1="-44.746" x2="24.548" y2="-45.658" xlink:href="#a"/><linearGradient id="k" x1="24.798" y1="-44.536" x2="24.428" y2="-45.445" xlink:href="#b"/></defs><g transform="translate(1632 -2600)"><path d="M117.206,53.334H33.653a12.257,12.257,0,0,0-12.17,13.885,2.457,2.457,0,0,0,3.681,1.8,6.96,6.96,0,0,1,3.573-.944h17.5a7.412,7.412,0,0,1,6.989,5l.418,1.347a12.346,12.346,0,0,0,11.656,8.4h56.816a7.372,7.372,0,0,1,3.671.983,2.462,2.462,0,0,0,3.7-2.123V65.621a12.287,12.287,0,0,0-12.281-12.287Z" transform="translate(-1653 2546.735)" fill="#55a1bf"/><g transform="translate(-1666 2365.51)"><g transform="translate(16 -18)"><path d="M102.856,111.089a11.235,11.235,0,0,0-5.664-1.528H44.934a6.817,6.817,0,0,1-6.428-4.6l-.384-1.239A11.355,11.355,0,0,0,27.4,96H11.3a10.816,10.816,0,0,0-5.533,1.46A11.274,11.274,0,0,0,0,107.3v54.247a11.3,11.3,0,0,0,11.3,11.3H97.192a11.3,11.3,0,0,0,11.3-11.3V120.862A11.224,11.224,0,0,0,102.856,111.089Z" transform="translate(18 156.49)" fill="#00608b"/></g></g><g transform="translate(-318 115)"><path d="M59.743,16.188c-.639-.132-14.99-4.247-15.758-4.5a4.366,4.366,0,0,0-2.171-.129c-.382.129-23.275,13.553-24.043,13.935-.129,0-.129.128-.257.257a2.742,2.742,0,0,0-.893,1.917h0l.264,39.709c0,.639.128.893.639,1.15,0,0,16.61,6.645,18.527,7.155h.257c.893.128,1.15.128,1.532-.257l.129-.129c.382-.257,21.7-16.465,22.078-16.847a1.938,1.938,0,0,0,.511-1.014c0-.382.6-39.07.6-39.564v-.128a1.718,1.718,0,0,0-1.407-1.532ZM37.175,75.172ZM59.344,18.106a7.821,7.821,0,0,0,.768-.639s-.382.257-.893.639c-.893.639-2.029,1.407-3.321,2.428,2.171-1.532,4.088-2.81,4.6-3.2a8.15,8.15,0,0,1-1.136.768Z" transform="translate(-1265.4 2500.595)" fill="#00608b" stroke="#000" stroke-linecap="round" stroke-linejoin="round" stroke-width="1.28"/><path d="M43.531,11.647a4.366,4.366,0,0,0-2.171-.128c-.382.128-23.221,13.7-23.989,14.2-.639.382-.893,1.15,0,1.532C18.264,27.51,35,33,35.632,33.13a2.776,2.776,0,0,0,2.3-.128c.382-.257,22.034-15.058,22.42-15.44s-.375-1.062-.913-1.241c-.612-.2-15.278-4.552-16.042-4.809l.129.128Z" transform="translate(-1264.993 2500.5)" fill="#686868"/><path d="M16.66,16.945c0-.639.382-1.014.893-.893.382.128,18.4,6.006,19.038,6.516.639.382,1.014.639,1.014,1.15s-.257,39.838-.257,40.348a.795.795,0,0,1-1.15.768c-1.917-.511-18.527-7.155-18.527-7.155-.511-.257-.639-.511-.639-1.15Z" transform="translate(-1265.309 2511.434)" fill="#686868"/><path d="M23.529,71.285c-.382.257-.795-.044-.795-.764,0-.639.156-39.713.156-40.223a1.572,1.572,0,0,1,.639-1.278c.382-.257,22.081-15.312,22.592-15.7s.768.382.639.768c0,.382-.724,38.888-.724,39.28a.964.964,0,0,1-.511.893c-.382.382-21.868,16.766-22.125,17.148l.129-.128Z" transform="translate(-1250.844 2504.736)" fill="#686868" stroke="#707070" stroke-width="1"/><path d="M17.427,18.071c-.128,0,0-.639.382-1.014a2.8,2.8,0,0,0-1.15,2.171.8.8,0,0,1,.768-.639c2.3.768,18.142,6.259,18.781,6.516s1.014.487,1.014,1.126l.125,1.525.23-1.552c0-.639.426-1.1,1.19-1.606.382-.257,10.04-7.084,12.765-9.519-2.59,1.38-12.85,9.391-14.257,9.391-1.085,0-19.718-6.388-19.846-6.388Z" transform="translate(-1265.312 2509.168)" fill="#00608b" stroke="#707070" stroke-width="1"/><path d="M26.521,15.941a7.247,7.247,0,0,1,1.15-.768Z" transform="translate(-1241.825 2509.395)" fill="#00608b"/><path d="M24.269,30.644a1.556,1.556,0,0,1-1.8.369.943.943,0,0,0,.95-.764s.1.693.852.4Z" transform="translate(-1251.48 2545.296)" fill="#00608b"/><path d="M30,14.335c.639-.308.91.024.93.571.091-.565.071-1.576-1.525-2.029,0,0,1.282.636.6,1.447Z" transform="translate(-1234.959 2503.929)" fill="#00608b"/><path d="M39.042,23.842,25.178,33.905v.511L39.012,24.18l.024-.338Z" transform="translate(-1245.024 2530.04)" opacity="0.13" fill="url(#a)"/><path d="M39.112,23.729,25.18,33.809v.511L39.044,24.033l.064-.318Z" transform="translate(-1245.019 2529.738)" opacity="0.13" fill="url(#b)"/><path d="M18.51,18.444v.768l6.263,2.171v-.639l-6.263-2.3Z" transform="translate(-1260.904 2517.185)" fill="url(#c)"/><g transform="translate(-1242.776 2535.118)" opacity="0.22"><path d="M18.779,19.571l-.382.254V18.293l6.9,2.428-.254.382-6.263-2.3Z" transform="translate(-18.397 -18.293)"/></g><g transform="translate(-1242.776 2536.396)" opacity="0.72"><path d="M25.3,21.353V19.821l-.254.382v.639l-6.263-2.171-.382.254,6.9,2.428Z" transform="translate(-18.397 -18.671)" fill="#fff"/></g><path d="M39.042,23.169,25.178,33.232v.524L39.012,23.521l.024-.338Z" transform="translate(-1245.024 2528.437)" opacity="0.13" fill="url(#d)"/><path d="M39.112,23.047,25.18,33.141v.511L39.044,23.365l.064-.318Z" transform="translate(-1245.019 2528.147)" opacity="0.13" fill="url(#e)"/><path d="M39.042,22.5,25.178,32.563v.511L39.019,22.838Z" transform="translate(-1245.024 2526.844)" opacity="0.13" fill="url(#f)"/><path d="M39.112,22.374,25.18,32.468v.511L39.044,22.692l.064-.318Z" transform="translate(-1245.019 2526.544)" opacity="0.13" fill="url(#g)"/><path d="M39.038,21.824,25.18,31.887V32.4L39.014,22.162Z" transform="translate(-1245.019 2525.234)" opacity="0.13" fill="url(#h)"/><path d="M39.112,21.7,25.18,31.8v.511L39.044,22.025Z" transform="translate(-1245.019 2524.939)" opacity="0.13" fill="url(#i)"/><path d="M39.042,24.514,25.178,34.577v.511L39.012,24.852l.024-.338Z" transform="translate(-1245.024 2531.64)" opacity="0.13" fill="url(#j)"/><path d="M39.112,24.392,25.18,34.486V35L39.044,24.71l.064-.318Z" transform="translate(-1245.019 2531.35)" opacity="0.13" fill="url(#k)"/></g></g></svg>