<svg xmlns="http://www.w3.org/2000/svg" width="135.284" height="112.75" viewBox="0 0 135.284 112.75"><g transform="translate(-1314 -840)"><g transform="translate(1100 300)"><path d="M121.846,74.667H53.978c-6.247,0-11.311,11.193-11.311,25v10c0,2.762,1.013,5,2.262,5H64.294c.965.01,1.824,1.352,2.149,3.36l2.466,16.491c.951,6.052,3.526,10.12,6.425,10.15H130.9c1.249,0,2.262-2.239,2.262-5v-40C133.157,85.86,128.093,74.667,121.846,74.667Z" transform="translate(180.333 465.333)" fill="#dcb67a"/><path d="M101.709,155.135H41.678a2.4,2.4,0,0,1-2.147-1.844l-2.464-9.052c-.952-3.321-3.523-5.553-6.419-5.572H6.781C3.036,138.667,0,142.353,0,146.9a93.392,93.392,0,0,0,2.672,22.308l9.041,36.515c1.432,5.819,5.843,9.8,10.845,9.793H86.385c4.728.016,8.964-3.542,10.618-8.92l9.764-31.629a39.708,39.708,0,0,0,1.722-11.6C108.49,158.821,105.454,155.135,101.709,155.135Z" transform="translate(214 411.333)" fill="#c09553"/></g><g transform="translate(142 198)"><path d="M91.25,14.38H18.43c-4.652.008-8.421,3.393-8.43,7.572V70.57c.016,4.174,3.783,7.552,8.43,7.56H91.25c4.654-.006,8.425-3.392,8.435-7.572V21.952c-.012-4.179-3.782-7.563-8.435-7.572Z" transform="translate(1207.6 676.62)" fill="#675f58"/><path d="M93.182,62.865a3.778,3.778,0,0,1-3.92,3.57H14.994a3.778,3.778,0,0,1-3.92-3.57V17.62h82.1V62.865Z" transform="translate(1210.15 684.229)" fill="#ccc"/><rect width="37.715" height="4.618" transform="translate(1258.791 707.514)" fill="#c09553"/><rect width="16.423" height="4.618" transform="translate(1258.791 719)" fill="#c09553"/><rect width="20.01" height="4.618" transform="translate(1231.854 707.514)" fill="#c09553"/><rect width="20.01" height="4.618" transform="translate(1231.854 719)" fill="#c09553"/><rect width="23.423" height="4.618" transform="translate(1258.791 730)" fill="#c09553"/><rect width="20.01" height="4.618" transform="translate(1231.854 730)" fill="#c09553"/><rect width="33.423" height="4.618" transform="translate(1258.791 741)" fill="#c09553"/><rect width="20.01" height="4.618" transform="translate(1231.854 741)" fill="#c09553"/></g></g></svg>