<svg xmlns="http://www.w3.org/2000/svg" viewBox="0 0 131.9 98.06"><defs><style>.cls-1{fill:#7cd87c;}.cls-2{fill:#17560a;}.cls-3{fill:#00a23c;}</style></defs><g id="Camada_2" data-name="Camada 2"><g id="Camada_1-2" data-name="Camada 1"><path class="cls-1" d="M96.3,1H12.7A12.27,12.27,0,0,0,.4,13.2a8.08,8.08,0,0,0,.1,1.6,2.49,2.49,0,0,0,2.8,2.1,3.18,3.18,0,0,0,.9-.3,6.44,6.44,0,0,1,3.6-.9H25.3a7.33,7.33,0,0,1,7,5l.4,1.3a12.38,12.38,0,0,0,11.7,8.4h56.8a6.86,6.86,0,0,1,3.7,1,2.47,2.47,0,0,0,3.4-.9,2.66,2.66,0,0,0,.3-1.2V13.2A12.4,12.4,0,0,0,96.3,1Z"/><path class="cls-2" d="M102.9,15a11.29,11.29,0,0,0-5.7-1.5H44.9a6.79,6.79,0,0,1-6.4-4.6l-.4-1.2A11.39,11.39,0,0,0,27.4,0H11.3A10.58,10.58,0,0,0,5.8,1.5,11.27,11.27,0,0,0,0,11.3V65.5A11.35,11.35,0,0,0,11.3,76.8H97.2a11.35,11.35,0,0,0,11.3-11.3h0V24.8A11.2,11.2,0,0,0,102.9,15Z"/><path class="cls-3" d="M116,34.57a17.2,17.2,0,0,1,8.67,5A22.78,22.78,0,0,1,128,44c0,.17-6,4.22-9.64,6.48-.14.09-.66-.48-1.26-1.37a7.87,7.87,0,0,0-6.52-3.92c-4.2-.28-6.91,1.92-6.89,5.59a5.13,5.13,0,0,0,.6,2.6c.92,1.91,2.64,3.06,8,5.39,9.92,4.28,14.18,7.09,16.81,11.1a20.1,20.1,0,0,1,1.62,16.9,18.58,18.58,0,0,1-15.33,11,42.48,42.48,0,0,1-10.57-.11,25.52,25.52,0,0,1-14.11-7.35A24.64,24.64,0,0,1,87.13,85a10.62,10.62,0,0,1,1.28-.81c.61-.35,3-1.69,5.15-3l4-2.31.84,1.22a18.78,18.78,0,0,0,5.27,5.05,12.87,12.87,0,0,0,13.49-.68,6,6,0,0,0,.78-7.7c-1.08-1.55-3.28-2.83-9.54-5.54a34.42,34.42,0,0,1-13.06-8,18.27,18.27,0,0,1-3.81-6.93,28,28,0,0,1-.24-8.85,16.88,16.88,0,0,1,14.22-13.16A34.89,34.89,0,0,1,116,34.57ZM83.44,40.36l0,5.67H65.42V97.32H52.67V46H34.62V40.47a54.55,54.55,0,0,1,.15-5.72c.07-.09,11-.13,24.37-.11l24.23.07Z"/></g></g></svg>