<svg xmlns="http://www.w3.org/2000/svg" viewBox="0 0 131.64 100.89"><defs><style>.cls-1{fill:#6c6;}.cls-2{fill:#9c9;}.cls-3{fill:#76d04b;}.cls-4{fill:#4f4d3f;}</style></defs><g id="Camada_2" data-name="Camada 2"><g id="Camada_1-2" data-name="Camada 1"><path class="cls-1" d="M96.21,1.07H12.65A12.27,12.27,0,0,0,.37,13.3,12.82,12.82,0,0,0,.48,15a2.46,2.46,0,0,0,2.76,2.12,2.35,2.35,0,0,0,.92-.32,7,7,0,0,1,3.58-.94h17.5a7.43,7.43,0,0,1,7,5l.41,1.35a12.36,12.36,0,0,0,11.66,8.4h56.82a7.42,7.42,0,0,1,3.67,1,2.45,2.45,0,0,0,3.36-.89,2.42,2.42,0,0,0,.34-1.23V13.36A12.28,12.28,0,0,0,96.21,1.07Z"/><path class="cls-2" d="M102.86,15.09a11.29,11.29,0,0,0-5.67-1.53H44.93A6.8,6.8,0,0,1,38.51,9l-.39-1.24A11.35,11.35,0,0,0,27.4,0H11.3A10.84,10.84,0,0,0,5.77,1.46,11.26,11.26,0,0,0,0,11.3V65.55a11.3,11.3,0,0,0,11.3,11.3H97.19a11.3,11.3,0,0,0,11.3-11.3h0V24.86A11.22,11.22,0,0,0,102.86,15.09Z"/><path class="cls-3" d="M97.84,100.47a3.81,3.81,0,0,0,3.45,0l28.62-14.91a3.06,3.06,0,0,0,1.73-2.7V53a3.09,3.09,0,0,0-1.72-2.7L101.29,35.41a3.83,3.83,0,0,0-3.46,0L69.22,50.33A3.08,3.08,0,0,0,67.49,53V82.86a3.06,3.06,0,0,0,1.73,2.7l28.62,14.91"/><path class="cls-4" d="M118.1,60.83l-1.28-.66c2-2.61,3.14-6.54,1.67-12.41,0,0-3.32,8.37-10,8.09l-7.79-4a2.11,2.11,0,0,0-1-.25h-.18a2.11,2.11,0,0,0-1,.25l-7.8,4c-6.65.28-10-8.09-10-8.09-1.47,5.87-.29,9.8,1.67,12.41l-1.28.66a1.88,1.88,0,0,0-1,1.65l0,24.3a.89.89,0,0,0,.52.81,1.09,1.09,0,0,0,1,0l10.33-5.33a1.89,1.89,0,0,0,1.05-1.65V69.26a1.87,1.87,0,0,1,1-1.64l4.4-2.28a2.24,2.24,0,0,1,1-.26,2.27,2.27,0,0,1,1,.26l4.4,2.28a1.88,1.88,0,0,1,1,1.64V80.61a1.89,1.89,0,0,0,1,1.65l10.32,5.33a1.09,1.09,0,0,0,1,0,.92.92,0,0,0,.52-.81l0-24.3a1.87,1.87,0,0,0-1.05-1.65Z"/></g></g></svg>