<!DOCTYPE svg PUBLIC "-//W3C//DTD SVG 1.1//EN" "http://www.w3.org/Graphics/SVG/1.1/DTD/svg11.dtd">
<!-- Uploaded to: SVG Repo, www.svgrepo.com, Transformed by: SVG Repo Mixer Tools -->
<svg version="1.1" id="_x32_" xmlns="http://www.w3.org/2000/svg" xmlns:xlink="http://www.w3.org/1999/xlink" viewBox="0 0 512 512" xml:space="preserve" width="800px" height="800px" fill="#000000">
<g id="SVGRepo_bgCarrier" stroke-width="0"/>
<g id="SVGRepo_tracerCarrier" stroke-linecap="round" stroke-linejoin="round"/>
<g id="SVGRepo_iconCarrier"> <style type="text/css"> .st0{fill:#adbdcc;} </style> <g> <rect x="141.818" y="394.181" class="st0" width="228.365" height="21.82"/> <rect x="141.818" y="305.688" class="st0" width="228.365" height="21.82"/> <rect x="141.818" y="217.203" class="st0" width="228.365" height="21.827"/> <rect x="262.546" y="128.725" class="st0" width="107.636" height="21.82"/> <path class="st0" d="M411.626,0H222.758c-13.559,0-26.564,5.39-36.152,14.969L68.794,132.788 c-9.59,9.587-14.976,22.596-14.976,36.156v296.5c0,25.67,20.889,46.556,46.56,46.556h311.247c25.667,0,46.556-20.886,46.556-46.556 V46.542C458.182,20.878,437.292,0,411.626,0z M206.252,32.349v104.652c0,11.313-4.405,15.722-15.718,15.722H85.877L206.252,32.349z M432.002,465.444c0,11.237-9.146,20.372-20.376,20.372H100.378c-11.237,0-20.38-9.135-20.38-20.372V175.998h124.554 c13.77,0,24.978-11.207,24.978-24.985V26.184h182.096c11.23,0,20.376,9.127,20.376,20.358V465.444z"/> </g> </g>
</svg>