<svg xmlns="http://www.w3.org/2000/svg" width="125.453" height="90.012" viewBox="0 0 125.453 90.012"><g transform="translate(-555 -735.488)"><path d="M117.206,53.334H33.653a12.257,12.257,0,0,0-12.17,13.885,2.457,2.457,0,0,0,3.681,1.8,6.96,6.96,0,0,1,3.573-.944h17.5a7.412,7.412,0,0,1,6.989,5l.418,1.347a12.346,12.346,0,0,0,11.656,8.4h56.816a7.372,7.372,0,0,1,3.671.983,2.462,2.462,0,0,0,3.7-2.123V65.621a12.287,12.287,0,0,0-12.281-12.287Z" transform="translate(534 683.224)" fill="#dd7a7d"/><path d="M102.856,111.089a11.235,11.235,0,0,0-5.664-1.528H44.934a6.817,6.817,0,0,1-6.428-4.6l-.384-1.239A11.355,11.355,0,0,0,27.4,96H11.3a10.816,10.816,0,0,0-5.533,1.46A11.274,11.274,0,0,0,0,107.3v54.247a11.3,11.3,0,0,0,11.3,11.3H97.192a11.3,11.3,0,0,0,11.3-11.3V120.862A11.224,11.224,0,0,0,102.856,111.089Z" transform="translate(555 639.489)" fill="#9f4246"/><g transform="translate(-246 -21.455)"><path d="M74.19,14.38H16.66A6.674,6.674,0,0,0,10,21.04V63.805a6.674,6.674,0,0,0,6.66,6.65H74.19a6.674,6.674,0,0,0,6.664-6.66V21.04a6.677,6.677,0,0,0-6.664-6.66Z" transform="translate(845.6 776.5)" fill="#675f58"/><path d="M74.677,56.1A3.053,3.053,0,0,1,71.64,59.14H14.111A3.053,3.053,0,0,1,11.074,56.1V17.62h63.6V56.1Z" transform="translate(848.15 784.192)" fill="#ccc"/><rect width="9.447" height="9.447" transform="translate(872.133 824.842)" fill="#ff931e"/><rect width="9.447" height="9.451" transform="translate(872.133 810.672)" fill="#ff931e"/><rect width="9.447" height="9.451" transform="translate(886.303 810.672)" fill="#ff931e"/><rect width="9.447" height="9.451" transform="translate(900.474 810.672)" fill="#ff931e"/><rect width="9.447" height="9.447" transform="translate(886.303 824.842)" fill="#ff931e"/><rect width="9.447" height="9.447" transform="translate(900.474 824.842)" fill="#ff931e"/></g></g></svg>