<svg xmlns="http://www.w3.org/2000/svg" viewBox="0 0 120.39 100"><defs><style>.cls-1{fill:#e2dacf;}.cls-2{fill:#a3a2a2;}.cls-3{opacity:0.15;}.cls-4,.cls-5,.cls-6{fill:none;stroke:#d6d6d6;}.cls-4,.cls-5{stroke-miterlimit:10;}.cls-5{fill-rule:evenodd;}.cls-6{stroke-miterlimit:133.33;stroke-width:6px;}</style></defs><g id="Camada_2" data-name="Camada 2"><g id="Camada_1-2" data-name="Camada 1"><path class="cls-1" d="M88.18,0H20.31C14.06,0,9,11.19,9,25V35c0,2.76,1,5,2.26,5H30.63c1,0,1.82,1.35,2.15,3.36l2.46,16.49C36.19,65.9,38.77,70,41.67,70H97.23c1.25,0,2.27-2.24,2.27-5V25C99.49,11.19,94.43,0,88.18,0Z"/><path class="cls-2" d="M101.71,26.47h-60a2.4,2.4,0,0,1-2.15-1.85l-2.46-9c-1-3.32-3.53-5.55-6.42-5.57H6.78C3,10,0,13.69,0,18.23A93.65,93.65,0,0,0,2.67,40.54l9,36.52c1.44,5.81,5.85,9.8,10.85,9.79H86.39c4.72,0,9-3.54,10.61-8.92l9.77-31.63a40,40,0,0,0,1.72-11.6C108.49,30.15,105.45,26.47,101.71,26.47Z"/><g id="SVGRepo_iconCarrier" data-name="SVGRepo iconCarrier"><g class="cls-3"><path class="cls-4" d="M90.54,97h-.3l.15-.15Z"/><path class="cls-5" d="M108.37,90.14c0-.21,0-.42,0-.64A10.5,10.5,0,0,0,97.89,79h-15a10.5,10.5,0,0,0-10.5,10.5c0,.22,0,.43,0,.64a27,27,0,1,1,36,0ZM90.39,70a9,9,0,1,0-9-9A9,9,0,0,0,90.39,70Z"/></g><path class="cls-6" d="M108.39,90.13c0-4.86-3.51-11.13-9-11.13h-18c-5.48,0-9,6.27-9,11.13M63.39,70a27,27,0,1,1,27,27A27,27,0,0,1,63.39,70Zm36-9a9,9,0,1,1-9-9A9,9,0,0,1,99.39,61Z"/></g></g></g></svg>