<svg xmlns="http://www.w3.org/2000/svg" viewBox="0 0 118.43 83.25"><defs><style>.cls-1{fill:#ccc;}.cls-2{fill:#69c;}.cls-3{fill:#fff;}.cls-4{fill:#4630eb;}</style></defs><g id="Camada_2" data-name="Camada 2"><g id="Camada_1-2" data-name="Camada 1"><path class="cls-1" d="M96.21,1.07H12.65A12.27,12.27,0,0,0,.37,13.3,12.82,12.82,0,0,0,.48,15a2.46,2.46,0,0,0,2.76,2.12,2.35,2.35,0,0,0,.92-.32,7,7,0,0,1,3.58-.94h17.5a7.43,7.43,0,0,1,7,5l.41,1.35a12.36,12.36,0,0,0,11.66,8.4h56.82a7.42,7.42,0,0,1,3.67,1,2.45,2.45,0,0,0,3.36-.89,2.42,2.42,0,0,0,.34-1.23V13.36A12.28,12.28,0,0,0,96.21,1.07Z"/><path class="cls-2" d="M102.86,15.09a11.29,11.29,0,0,0-5.67-1.53H44.93A6.8,6.8,0,0,1,38.51,9l-.39-1.24A11.35,11.35,0,0,0,27.4,0H11.3A10.84,10.84,0,0,0,5.77,1.46,11.26,11.26,0,0,0,0,11.3V65.55a11.3,11.3,0,0,0,11.3,11.3H97.19a11.3,11.3,0,0,0,11.3-11.3h0V24.86A11.22,11.22,0,0,0,102.86,15.09Z"/><path class="cls-3" d="M60.63,61.52l17.25-30.3,17-8.39,5,2.35L83,34l17.43,48.29-5.61-3-13-27.71-17.12,12Z"/><ellipse class="cls-3" cx="111.04" cy="48.2" rx="6.37" ry="5.47"/><path class="cls-4" d="M115.69,45.76a6.09,6.09,0,0,0-8-1.29,5.53,5.53,0,0,0-1.82,1.94,4.53,4.53,0,0,0,1,5.36A8.37,8.37,0,0,0,115.69,45.76ZM98.56,25.1l-3.67-1.86-16,8.2,1.28.63,2.41,1.18L87,31l11.57-5.94Zm1.48-.57a.58.58,0,0,1,.41.36l5.35,14.55a.47.47,0,0,1-.26.63,9.26,9.26,0,0,0-5,10.9c1.52,4.65,6.43,7.63,11.66,7.09a.71.71,0,0,1,.67.38l5.52,14.94a.57.57,0,0,1-.25.66l-17,9.15a.58.58,0,0,1-.26,0,.7.7,0,0,1-.45-.07l-6-3.45a.6.6,0,0,1-.26-.24L82.59,54.8,64.86,64.1l-.13.05a.62.62,0,0,1-.56,0l-4-2.11a.52.52,0,0,1-.26-.7L77.11,31.17a.63.63,0,0,1,.28-.23l17.17-8.83a.66.66,0,0,1,.61,0Zm-21.3,8.1-.84-.4L61.31,61.38l3,1.57L78.65,45.68a.76.76,0,0,1,.59-.24.71.71,0,0,1,.51.36L95.34,78.91l4.16,2.37L82.77,36.18l-.71-1.88-3.34-1.69ZM104.42,50a5.8,5.8,0,0,1,3.18-6.81,7.51,7.51,0,0,1,8.26.94,5.62,5.62,0,0,1,.18,8.4h0l-.18.17a7.37,7.37,0,0,1-9.83-.2A6.26,6.26,0,0,1,104.42,50Z"/></g></g></svg>