<svg xmlns="http://www.w3.org/2000/svg" width="125.982" height="114.5" viewBox="0 0 125.982 114.5"><g transform="translate(-215 -1569)"><path d="M121.846,74.667H53.978c-6.247,0-11.311,11.193-11.311,25v10c0,2.762,1.013,5,2.262,5H64.294c.965.01,1.824,1.352,2.149,3.36l2.466,16.491c.951,6.052,3.526,10.12,6.425,10.15H130.9c1.249,0,2.262-2.239,2.262-5v-40C133.157,85.86,128.093,74.667,121.846,74.667Z" transform="translate(181.333 1494.333)" fill="#5599bf"/><path d="M101.709,155.135H41.678a2.4,2.4,0,0,1-2.147-1.844l-2.464-9.052c-.952-3.321-3.523-5.553-6.419-5.572H6.781C3.036,138.667,0,142.353,0,146.9a93.392,93.392,0,0,0,2.672,22.308l9.041,36.515c1.432,5.819,5.843,9.8,10.845,9.793H86.385c4.728.016,8.964-3.542,10.618-8.92l9.764-31.629a39.708,39.708,0,0,0,1.722-11.6C108.49,158.821,105.454,155.135,101.709,155.135Z" transform="translate(215 1440.333)" fill="#345e75"/><g transform="translate(166 -166.382)"><path d="M67.5,77.664a5.254,5.254,0,0,0,5.292-5.2V19.417a5.254,5.254,0,0,0-5.292-5.2H15.968L36.649,77.664Z" transform="translate(102.192 1772.218)" fill="#d9d9d9"/><path d="M38.55,27.035,25.07,42.023l-4.9-14.988Z" transform="translate(113.865 1807.859)" fill="#4352b8"/><path d="M51.255,26V22.9H36.3V17.884h-4.85v5.009H21.91v3.1H40.9a27.489,27.489,0,0,1-5.447,9.583c-3.882-4.589-3.9-6.082-3.9-6.082H27.542s.166,2.234,5.606,8.611a38.293,38.293,0,0,1-3.107,2.877l1.24,3.871s1.867-1.607,4.215-4.094c2.347,2.544,5.375,5.606,9.3,9.257l2.544-2.544c-4.2-3.81-7.277-6.831-9.533-9.257a28.143,28.143,0,0,0,6.751-12.225h6.71Z" transform="translate(118.711 1782.418)" fill="#617d8b"/><path d="M15.292,10A5.292,5.292,0,0,0,10,15.292V69.121a5.292,5.292,0,0,0,5.292,5.292h51.53L46.142,10Z" transform="translate(85.6 1760.5)" fill="#4f8bf5"/><path d="M21.242,14.216H52.836a5.254,5.254,0,0,1,5.292,5.2V51.238Z" transform="translate(116.854 1772.221)" fill="#fff" opacity="0.2"/><path d="M16.853,28.7c1.731-4.461,3.432-8.929,5.16-13.389h5.016c.272.688.533,1.38.8,2.071,1.266,3.27,2.514,6.547,3.78,9.828s2.491,6.479,3.739,9.722l1.009,2.616h-4.4q-.941-2.865-1.867-5.738H18.958q-.926,2.873-1.864,5.738h-4.4l4.158-10.834m3.349,1.89h8.649c-1.444-3.78-2.873-7.59-4.324-11.382-1.452,3.791-2.877,7.594-4.321,11.386Z" transform="translate(93.081 1775.273)" fill="#f2f2f2"/></g></g></svg>