<svg xmlns="http://www.w3.org/2000/svg" width="116.623" height="101.012" viewBox="0 0 116.623 101.012"><g transform="translate(-7 -1611.488)"><path d="M117.206,53.334H33.653a12.257,12.257,0,0,0-12.17,13.885,2.457,2.457,0,0,0,3.681,1.8,6.96,6.96,0,0,1,3.573-.944h17.5a7.412,7.412,0,0,1,6.989,5l.418,1.347a12.346,12.346,0,0,0,11.656,8.4h56.816a7.372,7.372,0,0,1,3.671.983,2.462,2.462,0,0,0,3.7-2.123V65.621a12.287,12.287,0,0,0-12.281-12.287Z" transform="translate(-14 1559.224)" fill="#dd7a7d"/><path d="M102.856,111.089a11.235,11.235,0,0,0-5.664-1.528H44.934a6.817,6.817,0,0,1-6.428-4.6l-.384-1.239A11.355,11.355,0,0,0,27.4,96H11.3a10.816,10.816,0,0,0-5.533,1.46A11.274,11.274,0,0,0,0,107.3v54.247a11.3,11.3,0,0,0,11.3,11.3H97.192a11.3,11.3,0,0,0,11.3-11.3V120.862A11.224,11.224,0,0,0,102.856,111.089Z" transform="translate(7 1515.489)" fill="#9f4246"/><g transform="translate(-274 82.988)"><path d="M23.205,10.025c5.551-.053,11.111,0,16.665-.02-1.315,5.672-2.583,11.357-3.891,17.033H10.626c-.8,0-1.6.026-2.406-.033C13.2,21.33,18.233,15.7,23.205,10.025Z" transform="translate(314.604 1550.501)" fill="#f2e6c9"/><path d="M21.358,10H37.973C42.962,15.675,48,21.308,52.979,27c-3.2.069-6.408,0-9.612.03H25.213C23.951,21.354,22.607,15.692,21.358,10Z" transform="translate(344.641 1550.5)" fill="#f2e6c9"/><path d="M20.557,10H32.085c1.245,5.685,2.59,11.348,3.858,17.026H16.666C17.977,21.364,19.242,15.679,20.557,10Z" transform="translate(333.914 1550.5)" fill="#efc75e"/><path d="M8.221,15.174c.8.059,1.6.03,2.406.033H35.98q0,9,.02,17.992a6.518,6.518,0,0,0,.684.049H54.7c.177,0,.358-.02.536-.036.053-6,0-12.008.023-18.009H73.411c3.2-.016,6.412.039,9.612-.03v52q-37.4.007-74.8.007Q8.214,41.175,8.221,15.174Z" transform="translate(314.6 1562.329)" fill="#e7bf55"/><path d="M16.666,15.185H35.943c-.023,6,.03,12.008-.023,18.009-.177.02-.358.03-.536.036H17.369a6.516,6.516,0,0,1-.684-.049C16.653,27.18,16.679,21.179,16.666,15.185Z" transform="translate(333.914 1562.354)" fill="#dbb551"/><rect width="25.032" height="9.639" transform="translate(328.283 1612.588)" fill="#f2f2f2"/></g></g></svg>