<svg xmlns="http://www.w3.org/2000/svg" xmlns:xlink="http://www.w3.org/1999/xlink" width="122.1" height="100" viewBox="0 0 122.1 100"><defs><radialGradient id="a" cx="0.499" cy="0.5" r="0.5" gradientTransform="matrix(-0.148, 0.989, 1.059, 0.158, 2.867, -2.387)" gradientUnits="objectBoundingBox"><stop offset="0" stop-color="#bedcdc"/><stop offset="0.5" stop-color="#8e9e9e" stop-opacity="0.741"/><stop offset="1" stop-color="#404f5c" stop-opacity="0.839"/></radialGradient><radialGradient id="b" cx="0.499" cy="0.499" r="0.5" gradientTransform="matrix(-0.148, 0.989, 1.059, 0.158, -1.25, 1.127)" xlink:href="#a"/></defs><g transform="translate(1242 -2791)"><path d="M117.206,53.334H33.653a12.257,12.257,0,0,0-12.17,13.885,2.457,2.457,0,0,0,3.681,1.8,6.96,6.96,0,0,1,3.573-.944h17.5a7.412,7.412,0,0,1,6.989,5l.418,1.347a12.346,12.346,0,0,0,11.656,8.4h56.816a7.372,7.372,0,0,1,3.671.983,2.462,2.462,0,0,0,3.7-2.123V65.621a12.287,12.287,0,0,0-12.281-12.287Z" transform="translate(-1263 2737.735)" fill="#92cb95"/><g transform="translate(-1276 2556.51)"><g transform="translate(16 -18)"><path d="M102.856,111.089a11.235,11.235,0,0,0-5.664-1.528H44.934a6.817,6.817,0,0,1-6.428-4.6l-.384-1.239A11.355,11.355,0,0,0,27.4,96H11.3a10.816,10.816,0,0,0-5.533,1.46A11.274,11.274,0,0,0,0,107.3v54.247a11.3,11.3,0,0,0,11.3,11.3H97.192a11.3,11.3,0,0,0,11.3-11.3V120.862A11.224,11.224,0,0,0,102.856,111.089Z" transform="translate(18 156.49)" fill="#458248"/></g></g><g transform="translate(-183 578)"><path d="M21.161,14.43l-6.654,6.654L11.182,14.43,14.507,11.1Z" transform="translate(-1021.22 2228.473)" fill="silver"/><path d="M23.635,17.056H14.221L16.576,10h4.7Z" transform="translate(-1013.044 2225.5)" fill="silver"/><path d="M23.728,21.161l-6.654-6.654,6.654-3.325,3.329,3.325Z" transform="translate(-1005.368 2228.68)" fill="silver"/><path d="M18.971,23.635V14.221l7.056,2.355v4.7Z" transform="translate(-1000.264 2236.856)" fill="silver"/><path d="M17,23.728l6.654-6.654,3.325,6.654-3.325,3.329Z" transform="translate(-1005.575 2244.532)" fill="silver"/><path d="M14.112,18.971h9.411l-2.351,7.056H16.467Z" transform="translate(-1013.337 2249.636)" fill="silver"/><path d="M14.43,17l6.654,6.654L14.43,26.976,11.1,23.651Z" transform="translate(-1021.427 2244.325)" fill="silver"/><path d="M17.056,14.112v9.411L10,21.172V16.467Z" transform="translate(-1024.4 2236.563)" fill="silver"/><path d="M11.663,25.607a13.943,13.943,0,1,1,4.085,9.861,13.943,13.943,0,0,1-4.085-9.861Zm13.946,5.259a5.259,5.259,0,1,0-3.72-1.543A5.259,5.259,0,0,0,25.609,30.866Z" transform="translate(-1019.926 2229.976)" fill="silver"/><path d="M25.066,37.771A12.917,12.917,0,1,0,11.946,25.08h0a12.917,12.917,0,0,0,13.12,12.692Zm-.417-23.829A10.924,10.924,0,1,1,13.921,25.057h0A10.928,10.928,0,0,1,24.66,13.942Z" transform="translate(-1019.169 2230.718)" fill="#a9a9a9"/><path d="M22.935,32.8a10.042,10.042,0,1,0-10.212-9.865h0A10.038,10.038,0,0,0,22.935,32.8Zm-.277-15.777a5.739,5.739,0,1,1-5.639,5.842,5.739,5.739,0,0,1,5.639-5.842Z" transform="translate(-1017.078 2232.819)" fill="url(#a)"/><path d="M19.73,25.367a5.739,5.739,0,1,0-5.842-5.632h0a5.739,5.739,0,0,0,5.842,5.632Zm-.188-10.592a4.857,4.857,0,1,1-4.768,4.942h0a4.857,4.857,0,0,1,4.768-4.934Z" transform="translate(-1013.943 2235.967)" fill="#a9a9a9"/><path d="M32.162,25.475l-6.3-3.495,4.052-4.34,3.779,2.1Z" transform="translate(-981.713 2246.055)" fill="silver"/><path d="M31.912,27.882,28.2,21.712l5.68-1.735,2.225,3.705Z" transform="translate(-975.425 2252.343)" fill="silver"/><path d="M29.537,30.227l-.125-7.2,5.787,1.34.074,4.318Z" transform="translate(-972.172 2260.549)" fill="silver"/><path d="M28.223,32.162l3.491-6.3,4.34,4.052L33.962,33.7Z" transform="translate(-975.371 2268.187)" fill="silver"/><path d="M25.866,31.912,32.04,28.2l1.731,5.68-3.7,2.225Z" transform="translate(-981.713 2274.475)" fill="silver"/><path d="M23.007,29.537l7.2-.125L28.871,35.2l-4.322.074Z" transform="translate(-989.405 2277.728)" fill="silver"/><path d="M21.532,28.223l6.3,3.491-4.052,4.34L20,33.962Z" transform="translate(-997.503 2274.529)" fill="silver"/><path d="M21.836,25.866l3.709,6.174-5.68,1.731-2.225-3.7Z" transform="translate(-1003.845 2268.187)" fill="silver"/><path d="M22.72,23.007l.125,7.2-5.783-1.34-.077-4.322Z" transform="translate(-1005.607 2260.495)" fill="silver"/><path d="M25.475,21.532l-3.495,6.3-4.34-4.052L19.736,20Z" transform="translate(-1003.845 2252.397)" fill="silver"/><path d="M27.882,21.836l-6.17,3.709-1.735-5.68,3.705-2.225Z" transform="translate(-997.557 2246.055)" fill="silver"/><path d="M30.227,22.72l-7.2.125,1.34-5.783,4.318-.077Z" transform="translate(-989.351 2244.293)" fill="silver"/><path d="M38.768,18.374A20.763,20.763,0,1,1,24.2,24.707a20.763,20.763,0,0,1,14.563-6.333ZM31.324,39.255a7.794,7.794,0,1,0,2.185-5.536,7.794,7.794,0,0,0-2.185,5.536Z" transform="translate(-1001.87 2248.022)" fill="silver"/><path d="M37.912,56.233a18.648,18.648,0,1,0-18.969-18.32A18.648,18.648,0,0,0,37.912,56.233Zm-.6-34.421a15.777,15.777,0,1,1-15.5,16.054,15.777,15.777,0,0,1,15.5-16.054Z" transform="translate(-1000.347 2249.552)" fill="#a9a9a9"/><path d="M34.736,48.877A14.393,14.393,0,1,0,20.1,34.735a14.393,14.393,0,0,0,14.64,14.142Zm-.387-22.243a7.853,7.853,0,1,1-7.713,7.986h0a7.85,7.85,0,0,1,7.709-7.986Z" transform="translate(-997.244 2252.656)" fill="url(#b)"/><path d="M30.416,38.866a8.6,8.6,0,1,0-8.754-8.455,8.6,8.6,0,0,0,8.754,8.455ZM30.139,23A7.281,7.281,0,1,1,22.987,30.4,7.281,7.281,0,0,1,30.139,23Z" transform="translate(-993.027 2256.877)" fill="#a9a9a9"/></g></g></svg>