<svg xmlns="http://www.w3.org/2000/svg" width="128.805" height="98.748" viewBox="0 0 128.805 98.748"><g transform="translate(1647 -2006)"><path d="M117.206,53.334H33.653a12.257,12.257,0,0,0-12.17,13.885,2.457,2.457,0,0,0,3.681,1.8,6.96,6.96,0,0,1,3.573-.944h17.5a7.412,7.412,0,0,1,6.989,5l.418,1.347a12.346,12.346,0,0,0,11.656,8.4h56.816a7.372,7.372,0,0,1,3.671.983,2.462,2.462,0,0,0,3.7-2.123V65.621a12.287,12.287,0,0,0-12.281-12.287Z" transform="translate(-1668 1952.735)" fill="#7d6933"/><g transform="translate(-1681 1771.51)"><g transform="translate(16 -18)"><path d="M102.856,111.089a11.235,11.235,0,0,0-5.664-1.528H44.934a6.817,6.817,0,0,1-6.428-4.6l-.384-1.239A11.355,11.355,0,0,0,27.4,96H11.3a10.816,10.816,0,0,0-5.533,1.46A11.274,11.274,0,0,0,0,107.3v54.247a11.3,11.3,0,0,0,11.3,11.3H97.192a11.3,11.3,0,0,0,11.3-11.3V120.862A11.224,11.224,0,0,0,102.856,111.089Z" transform="translate(18 156.49)" fill="#5c4300"/></g></g><path d="M53.176,56.157l2.178-2.163c10.075.329,10.23-.024,10.673-1.06L68.795,46.2,69,45.557,68.775,45c-.119-.3-.484-1.176-6.775-7.174V34.668c7.259-6.993,7.1-7.351,6.69-8.374l-2.756-6.809c-.414-1.021-.571-1.42-10.574-1.147l-2.178-2.25a48.794,48.794,0,0,0-.341-9.935l-.281-.636-7.2-3.145c-1.06-.484-1.432-.658-8.227,6.741l-3.054-.046c-7-7.467-7.327-7.331-8.374-6.908l-6.69,2.705c-1.048.423-1.418.573-1.011,10.736l-2.161,2.153c-10.07-.329-10.225.029-10.663,1.06L2.413,25.554l-.218.646.227.561c.119.29.469,1.161,6.775,7.167v3.145c-7.259,6.993-7.1,7.351-6.685,8.377l2.754,6.816c.421,1.043.571,1.413,10.571,1.152l2.178,2.262a48.979,48.979,0,0,0,.331,9.92l.281.641,7.242,3.165c1.053.44,1.418.6,8.193-6.775l3.054.039c7,7.477,7.363,7.331,8.386,6.918l6.676-2.7C53.232,66.472,53.6,66.324,53.176,56.157ZM24.484,40.371a11.994,11.994,0,1,1,15.7,6.833A12.132,12.132,0,0,1,24.484,40.371Z" transform="translate(-1587.195 2035.002)" fill="#675f58"/></g></svg>