<svg xmlns="http://www.w3.org/2000/svg" width="108.489" height="88.001" viewBox="0 0 108.489 88.001"><g transform="translate(-165 -1495)"><path d="M121.846,74.667H53.978c-6.247,0-11.311,11.193-11.311,25v10c0,2.762,1.013,5,2.262,5H64.294c.965.01,1.824,1.352,2.149,3.36l2.466,16.491c.951,6.052,3.526,10.12,6.425,10.15H130.9c1.249,0,2.262-2.239,2.262-5v-40C133.157,85.86,128.093,74.667,121.846,74.667Z" transform="translate(131.333 1420.333)" fill="#5599bf"/><path d="M101.709,155.135H41.678a2.4,2.4,0,0,1-2.147-1.844l-2.464-9.052c-.952-3.321-3.523-5.553-6.419-5.572H6.781C3.036,138.667,0,142.353,0,146.9a93.392,93.392,0,0,0,2.672,22.308l9.041,36.515c1.432,5.819,5.843,9.8,10.845,9.793H86.385c4.728.016,8.964-3.542,10.618-8.92l9.764-31.629a39.708,39.708,0,0,0,1.722-11.6C108.49,158.821,105.454,155.135,101.709,155.135Z" transform="translate(165 1366.333)" fill="#345e75"/><g transform="translate(96 96)"><path d="M17.131,14.715a6.535,6.535,0,0,0-1.7.208v.084h.081a13.791,13.791,0,0,0,1.329,1.7c.334.666.626,1.326.957,1.992l.081-.084a2.335,2.335,0,0,0,.865-2.078,9.206,9.206,0,0,1-.5-.865c-.248-.415-.79-.623-1.124-.954" transform="translate(91.332 1422.474)" fill="#fff" fill-rule="evenodd"/><path d="M66.714,57.427a19.244,19.244,0,0,0-8.071,1.153c-.623.248-1.62.248-1.7,1.038.334.331.375.865.669,1.332a9.732,9.732,0,0,0,2.159,2.534c.865.666,1.744,1.326,2.661,1.908,1.62,1,3.459,1.58,5.024,2.577.917.577,1.828,1.329,2.747,1.954.455.331.744.865,1.326,1.078v-.127a8.411,8.411,0,0,0-.634-1.332c-.415-.412-.83-.79-1.248-1.2a19.827,19.827,0,0,0-4.324-4.194c-1.332-.917-4.24-2.162-4.779-3.7l-.084-.084a16.842,16.842,0,0,0,2.883-.669c1.41-.372,2.7-.288,4.154-.66.666-.167,1.871-.577,1.871-.577v-.649c-.744-.738-1.274-1.73-2.055-2.424a54.912,54.912,0,0,0-6.78-5.053c-1.277-.822-2.92-1.355-4.275-2.055-.49-.248-1.312-.369-1.6-.781a16.471,16.471,0,0,1-1.686-3.171c-1.191-2.257-2.344-4.762-3.37-7.149a43.63,43.63,0,0,0-2.1-4.684A41.426,41.426,0,0,0,31.6,17.128a19.654,19.654,0,0,0-5.258-1.686c-1.029-.043-2.055-.124-3.082-.164a16.7,16.7,0,0,1-1.891-1.441c-2.344-1.479-8.38-4.684-10.107-.453-1.11,2.672,1.643,5.3,2.594,6.659a19.264,19.264,0,0,1,2.093,3.082c.288.7.369,1.441.66,2.179a49.106,49.106,0,0,0,2.136,5.509,19.389,19.389,0,0,0,1.519,2.545c.332.455.905.657,1.029,1.4a11.779,11.779,0,0,0-.946,3.082,18.091,18.091,0,0,0,1.193,13.8c.657,1.026,2.22,3.289,4.324,2.424,1.848-.738,1.441-3.082,1.972-5.134.124-.5.04-.822.288-1.153v.4s1.049,2.306,1.568,3.485a23.5,23.5,0,0,0,5.189,5.624,7.593,7.593,0,0,1,1.911,2.522v.744h.928a2.306,2.306,0,0,0-.92-1.709,20.467,20.467,0,0,1-2.081-2.519,54.093,54.093,0,0,1-4.482-7.642c-.643-1.306-1.2-2.73-1.73-4.036-.239-.5-.239-1.26-.64-1.51a15.733,15.733,0,0,0-1.92,2.851,24.7,24.7,0,0,0-1.121,6.342c-.159.043-.081,0-.159.084-1.28-.334-1.73-1.73-2.2-2.883a19.025,19.025,0,0,1-.36-11.213c.288-.865,1.485-3.652,1-4.491-.242-.8-1.041-1.26-1.482-1.891a16.953,16.953,0,0,1-1.441-2.687c-.96-2.349-1.441-4.955-2.482-7.3a22.611,22.611,0,0,0-2-3.234,20.858,20.858,0,0,1-2.2-3.275,2.038,2.038,0,0,1-.161-1.73.654.654,0,0,1,.577-.548c.519-.461,2,.124,2.519.378a19.959,19.959,0,0,1,3.961,2.1c.577.421,1.879,1.487,1.879,1.487h.389c1.329.288,2.828.081,4.073.455a26.489,26.489,0,0,1,5.981,2.865A36.857,36.857,0,0,1,45.688,34.66c.5.954.709,1.828,1.153,2.822.865,2.041,1.954,4.119,2.825,6.111a27.333,27.333,0,0,0,2.952,5.569c.623.865,3.116,1.329,4.237,1.787A30.384,30.384,0,0,1,59.738,52.1c1.412.865,2.822,1.871,4.154,2.828.663.5,2.741,1.536,2.865,2.37" transform="translate(83 1416)" fill="#f3fdff" fill-rule="evenodd"/></g></g></svg>