<svg xmlns="http://www.w3.org/2000/svg" viewBox="0 0 125.97 107.93"><defs><style>.cls-1{fill:#1d4d87;}.cls-2{fill:#577e9b;}.cls-3{fill:#144271;}</style></defs><g id="Camada_2" data-name="Camada 2"><g id="Camada_1-2" data-name="Camada 1"><path class="cls-1" d="M96.3,1H12.7A12.27,12.27,0,0,0,.4,13.2a8.08,8.08,0,0,0,.1,1.6,2.49,2.49,0,0,0,2.8,2.1,3.18,3.18,0,0,0,.9-.3,6.44,6.44,0,0,1,3.6-.9H25.3a7.33,7.33,0,0,1,7,5l.4,1.3a12.38,12.38,0,0,0,11.7,8.4h56.8a6.86,6.86,0,0,1,3.7,1,2.47,2.47,0,0,0,3.4-.9,2.66,2.66,0,0,0,.3-1.2V13.2A12.4,12.4,0,0,0,96.3,1Z"/><path class="cls-2" d="M102.9,15a11.29,11.29,0,0,0-5.7-1.5H44.9a6.79,6.79,0,0,1-6.4-4.6l-.4-1.2A11.39,11.39,0,0,0,27.4,0H11.3A10.58,10.58,0,0,0,5.8,1.5,11.27,11.27,0,0,0,0,11.3V65.5A11.35,11.35,0,0,0,11.3,76.8H97.2a11.35,11.35,0,0,0,11.3-11.3h0V24.8A11.2,11.2,0,0,0,102.9,15Z"/><g id="SVGRepo_iconCarrier" data-name="SVGRepo iconCarrier"><path class="cls-3" d="M72.71,87.79l-13.53-7a5.14,5.14,0,0,1-2.74-4.59V41.46a5.16,5.16,0,0,1,2.74-4.59L84,24a4.83,4.83,0,0,1,4.44,0l24.83,12.84A5.15,5.15,0,0,1,116,41.46v12A2.12,2.12,0,0,1,113,55.4a14.38,14.38,0,0,0-13.66.09L83.76,64l-1.26.87a14.55,14.55,0,0,0-6.2,12v8.69a2.49,2.49,0,0,1-3.59,2.3Z"/><path class="cls-3" d="M103.75,63.79a5.15,5.15,0,0,1,4.71,0l14.9,7.66A4.73,4.73,0,0,1,126,75.64V95.51a4.72,4.72,0,0,1-2.61,4.19l-14.9,7.66a5.15,5.15,0,0,1-4.71,0L88.85,99.7a4.72,4.72,0,0,1-2.61-4.19V75.63a4.73,4.73,0,0,1,2.61-4.18l14.9-7.66Z"/></g></g></g></svg>