<svg xmlns="http://www.w3.org/2000/svg" width="129.492" height="89.102" viewBox="0 0 129.492 89.102"><g transform="translate(1248 -2604)"><path d="M117.206,53.334H33.653a12.257,12.257,0,0,0-12.17,13.885,2.457,2.457,0,0,0,3.681,1.8,6.96,6.96,0,0,1,3.573-.944h17.5a7.412,7.412,0,0,1,6.989,5l.418,1.347a12.346,12.346,0,0,0,11.656,8.4h56.816a7.372,7.372,0,0,1,3.671.983,2.462,2.462,0,0,0,3.7-2.123V65.621a12.287,12.287,0,0,0-12.281-12.287Z" transform="translate(-1269 2550.735)" fill="#55a1bf"/><g transform="translate(-1282 2369.51)"><g transform="translate(16 -18)"><path d="M102.856,111.089a11.235,11.235,0,0,0-5.664-1.528H44.934a6.817,6.817,0,0,1-6.428-4.6l-.384-1.239A11.355,11.355,0,0,0,27.4,96H11.3a10.816,10.816,0,0,0-5.533,1.46A11.274,11.274,0,0,0,0,107.3v54.247a11.3,11.3,0,0,0,11.3,11.3H97.192a11.3,11.3,0,0,0,11.3-11.3V120.862A11.224,11.224,0,0,0,102.856,111.089Z" transform="translate(18 156.49)" fill="#00608b"/></g></g><g transform="translate(16 436)"><rect width="55.958" height="37.475" transform="translate(-1203.867 2206.691)" fill="#fff"/><path d="M67.2,15.6H11.88A1.853,1.853,0,0,0,10,17.423V57.295a1.85,1.85,0,0,0,1.88,1.823H33.064v2.815s.068,2.528-1.607,3.038c-.338.108-1.448.338-1.448.338a1.141,1.141,0,0,0,0,2.282H49.139a1.141,1.141,0,1,0,0-2.282,10.6,10.6,0,0,1-1.583-.361,2.674,2.674,0,0,1-1.421-2.157c-.1-.925-.047-3.68-.047-3.68H67.2a1.853,1.853,0,0,0,1.88-1.823V17.41A1.857,1.857,0,0,0,67.2,15.6Zm-.986,34.906H12.876V18.473H66.214Z" transform="translate(-1215.4 2189.5)" fill="#eec06e"/><rect width="36.081" height="29.869" transform="translate(-1176.57 2227.152)" fill="#fff"/><path d="M59.776,45.924V22.931a1.185,1.185,0,0,0-1.205-1.168H22.55a1.185,1.185,0,0,0-1.2,1.168V45.907l-4.6,5.2c0,.743.581,1.779,1.293,1.779h45.05c.716,0,1.3-1.036,1.3-1.779ZM43.045,52.27H38.079c-.425,0-.766-.733-.766-1.1v-.041H43.8v.041C43.811,51.538,43.467,52.27,43.045,52.27Zm14.8-7.842H23.28V23.748H57.848Z" transform="translate(-1199.378 2204.143)" fill="#f16d6f"/><rect width="22.939" height="31.135" transform="translate(-1158.388 2225.132)" fill="#fff"/><path d="M46.463,21.231H25.327a1.523,1.523,0,0,0-1.546,1.5v30a1.523,1.523,0,0,0,1.546,1.5H46.463a1.522,1.522,0,0,0,1.546-1.5v-30A1.522,1.522,0,0,0,46.463,21.231ZM35.893,53.393a2.587,2.587,0,1,1,.007,0Zm10.286-3.1H25.611V23.128H46.186Z" transform="translate(-1182.659 2202.879)" fill="#489cd6"/><rect width="9.945" height="19.36" transform="translate(-1144.936 2237.404)" fill="#fff"/><path d="M37.713,25.127h-9a.911.911,0,0,0-.925.9V44a.911.911,0,0,0,.925.9h9a.911.911,0,0,0,.925-.9V26.025a.911.911,0,0,0-.925-.9Zm-5.543.415h2.08v.307H32.167ZM33.213,44.4a.69.69,0,1,1,.49-.2.7.7,0,0,1-.49.2Zm4.5-1.978h-9V26.43h9Z" transform="translate(-1173.146 2212.135)" fill="#d488b9"/></g></g></svg>