<svg xmlns="http://www.w3.org/2000/svg" width="153.284" height="105.262" viewBox="0 0 153.284 105.262"><g transform="translate(-1134 -855.488)"><g transform="translate(1038 315.977)"><path d="M117.206,53.334H33.653a12.257,12.257,0,0,0-12.17,13.885,2.457,2.457,0,0,0,3.681,1.8,6.96,6.96,0,0,1,3.573-.944h17.5a7.412,7.412,0,0,1,6.989,5l.418,1.347a12.346,12.346,0,0,0,11.656,8.4h56.816a7.372,7.372,0,0,1,3.671.983,2.462,2.462,0,0,0,3.7-2.123V65.621a12.287,12.287,0,0,0-12.281-12.287Z" transform="translate(75 487.247)" fill="#dcb67a"/><path d="M102.856,111.089a11.235,11.235,0,0,0-5.664-1.528H44.934a6.817,6.817,0,0,1-6.428-4.6l-.384-1.239A11.355,11.355,0,0,0,27.4,96H11.3a10.816,10.816,0,0,0-5.533,1.46A11.274,11.274,0,0,0,0,107.3v54.247a11.3,11.3,0,0,0,11.3,11.3H97.192a11.3,11.3,0,0,0,11.3-11.3V120.862A11.224,11.224,0,0,0,102.856,111.089Z" transform="translate(96 443.512)" fill="#c09553"/></g><g transform="translate(-20 206)"><path d="M91.25,14.38H18.43c-4.652.008-8.421,3.393-8.43,7.572V70.57c.016,4.174,3.783,7.552,8.43,7.56H91.25c4.654-.006,8.425-3.392,8.435-7.572V21.952c-.012-4.179-3.782-7.563-8.435-7.572Z" transform="translate(1207.6 676.62)" fill="#675f58"/><path d="M93.182,62.865a3.778,3.778,0,0,1-3.92,3.57H14.994a3.778,3.778,0,0,1-3.92-3.57V17.62h82.1V62.865Z" transform="translate(1210.15 684.229)" fill="#ccc"/><rect width="37.715" height="4.618" transform="translate(1258.791 707.514)" fill="#c09553"/><rect width="16.423" height="4.618" transform="translate(1258.791 719)" fill="#c09553"/><rect width="20.01" height="4.618" transform="translate(1231.854 707.514)" fill="#c09553"/><rect width="20.01" height="4.618" transform="translate(1231.854 719)" fill="#c09553"/><rect width="23.423" height="4.618" transform="translate(1258.791 730)" fill="#c09553"/><rect width="20.01" height="4.618" transform="translate(1231.854 730)" fill="#c09553"/><rect width="33.423" height="4.618" transform="translate(1258.791 741)" fill="#c09553"/><rect width="20.01" height="4.618" transform="translate(1231.854 741)" fill="#c09553"/></g></g></svg>