<svg xmlns="http://www.w3.org/2000/svg" viewBox="0 0 113.68 97.03"><defs><style>.cls-1{fill:#6cf;}.cls-2{fill:#69c;}.cls-3{fill:#0cf;}</style></defs><g id="Camada_2" data-name="Camada 2"><g id="Camada_1-2" data-name="Camada 1"><path class="cls-1" d="M88.18,0H20.31C14.06,0,9,11.19,9,25V35c0,2.76,1,5,2.26,5H30.63c1,0,1.82,1.35,2.15,3.36l2.46,16.49C36.19,65.9,38.77,70,41.67,70H97.23c1.25,0,2.27-2.24,2.27-5V25C99.49,11.19,94.43,0,88.18,0Z"/><path class="cls-2" d="M101.71,26.47h-60a2.4,2.4,0,0,1-2.15-1.85l-2.46-9c-1-3.32-3.53-5.55-6.42-5.57H6.78C3,10,0,13.69,0,18.23A93.65,93.65,0,0,0,2.67,40.54l9,36.52c1.44,5.81,5.85,9.8,10.85,9.79H86.39c4.72,0,9-3.54,10.61-8.92l9.77-31.63a40,40,0,0,0,1.72-11.6C108.49,30.15,105.45,26.47,101.71,26.47Z"/><path class="cls-3" d="M47.79,96.76a3.25,3.25,0,0,1-1.51-1.43l-.36-.59V45.35l.4-.71a3.08,3.08,0,0,1,2.11-1.57c.49-.11,9.35-.14,31.81-.11l31.13,0,.55.29a3.78,3.78,0,0,1,1,.78c.87,1,.82-.8.78,26.18l0,24.49-.3.54a3.68,3.68,0,0,1-1.88,1.6c-.38.11-8.43.15-31.82.14-30.87,0-31.32,0-31.84-.26ZM84.26,86.64c2.43-.57,2.7-.66,2.7-.9s-.09-1.07-.2-2c-.28-2.5-.28-2.51.21-2.79A13.72,13.72,0,0,0,88.16,80l.79-.65,2.15.86c1.75.7,2.18.83,2.31.69a39,39,0,0,0,2.89-4.79c-.07,0-1-.73-2-1.52-1.82-1.44-1.82-1.44-1.73-1.89,0-.25.13-.89.18-1.41A3.15,3.15,0,0,1,93,70.26c.07-.07,1-.48,2.12-.93s2-.85,2.1-.91A44.84,44.84,0,0,0,96,63a10.21,10.21,0,0,0-2.14.12c-3,.34-2.82.35-3.26-.31-.2-.3-.59-.82-.87-1.15l-.51-.6.93-2.2c.51-1.21.91-2.21.89-2.22-.27-.19-4.88-2.94-4.93-2.94s-.76.86-1.63,1.9c-1.06,1.29-1.62,1.88-1.75,1.83A17.76,17.76,0,0,0,80.18,57l-.6,0-.94-2.06c-.53-1.13-1-2.09-1-2.13S72.05,54.12,72,54.21s.12,1,.29,2.18.32,2.26.32,2.38-.22.35-.5.52a9.21,9.21,0,0,0-1.06.8l-.56.51-2.15-.87C66.56,59,66.14,58.89,66,59s-.8,1.19-1.57,2.43L63,63.71l1.76,1.39,1.86,1.49a3.29,3.29,0,0,1-.1,1.17,10.58,10.58,0,0,0-.21,1.56v.48l-2,.82c-1.11.46-2.07.87-2.13.92a56.12,56.12,0,0,0,1.26,5.57s1-.08,2.24-.21,2.26-.25,2.35-.25.34.31.58.68a9.17,9.17,0,0,0,.94,1.24,3.3,3.3,0,0,1,.52.65c0,.06-.36,1-.8,2a20.75,20.75,0,0,0-.8,2.05,16.09,16.09,0,0,0,2.42,1.62l2.43,1.47.5-.57c.28-.32.94-1.12,1.47-1.79l1-1.21.73.08c.4,0,1.14.13,1.64.17l.91.08.89,2.13a9.13,9.13,0,0,0,1,2.07c.07,0,1.34-.33,2.82-.67Zm-6.52-8.76a8.17,8.17,0,0,1-6.26-7.77,7,7,0,0,1,.87-3.74A8.13,8.13,0,0,1,77,62.3a9.74,9.74,0,0,1,4.64-.24,8,8,0,0,1,5.42,11.58,8.31,8.31,0,0,1-5.39,4.24,10.44,10.44,0,0,1-3.94,0Zm3.42-5.32a2.88,2.88,0,0,0-.07-5.11,3,3,0,0,0-4.31,3.06,3.25,3.25,0,0,0,1.52,2,3.52,3.52,0,0,0,2.86,0Z"/></g></g></svg>