<svg xmlns="http://www.w3.org/2000/svg" width="108.49" height="112" viewBox="0 0 108.49 112"><defs><style>.a{fill:#dbd27b;}.b{fill:#bfb555;}.c{fill:#f5de19;}</style></defs><g transform="translate(-192 -287)"><path class="a" d="M121.846,74.667H53.978c-6.247,0-11.311,11.193-11.311,25v10c0,2.762,1.013,5,2.262,5H64.294c.965.01,1.824,1.352,2.149,3.36l2.466,16.491c.951,6.052,3.526,10.12,6.425,10.15h55.561c1.249,0,2.262-2.239,2.262-5v-40C133.157,85.86,128.093,74.667,121.846,74.667Z" transform="translate(158.333 212.333)"/><path class="b" d="M101.709,155.135H41.678a2.4,2.4,0,0,1-2.147-1.844l-2.464-9.052c-.952-3.321-3.523-5.553-6.419-5.572H6.781C3.036,138.667,0,142.353,0,146.9a93.392,93.392,0,0,0,2.672,22.308l9.041,36.515c1.432,5.819,5.843,9.8,10.845,9.793H86.385c4.728.016,8.964-3.542,10.618-8.92l9.764-31.629a39.708,39.708,0,0,0,1.722-11.6C108.49,158.821,105.454,155.135,101.709,155.135Z" transform="translate(192 158.333)"/><g transform="translate(234 333)"><rect class="c" width="64" height="64" transform="translate(2 2)"/><path d="M35.418,35.6a6.527,6.527,0,0,0,5.921,3.644c2.482,0,4.07-1.241,4.07-2.961,0-2.05-1.631-2.783-4.363-3.979l-1.5-.642c-4.327-1.842-7.2-4.149-7.2-9.028,0-4.493,3.416-7.916,8.775-7.916a8.857,8.857,0,0,1,8.522,4.8l-4.685,2.995a4.074,4.074,0,0,0-3.846-2.569,2.608,2.608,0,0,0-2.867,2.569c0,1.8,1.114,2.526,3.685,3.644l1.5.642c5.092,2.184,7.971,4.409,7.971,9.412,0,5.4-4.238,8.351-9.929,8.351a11.512,11.512,0,0,1-10.92-6.128Zm-21.168.519c.941,1.669,1.8,3.081,3.856,3.081,1.968,0,3.211-.77,3.211-3.765V15.061h5.992V35.516c0,6.2-3.644,9.028-8.948,9.028a9.3,9.3,0,0,1-8.989-5.466Z" transform="translate(9.417 16.217)"/></g></g></svg>