<svg xmlns="http://www.w3.org/2000/svg" width="108.492" height="76.847" viewBox="0 0 108.492 76.847"><g transform="translate(1244 -2317)"><path d="M117.206,53.334H33.653a12.257,12.257,0,0,0-12.17,13.885,2.457,2.457,0,0,0,3.681,1.8,6.96,6.96,0,0,1,3.573-.944h17.5a7.412,7.412,0,0,1,6.989,5l.418,1.347a12.346,12.346,0,0,0,11.656,8.4h56.816a7.372,7.372,0,0,1,3.671.983,2.462,2.462,0,0,0,3.7-2.123V65.621a12.287,12.287,0,0,0-12.281-12.287Z" transform="translate(-1265 2263.735)" fill="#7bbedb"/><g transform="translate(-1278 2082.51)"><g transform="translate(16 -18)"><path d="M102.856,111.089a11.235,11.235,0,0,0-5.664-1.528H44.934a6.817,6.817,0,0,1-6.428-4.6l-.384-1.239A11.355,11.355,0,0,0,27.4,96H11.3a10.816,10.816,0,0,0-5.533,1.46A11.274,11.274,0,0,0,0,107.3v54.247a11.3,11.3,0,0,0,11.3,11.3H97.192a11.3,11.3,0,0,0,11.3-11.3V120.862A11.224,11.224,0,0,0,102.856,111.089Z" transform="translate(18 156.49)" fill="#55a1bf"/></g></g><g transform="translate(35 -57.473)"><line x2="35.841" transform="translate(-1224.907 2415.029)" fill="none" stroke="#eb3939" stroke-width="3"/><line y1="19.549" transform="translate(-1206.987 2415.029)" fill="none" stroke="#eb3939" stroke-width="3"/><path d="M29.442,30.665a6.842,6.842,0,1,1,6.842-6.842,6.842,6.842,0,0,1-6.842,6.842Zm0-9.775a2.932,2.932,0,1,0,2.932,2.932,2.932,2.932,0,0,0-2.932-2.932Z" transform="translate(-1236.592 2414.308)" fill="#145ced"/><path d="M29.442,30.665a6.842,6.842,0,1,1,6.842-6.842,6.842,6.842,0,0,1-6.842,6.842Zm0-9.775a2.932,2.932,0,1,0,2.932,2.932,2.932,2.932,0,0,0-2.932-2.932Z" transform="translate(-1213.785 2391.5)" fill="#eda514"/><path d="M29.442,30.665a6.842,6.842,0,1,1,6.842-6.842,6.842,6.842,0,0,1-6.842,6.842Zm0-9.775a2.932,2.932,0,1,0,2.932,2.932,2.932,2.932,0,0,0-2.932-2.932Z" transform="translate(-1259.4 2391.5)" fill="#9c5a0e"/></g></g></svg>