<svg xmlns="http://www.w3.org/2000/svg" width="108.493" height="76.85" viewBox="0 0 108.493 76.85"><defs><style>.a{fill:#ffa000;}.b{fill:#ffc107;}.c{fill:#4a1700;}.d{fill:#995700;}.e{fill:#534741;}.f{fill:#736357;}.g{fill:#fff;}.h{fill:#ffe05c;}</style></defs><g transform="translate(-53 -317.488)"><path class="a" d="M117.206,53.334H33.653A12.257,12.257,0,0,0,21.483,67.219a2.457,2.457,0,0,0,3.681,1.8,6.96,6.96,0,0,1,3.573-.944h17.5a7.412,7.412,0,0,1,6.989,5l.418,1.347A12.346,12.346,0,0,0,65.3,82.823h56.816a7.372,7.372,0,0,1,3.671.983,2.462,2.462,0,0,0,3.7-2.123V65.621A12.287,12.287,0,0,0,117.206,53.334Z" transform="translate(32 264.225)"/><path class="b" d="M102.856,111.089a11.235,11.235,0,0,0-5.664-1.528H44.934a6.817,6.817,0,0,1-6.428-4.6l-.384-1.239A11.355,11.355,0,0,0,27.395,96H11.3a10.816,10.816,0,0,0-5.533,1.46A11.274,11.274,0,0,0,0,107.3v54.247a11.3,11.3,0,0,0,11.3,11.3H97.192a11.3,11.3,0,0,0,11.3-11.3V120.862A11.224,11.224,0,0,0,102.856,111.089Z" transform="translate(53 221.49)"/><g transform="translate(9 -239.039)"><path class="c" d="M12.443,29.692,34.366,12.538l.372-.054a25.958,25.958,0,0,1,3.845-.26A41.264,41.264,0,0,1,52.326,14.7a23.209,23.209,0,0,1,11.648,8.417l.234.355V34.852a4.431,4.431,0,0,1-.38,2.027,2.533,2.533,0,0,1-.921,1.038V54.294L12.446,62Z" transform="translate(71.62 566.632)"/><path d="M12.432,62.054V29.69h0L34.361,12.536l.377-.057a26,26,0,0,1,3.86-.263,41.3,41.3,0,0,1,13.752,2.476A23.238,23.238,0,0,1,63.994,23.12l.24.363V34.876a4.463,4.463,0,0,1-.383,2.041,2.553,2.553,0,0,1-.918,1.041V54.334h-.026Zm.063-32.324V61.971l50.4-7.679V37.926h.014A2.49,2.49,0,0,0,63.82,36.9a4.4,4.4,0,0,0,.377-2V23.5l-.229-.349a23.175,23.175,0,0,0-11.633-8.405,41.232,41.232,0,0,0-13.723-2.473,25.934,25.934,0,0,0-3.84.26l-.363.054Z" transform="translate(71.6 566.617)"/><path class="d" d="M12.932,26.275l47.422-7.228V40.312L12.932,47.537Z" transform="translate(72.53 579.318)"/><path class="d" d="M60.31,19.231V40.308L13.074,47.5V26.419l47.239-7.2m.186-.214L12.888,26.27V47.712L60.5,40.453V19.011Z" transform="translate(72.448 579.246)"/><path class="c" d="M22.016,20.925V42.936L32.185,41.4v-22Z" transform="translate(89.417 579.971)"/><path class="c" d="M22.037,28.739,34,35.861a26.363,26.363,0,0,0,8.634,2.5,3.645,3.645,0,0,0,3.9-3.374v-.163L33.184,27.035Z" transform="translate(89.456 594.168)"/><path class="c" d="M51.351,70.039a10.172,10.172,0,0,1-3.628-.7,5.146,5.146,0,0,1-2.859-2.319C38.623,54.38,28.13,33.144,28.022,32.863a14.867,14.867,0,0,0-1-1.93c-.595-.3-2.13-1.095-3.682-1.944-4.248-2.327-4.5-2.808-4.674-3.162l-1.318-2.593V20.627l1.232-.172.132-.017-.761-4.36-.023-3.245h0a1.072,1.072,0,0,1,.886-1.229h0c.286-.04,1.881-.226,1.95-.234l.715-.083,4.037,8.2,3.236-.457-2.2-5.6-.031-2.953,3.508-.452A1.547,1.547,0,0,1,30.246,10a1.687,1.687,0,0,1,1.178.5l9.083,7.162.043.043a6.347,6.347,0,0,1,1.072,1.684L43.1,22.5v2.347l-.286.286c-.112.117-2.473,2.619-4.246,4.228,3.465,6.756,17.2,33.493,17.346,33.773v.014a3.391,3.391,0,0,1,.309.952l.054.083v2.453a3.565,3.565,0,0,1-1.192,2.144A5.146,5.146,0,0,1,52.4,69.951a6.86,6.86,0,0,1-1.049.089Z" transform="translate(80.741 562.5)"/><path class="e" d="M30.161,14.409v1.838a56.56,56.56,0,0,1-5.584,5.3c-1.367.826-.6-1.655-.6-1.655Z" transform="translate(92.662 570.696)"/><path class="c" d="M24.129,21.759a.32.32,0,0,1-.2-.063c-.415-.32.017-1.735.037-1.8h0l6.184-5.5.051.023v1.85h0a56.77,56.77,0,0,1-5.589,5.306.989.989,0,0,1-.48.18Zm-.109-1.835c-.034.117-.429,1.43-.054,1.715.123.1.329.06.612-.111a56.037,56.037,0,0,0,5.572-5.286V14.483Z" transform="translate(92.633 570.68)"/><path class="e" d="M54.579,59.037A3.216,3.216,0,0,1,51.554,61.5a7,7,0,0,1-6.444-2.393S28.41,25.306,28.3,25.02a17.169,17.169,0,0,0-1.227-2.336,55.225,55.225,0,0,1-8.162-4.78l-1.2-2.376V14.01L30.969,19.8,54.582,57.03Z" transform="translate(81.416 569.955)"/><path class="c" d="M50.7,61.612a6.644,6.644,0,0,1-5.6-2.47c-.68-1.381-16.7-33.8-16.808-34.088a17.134,17.134,0,0,0-1.221-2.324,53.881,53.881,0,0,1-8.168-4.789l-1.2-2.382V13.995l.043.02L31.011,19.8h0L54.64,57.052h0v2a3.251,3.251,0,0,1-3.051,2.482A5.832,5.832,0,0,1,50.7,61.612ZM17.771,15.547l1.2,2.37a56.117,56.117,0,0,0,8.145,4.766h0a17.323,17.323,0,0,1,1.229,2.342c.106.286,16.639,33.736,16.805,34.077a6.956,6.956,0,0,0,6.413,2.376,3.191,3.191,0,0,0,3-2.427v-2l-23.59-37.2-13.2-5.764Z" transform="translate(81.397 569.927)"/><path class="e" d="M20.921,10.487V12.32L24.452,21.2l.56-2.473Z" transform="translate(87.381 563.405)"/><path class="c" d="M24.441,21.211,20.91,12.325V10.487h.057l4.094,8.248v.02l-.572,2.473Zm-3.468-8.9L24.455,21.1l.535-2.359-4.017-8.122Z" transform="translate(87.361 563.405)"/><path class="e" d="M17.911,10.984l.023,3.156,1.444,8.134h.495l-.137-2.939Z" transform="translate(81.786 564.329)"/><path class="c" d="M19.924,22.3h-.552l-1.45-8.16L17.9,10.984h.063l1.824,8.337Zm-.5-.063h.429l-.137-2.919-1.761-8.054.02,2.859Z" transform="translate(81.765 564.329)"/><path class="f" d="M27.635,28.359a63.639,63.639,0,0,1-8.723-5.146l-1.2-2.376,13.269-1.873-4.06-8.248,2.573-.363a.672.672,0,0,1,.558.232l9.089,7.173a5.718,5.718,0,0,1,.875,1.4l1.367,2.776c.26.526-5.146,5.2-5.146,5.2a.429.429,0,0,0-.029.48c.143.286,18.138,35.317,18.138,35.317.912,1.85-.878,3.579-2.788,3.871a6.644,6.644,0,0,1-6.161-2.61S28.3,29.114,28.169,28.837A1.615,1.615,0,0,0,27.635,28.359Z" transform="translate(81.419 563.153)"/><path class="c" d="M50.825,66.916a6.487,6.487,0,0,1-5.432-2.676L28.159,28.889a1.584,1.584,0,0,0-.509-.492,61.583,61.583,0,0,1-8.734-5.146L17.7,20.838h.043l13.226-1.864-4.06-8.257,2.613-.369a.692.692,0,0,1,.572.24l9.083,7.17a5.772,5.772,0,0,1,.883,1.409l1.375,2.768c.26.532-4.609,4.755-5.166,5.235a.389.389,0,0,0-.023.443c.146.286,17.96,34.971,18.138,35.32A2.207,2.207,0,0,1,54.365,65a3.834,3.834,0,0,1-2.788,1.847,4.979,4.979,0,0,1-.752.066ZM17.789,20.883l1.178,2.336a64.421,64.421,0,0,0,8.709,5.12h0a1.624,1.624,0,0,1,.535.517c.132.266,17.06,35,17.228,35.352A6.576,6.576,0,0,0,51.566,66.8a3.771,3.771,0,0,0,2.745-1.813,2.144,2.144,0,0,0,.017-2c-.18-.349-17.995-35.029-18.138-35.323a.446.446,0,0,1,.037-.517,27.226,27.226,0,0,0,5.146-5.163l-1.355-2.773a5.718,5.718,0,0,0-.858-1.392l-9.1-7.176h0a.643.643,0,0,0-.529-.214L27,10.765,31.061,19h-.043Z" transform="translate(81.39 563.144)"/><path class="f" d="M23.893,19.045l-4.045-8.22s-1.638.192-1.93.234a87.2,87.2,0,0,0,1.8,8.577Z" transform="translate(81.799 564.034)"/><path class="c" d="M19.713,19.679V19.65a86.384,86.384,0,0,1-1.8-8.577.046.046,0,0,1,.034-.02c.286-.04,1.907-.232,1.93-.234h.011l4.074,8.274ZM17.952,11.1a81.692,81.692,0,0,0,1.81,8.508l4.1-.572-4-8.148c-.206.006-1.618.16-1.91.214Z" transform="translate(81.782 564.023)"/><path class="c" d="M27.207,14.172l1.512,2.888-7.027.929-1.324-2.9Z" transform="translate(86.353 570.256)"/><path class="f" d="M20.668,14.736l.695-.1a1.675,1.675,0,0,1,1.006.672,1.81,1.81,0,0,1,.214,1.375l-.692.106a1.544,1.544,0,0,0-.149-1.347A3.025,3.025,0,0,0,20.668,14.736Z" transform="translate(86.911 571.118)"/><path class="f" d="M21.315,14.647l.695-.1a1.675,1.675,0,0,1,1.006.672,1.81,1.81,0,0,1,.214,1.375l-.692.106a1.547,1.547,0,0,0-.149-1.347,3.022,3.022,0,0,0-1.075-.706Z" transform="translate(88.114 570.953)"/><path class="f" d="M21.944,14.557l.695-.1a1.675,1.675,0,0,1,1.006.672A1.81,1.81,0,0,1,23.86,16.5l-.692.106a1.547,1.547,0,0,0-.149-1.347,3.025,3.025,0,0,0-1.075-.706Z" transform="translate(89.283 570.786)"/><path class="c" d="M25.762,27.125l.729-.154V18.308a32.15,32.15,0,0,1-6.481-1.773Z" transform="translate(85.688 574.649)"/><path class="g" d="M20.5,14.387l3.236-.457-.486-1.2a22.642,22.642,0,0,0-2.5.214l-.686.549Z" transform="translate(85.782 567.579)"/><path class="g" d="M27.959,13.456l1.229,2.619v2.344l-.214.286c-.112.117-2.442,2.619-4.214,4.228.1.192.214.4.32.62l14.661-1.938A22.246,22.246,0,0,0,27.959,13.456Z" transform="translate(94.518 568.925)"/><path class="h" d="M38.225,24.029V29.31c1.118-.043,1.3-1.006,1.3-2.044V16.31L24.868,18.26c.858,1.7,2.156,4.289,3.688,7.256Z" transform="translate(94.719 574.23)"/><path class="g" d="M31.587,19.726c-4.248-2.327-4.489-2.808-4.663-3.162l-.809-1.59L12.923,25.266,38.94,21.836a48.694,48.694,0,0,1-7.353-2.11Z" transform="translate(72.513 571.747)"/><path class="h" d="M38.976,25.571l-.031-8.2L12.91,20.816v8.526Z" transform="translate(72.489 576.203)"/><path class="h" d="M28.753,26.191V18.5s-2.573-1.487-1.5-2.573l-2.49,2.422Z" transform="translate(94.522 573.524)"/><path class="c" d="M13.781,19.766l15.058-2s-5.4,1.092-9.563,1.607C17.309,19.62,13.781,19.766,13.781,19.766Z" transform="translate(74.108 576.935)"/><path class="c" d="M28.026,17.076l5.787-.766.252.346C31.545,16.922,28.026,17.076,28.026,17.076Z" transform="translate(100.589 574.23)"/></g></g></svg>