<svg xmlns="http://www.w3.org/2000/svg" xmlns:xlink="http://www.w3.org/1999/xlink" width="112.6" height="98.5" viewBox="0 0 112.6 98.5"><defs><style>.a{fill:#84ce7c;}.b{fill:#58af7b;}.c{fill:url(#a);}.d{fill:url(#b);}</style><linearGradient id="a" x1="-9.653" y1="15.022" x2="-9.649" y2="15.019" gradientUnits="objectBoundingBox"><stop offset="0" stop-color="#387eb8"/><stop offset="1" stop-color="#366994"/></linearGradient><linearGradient id="b" x1="-10" y1="14.707" x2="-9.996" y2="14.704" gradientUnits="objectBoundingBox"><stop offset="0" stop-color="#ffe052"/><stop offset="1" stop-color="#ffc331"/></linearGradient></defs><g transform="translate(-187 -317)"><path class="a" d="M121.846,74.667H53.978c-6.247,0-11.311,11.193-11.311,25v10c0,2.762,1.013,5,2.262,5H64.294c.965.01,1.824,1.352,2.149,3.36l2.466,16.491c.951,6.052,3.526,10.12,6.425,10.15h55.561c1.249,0,2.262-2.239,2.262-5v-40C133.157,85.86,128.093,74.667,121.846,74.667Z" transform="translate(153.333 242.333)"/><path class="b" d="M101.709,155.135H41.678a2.4,2.4,0,0,1-2.147-1.844l-2.464-9.052c-.952-3.321-3.523-5.553-6.419-5.572H6.781C3.036,138.667,0,142.353,0,146.9a93.392,93.392,0,0,0,2.672,22.308l9.041,36.515c1.432,5.819,5.843,9.8,10.845,9.793H86.385c4.728.016,8.964-3.542,10.618-8.92l9.764-31.629a39.708,39.708,0,0,0,1.722-11.6C108.49,158.821,105.454,155.135,101.709,155.135Z" transform="translate(187 188.333)"/><g transform="translate(41 -113.9)"><path class="c" d="M39.713,11.026c-14.683,0-13.754,6.386-13.754,6.386v6.638H39.921v2.082H20.4S11,24.968,11,39.95s8.3,14.382,8.3,14.382h4.791V47.35A7.877,7.877,0,0,1,32.154,39H46.137a7.478,7.478,0,0,0,7.8-7.6V18.724S55.12,11,39.788,11h0Zm-7.718,4.447a2.524,2.524,0,1,1-2.446,2.588h0V18.02a2.519,2.519,0,0,1,2.51-2.527h0Z" transform="translate(189.7 460.5)"/><path class="d" d="M30.4,59.366c14.681,0,13.751-6.41,13.751-6.41V46.338H30.193V44.254H49.778s9.4,1.057,9.4-13.838-8.3-14.382-8.3-14.382H46.023v6.9a7.877,7.877,0,0,1-8.065,8.349H23.969a7.486,7.486,0,0,0-7.817,7.605V51.651s-1.172,7.715,14.159,7.715Zm7.715-4.47a2.524,2.524,0,1,1,2.446-2.588h0v.064a2.516,2.516,0,0,1-2.51,2.524h.064Z" transform="translate(199.425 470.034)"/></g></g></svg>