<svg xmlns="http://www.w3.org/2000/svg" width="108.489" height="86.849" viewBox="0 0 108.489 86.849"><g transform="translate(-697 -606)"><path d="M121.846,74.667H53.978c-6.247,0-11.311,11.193-11.311,25v10c0,2.762,1.013,5,2.262,5H64.294c.965.01,1.824,1.352,2.149,3.36l2.466,16.491c.951,6.052,3.526,10.12,6.425,10.15H130.9c1.249,0,2.262-2.239,2.262-5v-40C133.157,85.86,128.093,74.667,121.846,74.667Z" transform="translate(663.333 531.333)" fill="#5599bf"/><path d="M101.709,155.135H41.678a2.4,2.4,0,0,1-2.147-1.844l-2.464-9.052c-.952-3.321-3.523-5.553-6.419-5.572H6.781C3.036,138.667,0,142.353,0,146.9a93.392,93.392,0,0,0,2.672,22.308l9.041,36.515c1.432,5.819,5.843,9.8,10.845,9.793H86.385c4.728.016,8.964-3.542,10.618-8.92l9.764-31.629a39.708,39.708,0,0,0,1.722-11.6C108.49,158.821,105.454,155.135,101.709,155.135Z" transform="translate(697 477.333)" fill="#345e75"/><g transform="translate(-179 32.862)"><path d="M32.569,54.138A21.569,21.569,0,1,1,54.138,32.569,21.569,21.569,0,0,1,32.569,54.138Zm0-39.216A17.648,17.648,0,1,0,50.216,32.569,17.648,17.648,0,0,0,32.569,14.921Z" transform="translate(913.6 597.5)" fill="#fff"/><path d="M24.012,31.375h-2.3a1.618,1.618,0,0,1-1.618-1.618V15.345a1.618,1.618,0,0,1,1.618-1.618h.686a1.618,1.618,0,0,1,1.618,1.618Z" transform="translate(924.117 600.655)" fill="#fff"/><path d="M36.121,24.012H21.709a1.618,1.618,0,0,1-1.618-1.618v-2.3h16.03a1.618,1.618,0,0,1,1.618,1.618v.686A1.618,1.618,0,0,1,36.121,24.012Z" transform="translate(924.117 608.017)" fill="#fff"/></g></g></svg>