<svg xmlns="http://www.w3.org/2000/svg" width="119.656" height="111" viewBox="0 0 119.656 111"><g transform="translate(-34 -1631)"><path d="M121.846,74.667H53.978c-6.247,0-11.311,11.193-11.311,25v10c0,2.762,1.013,5,2.262,5H64.294c.965.01,1.824,1.352,2.149,3.36l2.466,16.491c.951,6.052,3.526,10.12,6.425,10.15H130.9c1.249,0,2.262-2.239,2.262-5v-40C133.157,85.86,128.093,74.667,121.846,74.667Z" transform="translate(0.333 1556.333)" fill="#345e75"/><path d="M101.709,155.135H41.678a2.4,2.4,0,0,1-2.147-1.844l-2.464-9.052c-.952-3.321-3.523-5.553-6.419-5.572H6.781C3.036,138.667,0,142.353,0,146.9a93.392,93.392,0,0,0,2.672,22.308l9.041,36.515c1.432,5.819,5.843,9.8,10.845,9.793H86.385c4.728.016,8.964-3.542,10.618-8.92l9.764-31.629a39.708,39.708,0,0,0,1.722-11.6C108.49,158.821,105.454,155.135,101.709,155.135Z" transform="translate(34 1502.333)" fill="#5599bf"/><g transform="translate(139 147.972)"><path d="M52.263,62.682a61.423,61.423,0,0,1-29.3-5.922l1.848-2.93a59.622,59.622,0,0,0,27.448,5.078c0,.32.391-5.988.957-9.425H39.928A84.563,84.563,0,0,1,51.775,12.735H11.933V73.381H53.791a87.416,87.416,0,0,1-1.527-10.7Z" transform="translate(-72 1509.948)" fill="#c6e9fa" fill-rule="evenodd"/><path d="M32,58.678A41.8,41.8,0,0,0,49.518,53.6l2.293,2.93A49.9,49.9,0,0,1,32,62.456a53.122,53.122,0,0,0,1.723,10.937H62.385V12.739H31.878A75.532,75.532,0,0,0,20.285,45.476H33.98A60.188,60.188,0,0,0,32,58.659Z" transform="translate(-47.728 1509.96)" fill="#00adee" fill-rule="evenodd"/><path d="M16.568,15.087h3.887v8.98H16.568v-8.98Z" transform="translate(-58.53 1516.783)" fill="#00adee" fill-rule="evenodd"/><path d="M24.851,15.087h3.883v8.98H24.851v-8.98Z" transform="translate(-34.459 1516.783)" fill="#231f20" fill-rule="evenodd"/><path d="M35.447,66.638A41.8,41.8,0,0,0,52.962,61.56l2.293,2.93a49.9,49.9,0,0,1-19.808,5.926,47.928,47.928,0,0,0,5.289,19.87l-3.312,1.742c-6.051-9.55-7.133-22.417-5.031-34.581H19.1A83.922,83.922,0,0,1,38.568,10l2.867,2.484A74.606,74.606,0,0,0,23.729,53.436H37.423a60.188,60.188,0,0,0-1.976,13.183Z" transform="translate(-51.172 1502)" fill="#231f20" fill-rule="evenodd"/><path d="M44.054,28.35v3.758a61.423,61.423,0,0,1-29.3-5.922l1.848-2.93a59.622,59.622,0,0,0,27.448,5.078Z" transform="translate(-63.79 1540.523)" fill="#00adee" fill-rule="evenodd"/></g></g></svg>