<svg xmlns="http://www.w3.org/2000/svg" viewBox="0 0 133.37 123.46"><defs><style>.cls-1{fill:#1d4d87;}.cls-2{fill:#577e9b;}.cls-3{fill:#144271;}</style></defs><g id="Camada_2" data-name="Camada 2"><g id="Camada_1-2" data-name="Camada 1"><path class="cls-1" d="M88.3,0H20.4C14.2,0,9.1,11.2,9.1,25V35c0,2.8,1,5,2.3,5H30.8c1,0,1.8,1.4,2.2,3.4l2.5,16.5c1,6,3.5,10.1,6.4,10.1H97.5c1.2,0,2.3-2.2,2.3-5V25C99.6,11.2,94.5,0,88.3,0Z"/><path class="cls-2" d="M101.8,26.5h-60a2.58,2.58,0,0,1-2.2-1.8l-2.5-9c-1-3.3-3.5-5.6-6.4-5.6H6.8C3,10,0,13.7,0,18.3A93.21,93.21,0,0,0,2.7,40.6l9,36.5c1.4,5.8,5.9,9.8,10.9,9.8H86.5c4.7,0,9-3.5,10.6-8.9l9.8-31.6a41.75,41.75,0,0,0,1.7-11.6C108.6,30.1,105.5,26.5,101.8,26.5Z"/><g id="SVGRepo_iconCarrier" data-name="SVGRepo iconCarrier"><path class="cls-3" d="M80.1,103.32l-13.52-7a5.17,5.17,0,0,1-2.75-4.6V57a5.15,5.15,0,0,1,2.75-4.6L91.41,39.57a4.77,4.77,0,0,1,4.44,0L120.69,52.4a5.16,5.16,0,0,1,2.74,4.6V69a2.12,2.12,0,0,1-3.08,2,14.36,14.36,0,0,0-13.66.08L91.15,79.5l-1.25.86a14.52,14.52,0,0,0-6.2,12V101a2.49,2.49,0,0,1-3.6,2.3Z"/><path class="cls-3" d="M111.15,79.33a5.13,5.13,0,0,1,4.7,0L130.75,87a4.73,4.73,0,0,1,2.62,4.18v19.88a4.73,4.73,0,0,1-2.62,4.18l-14.9,7.67a5.19,5.19,0,0,1-4.7,0l-14.91-7.67A4.74,4.74,0,0,1,93.63,111V91.17A4.73,4.73,0,0,1,96.24,87l14.91-7.66Z"/></g></g></g></svg>