<svg xmlns="http://www.w3.org/2000/svg" width="51.441" height="63.998" viewBox="0 0 51.441 63.998"><g transform="translate(-441 -175)"><g transform="translate(47 -113)"><path d="M44,2H8.582A3.974,3.974,0,0,0,4.625,5.969v55.57a3.974,3.974,0,0,0,3.957,3.969H52.109a3.974,3.974,0,0,0,3.957-3.969V13.014Zm1.187,6.451,3.76,3.473h-3.76ZM8.582,61.539V5.969H41.229v9.923H52.111V61.539Z" transform="translate(389.375 286.49)" fill="#9f4246"/><g transform="matrix(-0.695, -0.719, 0.719, -0.695, 436.624, 310.001)"><path d="M17.966,11.5H1.034L9.5.806Z" fill="#9f4246"/><path d="M9.5,1.611,2.067,11H16.933L9.5,1.611M9.5,0,19,12H0Z" fill="#9f4246"/></g></g><text transform="translate(449 215)" fill="#9f4246" font-size="20" font-family="SegoeUI-Bold, Segoe UI" font-weight="700"><tspan x="0" y="0">.bin</tspan></text></g></svg>