<?xml version="1.0" encoding="utf-8"?>
<!-- Generator: Adobe Illustrator 26.3.1, SVG Export Plug-In . SVG Version: 6.00 Build 0)  -->
<svg version="1.1" id="Camada_1" xmlns="http://www.w3.org/2000/svg" xmlns:xlink="http://www.w3.org/1999/xlink" x="0px" y="0px"
	 viewBox="0 0 108.5 86.8" style="enable-background:new 0 0 108.5 86.8;" xml:space="preserve">
<style type="text/css">
	.st0{fill:#66CCFF;}
	.st1{fill:#6699CC;}
	.st2{fill:#00CCFF;}
	.st3{fill:#CCCC66;}
	.st4{fill:#999933;}
	.st5{fill:#3D6DEB;}
	.st6{fill:#5286FA;}
	.st7{fill:#424EDE;}
	.st8{fill:#6E76E5;}
	.st9{fill:#BBA56B;}
	.st10{fill:#8E7B22;}
	
		.st11{opacity:0.34;fill:none;stroke:#66CC00;stroke-width:8;stroke-linecap:round;stroke-linejoin:round;stroke-miterlimit:133.3333;enable-background:new    ;}
	.st12{fill:none;stroke:#66CC00;stroke-width:8;stroke-linecap:round;stroke-linejoin:round;stroke-miterlimit:133.3333;}
	.st13{fill:#BFA66D;}
	.st14{fill:#8A7820;}
	.st15{fill:#CC6600;}
	.st16{fill:#FF9999;}
	.st17{fill:#EB5424;}
	.st18{fill:#DCB67A;}
	.st19{fill:#C09553;}
	.st20{fill:#FF4893;}
	.st21{fill:#4F46A3;}
	.st22{fill:#E2DACF;}
	.st23{fill:#A3A2A2;}
	.st24{opacity:0.15;}
	.st25{fill:none;stroke:#D6D6D6;stroke-miterlimit:10;}
	.st26{fill-rule:evenodd;clip-rule:evenodd;fill:none;stroke:#D6D6D6;stroke-miterlimit:10;}
	.st27{fill:none;stroke:#D6D6D6;stroke-width:6;stroke-miterlimit:133.3333;}
	.st28{fill:#D2A6F4;}
	.st29{fill:#AF84F4;}
	.st30{fill-rule:evenodd;clip-rule:evenodd;fill:#563D7C;}
	.st31{fill:#EF937B;}
	.st32{fill:#ED4A35;}
	.st33{fill:#FF7855;}
	.st34{fill:#FF562B;}
	.st35{fill:#FFFFFF;}
	.st36{fill:#FFEAC3;}
	.st37{fill:#7EAD77;}
	.st38{fill:#5E7A63;}
	.st39{fill:#4CA046;stroke:#4CA046;stroke-width:4;stroke-miterlimit:10;}
	.st40{fill:#B68EEF;}
	.st41{fill:#7355BF;}
	.st42{fill:#4028B8;}
</style>
<g>
	<path class="st0" d="M-639-320.1h-83.6c-6.8,0-12.3,5.5-12.3,12.2c0,0.6,0,1.1,0.1,1.6c0.2,1.3,1.4,2.3,2.8,2.1
		c0.3,0,0.6-0.2,0.9-0.3c1.1-0.6,2.3-1,3.6-0.9h17.5c3.2,0,6,2,7,5l0.4,1.3c1.7,5,6.4,8.4,11.7,8.4h56.8c1.3,0,2.6,0.3,3.7,1
		c1.2,0.7,2.7,0.3,3.4-0.9c0.2-0.4,0.3-0.8,0.3-1.2v-16.1C-626.7-314.6-632.2-320.1-639-320.1z"/>
	<path class="st1" d="M-632.3-306.1c-1.7-1-3.7-1.5-5.7-1.5h-52.3c-2.9,0-5.5-1.9-6.4-4.6l-0.4-1.2c-1.6-4.6-5.9-7.7-10.7-7.7h-16.1
		c-1.9,0-3.9,0.5-5.5,1.5c-3.6,2-5.8,5.8-5.8,9.8v54.2c0,6.2,5.1,11.3,11.3,11.3c0,0,0,0,0,0h85.9c6.2,0,11.3-5.1,11.3-11.3l0,0
		v-40.7C-626.7-300.3-628.8-304.1-632.3-306.1z"/>
	<path class="st2" d="M-675.2-235c-0.7-0.3-1.1-0.7-1.5-1.4l-0.4-0.6v-24.7v-24.7l0.4-0.7c0.5-0.9,1.2-1.4,2.1-1.6
		c0.5-0.1,9.4-0.1,31.8-0.1l31.1,0l0.6,0.3c0.3,0.2,0.7,0.5,1,0.8c0.9,1,0.8-0.8,0.8,26.2l0,24.5l-0.3,0.5c-0.4,0.7-1.2,1.4-1.9,1.6
		c-0.4,0.1-8.4,0.2-31.8,0.1C-674.2-234.7-674.7-234.7-675.2-235L-675.2-235z M-638.7-245.1c2.4-0.6,2.7-0.7,2.7-0.9
		c0-0.1-0.1-1.1-0.2-2c-0.3-2.5-0.3-2.5,0.2-2.8c0.2-0.1,0.8-0.5,1.2-0.9l0.8-0.6l2.1,0.9c1.7,0.7,2.2,0.8,2.3,0.7
		c0.4-0.5,3-4.7,2.9-4.8c-0.1,0-0.9-0.7-1.9-1.5c-1.8-1.4-1.8-1.4-1.7-1.9c0-0.3,0.1-0.9,0.2-1.4c0.1-0.5,0.1-1,0.2-1.1
		c0.1-0.1,1-0.5,2.1-0.9c1.1-0.4,2-0.9,2.1-0.9c0.1-0.1-1-5.2-1.2-5.5c0-0.1-1,0-2.1,0.1c-3,0.3-2.8,0.3-3.3-0.3
		c-0.2-0.3-0.6-0.8-0.9-1.2l-0.5-0.6l0.9-2.2c0.5-1.2,0.9-2.2,0.9-2.2c-0.3-0.2-4.9-2.9-4.9-2.9c0,0-0.8,0.9-1.6,1.9
		c-1.1,1.3-1.6,1.9-1.8,1.8c-0.3-0.1-1.8-0.3-2.6-0.4l-0.6,0l-0.9-2.1c-0.5-1.1-1-2.1-1-2.1c-0.1-0.1-5.6,1.3-5.6,1.4
		c0,0,0.1,1,0.3,2.2c0.2,1.2,0.3,2.3,0.3,2.4c0,0.1-0.2,0.4-0.5,0.5c-0.3,0.2-0.8,0.5-1.1,0.8l-0.6,0.5l-2.2-0.9
		c-1.8-0.7-2.2-0.8-2.3-0.7c-0.1,0.1-0.8,1.2-1.6,2.4l-1.4,2.3l1.8,1.4c1,0.8,1.8,1.4,1.9,1.5c0.1,0.1,0,0.6-0.1,1.2
		c-0.1,0.6-0.2,1.3-0.2,1.6v0.5l-2,0.8c-1.1,0.5-2.1,0.9-2.1,0.9c-0.1,0.1,1.1,5.4,1.3,5.6c0,0,1-0.1,2.2-0.2
		c1.2-0.1,2.3-0.2,2.3-0.2c0.1,0,0.3,0.3,0.6,0.7c0.2,0.4,0.7,0.9,0.9,1.2c0.3,0.3,0.5,0.6,0.5,0.7c0,0.1-0.4,0.9-0.8,2
		c-0.4,1-0.8,2-0.8,2c0,0.1,1.1,0.8,2.4,1.6l2.4,1.5l0.5-0.6c0.3-0.3,0.9-1.1,1.5-1.8l1-1.2l0.7,0.1c0.4,0,1.1,0.1,1.6,0.2l0.9,0.1
		l0.9,2.1c0.5,1.2,0.9,2.1,1,2.1C-641.5-244.5-640.2-244.8-638.7-245.1L-638.7-245.1z M-645.3-253.9c-3.6-0.9-6.2-4.1-6.3-7.8
		c0-1.5,0.2-2.4,0.9-3.7c0.9-1.9,2.6-3.3,4.7-4.1c1.3-0.4,3.4-0.6,4.6-0.2c2.3,0.6,4.4,2.2,5.4,4.3c0.6,1.2,0.9,2.5,0.9,3.7
		c0,1.1-0.3,2.5-0.9,3.7c-1,2.1-3.1,3.7-5.4,4.2C-642.3-253.6-644.2-253.6-645.3-253.9L-645.3-253.9z M-641.8-259.2
		c2-1.2,2-4.1-0.1-5.1c-2.2-1.1-4.7,0.7-4.3,3.1c0.1,0.8,0.8,1.7,1.5,2C-643.9-258.8-642.6-258.8-641.8-259.2L-641.8-259.2z"/>
</g>
<g>
	<path class="st0" d="M-494.1-330.7h-67.9c-6.2,0-11.3,11.2-11.3,25v10c0,2.8,1,5,2.3,5h19.4c1,0,1.8,1.4,2.2,3.4l2.5,16.5
		c1,6,3.5,10.1,6.4,10.1h55.6c1.2,0,2.3-2.2,2.3-5v-40C-482.8-319.5-487.8-330.7-494.1-330.7z"/>
	<path class="st1" d="M-480.5-304.3h-60c-1-0.1-1.9-0.8-2.2-1.9l-2.5-9c-1-3.3-3.5-5.5-6.4-5.6h-23.9c-3.8,0-6.8,3.6-6.8,8.2
		c0,7.5,0.9,15,2.7,22.3l9,36.5c1.4,5.8,5.8,9.8,10.8,9.8h63.9c4.7,0,9-3.5,10.6-8.9l9.8-31.6c1.1-3.8,1.7-7.7,1.7-11.6
		C-473.8-300.6-476.8-304.3-480.5-304.3z"/>
	<path class="st2" d="M-534.4-234c-0.7-0.3-1.1-0.7-1.5-1.4l-0.4-0.6v-24.7v-24.7l0.4-0.7c0.5-0.9,1.2-1.4,2.1-1.6
		c0.5-0.1,9.4-0.1,31.8-0.1l31.1,0l0.6,0.3c0.3,0.2,0.7,0.5,1,0.8c0.9,1,0.8-0.8,0.8,26.2l0,24.5l-0.3,0.5c-0.4,0.7-1.2,1.4-1.9,1.6
		c-0.4,0.1-8.4,0.2-31.8,0.1C-533.5-233.7-533.9-233.7-534.4-234L-534.4-234z M-498-244.1c2.4-0.6,2.7-0.7,2.7-0.9
		c0-0.1-0.1-1.1-0.2-2c-0.3-2.5-0.3-2.5,0.2-2.8c0.2-0.1,0.8-0.5,1.2-0.9l0.8-0.6l2.1,0.9c1.7,0.7,2.2,0.8,2.3,0.7
		c0.4-0.5,3-4.7,2.9-4.8c-0.1,0-0.9-0.7-1.9-1.5c-1.8-1.4-1.8-1.4-1.7-1.9c0-0.3,0.1-0.9,0.2-1.4c0.1-0.5,0.1-1,0.2-1.1
		c0.1-0.1,1-0.5,2.1-0.9c1.1-0.4,2-0.9,2.1-0.9c0.1-0.1-1-5.2-1.2-5.5c0-0.1-1,0-2.1,0.1c-3,0.3-2.8,0.3-3.3-0.3
		c-0.2-0.3-0.6-0.8-0.9-1.2l-0.5-0.6l0.9-2.2c0.5-1.2,0.9-2.2,0.9-2.2c-0.3-0.2-4.9-2.9-4.9-2.9c0,0-0.8,0.9-1.6,1.9
		c-1.1,1.3-1.6,1.9-1.8,1.8c-0.3-0.1-1.8-0.3-2.6-0.4l-0.6,0l-0.9-2.1c-0.5-1.1-1-2.1-1-2.1c-0.1-0.1-5.6,1.3-5.6,1.4
		c0,0,0.1,1,0.3,2.2c0.2,1.2,0.3,2.3,0.3,2.4c0,0.1-0.2,0.4-0.5,0.5c-0.3,0.2-0.8,0.5-1.1,0.8l-0.6,0.5l-2.2-0.9
		c-1.8-0.7-2.2-0.8-2.3-0.7c-0.1,0.1-0.8,1.2-1.6,2.4l-1.4,2.3l1.8,1.4c1,0.8,1.8,1.4,1.9,1.5c0.1,0.1,0,0.6-0.1,1.2
		c-0.1,0.6-0.2,1.3-0.2,1.6v0.5l-2,0.8c-1.1,0.5-2.1,0.9-2.1,0.9c-0.1,0.1,1.1,5.4,1.3,5.6c0,0,1-0.1,2.2-0.2
		c1.2-0.1,2.3-0.2,2.3-0.2c0.1,0,0.3,0.3,0.6,0.7c0.2,0.4,0.7,0.9,0.9,1.2c0.3,0.3,0.5,0.6,0.5,0.7c0,0.1-0.4,0.9-0.8,2
		c-0.4,1-0.8,2-0.8,2c0,0.1,1.1,0.8,2.4,1.6l2.4,1.5l0.5-0.6c0.3-0.3,0.9-1.1,1.5-1.8l1-1.2l0.7,0.1c0.4,0,1.1,0.1,1.6,0.2l0.9,0.1
		l0.9,2.1c0.5,1.2,0.9,2.1,1,2.1C-500.7-243.4-499.5-243.7-498-244.1L-498-244.1z M-504.5-252.9c-3.6-0.9-6.2-4.1-6.3-7.8
		c0-1.5,0.2-2.4,0.9-3.7c0.9-1.9,2.6-3.3,4.7-4.1c1.3-0.4,3.4-0.6,4.6-0.2c2.3,0.6,4.4,2.2,5.4,4.3c0.6,1.2,0.9,2.5,0.9,3.7
		c0,1.1-0.3,2.5-0.9,3.7c-1,2.1-3.1,3.7-5.4,4.2C-501.6-252.6-503.4-252.6-504.5-252.9L-504.5-252.9z M-501.1-258.2
		c2-1.2,2-4.1-0.1-5.1c-2.2-1.1-4.7,0.7-4.3,3.1c0.1,0.8,0.8,1.7,1.5,2C-503.1-257.8-501.8-257.8-501.1-258.2L-501.1-258.2z"/>
</g>
<g>
	<path class="st3" d="M-505-202.8h-83.6c-6.8,0-12.3,5.5-12.3,12.2c0,0.6,0,1.1,0.1,1.6c0.2,1.3,1.4,2.3,2.8,2.1
		c0.3,0,0.6-0.2,0.9-0.3c1.1-0.6,2.3-1,3.6-0.9h17.5c3.2,0,6,2,7,5l0.4,1.3c1.7,5,6.4,8.4,11.7,8.4h56.8c1.3,0,2.6,0.3,3.7,1
		c1.2,0.7,2.7,0.3,3.4-0.9c0.2-0.4,0.3-0.8,0.3-1.2v-16.1C-492.7-197.3-498.2-202.8-505-202.8z"/>
	<path class="st4" d="M-498.4-188.8c-1.7-1-3.7-1.5-5.7-1.5h-52.3c-2.9,0-5.5-1.9-6.4-4.6l-0.4-1.2c-1.6-4.6-5.9-7.7-10.7-7.7h-16.1
		c-1.9,0-3.9,0.5-5.5,1.5c-3.6,2-5.8,5.8-5.8,9.8v54.2c0,6.2,5.1,11.3,11.3,11.3c0,0,0,0,0,0h85.9c6.2,0,11.3-5.1,11.3-11.3l0,0
		V-179C-492.7-183-494.9-186.7-498.4-188.8z"/>
	<g>
		<path class="st5" d="M-487.9-151.8c-1.2-3.6-4.5-6.1-8.3-6.1c-0.9,0-1.8,0.1-2.7,0.4c-3.6,1.2-6,4.5-6.1,8.1l-4.4,1.4
			c-1.7-2.8-4.6-4.9-7.9-5.7l0-4.6c3.4-1.2,5.8-4.5,5.8-8.3c0-4.8-3.9-8.8-8.8-8.8c-0.5,0-0.9,0-1.3,0.1c0,0,0,0,0,0
			c-0.4,0.1-0.9,0.2-1.3,0.3c0,0,0,0,0,0c-0.3,0.1-0.5,0.2-0.8,0.3c0,0,0,0,0,0c-0.1,0.1-0.3,0.1-0.4,0.2c0,0-0.1,0-0.1,0
			c-0.1,0.1-0.2,0.1-0.3,0.2c0,0,0,0,0,0c-0.2,0.1-0.5,0.3-0.7,0.4c0,0,0,0,0,0c-0.1,0.1-0.2,0.2-0.3,0.2c0,0-0.1,0.1-0.1,0.1
			c-0.1,0.1-0.1,0.1-0.2,0.2c0,0-0.1,0.1-0.1,0.1c-0.1,0.1-0.1,0.1-0.2,0.2c0,0-0.1,0.1-0.1,0.1c-0.1,0.1-0.1,0.1-0.2,0.2
			c-0.1,0.1-0.1,0.1-0.1,0.2c0,0.1-0.1,0.1-0.1,0.2c-0.1,0.1-0.2,0.2-0.2,0.3c0,0,0,0,0,0c-0.1,0.1-0.1,0.1-0.2,0.2
			c0,0-0.1,0.1-0.1,0.1c-0.1,0.1-0.1,0.1-0.1,0.2c0,0-0.1,0.1-0.1,0.1c0,0.1-0.1,0.1-0.1,0.2c0,0-0.1,0.1-0.1,0.1
			c-0.2,0.3-0.4,0.7-0.5,1c0,0,0,0.1,0,0.1c0,0.1,0,0.1-0.1,0.2c0,0.1-0.1,0.2-0.1,0.3c-0.1,0.2-0.1,0.4-0.2,0.6
			c-0.1,0.3-0.2,0.7-0.2,1c0,0.3-0.1,0.5-0.1,0.8c0,0.2,0,0.4,0,0.5c0,3.8,2.4,7.1,5.8,8.3l0,4.6c-2.7,0.6-5.1,2.2-6.8,4.2
			c-0.4,0.5-0.8,1-1.1,1.5l-4.4-1.4c-0.1-3.6-2.4-6.9-6.1-8.1c-0.1,0-0.2-0.1-0.3-0.1c-0.2-0.1-0.4-0.1-0.7-0.2
			c-0.6-0.1-1.1-0.2-1.7-0.2c-3.8,0-7.2,2.4-8.3,6.1c-0.4,1.3-0.5,2.6-0.4,3.9c0.1,0.4,0.1,0.8,0.3,1.2c0.2,0.7,0.5,1.3,0.8,1.9
			c0.5,0.9,1.1,1.6,1.9,2.3c0.1,0.1,0.2,0.2,0.3,0.3c0.2,0.2,0.5,0.3,0.7,0.5c0.6,0.4,1.3,0.7,2,0.9c0.4,0.1,0.9,0.3,1.3,0.3
			c0.5,0.1,0.9,0.1,1.4,0.1c0.2,0,0.3,0,0.5,0c0.3,0,0.7-0.1,1-0.1c0.5-0.1,1-0.2,1.5-0.4c0.9-0.3,1.8-0.8,2.6-1.5
			c0.5-0.4,1-0.9,1.4-1.4l4.4,1.4c0,0.2,0,0.3,0,0.5s0,0.3,0,0.5c0,1.2,0.2,2.3,0.5,3.4c0.1,0.4,0.2,0.7,0.4,1.1
			c0.5,1.4,1.3,2.7,2.2,3.8l-2.7,3.8c-0.8-0.2-1.6-0.4-2.5-0.4c-1.1,0-2.1,0.2-3,0.5c-0.6,0.2-1.3,0.6-1.8,0.9
			c-0.1,0.1-0.3,0.2-0.4,0.3c-0.3,0.2-0.5,0.4-0.8,0.7c-0.4,0.4-0.7,0.8-1,1.2c-0.8,1.1-1.3,2.3-1.5,3.6c-0.1,0.3-0.1,0.6-0.1,0.8
			c0,0.3,0,0.6,0,0.8c0,0.3,0,0.6,0.1,0.8c0.1,0.7,0.2,1.4,0.5,2c0.4,1.1,1,2.1,1.8,2.9c0.4,0.4,0.8,0.8,1.3,1.2
			c0.2,0.1,0.4,0.3,0.6,0.4c0.3,0.2,0.6,0.3,0.9,0.5c0.6,0.3,1.3,0.5,1.9,0.6c0.4,0.1,0.9,0.1,1.4,0.2c0.1,0,0.2,0,0.3,0
			c1.1,0,2.1-0.2,3-0.5c0.3-0.1,0.6-0.3,0.9-0.4c0.8-0.4,1.5-0.9,2.1-1.5c0.4-0.4,0.7-0.7,1-1.2c1.7-2.3,2.1-5.2,1.3-7.7
			c-0.3-0.8-0.6-1.7-1.2-2.4l2.7-3.8c1.5,0.6,3.2,1,4.9,1c1.7,0,3.4-0.3,4.9-1l2.8,3.8c-2,3-2.1,7,0.1,10.1c1.6,2.3,4.3,3.6,7.1,3.6
			c0,0,0,0,0,0c1.9,0,3.6-0.6,5.2-1.7c3.9-2.8,4.8-8.3,1.9-12.3c-1.6-2.3-4.3-3.6-7.1-3.6c-0.9,0-1.7,0.1-2.5,0.4l-2.7-3.7
			c1.9-2.2,3.1-5.1,3.1-8.3c0-0.3,0-0.7,0-1l4.4-1.4c1.6,2.1,4.2,3.4,7,3.4c0,0,0,0,0,0c0.9,0,1.8-0.1,2.7-0.4
			C-488.9-142.2-486.4-147.2-487.9-151.8z"/>
		<path class="st5" d="M-495.3-146.3c-0.3,0.1-0.6,0.1-0.9,0.1c-1.3,0-2.4-0.8-2.8-2c-0.5-1.5,0.3-3.2,1.9-3.7
			c0.3-0.1,0.6-0.1,0.9-0.1c1.3,0,2.4,0.8,2.8,2C-492.9-148.5-493.8-146.8-495.3-146.3z M-527.1-141.3c0-3.8,3.1-6.8,6.8-6.8
			c3.8,0,6.8,3.1,6.8,6.8c0,3.8-3.1,6.8-6.8,6.8C-524-134.5-527.1-137.5-527.1-141.3z M-520.2-169.5c1.6,0,2.9,1.3,2.9,2.9
			s-1.3,2.9-2.9,2.9c-1.6,0-2.9-1.3-2.9-2.9C-523.2-168.1-521.8-169.5-520.2-169.5z M-545.1-146.3c-1.5-0.5-2.4-2.2-1.9-3.7
			c0.4-1.2,1.5-2,2.8-2c0.3,0,0.6,0,0.9,0.1c1.5,0.5,2.4,2.2,1.9,3.7c-0.4,1.2-1.5,2-2.8,2C-544.5-146.2-544.9-146.2-545.1-146.3z
			 M-536.8-118.5c-1.3-0.9-1.6-2.8-0.6-4.1c0.6-0.8,1.4-1.2,2.4-1.2c0.6,0,1.2,0.2,1.7,0.6c1.3,0.9,1.6,2.8,0.6,4.1
			c-0.6,0.8-1.4,1.2-2.4,1.2C-535.7-117.9-536.3-118.1-536.8-118.5z M-503-122.6c0.9,1.3,0.7,3.1-0.6,4.1c-0.5,0.4-1.1,0.6-1.7,0.6
			c0,0,0,0,0,0c-0.9,0-1.8-0.4-2.4-1.2c-0.9-1.3-0.7-3.1,0.6-4.1c0.5-0.4,1.1-0.6,1.7-0.6C-504.4-123.8-503.6-123.3-503-122.6z"/>
	</g>
	<g>
		<path class="st6" d="M-520.2-148.1c-3.8,0-6.8,3.1-6.8,6.8c0,3.8,3.1,6.8,6.8,6.8c3.8,0,6.8-3.1,6.8-6.8
			C-513.4-145-516.5-148.1-520.2-148.1z"/>
		<path class="st6" d="M-520.2-163.6c1.6,0,2.9-1.3,2.9-2.9s-1.3-2.9-2.9-2.9c-1.6,0-2.9,1.3-2.9,2.9
			C-523.2-164.9-521.8-163.6-520.2-163.6z"/>
		<path class="st6" d="M-533.4-123.2c-0.5-0.4-1.1-0.6-1.7-0.6c-0.9,0-1.8,0.4-2.4,1.2c-0.9,1.3-0.7,3.1,0.6,4.1
			c0.5,0.4,1.1,0.6,1.7,0.6c0.9,0,1.8-0.4,2.4-1.2C-531.8-120.4-532-122.3-533.4-123.2z"/>
		<path class="st6" d="M-496.2-146.2c0.3,0,0.6,0,0.9-0.1c1.5-0.5,2.4-2.2,1.9-3.7c-0.4-1.2-1.5-2-2.8-2c-0.3,0-0.6,0-0.9,0.1
			c-1.5,0.5-2.4,2.2-1.9,3.7C-498.6-147-497.5-146.2-496.2-146.2z"/>
		<path class="st6" d="M-505.4-117.9c0.6,0,1.2-0.2,1.7-0.6c1.3-0.9,1.6-2.8,0.6-4.1c-0.6-0.8-1.4-1.2-2.4-1.2
			c-0.6,0-1.2,0.2-1.7,0.6c-1.3,0.9-1.6,2.8-0.6,4.1C-507.2-118.4-506.3-117.9-505.4-117.9C-505.4-117.9-505.4-117.9-505.4-117.9z"
			/>
	</g>
	<path class="st7" d="M-527.1-141.3c0-3.8,3.1-6.8,6.8-6.8v-15.5c-1.6,0-2.9-1.3-2.9-2.9c0-1.6,1.3-2.9,2.9-2.9v-5.8
		c-4.8,0-8.8,3.9-8.8,8.8c0,3.8,2.4,7.1,5.8,8.3l0,4.6c-3.3,0.8-6.2,2.9-7.9,5.7l-4.4-1.4c-0.1-3.6-2.4-6.9-6.1-8.1
		c-0.9-0.3-1.8-0.4-2.7-0.4c-3.8,0-7.2,2.4-8.3,6.1c-1.5,4.6,1,9.6,5.6,11.1c0.9,0.3,1.8,0.4,2.7,0.4c2.8,0,5.3-1.3,7-3.4l4.4,1.4
		c0,0.3,0,0.7,0,1c0,3.1,1.2,6,3.1,8.2l-2.7,3.8c-0.8-0.2-1.6-0.4-2.5-0.4c-2.8,0-5.5,1.4-7.1,3.6c-2.8,3.9-2,9.4,1.9,12.3
		c1.5,1.1,3.3,1.7,5.2,1.7c2.8,0,5.5-1.4,7.1-3.6c2.2-3.1,2.2-7.2,0.1-10.1l2.7-3.8c1.5,0.6,3.2,1,4.9,1v-5.8
		C-524-134.5-527.1-137.5-527.1-141.3z M-541.5-148.2c-0.4,1.2-1.5,2-2.8,2c-0.3,0-0.6,0-0.9-0.1c-1.5-0.5-2.4-2.2-1.9-3.7
		c0.4-1.2,1.5-2,2.8-2c0.3,0,0.6,0,0.9,0.1C-541.8-151.4-541-149.7-541.5-148.2z M-532.7-119.1c-0.6,0.8-1.4,1.2-2.4,1.2
		c-0.6,0-1.2-0.2-1.7-0.6c-1.3-0.9-1.6-2.8-0.6-4.1c0.6-0.8,1.4-1.2,2.4-1.2c0.6,0,1.2,0.2,1.7,0.6
		C-532-122.3-531.8-120.4-532.7-119.1z"/>
	<g>
		<path class="st8" d="M-527.1-141.3c0,3.8,3.1,6.8,6.8,6.8v-13.6C-524-148.1-527.1-145-527.1-141.3z"/>
		<path class="st8" d="M-523.2-166.5c0,1.6,1.3,2.9,2.9,2.9v-5.8C-521.8-169.5-523.2-168.1-523.2-166.5z"/>
		<path class="st8" d="M-543.3-151.9c-0.3-0.1-0.6-0.1-0.9-0.1c-1.3,0-2.4,0.8-2.8,2c-0.5,1.5,0.3,3.2,1.9,3.7
			c0.3,0.1,0.6,0.1,0.9,0.1c1.3,0,2.4-0.8,2.8-2C-541-149.7-541.8-151.4-543.3-151.9z"/>
		<path class="st8" d="M-533.4-123.2c-0.5-0.4-1.1-0.6-1.7-0.6c-0.9,0-1.8,0.4-2.4,1.2c-0.9,1.3-0.7,3.1,0.6,4.1
			c0.5,0.4,1.1,0.6,1.7,0.6c0.9,0,1.8-0.4,2.4-1.2C-531.8-120.4-532-122.3-533.4-123.2z"/>
	</g>
</g>
<g>
	<path class="st3" d="M-643-203.8h-67.9c-6.2,0-11.3,11.2-11.3,25v10c0,2.8,1,5,2.3,5h19.4c1,0,1.8,1.3,2.2,3.4l2.5,16.5
		c1,6.1,3.5,10.2,6.4,10.2h55.6c1.2,0,2.3-2.2,2.3-5v-40C-631.7-192.7-636.8-203.8-643-203.8z"/>
	<path class="st4" d="M-629.5-177.4h-60c-1-0.1-1.9-0.8-2.2-1.9l-2.5-9c-1-3.3-3.5-5.6-6.4-5.6h-23.9c-3.8-0.1-6.8,3.6-6.8,8.2
		c0,7.5,0.9,15,2.7,22.3l9,36.5c1.4,5.8,5.8,9.8,10.8,9.8h63.9c4.7,0,9-3.5,10.6-8.9l9.8-31.6c1.1-3.8,1.7-7.7,1.7-11.6
		C-622.7-173.7-625.8-177.4-629.5-177.4z"/>
	<g>
		<path class="st5" d="M-611.8-142.6c-1.2-3.6-4.5-6.1-8.3-6.1c-0.9,0-1.8,0.1-2.7,0.4c-3.6,1.2-6,4.5-6.1,8.1l-4.4,1.4
			c-1.7-2.8-4.6-4.9-7.9-5.7l0-4.6c3.4-1.2,5.8-4.5,5.8-8.3c0-4.8-3.9-8.8-8.8-8.8c-0.5,0-0.9,0-1.3,0.1c0,0,0,0,0,0
			c-0.4,0.1-0.9,0.2-1.3,0.3c0,0,0,0,0,0c-0.3,0.1-0.5,0.2-0.8,0.3c0,0,0,0,0,0c-0.1,0.1-0.3,0.1-0.4,0.2c0,0-0.1,0-0.1,0
			c-0.1,0.1-0.2,0.1-0.3,0.2c0,0,0,0,0,0c-0.2,0.1-0.5,0.3-0.7,0.4c0,0,0,0,0,0c-0.1,0.1-0.2,0.2-0.3,0.2c0,0-0.1,0.1-0.1,0.1
			c-0.1,0.1-0.1,0.1-0.2,0.2c0,0-0.1,0.1-0.1,0.1c-0.1,0.1-0.1,0.1-0.2,0.2c0,0-0.1,0.1-0.1,0.1c-0.1,0.1-0.1,0.1-0.2,0.2
			c-0.1,0.1-0.1,0.1-0.1,0.2c0,0.1-0.1,0.1-0.1,0.2c-0.1,0.1-0.2,0.2-0.2,0.3c0,0,0,0,0,0c-0.1,0.1-0.1,0.1-0.2,0.2
			c0,0-0.1,0.1-0.1,0.1c-0.1,0.1-0.1,0.1-0.1,0.2c0,0-0.1,0.1-0.1,0.1c0,0.1-0.1,0.1-0.1,0.2c0,0-0.1,0.1-0.1,0.1
			c-0.2,0.3-0.4,0.7-0.5,1c0,0,0,0.1,0,0.1c0,0.1,0,0.1-0.1,0.2c0,0.1-0.1,0.2-0.1,0.3c-0.1,0.2-0.1,0.4-0.2,0.6
			c-0.1,0.3-0.2,0.7-0.2,1c0,0.3-0.1,0.5-0.1,0.8c0,0.2,0,0.4,0,0.5c0,3.8,2.4,7.1,5.8,8.3l0,4.6c-2.7,0.6-5.1,2.2-6.8,4.2
			c-0.4,0.5-0.8,1-1.1,1.5l-4.4-1.4c-0.1-3.6-2.4-6.9-6.1-8.1c-0.1,0-0.2-0.1-0.3-0.1c-0.2-0.1-0.4-0.1-0.7-0.2
			c-0.6-0.1-1.1-0.2-1.7-0.2c-3.8,0-7.2,2.4-8.3,6.1c-0.4,1.3-0.5,2.6-0.4,3.9c0.1,0.4,0.1,0.8,0.3,1.2c0.2,0.7,0.5,1.3,0.8,1.9
			c0.5,0.9,1.1,1.6,1.9,2.3c0.1,0.1,0.2,0.2,0.3,0.3c0.2,0.2,0.5,0.3,0.7,0.5c0.6,0.4,1.3,0.7,2,0.9c0.4,0.1,0.9,0.3,1.3,0.3
			c0.5,0.1,0.9,0.1,1.4,0.1c0.2,0,0.3,0,0.5,0c0.3,0,0.7-0.1,1-0.1c0.5-0.1,1-0.2,1.5-0.4c0.9-0.3,1.8-0.8,2.6-1.5
			c0.5-0.4,1-0.9,1.4-1.4l4.4,1.4c0,0.2,0,0.3,0,0.5c0,0.2,0,0.3,0,0.5c0,1.2,0.2,2.3,0.5,3.4c0.1,0.4,0.2,0.7,0.4,1.1
			c0.5,1.4,1.3,2.7,2.2,3.8l-2.7,3.8c-0.8-0.2-1.6-0.4-2.5-0.4c-1.1,0-2.1,0.2-3,0.5c-0.6,0.2-1.3,0.6-1.8,0.9
			c-0.1,0.1-0.3,0.2-0.4,0.3c-0.3,0.2-0.5,0.4-0.8,0.7c-0.4,0.4-0.7,0.8-1,1.2c-0.8,1.1-1.3,2.3-1.5,3.6c-0.1,0.3-0.1,0.6-0.1,0.8
			c0,0.3,0,0.6,0,0.8c0,0.3,0,0.6,0.1,0.8c0.1,0.7,0.2,1.4,0.5,2c0.4,1.1,1,2.1,1.8,2.9c0.4,0.4,0.8,0.8,1.3,1.2
			c0.2,0.1,0.4,0.3,0.6,0.4c0.3,0.2,0.6,0.3,0.9,0.5c0.6,0.3,1.3,0.5,1.9,0.6c0.4,0.1,0.9,0.1,1.4,0.2c0.1,0,0.2,0,0.3,0
			c1.1,0,2.1-0.2,3-0.5c0.3-0.1,0.6-0.3,0.9-0.4c0.8-0.4,1.5-0.9,2.1-1.5c0.4-0.4,0.7-0.7,1-1.2c1.7-2.3,2.1-5.2,1.3-7.7
			c-0.3-0.8-0.6-1.7-1.2-2.4l2.7-3.8c1.5,0.6,3.2,1,4.9,1c1.7,0,3.4-0.3,4.9-1l2.8,3.8c-2,3-2.1,7,0.1,10.1c1.6,2.3,4.3,3.6,7.1,3.6
			c0,0,0,0,0,0c1.9,0,3.6-0.6,5.2-1.7c3.9-2.8,4.8-8.3,1.9-12.3c-1.6-2.3-4.3-3.6-7.1-3.6c-0.9,0-1.7,0.1-2.5,0.4l-2.7-3.7
			c1.9-2.2,3.1-5.1,3.1-8.3c0-0.3,0-0.7,0-1l4.4-1.4c1.6,2.1,4.2,3.4,7,3.4c0,0,0,0,0,0c0.9,0,1.8-0.1,2.7-0.4
			C-612.9-133-610.3-138-611.8-142.6z"/>
		<path class="st5" d="M-619.3-137.1c-0.3,0.1-0.6,0.1-0.9,0.1c-1.3,0-2.4-0.8-2.8-2c-0.5-1.5,0.3-3.2,1.9-3.7
			c0.3-0.1,0.6-0.1,0.9-0.1c1.3,0,2.4,0.8,2.8,2C-616.9-139.2-617.7-137.6-619.3-137.1z M-651-132c0-3.8,3.1-6.8,6.8-6.8
			c3.8,0,6.8,3.1,6.8,6.8c0,3.8-3.1,6.8-6.8,6.8C-647.9-125.2-651-128.3-651-132z M-644.2-160.2c1.6,0,2.9,1.3,2.9,2.9
			s-1.3,2.9-2.9,2.9c-1.6,0-2.9-1.3-2.9-2.9C-647.1-158.9-645.8-160.2-644.2-160.2z M-669.1-137.1c-1.5-0.5-2.4-2.2-1.9-3.7
			c0.4-1.2,1.5-2,2.8-2c0.3,0,0.6,0,0.9,0.1c1.5,0.5,2.4,2.2,1.9,3.7c-0.4,1.2-1.5,2-2.8,2C-668.5-136.9-668.8-137-669.1-137.1z
			 M-660.7-109.3c-1.3-0.9-1.6-2.8-0.6-4.1c0.6-0.8,1.4-1.2,2.4-1.2c0.6,0,1.2,0.2,1.7,0.6c1.3,0.9,1.6,2.8,0.6,4.1
			c-0.6,0.8-1.4,1.2-2.4,1.2C-659.6-108.7-660.2-108.9-660.7-109.3z M-627-113.3c0.9,1.3,0.7,3.1-0.6,4.1c-0.5,0.4-1.1,0.6-1.7,0.6
			c0,0,0,0,0,0c-0.9,0-1.8-0.4-2.4-1.2c-0.9-1.3-0.7-3.1,0.6-4.1c0.5-0.4,1.1-0.6,1.7-0.6C-628.4-114.5-627.5-114.1-627-113.3z"/>
	</g>
	<g>
		<path class="st6" d="M-644.2-138.9c-3.8,0-6.8,3.1-6.8,6.8c0,3.8,3.1,6.8,6.8,6.8c3.8,0,6.8-3.1,6.8-6.8
			C-637.4-135.8-640.4-138.9-644.2-138.9z"/>
		<path class="st6" d="M-644.2-154.4c1.6,0,2.9-1.3,2.9-2.9s-1.3-2.9-2.9-2.9c-1.6,0-2.9,1.3-2.9,2.9
			C-647.1-155.7-645.8-154.4-644.2-154.4z"/>
		<path class="st6" d="M-657.3-114c-0.5-0.4-1.1-0.6-1.7-0.6c-0.9,0-1.8,0.4-2.4,1.2c-0.9,1.3-0.7,3.1,0.6,4.1
			c0.5,0.4,1.1,0.6,1.7,0.6c0.9,0,1.8-0.4,2.4-1.2C-655.7-111.2-656-113-657.3-114z"/>
		<path class="st6" d="M-620.2-136.9c0.3,0,0.6,0,0.9-0.1c1.5-0.5,2.4-2.2,1.9-3.7c-0.4-1.2-1.5-2-2.8-2c-0.3,0-0.6,0-0.9,0.1
			c-1.5,0.5-2.4,2.2-1.9,3.7C-622.6-137.7-621.4-136.9-620.2-136.9z"/>
		<path class="st6" d="M-629.3-108.7c0.6,0,1.2-0.2,1.7-0.6c1.3-0.9,1.6-2.8,0.6-4.1c-0.6-0.8-1.4-1.2-2.4-1.2
			c-0.6,0-1.2,0.2-1.7,0.6c-1.3,0.9-1.6,2.8-0.6,4.1C-631.2-109.1-630.3-108.7-629.3-108.7C-629.3-108.7-629.3-108.7-629.3-108.7z"
			/>
	</g>
	<path class="st7" d="M-651-132c0-3.8,3.1-6.8,6.8-6.8v-15.5c-1.6,0-2.9-1.3-2.9-2.9c0-1.6,1.3-2.9,2.9-2.9v-5.8
		c-4.8,0-8.8,3.9-8.8,8.8c0,3.8,2.4,7.1,5.8,8.3l0,4.6c-3.3,0.8-6.2,2.9-7.9,5.7l-4.4-1.4c-0.1-3.6-2.4-6.9-6.1-8.1
		c-0.9-0.3-1.8-0.4-2.7-0.4c-3.8,0-7.2,2.4-8.3,6.1c-1.5,4.6,1,9.6,5.6,11.1c0.9,0.3,1.8,0.4,2.7,0.4c2.8,0,5.3-1.3,7-3.4l4.4,1.4
		c0,0.3,0,0.7,0,1c0,3.1,1.2,6,3.1,8.2l-2.7,3.8c-0.8-0.2-1.6-0.4-2.5-0.4c-2.8,0-5.5,1.4-7.1,3.6c-2.8,3.9-2,9.4,1.9,12.3
		c1.5,1.1,3.3,1.7,5.2,1.7c2.8,0,5.5-1.4,7.1-3.6c2.2-3.1,2.2-7.2,0.1-10.1l2.7-3.8c1.5,0.6,3.2,1,4.9,1v-5.8
		C-647.9-125.2-651-128.3-651-132z M-665.4-138.9c-0.4,1.2-1.5,2-2.8,2c-0.3,0-0.6,0-0.9-0.1c-1.5-0.5-2.4-2.2-1.9-3.7
		c0.4-1.2,1.5-2,2.8-2c0.3,0,0.6,0,0.9,0.1C-665.8-142.1-664.9-140.5-665.4-138.9z M-656.7-109.9c-0.6,0.8-1.4,1.2-2.4,1.2
		c-0.6,0-1.2-0.2-1.7-0.6c-1.3-0.9-1.6-2.8-0.6-4.1c0.6-0.8,1.4-1.2,2.4-1.2c0.6,0,1.2,0.2,1.7,0.6
		C-656-113-655.7-111.2-656.7-109.9z"/>
	<g>
		<path class="st8" d="M-651-132c0,3.8,3.1,6.8,6.8,6.8v-13.6C-647.9-138.9-651-135.8-651-132z"/>
		<path class="st8" d="M-647.1-157.3c0,1.6,1.3,2.9,2.9,2.9v-5.8C-645.8-160.2-647.1-158.9-647.1-157.3z"/>
		<path class="st8" d="M-667.3-142.6c-0.3-0.1-0.6-0.1-0.9-0.1c-1.3,0-2.4,0.8-2.8,2c-0.5,1.5,0.3,3.2,1.9,3.7
			c0.3,0.1,0.6,0.1,0.9,0.1c1.3,0,2.4-0.8,2.8-2C-664.9-140.5-665.8-142.1-667.3-142.6z"/>
		<path class="st8" d="M-657.3-114c-0.5-0.4-1.1-0.6-1.7-0.6c-0.9,0-1.8,0.4-2.4,1.2c-0.9,1.3-0.7,3.1,0.6,4.1
			c0.5,0.4,1.1,0.6,1.7,0.6c0.9,0,1.8-0.4,2.4-1.2C-655.7-111.2-656-113-657.3-114z"/>
	</g>
</g>
<g>
	<path class="st9" d="M-505.9-76.8h-83.6c-6.8,0-12.3,5.5-12.3,12.2c0,0.6,0,1.1,0.1,1.6c0.2,1.3,1.4,2.3,2.8,2.1
		c0.3,0,0.6-0.2,0.9-0.3c1.1-0.6,2.3-1,3.6-0.9h17.5c3.2,0,6,2,7,5l0.4,1.3c1.7,5,6.4,8.4,11.7,8.4h56.8c1.3,0,2.6,0.3,3.7,1
		c1.2,0.7,2.7,0.3,3.4-0.9c0.2-0.4,0.3-0.8,0.3-1.2v-16.1C-493.7-71.3-499.2-76.8-505.9-76.8z"/>
	<path class="st10" d="M-499.3-62.8c-1.7-1-3.7-1.5-5.7-1.5h-52.3c-2.9,0-5.5-1.9-6.4-4.6l-0.4-1.2c-1.6-4.6-5.9-7.7-10.7-7.7h-16.1
		c-1.9,0-3.9,0.5-5.5,1.5c-3.6,2-5.8,5.8-5.8,9.8v54.2c0,6.2,5.1,11.3,11.3,11.3c0,0,0,0,0,0h85.9c6.2,0,11.3-5.1,11.3-11.3l0,0V-53
		C-493.6-57-495.8-60.8-499.3-62.8z"/>
	<g id="SVGRepo_iconCarrier">
		<path class="st11" d="M-499-33.2c5,3.5,8.4,9,9.1,15.4"/>
		<path class="st11" d="M-532.7-17.7c0.6-6.3,4-11.9,9-15.4"/>
		<path class="st11" d="M-520.9,3.7c2.9,1.5,6.2,2.3,9.7,2.3c3.3,0,6.5-0.7,9.3-2.1"/>
		<path class="st12" d="M-511.2-29.3c3.8,0,6.9-3.1,6.9-6.9s-3.1-6.9-6.9-6.9c-3.8,0-6.9,3.1-6.9,6.9S-515.1-29.3-511.2-29.3z"/>
		<path class="st12" d="M-529.3,1.2c3.8,0,6.9-3.1,6.9-6.9c0-3.8-3.1-6.9-6.9-6.9c-3.8,0-6.9,3.1-6.9,6.9
			C-536.3-1.9-533.1,1.2-529.3,1.2z"/>
		<path class="st12" d="M-493.5,1.2c3.8,0,6.9-3.1,6.9-6.9c0-3.8-3.1-6.9-6.9-6.9c-3.8,0-6.9,3.1-6.9,6.9
			C-500.4-1.9-497.3,1.2-493.5,1.2z"/>
	</g>
</g>
<g>
	<path class="st13" d="M-644-77.9h-67.9c-6.2,0-11.3,11.2-11.3,25v10c0,2.8,1,5,2.3,5h19.4c1,0,1.8,1.3,2.2,3.4l2.5,16.5
		c1,6.1,3.5,10.2,6.4,10.2h55.6c1.2,0,2.3-2.2,2.3-5v-40C-632.6-66.7-637.7-77.9-644-77.9z"/>
	<path class="st14" d="M-630.4-51.4h-60c-1-0.1-1.9-0.8-2.2-1.8l-2.5-9c-1-3.3-3.5-5.6-6.4-5.6h-23.9c-3.8-0.1-6.8,3.6-6.8,8.2
		c0,7.5,0.9,15,2.7,22.3l9,36.5C-719,5-714.6,9-709.6,9h63.9c4.7,0,9-3.5,10.6-8.9l9.8-31.6c1.1-3.8,1.7-7.7,1.7-11.6
		C-623.6-47.7-626.7-51.4-630.4-51.4z"/>
	<g id="SVGRepo_iconCarrier_00000019659101688547366300000017037692687425205924_">
		<path class="st11" d="M-635.9-22.4c5,3.5,8.4,9,9.1,15.4"/>
		<path class="st11" d="M-669.5-6.9c0.6-6.3,4-11.9,9-15.4"/>
		<path class="st11" d="M-657.8,14.5c2.9,1.5,6.2,2.3,9.7,2.3c3.3,0,6.5-0.7,9.3-2.1"/>
		<path class="st12" d="M-648.1-18.6c3.8,0,6.9-3.1,6.9-6.9s-3.1-6.9-6.9-6.9c-3.8,0-6.9,3.1-6.9,6.9S-652-18.6-648.1-18.6z"/>
		<path class="st12" d="M-666.2,11.9c3.8,0,6.9-3.1,6.9-6.9c0-3.8-3.1-6.9-6.9-6.9c-3.8,0-6.9,3.1-6.9,6.9
			C-673.1,8.8-670,11.9-666.2,11.9z"/>
		<path class="st12" d="M-630.4,11.9c3.8,0,6.9-3.1,6.9-6.9c0-3.8-3.1-6.9-6.9-6.9c-3.8,0-6.9,3.1-6.9,6.9
			C-637.3,8.8-634.2,11.9-630.4,11.9z"/>
	</g>
</g>
<g>
	<path class="st15" d="M-520.2,42.8h-83.6c-6.8,0-12.3,5.5-12.3,12.2c0,0.6,0,1.1,0.1,1.6c0.2,1.3,1.4,2.3,2.8,2.1
		c0.3,0,0.6-0.2,0.9-0.3c1.1-0.6,2.3-1,3.6-0.9h17.5c3.2,0,6,2,7,5l0.4,1.3c1.7,5,6.4,8.4,11.7,8.4h56.8c1.3,0,2.6,0.3,3.7,1
		c1.2,0.7,2.7,0.3,3.4-0.9c0.2-0.4,0.3-0.8,0.3-1.2V55.1C-507.9,48.3-513.4,42.8-520.2,42.8z"/>
	<path class="st16" d="M-513.5,56.9c-1.7-1-3.7-1.5-5.7-1.5h-52.3c-2.9,0-5.5-1.9-6.4-4.6l-0.4-1.2c-1.6-4.6-5.9-7.7-10.7-7.7h-16.1
		c-1.9,0-3.9,0.5-5.5,1.5c-3.6,2-5.8,5.8-5.8,9.8v54.2c0,6.2,5.1,11.3,11.3,11.3c0,0,0,0,0,0h85.9c6.2,0,11.3-5.1,11.3-11.3l0,0
		V66.6C-507.9,62.6-510,58.9-513.5,56.9z"/>
	<g>
		<path class="st17" d="M-501,131.9l-7-21.5l18.3-13.3h-22.7l-7-21.5l0,0h22.7l7,21.5l0,0l0,0C-485.6,109.6-489.8,123.8-501,131.9
			L-501,131.9z M-537.6,131.9L-537.6,131.9l18.3,13.3l18.3-13.3l-18.3-13.3L-537.6,131.9L-537.6,131.9z M-549,97.1L-549,97.1
			c-4.3,13.2,0.7,27.1,11.3,34.9l0,0l7-21.5L-549,97.1l22.7,0l7-21.5l0,0H-542L-549,97.1L-549,97.1z"/>
	</g>
</g>
<g>
	<path class="st15" d="M-658.2,41.8h-67.9c-6.2,0-11.3,11.2-11.3,25v10c0,2.8,1,5,2.3,5h19.4c1,0,1.8,1.3,2.2,3.4l2.5,16.5
		c0.9,6.1,3.5,10.2,6.4,10.2h55.6c1.2,0,2.3-2.2,2.3-5v-40C-646.9,53-651.9,41.8-658.2,41.8z"/>
	<path class="st16" d="M-644.7,68.2h-60c-1-0.1-1.9-0.8-2.2-1.8l-2.5-9c-1-3.3-3.5-5.5-6.4-5.6h-23.9c-3.8,0-6.8,3.6-6.8,8.2
		c0,7.5,0.9,15,2.7,22.3l9,36.5c1.4,5.8,5.8,9.8,10.8,9.8h63.9c4.7,0,9-3.5,10.6-8.9l9.8-31.6c1.1-3.8,1.7-7.7,1.7-11.6
		C-637.9,71.9-640.9,68.2-644.7,68.2z"/>
	<g>
		<path class="st17" d="M-642.6,138.6l-7-21.5l18.3-13.3h-22.7l-7-21.5l0,0h22.7l7,21.5l0,0l0,0
			C-627.2,116.2-631.4,130.5-642.6,138.6L-642.6,138.6z M-679.3,138.6L-679.3,138.6l18.3,13.3l18.3-13.3l-18.3-13.3L-679.3,138.6
			L-679.3,138.6z M-690.6,103.7L-690.6,103.7c-4.3,13.2,0.7,27.1,11.3,34.9l0,0l7-21.5L-690.6,103.7l22.7,0l7-21.5l0,0h-22.7
			L-690.6,103.7L-690.6,103.7z"/>
	</g>
</g>
<g>
	<path class="st18" d="M-647.2,197.3h-83.6c-6.8,0-12.3,5.5-12.3,12.2c0,0.6,0,1.1,0.1,1.6c0.2,1.3,1.4,2.3,2.8,2.1
		c0.3,0,0.6-0.2,0.9-0.3c1.1-0.6,2.3-1,3.6-0.9h17.5c3.2,0,6,2,7,5l0.4,1.3c1.7,5,6.4,8.4,11.7,8.4h56.8c1.3,0,2.6,0.3,3.7,1
		c1.2,0.7,2.7,0.3,3.4-0.9c0.2-0.4,0.3-0.8,0.3-1.2v-16.1C-635,202.8-640.5,197.3-647.2,197.3z"/>
	<path class="st19" d="M-640.6,211.3c-1.7-1-3.7-1.5-5.7-1.5h-52.3c-2.9,0-5.5-1.9-6.4-4.6l-0.4-1.2c-1.6-4.6-5.9-7.7-10.7-7.7
		h-16.1c-1.9,0-3.9,0.5-5.5,1.5c-3.6,2-5.8,5.8-5.8,9.8v54.2c0,6.2,5.1,11.3,11.3,11.3c0,0,0,0,0,0h85.9c6.2,0,11.3-5.1,11.3-11.3
		l0,0v-40.7C-634.9,217.1-637.1,213.4-640.6,211.3z"/>
	<path class="st20" d="M-624,211.5l-26,28l26,15.2l-49.8,27.7l26-27.7l-26-15.2L-624,211.5z"/>
	<path class="st21" d="M-673.9,284.2c-1,0-1.8-0.8-1.8-1.8c0-0.5,0.2-0.9,0.5-1.2l24.5-26l-24.1-14.1c-0.8-0.5-1.1-1.6-0.6-2.4
		c0.2-0.3,0.4-0.5,0.7-0.6l49.8-28c0.9-0.5,1.9-0.2,2.4,0.7c0.4,0.7,0.3,1.5-0.2,2.1l-24.5,26.4l24.1,14.1c0.8,0.5,1.1,1.6,0.6,2.4
		c-0.2,0.3-0.4,0.5-0.7,0.7l-49.8,27.7C-673.3,284.1-673.6,284.2-673.9,284.2L-673.9,284.2z M-670.3,239.6l23.3,13.6
		c0.8,0.5,1.1,1.6,0.6,2.4c-0.1,0.1-0.1,0.2-0.2,0.3l-18.2,19.4l37.2-20.7l-23.3-13.6c-0.8-0.5-1.1-1.6-0.6-2.4
		c0.1-0.1,0.1-0.2,0.2-0.3l18.3-19.7L-670.3,239.6L-670.3,239.6z"/>
</g>
<g>
	<g id="Camada_1-2_00000183222336309624074870000004849414708914937264_">
		<path class="st18" d="M-482.2,192.2h-67.9c-6.2,0-11.3,11.2-11.3,25v10c0,2.8,1,5,2.3,5h19.4c1,0,1.8,1.4,2.2,3.4l2.5,16.5
			c1,6,3.5,10.1,6.4,10.1h55.6c1.2,0,2.3-2.2,2.3-5v-40C-470.9,203.4-476,192.2-482.2,192.2z"/>
		<path class="st19" d="M-468.7,218.7h-60c-1-0.1-1.9-0.8-2.2-1.8l-2.5-9c-1-3.3-3.5-5.6-6.4-5.6h-23.9c-3.8-0.1-6.8,3.6-6.8,8.2
			c0,7.5,0.9,15,2.7,22.3l9,36.5c1.4,5.8,5.9,9.8,10.9,9.8h63.9c4.7,0,9-3.5,10.6-8.9l9.8-31.6c1.1-3.8,1.7-7.7,1.7-11.6
			C-461.9,222.3-465,218.7-468.7,218.7z"/>
	</g>
	<path class="st20" d="M-460,218l-26,28l26,15.2l-49.8,27.7l26-27.7l-26-15.2L-460,218z"/>
	<path class="st21" d="M-509.9,290.6c-1,0-1.8-0.8-1.8-1.8c0-0.5,0.2-0.9,0.5-1.2l24.5-26l-24.1-14.1c-0.8-0.5-1.1-1.6-0.6-2.4
		c0.2-0.3,0.4-0.5,0.7-0.6l49.8-28c0.9-0.5,1.9-0.2,2.4,0.7c0.4,0.7,0.3,1.5-0.2,2.1l-24.5,26.4l24.1,14.1c0.8,0.5,1.1,1.6,0.6,2.4
		c-0.2,0.3-0.4,0.5-0.7,0.7l-49.8,27.7C-509.3,290.5-509.6,290.6-509.9,290.6L-509.9,290.6z M-506.3,246l23.3,13.6
		c0.8,0.5,1.1,1.6,0.6,2.4c-0.1,0.1-0.1,0.2-0.2,0.3l-18.2,19.4l37.2-20.7l-23.3-13.6c-0.8-0.5-1.1-1.6-0.6-2.4
		c0.1-0.1,0.1-0.2,0.2-0.3L-469,225L-506.3,246L-506.3,246z"/>
</g>
<g>
	<path class="st22" d="M-635.3,300.2h-83.6c-6.8,0-12.3,5.5-12.3,12.2c0,0.6,0,1.1,0.1,1.6c0.2,1.3,1.4,2.3,2.8,2.1
		c0.3,0,0.6-0.2,0.9-0.3c1.1-0.6,2.3-1,3.6-0.9h17.5c3.2,0,6,2,7,5l0.4,1.3c1.7,5,6.4,8.4,11.7,8.4h56.8c1.3,0,2.6,0.3,3.7,1
		c1.2,0.7,2.7,0.3,3.4-0.9c0.2-0.4,0.3-0.8,0.3-1.2v-16.1C-623,305.7-628.5,300.2-635.3,300.2z"/>
	<path class="st23" d="M-628.6,314.2c-1.7-1-3.7-1.5-5.7-1.5h-52.3c-2.9,0-5.5-1.9-6.4-4.6l-0.4-1.2c-1.6-4.6-5.9-7.7-10.7-7.7
		h-16.1c-1.9,0-3.9,0.5-5.5,1.5c-3.6,2-5.8,5.8-5.8,9.8v54.2c0,6.2,5.1,11.3,11.3,11.3c0,0,0,0,0,0h85.9c6.2,0,11.3-5.1,11.3-11.3
		l0,0V324C-623,319.9-625.1,316.2-628.6,314.2z"/>
	<g id="SVGRepo_iconCarrier_00000163766236047530748900000014501053967051788192_">
		<g class="st24">
			<path class="st25" d="M-627.8,386.7c-0.1,0-0.1,0-0.2,0s-0.1,0-0.2,0c0.1-0.1,0.1-0.1,0.2-0.2
				C-627.9,386.6-627.8,386.7-627.8,386.7z"/>
			<path class="st26" d="M-609.9,379.9c0-0.2,0-0.4,0-0.6c0-5.8-4.7-10.5-10.5-10.5h-15c-5.8,0-10.5,4.7-10.5,10.5
				c0,0.2,0,0.4,0,0.6c-5.5-4.9-9-12.1-9-20.1c0-14.9,12.1-27,27-27c14.9,0,27,12.1,27,27C-600.9,367.7-604.4,374.9-609.9,379.9z
				 M-627.9,359.7c5,0,9-4,9-9c0-5-4-9-9-9s-9,4-9,9C-636.9,355.7-632.9,359.7-627.9,359.7z"/>
		</g>
		<path class="st27" d="M-609.9,379.8c0-4.9-3.5-11.1-9-11.1h-18c-5.5,0-9,6.3-9,11.1 M-654.9,359.7c0-14.9,12.1-27,27-27
			c14.9,0,27,12.1,27,27c0,14.9-12.1,27-27,27C-642.8,386.7-654.9,374.6-654.9,359.7z M-618.9,350.7c0,5-4,9-9,9s-9-4-9-9
			c0-5,4-9,9-9S-618.9,345.7-618.9,350.7z"/>
	</g>
</g>
<g>
	<path class="st22" d="M-487.8,307.8h-67.9c-6.2,0-11.3,11.2-11.3,25v10c0,2.8,1,5,2.3,5h19.4c1,0,1.8,1.4,2.2,3.4l2.5,16.5
		c1,6,3.5,10.1,6.4,10.1h55.6c1.2,0,2.3-2.2,2.3-5v-40C-476.5,319-481.6,307.8-487.8,307.8z"/>
	<path class="st23" d="M-474.3,334.3h-60c-1-0.1-1.9-0.8-2.2-1.9l-2.5-9c-1-3.3-3.5-5.5-6.4-5.6h-23.9c-3.8,0-6.8,3.6-6.8,8.2
		c0,7.5,0.9,15,2.7,22.3l9,36.5c1.4,5.8,5.9,9.8,10.9,9.8h63.9c4.7,0,9-3.5,10.6-8.9l9.8-31.6c1.1-3.8,1.7-7.7,1.7-11.6
		C-467.5,337.9-470.6,334.3-474.3,334.3z"/>
	<g id="SVGRepo_iconCarrier_00000043427305253268701900000008088575470897895298_">
		<g class="st24">
			<path class="st25" d="M-485.5,404.8c-0.1,0-0.1,0-0.2,0c-0.1,0-0.1,0-0.2,0c0.1-0.1,0.1-0.1,0.2-0.2
				C-485.6,404.7-485.5,404.7-485.5,404.8z"/>
			<path class="st26" d="M-467.6,397.9c0-0.2,0-0.4,0-0.6c0-5.8-4.7-10.5-10.5-10.5h-15c-5.8,0-10.5,4.7-10.5,10.5
				c0,0.2,0,0.4,0,0.6c-5.5-4.9-9-12.1-9-20.1c0-14.9,12.1-27,27-27c14.9,0,27,12.1,27,27C-458.6,385.8-462.1,393-467.6,397.9z
				 M-485.6,377.8c5,0,9-4,9-9c0-5-4-9-9-9c-5,0-9,4-9,9C-494.6,373.8-490.6,377.8-485.6,377.8z"/>
		</g>
		<path class="st27" d="M-467.6,397.9c0-4.9-3.5-11.1-9-11.1h-18c-5.5,0-9,6.3-9,11.1 M-512.6,377.8c0-14.9,12.1-27,27-27
			c14.9,0,27,12.1,27,27c0,14.9-12.1,27-27,27C-500.5,404.8-512.6,392.7-512.6,377.8z M-476.6,368.8c0,5-4,9-9,9c-5,0-9-4-9-9
			c0-5,4-9,9-9C-480.6,359.8-476.6,363.8-476.6,368.8z"/>
	</g>
</g>
<g>
	<path class="st28" d="M-645.4,423.1H-729c-6.8,0-12.3,5.5-12.3,12.2c0,0.6,0,1.1,0.1,1.6c0.2,1.3,1.4,2.3,2.8,2.1
		c0.3,0,0.6-0.2,0.9-0.3c1.1-0.6,2.3-1,3.6-0.9h17.5c3.2,0,6,2,7,5l0.4,1.3c1.7,5,6.4,8.4,11.7,8.4h56.8c1.3,0,2.6,0.3,3.7,1
		c1.2,0.7,2.7,0.3,3.4-0.9c0.2-0.4,0.3-0.8,0.3-1.2v-16.1C-633.2,428.6-638.7,423.1-645.4,423.1z"/>
	<path class="st29" d="M-638.8,437.1c-1.7-1-3.7-1.5-5.7-1.5h-52.3c-2.9,0-5.5-1.9-6.4-4.6l-0.4-1.2c-1.6-4.6-5.9-7.7-10.7-7.7
		h-16.1c-1.9,0-3.9,0.5-5.5,1.5c-3.6,2-5.8,5.8-5.8,9.8v54.2c0,6.2,5.1,11.3,11.3,11.3c0,0,0,0,0,0h85.9c6.2,0,11.3-5.1,11.3-11.3
		l0,0v-40.7C-633.1,442.8-635.3,439.1-638.8,437.1z"/>
	<g id="SVGRepo_iconCarrier_00000045596416847598834650000004278318448785890435_">
		<path class="st30" d="M-666.8,455.9c-3.8,0-6.7,3.3-6.5,7c0.1,3.5,0,8-1.2,11.7c-1.1,3.7-3.1,6-6.2,6.3v3.4
			c3.1,0.3,5.1,2.6,6.2,6.3c1.1,3.7,1.3,8.2,1.2,11.7c-0.1,3.6,2.7,7,6.5,7h39.2c3.8,0,6.7-3.3,6.5-7c-0.1-3.5,0-8,1.2-11.7
			c1.1-3.7,3.1-6,6.2-6.3v-3.4c-3.1-0.3-5.1-2.6-6.2-6.3c-1.1-3.7-1.3-8.2-1.2-11.7c0.1-3.6-2.7-7-6.5-7H-666.8L-666.8,455.9z
			 M-635.3,488.7c0,5-3.7,8-9.9,8h-10.5c-0.3,0-0.6-0.1-0.8-0.3c-0.2-0.2-0.3-0.5-0.3-0.8v-26.1c0-0.3,0.1-0.6,0.3-0.8
			c0.2-0.2,0.5-0.3,0.8-0.3h10.5c5.2,0,8.5,2.8,8.5,7.1c0,3-2.3,5.7-5.2,6.2v0.2C-638,482.2-635.3,484.9-635.3,488.7z M-646.4,472
			h-6v8.5h5.1c3.9,0,6.1-1.6,6.1-4.4C-641.3,473.4-643.1,472-646.4,472z M-652.4,483.8v9.3h6.2c4.1,0,6.2-1.6,6.2-4.7
			c0-3.1-2.2-4.6-6.5-4.6L-652.4,483.8L-652.4,483.8z"/>
	</g>
</g>
<g>
	<path class="st28" d="M-484,428.5h-67.9c-6.2,0-11.3,11.2-11.3,25v10c0,2.8,1,5,2.3,5h19.4c1,0,1.8,1.4,2.2,3.4l2.5,16.5
		c1,6.1,3.5,10.1,6.4,10.1h55.6c1.2,0,2.3-2.2,2.3-5v-40C-472.7,439.7-477.7,428.5-484,428.5z"/>
	<path class="st29" d="M-470.5,455h-60c-1-0.1-1.9-0.8-2.2-1.8l-2.5-9c-1-3.3-3.5-5.6-6.4-5.6h-23.9c-3.8-0.1-6.8,3.6-6.8,8.2
		c0,7.5,0.9,15,2.7,22.3l9,36.5c1.4,5.8,5.9,9.8,10.9,9.8h63.9c4.7,0,9-3.5,10.6-8.9l9.8-31.6c1.1-3.8,1.7-7.7,1.7-11.6
		C-463.7,458.7-466.7,455-470.5,455z"/>
	<g id="SVGRepo_iconCarrier_00000165221734091386576930000007256860909589594797_">
		<path class="st30" d="M-506.7,473.6c-3.8,0-6.7,3.3-6.5,7c0.1,3.5,0,8-1.2,11.7c-1.1,3.7-3.1,6-6.2,6.3v3.4
			c3.1,0.3,5.1,2.6,6.2,6.3c1.1,3.7,1.3,8.2,1.2,11.7c-0.1,3.6,2.7,7,6.5,7h39.2c3.8,0,6.7-3.3,6.5-7c-0.1-3.5,0-8,1.2-11.7
			c1.1-3.7,3.1-6,6.2-6.3v-3.4c-3.1-0.3-5.1-2.6-6.2-6.3c-1.1-3.7-1.3-8.2-1.2-11.7c0.1-3.6-2.7-7-6.5-7H-506.7L-506.7,473.6z
			 M-475.2,506.5c0,5-3.7,8-9.9,8h-10.5c-0.3,0-0.6-0.1-0.8-0.3c-0.2-0.2-0.3-0.5-0.3-0.8v-26.1c0-0.3,0.1-0.6,0.3-0.8
			c0.2-0.2,0.5-0.3,0.8-0.3h10.5c5.2,0,8.5,2.8,8.5,7.1c0,3-2.3,5.7-5.2,6.2v0.2C-477.8,500-475.2,502.7-475.2,506.5z M-486.2,489.7
			h-6v8.5h5.1c3.9,0,6.1-1.6,6.1-4.4C-481.1,491.2-483,489.7-486.2,489.7z M-492.2,501.6v9.3h6.2c4.1,0,6.2-1.6,6.2-4.7
			c0-3.1-2.2-4.6-6.5-4.6L-492.2,501.6L-492.2,501.6z"/>
	</g>
</g>
<g>
	<path class="st31" d="M-651.9,667h-83.6c-6.8,0-12.3,5.5-12.3,12.2c0,0.6,0,1.1,0.1,1.6c0.2,1.3,1.4,2.3,2.8,2.1
		c0.3,0,0.6-0.2,0.9-0.3c1.1-0.6,2.3-1,3.6-0.9h17.5c3.2,0,6,2,7,5l0.4,1.3c1.7,5,6.4,8.4,11.7,8.4h56.8c1.3,0,2.6,0.3,3.7,1
		c1.2,0.7,2.7,0.3,3.4-0.9c0.2-0.4,0.3-0.8,0.3-1.2v-16.1C-639.6,672.5-645.1,667-651.9,667z"/>
	<path class="st32" d="M-645.2,681c-1.7-1-3.7-1.5-5.7-1.5h-52.3c-2.9,0-5.5-1.9-6.4-4.6l-0.4-1.2c-1.6-4.6-5.9-7.7-10.7-7.7h-16.1
		c-1.9,0-3.9,0.5-5.5,1.5c-3.6,2-5.8,5.8-5.8,9.8v54.2c0,6.2,5.1,11.3,11.3,11.3c0,0,0,0,0,0h85.9c6.2,0,11.3-5.1,11.3-11.3l0,0
		v-40.7C-639.6,686.8-641.7,683-645.2,681z"/>
	<g>
		<path class="st33" d="M-688.9,727.4c0,18.5,15,33.4,33.4,33.4l2.9-33.4l-2.9-33.4C-673.9,694-688.9,709-688.9,727.4z"/>
		<path class="st34" d="M-655.4,694v66.8c18.5,0,33.4-15,33.4-33.4C-622,709-637,694-655.4,694z"/>
		<polygon class="st35" points="-667.8,708.9 -673.9,715.1 -661.6,727.4 -673.9,739.8 -667.8,745.9 -655.4,733.6 -652.5,727.4 
			-655.4,721.3 		"/>
		<polygon class="st36" points="-637,715.1 -643.1,708.9 -655.4,721.3 -655.4,733.6 -643.1,745.9 -637,739.8 -649.3,727.4 		"/>
	</g>
</g>
<g>
	<path class="st31" d="M-485.9,664.9h-67.9c-6.2,0-11.3,11.2-11.3,25v10c0,2.8,1,5,2.3,5h19.4c1,0,1.8,1.3,2.2,3.4l2.5,16.5
		c1,6,3.5,10.2,6.4,10.2h55.6c1.2,0,2.3-2.2,2.3-5v-40C-474.6,676.1-479.6,664.9-485.9,664.9z"/>
	<path class="st32" d="M-472.4,691.4h-60c-1-0.1-1.9-0.8-2.1-1.8l-2.5-9c-1-3.3-3.5-5.6-6.4-5.6h-23.9c-3.8,0-6.8,3.6-6.8,8.2
		c0,7.5,0.9,15,2.7,22.3l9,36.5c1.4,5.8,5.8,9.8,10.8,9.8h63.9c4.7,0,9-3.5,10.6-8.9l9.8-31.6c1.1-3.8,1.7-7.7,1.7-11.6
		C-465.6,695.1-468.6,691.4-472.4,691.4z"/>
	<g>
		<path class="st33" d="M-523.8,735.4c0,18.5,15,33.4,33.4,33.4l2.9-33.4l-2.9-33.4C-508.9,702-523.8,716.9-523.8,735.4z"/>
		<path class="st34" d="M-490.4,702v66.8c18.5,0,33.4-15,33.4-33.4S-471.9,702-490.4,702z"/>
		<polygon class="st35" points="-502.7,716.9 -508.9,723.1 -496.6,735.4 -508.9,747.7 -502.7,753.9 -490.4,741.6 -487.5,735.4 
			-490.4,729.2 		"/>
		<polygon class="st36" points="-471.9,723.1 -478.1,716.9 -490.4,729.2 -490.4,741.6 -478.1,753.9 -471.9,747.7 -484.2,735.4 		"/>
	</g>
</g>
<text transform="matrix(1 0 0 1 -315.126 180.912)" style="font-family:'MyriadPro-Regular'; font-size:12px;">EF937B</text>
<g>
	<path class="st37" d="M-648.3,545.7h-83.6c-6.8,0-12.3,5.5-12.3,12.2c0,0.6,0,1.1,0.1,1.6c0.2,1.3,1.4,2.3,2.8,2.1
		c0.3,0,0.6-0.2,0.9-0.3c1.1-0.6,2.3-1,3.6-0.9h17.5c3.2,0,6,2,7,5l0.4,1.3c1.7,5,6.4,8.4,11.7,8.4h56.8c1.3,0,2.6,0.3,3.7,1
		c1.2,0.7,2.7,0.3,3.4-0.9c0.2-0.4,0.3-0.8,0.3-1.2V558C-636,551.2-641.5,545.7-648.3,545.7z"/>
	<path class="st38" d="M-641.7,559.7c-1.7-1-3.7-1.5-5.7-1.5h-52.3c-2.9,0-5.5-1.9-6.4-4.6l-0.4-1.2c-1.6-4.6-5.9-7.7-10.7-7.7
		h-16.1c-1.9,0-3.9,0.5-5.5,1.5c-3.6,2-5.8,5.8-5.8,9.8v54.2c0,6.2,5.1,11.3,11.3,11.3c0,0,0,0,0,0h85.9c6.2,0,11.3-5.1,11.3-11.3
		l0,0v-40.7C-636,565.5-638.2,561.7-641.7,559.7z"/>
	<g id="SVGRepo_iconCarrier_00000117675762485081814250000004603262330798880179_">
		<g>
			<rect x="-669.8" y="596.7" class="st39" width="25.5" height="25.5"/>
			<polygon class="st39" points="-631.5,571.2 -632.7,571.2 -637.9,571.2 -637.9,575.5 -632.7,575.5 -631.5,575.5 -623.2,575.5 
				-623.2,577.7 -623.2,585 -623.2,590.3 -618.9,590.3 -618.9,585 -618.9,577.7 -618.9,575.5 -618.9,571.3 -618.9,571.2 			"/>
			<polygon class="st39" points="-623.2,614.3 -623.2,614.3 -623.2,617.9 -631.5,617.9 -632.7,617.9 -637.9,617.9 -637.9,622.2 
				-632.7,622.2 -632.7,622.2 -618.9,622.2 -618.9,622.2 -618.9,617.9 -618.9,614.3 -618.9,608.4 -618.9,603.1 -623.2,603.1 			"/>
			<polygon class="st39" points="-665.5,583 -665.5,583 -665.5,575.5 -659.3,575.5 -656,575.5 -650.6,575.5 -650.6,571.2 
				-656,571.2 -659.3,571.2 -669.8,571.2 -669.8,571.2 -669.8,575.5 -669.8,583 -669.8,585 -669.8,590.3 -665.5,590.3 			"/>
		</g>
	</g>
</g>
<g>
	<path class="st37" d="M-483.3,540.6h-67.9c-6.2,0-11.3,11.2-11.3,25v10c0,2.8,1,5,2.3,5h19.4c1,0,1.8,1.3,2.1,3.4l2.5,16.5
		c1,6,3.5,10.2,6.4,10.2h55.6c1.2,0,2.3-2.2,2.3-5v-40C-472,551.8-477.1,540.6-483.3,540.6z"/>
	<path class="st38" d="M-469.8,567h-60c-1-0.1-1.9-0.8-2.1-1.8l-2.5-9c-1-3.3-3.5-5.5-6.4-5.6h-23.9c-3.8,0-6.8,3.6-6.8,8.2
		c0,7.5,0.9,15,2.7,22.3l9,36.5c1.4,5.8,5.8,9.8,10.8,9.8h63.9c4.7,0,9-3.5,10.6-8.9l9.8-31.6c1.1-3.8,1.7-7.7,1.7-11.6
		C-463,570.7-466.1,567-469.8,567z"/>
	<g id="SVGRepo_iconCarrier_00000027590829092761408410000004830433391130391188_">
		<g>
			<rect x="-508.3" y="607.8" class="st39" width="25.5" height="25.5"/>
			<polygon class="st39" points="-469.9,582.3 -471.1,582.3 -476.3,582.3 -476.3,586.7 -471.1,586.7 -469.9,586.7 -461.6,586.7 
				-461.6,588.8 -461.6,596.2 -461.6,601.4 -457.3,601.4 -457.3,596.2 -457.3,588.8 -457.3,586.7 -457.3,582.4 -457.3,582.3 			"/>
			<polygon class="st39" points="-461.6,625.4 -461.6,625.4 -461.6,629 -469.9,629 -471.1,629 -476.3,629 -476.3,633.3 
				-471.1,633.3 -471.1,633.3 -457.3,633.3 -457.3,633.3 -457.3,629 -457.3,625.4 -457.3,619.5 -457.3,614.2 -461.6,614.2 			"/>
			<polygon class="st39" points="-503.9,594.1 -503.9,594.1 -503.9,586.6 -497.7,586.6 -494.5,586.6 -489.1,586.6 -489.1,582.3 
				-494.5,582.3 -497.7,582.3 -508.3,582.3 -508.3,582.3 -508.3,586.6 -508.3,594.1 -508.3,596.1 -508.3,601.4 -503.9,601.4 			"/>
		</g>
	</g>
</g>
<g>
	<path class="st40" d="M-163.5,461.9H-247c-6.8,0-12.3,5.5-12.3,12.2c0,0.6,0,1.1,0.1,1.6c0.2,1.3,1.4,2.3,2.8,2.1
		c0.3,0,0.6-0.2,0.9-0.3c1.1-0.6,2.3-1,3.6-0.9h17.5c3.2,0,6,2,7,5l0.4,1.3c1.7,5,6.4,8.4,11.7,8.4h56.8c1.3,0,2.6,0.3,3.7,1
		c1.2,0.7,2.7,0.3,3.4-0.9c0.2-0.4,0.3-0.8,0.3-1.2v-16.1C-151.2,467.4-156.7,461.9-163.5,461.9z"/>
	<path class="st41" d="M-156.8,476c-1.7-1-3.7-1.5-5.7-1.5h-52.3c-2.9,0-5.5-1.9-6.4-4.6l-0.4-1.2c-1.6-4.6-5.9-7.7-10.7-7.7h-16.1
		c-1.9,0-3.9,0.5-5.5,1.5c-3.6,2-5.8,5.8-5.8,9.8v54.2c0,6.2,5.1,11.3,11.3,11.3c0,0,0,0,0,0h85.9c6.2,0,11.3-5.1,11.3-11.3l0,0
		v-40.7C-151.2,481.7-153.3,478-156.8,476z"/>
	<g id="SVGRepo_iconCarrier_00000091732262923585569290000009645996578230195366_">
		<g id="Layer_3">
			<g>
				<path class="st42" d="M-166.9,547.9v-11.2c-12.4,0-22.5-10.1-22.5-22.5c0-12.4,10.1-22.5,22.5-22.5v-11.2h-7v6.5
					c-3.1,0.8-6,2.1-8.6,3.8l-4.2-4.2l-7.9,7.9l4.3,4.3c-1.6,2.5-2.9,5.3-3.6,8.3h-6.5v14.1h6.5c0.8,3,2,5.9,3.7,8.4l-4.4,4.4
					l7.9,7.9l4.4-4.4c2.6,1.7,5.4,3,8.5,3.7v6.5H-166.9z"/>
				<path class="st42" d="M-166.9,521.2c-3.9,0-7-3.1-7-7c0-3.9,3.1-7,7-7v-5.6c-7,0-12.6,5.7-12.6,12.6c0,7,5.7,12.6,12.6,12.6
					V521.2z"/>
				<path class="st42" d="M-149.7,547.9v-15.3c9.8-4.8,16.5-14.9,16.5-26.5c0-11-6-20.5-14.9-25.6v24.9l-14.7,12.9v29.6H-149.7z"/>
			</g>
		</g>
	</g>
</g>
<g>
	<path class="st40" d="M-20.4,436.2h-67.9c-6.2,0-11.3,11.2-11.3,25v10c0,2.8,1,5,2.3,5H-78c1,0,1.8,1.4,2.2,3.4l2.5,16.5
		c1,6.1,3.5,10.1,6.4,10.1h55.6c1.2,0,2.3-2.2,2.3-5v-40C-9.1,447.4-14.2,436.2-20.4,436.2z"/>
	<path class="st41" d="M-6.9,462.6h-60c-1-0.1-1.9-0.8-2.2-1.8l-2.5-9c-1-3.3-3.5-5.6-6.4-5.6h-23.9c-3.8-0.1-6.8,3.6-6.8,8.2
		c0,7.5,0.9,15,2.7,22.3l9,36.5c1.4,5.8,5.9,9.8,10.9,9.8h63.9c4.7,0,9-3.5,10.6-8.9l9.8-31.6c1.1-3.8,1.7-7.7,1.7-11.6
		C-0.1,466.3-3.2,462.6-6.9,462.6z"/>
	<g id="SVGRepo_iconCarrier_00000076589731921415951940000010162260857387956367_">
		<g id="Layer_3_00000091707356179547743300000004155736762352864932_">
			<g>
				<path class="st42" d="M-15.9,540.4v-11.2c-12.4,0-22.5-10.1-22.5-22.5c0-12.4,10.1-22.5,22.5-22.5V473h-7v6.5
					c-3.1,0.8-6,2.1-8.6,3.8l-4.2-4.2l-7.9,7.9l4.3,4.3c-1.6,2.5-2.9,5.3-3.6,8.3h-6.5v14.1h6.5c0.8,3,2,5.9,3.7,8.4l-4.4,4.4
					l7.9,7.9l4.4-4.4c2.6,1.7,5.4,3,8.5,3.7v6.5H-15.9z"/>
				<path class="st42" d="M-15.9,513.7c-3.9,0-7-3.1-7-7c0-3.9,3.1-7,7-7v-5.6c-7,0-12.6,5.7-12.6,12.6c0,7,5.7,12.6,12.6,12.6
					V513.7z"/>
				<path class="st42" d="M1.3,540.4v-15.3c9.8-4.8,16.5-14.9,16.5-26.5c0-11-6-20.5-14.9-25.6v24.9l-14.7,12.9v29.6H1.3z"/>
			</g>
		</g>
	</g>
</g>
</svg>
