<svg xmlns="http://www.w3.org/2000/svg" viewBox="0 0 136.44 119.12"><defs><style>.cls-1{fill:#dcb67a;}.cls-2{fill:#c09553;}.cls-3{fill:#ffebe3;}.cls-4{fill:#f20;}.cls-5{fill:#00a302;}.cls-6{fill:#f9ff16;}</style></defs><g id="Camada_2" data-name="Camada 2"><g id="Camada_1-2" data-name="Camada 1"><path class="cls-1" d="M96.3,1H12.7A12.27,12.27,0,0,0,.4,13.2a8.08,8.08,0,0,0,.1,1.6,2.49,2.49,0,0,0,2.8,2.1,3.18,3.18,0,0,0,.9-.3,6.44,6.44,0,0,1,3.6-.9H25.3a7.33,7.33,0,0,1,7,5l.4,1.3a12.38,12.38,0,0,0,11.7,8.4h56.8a6.86,6.86,0,0,1,3.7,1,2.47,2.47,0,0,0,3.4-.9,2.66,2.66,0,0,0,.3-1.2V13.2A12.4,12.4,0,0,0,96.3,1Z"/><path class="cls-2" d="M102.9,15a11.29,11.29,0,0,0-5.7-1.5H44.9a6.79,6.79,0,0,1-6.4-4.6l-.4-1.2A11.39,11.39,0,0,0,27.4,0H11.3A10.58,10.58,0,0,0,5.8,1.5,11.27,11.27,0,0,0,0,11.3V65.5A11.35,11.35,0,0,0,11.3,76.8H97.2a11.35,11.35,0,0,0,11.3-11.3h0V24.8A11.2,11.2,0,0,0,102.9,15Z"/><rect class="cls-3" x="54.5" y="34.48" width="81.94" height="84.63"/><rect class="cls-4" x="55.84" y="35.83" width="21.49" height="37.61"/><rect class="cls-5" x="78.94" y="35.83" width="30.86" height="59.45"/><rect class="cls-6" x="55.84" y="75.14" width="21.49" height="42.51"/><rect class="cls-6" x="111.59" y="35.83" width="23.33" height="18.81"/><rect class="cls-4" x="111.59" y="56.33" width="12.65" height="12.65"/><rect class="cls-5" x="111.59" y="70.78" width="23.33" height="17.13"/><rect class="cls-5" x="125.33" y="56.33" width="9.59" height="12.65"/><rect class="cls-4" x="78.94" y="96.68" width="22.12" height="20.97"/><rect class="cls-5" x="102" y="96.68" width="7.8" height="17.13"/><rect class="cls-6" x="102" y="114.84" width="23.33" height="2.81"/><rect class="cls-4" x="125.33" y="88.77" width="9.59" height="7.63"/><rect class="cls-4" x="111.59" y="88.77" width="12.65" height="7.63"/><rect class="cls-4" x="111.59" y="97.62" width="9.59" height="9.59"/><rect class="cls-5" x="121.97" y="97.62" width="12.95" height="12.65"/><rect class="cls-5" x="111.59" y="108.43" width="9.59" height="5.37"/><rect class="cls-5" x="126.11" y="111.12" width="8.38" height="6.41"/><rect class="cls-6" x="121.97" y="110.99" width="3.36" height="2.81"/></g></g></svg>