<svg xmlns="http://www.w3.org/2000/svg" width="110.6" height="96.6" viewBox="0 0 110.6 96.6"><g transform="translate(1497 -2480)"><path d="M121.846,74.667H53.978c-6.247,0-11.311,11.193-11.311,25v10c0,2.762,1.013,5,2.262,5H64.294c.965.01,1.824,1.352,2.149,3.36l2.466,16.491c.951,6.052,3.526,10.12,6.425,10.15H130.9c1.249,0,2.262-2.239,2.262-5v-40C133.157,85.86,128.093,74.667,121.846,74.667Z" transform="translate(-1530.667 2405.333)" fill="#dcb67a"/><path d="M101.709,155.135H41.678a2.4,2.4,0,0,1-2.147-1.844l-2.464-9.052c-.952-3.321-3.523-5.553-6.419-5.572H6.781C3.036,138.667,0,142.353,0,146.9a93.392,93.392,0,0,0,2.672,22.308l9.041,36.515c1.432,5.819,5.843,9.8,10.845,9.793H86.385c4.728.016,8.964-3.542,10.618-8.92l9.764-31.629a39.708,39.708,0,0,0,1.722-11.6C108.49,158.821,105.454,155.135,101.709,155.135Z" transform="translate(-1497 2351.333)" fill="#c09553"/><g transform="translate(-125 -51)"><g transform="translate(-1310 2579)"><path d="M2,26.3V50.6H50.6V2H2Z" transform="translate(-2 -2)" fill="#007acc"/><path d="M36.655,14.967a6.049,6.049,0,0,1,3.039,1.751,8,8,0,0,1,1.165,1.562c.016.062-2.1,1.481-3.379,2.276-.047.031-.231-.174-.439-.479A2.755,2.755,0,0,0,34.756,18.7c-1.474-.1-2.43.672-2.414,1.96a1.783,1.783,0,0,0,.208.91c.325.672.925,1.073,2.815,1.89,3.471,1.5,4.968,2.484,5.9,3.888a7.052,7.052,0,0,1,.562,5.924,6.514,6.514,0,0,1-5.381,3.85,14.9,14.9,0,0,1-3.7-.038A8.93,8.93,0,0,1,27.8,34.511a8.586,8.586,0,0,1-1.265-1.875,3.632,3.632,0,0,1,.448-.285c.215-.123,1.041-.594,1.805-1.041l1.389-.811.292.429a6.524,6.524,0,0,0,1.852,1.77,4.513,4.513,0,0,0,4.728-.24,2.112,2.112,0,0,0,.271-2.692c-.378-.54-1.149-.995-3.34-1.944a12.029,12.029,0,0,1-4.575-2.815,6.408,6.408,0,0,1-1.335-2.43,9.73,9.73,0,0,1-.085-3.1,5.924,5.924,0,0,1,4.983-4.614,12.31,12.31,0,0,1,3.687.1ZM25.246,17l.016,1.991H18.937V36.962H14.462V18.987H8.136V17.036a19.125,19.125,0,0,1,.054-2.006c.023-.031,3.872-.047,8.54-.038l8.493.023Z" transform="translate(2.509 7.396)" fill="#fff"/></g></g></g></svg>