<svg xmlns="http://www.w3.org/2000/svg" width="115.492" height="102.865" viewBox="0 0 115.492 102.865"><g transform="translate(1502 -2361)"><path d="M121.846,74.667H53.978c-6.247,0-11.311,11.193-11.311,25v10c0,2.762,1.013,5,2.262,5H64.294c.965.01,1.824,1.352,2.149,3.36l2.466,16.491c.951,6.052,3.526,10.12,6.425,10.15H130.9c1.249,0,2.262-2.239,2.262-5v-40C133.157,85.86,128.093,74.667,121.846,74.667Z" transform="translate(-1535.667 2286.333)" fill="#9b9b9b"/><path d="M101.709,155.135H41.678a2.4,2.4,0,0,1-2.147-1.844l-2.464-9.052c-.952-3.321-3.523-5.553-6.419-5.572H6.781C3.036,138.667,0,142.353,0,146.9a93.392,93.392,0,0,0,2.672,22.308l9.041,36.515c1.432,5.819,5.843,9.8,10.845,9.793H86.385c4.728.016,8.964-3.542,10.618-8.92l9.764-31.629a39.708,39.708,0,0,0,1.722-11.6C108.49,158.821,105.454,155.135,101.709,155.135Z" transform="translate(-1502 2232.333)" fill="#686868"/><g transform="translate(139 13)"><path d="M15.266,11.311V69.38H60.928V21.661H49.551V11.311ZM53.65,13.88l.025,3.66h3.957L53.65,13.874Z" transform="translate(-1590.598 2377.332)" fill="#dcb67a"/><path d="M55.239,10H18.115a4.159,4.159,0,0,0-4.146,4.149V72.219a4.159,4.159,0,0,0,4.146,4.146H63.743a4.159,4.159,0,0,0,4.149-4.146V21.51Zm1.245,6.741,3.941,3.628H56.484ZM18.115,72.219V14.149H52.334V24.518H63.74v47.7Z" transform="translate(-1593.4 2374.5)" fill="#c09553"/><rect width="37.332" height="4.149" transform="translate(-1571.135 2414.118)" fill="#686868"/><path d="M24.178,13.711a4.506,4.506,0,0,0-1.763-1.245,6.482,6.482,0,0,0-2.591-.414H15.778V24.184h4.045a5.246,5.246,0,0,0,4.149-1.555,5.644,5.644,0,0,0,1.141-1.868,9.335,9.335,0,0,0,.316-2.591,9.073,9.073,0,0,0-.316-2.49A4.98,4.98,0,0,0,24.178,13.711Zm-1.451,5.805a3.2,3.2,0,0,1-.518,1.245,2.449,2.449,0,0,1-.948.828,3.476,3.476,0,0,1-1.555.316h-1.33V14.229h1.451a2.756,2.756,0,0,1,2.282.948,3.833,3.833,0,0,1,.518,1.141,8.058,8.058,0,0,1,.209,1.659,6.864,6.864,0,0,1-.111,1.542Z" transform="translate(-1589.492 2378.917)" fill="#686868"/><path d="M28.441,13.849A4.326,4.326,0,0,0,26.782,12.5a5.407,5.407,0,0,0-2.386-.518,6.267,6.267,0,0,0-2.49.518,5.274,5.274,0,0,0-1.659,1.349,6.877,6.877,0,0,0-.948,1.969,9.3,9.3,0,0,0,0,4.769,5.78,5.78,0,0,0,.948,1.969A3.562,3.562,0,0,0,21.906,23.9a5.894,5.894,0,0,0,2.49.518,4.478,4.478,0,0,0,3.837-1.659A6.665,6.665,0,0,0,29.582,18.2a8.848,8.848,0,0,0-.316-2.386,4.216,4.216,0,0,0-.825-1.966Zm-2.177,7.357a2.228,2.228,0,0,1-1.969,1.037,2.032,2.032,0,0,1-1.969-1.037,5.913,5.913,0,0,1-.632-3.009,5.657,5.657,0,0,1,.632-3.009,2.547,2.547,0,0,1,3.941,0A5.913,5.913,0,0,1,26.9,18.2a5.657,5.657,0,0,1-.635,3.009Z" transform="translate(-1582.559 2378.779)" fill="#686868"/><path d="M29.318,21.136a2.263,2.263,0,0,1-.414.518,2.168,2.168,0,0,1-.632.414,2.023,2.023,0,0,1-.831.1,1.817,1.817,0,0,1-1.763-.948,5.657,5.657,0,0,1-.632-3.009v-.828c0-.316.1-.632.1-.948a8.523,8.523,0,0,1,.209-.831,1.672,1.672,0,0,1,.414-.727,2.749,2.749,0,0,1,.632-.518,1.953,1.953,0,0,1,.831-.209,1.792,1.792,0,0,1,1.349.518,3.587,3.587,0,0,1,.727,1.245l2.386-.632a4.968,4.968,0,0,0-.727-1.659,4.917,4.917,0,0,0-1.037-1.037,5.954,5.954,0,0,0-5.082-.1A4.883,4.883,0,0,0,23.3,13.836a4.083,4.083,0,0,0-.518,2.073,8.507,8.507,0,0,0-.209,2.282,15.531,15.531,0,0,0,.209,2.282,5.651,5.651,0,0,0,.828,1.969,3.874,3.874,0,0,0,1.555,1.349,5.407,5.407,0,0,0,2.386.518,5.056,5.056,0,0,0,2.9-.828,4.917,4.917,0,0,0,1.037-1.037,10.567,10.567,0,0,0,.831-1.555l-2.49-.632A2.869,2.869,0,0,1,29.318,21.136Z" transform="translate(-1574.836 2378.751)" fill="#686868"/><rect width="25.923" height="4.149" transform="translate(-1571.135 2440.768)" fill="#686868"/><rect width="37.332" height="4.149" transform="translate(-1571.135 2432.763)" fill="#686868"/><rect width="37.332" height="4.149" transform="translate(-1571.135 2423.282)" fill="#686868"/><rect width="37.332" height="4.149" transform="translate(-1570.962 2404.953)" fill="#686868"/></g></g></svg>