<svg xmlns="http://www.w3.org/2000/svg" width="108.49" height="86.85" viewBox="0 0 108.49 86.85"><g transform="translate(-148 -562)"><path d="M121.846,74.667H53.978c-6.247,0-11.311,11.193-11.311,25v10c0,2.762,1.013,5,2.262,5H64.294c.965.01,1.824,1.352,2.149,3.36l2.466,16.491c.951,6.052,3.526,10.12,6.425,10.15h55.561c1.249,0,2.262-2.239,2.262-5v-40C133.157,85.86,128.093,74.667,121.846,74.667Z" transform="translate(114.333 487.333)" fill="#c6e89b"/><path d="M101.709,155.135H41.678a2.4,2.4,0,0,1-2.147-1.844l-2.464-9.052c-.952-3.321-3.523-5.553-6.419-5.572H6.781C3.036,138.667,0,142.353,0,146.9a93.392,93.392,0,0,0,2.672,22.308l9.041,36.515c1.432,5.819,5.843,9.8,10.845,9.793H86.385c4.728.016,8.964-3.542,10.618-8.92l9.764-31.629a39.708,39.708,0,0,0,1.722-11.6C108.49,158.821,105.454,155.135,101.709,155.135Z" transform="translate(148 433.333)" fill="#8ebf55"/><g transform="translate(-464 -210)"><path d="M38.159,65.879a4.605,4.605,0,0,1-2.234-.575L28.809,61.26c-1.06-.572-.554-.774-.194-.891a14.458,14.458,0,0,0,3.209-1.408.573.573,0,0,1,.529.04l5.465,3.119a.731.731,0,0,0,.662,0L59.8,50.3a.639.639,0,0,0,.327-.554V26.112a.655.655,0,0,0-.329-.564L38.5,13.738a.7.7,0,0,0-.659,0L16.542,25.55a.653.653,0,0,0-.338.561V49.745a.624.624,0,0,0,.335.548l5.836,3.241c3.167,1.522,5.108-.266,5.108-2.07V28.129a.577.577,0,0,1,.18-.419.625.625,0,0,1,.437-.171h2.7a.6.6,0,0,1,.615.591V51.464A5.535,5.535,0,0,1,29.845,56.1a6.034,6.034,0,0,1-4.734,1.751A9.4,9.4,0,0,1,20.2,56.565l-5.587-3.092a4.3,4.3,0,0,1-2.234-3.726V26.112a4.286,4.286,0,0,1,2.234-3.726L35.928,10.552a4.831,4.831,0,0,1,4.477,0L61.723,22.386a4.294,4.294,0,0,1,2.237,3.726V49.745a4.3,4.3,0,0,1-2.237,3.726L40.4,65.294a4.607,4.607,0,0,1-2.245.585Z" transform="translate(642.6 791.911)" fill="#fff"/><path d="M20.231,29.772a.524.524,0,0,1,.527-.527h2.373a.529.529,0,0,1,.524.446c.356,2.4,1.424,3.617,6.251,3.617,3.847,0,5.484-.871,5.484-2.912,0-1.187-.475-2.05-6.443-2.637-5-.494-8.088-1.6-8.088-5.6,0-3.686,3.107-5.883,8.306-5.883,5.852,0,8.745,2.031,9.113,6.386a.527.527,0,0,1-.524.574H35.382a.527.527,0,0,1-.513-.413c-.567-2.53-1.953-3.339-5.7-3.339-4.2,0-4.687,1.464-4.687,2.561,0,1.329.577,1.716,6.246,2.466,5.613.743,8.278,1.792,8.278,5.738s-3.322,6.258-9.1,6.258C21.9,36.516,20.231,32.85,20.231,29.772Z" transform="translate(657.875 804.723)" fill="#fff"/></g></g></svg>