<svg xmlns="http://www.w3.org/2000/svg" width="51.441" height="64.002" viewBox="0 0 51.441 64.002"><defs><style>.a,.b,.c,.e{fill:#755838;}.b{font-size:20px;font-family:SegoeUI-Bold, Segoe UI;font-weight:700;}.d,.e{stroke:none;}</style></defs><g transform="translate(-67.159 -396.998)"><path class="a" d="M44,2H8.582A3.974,3.974,0,0,0,4.625,5.969v55.57a3.974,3.974,0,0,0,3.957,3.969H52.109a3.974,3.974,0,0,0,3.957-3.969V13.014Zm1.187,6.451,3.76,3.473h-3.76ZM8.582,61.539V5.969H41.229v9.923H52.111V61.539Z" transform="translate(62.534 395.491)"/><text class="b" transform="translate(75 438)"><tspan x="0" y="0">.txt</tspan></text><g class="c" transform="matrix(-0.695, -0.719, 0.719, -0.695, 109.783, 419.002)"><path class="d" d="M 17.96645355224609 11.5 L 1.033547043800354 11.5 L 9.5 0.8055331707000732 L 17.96645355224609 11.5 Z"/><path class="e" d="M 9.5 1.611079216003418 L 2.067104339599609 11 L 16.93289566040039 11 L 9.5 1.611079216003418 M 9.5 0 L 19 12 L 0 12 L 9.5 0 Z"/></g></g></svg>