<svg xmlns="http://www.w3.org/2000/svg" width="108.493" height="76.85" viewBox="0 0 108.493 76.85"><g transform="translate(-67 -447.488)"><path d="M117.206,53.334H33.653A12.257,12.257,0,0,0,21.483,67.219a2.457,2.457,0,0,0,3.681,1.8,6.96,6.96,0,0,1,3.573-.944h17.5a7.412,7.412,0,0,1,6.989,5l.418,1.347A12.346,12.346,0,0,0,65.3,82.823h56.816a7.372,7.372,0,0,1,3.671.983,2.462,2.462,0,0,0,3.7-2.123V65.621A12.287,12.287,0,0,0,117.206,53.334Z" transform="translate(46 394.225)" fill="#7bb4db"/><path d="M102.856,111.089a11.235,11.235,0,0,0-5.664-1.528H44.934a6.817,6.817,0,0,1-6.428-4.6l-.384-1.239A11.355,11.355,0,0,0,27.395,96H11.3a10.816,10.816,0,0,0-5.533,1.46A11.274,11.274,0,0,0,0,107.3v54.247a11.3,11.3,0,0,0,11.3,11.3H97.192a11.3,11.3,0,0,0,11.3-11.3V120.862A11.224,11.224,0,0,0,102.856,111.089Z" transform="translate(67 351.49)" fill="#5594bf"/><path d="M29.786,44.123,15.7,54.734,9.889,52.8,24.216,38.627,9.889,24.45,15.7,22.511,29.783,33.122,53.186,10,67.2,15.952V61.3L53.186,67.254Zm7.3-5.5L53.173,50.751V26.5Z" transform="translate(97.6 455.084)" fill="#005b98"/></g></svg>