<svg xmlns="http://www.w3.org/2000/svg" xmlns:xlink="http://www.w3.org/1999/xlink" width="114.134" height="122.5" viewBox="0 0 114.134 122.5"><defs><style>.a{fill:#9cb6e0;}.b{fill:#5578bf;}.c{fill:url(#a);}.d{fill:#6f95db;}.e{fill:rgba(255,255,255,0.1);}</style><radialGradient id="a" cx="0.484" cy="0.466" r="0.396" gradientTransform="matrix(1.155, 0, 0, -1.155, 0.68, -8.126)" gradientUnits="objectBoundingBox"><stop offset="0" stop-color="#93b4e7"/><stop offset="0.593" stop-color="#b9d1f8"/><stop offset="1" stop-color="#9cb6e0"/></radialGradient></defs><g transform="translate(-187 -317)"><path class="a" d="M121.846,74.667H53.978c-6.247,0-11.311,11.193-11.311,25v10c0,2.762,1.013,5,2.262,5H64.294c.965.01,1.824,1.352,2.149,3.36l2.466,16.491c.951,6.052,3.526,10.12,6.425,10.15h55.561c1.249,0,2.262-2.239,2.262-5v-40C133.157,85.86,128.093,74.667,121.846,74.667Z" transform="translate(153.333 242.333)"/><path class="b" d="M101.709,155.135H41.678a2.4,2.4,0,0,1-2.147-1.844l-2.464-9.052c-.952-3.321-3.523-5.553-6.419-5.572H6.781C3.036,138.667,0,142.353,0,146.9a93.392,93.392,0,0,0,2.672,22.308l9.041,36.515c1.432,5.819,5.843,9.8,10.845,9.793H86.385c4.728.016,8.964-3.542,10.618-8.92l9.764-31.629a39.708,39.708,0,0,0,1.722-11.6C108.49,158.821,105.454,155.135,101.709,155.135Z" transform="translate(187 188.333)"/><g transform="translate(123 -141.77)"><path class="c" d="M48.605,10.032,12.821,30.693V72.015L48.605,92.676,84.39,72.015V30.693Z" transform="translate(93.662 488.594)"/><path class="d" d="M35.136,15.35,17.4,25.6v20.5L35.136,56.341,52.873,46.093V25.6Z" transform="translate(107.131 504.237)"/><path class="e" d="M48.667,10,12.8,30.8,48.667,50.329l35.867-19.4Zm0,43L12.8,72.018,48.667,92.691,84.4,71.881Z" transform="translate(93.6 488.5)"/></g></g></svg>