<svg xmlns="http://www.w3.org/2000/svg" viewBox="0 0 111.73 94.62"><defs><style>.cls-1{fill:#b29264;}.cls-2{fill:#84725a;}.cls-3,.cls-4{fill:#c48703;stroke:#c48703;stroke-miterlimit:26.53;}.cls-3{stroke-width:0.25px;}.cls-4{stroke-width:6.63px;}</style></defs><g id="Camada_2" data-name="Camada 2"><g id="Camada_1-2" data-name="Camada 1"><path class="cls-1" d="M96.3,1H12.7A12.27,12.27,0,0,0,.4,13.2a8.08,8.08,0,0,0,.1,1.6,2.49,2.49,0,0,0,2.8,2.1,3.18,3.18,0,0,0,.9-.3,6.44,6.44,0,0,1,3.6-.9H25.3a7.33,7.33,0,0,1,7,5l.4,1.3a12.38,12.38,0,0,0,11.7,8.4h56.8a6.86,6.86,0,0,1,3.7,1,2.47,2.47,0,0,0,3.4-.9,2.66,2.66,0,0,0,.3-1.2V13.2A12.4,12.4,0,0,0,96.3,1Z"/><path class="cls-2" d="M102.9,15a11.29,11.29,0,0,0-5.7-1.5H44.9a6.79,6.79,0,0,1-6.4-4.6l-.4-1.2A11.39,11.39,0,0,0,27.4,0H11.3A10.58,10.58,0,0,0,5.8,1.5,11.27,11.27,0,0,0,0,11.3V65.5A11.35,11.35,0,0,0,11.3,76.8H97.2a11.35,11.35,0,0,0,11.3-11.3h0V24.8A11.2,11.2,0,0,0,102.9,15Z"/><path class="cls-3" d="M62,82.15a1.77,1.77,0,1,1-1.77,1.77A1.77,1.77,0,0,1,62,82.15Z"/><path class="cls-4" d="M108.39,81.31l-4.91-44.19a3,3,0,0,0-3-2.44H62.2a3,3,0,0,0-3,2.44L54.28,81.31s0,.1,0,.15v4.92a4.93,4.93,0,0,0,4.92,4.93h44.32a4.93,4.93,0,0,0,4.93-4.93V81.46S108.39,81.36,108.39,81.31ZM81.33,47l7.13,8.9H84v8.9H78.66V55.9H74.22ZM106,86.38a2.48,2.48,0,0,1-2.47,2.47H59.17a2.47,2.47,0,0,1-2.46-2.47V81.46A2.46,2.46,0,0,1,59.17,79h44.32A2.47,2.47,0,0,1,106,81.46v4.92Z"/></g></g></svg>