<svg xmlns="http://www.w3.org/2000/svg" width="115.134" height="106.5" viewBox="0 0 115.134 106.5"><g transform="translate(-768 -1382)"><path d="M121.846,74.667H53.978c-6.247,0-11.311,11.193-11.311,25v10c0,2.762,1.013,5,2.262,5H64.294c.965.01,1.824,1.352,2.149,3.36l2.466,16.491c.951,6.052,3.526,10.12,6.425,10.15H130.9c1.249,0,2.262-2.239,2.262-5v-40C133.157,85.86,128.093,74.667,121.846,74.667Z" transform="translate(734.333 1307.333)" fill="#55bbbf"/><path d="M101.709,155.135H41.678a2.4,2.4,0,0,1-2.147-1.844l-2.464-9.052c-.952-3.321-3.523-5.553-6.419-5.572H6.781C3.036,138.667,0,142.353,0,146.9a93.392,93.392,0,0,0,2.672,22.308l9.041,36.515c1.432,5.819,5.843,9.8,10.845,9.793H86.385c4.728.016,8.964-3.542,10.618-8.92l9.764-31.629a39.708,39.708,0,0,0,1.722-11.6C108.49,158.821,105.454,155.135,101.709,155.135Z" transform="translate(768 1253.333)" fill="#11a798"/><g transform="translate(451 192.889)"><path d="M32.506,10V29.743L15.432,19.87" transform="translate(365.483 1216.5)" fill="#b2cde5"/><path d="M37.69,19.87,20.62,29.743V10" transform="translate(377.369 1216.5)" fill="#b2cde5"/><path d="M37.69,13V32.748L20.62,22.872" transform="translate(377.369 1223.371)" fill="#4c89c3"/><path d="M15.432,13V32.748l17.074-9.876" transform="translate(365.483 1223.371)" fill="#0057a9"/><path d="M32.506,16V35.748L15.432,25.875" transform="translate(365.483 1230.244)" fill="#0057a9"/><path d="M20.627,16,20.62,35.748l17.07-9.866" transform="translate(377.369 1230.244)" fill="#4c89c3"/><path d="M37.69,19V38.746L20.62,28.873" transform="translate(377.369 1237.119)" fill="#b2cde5"/><path d="M15.432,19V38.746l17.074-9.873" transform="translate(365.483 1237.119)" fill="#b2cde5"/><path d="M32.506,22V41.746L15.432,31.873" transform="translate(365.483 1243.992)" fill="#4c89c3"/><path d="M20.627,22,20.62,41.746,37.69,31.88" transform="translate(377.369 1243.992)" fill="#0057a9"/><path d="M27.316,19V38.746l-17.07-9.873" transform="translate(353.6 1237.119)" fill="#b2cde5"/><path d="M10.245,22V41.746l17.07-9.873" transform="translate(353.6 1243.992)" fill="#0057a9"/><path d="M27.316,25V44.746l-17.07-9.873" transform="translate(353.6 1250.865)" fill="#0057a9"/><path d="M15.439,25l-.007,19.746L32.506,34.88" transform="translate(365.483 1250.865)" fill="#4c89c3"/><path d="M42.881,28.88,25.807,38.746,25.817,19" transform="translate(389.253 1237.119)" fill="#b2cde5"/><path d="M42.881,22V41.746L25.807,31.873" transform="translate(389.253 1243.992)" fill="#4c89c3"/><path d="M37.69,25V44.746L20.62,34.873" transform="translate(377.369 1250.865)" fill="#0057a9"/><path d="M25.817,25l-.01,19.746L42.881,34.88" transform="translate(389.253 1250.865)" fill="#4c89c3"/></g></g></svg>