<svg id="git_folder" xmlns="http://www.w3.org/2000/svg" width="118.729" height="94.651" viewBox="0 0 118.729 94.651">
  <path id="Caminho_8" data-name="Caminho 8" d="M117.206,53.334H33.653A12.257,12.257,0,0,0,21.483,67.219a2.457,2.457,0,0,0,3.681,1.8,6.96,6.96,0,0,1,3.573-.944h17.5a7.412,7.412,0,0,1,6.989,5l.418,1.347A12.346,12.346,0,0,0,65.3,82.823h56.816a7.372,7.372,0,0,1,3.671.983,2.462,2.462,0,0,0,3.7-2.123V65.621A12.287,12.287,0,0,0,117.206,53.334Z" transform="translate(-21 -52.264)" fill="#db847b"/>
  <path id="Caminho_9" data-name="Caminho 9" d="M102.856,111.089a11.235,11.235,0,0,0-5.664-1.528H44.934a6.817,6.817,0,0,1-6.428-4.6l-.384-1.239A11.355,11.355,0,0,0,27.395,96H11.3a10.816,10.816,0,0,0-5.533,1.46A11.274,11.274,0,0,0,0,107.3v54.247a11.3,11.3,0,0,0,11.3,11.3H97.192a11.3,11.3,0,0,0,11.3-11.3V120.862A11.224,11.224,0,0,0,102.856,111.089Z" transform="translate(0 -95.999)" fill="#bf5e55"/>
  <g id="Grupo_1" data-name="Grupo 1" transform="translate(-611 -892.488)">
    <g id="Retângulo_1" data-name="Retângulo 1" transform="translate(696.268 924.412) rotate(45)" fill="#fff" stroke="#fff" stroke-width="1">
      <rect width="44" height="44" rx="7" stroke="none"/>
      <rect x="0.5" y="0.5" width="43" height="43" rx="6.5" fill="none"/>
    </g>
    <path id="Caminho_22" data-name="Caminho 22" d="M72.036,38.8l-27.6-27.6a4.072,4.072,0,0,0-5.762,0L32.948,16.92l7.274,7.274a4.837,4.837,0,0,1,6.126,6.165l7.015,7.015a4.84,4.84,0,1,1-2.9,2.732l-6.554-6.539V50.773a4.837,4.837,0,1,1-3.985-.142V33.265a4.849,4.849,0,0,1-2.629-6.355L30.12,19.739,11.2,38.672a4.075,4.075,0,0,0,0,5.762l27.6,27.6a4.075,4.075,0,0,0,5.762,0L72.036,44.563a4.075,4.075,0,0,0,0-5.762" transform="translate(656.5 913.91)" fill="#dd4c35"/>
  </g>
</svg>
