<svg xmlns="http://www.w3.org/2000/svg" width="114.6" height="96.6" viewBox="0 0 114.6 96.6"><g transform="translate(1637 -2480)"><path d="M117.206,53.334H33.653a12.257,12.257,0,0,0-12.17,13.885,2.457,2.457,0,0,0,3.681,1.8,6.96,6.96,0,0,1,3.573-.944h17.5a7.412,7.412,0,0,1,6.989,5l.418,1.347a12.346,12.346,0,0,0,11.656,8.4h56.816a7.372,7.372,0,0,1,3.671.983,2.462,2.462,0,0,0,3.7-2.123V65.621a12.287,12.287,0,0,0-12.281-12.287Z" transform="translate(-1658 2426.735)" fill="#dcb67a"/><g transform="translate(-1671 2245.51)"><g transform="translate(16 -18)"><path d="M102.856,111.089a11.235,11.235,0,0,0-5.664-1.528H44.934a6.817,6.817,0,0,1-6.428-4.6l-.384-1.239A11.355,11.355,0,0,0,27.4,96H11.3a10.816,10.816,0,0,0-5.533,1.46A11.274,11.274,0,0,0,0,107.3v54.247a11.3,11.3,0,0,0,11.3,11.3H97.192a11.3,11.3,0,0,0,11.3-11.3V120.862A11.224,11.224,0,0,0,102.856,111.089Z" transform="translate(18 156.49)" fill="#c09553"/></g></g><g transform="translate(-261 -51)"><g transform="translate(-1310 2579)"><path d="M2,26.3V50.6H50.6V2H2Z" transform="translate(-2 -2)" fill="#007acc"/><path d="M36.655,14.967a6.049,6.049,0,0,1,3.039,1.751,8,8,0,0,1,1.165,1.562c.016.062-2.1,1.481-3.379,2.276-.047.031-.231-.174-.439-.479A2.755,2.755,0,0,0,34.756,18.7c-1.474-.1-2.43.672-2.414,1.96a1.783,1.783,0,0,0,.208.91c.325.672.925,1.073,2.815,1.89,3.471,1.5,4.968,2.484,5.9,3.888a7.052,7.052,0,0,1,.562,5.924,6.514,6.514,0,0,1-5.381,3.85,14.9,14.9,0,0,1-3.7-.038A8.93,8.93,0,0,1,27.8,34.511a8.586,8.586,0,0,1-1.265-1.875,3.632,3.632,0,0,1,.448-.285c.215-.123,1.041-.594,1.805-1.041l1.389-.811.292.429a6.524,6.524,0,0,0,1.852,1.77,4.513,4.513,0,0,0,4.728-.24,2.112,2.112,0,0,0,.271-2.692c-.378-.54-1.149-.995-3.34-1.944a12.029,12.029,0,0,1-4.575-2.815,6.408,6.408,0,0,1-1.335-2.43,9.73,9.73,0,0,1-.085-3.1,5.924,5.924,0,0,1,4.983-4.614,12.31,12.31,0,0,1,3.687.1ZM25.246,17l.016,1.991H18.937V36.962H14.462V18.987H8.136V17.036a19.125,19.125,0,0,1,.054-2.006c.023-.031,3.872-.047,8.54-.038l8.493.023Z" transform="translate(2.509 7.396)" fill="#fff"/></g></g></g></svg>