<svg xmlns="http://www.w3.org/2000/svg" width="118" height="93.012" viewBox="0 0 118 93.012"><g transform="translate(-45 -1569.488)"><g transform="translate(-51 1029.977)"><path d="M117.206,53.334H33.653a12.257,12.257,0,0,0-12.17,13.885,2.457,2.457,0,0,0,3.681,1.8,6.96,6.96,0,0,1,3.573-.944h17.5a7.412,7.412,0,0,1,6.989,5l.418,1.347a12.346,12.346,0,0,0,11.656,8.4h56.816a7.372,7.372,0,0,1,3.671.983,2.462,2.462,0,0,0,3.7-2.123V65.621a12.287,12.287,0,0,0-12.281-12.287Z" transform="translate(75 487.247)" fill="#dcb67a"/><path d="M102.856,111.089a11.235,11.235,0,0,0-5.664-1.528H44.934a6.817,6.817,0,0,1-6.428-4.6l-.384-1.239A11.355,11.355,0,0,0,27.4,96H11.3a10.816,10.816,0,0,0-5.533,1.46A11.274,11.274,0,0,0,0,107.3v54.247a11.3,11.3,0,0,0,11.3,11.3H97.192a11.3,11.3,0,0,0,11.3-11.3V120.862A11.224,11.224,0,0,0,102.856,111.089Z" transform="translate(96 443.512)" fill="#c09553"/></g><g transform="translate(-292 -20.4)"><rect width="60.4" height="60.4" rx="2.761" transform="translate(394.6 1622.5)" fill="#414141"/><path d="M17.714,11.925h37.75a5.79,5.79,0,0,1,5.79,5.79v37.75a5.787,5.787,0,0,1-5.787,5.787H17.714a5.79,5.79,0,0,1-5.79-5.79V17.715a5.79,5.79,0,0,1,5.79-5.79Z" transform="translate(388.21 1616.112)" fill="#c2c2c2"/><path d="M15.085,13.325H52.838a1.76,1.76,0,0,1,1.76,1.76V52.838A1.763,1.763,0,0,1,52.835,54.6H15.088a1.763,1.763,0,0,1-1.763-1.763V15.085a1.76,1.76,0,0,1,1.76-1.76Z" transform="translate(390.838 1618.738)" fill="#414141"/><path d="M46.932,33.759H43.769a12.031,12.031,0,0,1-2.131,5.088l2.243,2.243a2.013,2.013,0,0,1-2.847,2.847l-2.261-2.261a12.034,12.034,0,0,1-5.065,2.048v3.247a2.013,2.013,0,1,1-4.027,0V43.691a12.08,12.08,0,0,1-4.97-2.114l-2.358,2.358a2.013,2.013,0,0,1-2.847-2.847l2.376-2.376a12.08,12.08,0,0,1-2.033-4.956H16.479a2.013,2.013,0,0,1,0-4.027h3.377a12.08,12.08,0,0,1,2.033-4.953L19.514,22.4a2.013,2.013,0,0,1,2.847-2.847l2.356,2.358A12.08,12.08,0,0,1,29.69,19.8V16.519a2.013,2.013,0,0,1,4.027,0v3.247a12.045,12.045,0,0,1,5.068,2.051l2.261-2.264A2.013,2.013,0,0,1,43.892,22.4l-2.246,2.246a12.051,12.051,0,0,1,2.131,5.085h3.164a2.013,2.013,0,1,1,0,4.027Z" transform="translate(392.979 1620.954)" fill="#c2c2c2"/><circle cx="8.117" cy="8.117" r="8.117" transform="translate(416.683 1644.583)" fill="#414141"/><circle cx="3.224" cy="3.224" r="3.224" transform="translate(421.576 1649.476)" fill="#c2c2c2"/></g></g></svg>