<svg xmlns="http://www.w3.org/2000/svg" width="108.493" height="76.85" viewBox="0 0 108.493 76.85"><g transform="translate(-70 -588.488)"><path d="M117.206,53.334H33.653A12.257,12.257,0,0,0,21.483,67.219a2.457,2.457,0,0,0,3.681,1.8,6.96,6.96,0,0,1,3.573-.944h17.5a7.412,7.412,0,0,1,6.989,5l.418,1.347A12.346,12.346,0,0,0,65.3,82.823h56.816a7.372,7.372,0,0,1,3.671.983,2.462,2.462,0,0,0,3.7-2.123V65.621A12.287,12.287,0,0,0,117.206,53.334Z" transform="translate(49 535.225)" fill="#ef5734"/><path d="M102.856,111.089a11.235,11.235,0,0,0-5.664-1.528H44.934a6.817,6.817,0,0,1-6.428-4.6l-.384-1.239A11.355,11.355,0,0,0,27.395,96H11.3a10.816,10.816,0,0,0-5.533,1.46A11.274,11.274,0,0,0,0,107.3v54.247a11.3,11.3,0,0,0,11.3,11.3H97.192a11.3,11.3,0,0,0,11.3-11.3V120.862A11.224,11.224,0,0,0,102.856,111.089Z" transform="translate(70 492.49)" fill="#ffcc2f"/><g transform="translate(-182 206.94)"><path d="M62.209,35.382c-2.737-2.63-16.423-4.272-20.741-4.749A12.67,12.67,0,0,0,42,29.113a17.282,17.282,0,0,1,1.88-.7c.081.236.456,1.14.672,1.571,8.684.241,9.123-6.454,9.482-8.286a10.352,10.352,0,0,1,3.294-6.692c-4.437-1.292-10.82,2-12.957,6.913a13.332,13.332,0,0,0-2.4-.661,11.657,11.657,0,0,0-11.34-8.715A21.2,21.2,0,0,0,10.008,34.462c0,11.588,7.911,21.745,12.384,21.745a4.4,4.4,0,0,0,4.027-2.772c.329.9,1.346,3.692,1.678,4.4.492,1.052,2.77,1.961,3.766.869a3.669,3.669,0,0,0,4.913-.76,3.636,3.636,0,0,0,4.693-2.691c1.211-.066,1.8-1.774,1.541-3.119a33.266,33.266,0,0,0-3.1-5.816c1.607,1.308,5.679,1.678,6.173,0,2.592,2.027,6.632.965,6.951-.687,3.15.818,6.761-.978,6.168-3.155a4.267,4.267,0,0,0,3.008-7.1Z" transform="translate(289.6 391.5)" fill="#543729"/><path d="M26.979,21.675a19.3,19.3,0,0,1,4.175-5.963,10.818,10.818,0,0,0-4.877,5.494,17.084,17.084,0,0,0-1.715-.96,11.134,11.134,0,0,1,9.093-6.266c-2.65,2.4-1.71,7.4-3.887,10.042a28.541,28.541,0,0,0-2.788-2.346Zm-1.712,3.508a8.765,8.765,0,0,1,.091-1.01,9.164,9.164,0,0,0-1.589-.21,5.981,5.981,0,0,0,.553,2.3,8.292,8.292,0,0,0,4.324-1.2,14.467,14.467,0,0,0-2.917-.823c-.114.225-.366.78-.465.942Z" transform="translate(310.756 393.688)" fill="#00acee"/><path d="M21.913,30.647h0c-.253-.548-.525-1.215-.849-2.089,1.263,1.834,5.208.889,5-.758,1.932,1.455,5.913-.253,5.009-2.273,1.937.9,4.147-.914,3.65-1.7,3.3.636,6.466,1.263,7.459,1.515a3.849,3.849,0,0,1-4.428,1.308c1.225,1.667-1.152,3.667-4.463,2.566.727,1.637-2.218,3.109-5.557,1.4C27.77,32.269,23.572,32.458,21.913,30.647Zm6.549-8.277c3.832.293,10.169.866,14.091,1.414-.253-1.276-.924-1.642-3.054-2.213-2.293.245-8.1.828-11.038.8Z" transform="translate(306.662 405.369)" fill="#2baf2b"/><path d="M40.794,29.409c1.94,1.455,5.937-.253,5.029-2.273,1.945.9,4.164-.914,3.665-1.7-3.918-.758-8.032-1.515-8.962-1.639.566.03,1.5.093,2.673.184,2.947.015,8.782-.556,11.08-.8A112.1,112.1,0,0,0,37.7,20.528a7.521,7.521,0,0,1-1.468,1.594,12.8,12.8,0,0,1-11.062,8.057,14.9,14.9,0,0,1-4.527-.758,9.672,9.672,0,0,1-9.155.194,18.515,18.515,0,0,0,16.951,11.2c6.226,0,8.985-6.332,8.382-8.007-.147-.407-.728-1.768-1.052-2.627C37.036,32,41,31.05,40.794,29.409Z" transform="translate(291.881 403.833)" fill="#ffcc2f"/><path d="M21.885,22.871a17.964,17.964,0,0,1,4.243-1.877c-.028-.2-.051-.4-.063-.6-1.182.283-3.412,1.24-4.69-.078,2.695.813,4.041-.725,6.024-.725a12.737,12.737,0,0,1,4.193.851,14.144,14.144,0,0,0-8.908-3.976,6.234,6.234,0,0,0-.8,6.408Z" transform="translate(307.029 397.516)" fill="#cecece"/><path d="M21.519,40.224a14.786,14.786,0,0,0,4.509.758,12.758,12.758,0,0,0,11.017-8.057,14.177,14.177,0,0,1-9.224,2.622,14.437,14.437,0,0,0,9.4-5.946,7.994,7.994,0,0,1,.833-9.941A9.345,9.345,0,0,0,29.2,13.438,18.789,18.789,0,0,0,10.91,33.028,18.739,18.739,0,0,0,12.4,40.416,9.6,9.6,0,0,0,21.519,40.224Z" transform="translate(290.97 392.862)" fill="#ef5734"/><path d="M16.288,20.071a4.62,4.62,0,1,0,4.62-4.62A4.62,4.62,0,0,0,16.288,20.071Z" transform="translate(299.264 395.964)" fill="#ffcc2f"/><path d="M17.022,18.958A2.778,2.778,0,1,0,19.8,16.18,2.778,2.778,0,0,0,17.022,18.958Z" transform="translate(300.386 397.08)" fill="#543729"/><ellipse cx="1.611" cy="1.003" rx="1.611" ry="1.003" transform="translate(318.564 413.808)" fill="#fff"/></g></g></svg>