<svg xmlns="http://www.w3.org/2000/svg" viewBox="0 0 127.63 79.56"><defs><style>.cls-1{fill:#7ead77;}.cls-2{fill:#5e7a63;}.cls-3{fill:#4ca046;stroke:#4ca046;stroke-miterlimit:10;stroke-width:4px;}</style></defs><g id="Camada_2" data-name="Camada 2"><g id="Camada_1-2" data-name="Camada 1"><path class="cls-1" d="M96.21,1.07H12.65A12.27,12.27,0,0,0,.37,13.3,12.82,12.82,0,0,0,.48,15a2.46,2.46,0,0,0,2.76,2.12,2.35,2.35,0,0,0,.92-.32,7,7,0,0,1,3.58-.94h17.5a7.43,7.43,0,0,1,7,5l.41,1.35a12.36,12.36,0,0,0,11.66,8.4h56.82a7.42,7.42,0,0,1,3.67,1,2.45,2.45,0,0,0,3.36-.89,2.42,2.42,0,0,0,.34-1.23V13.36A12.28,12.28,0,0,0,96.21,1.07Z"/><path class="cls-2" d="M102.86,15.09a11.29,11.29,0,0,0-5.67-1.53H44.93A6.8,6.8,0,0,1,38.51,9l-.39-1.24A11.35,11.35,0,0,0,27.4,0H11.3A10.84,10.84,0,0,0,5.77,1.46,11.26,11.26,0,0,0,0,11.3V65.55a11.3,11.3,0,0,0,11.3,11.3H97.19a11.3,11.3,0,0,0,11.3-11.3h0V24.86A11.22,11.22,0,0,0,102.86,15.09Z"/><g id="SVGRepo_iconCarrier" data-name="SVGRepo iconCarrier"><rect class="cls-3" x="74.68" y="52.05" width="25.47" height="25.47"/><polygon class="cls-3" points="113.07 26.58 111.83 26.58 106.61 26.58 106.61 30.89 111.83 30.89 113.07 30.89 121.31 30.89 121.31 33.04 121.31 40.41 121.31 45.69 125.63 45.69 125.63 40.41 125.63 33.04 125.63 30.89 125.63 26.61 125.63 26.58 113.07 26.58"/><polygon class="cls-3" points="121.29 69.66 121.31 69.66 121.31 73.25 113.07 73.25 111.83 73.25 106.61 73.25 106.61 77.53 111.83 77.53 111.83 77.56 125.63 77.56 125.63 77.53 125.63 73.25 125.63 69.66 125.63 63.73 125.63 58.42 121.29 58.42 121.29 69.66"/><polygon class="cls-3" points="79.01 38.34 78.99 38.34 78.99 30.86 85.21 30.86 88.48 30.86 93.87 30.86 93.87 26.55 88.48 26.55 85.21 26.55 74.68 26.55 74.68 26.58 74.68 30.86 74.68 38.34 74.68 40.38 74.68 45.69 79.01 45.69 79.01 38.34"/></g></g></g></svg>