<svg xmlns="http://www.w3.org/2000/svg" width="108.49" height="120.506" viewBox="0 0 108.49 120.506"><defs><style>.a{fill:#cc9a69;}.b{fill:#ba8856;}.c{fill:#fba919;}.d{fill:#e78724;}.e{fill:#fff;}.f{fill:#c9c9c9;}.g{fill:#463014;}</style></defs><g transform="translate(-215 -317)"><path class="a" d="M121.846,74.667H53.978c-6.247,0-11.311,11.193-11.311,25v10c0,2.762,1.013,5,2.262,5H64.294c.965.01,1.824,1.352,2.149,3.36l2.466,16.491c.951,6.052,3.526,10.12,6.425,10.15h55.561c1.249,0,2.262-2.239,2.262-5v-40C133.157,85.86,128.093,74.667,121.846,74.667Z" transform="translate(181.333 242.333)"/><path class="b" d="M101.709,155.135H41.678a2.4,2.4,0,0,1-2.147-1.844l-2.464-9.052c-.952-3.321-3.523-5.553-6.419-5.572H6.781C3.036,138.667,0,142.353,0,146.9a93.392,93.392,0,0,0,2.672,22.308l9.041,36.515c1.432,5.819,5.843,9.8,10.845,9.793H86.385c4.728.016,8.964-3.542,10.618-8.92l9.764-31.629a39.708,39.708,0,0,0,1.722-11.6C108.49,158.821,105.454,155.135,101.709,155.135Z" transform="translate(215 188.333)"/><g transform="translate(111 -231.637)"><path class="c" d="M18.014,26.84s1.468,5.654,1.675,7.542-3.771,6.07-3.771,8.153a8.182,8.182,0,0,0,5.446,7.746A9.6,9.6,0,0,1,26.6,59.914,42.758,42.758,0,0,1,24.924,68.5s-1.044,14.032,4.607,16.543,4.4,2.54,5.654,2.54,10.477,3.763,15.9,2.307a14.883,14.883,0,0,0,6.93-3.131,7.1,7.1,0,0,0,7.122-4.4,56.84,56.84,0,0,0,2.091-19.478c-.628-4.607-1.463-10.677,2.3-12.772s7.746-4.607,7.122-6.7a16.2,16.2,0,0,0-3.975-5.026,20.762,20.762,0,0,1-.212-6.49c.628-1.256,4.4-4.4,2.3-6.7a8.858,8.858,0,0,0-5.87-2.328l-4.814.408a29.531,29.531,0,0,0-18.85-6.93,28.353,28.353,0,0,0-17.379,6.93,10.762,10.762,0,0,0-6.7,0C18.01,24.557,17.387,23.3,18.014,26.84Zm18.618-9.327a4.847,4.847,0,0,1-2.927-1.79A10.134,10.134,0,0,0,25.552,11.3a36.8,36.8,0,0,0-8.765,1.174l3.808,2.4c.408,0,1.1,0,2.267.033a5.83,5.83,0,0,1,5.5,4.892l16.828-2.336m9.486.033a4.839,4.839,0,0,0,2.923-1.79,10.118,10.118,0,0,1,8.153-4.423,36.534,36.534,0,0,1,8.765,1.17l-3.808,2.4c-.408,0-1.1,0-2.271.033a5.83,5.83,0,0,0-5.5,4.892L46.123,17.464" transform="translate(132.114 577.46)"/><path class="d" d="M37.449,56.047S33.3,62.391,30.258,66.891c-.469.7,3.057.742,3.057.742ZM39.426,42.9s-1.252,3.119-1.936,4.774c-.742,1.8-3.575,2.691-3.575,2.691a8.153,8.153,0,0,0,1.468-5.446c0-1.631,2.116-2.287,2.116-2.287l1.928.269Zm-1.264,1.777a6.547,6.547,0,0,1-7.317,1.341C26.088,44.311,25.6,38.212,25.6,36.5s9.026,1.708,10.244,2.446,3.534,3.669,2.32,5.736ZM20.217,12.1a10.086,10.086,0,0,1,7.338,1.455,13.371,13.371,0,0,1,3.771,4.154L26.4,21.621a6.331,6.331,0,0,1-3.115-4.276c-.73-3.172-.245-4.635-3.057-5.247ZM36.882,35.868A10.216,10.216,0,0,0,29.39,31.82a9.682,9.682,0,0,0-6.258,1.17s6.93.306,8.968,2.923c3.726,4.892,9.172,5.3,10.037,4.215a4.631,4.631,0,0,1-3.3-1.569A18.222,18.222,0,0,1,36.882,35.868ZM25.158,45.346s-7.709-2.65-6.245-5.332.306-4.146.306-4.146S14.91,39.093,16,42.509c.673,2.091,1.806,3.612,8.015,6.523,2.98,5.532.611,15.491.754,15.536.236.077,4.183-1.953,3.914-11.264-.086-2.854-.306-6.767-3.534-7.949Zm10.09-28.487c-3.233,1.631-7.644,3.93-7.644,3.93l1.741.872c-.163.269-.249.428-.249.428l1.79.815s4.366,3.159,7.032,5.2a45.193,45.193,0,0,0-3.51-7.061,4.7,4.7,0,0,1,.852-4.174ZM45.981,83.776c-9.935,0-13.3-5.043-13.3-5.043l1.553,3.779a17.4,17.4,0,0,0,11.724,6.735M33.78,75.338s.917,5.585,4.586,5.585c3.11,0,4.028-4.717,4.028-5.707l-8.6.106Zm-6.09-8.422a40.1,40.1,0,0,0,1.834-7.807,87.705,87.705,0,0,0,.281-9.71s-.978,3.783-1.834,4.39a19.4,19.4,0,0,0-2.446,4.757s-.852,6.172-1.256,8.255c1.121.224,2.063-.436,3.416.122Zm-8.834-24.46s2.071-.734,2.682-5.242a20.281,20.281,0,0,0-.73-8.418,29.058,29.058,0,0,1-.611,7.44c-.73,1.223-1.341,1.582-2.193,3.168a2.352,2.352,0,0,0,.852,3.057Zm35.6,13.591s4.146,6.343,7.191,10.844c.473.7-3.057.742-3.057.742ZM52.488,42.9s1.247,3.119,1.932,4.774c.746,1.8,3.579,2.691,3.579,2.691a8.1,8.1,0,0,1-1.468-5.446c0-1.631-2.116-2.287-2.116-2.287l-1.928.269Zm1.26,1.777a6.547,6.547,0,0,0,7.338,1.341c4.757-1.7,5.242-7.8,5.242-9.515S57.3,38.212,56.083,38.95s-3.538,3.669-2.32,5.736ZM71.713,12.1a10.085,10.085,0,0,0-7.338,1.463A13.388,13.388,0,0,0,60.6,17.707l4.933,3.909a6.347,6.347,0,0,0,3.119-4.28c.73-3.172.245-4.635,3.057-5.242ZM55.044,35.868a10.192,10.192,0,0,1,7.493-4.048,9.682,9.682,0,0,1,6.249,1.17s-6.93.306-8.969,2.923c-3.726,4.892-9.172,5.3-10.028,4.215a4.619,4.619,0,0,0,3.294-1.569,18.553,18.553,0,0,0,1.961-2.691Zm11.724,9.478s7.7-2.65,6.241-5.332-.306-4.146-.306-4.146,4.3,3.216,3.208,6.629c-.673,2.1-1.806,3.616-8.015,6.523-2.976,5.532-.611,15.491-.754,15.536-.236.077-4.179-1.953-3.909-11.264C63.319,50.438,63.547,46.533,66.768,45.346ZM56.662,16.867c3.233,1.631,7.644,3.93,7.644,3.93l-1.741.872c.163.269.245.432.245.432l-1.786.815s-4.366,3.163-7.032,5.2a45.194,45.194,0,0,1,3.51-7.061A4.692,4.692,0,0,0,56.662,16.867ZM45.932,83.789c9.931,0,13.3-5.043,13.3-5.043l-1.549,3.779a17.4,17.4,0,0,1-11.72,6.722M58.13,75.338s-.917,5.585-4.586,5.585c-3.11,0-4.028-4.717-4.028-5.707Zm6.115-8.422a40.4,40.4,0,0,1-1.834-7.807,87.7,87.7,0,0,1-.277-9.71s.974,3.783,1.834,4.39a19.686,19.686,0,0,1,2.446,4.757s.848,6.172,1.252,8.255c-1.117.224-2.059-.436-3.412.122Zm8.834-24.46s-2.071-.734-2.682-5.242a20.416,20.416,0,0,1,.73-8.418,29.241,29.241,0,0,0,.611,7.44c.73,1.223,1.341,1.582,2.2,3.168a2.364,2.364,0,0,1-.856,3.045ZM45.973,32.505a9.274,9.274,0,0,1-5.442-1.223S42.655,35,45.969,35h0a7.407,7.407,0,0,0,5.442-3.722,9.262,9.262,0,0,1-5.45,1.223Z" transform="translate(131.815 579.438)"/><path class="e" d="M38.317,24.611a6.624,6.624,0,0,1-5.772,1.545c-3.5-.734-5.609-2.279-5.772-4.961a5.516,5.516,0,0,1,.734-3.738,20.383,20.383,0,0,1,5.772,2.854c1.871,1.631,3.261,4.227,5.039,4.309Zm-5.45,29.152a6.07,6.07,0,0,1,0-2.409,11.047,11.047,0,0,0-2.915-1.035c-.77-.489-4.737.5-7.615-2.976-3.6-4.358-2.854-6.963-2.854-6.963-.917,1.027-1.834.636-3.229,5.426a10.371,10.371,0,0,0,4.525,11.476A12.3,12.3,0,0,0,27.4,59.768c-.742-.746,1.268-.815,2.658-1.341a3.71,3.71,0,0,1,.917-3.082,4.684,4.684,0,0,1,1.834-1.1l.1-.249a.758.758,0,0,0-.041-.236ZM53.1,24.611a6.62,6.62,0,0,0,5.772,1.545c3.5-.734,5.609-2.279,5.772-4.961a5.516,5.516,0,0,0-.734-3.738,20.383,20.383,0,0,0-5.772,2.854c-1.859,1.6-3.253,4.219-5.031,4.3Zm5.446,29.152a6.07,6.07,0,0,0,0-2.409,11.047,11.047,0,0,1,2.915-1.035c.775-.489,4.741.5,7.619-2.976,3.6-4.358,2.854-6.963,2.854-6.963.917,1.027,1.834.636,3.229,5.426A10.367,10.367,0,0,1,70.64,57.281a12.3,12.3,0,0,1-6.624,2.487c.746-.746-1.268-.815-2.654-1.341a3.722,3.722,0,0,0-.917-3.082,4.745,4.745,0,0,0-1.834-1.1L58.5,54a1.629,1.629,0,0,0,.057-.232Z" transform="translate(132.06 596.451)"/><path class="f" d="M35.163,21.882a6.221,6.221,0,0,1-4.183.171A4.684,4.684,0,0,1,27.9,18.079s-1.773,5.2,3.2,6.2a7.26,7.26,0,0,0,6.343-1.5l-2.279-.9Zm-5.507,34.6c-.077-.236-.139-.473-.2-.717s-.383-1.007,0-.159a2.914,2.914,0,0,1-.216-.669c-6.258,0-11.7-4.3-10.652-13.33-.815-1.088-1.965,2.189-1.965,2.189s-3.11,9.095,4.969,12.617a12.462,12.462,0,0,0,5.638,1.68,2.825,2.825,0,0,0,2.621-1.117c-.073-.163-.139-.33-.2-.5Zm25.784-34.6a6.221,6.221,0,0,0,4.183.171A4.684,4.684,0,0,0,62.7,18.079s1.769,5.2-3.2,6.2a7.256,7.256,0,0,1-6.343-1.5l2.275-.9Zm5.524,34.6c.082-.236.143-.473.2-.717s.383-1.007,0-.159a3.37,3.37,0,0,0,.216-.669c6.253,0,11.7-4.3,10.644-13.33.815-1.088,1.965,2.189,1.965,2.189s3.131,9.095-4.953,12.617a12.462,12.462,0,0,1-5.638,1.68,2.825,2.825,0,0,1-2.625-1.117,4.686,4.686,0,0,0,.2-.5Z" transform="translate(132.467 598.365)"/><path class="g" d="M26.177,44.864v0Zm-.86-3.2a2.393,2.393,0,0,1,1.088-1.9c-.717-.265-1.419-.571-2.161-.775a14.509,14.509,0,0,1,13.9,5.312,4.814,4.814,0,0,0,5.94,1.463,3.616,3.616,0,0,1-1.447,2.544,3.538,3.538,0,0,1-2.108.644,9.119,9.119,0,0,1-2.3,5.516,8.418,8.418,0,0,0,.444-4.223,12.522,12.522,0,0,0-.563-1.378,7.256,7.256,0,0,1-9.115-1.048,10.338,10.338,0,0,1-2.1-5.744,7.745,7.745,0,0,0-.709,2.764,5.271,5.271,0,0,1-.868-3.176Zm4.749-.22a5.891,5.891,0,0,0,1.158,5.838,5.707,5.707,0,0,0,6.323.236,26.53,26.53,0,0,0-7.481-6.074ZM41.807,80H36.89a2.144,2.144,0,0,0-1.586.477,1.162,1.162,0,0,0-.147,1.321,8.679,8.679,0,0,0,2.3,3.033,3.053,3.053,0,0,0,1.965.7h0a2.479,2.479,0,0,0,1.834-.746,12.165,12.165,0,0,0,2.181-3.233,1.007,1.007,0,0,0-.147-1.113A2.038,2.038,0,0,0,41.815,80ZM68.178,44.864v0Zm-17.9.9A4.814,4.814,0,0,0,56.213,44.3,14.509,14.509,0,0,1,70.107,39c-.742.2-1.443.51-2.161.775a2.393,2.393,0,0,1,1.088,1.9,5.3,5.3,0,0,1-.86,3.176,7.745,7.745,0,0,0-.705-2.76,10.387,10.387,0,0,1-2.1,5.74A7.264,7.264,0,0,1,56.25,48.88a13.519,13.519,0,0,0-.558,1.378,8.4,8.4,0,0,0,.444,4.219,9.083,9.083,0,0,1-2.3-5.516,3.551,3.551,0,0,1-2.112-.644,3.636,3.636,0,0,1-1.443-2.552ZM56.8,47.518a5.707,5.707,0,0,0,6.327-.236,5.891,5.891,0,0,0,1.158-5.838,26.5,26.5,0,0,0-7.481,6.07Zm2.242,32.951a2.132,2.132,0,0,0-1.578-.481h-4.92a2.038,2.038,0,0,0-1.48.444,1.015,1.015,0,0,0-.151,1.113,12.328,12.328,0,0,0,2.181,3.233h0a2.5,2.5,0,0,0,1.834.746,3.086,3.086,0,0,0,1.965-.705,8.642,8.642,0,0,0,2.291-3.033,1.146,1.146,0,0,0-.139-1.317ZM47.163,41.4h0c2.14-.024,4.57-2.976,4.57-2.976a8.227,8.227,0,0,1-9.136,0S45.031,41.37,47.163,41.4ZM73.47,63.07a12.16,12.16,0,0,1,3.453,11.842,11.329,11.329,0,0,1-7.929,9.144,13.938,13.938,0,0,1-11.162,8.275,16.013,16.013,0,0,1-10.656,3.286,16.029,16.029,0,0,1-10.664-3.294,13.946,13.946,0,0,1-11.154-8.275A11.321,11.321,0,0,1,17.433,74.9a12.148,12.148,0,0,1,3.449-11.842A11.794,11.794,0,0,0,24.958,70.3a91.573,91.573,0,0,0,.648-10.355,5.6,5.6,0,0,0-2.038-4.358c-.428-.245-.9-.5-1.382-.762-3.009-1.61-6.759-3.616-6.759-7.313a5.377,5.377,0,0,1,2.585-4.651c.13-.1.253-.188.363-.277a2.548,2.548,0,0,0,.722-.726,13.249,13.249,0,0,0,.277-6.29,8.667,8.667,0,0,1-1.965-6.547,4.456,4.456,0,0,1,2.36-2.854,8.084,8.084,0,0,1,3.261-.726,2.413,2.413,0,0,1,.159-1.011,4.562,4.562,0,0,0,.155-1.349,5.022,5.022,0,0,0-.363-1.879,8.475,8.475,0,0,0-4.847-2.943L16.1,17.849l1.358-1.59a11.414,11.414,0,0,1,7.721-2.927,13.245,13.245,0,0,1,4.028.652,19.523,19.523,0,0,1,8.259,6.629c.322-.106.652-.179.982-.269a8.834,8.834,0,0,1,4.708-8.153c.069.754-.069,3.706,1.194,4.611.371-2.409,1.631-5.063,6.543-6.8a8.247,8.247,0,0,0,.306,6.229c3.363-3.057,5.626-2.548,5.626-2.548A10.33,10.33,0,0,0,55.394,20.2c.514.135,1.027.261,1.533.408a19.568,19.568,0,0,1,8.247-6.616,13.122,13.122,0,0,1,4.028-.656,11.414,11.414,0,0,1,7.746,2.923l1.357,1.59-2.067.408A8.512,8.512,0,0,0,71.378,21.2a4.973,4.973,0,0,0-.359,1.883,4.533,4.533,0,0,0,.151,1.345,2.446,2.446,0,0,1,.163,1.007,8.039,8.039,0,0,1,3.261.726,4.484,4.484,0,0,1,2.36,2.854,8.687,8.687,0,0,1-1.969,6.547,13.249,13.249,0,0,0,.281,6.29,2.5,2.5,0,0,0,.722.726c.11.09.232.179.363.277a5.365,5.365,0,0,1,2.56,4.656c0,3.7-3.75,5.707-6.759,7.313-.493.265-.966.518-1.39.766h0a5.6,5.6,0,0,0-2.038,4.358,91.573,91.573,0,0,0,.648,10.355,11.785,11.785,0,0,0,4.1-7.244Zm-13.6-41.333c.265.114.538.2.815.322a12.576,12.576,0,0,1,1.223.632,8.059,8.059,0,0,1,3.4-3.746,8.561,8.561,0,0,1,6.364-1.3,8.871,8.871,0,0,1,1.594-.954,10.8,10.8,0,0,0-4.13-.836,9.539,9.539,0,0,0-2.951.457A14.9,14.9,0,0,0,59.874,21.738Zm7.876,4.007a4.382,4.382,0,0,0,.815-2.854,6.473,6.473,0,0,1,.73-2.976c.139-.2.334-.338.485-.522a5.5,5.5,0,0,0-3.359,1.154A8.455,8.455,0,0,0,64.2,24.355a12.878,12.878,0,0,1,1.7,1.879A17.231,17.231,0,0,1,67.75,25.745Zm-39.306.477a12.824,12.824,0,0,1,1.7-1.875,8.438,8.438,0,0,0-2.234-3.816,5.5,5.5,0,0,0-3.359-1.154c.151.188.351.326.485.526a6.416,6.416,0,0,1,.734,2.976,4.386,4.386,0,0,0,.836,2.854c.624.126,1.223.318,1.834.489Zm5.242-4.154c.261-.122.53-.2.791-.318a14.928,14.928,0,0,0-6.311-5.438,9.564,9.564,0,0,0-2.956-.457,10.8,10.8,0,0,0-4.126.836,8.969,8.969,0,0,1,1.59.95,8.561,8.561,0,0,1,6.368,1.3,8.068,8.068,0,0,1,3.4,3.763,12.675,12.675,0,0,1,1.239-.636ZM27.979,59.2a112.275,112.275,0,0,1-.587,12.662A21.381,21.381,0,0,0,33.915,73c.355-.726.746-1.435,1.027-2.193h0c.11-.306,3.261-8.524,4.411-10.4a75.417,75.417,0,0,1-3.926,14.92,7.484,7.484,0,0,1,1.981-.061H56.951a7.656,7.656,0,0,1,1.957.057,75.714,75.714,0,0,1-3.926-14.916c1.137,1.871,4.3,10.09,4.411,10.4h0A22.32,22.32,0,0,0,60.421,73a21.373,21.373,0,0,0,6.523-1.137A111.325,111.325,0,0,1,66.36,59.2a6.987,6.987,0,0,1,3.188-5.707c.457-.261.917-.518,1.406-.779,2.483-1.341,5.055-2.731,5.055-5.1a3.261,3.261,0,0,0-1.488-3.057l-.082-.065c-.114-.082-.2-.188-.31-.277.126.815.241,1.631.408,2.446a15.491,15.491,0,0,1-2.629-7.415,18.479,18.479,0,0,1,.852-7.2c0,.872.061,1.737.126,2.6.057-.183.082-.375.147-.558A6.465,6.465,0,0,0,74.6,29.65a2.038,2.038,0,0,0-1.125-1.3,5.54,5.54,0,0,0-2.523-.489,19.919,19.919,0,0,0-5.5,1,41.145,41.145,0,0,0-10.7,6.306l-.069.057-.917.644.583-.974a21.337,21.337,0,0,1,8.932-7.7,8.7,8.7,0,0,0-3.669-2.609,28.129,28.129,0,0,0-12.43-2.633,28.092,28.092,0,0,0-12.43,2.642,8.805,8.805,0,0,0-3.669,2.6,21.353,21.353,0,0,1,8.936,7.7l.579.974-.917-.644-.069-.057a41.145,41.145,0,0,0-10.7-6.306,19.918,19.918,0,0,0-5.5-1,5.552,5.552,0,0,0-2.523.489,2.038,2.038,0,0,0-1.121,1.3,6.461,6.461,0,0,0,1.561,4.443c.065.183.09.375.147.563.065-.868.139-1.737.126-2.609a18.4,18.4,0,0,1,.852,7.2,15.491,15.491,0,0,1-2.629,7.415c.155-.815.273-1.631.408-2.47a3.381,3.381,0,0,1-.31.281l-.082.065a3.261,3.261,0,0,0-1.484,3.057c0,2.373,2.568,3.763,5.051,5.1.489.261.954.518,1.406.779A7,7,0,0,1,27.987,59.2ZM24.693,81.109h2.132a11.172,11.172,0,0,0,.359,1.08,11.872,11.872,0,0,0,3.445.465,5.1,5.1,0,0,1,.432-4.937H31a24.234,24.234,0,0,0,1.631-2.344,12.556,12.556,0,0,1-12.344-7.587,12.152,12.152,0,0,0,.611,9.873,11.761,11.761,0,0,0,3.8,3.449Zm8.968,7.99a23.6,23.6,0,0,1-2.006-3.8,29.031,29.031,0,0,1-3.11-.408,11.716,11.716,0,0,0,5.116,4.2ZM47.18,93.3a14.3,14.3,0,0,0,14.2-10.831h0a3.832,3.832,0,0,0-.143-3.852A5.247,5.247,0,0,0,57.119,77.4H37.245a5.238,5.238,0,0,0-4.117,1.223,3.824,3.824,0,0,0-.143,3.852A14.293,14.293,0,0,0,47.176,93.3Zm18.634-8.41a29.032,29.032,0,0,1-3.11.408,23.562,23.562,0,0,1-2.038,3.8,11.716,11.716,0,0,0,5.145-4.211Zm8.271-17.1a12.584,12.584,0,0,1-12.344,7.587A20.535,20.535,0,0,0,63.078,77.3h0c.1.13.175.281.285.408h-.045a5.1,5.1,0,0,1,.408,4.933,11.59,11.59,0,0,0,3.441-.465c.126-.355.265-.7.359-1.072h2.12a11.684,11.684,0,0,0,3.82-3.449,12.136,12.136,0,0,0,.616-9.865Z" transform="translate(130.6 573.5)"/></g></g></svg>