<svg xmlns="http://www.w3.org/2000/svg" viewBox="0 0 108.49 86.85"><defs><style>.cls-1{fill:#dcb67a;}.cls-2{fill:#c09553;}.cls-3{fill:#c2c2c2;}</style></defs><g id="Camada_2" data-name="Camada 2"><g id="Camada_1-2" data-name="Camada 1"><path class="cls-1" d="M88.18,0H20.31C14.06,0,9,11.19,9,25V35c0,2.76,1,5,2.26,5H30.63c1,0,1.82,1.35,2.15,3.36l2.46,16.49C36.19,65.9,38.77,70,41.67,70H97.23c1.25,0,2.27-2.24,2.27-5V25C99.49,11.19,94.43,0,88.18,0Z"/><path class="cls-2" d="M101.71,26.47h-60a2.4,2.4,0,0,1-2.15-1.85l-2.46-9c-1-3.32-3.53-5.55-6.42-5.57H6.78C3,10,0,13.69,0,18.23A93.65,93.65,0,0,0,2.67,40.54l9,36.52c1.44,5.81,5.85,9.8,10.85,9.79H86.39c4.72,0,9-3.54,10.61-8.92l9.77-31.63a40,40,0,0,0,1.72-11.6C108.49,30.15,105.45,26.47,101.71,26.47Z"/><g id="SVGRepo_iconCarrier" data-name="SVGRepo iconCarrier"><path class="cls-3" d="M93.48,62.6c0,2-3.8,3.33-2.27,5.28,3.37.48,1.84,2.74,3.68,3.5-3.26,5.38-8.53,6.05-13.54,2.68a5.9,5.9,0,0,0-4.44-.88c-.76,1.24.38,1.38,1.1,1.56,3.52.71,7.08,6.21,19,1,1.59-.67,1.35-2.66.66-4.22,1.32-.57,1.4-2.06,1.59-4C100.55,63.23,96.3,63.6,93.48,62.6ZM74.75,53.27a15.83,15.83,0,0,0-5,2.12c2,1.18,2.79,2.59,5,2.15s2.18-1.88,1.3-3.56a1.29,1.29,0,0,0-1.3-.71ZM84.13,25c-2.72.13-5,7.47-7.81,12.68-7.95,3.34-9.94-1-12.54-.28C59.36,28.27,52.79,19.13,51,30c.39,8.21-2.85,8.88-2.56,20.59,0,0-5.79,11.76-3.42,22.17A13.79,13.79,0,0,0,56.46,83.5c.42-3,5.07-9.76,3.79-11.34-3.18-3.93-2.18-13.58,5.87-14.58,1.11-8.11,6.56-6.58,6-8.93-1.75-7.35,5.8-3.92,7.07-1.51,2.27,3.82,3.88,7.57,5.74,9.35a18.91,18.91,0,0,0,5.76,3.57c-.67-.41-6.46-5.37-8.16-9.35a26.87,26.87,0,0,1-.91-7.78c2.94-.47,4.12,4.53,7.31,9.06a1,1,0,0,1,0,.81c-.44-.23-.59-.82-1.12-.89s-.87.69-.87,1.54.63,1.15,1.51,1.55a7.35,7.35,0,0,0,3.7,3.51L88.23,46.89c-.15-7.28.62-14.55-3.56-21.83A1.64,1.64,0,0,0,84.13,25Zm0,2.32c.22,0,.42.15.6.49C86.94,31.92,87,41.63,87,45.07c-1-2.38-2.58-6.38-7.46-7.6,0,0,2.85-10.13,4.62-10.17Zm-29.24.93c1,0,2.12.58,3.42,3,2.1,3.86,3.6,6.43,4.33,7.77,1.49,2.71-.66.57-1.33,7.54a3.28,3.28,0,0,1-1.65,2.74A22.84,22.84,0,0,1,54.9,38.68c-2.08,3.13,1.35,8,1.41,12.11a8.81,8.81,0,0,1-4.67.06c-1.08-.55-1.43-7.17.56-12.32,1.65-4.28.87-9.73,1.61-10C54.32,28.4,54.32,28.23,54.92,28.23Z"/></g></g></g></svg>