<svg xmlns="http://www.w3.org/2000/svg" width="133.284" height="113.75" viewBox="0 0 133.284 113.75"><g transform="translate(-1651 -361)"><g transform="translate(1437 -179)"><path d="M121.846,74.667H53.978c-6.247,0-11.311,11.193-11.311,25v10c0,2.762,1.013,5,2.262,5H64.294c.965.01,1.824,1.352,2.149,3.36l2.466,16.491c.951,6.052,3.526,10.12,6.425,10.15H130.9c1.249,0,2.262-2.239,2.262-5v-40C133.157,85.86,128.093,74.667,121.846,74.667Z" transform="translate(180.333 465.333)" fill="#dcb67a"/><path d="M101.709,155.135H41.678a2.4,2.4,0,0,1-2.147-1.844l-2.464-9.052c-.952-3.321-3.523-5.553-6.419-5.572H6.781C3.036,138.667,0,142.353,0,146.9a93.392,93.392,0,0,0,2.672,22.308l9.041,36.515c1.432,5.819,5.843,9.8,10.845,9.793H86.385c4.728.016,8.964-3.542,10.618-8.92l9.764-31.629a39.708,39.708,0,0,0,1.722-11.6C108.49,158.821,105.454,155.135,101.709,155.135Z" transform="translate(214 411.333)" fill="#c09553"/></g><path d="M91.25,14.38H18.43c-4.652.008-8.421,3.393-8.43,7.572V70.57c.016,4.174,3.783,7.552,8.43,7.56H91.25c4.654-.006,8.425-3.392,8.435-7.572V21.952c-.012-4.179-3.782-7.563-8.435-7.572Z" transform="translate(1684.6 396.62)" fill="#675f58"/><path d="M93.182,62.865a3.778,3.778,0,0,1-3.92,3.57H14.994a3.778,3.778,0,0,1-3.92-3.57V17.62h82.1V62.865Z" transform="translate(1687.15 404.229)" fill="#ccc"/><path d="M31.7,17.248c1.105-.069,2.411-.471,3.362.336.87.8.829,2.1,1.105,3.168a21.725,21.725,0,0,1,3.874,1.234c.816-.719,1.526-1.771,2.687-1.884,1.033-.072,1.78.738,2.511,1.334a9.644,9.644,0,0,1,2.15,2.132c.527,1.4-.628,2.581-1.325,3.635A24.135,24.135,0,0,1,47.8,30.656c1.353.085,3.259-.22,3.9,1.334a16.093,16.093,0,0,1,.446,4.684c-.345,1.667-2.332,1.73-3.686,2.028-.226,1.234-.738,2.386-1.074,3.588.367,1.055,1.673,1.57,1.921,2.737.267,1.271-.863,2.176-1.57,3.08-.678.716-1.224,1.758-2.282,1.95-1.375.248-2.367-.926-3.481-1.5a19.686,19.686,0,0,1-3.453,1.771c-.1,1.419.257,3.507-1.419,4.131a15.81,15.81,0,0,1-4.765.367c-1.648-.527-1.551-2.511-1.921-3.9-1.224-.226-2.348-.8-3.56-1.033-1.105.782-2.006,2.383-3.582,1.981A11.166,11.166,0,0,1,20.595,49.9c-.65-.584-1.51-1.193-1.475-2.166-.066-1.293,1.231-2.091,1.475-3.265-.439-1.061-1.105-2.019-1.526-3.1-1.149-.1-2.461.2-3.453-.5-.926-.628-.873-1.884-1.008-2.857a9.286,9.286,0,0,1,.038-3.045c.65-1.375,2.383-1.306,3.645-1.667A20.349,20.349,0,0,1,19.4,29.613c-.738-.866-1.8-1.57-2.056-2.756-.144-1.083.738-1.884,1.356-2.665a8.476,8.476,0,0,1,2.2-2.2c1.381-.458,2.493.691,3.56,1.359a18.556,18.556,0,0,1,3.632-1.843c.292-1.177-.166-2.653.844-3.541C29.661,17.219,30.766,17.373,31.7,17.248Zm.367,12.017a6.731,6.731,0,1,0,5.99,1.777A6.731,6.731,0,0,0,32.072,29.265Z" transform="translate(1706.6 409.755)" fill="#c09553"/></g></svg>