<svg xmlns="http://www.w3.org/2000/svg" width="123.517" height="90.278" viewBox="0 0 123.517 90.278"><g transform="translate(1642.142 -2245.569)"><path d="M117.206,53.334H33.653a12.257,12.257,0,0,0-12.17,13.885,2.457,2.457,0,0,0,3.681,1.8,6.96,6.96,0,0,1,3.573-.944h17.5a7.412,7.412,0,0,1,6.989,5l.418,1.347a12.346,12.346,0,0,0,11.656,8.4h56.816a7.372,7.372,0,0,1,3.671.983,2.462,2.462,0,0,0,3.7-2.123V65.621a12.287,12.287,0,0,0-12.281-12.287Z" transform="translate(-1663 2192.735)" fill="#7bbedb" stroke="#7bbedb" stroke-width="1"/><g transform="translate(-1676 2011.51)"><g transform="translate(16 -18)"><path d="M102.856,111.089a11.235,11.235,0,0,0-5.664-1.528H44.934a6.817,6.817,0,0,1-6.428-4.6l-.384-1.239A11.355,11.355,0,0,0,27.4,96H11.3a10.816,10.816,0,0,0-5.533,1.46A11.274,11.274,0,0,0,0,107.3v54.247a11.3,11.3,0,0,0,11.3,11.3H97.192a11.3,11.3,0,0,0,11.3-11.3V120.862A11.224,11.224,0,0,0,102.856,111.089Z" transform="translate(18 156.49)" fill="#55a1bf"/></g></g><g transform="translate(-451 8)"><path d="M28.307,38.222l4.209-4.209a12.164,12.164,0,0,0,9.49-.224,1.159,1.159,0,0,0,.34-1.874L34.828,24.4a2.337,2.337,0,0,1,0-3.308l7.509-7.509a1.164,1.164,0,0,0-.328-1.886A12.122,12.122,0,0,0,25.649,26.968l-4.3,4.3Z" transform="translate(-1116.611 2259.5)" fill="#675f58"/><path d="M29.187,22.121l-5.834-5.834-6.962,6.962,5.834,5.834,6.962,6.962L50.513,57.37a1.56,1.56,0,0,0,2.206,0l4.756-4.756a1.56,1.56,0,0,0,0-2.205L36.149,29.082Z" transform="translate(-1125.556 2269.743)" fill="#675f58"/><path d="M34.209,13.311l-6.235,6.235a1.277,1.277,0,0,0,0,1.8l4.807,4.807a1.274,1.274,0,0,0,1.9-.1,12.136,12.136,0,0,0,1.6-12.363,1.274,1.274,0,0,0-2.071-.382Z" transform="translate(-1105.312 2263.686)" fill="#675f58"/><path d="M13.159,27.86l7.517,7.517a2.337,2.337,0,0,1,0,3.308l-7.509,7.509a1.164,1.164,0,0,0,.342,1.886A12.122,12.122,0,0,0,29.883,32.852l4.65-4.65-6.962-6.962-4.534,4.537a12.164,12.164,0,0,0-9.54.208,1.159,1.159,0,0,0-.337,1.874Z" transform="translate(-1132.009 2278.689)" fill="#675f58"/><path d="M13.331,24.541a12.136,12.136,0,0,0-1.6,12.363,1.274,1.274,0,0,0,2.068.382l6.235-6.235a1.277,1.277,0,0,0,0-1.8l-4.8-4.8a1.274,1.274,0,0,0-1.9.1Z" transform="translate(-1135.798 2283.791)" fill="#675f58"/><path d="M18.5,28.127a1.911,1.911,0,0,0,2.7,0l.359-.359a1.911,1.911,0,0,0,0-2.7l-.721-.721,1.42-1.42L15.6,16.258l-1.42,1.42-.721-.721a1.911,1.911,0,0,0-2.7,0l-.359.359a1.911,1.911,0,0,0,0,2.7Z" transform="translate(-1137.4 2269.69)" fill="#675f58"/><path d="M16.6,13.249l6.586,6.586c7.59-5.051,11.836-.817,6-6.65C25.144,9.147,20.046,11.055,16.6,13.249Z" transform="translate(-1125.18 2259.876)" fill="#675f58"/><path d="M23.2,12.113a1.911,1.911,0,0,0-2.7,0l-8.109,8.109a1.911,1.911,0,0,0,0,2.7l.721.721,6.667,6.667.721.721a1.911,1.911,0,0,0,2.475.194,1.942,1.942,0,0,0,.227-.194l.345-.34L30.5,23.733l.561-.561.255-.255a1.911,1.911,0,0,0,0-2.7l-.786-.786-6.611-6.611Z" transform="translate(-1133.804 2261.194)" fill="#675f58"/></g></g></svg>