<svg xmlns="http://www.w3.org/2000/svg" viewBox="0 0 132.32 121.02"><defs><style>.cls-1{fill:#205372;}.cls-2{fill:#558fbf;}.cls-3{fill:#0769ad;}.cls-4{fill:#78cff5;}</style></defs><g id="Camada_2" data-name="Camada 2"><g id="Camada_1-2" data-name="Camada 1"><path class="cls-1" d="M96.3,1H12.7A12.27,12.27,0,0,0,.4,13.2a8.08,8.08,0,0,0,.1,1.6,2.49,2.49,0,0,0,2.8,2.1,3.18,3.18,0,0,0,.9-.3,6.44,6.44,0,0,1,3.6-.9H25.3a7.33,7.33,0,0,1,7,5l.4,1.3a12.38,12.38,0,0,0,11.7,8.4h56.8a6.86,6.86,0,0,1,3.7,1,2.47,2.47,0,0,0,3.4-.9,2.66,2.66,0,0,0,.3-1.2V13.2A12.4,12.4,0,0,0,96.3,1Z"/><path class="cls-2" d="M102.9,15a11.29,11.29,0,0,0-5.7-1.5H44.9a6.79,6.79,0,0,1-6.4-4.6l-.4-1.2A11.39,11.39,0,0,0,27.4,0H11.3A10.58,10.58,0,0,0,5.8,1.5,11.27,11.27,0,0,0,0,11.3V65.5A11.35,11.35,0,0,0,11.3,76.8H97.2a11.35,11.35,0,0,0,11.3-11.3h0V24.8A11.2,11.2,0,0,0,102.9,15Z"/><circle class="cls-3" cx="88.1" cy="76.8" r="44.22"/><path class="cls-4" d="M109.13,68.65a16.84,16.84,0,0,0,10.41-3.52,16.51,16.51,0,0,1-13.22,6.36c-8.91,0-16.13-6.67-16.13-14.9a14.45,14.45,0,0,1,5.72-11.38A14.06,14.06,0,0,0,93,53.75C93,62,100.22,68.65,109.13,68.65Z"/><path class="cls-4" d="M119.39,78.88a25.64,25.64,0,0,1-15.87,5.38C90,84.26,79,74.1,79,61.56a21.53,21.53,0,0,1,4.47-13.07,22,22,0,0,0-8.68,17.33c0,12.54,11,22.7,24.56,22.7A25.15,25.15,0,0,0,119.39,78.88Z"/><path class="cls-4" d="M119.69,91.87a34.51,34.51,0,0,1-23.89,9.42c-18.6,0-33.67-14.29-33.67-31.93A30.46,30.46,0,0,1,66.3,54a31,31,0,0,0-9.79,22.5c0,17.63,15.08,31.93,33.68,31.93A34,34,0,0,0,119.69,91.87Z"/></g></g></svg>