<svg xmlns="http://www.w3.org/2000/svg" xmlns:xlink="http://www.w3.org/1999/xlink" width="116.302" height="109.371" viewBox="0 0 116.302 109.371"><defs><radialGradient id="a" cx="0.928" cy="0.071" r="1.479" gradientTransform="matrix(0.681, 0, 0, -1, 0.296, -90.134)" gradientUnits="objectBoundingBox"><stop offset="0.045" stop-color="#f4793b"/><stop offset="1" stop-color="#fff33e"/></radialGradient><radialGradient id="b" cx="0.156" cy="0.352" r="1.215" gradientTransform="matrix(0.694, 0, 0, -1, 0.048, -144.115)" gradientUnits="objectBoundingBox"><stop offset="0.258" stop-color="#ee3d85"/><stop offset="1" stop-color="#7b5aa6"/></radialGradient><linearGradient id="c" x1="0.195" y1="-59.574" x2="0.683" y2="-59.083" gradientUnits="objectBoundingBox"><stop offset="0" stop-color="#ee3d85"/><stop offset="1" stop-color="#f05872"/></linearGradient><radialGradient id="d" cx="0.117" cy="0.132" r="1.201" gradientTransform="matrix(0.916, 0, 0, -1, 0.01, -78.676)" gradientUnits="objectBoundingBox"><stop offset="0.134" stop-color="#f05872"/><stop offset="1" stop-color="#f4793b"/></radialGradient></defs><g transform="translate(539 -1513)"><path d="M121.846,74.667H53.978c-6.247,0-11.311,11.193-11.311,25v10c0,2.762,1.013,5,2.262,5H64.294c.965.01,1.824,1.352,2.149,3.36l2.466,16.491c.951,6.052,3.526,10.12,6.425,10.15H130.9c1.249,0,2.262-2.239,2.262-5v-40C133.157,85.86,128.093,74.667,121.846,74.667Z" transform="translate(-572.667 1438.333)" fill="#9f4246"/><path d="M101.709,155.135H41.678a2.4,2.4,0,0,1-2.147-1.844l-2.464-9.052c-.952-3.321-3.523-5.553-6.419-5.572H6.781C3.036,138.667,0,142.353,0,146.9a93.392,93.392,0,0,0,2.672,22.308l9.041,36.515c1.432,5.819,5.843,9.8,10.845,9.793H86.385c4.728.016,8.964-3.542,10.618-8.92l9.764-31.629a39.708,39.708,0,0,0,1.722-11.6C108.49,158.821,105.454,155.135,101.709,155.135Z" transform="translate(-539 1384.333)" fill="#dd7a7d"/><g transform="translate(118 135)"><path d="M59.921,24.264a2.171,2.171,0,0,0-2.209-3.734L17.605,42.523A4.742,4.742,0,1,0,22.8,50.446Z" transform="translate(-601.609 1436.009)" opacity="0.997" fill="url(#a)"/><path d="M20.068,15.376a5.218,5.218,0,1,0-5.345,8.876l21.486,8.873a2.012,2.012,0,0,0,2.139-3.354Z" transform="translate(-608.457 1424.617)" fill="url(#b)"/><path d="M35.892,10.188a4.122,4.122,0,0,0-3.444.458L13.8,23.3a5.228,5.228,0,0,0,6.1,8.49q.188-.136.362-.29l17-14.157a4.134,4.134,0,0,0-1.374-7.157Z" transform="translate(-608.5 1416.5)" opacity="0.999" fill="url(#c)"/><path d="M25.186,11.2a4.133,4.133,0,1,0-5.815,5.876l.165.156L51.9,43.691a2.168,2.168,0,0,0,2.96-3.148Z" transform="translate(-596.116 1416.5)" opacity="0.997" fill="url(#d)"/></g></g></svg>