<svg xmlns="http://www.w3.org/2000/svg" viewBox="0 0 117.96 101.02"><defs><style>.cls-1{fill:#dcb67a;}.cls-2{fill:#c09553;}.cls-3{fill:#5f6c95;}</style></defs><g id="Camada_2" data-name="Camada 2"><g id="Camada_1-2" data-name="Camada 1"><path class="cls-1" d="M88.3,0H20.4C14.2,0,9.1,11.2,9.1,25V35c0,2.8,1,5,2.3,5H30.8c1,0,1.8,1.4,2.2,3.4l2.5,16.5c1,6,3.5,10.1,6.4,10.1H97.5c1.2,0,2.3-2.2,2.3-5V25C99.6,11.2,94.5,0,88.3,0Z"/><path class="cls-2" d="M101.8,26.5h-60a2.58,2.58,0,0,1-2.2-1.8l-2.5-9c-1-3.3-3.5-5.6-6.4-5.6H6.8C3,10,0,13.7,0,18.3A93.21,93.21,0,0,0,2.7,40.6l9,36.5c1.4,5.8,5.9,9.8,10.9,9.8H86.5c4.7,0,9-3.5,10.6-8.9l9.8-31.6a41.75,41.75,0,0,0,1.7-11.6C108.6,30.1,105.5,26.5,101.8,26.5Z"/><g id="SVGRepo_iconCarrier" data-name="SVGRepo iconCarrier"><path class="cls-3" d="M88.49,87.92c0-6.17,0-9.26,1.92-11.18s5-1.92,11.18-1.92h3.27c6.18,0,9.26,0,11.18,1.92s1.92,5,1.92,11.18,0,9.26-1.92,11.18S111,101,104.86,101h-3.27c-6.18,0-9.27,0-11.18-1.92S88.49,94.1,88.49,87.92Z"/><path class="cls-3" d="M91.76,42.07H78.66c-12.35,0-18.52,0-22.36,3.84s-3.84,10-3.84,22.36v6.55c0,12.35,0,18.53,3.84,22.36s10,3.84,22.36,3.84a8.12,8.12,0,0,0,2.89-.25A3.28,3.28,0,0,0,83.33,99a8.48,8.48,0,0,0,.24-2.89V89.56c0-9.26,0-13.9,2.88-16.77s7.51-2.88,16.77-2.88h8.19c3.11,0,4.66,0,5.62-1s1-2.5.91-5.57c-.12-8.63-.71-14.34-3.82-17.45C110.29,42.07,104.11,42.07,91.76,42.07Z"/></g></g></g></svg>