<svg xmlns="http://www.w3.org/2000/svg" width="108.49" height="86.85" viewBox="0 0 108.49 86.85"><g transform="translate(-230 -486)"><path d="M121.846,74.667H53.978c-6.247,0-11.311,11.193-11.311,25v10c0,2.762,1.013,5,2.262,5H64.294c.965.01,1.824,1.352,2.149,3.36l2.466,16.491c.951,6.052,3.526,10.12,6.425,10.15h55.561c1.249,0,2.262-2.239,2.262-5v-40C133.157,85.86,128.093,74.667,121.846,74.667Z" transform="translate(196.333 411.333)" fill="#7bb4db"/><path d="M101.709,155.135H41.678a2.4,2.4,0,0,1-2.147-1.844l-2.464-9.052c-.952-3.321-3.523-5.553-6.419-5.572H6.781C3.036,138.667,0,142.353,0,146.9a93.392,93.392,0,0,0,2.672,22.308l9.041,36.515c1.432,5.819,5.843,9.8,10.845,9.793H86.385c4.728.016,8.964-3.542,10.618-8.92l9.764-31.629a39.708,39.708,0,0,0,1.722-11.6C108.49,158.821,105.454,155.135,101.709,155.135Z" transform="translate(230 357.333)" fill="#5594bf"/><path d="M28.981,42.743,15.464,52.925,9.889,51.073l13.748-13.6L9.889,23.865l5.572-1.86L28.979,32.187,51.435,10l13.447,5.711V59.224L51.435,64.938Zm7.006-5.274L51.422,49.1V25.835Z" transform="translate(251.6 506.046)" fill="#005b98"/></g></svg>