<svg xmlns="http://www.w3.org/2000/svg" viewBox="0 0 127.23 108.95"><defs><style>.cls-1{fill:#9c9;}.cls-2{fill:#6c6;}.cls-3{fill:#76d04b;}.cls-4{fill:#4f4d3f;}</style></defs><g id="Camada_2" data-name="Camada 2"><g id="Camada_1-2" data-name="Camada 1"><path class="cls-1" d="M88.18,0H20.31C14.06,0,9,11.19,9,25V35c0,2.76,1,5,2.26,5H30.63c1,0,1.82,1.35,2.15,3.36l2.46,16.49C36.19,65.9,38.77,70,41.67,70H97.23c1.25,0,2.27-2.24,2.27-5V25C99.49,11.19,94.43,0,88.18,0Z"/><path class="cls-2" d="M101.71,26.47h-60a2.4,2.4,0,0,1-2.15-1.85l-2.46-9c-1-3.32-3.53-5.55-6.42-5.57H6.78C3,10,0,13.69,0,18.23A93.65,93.65,0,0,0,2.67,40.54l9,36.52c1.44,5.81,5.85,9.8,10.85,9.79H86.39c4.72,0,9-3.54,10.61-8.92l9.77-31.63a40,40,0,0,0,1.72-11.6C108.49,30.15,105.45,26.47,101.71,26.47Z"/><path class="cls-3" d="M93.42,108.53a3.77,3.77,0,0,0,3.46,0L125.5,93.62a3.06,3.06,0,0,0,1.73-2.7V61.09a3.08,3.08,0,0,0-1.73-2.7L96.88,43.48a3.77,3.77,0,0,0-3.46,0L64.8,58.39a3.08,3.08,0,0,0-1.73,2.7V90.92a3.06,3.06,0,0,0,1.73,2.7l28.62,14.91"/><path class="cls-4" d="M113.68,68.89l-1.27-.66c2-2.61,3.13-6.54,1.66-12.41,0,0-3.31,8.37-10,8.1l-7.8-4.05a2.1,2.1,0,0,0-1-.25h-.18a2.11,2.11,0,0,0-1,.25l-7.8,4.05c-6.66.27-10-8.1-10-8.1-1.47,5.87-.3,9.8,1.66,12.41l-1.27.66a1.88,1.88,0,0,0-1,1.65l0,24.3a.92.92,0,0,0,.52.82,1.12,1.12,0,0,0,1,0l10.33-5.34a1.89,1.89,0,0,0,1.05-1.65V77.32a1.88,1.88,0,0,1,1-1.64l4.4-2.28a2.24,2.24,0,0,1,1.05-.26,2.2,2.2,0,0,1,1,.26l4.4,2.28a1.88,1.88,0,0,1,1,1.64V88.67a1.89,1.89,0,0,0,1,1.65l10.33,5.33a1.09,1.09,0,0,0,1.05,0,.92.92,0,0,0,.52-.81l0-24.3a1.85,1.85,0,0,0-1-1.65Z"/></g></g></svg>