<svg xmlns="http://www.w3.org/2000/svg" viewBox="0 0 135.86 120.3"><defs><style>.cls-1{fill:#69f25a;}.cls-2{fill:#53a51e;}.cls-3{fill:#019639;}.cls-4{fill:#fff;}</style></defs><g id="Camada_2" data-name="Camada 2"><g id="Camada_1-2" data-name="Camada 1"><path class="cls-1" d="M96.3,1H12.7A12.27,12.27,0,0,0,.4,13.2a8.08,8.08,0,0,0,.1,1.6,2.49,2.49,0,0,0,2.8,2.1,3.18,3.18,0,0,0,.9-.3,6.44,6.44,0,0,1,3.6-.9H25.3a7.33,7.33,0,0,1,7,5l.4,1.3a12.38,12.38,0,0,0,11.7,8.4h56.8a6.86,6.86,0,0,1,3.7,1,2.47,2.47,0,0,0,3.4-.9,2.66,2.66,0,0,0,.3-1.2V13.2A12.4,12.4,0,0,0,96.3,1Z"/><path class="cls-2" d="M102.9,15a11.29,11.29,0,0,0-5.7-1.5H44.9a6.79,6.79,0,0,1-6.4-4.6l-.4-1.2A11.39,11.39,0,0,0,27.4,0H11.3A10.58,10.58,0,0,0,5.8,1.5,11.27,11.27,0,0,0,0,11.3V65.5A11.35,11.35,0,0,0,11.3,76.8H97.2a11.35,11.35,0,0,0,11.3-11.3h0V24.8A11.2,11.2,0,0,0,102.9,15Z"/><path class="cls-3" d="M95,27.4h.22a35.75,35.75,0,0,1,3.22,1.75l36,20.73a2.62,2.62,0,0,1,1.37,2.61q0,21.85,0,43.68a2.66,2.66,0,0,1-1.19,1.68q-19.15,11-38.31,22.05a2,2,0,0,1-2.18.12Q75,109,55.83,98a2.3,2.3,0,0,1-1.32-2.21V52.11a2.29,2.29,0,0,1,1.28-2.23l36-20.7c1.07-.61,2.12-1.26,3.23-1.78"/><path class="cls-4" d="M71.17,55.73v36a5,5,0,0,0,1.42,3.61,5.47,5.47,0,0,0,6.84.68,5.18,5.18,0,0,0,2.27-4.29c0-8.69,0-17.38,0-26.08Q93.6,79.91,105.53,94.11a9.4,9.4,0,0,0,8.62,2.6,5.17,5.17,0,0,0,4.15-4.55q0-18.39,0-36.77a5.24,5.24,0,0,0-10.45,0c0,8.83-.06,17.66,0,26.48-7.79-9.17-15.48-18.43-23.23-27.64a9.33,9.33,0,0,0-8.79-3.49A5.25,5.25,0,0,0,71.17,55.73Z"/></g></g></svg>