<svg xmlns="http://www.w3.org/2000/svg" xmlns:xlink="http://www.w3.org/1999/xlink" width="126.894" height="86.849" viewBox="0 0 126.894 86.849"><defs><style>.a{fill:#7ba2db;}.b{fill:#5580bf;}.c{fill:url(#a);}.d,.e{fill:#f6f6f6;}.e{stroke:#404040;stroke-miterlimit:10;stroke-width:0.25px;}</style><linearGradient id="a" x1="-0.554" y1="-53.987" x2="-0.554" y2="-52.987" gradientUnits="objectBoundingBox"><stop offset="0" stop-color="#1877ff"/><stop offset="0.377" stop-color="#0d1117"/><stop offset="0.653" stop-color="#131a24"/><stop offset="1" stop-color="#484e55"/></linearGradient></defs><g transform="translate(-365 -651)"><path class="a" d="M121.846,74.667H53.978c-6.247,0-11.311,11.193-11.311,25v10c0,2.762,1.013,5,2.262,5H64.294c.965.01,1.824,1.352,2.149,3.36l2.466,16.491c.951,6.052,3.526,10.12,6.425,10.15H130.9c1.249,0,2.262-2.239,2.262-5v-40C133.157,85.86,128.093,74.667,121.846,74.667Z" transform="translate(331.333 576.333)"/><path class="b" d="M101.709,155.135H41.678a2.4,2.4,0,0,1-2.147-1.844l-2.464-9.052c-.952-3.321-3.523-5.553-6.419-5.572H6.781C3.036,138.667,0,142.353,0,146.9a93.392,93.392,0,0,0,2.672,22.308l9.041,36.515c1.432,5.819,5.843,9.8,10.845,9.793H86.385c4.728.016,8.964-3.542,10.618-8.92l9.764-31.629a39.708,39.708,0,0,0,1.722-11.6C108.49,158.821,105.454,155.135,101.709,155.135Z" transform="translate(365 522.333)"/><g transform="translate(321 353)"><path class="c" d="M83.478,50.736a6.958,6.958,0,0,1-6.958,6.958H18.188a6.958,6.958,0,0,1-6.958-6.958V28.643a6.958,6.958,0,0,1,6.958-6.958H76.535a6.958,6.958,0,0,1,6.958,6.958Z" transform="translate(83.102 324.805)"/><path class="d" d="M33.6,31.67a5.717,5.717,0,0,1,4.573,5.482A4.9,4.9,0,0,1,36.284,41.2a8.5,8.5,0,0,1-5.412,1.62,13.217,13.217,0,0,1-6.5-1.79,5.756,5.756,0,0,1,.464-1.933,5.3,5.3,0,0,1,1.013-1.67,10.724,10.724,0,0,0,4.778,1.43,2.8,2.8,0,0,0,1.5-.317.982.982,0,0,0,.518-.866q0-1.024-1.581-1.546l-1.894-.715q-4.306-1.566-4.306-5.111a5.083,5.083,0,0,1,1.8-4.1,7.5,7.5,0,0,1,4.863-1.879,14.768,14.768,0,0,1,3.336.425,13.206,13.206,0,0,1,2.992,1.368,4.836,4.836,0,0,1-.387,2.1,3.537,3.537,0,0,1-1.1,1.62,12.371,12.371,0,0,0-4.813-1.3,1.577,1.577,0,0,0-1.048.305.982.982,0,0,0-.36.773q0,.816,1.307,1.3l2.134.75Z" transform="translate(120.77 332.359)"/><path class="d" d="M29.677,31.667a5.717,5.717,0,0,1,4.554,5.482A4.906,4.906,0,0,1,32.34,41.2a8.5,8.5,0,0,1-5.412,1.62,13.221,13.221,0,0,1-6.5-1.79,5.744,5.744,0,0,1,.464-1.933,5.28,5.28,0,0,1,1.013-1.67,10.735,10.735,0,0,0,4.782,1.43A2.791,2.791,0,0,0,28.2,38.54a.986.986,0,0,0,.518-.866q0-1.024-1.581-1.546l-1.89-.715q-4.3-1.566-4.3-5.107a5.08,5.08,0,0,1,1.8-4.106,7.5,7.5,0,0,1,4.863-1.879,14.751,14.751,0,0,1,3.336.425,13.2,13.2,0,0,1,2.992,1.368,4.836,4.836,0,0,1-.387,2.1,3.537,3.537,0,0,1-1.1,1.62,12.371,12.371,0,0,0-4.817-1.3,1.573,1.573,0,0,0-1.048.305.982.982,0,0,0-.36.773q0,.816,1.307,1.3l2.134.75Z" transform="translate(109.467 332.362)"/><path class="d" d="M30.956,31.908a8.184,8.184,0,0,0-.5-2.9,6.491,6.491,0,0,0-1.426-2.281,6.61,6.61,0,0,0-2.25-1.5,7.937,7.937,0,0,0-2.973-.908,8.118,8.118,0,0,0-3.421,1.048,6.541,6.541,0,0,0-2.4,1.871,8.014,8.014,0,0,0-1.411,2.81,12.757,12.757,0,0,0-.464,3.526,16.468,16.468,0,0,0,.387,3.645,7.619,7.619,0,0,0,1.287,2.9,6.108,6.108,0,0,0,2.374,1.906,8.5,8.5,0,0,0,3.626.8,11.458,11.458,0,0,0,6.738-2.064,5.412,5.412,0,0,0-1.4-3.135,17.942,17.942,0,0,1-2.482.773,9.3,9.3,0,0,1-1.9.228,2.946,2.946,0,0,1-2.362-.843,3.441,3.441,0,0,1-.773-2.234h8.942a12.893,12.893,0,0,0,.408-3.642Zm-9.417.236a7.055,7.055,0,0,1,.63-2.911,1.832,1.832,0,0,1,1.62-.773,1.933,1.933,0,0,1,1.689.816,5.072,5.072,0,0,1,.564,2.482v.387Z" transform="translate(97.078 332.365)"/><path class="e" d="M37.352,41.957a4.639,4.639,0,0,0-1.546,3.669v5.949a5.25,5.25,0,0,1-1.979,4.515,8.118,8.118,0,0,1-4.786,1.593H27.958V54.707a3.6,3.6,0,0,0,1.724-.97A3.97,3.97,0,0,0,30.9,50.7V45.9a7.38,7.38,0,0,1,.746-3.835,7.244,7.244,0,0,1,3.479-2.428,7.345,7.345,0,0,1-3.839-3.417,8.571,8.571,0,0,1-.387-3.379v-4.4a4.229,4.229,0,0,0-1.063-3.054,3.34,3.34,0,0,0-1.879-.912V21.689h2.7a4.859,4.859,0,0,1,2.969,1.28,5.8,5.8,0,0,1,1.952,2.926,6.757,6.757,0,0,1,.247,2.033V33.02a5.35,5.35,0,0,0,1.438,4.009,6.127,6.127,0,0,0,2.474,1.388v2.319a5.632,5.632,0,0,0-2.377,1.237Z" transform="translate(131.029 324.817)"/><path class="e" d="M20.415,21.689h-.97a4.848,4.848,0,0,0-2.969,1.28A4.96,4.96,0,0,0,14.543,25.9a10.237,10.237,0,0,0-.112,2.033V33.02a5.412,5.412,0,0,1-1.577,4.009,8.253,8.253,0,0,1-2.845,1.388v2.319a7.4,7.4,0,0,1,2.745,1.237,4.751,4.751,0,0,1,1.674,3.669v5.934a5.165,5.165,0,0,0,1.844,4.515,8.118,8.118,0,0,0,4.763,1.593h1.222V54.707a4.252,4.252,0,0,1-1.863-.97A3.928,3.928,0,0,1,19.317,50.7V45.9a7.3,7.3,0,0,0-.885-3.835,7.237,7.237,0,0,0-3.479-2.428,7.345,7.345,0,0,0,3.839-3.417,8.284,8.284,0,0,0,.53-3.379v-4.4a4.252,4.252,0,0,1,.924-3.054,3.808,3.808,0,0,1,1.666-.773h1.241V21.7H20.415Z" transform="translate(79.6 324.817)"/><path class="d" d="M21.373,45.835h-.928c-1.009,0-1.388-.53-1.388-1.6v-19.6a3.642,3.642,0,0,0-.773-2.482c-.437-.475-1.191-.472-2.269-.472H13.672v23.5a5.435,5.435,0,0,0,1.021,3.6,4.179,4.179,0,0,0,3.317,1.14,22.784,22.784,0,0,0,3.68-.34,6.463,6.463,0,0,0,.1-1.477,6.607,6.607,0,0,0-.414-2.269Z" transform="translate(90.058 324.805)"/></g></g></svg>