<svg xmlns="http://www.w3.org/2000/svg" viewBox="0 0 120.65 85.71"><defs><style>.cls-1{fill:#dcb67a;}.cls-2{fill:#c09553;}.cls-3{fill:#5f6c95;}</style></defs><g id="Camada_2" data-name="Camada 2"><g id="Camada_1-2" data-name="Camada 1"><path class="cls-1" d="M96.3,1H12.7A12.27,12.27,0,0,0,.4,13.2a8.08,8.08,0,0,0,.1,1.6,2.49,2.49,0,0,0,2.8,2.1,3.18,3.18,0,0,0,.9-.3,6.44,6.44,0,0,1,3.6-.9H25.3a7.33,7.33,0,0,1,7,5l.4,1.3a12.38,12.38,0,0,0,11.7,8.4h56.8a6.86,6.86,0,0,1,3.7,1,2.47,2.47,0,0,0,3.4-.9,2.66,2.66,0,0,0,.3-1.2V13.2A12.4,12.4,0,0,0,96.3,1Z"/><path class="cls-2" d="M102.9,15a11.29,11.29,0,0,0-5.7-1.5H44.9a6.79,6.79,0,0,1-6.4-4.6l-.4-1.2A11.39,11.39,0,0,0,27.4,0H11.3A10.58,10.58,0,0,0,5.8,1.5,11.27,11.27,0,0,0,0,11.3V65.5A11.35,11.35,0,0,0,11.3,76.8H97.2a11.35,11.35,0,0,0,11.3-11.3h0V24.8A11.2,11.2,0,0,0,102.9,15Z"/><g id="SVGRepo_iconCarrier" data-name="SVGRepo iconCarrier"><path class="cls-3" d="M91.17,72.61c0-6.18,0-9.26,1.92-11.18s5-1.92,11.18-1.92h3.28c6.17,0,9.26,0,11.18,1.92s1.92,5,1.92,11.18,0,9.26-1.92,11.18-5,1.92-11.18,1.92h-3.28c-6.17,0-9.26,0-11.18-1.92S91.17,78.78,91.17,72.61Z"/><path class="cls-3" d="M94.45,26.76H81.35c-12.35,0-18.53,0-22.37,3.84s-3.83,10-3.83,22.36v6.55c0,12.35,0,18.52,3.83,22.36s10,3.84,22.37,3.84a8.18,8.18,0,0,0,2.89-.25A3.27,3.27,0,0,0,86,83.69a8.18,8.18,0,0,0,.25-2.89V74.25c0-9.27,0-13.9,2.88-16.78s7.51-2.87,16.77-2.87h8.19c3.1,0,4.66,0,5.62-1s.94-2.51.9-5.57c-.11-8.63-.7-14.35-3.81-17.45C113,26.76,106.8,26.76,94.45,26.76Z"/></g></g></g></svg>