<svg xmlns="http://www.w3.org/2000/svg" viewBox="0 0 127.89 87.25"><defs><style>.cls-1{fill:#d2a6f4;}.cls-2{fill:#af84f4;}.cls-3{fill:#563d7c;fill-rule:evenodd;}</style></defs><g id="Camada_2" data-name="Camada 2"><g id="Camada_1-2" data-name="Camada 1"><path class="cls-1" d="M96.21,1.07H12.65A12.27,12.27,0,0,0,.37,13.3,12.82,12.82,0,0,0,.48,15a2.46,2.46,0,0,0,2.76,2.12,2.35,2.35,0,0,0,.92-.32,7,7,0,0,1,3.58-.94h17.5a7.43,7.43,0,0,1,7,5l.41,1.35a12.36,12.36,0,0,0,11.66,8.4h56.82a7.42,7.42,0,0,1,3.67,1,2.45,2.45,0,0,0,3.36-.89,2.42,2.42,0,0,0,.34-1.23V13.36A12.28,12.28,0,0,0,96.21,1.07Z"/><path class="cls-2" d="M102.86,15.09a11.29,11.29,0,0,0-5.67-1.53H44.93A6.8,6.8,0,0,1,38.51,9l-.39-1.24A11.35,11.35,0,0,0,27.4,0H11.3A10.84,10.84,0,0,0,5.77,1.46,11.26,11.26,0,0,0,0,11.3V65.55a11.3,11.3,0,0,0,11.3,11.3H97.19a11.3,11.3,0,0,0,11.3-11.3h0V24.86A11.22,11.22,0,0,0,102.86,15.09Z"/><g id="SVGRepo_iconCarrier" data-name="SVGRepo iconCarrier"><path class="cls-3" d="M74.81,33.88a6.67,6.67,0,0,0-6.52,7,37.46,37.46,0,0,1-1.18,11.68c-1.14,3.69-3.06,6-6.21,6.33v3.39c3.15.3,5.07,2.64,6.21,6.33a37.46,37.46,0,0,1,1.18,11.68,6.67,6.67,0,0,0,6.52,7H114a6.67,6.67,0,0,0,6.52-7,37.74,37.74,0,0,1,1.17-11.68c1.15-3.69,3.07-6,6.22-6.33V58.87c-3.15-.3-5.07-2.64-6.22-6.33a37.74,37.74,0,0,1-1.17-11.68,6.67,6.67,0,0,0-6.52-7Zm31.5,32.85c0,5-3.72,8-9.91,8H85.88a1.14,1.14,0,0,1-1.14-1.14V47.51a1.13,1.13,0,0,1,1.14-1.14H96.34c5.16,0,8.54,2.79,8.54,7.08a6.34,6.34,0,0,1-5.17,6.18v.16C103.66,60.22,106.31,63,106.31,66.73ZM95.26,50h-6v8.48h5.06c3.91,0,6.06-1.57,6.06-4.39C100.37,51.43,98.52,50,95.26,50Zm-6,11.84v9.35h6.23c4.07,0,6.22-1.64,6.22-4.7s-2.21-4.65-6.49-4.65Z"/></g></g></g></svg>