<svg xmlns="http://www.w3.org/2000/svg" width="108.493" height="98.718" viewBox="0 0 108.493 98.718"><defs><style>.a{fill:#9e5a5a;}.b{fill:#7f4445;}.c{fill:#fff;}.d{fill:#da4648;}</style></defs><g transform="translate(-43 -321.488)"><g transform="translate(25 69)"><path class="a" d="M117.206,53.334H33.653A12.257,12.257,0,0,0,21.483,67.219a2.457,2.457,0,0,0,3.681,1.8,6.96,6.96,0,0,1,3.573-.944h17.5a7.412,7.412,0,0,1,6.989,5l.418,1.347A12.346,12.346,0,0,0,65.3,82.823h56.816a7.372,7.372,0,0,1,3.671.983,2.462,2.462,0,0,0,3.7-2.123V65.621A12.287,12.287,0,0,0,117.206,53.334Z" transform="translate(-3 199.225)"/><path class="b" d="M102.856,111.089a11.235,11.235,0,0,0-5.664-1.528H44.934a6.817,6.817,0,0,1-6.428-4.6l-.384-1.239A11.355,11.355,0,0,0,27.395,96H11.3a10.816,10.816,0,0,0-5.533,1.46A11.274,11.274,0,0,0,0,107.3v54.247a11.3,11.3,0,0,0,11.3,11.3H97.192a11.3,11.3,0,0,0,11.3-11.3V120.862A11.224,11.224,0,0,0,102.856,111.089Z" transform="translate(18 156.49)"/></g><ellipse class="c" cx="16.5" cy="4.5" rx="16.5" ry="4.5" transform="translate(113 361)"/><ellipse class="c" cx="12.5" cy="4.5" rx="12.5" ry="4.5" transform="translate(117 397)"/><ellipse class="c" cx="14.5" cy="12.5" rx="14.5" ry="12.5" transform="translate(115 372)"/><g transform="translate(112.458 360.963)"><path class="d" d="M38.483,57.855a41.6,41.6,0,0,1-9.56-1.087,18.376,18.376,0,0,1-2.736-.844L28.4,59.7l.862,11.8c0,1.323,4.2,2.4,9.386,2.4s9.382-1.087,9.382-2.4l.685-11.926L50.8,55.912a17.983,17.983,0,0,1-2.758.855,41.63,41.63,0,0,1-9.563,1.087ZM50.877,19.467a93.3,93.3,0,0,1-12.234.725,93.3,93.3,0,0,1-12.234-.725,23.583,23.583,0,0,1-3.805-.794,5.581,5.581,0,0,1-.939-.391L23.69,36.938c.094-.323.2-.641.315-.964a18.279,18.279,0,0,1,.815-1.921,17.211,17.211,0,0,1,1.022-1.776,14.274,14.274,0,0,1,1.174-1.54A9.158,9.158,0,0,1,28.3,29.53a6.132,6.132,0,0,1,1.323-.794,3.406,3.406,0,0,1,1.326-.272,2.9,2.9,0,0,1,1.45.413,4.2,4.2,0,0,1,1.323,1.337,1.109,1.109,0,0,1,.178.42,2.1,2.1,0,0,1,.04.4,1.055,1.055,0,0,1-.214.7.62.62,0,0,1-.5.254.638.638,0,0,1-.5-.272,5,5,0,0,1-.511-.8,1.961,1.961,0,0,0-.583-.681,1.25,1.25,0,0,0-.7-.214A2.135,2.135,0,0,0,29.7,30.5a7.128,7.128,0,0,0-1.308,1.272,13.815,13.815,0,0,0-1.243,1.812,19,19,0,0,0-1.051,2.084,14.731,14.731,0,0,0-.725,2.105,7.509,7.509,0,0,0-.272,1.859,4.154,4.154,0,0,0,.04.565,1.874,1.874,0,0,0,.141.529,1,1,0,0,0,.272.388.66.66,0,0,0,.449.152,1.493,1.493,0,0,0,.7-.207,5.149,5.149,0,0,0,.815-.544,10.411,10.411,0,0,0,.844-.757c.283-.283.544-.565.786-.855s.46-.569.649-.833a4.983,4.983,0,0,0,.424-.692l.772-2.312a1.087,1.087,0,0,1,.362-.544.8.8,0,0,1,.467-.156.725.725,0,0,1,.232.036.58.58,0,0,1,.362.341.9.9,0,0,1,.054.312,4.515,4.515,0,0,1-.087.884,7.089,7.089,0,0,1-.21.815c-.087.265-.181.525-.286.79s-.207.544-.308.833a2.258,2.258,0,0,0-.12.308c-.058.181-.127.4-.21.656s-.174.551-.272.881l-.3.993c-.1.337-.2.667-.294.993l-.25.881-.188.656c-.051.178-.083.272-.094.315a1.906,1.906,0,0,1-.13.362,2.32,2.32,0,0,1-.217.362,1.29,1.29,0,0,1-.272.272.471.471,0,0,1-.3.112A.435.435,0,0,1,28.532,45a1.265,1.265,0,0,1-.12-.652v-.152a.969.969,0,0,1,0-.145,3.306,3.306,0,0,1,.159-.591q.116-.435.272-.978t.362-1.131c.123-.391.236-.725.337-1.047q-.439.5-.957.978a9.806,9.806,0,0,1-1.055.877,6.243,6.243,0,0,1-1.087.631,2.584,2.584,0,0,1-1.055.246,1.9,1.9,0,0,1-1-.257c-.051-.029-.1-.065-.145-.1l1.131,11.828A25.32,25.32,0,0,0,38.49,57.043a25.237,25.237,0,0,0,13.115-2.537l1.631-14.064-.388.362a16.718,16.718,0,0,1-1.315,1.116,5.976,5.976,0,0,1-1.207.725,3.08,3.08,0,0,1-1.261.257,1.526,1.526,0,0,1-.975-.272.917.917,0,0,1-.362-.757v-.156a1.776,1.776,0,0,1,.261-.681,7.32,7.32,0,0,1,.544-.794c.21-.279.431-.558.67-.841s.457-.547.66-.8a7.84,7.84,0,0,0,.5-.692,1.047,1.047,0,0,0,.2-.511.236.236,0,0,0-.083-.188.457.457,0,0,0-.272-.069,1.576,1.576,0,0,0-.689.174,3.312,3.312,0,0,0-.7.46,6.473,6.473,0,0,0-.674.663,9.815,9.815,0,0,0-.612.779,9.075,9.075,0,0,0-.522.815c-.159.275-.294.525-.4.754l-.141.3c-.062.13-.127.275-.2.442s-.145.333-.228.5-.152.362-.221.493l-.178.413c-.054.123-.091.207-.112.25s-.065.156-.134.333-.138.362-.221.576l-.272.7-.257.685-.214.573c-.058.163-.1.272-.116.333a3.725,3.725,0,0,1-.2.482,1.721,1.721,0,0,1-.261.4,1.087,1.087,0,0,1-.33.272.841.841,0,0,1-.42.105.823.823,0,0,1-.493-.141.638.638,0,0,1-.2-.544,1.851,1.851,0,0,1,.047-.4,4.108,4.108,0,0,1,.127-.41c.047-.134.1-.272.156-.395s.1-.25.141-.362q.449-.982.913-1.968t.9-1.957c.058-.138.112-.272.17-.4l-.051.054a11.5,11.5,0,0,1-1.087.917,5.716,5.716,0,0,1-1.062.634,2.5,2.5,0,0,1-1.026.236,1.268,1.268,0,0,1-.565-.109.935.935,0,0,1-.362-.294,1.156,1.156,0,0,1-.2-.442,1.706,1.706,0,0,0-.029-.181c-.1.076-.2.152-.294.221a5.888,5.888,0,0,1-1.015.583,2.2,2.2,0,0,1-.9.221.841.841,0,0,1-.645-.272,1.3,1.3,0,0,1-.246-.906,5.145,5.145,0,0,1,.13-1.051,5.006,5.006,0,0,1-.544.779,4.776,4.776,0,0,1-.725.725,3.656,3.656,0,0,1-.928.522,3.048,3.048,0,0,1-1.12.2,2.018,2.018,0,0,1-.529-.069,1.087,1.087,0,0,1-.442-.236,1.247,1.247,0,0,1-.308-.449,1.863,1.863,0,0,1-.116-.7,2.047,2.047,0,0,1,.033-.3,6.178,6.178,0,0,1,.214-.913q.181-.627.544-1.631A24.546,24.546,0,0,1,34.663,36.2a1.276,1.276,0,0,1,.4-.544.8.8,0,0,1,.493-.163.913.913,0,0,1,.243.033.852.852,0,0,1,.232.109.576.576,0,0,1,.174.188.482.482,0,0,1,.065.272.655.655,0,0,1-.022.188,2.431,2.431,0,0,1-.181.438c-.091.181-.2.388-.319.62s-.254.482-.388.75a7.2,7.2,0,0,0-.362.837,8.125,8.125,0,0,0-.3.881,3.924,3.924,0,0,0-.141.87.634.634,0,0,0,.087.323.29.29,0,0,0,.272.149,1.768,1.768,0,0,0,1.029-.362,4.635,4.635,0,0,0,.906-.881,8.738,8.738,0,0,0,.75-1.131c.225-.4.41-.772.558-1.087a5.388,5.388,0,0,0,.272-.725,7.493,7.493,0,0,1,.272-.707,2.174,2.174,0,0,1,.326-.544.6.6,0,0,1,.928,0,.841.841,0,0,1,.174.544,1.5,1.5,0,0,1-.112.486q-.109.308-.272.725c-.105.265-.228.547-.362.852s-.254.609-.362.917-.2.605-.272.913a3.624,3.624,0,0,0-.112.833.323.323,0,0,0,.279.362.362.362,0,0,0,.087,0,1.613,1.613,0,0,0,.638-.178,4.574,4.574,0,0,0,.8-.5c.069-.054.141-.109.207-.167a7.454,7.454,0,0,1,.272-.891c.2-.511.391-1.018.591-1.522L42.06,36.7l2.515-6.342a1.087,1.087,0,0,1,.4-.544.92.92,0,0,1,.511-.156.725.725,0,0,1,.467.163.66.66,0,0,1,.214.544,1.2,1.2,0,0,1-.072.362,4.348,4.348,0,0,1-.178.424c-.138.308-.3.685-.5,1.131s-.395.931-.612,1.45-.446,1.087-.674,1.634l-.67,1.652c-.217.544-.424,1.055-.616,1.529L42.357,39.8a5.29,5.29,0,0,0-.181.525,1.983,1.983,0,0,0-.087.544.5.5,0,0,0,.051.239.2.2,0,0,0,.188.087,1.087,1.087,0,0,0,.435-.12,3.953,3.953,0,0,0,.565-.326c.2-.134.413-.286.631-.46s.438-.362.656-.544.42-.362.62-.562l.525-.515a.438.438,0,0,1,.127-.087c.094-.272.181-.544.254-.815.043-.116.105-.283.181-.5a6.183,6.183,0,0,1,.272-.641,3.014,3.014,0,0,1,.337-.544.529.529,0,0,1,.406-.207.634.634,0,0,1,.482.152.609.609,0,0,1,.149.446,1.589,1.589,0,0,1,0,.188,1.562,1.562,0,0,1-.043.272q-.022.141-.054.272a.861.861,0,0,1-.054.188q.312-.337.663-.663a7.173,7.173,0,0,1,.725-.594,4.139,4.139,0,0,1,.783-.435,2.062,2.062,0,0,1,.8-.163,1.989,1.989,0,0,1,.544.076,1.584,1.584,0,0,1,.478.232,1.217,1.217,0,0,1,.362.384,1.051,1.051,0,0,1,.13.544,2.105,2.105,0,0,1-.2.862,6.3,6.3,0,0,1-.511.917,10.428,10.428,0,0,1-.663.9c-.236.294-.46.558-.667.8l-.525.609a.953.953,0,0,0-.221.341.268.268,0,0,0,.076.192.362.362,0,0,0,.25.076,1.029,1.029,0,0,0,.366-.178,6.642,6.642,0,0,0,.765-.544c.33-.257.75-.605,1.254-1.04l1.214-1.062,2.2-20.334a5.581,5.581,0,0,1-.939.391,23.157,23.157,0,0,1-3.812.761Zm-12.234-4.82c-9.491,0-17.184,1.058-17.184,2.37S29.13,19.38,38.642,19.38s17.184-1.058,17.184-2.37S48.123,14.647,38.642,14.647Zm6.86,3.062c0,.308-.913.544-2.04.544s-2.04-.25-2.04-.544.913-.544,2.04-.544S45.5,17.4,45.5,17.7Z" transform="translate(-21.458 -14.647)"/></g><path class="d" d="M27.078,29.646V29.7c0,.2.725.362,1.631.362S30.34,29.9,30.34,29.7L32.488,21l8.542-9.016h0c.178-.2-.185-.837-.794-1.381s-1.268-.725-1.471-.518h0l-9.081,9.578Z" transform="translate(105.746 334.126)"/></g></svg>