<svg xmlns="http://www.w3.org/2000/svg" width="130.243" height="102.133" viewBox="0 0 130.243 102.133"><g transform="translate(-203 -1456)"><g transform="translate(-11 916)"><path d="M121.846,74.667H53.978c-6.247,0-11.311,11.193-11.311,25v10c0,2.762,1.013,5,2.262,5H64.294c.965.01,1.824,1.352,2.149,3.36l2.466,16.491c.951,6.052,3.526,10.12,6.425,10.15H130.9c1.249,0,2.262-2.239,2.262-5v-40C133.157,85.86,128.093,74.667,121.846,74.667Z" transform="translate(180.333 465.333)" fill="#dcb67a"/><path d="M101.709,155.135H41.678a2.4,2.4,0,0,1-2.147-1.844l-2.464-9.052c-.952-3.321-3.523-5.553-6.419-5.572H6.781C3.036,138.667,0,142.353,0,146.9a93.392,93.392,0,0,0,2.672,22.308l9.041,36.515c1.432,5.819,5.843,9.8,10.845,9.793H86.385c4.728.016,8.964-3.542,10.618-8.92l9.764-31.629a39.708,39.708,0,0,0,1.722-11.6C108.49,158.821,105.454,155.135,101.709,155.135Z" transform="translate(214 411.333)" fill="#c09553"/></g><g transform="translate(13 177)"><path d="M7.935,13.424A6.514,6.514,0,0,1,19.894,14.6a6.638,6.638,0,0,1,.037,3.683A6.508,6.508,0,1,1,7.935,13.424m5.346.281a2.586,2.586,0,1,1-.014,0Z" transform="translate(246.019 1312)" fill="#509ff7"/><path d="M8.137,21.243a6.511,6.511,0,0,1,11.775,1.581,6.638,6.638,0,0,1,0,3.683A6.508,6.508,0,1,1,8.134,21.243M13,21.927a2.814,2.814,0,1,0,2.814.9,2.814,2.814,0,0,0-2.814-.9Z" transform="translate(246.017 1326.801)" fill="#509ff7"/><path d="M7.929,29.851a6.508,6.508,0,0,1,11.995,1.171,6.612,6.612,0,0,1,0,3.683A6.508,6.508,0,1,1,7.929,29.851m5.138.281a2.814,2.814,0,1,0,2.428.591,2.814,2.814,0,0,0-2.428-.591Z" transform="translate(246 1341.693)" fill="#509ff7"/><path d="M11.688,11.647a23.891,23.891,0,0,1,3.728.158,10.129,10.129,0,0,1,8.4,9.868,6.452,6.452,0,0,0,6.125,6.505c.99.028,1.97,0,2.971,0v3.68a20.971,20.971,0,0,1-5.143-.315,10.129,10.129,0,0,1-7.611-9.589,6.663,6.663,0,0,0-.934-3.5A6.443,6.443,0,0,0,15.138,15.5a17.813,17.813,0,0,0-3.4-.169,6.638,6.638,0,0,0-.051-3.683Z" transform="translate(254.224 1314.954)" fill="#014798"/><path d="M37.437,18.353a1.843,1.843,0,0,1,2.577.039q2.78,2.755,5.537,5.535a1.854,1.854,0,0,1,.068,2.622q-2.794,2.814-5.608,5.608a1.835,1.835,0,0,1-2.667-2.515c.816-.844,1.663-1.671,2.493-2.507-5.726-.048-11.455,0-17.183-.023V23.438c5.729-.017,11.457,0,17.186,0-.813-.844-1.688-1.66-2.49-2.515A1.84,1.84,0,0,1,37.437,18.353Z" transform="translate(274.113 1326.227)" fill="#014798"/><path d="M11.694,19.82H32.907v3.689c-7.068-.014-14.139,0-21.207,0a6.638,6.638,0,0,0-.006-3.689Z" transform="translate(254.235 1329.805)" fill="#014798"/><path d="M28.473,22.32a29.724,29.724,0,0,1,4.42-.166V25.84c-1.125.028-2.273-.053-3.4.051a6.441,6.441,0,0,0-5.065,3.6,6.97,6.97,0,0,0-.625,3.044,10.11,10.11,0,0,1-9.285,9.811c-.94.073-1.882.037-2.814.048a6.612,6.612,0,0,0,0-3.683,12.549,12.549,0,0,0,4.088-.352,6.472,6.472,0,0,0,4.344-5.94,10.239,10.239,0,0,1,1.927-6.049A10.129,10.129,0,0,1,28.473,22.32Z" transform="translate(254.246 1334.002)" fill="#014798"/><path d="M19.246,17.479a1.829,1.829,0,0,1,1.193-1.657,3.227,3.227,0,0,1,1.125-.124H27.02a1.846,1.846,0,0,1,1.629,1,3.1,3.1,0,0,1,.205,1.494q0,4.575,0,9.15V40.776a1.849,1.849,0,0,1-1.826,1.88c-1.818.017-3.635,0-5.453,0a2.929,2.929,0,0,1-1.286-.186,1.832,1.832,0,0,1-1.05-1.584c-.025-1.125,0-2.251,0-3.376V17.453m3.68,1.922v19.6h2.251c.031-6.533,0-13.073,0-19.609C24.429,19.375,23.675,19.375,22.921,19.375Z" transform="translate(267.901 1322.315)" fill="#f7b61a"/></g></g></svg>