<svg xmlns="http://www.w3.org/2000/svg" viewBox="0 0 133.57 90.62"><defs><style>.cls-1{fill:#e2dacf;}.cls-2{fill:#a3a2a2;}.cls-3{opacity:0.15;}.cls-4,.cls-5,.cls-6{fill:none;stroke:#d6d6d6;}.cls-4,.cls-5{stroke-miterlimit:10;}.cls-5{fill-rule:evenodd;}.cls-6{stroke-miterlimit:133.33;stroke-width:6px;}</style></defs><g id="Camada_2" data-name="Camada 2"><g id="Camada_1-2" data-name="Camada 1"><path class="cls-1" d="M96.21,1.07H12.65A12.27,12.27,0,0,0,.37,13.3,12.82,12.82,0,0,0,.48,15a2.46,2.46,0,0,0,2.76,2.12,2.35,2.35,0,0,0,.92-.32,7,7,0,0,1,3.58-.94h17.5a7.43,7.43,0,0,1,7,5l.41,1.35a12.36,12.36,0,0,0,11.66,8.4h56.82a7.42,7.42,0,0,1,3.67,1,2.45,2.45,0,0,0,3.36-.89,2.42,2.42,0,0,0,.34-1.23V13.36A12.28,12.28,0,0,0,96.21,1.07Z"/><path class="cls-2" d="M102.86,15.09a11.29,11.29,0,0,0-5.67-1.53H44.93A6.8,6.8,0,0,1,38.51,9l-.39-1.24A11.35,11.35,0,0,0,27.4,0H11.3A10.84,10.84,0,0,0,5.77,1.46,11.26,11.26,0,0,0,0,11.3V65.55a11.3,11.3,0,0,0,11.3,11.3H97.19a11.3,11.3,0,0,0,11.3-11.3h0V24.86A11.22,11.22,0,0,0,102.86,15.09Z"/><g id="SVGRepo_iconCarrier" data-name="SVGRepo iconCarrier"><g class="cls-3"><path class="cls-4" d="M103.72,87.62h-.31l.15-.15Z"/><path class="cls-5" d="M121.55,80.76c0-.21,0-.42,0-.64a10.51,10.51,0,0,0-10.51-10.5h-15a10.5,10.5,0,0,0-10.5,10.5c0,.22,0,.43,0,.64a27,27,0,1,1,36,0Zm-18-20.14a9,9,0,1,0-9-9A9,9,0,0,0,103.56,60.62Z"/></g><path class="cls-6" d="M121.57,80.75c0-4.86-3.52-11.13-9-11.13h-18c-5.48,0-9,6.27-9,11.13m-9-20.13a27,27,0,1,1,27,27A27,27,0,0,1,76.56,60.62Zm36-9a9,9,0,1,1-9-9A9,9,0,0,1,112.56,51.62Z"/></g></g></g></svg>