<svg xmlns="http://www.w3.org/2000/svg" width="121.652" height="100.976" viewBox="0 0 121.652 100.976"><defs><style>.a{fill:#db7bab;}.b{fill:#bf558a;}.c{fill:#fff;}</style></defs><g transform="translate(-89 -452.512)"><path class="a" d="M117.206,53.334H33.653A12.257,12.257,0,0,0,21.483,67.219a2.457,2.457,0,0,0,3.681,1.8,6.96,6.96,0,0,1,3.573-.944h17.5a7.412,7.412,0,0,1,6.989,5l.418,1.347A12.346,12.346,0,0,0,65.3,82.823h56.816a7.372,7.372,0,0,1,3.671.983,2.462,2.462,0,0,0,3.7-2.123V65.621A12.287,12.287,0,0,0,117.206,53.334Z" transform="translate(68 399.225)"/><g transform="translate(55 218.022)"><g transform="translate(16 -18)"><path class="b" d="M102.856,111.089a11.235,11.235,0,0,0-5.664-1.528H44.934a6.817,6.817,0,0,1-6.428-4.6l-.384-1.239A11.355,11.355,0,0,0,27.4,96H11.3a10.816,10.816,0,0,0-5.533,1.46A11.274,11.274,0,0,0,0,107.3v54.247a11.3,11.3,0,0,0,11.3,11.3H97.192a11.3,11.3,0,0,0,11.3-11.3V120.862A11.224,11.224,0,0,0,102.856,111.089Z" transform="translate(18 156.49)"/></g></g><path class="c" d="M40.083,47.4c-1.078.5-2.258,1.141-4.62,2.437-.9.5-1.834,1.009-2.7,1.493-.06-.06-.122-.137-.182-.2-4.674-5-13.321-8.524-12.953-15.232.137-2.443.977-8.861,16.606-16.651,12.864-6.341,23.1-4.582,24.87-.687,2.536,5.561-5.484,15.886-18.774,17.385a10.011,10.011,0,0,1-8.4-2.124c-.7-.765-.809-.809-1.069-.657-.427.23-.152.917,0,1.314a7.846,7.846,0,0,0,4.8,3.772,25.539,25.539,0,0,0,15.582-1.544c8.064-3.115,14.336-11.776,12.5-19.034C63.88,10.313,51.659,7.882,40.1,12a58.24,58.24,0,0,0-19.691,11.3c-6.371,5.958-7.377,11.137-6.965,13.306,1.493,7.7,12.1,12.708,16.346,16.427-.215.122-.412.23-.579.32-2.124,1.054-10.22,5.286-12.245,9.76-2.291,5.077.367,8.706,2.124,9.2a13.064,13.064,0,0,0,14.07-5.7,14.112,14.112,0,0,0,1.251-13,11.267,11.267,0,0,1,1.6-1.069c1.084-.642,2.118-1.272,3.034-1.759h0A23.463,23.463,0,0,1,49.07,48.57c7.273.854,8.706,5.391,8.431,7.3a4.833,4.833,0,0,1-2.306,3.27c-.5.32-.672.427-.627.657.06.337.3.32.735.26a5.675,5.675,0,0,0,3.96-5.089c.23-4.48-4.047-9.4-11.609-9.348a17.368,17.368,0,0,0-6.6,1.314q-.5.209-.98.442ZM29.274,64.945c-2.413,2.628-5.773,3.62-7.225,2.781-1.559-.9-.947-4.779,2.016-7.562a38.483,38.483,0,0,1,5.675-4.232c.352-.215.872-.52,1.493-.9l.167-.093.367-.23A10.432,10.432,0,0,1,29.274,64.945Z" transform="translate(144.6 480.814)"/></g></svg>