<svg xmlns="http://www.w3.org/2000/svg" viewBox="0 0 108.49 76.85"><defs><style>.cls-1{fill:#dcb67a;}.cls-2{fill:#c09553;}.cls-3{fill:#ffb13b;}</style></defs><g id="Camada_2" data-name="Camada 2"><g id="Camada_1-2" data-name="Camada 1"><path class="cls-1" d="M96.21,1.07H12.65A12.27,12.27,0,0,0,.37,13.3,12.82,12.82,0,0,0,.48,15a2.46,2.46,0,0,0,2.76,2.12,2.35,2.35,0,0,0,.92-.32,7,7,0,0,1,3.58-.94h17.5a7.43,7.43,0,0,1,7,5l.41,1.35a12.36,12.36,0,0,0,11.66,8.4h56.82a7.42,7.42,0,0,1,3.67,1,2.45,2.45,0,0,0,3.36-.89,2.42,2.42,0,0,0,.34-1.23V13.36A12.28,12.28,0,0,0,96.21,1.07Z"/><path class="cls-2" d="M102.86,15.09a11.29,11.29,0,0,0-5.67-1.53H44.93A6.8,6.8,0,0,1,38.51,9l-.39-1.24A11.35,11.35,0,0,0,27.4,0H11.3A10.84,10.84,0,0,0,5.77,1.46,11.26,11.26,0,0,0,0,11.3V65.55a11.3,11.3,0,0,0,11.3,11.3H97.19a11.3,11.3,0,0,0,11.3-11.3h0V24.86A11.22,11.22,0,0,0,102.86,15.09Z"/><path d="M99.9,49.93a7.73,7.73,0,0,0-5.47-13.19,7.64,7.64,0,0,0-1.44.13A7.72,7.72,0,1,0,82.25,26.15a7.78,7.78,0,0,0-2.12-6.92,7.73,7.73,0,0,0-13.06,6.92A7.72,7.72,0,1,0,56.33,36.87a7.74,7.74,0,1,0,0,15.19A7.73,7.73,0,1,0,67.07,62.78a7.73,7.73,0,1,0,15.18,0A7.72,7.72,0,1,0,93,52.06a7.68,7.68,0,0,0,6.91-2.13"/><path class="cls-3" d="M97.57,41.33a4.44,4.44,0,0,0-6.27,0H82.23l6.41-6.41a4.44,4.44,0,1,0-4.43-4.43L77.79,36.9V27.83a4.43,4.43,0,1,0-6.27,0V36.9l-6.41-6.41a4.44,4.44,0,1,0-4.43,4.43l6.41,6.41H58a4.43,4.43,0,1,0,0,6.27h9.07L60.68,54a4.43,4.43,0,1,0,4.43,4.43L71.52,52v9.08a4.43,4.43,0,1,0,6.27,0V52l6.42,6.42A4.43,4.43,0,1,0,88.64,54L82.23,47.6H91.3a4.43,4.43,0,1,0,6.27-6.27"/></g></g></svg>