<svg xmlns="http://www.w3.org/2000/svg" width="130.234" height="104.015" viewBox="0 0 130.234 104.015"><g transform="translate(-375 -1481)"><path d="M117.206,53.334H33.653a12.257,12.257,0,0,0-12.17,13.885,2.457,2.457,0,0,0,3.681,1.8,6.96,6.96,0,0,1,3.573-.944h17.5a7.412,7.412,0,0,1,6.989,5l.418,1.347a12.346,12.346,0,0,0,11.656,8.4h56.816a7.372,7.372,0,0,1,3.671.983,2.462,2.462,0,0,0,3.7-2.123V65.621a12.287,12.287,0,0,0-12.281-12.287Z" transform="translate(354 1427.735)" fill="#345e75"/><g transform="translate(357 1228.51)"><path d="M102.856,111.089a11.235,11.235,0,0,0-5.664-1.528H44.934a6.817,6.817,0,0,1-6.428-4.6l-.384-1.239A11.355,11.355,0,0,0,27.4,96H11.3a10.816,10.816,0,0,0-5.533,1.46A11.274,11.274,0,0,0,0,107.3v54.247a11.3,11.3,0,0,0,11.3,11.3H97.192a11.3,11.3,0,0,0,11.3-11.3V120.862A11.224,11.224,0,0,0,102.856,111.089Z" transform="translate(18 156.49)" fill="#5599bf"/></g><path d="M85.734,15.781v54.9H10v-54.9H85.734" transform="translate(419.5 1514.333)" fill="#345e75"/><path d="M31.875,17.894a5.961,5.961,0,1,0,3.047,1.684,5.961,5.961,0,0,0-3.047-1.684" transform="translate(457.758 1519.512)" fill="#fff"/><path d="M48.525,41.274,33.8,20.786l-21.862,30.4H41.417q3.56-4.955,7.126-9.907" transform="translate(424.551 1527.388)" fill="#fff"/><path d="M35.959,23.391q-7.555,10.5-15.1,21H51.066Q43.514,33.882,35.959,23.391Z" transform="translate(447.792 1534.178)" fill="#fff"/></g></svg>