<svg xmlns="http://www.w3.org/2000/svg" viewBox="0 0 108.49 86.85"><defs><style>.cls-1{fill:#66f;}.cls-2{fill:#336;}.cls-3{fill:#63c;}</style></defs><g id="Camada_2" data-name="Camada 2"><g id="Camada_1-2" data-name="Camada 1"><path class="cls-1" d="M88.18,0H20.31C14.06,0,9,11.19,9,25V35c0,2.76,1,5,2.26,5H30.63c1,0,1.82,1.35,2.15,3.36l2.46,16.49C36.19,65.9,38.77,70,41.67,70H97.23c1.25,0,2.27-2.24,2.27-5V25C99.49,11.19,94.43,0,88.18,0Z"/><path class="cls-2" d="M101.71,26.47h-60a2.4,2.4,0,0,1-2.15-1.85l-2.46-9c-1-3.32-3.53-5.55-6.42-5.57H6.78C3,10,0,13.69,0,18.23A93.65,93.65,0,0,0,2.67,40.54l9,36.52c1.44,5.81,5.85,9.8,10.85,9.79H86.39c4.72,0,9-3.54,10.61-8.92l9.77-31.63a40,40,0,0,0,1.72-11.6C108.49,30.15,105.45,26.47,101.71,26.47Z"/><path class="cls-3" d="M91.24,70a3.92,3.92,0,0,0-.42-7.82h-.15a3.93,3.93,0,0,0-3.83,4A4,4,0,0,0,88,68.79c-2.42,4.68-6.11,8.1-11.65,11a19.5,19.5,0,0,1-11.57,2.16,9.91,9.91,0,0,1-7.25-4.12A10.11,10.11,0,0,1,57,67a16.43,16.43,0,0,1,4.82-5.58c-.28-.91-.71-2.44-.92-3.56-10.3,7.33-9.23,17.24-6.11,21.92,2.35,3.49,7.11,5.65,12.36,5.65a18.19,18.19,0,0,0,4.26-.48A27.21,27.21,0,0,0,91.24,70Zm12.5-8.66c-5.4-6.21-13.35-9.63-22.44-9.63H80.17a3.91,3.91,0,0,0-3.48-2.1h-.15a3.91,3.91,0,0,0,.15,7.82h.14A4,4,0,0,0,80.31,55h1.28a27.41,27.41,0,0,1,15.12,4.53,18.82,18.82,0,0,1,7.53,8.94,9.55,9.55,0,0,1-.15,8.24,10.43,10.43,0,0,1-9.72,5.72,18.61,18.61,0,0,1-7-1.46c-.78.69-2.2,1.81-3.2,2.51a22.19,22.19,0,0,0,9.16,2.16c6.82,0,11.86-3.7,13.78-7.4C109.21,74.23,109.06,67.25,103.74,61.32ZM67.67,71.16a4,4,0,0,0,4,3.77h.15a3.91,3.91,0,0,0-.15-7.82H71.5a1.19,1.19,0,0,0-.49.07,25.2,25.2,0,0,1-3.7-15.49A18.67,18.67,0,0,1,71.5,40.86c2.06-2.58,6-3.84,8.74-3.91C87.76,36.82,91,46,91.17,49.73c.92.21,2.49.7,3.55,1.05C93.87,39.47,86.77,33.6,80,33.6c-6.39,0-12.28,4.54-14.63,11.24-3.26,8.94-1.13,17.53,2.84,24.3a3.11,3.11,0,0,0-.49,2Z"/></g></g></svg>