<svg xmlns="http://www.w3.org/2000/svg" viewBox="0 0 128.07 128.02"><defs><style>.cls-1{fill:#205372;}.cls-2{fill:#558fbf;}.cls-3{fill:#0769ad;}.cls-4{fill:#78cff5;}</style></defs><g id="Camada_2" data-name="Camada 2"><g id="Camada_1-2" data-name="Camada 1"><path class="cls-1" d="M88.3,0H20.4C14.2,0,9.1,11.2,9.1,25V35c0,2.8,1,5,2.3,5H30.8c1,0,1.8,1.4,2.2,3.4l2.5,16.5c1,6,3.5,10.1,6.4,10.1H97.5c1.2,0,2.3-2.2,2.3-5V25C99.6,11.2,94.5,0,88.3,0Z"/><path class="cls-2" d="M101.8,26.5h-60a2.58,2.58,0,0,1-2.2-1.8l-2.5-9c-1-3.3-3.5-5.6-6.4-5.6H6.8C3,10,0,13.7,0,18.3A93.21,93.21,0,0,0,2.7,40.6l9,36.5c1.4,5.8,5.9,9.8,10.9,9.8H86.5c4.7,0,9-3.5,10.6-8.9l9.8-31.6a41.75,41.75,0,0,0,1.7-11.6C108.6,30.1,105.5,26.5,101.8,26.5Z"/><circle class="cls-3" cx="83.85" cy="83.8" r="44.22"/><path class="cls-4" d="M104.88,75.65a16.84,16.84,0,0,0,10.41-3.52,16.51,16.51,0,0,1-13.22,6.36c-8.91,0-16.13-6.67-16.13-14.9a14.45,14.45,0,0,1,5.72-11.38,14.06,14.06,0,0,0-2.92,8.54C88.74,69,96,75.65,104.88,75.65Z"/><path class="cls-4" d="M115.14,85.88a25.64,25.64,0,0,1-15.87,5.38c-13.57,0-24.56-10.16-24.56-22.7A21.48,21.48,0,0,1,79.18,55.5,22,22,0,0,0,70.5,72.82c0,12.54,11,22.7,24.56,22.7A25.15,25.15,0,0,0,115.14,85.88Z"/><path class="cls-4" d="M115.44,98.87a34.51,34.51,0,0,1-23.89,9.42C73,108.29,57.87,94,57.87,76.36A30.47,30.47,0,0,1,62.05,61a31,31,0,0,0-9.79,22.5c0,17.63,15.08,31.93,33.68,31.93A34,34,0,0,0,115.44,98.87Z"/></g></g></svg>