<svg xmlns="http://www.w3.org/2000/svg" width="138" height="89.512" viewBox="0 0 138 89.512"><defs><style>.a{fill:#ffa000;}.b{fill:#ffc107;}.c{fill:#755838;}.d,.f{fill:none;}.d{stroke:#755838;stroke-width:4px;}.e{stroke:none;}</style></defs><g transform="translate(-29 -319.488)"><path class="a" d="M117.206,53.334H33.653A12.257,12.257,0,0,0,21.483,67.219a2.457,2.457,0,0,0,3.681,1.8,6.96,6.96,0,0,1,3.573-.944h17.5a7.412,7.412,0,0,1,6.989,5l.418,1.347A12.346,12.346,0,0,0,65.3,82.823h56.816a7.372,7.372,0,0,1,3.671.983,2.462,2.462,0,0,0,3.7-2.123V65.621A12.287,12.287,0,0,0,117.206,53.334Z" transform="translate(8 266.225)"/><g transform="translate(-5 85)"><g transform="translate(16 -18)"><path class="b" d="M102.856,111.089a11.235,11.235,0,0,0-5.664-1.528H44.934a6.817,6.817,0,0,1-6.428-4.6l-.384-1.239A11.355,11.355,0,0,0,27.395,96H11.3a10.816,10.816,0,0,0-5.533,1.46A11.274,11.274,0,0,0,0,107.3v54.247a11.3,11.3,0,0,0,11.3,11.3H97.192a11.3,11.3,0,0,0,11.3-11.3V120.862A11.224,11.224,0,0,0,102.856,111.089Z" transform="translate(18 156.49)"/></g></g><g transform="translate(-21 -152.442)"><g transform="translate(108.085 519.726)"><path class="c" d="M24.208,28.894,18.746,15.882l-5.6,13.012ZM38.191,42.436h-14.7V39.6l.953-.048a3.842,3.842,0,0,0,2.022-.416.651.651,0,0,0,.3-.547,8.649,8.649,0,0,0-.871-2.912L24.2,31.658H13.069l-1.918,4.47a6.9,6.9,0,0,0-.726,2.407c0,.075,0,.248.32.5a5.16,5.16,0,0,0,2.477.514l.932.069v2.816H2V39.709l.832-.146a4.551,4.551,0,0,0,2.08-.661,13.141,13.141,0,0,0,2.454-4.3l11.6-27.114h2.174L32.6,34.892a10.93,10.93,0,0,0,2.182,3.817,4.075,4.075,0,0,0,2.475.832l.944.056Z" transform="translate(-2 -7.491)"/><path class="c" d="M32.653,31.288V23a46.889,46.889,0,0,0-4.63,2.018A8,8,0,0,0,25.34,27.2a4.222,4.222,0,0,0-.807,2.5,4.058,4.058,0,0,0,1.021,2.833,3.1,3.1,0,0,0,2.35,1.131A8.615,8.615,0,0,0,32.653,31.288ZM25.72,37.421a5.892,5.892,0,0,1-4.449-1.857,6.668,6.668,0,0,1-1.733-4.753,6.155,6.155,0,0,1,.863-3.28,10.4,10.4,0,0,1,3.725-3.38,49.662,49.662,0,0,1,7.523-3.3v-.154a6.042,6.042,0,0,0-.8-3.813,2.756,2.756,0,0,0-2.236-.857,2.4,2.4,0,0,0-1.7.541,1.429,1.429,0,0,0-.576,1.115l.048,1.344a3.369,3.369,0,0,1-.832,2.409,3.08,3.08,0,0,1-4.368-.04,3.4,3.4,0,0,1-.813-2.359,5.824,5.824,0,0,1,2.459-4.528,10.011,10.011,0,0,1,6.5-1.939,11.192,11.192,0,0,1,5.217,1.09,5.466,5.466,0,0,1,2.523,2.8,13.293,13.293,0,0,1,.508,4.576v7.384a30.5,30.5,0,0,0,.106,3.638,1.375,1.375,0,0,0,.112.416c.177-.162.591-.468,1.8-1.676l1.7-1.722v4.091l-.208.266C39.1,36.1,37.179,37.4,35.209,37.4a3.328,3.328,0,0,1-2.614-1.159A3.719,3.719,0,0,1,31.85,34.7a20.15,20.15,0,0,1-2.981,2.032,7.444,7.444,0,0,1-3.149.691Z" transform="translate(16.935 -2.025)"/></g><g class="d" transform="translate(86 514.442)"><rect class="e" width="102" height="47" rx="12"/><rect class="f" x="2" y="2" width="98" height="43" rx="10"/></g></g></g></svg>