<svg xmlns="http://www.w3.org/2000/svg" viewBox="0 0 142.02 102.16"><defs><style>.cls-1{fill:#d88091;}.cls-2{fill:#af6175;}.cls-3{fill:#ff4b4b;}.cls-4{fill:#7d353b;}.cls-5{fill:#bd4043;}</style></defs><g id="Camada_2" data-name="Camada 2"><g id="Camada_1-2" data-name="Camada 1"><path class="cls-1" d="M88.3,0H20.4C14.2,0,9.1,11.2,9.1,25V35c0,2.8,1,5,2.3,5H30.8c1,0,1.8,1.4,2.2,3.4l2.5,16.5c1,6,3.5,10.1,6.4,10.1H97.5c1.2,0,2.3-2.2,2.3-5V25C99.6,11.2,94.5,0,88.3,0Z"/><path class="cls-2" d="M101.8,26.5h-60a2.58,2.58,0,0,1-2.2-1.8l-2.5-9c-1-3.3-3.5-5.6-6.4-5.6H6.8C3,10,0,13.7,0,18.3A93.21,93.21,0,0,0,2.7,40.6l9,36.5c1.4,5.8,5.9,9.8,10.9,9.8H86.5c4.7,0,9-3.5,10.6-8.9l9.8-31.6a41.75,41.75,0,0,0,1.7-11.6C108.6,30.1,105.5,26.5,101.8,26.5Z"/><path class="cls-3" d="M84.9,42.91a2.16,2.16,0,0,1,3.57,0h0l17.62,26.26,18.72,27.9a7.52,7.52,0,0,1-.76,1.11,6.46,6.46,0,0,1-.61.68h0l-.16.13-.06.05q-.33.24-.66.45a3.61,3.61,0,0,1-.55.32,6.11,6.11,0,0,1-.77.3,3.18,3.18,0,0,1-.43.13l-.23,0-.16,0h0l-.23,0a6.4,6.4,0,0,1-.77,0,301.58,301.58,0,0,1-65.39,0h-.41c-.21,0-.44-.07-.61-.1l-.41-.1a5.49,5.49,0,0,1-3.92-3s0-.09,0-.13h0L31.44,53.22a1.49,1.49,0,0,1,2-1.88.18.18,0,0,1,.12,0h0l33.68,17.8Zm54.91,8.46a1.48,1.48,0,0,1,2.12,1.79h0v.06L124.81,97.07l-18.72-27.9,33.69-17.8Z"/><path class="cls-4" d="M139.81,51.37h0l-33.69,17.8,18.72,27.9,17.12-43.85v-.06a1.48,1.48,0,0,0-2.12-1.79"/><path class="cls-5" d="M88.47,42.91a2.16,2.16,0,0,0-3.57,0L67.27,69.17l19.4,10.26,36.77,19.43a6.46,6.46,0,0,0,.61-.68,7.52,7.52,0,0,0,.76-1.11l-18.72-27.9Z"/></g></g></svg>