<svg xmlns="http://www.w3.org/2000/svg" width="119" height="99.694" viewBox="0 0 119 99.694"><g transform="translate(-208 -1580)"><path d="M121.846,74.667H53.978c-6.247,0-11.311,11.193-11.311,25v10c0,2.762,1.013,5,2.262,5H64.294c.965.01,1.824,1.352,2.149,3.36l2.466,16.491c.951,6.052,3.526,10.12,6.425,10.15H130.9c1.249,0,2.262-2.239,2.262-5v-40C133.157,85.86,128.093,74.667,121.846,74.667Z" transform="translate(174.333 1505.333)" fill="#9b9b9b"/><path d="M101.709,155.135H41.678a2.4,2.4,0,0,1-2.147-1.844l-2.464-9.052c-.952-3.321-3.523-5.553-6.419-5.572H6.781C3.036,138.667,0,142.353,0,146.9a93.392,93.392,0,0,0,2.672,22.308l9.041,36.515c1.432,5.819,5.843,9.8,10.845,9.793H86.385c4.728.016,8.964-3.542,10.618-8.92l9.764-31.629a39.708,39.708,0,0,0,1.722-11.6C108.49,158.821,105.454,155.135,101.709,155.135Z" transform="translate(208 1451.333)" fill="gray"/><path d="M70.544,53.448a18.676,18.676,0,0,1,8.912-15.716,19.277,19.277,0,0,0-15.1-8.183c-6.428-.653-12.544,3.785-15.809,3.785s-8.291-3.689-13.618-3.6A20.2,20.2,0,0,0,17.855,40.091c-7.281,12.632-1.866,31.349,5.231,41.594C26.554,86.7,30.7,92.334,36.115,92.13c5.227-.208,7.209-3.384,13.526-3.384s8.1,3.384,13.618,3.28c5.607-.1,9.188-5.111,12.632-10.141A45.519,45.519,0,0,0,81.622,70.13,18.236,18.236,0,0,1,70.544,53.448ZM60.13,22.768A18.2,18.2,0,0,0,64.424,9.583a18.508,18.508,0,0,0-12.16,6.252,17.306,17.306,0,0,0-4.386,12.773,15.312,15.312,0,0,0,12.272-5.84Z" transform="translate(245.378 1587.559)" fill="#b3b3b3"/></g></svg>