<svg xmlns="http://www.w3.org/2000/svg" viewBox="0 0 126.68 121.65"><defs><style>.cls-1{fill:#c87d4c;}.cls-2{fill:#8e5613;}</style></defs><g id="Camada_2" data-name="Camada 2"><g id="Camada_1-2" data-name="Camada 1"><path class="cls-1" d="M88.3,0H20.4C14.2,0,9.1,11.2,9.1,25V35c0,2.8,1,5,2.3,5H30.8c1,0,1.8,1.4,2.2,3.4l2.5,16.5c1,6,3.5,10.1,6.4,10.1H97.5c1.2,0,2.3-2.2,2.3-5V25C99.6,11.2,94.5,0,88.3,0Z"/><path class="cls-2" d="M101.8,26.5h-60a2.58,2.58,0,0,1-2.2-1.8l-2.5-9c-1-3.3-3.5-5.6-6.4-5.6H6.8C3,10,0,13.7,0,18.3A93.21,93.21,0,0,0,2.7,40.6l9,36.5c1.4,5.8,5.9,9.8,10.9,9.8H86.5c4.7,0,9-3.5,10.6-8.9l9.8-31.6a41.75,41.75,0,0,0,1.7-11.6C108.6,30.1,105.5,26.5,101.8,26.5Z"/><g id="SVGRepo_iconCarrier" data-name="SVGRepo iconCarrier"><path class="cls-1" d="M84.81,64.08a15.53,15.53,0,0,1,4.12.57L97.9,40a42,42,0,0,0-26.17,0l9,24.64A15.51,15.51,0,0,1,84.81,64.08Z"/><path class="cls-1" d="M69.11,79.78a15.51,15.51,0,0,1,.57-4.11l-24.63-9a41.82,41.82,0,0,0,0,26.17l24.63-9A15.53,15.53,0,0,1,69.11,79.78Z"/><path class="cls-1" d="M124.58,66.7l-24.63,9a15.4,15.4,0,0,1,0,8.23l24.63,9a41.82,41.82,0,0,0,0-26.17Z"/><path class="cls-1" d="M84.81,95.48a15.5,15.5,0,0,1-4.11-.56l-9,24.63a41.82,41.82,0,0,0,26.17,0l-9-24.63A15.52,15.52,0,0,1,84.81,95.48Z"/><path class="cls-1" d="M91.57,65.63l18.9-18.9a41.76,41.76,0,0,0-10.11-5.82l-9,24.63Z"/><path class="cls-1" d="M99.06,73.21l24.63-9a41.9,41.9,0,0,0-5.82-10.11L99,73A1.51,1.51,0,0,0,99.06,73.21Z"/><path class="cls-1" d="M78.24,65.54l-9-24.63a41.76,41.76,0,0,0-10.11,5.82l18.9,18.9Z"/><path class="cls-1" d="M70.66,73l-18.9-18.9a41.57,41.57,0,0,0-5.82,10.11l24.63,9Z"/><path class="cls-1" d="M99,86.53l18.91,18.91a42.15,42.15,0,0,0,5.82-10.12l-24.63-9Z"/><path class="cls-1" d="M91.39,94l9,24.64a42,42,0,0,0,10.12-5.82L91.56,93.93A1.4,1.4,0,0,1,91.39,94Z"/><path class="cls-1" d="M70.57,86.36l-24.63,9a41.82,41.82,0,0,0,5.82,10.12l18.9-18.91Z"/><path class="cls-1" d="M78.06,93.93l-18.9,18.91a42.09,42.09,0,0,0,10.11,5.82l9-24.64Z"/><path class="cls-1" d="M94.07,66.83,93.9,67l0,0a1.28,1.28,0,0,0,.14,1.65l1.85,1.85a1.29,1.29,0,0,0,1.65.14l0,0,.17-.17L116.2,52.1l.07-.07a1.31,1.31,0,0,0,0-1.85l-1.85-1.85a1.31,1.31,0,0,0-1.85,0l-18.5,18.5Z"/><path class="cls-1" d="M71.86,70.53h0l.17.17,0,0a1.29,1.29,0,0,0,1.65-.13l1.85-1.85A1.29,1.29,0,0,0,75.7,67l0,0-.17-.17L57.13,48.4l-.07-.07a1.31,1.31,0,0,0-1.85,0l-1.85,1.85a1.31,1.31,0,0,0,0,1.85Z"/><path class="cls-1" d="M75.56,92.73l.17-.17,0,0a1.29,1.29,0,0,0-.14-1.65L73.71,89a1.29,1.29,0,0,0-1.65-.13l0,0-.17.17L53.43,107.46l-.07.08a1.31,1.31,0,0,0,0,1.85l1.85,1.85a1.31,1.31,0,0,0,1.85,0l18.5-18.51Z"/><path class="cls-1" d="M97.77,89h0l-.17-.17s0,0,0,0a1.29,1.29,0,0,0-1.65.13l-1.86,1.85a1.29,1.29,0,0,0-.13,1.65s0,0,0,0l.17.17,18.43,18.43.08.08a1.31,1.31,0,0,0,1.85,0l1.85-1.85a1.31,1.31,0,0,0,0-1.85Z"/></g></g></g></svg>