<svg xmlns="http://www.w3.org/2000/svg" viewBox="0 0 126.41 104.21"><defs><style>.cls-1{fill:#b68eef;}.cls-2{fill:#7355bf;}.cls-3{fill:#4028b8;}</style></defs><g id="Camada_2" data-name="Camada 2"><g id="Camada_1-2" data-name="Camada 1"><path class="cls-1" d="M88.18,0H20.31C14.06,0,9,11.19,9,25V35c0,2.76,1,5,2.26,5H30.63c1,0,1.82,1.35,2.15,3.36l2.46,16.49C36.19,65.9,38.77,70,41.67,70H97.23c1.25,0,2.27-2.24,2.27-5V25C99.49,11.19,94.43,0,88.18,0Z"/><path class="cls-2" d="M101.71,26.47h-60a2.4,2.4,0,0,1-2.15-1.85l-2.46-9c-1-3.32-3.53-5.55-6.42-5.57H6.78C3,10,0,13.69,0,18.23A93.65,93.65,0,0,0,2.67,40.54l9,36.52c1.44,5.81,5.85,9.8,10.85,9.79H86.39c4.72,0,9-3.54,10.61-8.92l9.77-31.63a40,40,0,0,0,1.72-11.6C108.49,30.15,105.45,26.47,101.71,26.47Z"/><g id="SVGRepo_iconCarrier" data-name="SVGRepo iconCarrier"><g id="Layer_3" data-name="Layer 3"><path class="cls-3" d="M92.72,104.21V93a22.47,22.47,0,0,1,0-44.93V36.82h-7v6.54a28.06,28.06,0,0,0-8.6,3.84L72.86,43l-7.94,7.94,4.27,4.27a28.06,28.06,0,0,0-3.62,8.26H59V77.55h6.54A27.74,27.74,0,0,0,69.3,86l-4.38,4.38,7.94,7.94,4.38-4.38a28.12,28.12,0,0,0,8.46,3.74v6.54Z"/><path class="cls-3" d="M92.72,77.53a7,7,0,1,1,0-14V57.88a12.64,12.64,0,1,0,0,25.27Z"/><path class="cls-3" d="M109.87,104.21V88.94a29.5,29.5,0,0,0,1.66-52.12V61.73L96.87,74.59v29.62Z"/></g></g></g></g></svg>