<svg xmlns="http://www.w3.org/2000/svg" width="112.441" height="101.998" viewBox="0 0 112.441 101.998"><g transform="translate(-813 -122)"><g transform="translate(599 -418)"><path d="M121.846,74.667H53.978c-6.247,0-11.311,11.193-11.311,25v10c0,2.762,1.013,5,2.262,5H64.294c.965.01,1.824,1.352,2.149,3.36l2.466,16.491c.951,6.052,3.526,10.12,6.425,10.15H130.9c1.249,0,2.262-2.239,2.262-5v-40C133.157,85.86,128.093,74.667,121.846,74.667Z" transform="translate(180.333 465.333)" fill="#dcb67a"/><path d="M101.709,155.135H41.678a2.4,2.4,0,0,1-2.147-1.844l-2.464-9.052c-.952-3.321-3.523-5.553-6.419-5.572H6.781C3.036,138.667,0,142.353,0,146.9a93.392,93.392,0,0,0,2.672,22.308l9.041,36.515c1.432,5.819,5.843,9.8,10.845,9.793H86.385c4.728.016,8.964-3.542,10.618-8.92l9.764-31.629a39.708,39.708,0,0,0,1.722-11.6C108.49,158.821,105.454,155.135,101.709,155.135Z" transform="translate(214 411.333)" fill="#c09553"/></g><g transform="translate(276 53)"><g transform="translate(204 -181)"><path d="M44,2H8.582A3.974,3.974,0,0,0,4.625,5.969v55.57a3.974,3.974,0,0,0,3.957,3.969H52.109a3.974,3.974,0,0,0,3.957-3.969V13.014Zm1.187,6.451,3.76,3.473h-3.76ZM8.582,61.539V5.969H41.229v9.923H52.111V61.539Z" transform="translate(389.375 286.49)" fill="#9f4246"/><g transform="matrix(-0.695, -0.719, 0.719, -0.695, 436.624, 310.001)"><path d="M17.966,11.5H1.034L9.5.806Z" fill="#9f4246"/><path d="M9.5,1.611,2.067,11H16.933L9.5,1.611M9.5,0,19,12H0Z" fill="#9f4246"/></g></g><text transform="translate(606 147)" fill="#9f4246" font-size="20" font-family="SegoeUI-Bold, Segoe UI" font-weight="700"><tspan x="0" y="0">.bin</tspan></text></g></g></svg>