<svg xmlns="http://www.w3.org/2000/svg" viewBox="0 0 126.05 94.91"><defs><style>.cls-1{fill:#ef937b;}.cls-2{fill:#ed4a35;}.cls-3{fill:#ff7855;}.cls-4{fill:#ff562b;}.cls-5{fill:#fff;}.cls-6{fill:#ffeac3;}</style></defs><g id="Camada_2" data-name="Camada 2"><g id="Camada_1-2" data-name="Camada 1"><path class="cls-1" d="M96.21,1.07H12.65A12.27,12.27,0,0,0,.37,13.3,12.82,12.82,0,0,0,.48,15a2.46,2.46,0,0,0,2.76,2.12,2.35,2.35,0,0,0,.92-.32,7,7,0,0,1,3.58-.94h17.5a7.43,7.43,0,0,1,7,5l.41,1.35a12.36,12.36,0,0,0,11.66,8.4h56.82a7.42,7.42,0,0,1,3.67,1,2.45,2.45,0,0,0,3.36-.89,2.42,2.42,0,0,0,.34-1.23V13.36A12.28,12.28,0,0,0,96.21,1.07Z"/><path class="cls-2" d="M102.86,15.09a11.29,11.29,0,0,0-5.67-1.53H44.93A6.8,6.8,0,0,1,38.51,9l-.39-1.24A11.35,11.35,0,0,0,27.4,0H11.3A10.84,10.84,0,0,0,5.77,1.46,11.26,11.26,0,0,0,0,11.3V65.55a11.3,11.3,0,0,0,11.3,11.3H97.19a11.3,11.3,0,0,0,11.3-11.3h0V24.86A11.22,11.22,0,0,0,102.86,15.09Z"/><path class="cls-3" d="M59.22,61.5A33.41,33.41,0,0,0,92.63,94.91L95.54,61.5,92.63,28.08A33.41,33.41,0,0,0,59.22,61.5Z"/><path class="cls-4" d="M92.63,28.08V94.91a33.42,33.42,0,1,0,0-66.83Z"/><polygon class="cls-5" points="80.31 43 74.14 49.17 86.47 61.5 74.14 73.83 80.31 79.99 92.63 67.66 95.54 61.5 92.63 55.33 80.31 43"/><polygon class="cls-6" points="111.13 49.17 104.96 43 92.63 55.33 92.63 67.66 104.96 79.99 111.13 73.83 98.8 61.5 111.13 49.17"/></g></g></svg>