<svg xmlns="http://www.w3.org/2000/svg" width="108.49" height="86.85" viewBox="0 0 108.49 86.85"><defs><style>.a{fill:#ffa000;}.b{fill:#ffc107;}.c{fill:#4a1700;}.d{fill:#995700;}.e{fill:#534741;}.f{fill:#736357;}.g{fill:#fff;}.h{fill:#ffe05c;}</style></defs><g transform="translate(-215 -317)"><path class="a" d="M121.846,74.667H53.978c-6.247,0-11.311,11.193-11.311,25v10c0,2.762,1.013,5,2.262,5H64.294c.965.01,1.824,1.352,2.149,3.36l2.466,16.491c.951,6.052,3.526,10.12,6.425,10.15h55.561c1.249,0,2.262-2.239,2.262-5v-40C133.157,85.86,128.093,74.667,121.846,74.667Z" transform="translate(181.333 242.333)"/><path class="b" d="M101.709,155.135H41.678a2.4,2.4,0,0,1-2.147-1.844l-2.464-9.052c-.952-3.321-3.523-5.553-6.419-5.572H6.781C3.036,138.667,0,142.353,0,146.9a93.392,93.392,0,0,0,2.672,22.308l9.041,36.515c1.432,5.819,5.843,9.8,10.845,9.793H86.385c4.728.016,8.964-3.542,10.618-8.92l9.764-31.629a39.708,39.708,0,0,0,1.722-11.6C108.49,158.821,105.454,155.135,101.709,155.135Z" transform="translate(215 188.333)"/><g transform="translate(171 -225.587)"><path class="c" d="M12.443,28.4l20.3-15.882.344-.05a24.033,24.033,0,0,1,3.56-.241,38.2,38.2,0,0,1,12.724,2.29,21.488,21.488,0,0,1,10.784,7.793l.217.328v10.54a4.1,4.1,0,0,1-.352,1.877,2.345,2.345,0,0,1-.852.961V51.174L12.446,58.3Z" transform="translate(71.618 566.161)"/><path d="M12.432,58.358V28.394h0l20.3-15.882.349-.053a24.067,24.067,0,0,1,3.573-.244,38.233,38.233,0,0,1,12.732,2.292,21.515,21.515,0,0,1,10.781,7.8l.222.336V33.2a4.132,4.132,0,0,1-.355,1.89,2.364,2.364,0,0,1-.85.964V51.211h-.024Zm.058-29.927v29.85l46.661-7.11V36.02h.013a2.306,2.306,0,0,0,.844-.948,4.076,4.076,0,0,0,.349-1.853V22.666l-.212-.323a21.456,21.456,0,0,0-10.771-7.782,38.175,38.175,0,0,0-12.706-2.29,24.011,24.011,0,0,0-3.555.241l-.336.05Z" transform="translate(71.6 566.148)"/><path class="d" d="M12.932,25.739l43.906-6.692V38.735L12.932,45.424Z" transform="translate(72.424 577.4)"/><path class="d" d="M56.794,19.214V38.728L13.06,45.383V25.869L56.8,19.207m.172-.2-44.08,6.723V45.584l44.078-6.721V19.011Z" transform="translate(72.351 577.336)"/><path class="c" d="M22.016,20.811V41.191l9.415-1.427V19.4Z" transform="translate(87.385 577.978)"/><path class="c" d="M22.037,28.613l11.075,6.594a24.408,24.408,0,0,0,7.994,2.313A3.375,3.375,0,0,0,44.714,34.4v-.151l-12.356-7.21Z" transform="translate(87.419 590.556)"/><path class="c" d="M48.83,65.587a9.418,9.418,0,0,1-3.359-.651,4.765,4.765,0,0,1-2.647-2.147c-5.778-11.7-15.493-31.362-15.593-31.621a13.764,13.764,0,0,0-.924-1.787c-.551-.281-1.972-1.014-3.409-1.8-3.933-2.155-4.169-2.6-4.328-2.928l-1.22-2.4V19.839l1.141-.159.122-.016-.7-4.037-.021-3h0a.993.993,0,0,1,.821-1.138h0c.265-.037,1.742-.209,1.805-.217l.662-.077,3.738,7.592,3-.424-2.036-5.183-.029-2.734,3.248-.418a1.433,1.433,0,0,1,.2-.024,1.562,1.562,0,0,1,1.091.466L38.79,17.1l.04.04a5.876,5.876,0,0,1,.993,1.559L41.19,21.57v2.173l-.265.265c-.1.109-2.29,2.425-3.931,3.915C40.2,34.178,52.922,58.932,53.054,59.192V59.2a3.139,3.139,0,0,1,.286.881l.05.077v2.271a3.3,3.3,0,0,1-1.1,1.985A4.765,4.765,0,0,1,49.8,65.5a6.352,6.352,0,0,1-.971.082Z" transform="translate(79.698 562.5)"/><path class="e" d="M29.687,14.409v1.7a52.364,52.364,0,0,1-5.17,4.908c-1.265.765-.559-1.533-.559-1.533Z" transform="translate(90.26 569.762)"/><path class="c" d="M24.1,21.213a.3.3,0,0,1-.188-.058c-.384-.3.016-1.607.034-1.662h0L29.672,14.4l.048.021v1.713h0a52.561,52.561,0,0,1-5.175,4.913.916.916,0,0,1-.445.167Zm-.1-1.7c-.032.109-.4,1.323-.05,1.588.114.09.3.056.566-.1A51.881,51.881,0,0,0,29.675,16.1V14.477Z" transform="translate(90.235 569.747)"/><path class="e" d="M51.845,55.7a2.978,2.978,0,0,1-2.8,2.282,6.482,6.482,0,0,1-5.966-2.216S27.617,24.468,27.516,24.2a15.9,15.9,0,0,0-1.136-2.163,51.129,51.129,0,0,1-7.557-4.426l-1.112-2.2V14.01l12.274,5.36L51.848,53.839Z" transform="translate(80.296 569.104)"/><path class="c" d="M48.254,58.081a6.152,6.152,0,0,1-5.183-2.287c-.63-1.278-15.461-31.3-15.562-31.56a15.863,15.863,0,0,0-1.13-2.152,49.885,49.885,0,0,1-7.562-4.434l-1.114-2.2V13.995l.04.019,12.282,5.36h0L51.9,53.859h0v1.853a3.01,3.01,0,0,1-2.824,2.3A5.4,5.4,0,0,1,48.254,58.081ZM17.766,15.432l1.106,2.194a51.955,51.955,0,0,0,7.541,4.413h0a16.039,16.039,0,0,1,1.138,2.168c.1.265,15.405,31.234,15.559,31.549a6.44,6.44,0,0,0,5.937,2.2,2.954,2.954,0,0,0,2.779-2.247V53.856l-21.84-34.44L17.768,14.08Z" transform="translate(80.28 569.08)"/><path class="e" d="M20.921,10.487v1.7L24.19,20.4l.519-2.29Z" transform="translate(85.581 563.302)"/><path class="c" d="M24.179,20.416,20.91,12.189v-1.7h.053l3.79,7.637v.019l-.529,2.29Zm-3.211-8.24,3.224,8.139.495-2.184-3.719-7.52Z" transform="translate(85.563 563.302)"/><path class="e" d="M17.911,10.984l.021,2.922,1.337,7.531h.458L19.6,18.716Z" transform="translate(80.624 564.121)"/><path class="c" d="M19.774,21.463h-.511l-1.342-7.555L17.9,10.984h.058L19.647,18.7Zm-.463-.058h.4l-.127-2.7L17.95,11.246l.019,2.647Z" transform="translate(80.606 564.121)"/><path class="f" d="M26.9,27.024a58.92,58.92,0,0,1-8.076-4.765l-1.109-2.2L30,18.326,26.24,10.689l2.382-.336a.622.622,0,0,1,.516.214l8.415,6.641a5.294,5.294,0,0,1,.81,1.294l1.265,2.57c.241.487-4.765,4.812-4.765,4.812a.4.4,0,0,0-.026.445c.132.265,16.792,32.7,16.792,32.7.844,1.713-.813,3.314-2.581,3.584a6.152,6.152,0,0,1-5.7-2.417S27.518,27.723,27.394,27.466A1.5,1.5,0,0,0,26.9,27.024Z" transform="translate(80.299 563.079)"/><path class="c" d="M48.369,62.721a6.006,6.006,0,0,1-5.029-2.478L27.383,27.514a1.466,1.466,0,0,0-.471-.455,57.016,57.016,0,0,1-8.087-4.765L17.7,20.06h.04l12.245-1.726-3.759-7.644,2.419-.341a.641.641,0,0,1,.529.222l8.409,6.639a5.344,5.344,0,0,1,.818,1.3l1.273,2.562c.241.492-4.267,4.4-4.783,4.847a.36.36,0,0,0-.021.41C35,26.6,51.5,58.711,51.661,59.034a2.043,2.043,0,0,1-.016,1.916,3.55,3.55,0,0,1-2.581,1.71,4.61,4.61,0,0,1-.7.061ZM17.783,20.1l1.091,2.163a59.644,59.644,0,0,0,8.063,4.741h0a1.5,1.5,0,0,1,.495.479c.122.246,15.795,32.4,15.951,32.73a6.088,6.088,0,0,0,5.672,2.4A3.491,3.491,0,0,0,51.6,60.937a1.985,1.985,0,0,0,.016-1.853c-.167-.323-16.66-32.431-16.792-32.7a.413.413,0,0,1,.034-.479,25.207,25.207,0,0,0,4.765-4.78l-1.255-2.568a5.294,5.294,0,0,0-.794-1.289l-8.425-6.644h0a.6.6,0,0,0-.49-.2l-2.345.312L30.07,18.36h-.04Z" transform="translate(80.273 563.071)"/><path class="f" d="M23.45,18.435,19.7,10.825s-1.517.177-1.787.217a80.732,80.732,0,0,0,1.662,7.941Z" transform="translate(80.635 563.859)"/><path class="c" d="M19.579,19.022V19a79.978,79.978,0,0,1-1.67-7.941.042.042,0,0,1,.032-.019c.265-.037,1.766-.214,1.787-.217h.011l3.772,7.66Zm-1.631-7.941a75.634,75.634,0,0,0,1.676,7.877l3.8-.529-3.706-7.544c-.191.005-1.5.148-1.768.2Z" transform="translate(80.621 563.849)"/><path class="c" d="M26.7,14.172l1.4,2.673-6.506.86-1.226-2.689Z" transform="translate(84.671 569.371)"/><path class="f" d="M20.668,14.729l.643-.093a1.551,1.551,0,0,1,.932.622,1.676,1.676,0,0,1,.2,1.273l-.641.1a1.429,1.429,0,0,0-.138-1.247A2.8,2.8,0,0,0,20.668,14.729Z" transform="translate(85.165 570.135)"/><path class="f" d="M21.315,14.64l.643-.093a1.551,1.551,0,0,1,.932.622,1.676,1.676,0,0,1,.2,1.273l-.641.1a1.432,1.432,0,0,0-.138-1.247,2.8,2.8,0,0,0-1-.654Z" transform="translate(86.23 569.989)"/><path class="f" d="M21.944,14.55l.643-.093a1.551,1.551,0,0,1,.932.622,1.676,1.676,0,0,1,.2,1.273l-.641.1a1.432,1.432,0,0,0-.138-1.247,2.8,2.8,0,0,0-1-.654Z" transform="translate(87.266 569.841)"/><path class="c" d="M25.336,26.339l.675-.143v-8.02a29.765,29.765,0,0,1-6-1.641Z" transform="translate(84.081 573.263)"/><path class="g" d="M20.463,14.265l3-.424-.45-1.109a20.963,20.963,0,0,0-2.313.2l-.635.508Z" transform="translate(84.165 567)"/><path class="g" d="M27.722,13.456l1.138,2.425v2.171l-.2.265c-.1.109-2.261,2.425-3.9,3.915.09.177.2.368.3.574L38.63,21.01A20.6,20.6,0,0,0,27.722,13.456Z" transform="translate(91.904 568.192)"/><path class="h" d="M37.235,23.457v4.889c1.035-.04,1.2-.932,1.2-1.893V16.31L24.868,18.115c.794,1.575,2,3.97,3.415,6.718Z" transform="translate(92.082 572.892)"/><path class="g" d="M30.2,19.373c-3.933-2.155-4.156-2.6-4.317-2.928l-.749-1.472L12.923,24.5l24.088-3.176A45.084,45.084,0,0,1,30.2,19.373Z" transform="translate(72.409 570.692)"/><path class="h" d="M37.043,24.963l-.029-7.592-24.1,3.19v7.893Z" transform="translate(72.387 574.64)"/><path class="h" d="M28.457,25.43V18.312s-2.382-1.376-1.39-2.382l-2.306,2.242Z" transform="translate(91.907 572.267)"/><path class="c" d="M13.781,19.618l13.942-1.853s-5,1.011-8.854,1.488C17.047,19.483,13.781,19.618,13.781,19.618Z" transform="translate(73.822 575.289)"/><path class="c" d="M28.026,17.019l5.358-.709.233.32C31.284,16.876,28.026,17.019,28.026,17.019Z" transform="translate(97.283 572.892)"/></g></g></svg>