<svg xmlns="http://www.w3.org/2000/svg" xmlns:xlink="http://www.w3.org/1999/xlink" width="118" height="103" viewBox="0 0 118 103"><defs><linearGradient id="a" x1="-2.456" y1="-6.204" x2="-2.456" y2="-6.208" gradientUnits="objectBoundingBox"><stop offset="0" stop-color="#ec790f"/><stop offset="1" stop-color="#f51032"/></linearGradient></defs><g transform="translate(-198 -1585)"><path d="M121.846,74.667H53.978c-6.247,0-11.311,11.193-11.311,25v10c0,2.762,1.013,5,2.262,5H64.294c.965.01,1.824,1.352,2.149,3.36l2.466,16.491c.951,6.052,3.526,10.12,6.425,10.15H130.9c1.249,0,2.262-2.239,2.262-5v-40C133.157,85.86,128.093,74.667,121.846,74.667Z" transform="translate(164.333 1510.333)" fill="#dd7a7d"/><path d="M101.709,155.135H41.678a2.4,2.4,0,0,1-2.147-1.844l-2.464-9.052c-.952-3.321-3.523-5.553-6.419-5.572H6.781C3.036,138.667,0,142.353,0,146.9a93.392,93.392,0,0,0,2.672,22.308l9.041,36.515c1.432,5.819,5.843,9.8,10.845,9.793H86.385c4.728.016,8.964-3.542,10.618-8.92l9.764-31.629a39.708,39.708,0,0,0,1.722-11.6C108.49,158.821,105.454,155.135,101.709,155.135Z" transform="translate(198 1456.333)" fill="#9f4246"/><g transform="translate(250 1622.499)"><rect width="64" height="63" rx="1.75" transform="translate(2 2.501)" fill="url(#a)"/><path d="M29.313,43.6,14.6,51.327l2.81-16.37L5.5,23.367l16.453-2.39L29.313,6.083l7.359,14.893,16.453,2.39L41.219,34.958l2.81,16.37Z" transform="translate(4.438 5.177)" fill="#fff"/></g></g></svg>