<svg xmlns="http://www.w3.org/2000/svg" viewBox="0 0 123.36 114.64"><defs><style>.cls-1{fill:#7bb4db;}.cls-2{fill:#55bfbf;}.cls-3{fill:#0f7986;}.cls-4{fill:#fff;}.cls-5{fill:#c9cacc;}.cls-6{fill:#fad24d;}.cls-7{fill:#f7fafa;}.cls-8{fill:#ff5b62;}</style></defs><g id="Camada_2" data-name="Camada 2"><g id="Camada_1-2" data-name="Camada 1"><path class="cls-1" d="M88.3,0H20.4C14.2,0,9.1,11.2,9.1,25V35c0,2.8,1,5,2.3,5H30.8c1,0,1.8,1.4,2.2,3.4l2.5,16.5c1,6,3.5,10.1,6.4,10.1H97.5c1.2,0,2.3-2.2,2.3-5V25C99.6,11.2,94.5,0,88.3,0Z"/><path class="cls-2" d="M101.8,26.5h-60a2.58,2.58,0,0,1-2.2-1.8l-2.5-9c-1-3.3-3.5-5.6-6.4-5.6H6.8C3,10,0,13.7,0,18.3A93.21,93.21,0,0,0,2.7,40.6l9,36.5c1.4,5.8,5.9,9.8,10.9,9.8H86.5c4.7,0,9-3.5,10.6-8.9l9.8-31.6a41.75,41.75,0,0,0,1.7-11.6C108.6,30.1,105.5,26.5,101.8,26.5Z"/><circle class="cls-3" cx="88.83" cy="80.11" r="34.53"/><path class="cls-4" d="M64.68,71.64h18l4.74,4.74v24.43H64.68Z"/><path class="cls-5" d="M68.1,77.9H84v.35H68.1Zm0,3.85H84v.36H68.1Zm0,.67H84v.35H68.1Zm0,.66H84v.36H68.1Zm0,.66H84v.36H68.1Zm0-5.18H84v.36H68.1Zm0,.66H84v.36H68.1Zm0,.67H84v.36H68.1Zm0,.66H80.26v.36H68.1Zm0,3.86H80.26v.36H68.1Z"/><path class="cls-6" d="M82.67,71.64v4.74h4.74Z"/><path class="cls-7" d="M87.41,81.12V76.38H82.67Z"/><path class="cls-5" d="M68.1,86.7H84v.36H68.1Zm0,3.85H84v.36H68.1Zm0,.67H84v.36H68.1Zm0,.66H84v.36H68.1Zm0,.67H84v.35H68.1Zm0-5.19H84v.36H68.1Zm0,.67H84v.35H68.1Zm0,.66H84v.36H68.1Zm0,.66H80.26v.36H68.1Zm0,3.86H80.26v.36H68.1Z"/><path class="cls-4" d="M90.49,56.4h18l4.74,4.74V85.57H90.49Z"/><path class="cls-5" d="M93.92,62.65H109.8V63H93.92Zm0,3.86H109.8v.36H93.92Zm0,.66H109.8v.36H93.92Zm0,.67H109.8v.36H93.92Zm0,.66H109.8v.36H93.92Zm0-5.18H109.8v.35H93.92Zm0,.66H109.8v.36H93.92Zm0,.66H109.8V65H93.92Zm0,.67h12.16v.36H93.92Zm0,3.86h12.16v.35H93.92Z"/><path class="cls-8" d="M108.48,56.4v4.74h4.74Z"/><path class="cls-7" d="M113.22,65.88V61.14h-4.74Z"/><path class="cls-5" d="M93.92,71.45H109.8v.36H93.92Zm0,3.86H109.8v.36H93.92Zm0,.66H109.8v.36H93.92Zm0,.67H109.8V77H93.92Zm0,.66H109.8v.36H93.92Zm0-5.18H109.8v.36H93.92Zm0,.66H109.8v.36H93.92Zm0,.67H109.8v.35H93.92Zm0,.66h12.16v.36H93.92Zm0,3.86h12.16v.36H93.92Z"/><path class="cls-6" d="M101.25,91.07h-6.2v1.55L90.42,90l4.63-2.63v1.55h6.2Z"/><path class="cls-8" d="M76.65,68h6.2v1.55l4.63-2.63L82.85,64.3v1.55h-6.2V68Z"/></g></g></svg>