<svg xmlns="http://www.w3.org/2000/svg" width="136" height="95" viewBox="0 0 136 95"><defs><style>.a{fill:#ffa000;}.b{fill:#ffc107;}.c{fill:#755838;}.d,.f{fill:none;}.d{stroke:#755838;stroke-width:4px;}.e{stroke:none;}</style></defs><g transform="translate(-195 -322)"><path class="a" d="M121.846,74.667H53.978c-6.247,0-11.311,11.193-11.311,25v10c0,2.762,1.013,5,2.262,5H64.294c.965.01,1.824,1.352,2.149,3.36l2.466,16.491c.951,6.052,3.526,10.12,6.425,10.15h55.561c1.249,0,2.262-2.239,2.262-5v-40C133.157,85.86,128.093,74.667,121.846,74.667Z" transform="translate(161.333 247.333)"/><path class="b" d="M101.709,155.135H41.678a2.4,2.4,0,0,1-2.147-1.844l-2.464-9.052c-.952-3.321-3.523-5.553-6.419-5.572H6.781C3.036,138.667,0,142.353,0,146.9a93.392,93.392,0,0,0,2.672,22.308l9.041,36.515c1.432,5.819,5.843,9.8,10.845,9.793H86.385c4.728.016,8.964-3.542,10.618-8.92l9.764-31.629a39.708,39.708,0,0,0,1.722-11.6C108.49,158.821,105.454,155.135,101.709,155.135Z" transform="translate(195 193.333)"/><g transform="translate(143 -144.442)"><g transform="translate(108.085 519.726)"><path class="c" d="M24.208,28.894,18.746,15.882l-5.6,13.012ZM38.191,42.436h-14.7V39.6l.953-.048a3.842,3.842,0,0,0,2.022-.416.651.651,0,0,0,.3-.547,8.649,8.649,0,0,0-.871-2.912L24.2,31.658H13.069l-1.918,4.47a6.9,6.9,0,0,0-.726,2.407c0,.075,0,.248.32.5a5.16,5.16,0,0,0,2.477.514l.932.069v2.816H2V39.709l.832-.146a4.551,4.551,0,0,0,2.08-.661,13.141,13.141,0,0,0,2.454-4.3l11.6-27.114h2.174L32.6,34.892a10.93,10.93,0,0,0,2.182,3.817,4.075,4.075,0,0,0,2.475.832l.944.056Z" transform="translate(-2 -7.491)"/><path class="c" d="M32.653,31.288V23a46.889,46.889,0,0,0-4.63,2.018A8,8,0,0,0,25.34,27.2a4.222,4.222,0,0,0-.807,2.5,4.058,4.058,0,0,0,1.021,2.833,3.1,3.1,0,0,0,2.35,1.131A8.615,8.615,0,0,0,32.653,31.288ZM25.72,37.421a5.892,5.892,0,0,1-4.449-1.857,6.668,6.668,0,0,1-1.733-4.753,6.155,6.155,0,0,1,.863-3.28,10.4,10.4,0,0,1,3.725-3.38,49.662,49.662,0,0,1,7.523-3.3v-.154a6.042,6.042,0,0,0-.8-3.813,2.756,2.756,0,0,0-2.236-.857,2.4,2.4,0,0,0-1.7.541,1.429,1.429,0,0,0-.576,1.115l.048,1.344a3.369,3.369,0,0,1-.832,2.409,3.08,3.08,0,0,1-4.368-.04,3.4,3.4,0,0,1-.813-2.359,5.824,5.824,0,0,1,2.459-4.528,10.011,10.011,0,0,1,6.5-1.939,11.192,11.192,0,0,1,5.217,1.09,5.466,5.466,0,0,1,2.523,2.8,13.293,13.293,0,0,1,.508,4.576v7.384a30.5,30.5,0,0,0,.106,3.638,1.375,1.375,0,0,0,.112.416c.177-.162.591-.468,1.8-1.676l1.7-1.722v4.091l-.208.266C39.1,36.1,37.179,37.4,35.209,37.4a3.328,3.328,0,0,1-2.614-1.159A3.719,3.719,0,0,1,31.85,34.7a20.15,20.15,0,0,1-2.981,2.032,7.444,7.444,0,0,1-3.149.691Z" transform="translate(16.935 -2.025)"/></g><g class="d" transform="translate(86 514.442)"><rect class="e" width="102" height="47" rx="12"/><rect class="f" x="2" y="2" width="98" height="43" rx="10"/></g></g></g></svg>