<svg xmlns="http://www.w3.org/2000/svg" width="119.623" height="121.5" viewBox="0 0 119.623 121.5"><g transform="translate(-167 -1611)"><path d="M121.846,74.667H53.978c-6.247,0-11.311,11.193-11.311,25v10c0,2.762,1.013,5,2.262,5H64.294c.965.01,1.824,1.352,2.149,3.36l2.466,16.491c.951,6.052,3.526,10.12,6.425,10.15H130.9c1.249,0,2.262-2.239,2.262-5v-40C133.157,85.86,128.093,74.667,121.846,74.667Z" transform="translate(133.333 1536.333)" fill="#dd7a7d"/><path d="M101.709,155.135H41.678a2.4,2.4,0,0,1-2.147-1.844l-2.464-9.052c-.952-3.321-3.523-5.553-6.419-5.572H6.781C3.036,138.667,0,142.353,0,146.9a93.392,93.392,0,0,0,2.672,22.308l9.041,36.515c1.432,5.819,5.843,9.8,10.845,9.793H86.385c4.728.016,8.964-3.542,10.618-8.92l9.764-31.629a39.708,39.708,0,0,0,1.722-11.6C108.49,158.821,105.454,155.135,101.709,155.135Z" transform="translate(167 1482.333)" fill="#9f4246"/><g transform="translate(-111 102.988)"><path d="M23.205,10.025c5.551-.053,11.111,0,16.665-.02-1.315,5.672-2.583,11.357-3.891,17.033H10.626c-.8,0-1.6.026-2.406-.033C13.2,21.33,18.233,15.7,23.205,10.025Z" transform="translate(314.604 1550.501)" fill="#f2e6c9"/><path d="M21.358,10H37.973C42.962,15.675,48,21.308,52.979,27c-3.2.069-6.408,0-9.612.03H25.213C23.951,21.354,22.607,15.692,21.358,10Z" transform="translate(344.641 1550.5)" fill="#f2e6c9"/><path d="M20.557,10H32.085c1.245,5.685,2.59,11.348,3.858,17.026H16.666C17.977,21.364,19.242,15.679,20.557,10Z" transform="translate(333.914 1550.5)" fill="#efc75e"/><path d="M8.221,15.174c.8.059,1.6.03,2.406.033H35.98q0,9,.02,17.992a6.518,6.518,0,0,0,.684.049H54.7c.177,0,.358-.02.536-.036.053-6,0-12.008.023-18.009H73.411c3.2-.016,6.412.039,9.612-.03v52q-37.4.007-74.8.007Q8.214,41.175,8.221,15.174Z" transform="translate(314.6 1562.329)" fill="#e7bf55"/><path d="M16.666,15.185H35.943c-.023,6,.03,12.008-.023,18.009-.177.02-.358.03-.536.036H17.369a6.516,6.516,0,0,1-.684-.049C16.653,27.18,16.679,21.179,16.666,15.185Z" transform="translate(333.914 1562.354)" fill="#dbb551"/><rect width="25.032" height="9.639" transform="translate(328.283 1612.588)" fill="#f2f2f2"/></g></g></svg>