<svg xmlns="http://www.w3.org/2000/svg" viewBox="0 0 131.12 122.34"><defs><style>.cls-1{fill:#ef3f3f;}.cls-2{fill:#961c12;}.cls-3{fill:#e23237;}.cls-4{fill:#b52e31;}.cls-5{fill:#fff;}</style></defs><g id="Camada_2" data-name="Camada 2"><g id="Camada_1-2" data-name="Camada 1"><path class="cls-1" d="M88.3,0H20.4C14.2,0,9.1,11.2,9.1,25V35c0,2.8,1,5,2.3,5H30.8c1,0,1.8,1.4,2.2,3.4l2.5,16.5c1,6,3.5,10.1,6.4,10.1H97.5c1.2,0,2.3-2.2,2.3-5V25C99.6,11.2,94.5,0,88.3,0Z"/><path class="cls-2" d="M101.8,26.5h-60a2.58,2.58,0,0,1-2.2-1.8l-2.5-9c-1-3.3-3.5-5.6-6.4-5.6H6.8C3,10,0,13.7,0,18.3A93.21,93.21,0,0,0,2.7,40.6l9,36.5c1.4,5.8,5.9,9.8,10.9,9.8H86.5c4.7,0,9-3.5,10.6-8.9l9.8-31.6a41.75,41.75,0,0,0,1.7-11.6C108.6,30.1,105.5,26.5,101.8,26.5Z"/><path class="cls-3" d="M55.2,55.17,92.65,41.82l38.47,13.11-6.23,49.56L92.65,122.34,60.92,104.72Z"/><path class="cls-4" d="M131.12,54.93,92.65,41.82v80.52l32.24-17.82,6.23-49.59Z"/><path class="cls-5" d="M92.71,51.22h0L69.37,103.15l8.72-.15,4.69-11.71h20.94l5.13,11.86,8.33.15L92.71,51.22Zm.06,16.64,7.89,16.49H85.83l6.94-16.49Z"/></g></g></svg>