<svg xmlns="http://www.w3.org/2000/svg" width="108.49" height="113.5" viewBox="0 0 108.49 113.5"><defs><style>.a{fill:#7bb6db;}.b{fill:#5597bf;}.c{fill:#1572b6;}.d{fill:#33a9dc;}.e{fill:#fff;}.f{fill:#ebebeb;}</style></defs><g transform="translate(-215 -317)"><path class="a" d="M121.846,74.667H53.978c-6.247,0-11.311,11.193-11.311,25v10c0,2.762,1.013,5,2.262,5H64.294c.965.01,1.824,1.352,2.149,3.36l2.466,16.491c.951,6.052,3.526,10.12,6.425,10.15h55.561c1.249,0,2.262-2.239,2.262-5v-40C133.157,85.86,128.093,74.667,121.846,74.667Z" transform="translate(181.333 242.333)"/><path class="b" d="M101.709,155.135H41.678a2.4,2.4,0,0,1-2.147-1.844l-2.464-9.052c-.952-3.321-3.523-5.553-6.419-5.572H6.781C3.036,138.667,0,142.353,0,146.9a93.392,93.392,0,0,0,2.672,22.308l9.041,36.515c1.432,5.819,5.843,9.8,10.845,9.793H86.385c4.728.016,8.964-3.542,10.618-8.92l9.764-31.629a39.708,39.708,0,0,0,1.722-11.6C108.49,158.821,105.454,155.135,101.709,155.135Z" transform="translate(215 188.333)"/><g transform="translate(163 -233.75)"><path class="c" d="M18.49,77.278,12.492,10H78.4l-6,67.268L45.407,84.75Z" transform="translate(81.6 579.5)"/><path class="d" d="M21.75,75.075l21.809-6.048,5.133-57.483H21.75Z" transform="translate(105.296 583.454)"/><path class="e" d="M21.75,30.4H32.671l.751-8.45H21.75V13.7H42.441l-.2,2.214L40.213,38.653H21.75Z" transform="translate(105.296 588.973)"/><path class="f" d="M34.777,30.922l-.036.011L25.55,28.452l-.587-6.582H16.68l1.157,12.957,16.9,4.691.039-.011Z" transform="translate(92.319 609.881)"/><path class="e" d="M31.95,20.613l-.993,11.052-9.2,2.481v8.586l16.915-4.688.125-1.4L40.23,20.613Z" transform="translate(105.311 606.664)"/><path class="f" d="M36.621,13.7v8.251H16.691L16.524,20.1l-.374-4.182-.2-2.214Z" transform="translate(90.453 588.973)"/><path class="f" d="M28.8,18.393v8.255H19.731l-.164-1.855-.377-4.186-.2-2.214Z" transform="translate(98.242 600.982)"/></g></g></svg>