<svg xmlns="http://www.w3.org/2000/svg" width="128.656" height="102.512" viewBox="0 0 128.656 102.512"><g transform="translate(142 -1632.488)"><path d="M117.206,53.334H33.653a12.257,12.257,0,0,0-12.17,13.885,2.457,2.457,0,0,0,3.681,1.8,6.96,6.96,0,0,1,3.573-.944h17.5a7.412,7.412,0,0,1,6.989,5l.418,1.347a12.346,12.346,0,0,0,11.656,8.4h56.816a7.372,7.372,0,0,1,3.671.983,2.462,2.462,0,0,0,3.7-2.123V65.621a12.287,12.287,0,0,0-12.281-12.287Z" transform="translate(-163 1580.224)" fill="#345e75"/><path d="M102.856,111.089a11.235,11.235,0,0,0-5.664-1.528H44.934a6.817,6.817,0,0,1-6.428-4.6l-.384-1.239A11.355,11.355,0,0,0,27.4,96H11.3a10.816,10.816,0,0,0-5.533,1.46A11.274,11.274,0,0,0,0,107.3v54.247a11.3,11.3,0,0,0,11.3,11.3H97.192a11.3,11.3,0,0,0,11.3-11.3V120.862A11.224,11.224,0,0,0,102.856,111.089Z" transform="translate(-142 1536.489)" fill="#5599bf"/><g transform="translate(-28 140.972)"><path d="M52.263,62.682a61.423,61.423,0,0,1-29.3-5.922l1.848-2.93a59.622,59.622,0,0,0,27.448,5.078c0,.32.391-5.988.957-9.425H39.928A84.563,84.563,0,0,1,51.775,12.735H11.933V73.381H53.791a87.416,87.416,0,0,1-1.527-10.7Z" transform="translate(-72 1509.948)" fill="#c6e9fa" fill-rule="evenodd"/><path d="M32,58.678A41.8,41.8,0,0,0,49.518,53.6l2.293,2.93A49.9,49.9,0,0,1,32,62.456a53.122,53.122,0,0,0,1.723,10.937H62.385V12.739H31.878A75.532,75.532,0,0,0,20.285,45.476H33.98A60.188,60.188,0,0,0,32,58.659Z" transform="translate(-47.728 1509.96)" fill="#00adee" fill-rule="evenodd"/><path d="M16.568,15.087h3.887v8.98H16.568v-8.98Z" transform="translate(-58.53 1516.783)" fill="#00adee" fill-rule="evenodd"/><path d="M24.851,15.087h3.883v8.98H24.851v-8.98Z" transform="translate(-34.459 1516.783)" fill="#231f20" fill-rule="evenodd"/><path d="M35.447,66.638A41.8,41.8,0,0,0,52.962,61.56l2.293,2.93a49.9,49.9,0,0,1-19.808,5.926,47.928,47.928,0,0,0,5.289,19.87l-3.312,1.742c-6.051-9.55-7.133-22.417-5.031-34.581H19.1A83.922,83.922,0,0,1,38.568,10l2.867,2.484A74.606,74.606,0,0,0,23.729,53.436H37.423a60.188,60.188,0,0,0-1.976,13.183Z" transform="translate(-51.172 1502)" fill="#231f20" fill-rule="evenodd"/><path d="M44.054,28.35v3.758a61.423,61.423,0,0,1-29.3-5.922l1.848-2.93a59.622,59.622,0,0,0,27.448,5.078Z" transform="translate(-63.79 1540.523)" fill="#00adee" fill-rule="evenodd"/></g></g></svg>