<svg xmlns="http://www.w3.org/2000/svg" viewBox="0 0 132.87 96.74"><defs><style>.cls-1{fill:#7bb4db;}.cls-2{fill:#55bfbf;}.cls-3{fill:#0f7986;}.cls-4{fill:#fff;}.cls-5{fill:#c9cacc;}.cls-6{fill:#fad24d;}.cls-7{fill:#f7fafa;}.cls-8{fill:#ff5b62;}</style></defs><g id="Camada_2" data-name="Camada 2"><g id="Camada_1-2" data-name="Camada 1"><path class="cls-1" d="M96.3,1H12.7A12.27,12.27,0,0,0,.4,13.2a8.08,8.08,0,0,0,.1,1.6,2.49,2.49,0,0,0,2.8,2.1,3.18,3.18,0,0,0,.9-.3,6.44,6.44,0,0,1,3.6-.9H25.3a7.33,7.33,0,0,1,7,5l.4,1.3a12.38,12.38,0,0,0,11.7,8.4h56.8a6.86,6.86,0,0,1,3.7,1,2.47,2.47,0,0,0,3.4-.9,2.66,2.66,0,0,0,.3-1.2V13.2A12.4,12.4,0,0,0,96.3,1Z"/><path class="cls-2" d="M102.9,15a11.29,11.29,0,0,0-5.7-1.5H44.9a6.79,6.79,0,0,1-6.4-4.6l-.4-1.2A11.39,11.39,0,0,0,27.4,0H11.3A10.58,10.58,0,0,0,5.8,1.5,11.27,11.27,0,0,0,0,11.3V65.5A11.35,11.35,0,0,0,11.3,76.8H97.2a11.35,11.35,0,0,0,11.3-11.3h0V24.8A11.2,11.2,0,0,0,102.9,15Z"/><circle class="cls-3" cx="98.34" cy="62.21" r="34.53"/><path class="cls-4" d="M74.19,53.74h18l4.74,4.74V82.91H74.19Z"/><path class="cls-5" d="M77.62,60H93.49v.35H77.62Zm0,3.85H93.49v.36H77.62Zm0,.67H93.49v.35H77.62Zm0,.66H93.49v.36H77.62Zm0,.66H93.49v.36H77.62Zm0-5.18H93.49V61H77.62Zm0,.66H93.49v.36H77.62Zm0,.67H93.49v.36H77.62Zm0,.66H89.78V63H77.62Zm0,3.86H89.78v.36H77.62Z"/><path class="cls-6" d="M92.18,53.74v4.74h4.74Z"/><path class="cls-7" d="M96.92,63.22V58.48H92.18Z"/><path class="cls-5" d="M77.62,68.8H93.49v.36H77.62Zm0,3.85H93.49V73H77.62Zm0,.67H93.49v.36H77.62Zm0,.66H93.49v.36H77.62Zm0,.67H93.49V75H77.62Zm0-5.19H93.49v.36H77.62Zm0,.67H93.49v.35H77.62Zm0,.66H93.49v.36H77.62Zm0,.66H89.78v.36H77.62Zm0,3.86H89.78v.36H77.62Z"/><path class="cls-4" d="M100,38.5h18l4.74,4.74V67.67H100Z"/><path class="cls-5" d="M103.44,44.75h15.87v.36H103.44Zm0,3.86h15.87V49H103.44Zm0,.66h15.87v.36H103.44Zm0,.67h15.87v.36H103.44Zm0,.66h15.87V51H103.44Zm0-5.18h15.87v.35H103.44Zm0,.66h15.87v.36H103.44Zm0,.66h15.87v.36H103.44Zm0,.67H115.6v.36H103.44Zm0,3.86H115.6v.35H103.44Z"/><path class="cls-8" d="M118,38.5v4.74h4.74Z"/><path class="cls-7" d="M122.74,48V43.24H118Z"/><path class="cls-5" d="M103.44,53.55h15.87v.36H103.44Zm0,3.86h15.87v.36H103.44Zm0,.66h15.87v.36H103.44Zm0,.67h15.87v.36H103.44Zm0,.66h15.87v.36H103.44Zm0-5.18h15.87v.36H103.44Zm0,.66h15.87v.36H103.44Zm0,.67h15.87v.35H103.44Zm0,.66H115.6v.36H103.44Zm0,3.86H115.6v.36H103.44Z"/><path class="cls-6" d="M110.77,73.17h-6.21v1.55l-4.62-2.63,4.62-2.63V71h6.21Z"/><path class="cls-8" d="M86.16,50.11h6.21v1.55L97,49,92.37,46.4V48H86.16v2.16Z"/></g></g></svg>