<svg xmlns="http://www.w3.org/2000/svg" viewBox="0 0 120.96 76.85"><defs><style>.cls-1{fill:#66f;}.cls-2{fill:#336;}.cls-3{fill:#63c;}</style></defs><g id="Camada_2" data-name="Camada 2"><g id="Camada_1-2" data-name="Camada 1"><path class="cls-1" d="M96.21,1.07H12.65A12.27,12.27,0,0,0,.37,13.3,12.82,12.82,0,0,0,.48,15a2.46,2.46,0,0,0,2.76,2.12,2.35,2.35,0,0,0,.92-.32,7,7,0,0,1,3.58-.94h17.5a7.43,7.43,0,0,1,7,5l.41,1.35a12.36,12.36,0,0,0,11.66,8.4h56.82a7.42,7.42,0,0,1,3.67,1,2.45,2.45,0,0,0,3.36-.89,2.42,2.42,0,0,0,.34-1.23V13.36A12.28,12.28,0,0,0,96.21,1.07Z"/><path class="cls-2" d="M102.86,15.09a11.29,11.29,0,0,0-5.67-1.53H44.93A6.8,6.8,0,0,1,38.51,9l-.39-1.24A11.35,11.35,0,0,0,27.4,0H11.3A10.84,10.84,0,0,0,5.77,1.46,11.26,11.26,0,0,0,0,11.3V65.55a11.3,11.3,0,0,0,11.3,11.3H97.19a11.3,11.3,0,0,0,11.3-11.3h0V24.86A11.22,11.22,0,0,0,102.86,15.09Z"/><path class="cls-3" d="M103.82,59.24a3.92,3.92,0,0,0-.43-7.82h-.14a3.94,3.94,0,0,0-3.83,4,4,4,0,0,0,1.13,2.58c-2.41,4.68-6.1,8.1-11.64,11a19.45,19.45,0,0,1-11.58,2.17,9.92,9.92,0,0,1-7.24-4.12,10.13,10.13,0,0,1-.57-10.82,16.6,16.6,0,0,1,4.83-5.59,36.66,36.66,0,0,1-.92-3.56C63.13,54.42,64.2,64.34,67.32,69c2.35,3.49,7.1,5.66,12.36,5.66a17.69,17.69,0,0,0,4.26-.49A27.18,27.18,0,0,0,103.82,59.24Zm12.5-8.66C110.92,44.37,103,41,93.88,41H92.74a3.9,3.9,0,0,0-3.48-2.1h-.14a3.91,3.91,0,0,0,.14,7.82h.15a4,4,0,0,0,3.48-2.37h1.27a27.43,27.43,0,0,1,15.13,4.54,18.73,18.73,0,0,1,7.52,8.93,9.52,9.52,0,0,1-.14,8.24,10.45,10.45,0,0,1-9.73,5.73,18.33,18.33,0,0,1-7-1.47,40.1,40.1,0,0,1-3.2,2.51A22.17,22.17,0,0,0,106,75c6.82,0,11.86-3.7,13.78-7.4C121.79,63.5,121.64,56.52,116.32,50.58ZM80.25,60.43a4,4,0,0,0,4,3.77h.14a3.91,3.91,0,1,0-.14-7.82h-.14a1.26,1.26,0,0,0-.5.07A25.3,25.3,0,0,1,79.89,41a18.61,18.61,0,0,1,4.19-10.82c2.06-2.58,6-3.84,8.73-3.91,7.53-.14,10.73,9.07,10.94,12.77.92.21,2.48.7,3.55,1-.85-11.31-8-17.17-14.77-17.17-6.39,0-12.28,4.54-14.63,11.24C74.64,43,76.77,51.63,80.74,58.4a3.14,3.14,0,0,0-.49,2Z"/></g></g></svg>