<svg xmlns="http://www.w3.org/2000/svg" viewBox="0 0 136.16 135.88"><defs><style>.cls-1{fill:#69f25a;}.cls-2{fill:#53a51e;}.cls-3{fill:#019639;}.cls-4{fill:#fff;}</style></defs><g id="Camada_2" data-name="Camada 2"><g id="Camada_1-2" data-name="Camada 1"><path class="cls-1" d="M88.3,0H20.4C14.2,0,9.1,11.2,9.1,25V35c0,2.8,1,5,2.3,5H30.8c1,0,1.8,1.4,2.2,3.4l2.5,16.5c1,6,3.5,10.1,6.4,10.1H97.5c1.2,0,2.3-2.2,2.3-5V25C99.6,11.2,94.5,0,88.3,0Z"/><path class="cls-2" d="M101.8,26.5h-60a2.58,2.58,0,0,1-2.2-1.8l-2.5-9c-1-3.3-3.5-5.6-6.4-5.6H6.8C3,10,0,13.7,0,18.3A93.21,93.21,0,0,0,2.7,40.6l9,36.5c1.4,5.8,5.9,9.8,10.9,9.8H86.5c4.7,0,9-3.5,10.6-8.9l9.8-31.6a41.75,41.75,0,0,0,1.7-11.6C108.6,30.1,105.5,26.5,101.8,26.5Z"/><path class="cls-3" d="M95.3,43h.21a32.42,32.42,0,0,1,3.23,1.75l36,20.72a2.64,2.64,0,0,1,1.37,2.62c0,14.56,0,29.12,0,43.68a2.7,2.7,0,0,1-1.18,1.68l-38.31,22a2,2,0,0,1-2.18.12q-19.19-11-38.32-22a2.33,2.33,0,0,1-1.33-2.21V67.69a2.31,2.31,0,0,1,1.29-2.22l36-20.71c1.07-.61,2.11-1.26,3.23-1.77"/><path class="cls-4" d="M71.47,71.32v36a5,5,0,0,0,1.42,3.6,5.46,5.46,0,0,0,6.83.69A5.19,5.19,0,0,0,82,107.35c0-8.7,0-17.39,0-26.08q11.88,14.24,23.82,28.42a9.4,9.4,0,0,0,8.63,2.6,5.18,5.18,0,0,0,4.15-4.55q0-18.39,0-36.77a5.25,5.25,0,0,0-10.46,0c0,8.84,0,17.66,0,26.49C100.36,88.28,92.67,79,84.92,69.81a9.36,9.36,0,0,0-8.79-3.49A5.26,5.26,0,0,0,71.47,71.32Z"/></g></g></svg>