<svg xmlns="http://www.w3.org/2000/svg" xmlns:xlink="http://www.w3.org/1999/xlink" width="130.302" height="99.371" viewBox="0 0 130.302 99.371"><defs><radialGradient id="a" cx="0.928" cy="0.071" r="1.479" gradientTransform="matrix(0.681, 0, 0, -1, 0.296, -90.134)" gradientUnits="objectBoundingBox"><stop offset="0.045" stop-color="#f4793b"/><stop offset="1" stop-color="#fff33e"/></radialGradient><radialGradient id="b" cx="0.156" cy="0.352" r="1.215" gradientTransform="matrix(0.694, 0, 0, -1, 0.048, -144.115)" gradientUnits="objectBoundingBox"><stop offset="0.258" stop-color="#ee3d85"/><stop offset="1" stop-color="#7b5aa6"/></radialGradient><linearGradient id="c" x1="0.195" y1="-59.574" x2="0.683" y2="-59.083" gradientUnits="objectBoundingBox"><stop offset="0" stop-color="#ee3d85"/><stop offset="1" stop-color="#f05872"/></linearGradient><radialGradient id="d" cx="0.117" cy="0.132" r="1.201" gradientTransform="matrix(0.916, 0, 0, -1, 0.01, -78.676)" gradientUnits="objectBoundingBox"><stop offset="0.134" stop-color="#f05872"/><stop offset="1" stop-color="#f4793b"/></radialGradient></defs><g transform="translate(701 -1508)"><path d="M117.206,53.334H33.653a12.257,12.257,0,0,0-12.17,13.885,2.457,2.457,0,0,0,3.681,1.8,6.96,6.96,0,0,1,3.573-.944h17.5a7.412,7.412,0,0,1,6.989,5l.418,1.347a12.346,12.346,0,0,0,11.656,8.4h56.816a7.372,7.372,0,0,1,3.671.983,2.462,2.462,0,0,0,3.7-2.123V65.621a12.287,12.287,0,0,0-12.281-12.287Z" transform="translate(-722 1454.735)" fill="#9f4246"/><path d="M102.856,111.089a11.235,11.235,0,0,0-5.664-1.528H44.934a6.817,6.817,0,0,1-6.428-4.6l-.384-1.239A11.355,11.355,0,0,0,27.4,96H11.3a10.816,10.816,0,0,0-5.533,1.46A11.274,11.274,0,0,0,0,107.3v54.247a11.3,11.3,0,0,0,11.3,11.3H97.192a11.3,11.3,0,0,0,11.3-11.3V120.862A11.224,11.224,0,0,0,102.856,111.089Z" transform="translate(-701 1412)" fill="#dd7a7d"/><g transform="translate(-30 120)"><path d="M59.921,24.264a2.171,2.171,0,0,0-2.209-3.734L17.605,42.523A4.742,4.742,0,1,0,22.8,50.446Z" transform="translate(-601.609 1436.009)" opacity="0.997" fill="url(#a)"/><path d="M20.068,15.376a5.218,5.218,0,1,0-5.345,8.876l21.486,8.873a2.012,2.012,0,0,0,2.139-3.354Z" transform="translate(-608.457 1424.617)" fill="url(#b)"/><path d="M35.892,10.188a4.122,4.122,0,0,0-3.444.458L13.8,23.3a5.228,5.228,0,0,0,6.1,8.49q.188-.136.362-.29l17-14.157a4.134,4.134,0,0,0-1.374-7.157Z" transform="translate(-608.5 1416.5)" opacity="0.999" fill="url(#c)"/><path d="M25.186,11.2a4.133,4.133,0,1,0-5.815,5.876l.165.156L51.9,43.691a2.168,2.168,0,0,0,2.96-3.148Z" transform="translate(-596.116 1416.5)" opacity="0.997" fill="url(#d)"/></g></g></svg>