<svg xmlns="http://www.w3.org/2000/svg" viewBox="0 0 112.18 98.4"><defs><style>.cls-1{fill:#dcb67a;}.cls-2{fill:#c09553;}.cls-3{fill:#ff4893;}.cls-4{fill:#4f46a3;}</style></defs><g id="Camada_2" data-name="Camada 2"><g id="Camada_1-2" data-name="Camada 1"><g id="Camada_1-2-2" data-name="Camada 1-2"><path class="cls-1" d="M88.18,0H20.31C14.06,0,9,11.19,9,25V35c0,2.76,1,5,2.26,5H30.63c1,0,1.82,1.35,2.15,3.36l2.46,16.49C36.19,65.9,38.77,70,41.67,70H97.23c1.25,0,2.27-2.24,2.27-5V25C99.49,11.19,94.43,0,88.18,0Z"/><path class="cls-2" d="M101.71,26.47h-60a2.4,2.4,0,0,1-2.15-1.85l-2.46-9c-1-3.32-3.53-5.55-6.42-5.57H6.78C3,10,0,13.69,0,18.23A93.65,93.65,0,0,0,2.67,40.54l9,36.52c1.44,5.81,5.85,9.8,10.85,9.79H86.39c4.72,0,9-3.54,10.61-8.92l9.77-31.63a40,40,0,0,0,1.72-11.6C108.49,30.15,105.45,26.47,101.71,26.47Z"/></g><path class="cls-3" d="M110.41,25.78l-26,28,26,15.18L60.57,96.63,86.57,69l-26-15.18Z"/><path class="cls-4" d="M60.57,98.4a1.77,1.77,0,0,1-1.29-3l24.48-26L59.68,55.32A1.77,1.77,0,0,1,59,52.9a1.79,1.79,0,0,1,.66-.65l49.84-28a1.78,1.78,0,0,1,2.41.68A1.75,1.75,0,0,1,111.7,27L87.2,53.37l24.1,14.08a1.75,1.75,0,0,1,.63,2.41,1.82,1.82,0,0,1-.66.66L61.43,98.17a1.76,1.76,0,0,1-.86.23Zm3.55-44.58L87.46,67.45a1.76,1.76,0,0,1,.64,2.41,1.57,1.57,0,0,1-.24.32L69.62,89.58l37.22-20.65L83.51,55.32a1.78,1.78,0,0,1-.63-2.42,1.19,1.19,0,0,1,.23-.31l18.32-19.73-37.31,21Z"/></g></g></svg>