<svg xmlns="http://www.w3.org/2000/svg" width="110" height="105.5" viewBox="0 0 110 105.5"><defs><style>.a{fill:#ffa000;}.b{fill:#ffc107;}.c{fill:#c09553;}</style></defs><g transform="translate(-215 -317)"><path class="a" d="M121.846,74.667H53.978c-6.247,0-11.311,11.193-11.311,25v10c0,2.762,1.013,5,2.262,5H64.294c.965.01,1.824,1.352,2.149,3.36l2.466,16.491c.951,6.052,3.526,10.12,6.425,10.15h55.561c1.249,0,2.262-2.239,2.262-5v-40C133.157,85.86,128.093,74.667,121.846,74.667Z" transform="translate(181.333 242.333)"/><path class="b" d="M101.709,155.135H41.678a2.4,2.4,0,0,1-2.147-1.844l-2.464-9.052c-.952-3.321-3.523-5.553-6.419-5.572H6.781C3.036,138.667,0,142.353,0,146.9a93.392,93.392,0,0,0,2.672,22.308l9.041,36.515c1.432,5.819,5.843,9.8,10.845,9.793H86.385c4.728.016,8.964-3.542,10.618-8.92l9.764-31.629a39.708,39.708,0,0,0,1.722-11.6C108.49,158.821,105.454,155.135,101.709,155.135Z" transform="translate(215 188.333)"/><g transform="translate(133 -221.731)"><path class="c" d="M22.578,30.405a55.716,55.716,0,0,0,19.584,3.142,55.716,55.716,0,0,0,19.584-3.16c4.915-1.913,6.65-4.041,6.65-5.266V15.775a27.273,27.273,0,0,1-5.488,2.833,58.7,58.7,0,0,1-20.747,3.43,58.879,58.879,0,0,1-20.747-3.423,27.069,27.069,0,0,1-5.488-2.84v9.35C15.928,26.371,17.673,28.5,22.578,30.405Z" transform="translate(123.6 575.001)"/><path class="c" d="M22.56,35.131a41.107,41.107,0,0,0,6.846,1.952,68.7,68.7,0,0,0,25.479,0,41.117,41.117,0,0,0,6.846-1.952c4.915-1.913,6.65-4.041,6.65-5.267V20.939a28.188,28.188,0,0,1-4.455,2.173,61.853,61.853,0,0,1-21.768,3.536A61.857,61.857,0,0,1,20.391,23.1a28.517,28.517,0,0,1-4.455-2.173v8.936C15.911,31.089,17.656,33.206,22.56,35.131Z" transform="translate(123.617 587.933)"/><path class="c" d="M42.147,43.676c14.483,0,26.234-4.592,26.234-10.256V25.952a27.649,27.649,0,0,1-4.041,2l-.414.165a61.846,61.846,0,0,1-21.768,3.557,61.674,61.674,0,0,1-21.768-3.557c-.14-.053-.277-.112-.414-.165a27.649,27.649,0,0,1-4.041-2v7.471C15.913,39.083,27.664,43.676,42.147,43.676Z" transform="translate(123.615 600.556)"/><ellipse class="c" cx="26.234" cy="10.256" rx="26.234" ry="10.256" transform="translate(139.528 570.5)"/></g></g></svg>