<svg xmlns="http://www.w3.org/2000/svg" width="108.492" height="76.848" viewBox="0 0 108.492 76.848"><g transform="translate(-555 -147.488)"><g transform="translate(459 -392.023)"><path d="M117.206,53.334H33.653a12.257,12.257,0,0,0-12.17,13.885,2.457,2.457,0,0,0,3.681,1.8,6.96,6.96,0,0,1,3.573-.944h17.5a7.412,7.412,0,0,1,6.989,5l.418,1.347a12.346,12.346,0,0,0,11.656,8.4h56.816a7.372,7.372,0,0,1,3.671.983,2.462,2.462,0,0,0,3.7-2.123V65.621a12.287,12.287,0,0,0-12.281-12.287Z" transform="translate(75 487.247)" fill="#dcb67a"/><path d="M102.856,111.089a11.235,11.235,0,0,0-5.664-1.528H44.934a6.817,6.817,0,0,1-6.428-4.6l-.384-1.239A11.355,11.355,0,0,0,27.4,96H11.3a10.816,10.816,0,0,0-5.533,1.46A11.274,11.274,0,0,0,0,107.3v54.247a11.3,11.3,0,0,0,11.3,11.3H97.192a11.3,11.3,0,0,0,11.3-11.3V120.862A11.224,11.224,0,0,0,102.856,111.089Z" transform="translate(96 443.512)" fill="#c09553"/></g><g transform="translate(-5 -86)"><path d="M21.518,71.945a3.134,3.134,0,0,1-.721-.087,3.625,3.625,0,0,1-2.528-4.224L27.7,17.38A3.611,3.611,0,0,1,29.249,15a3.113,3.113,0,0,1,2.438-.425A3.632,3.632,0,0,1,34.218,18.8L24.76,69.059a3.6,3.6,0,0,1-1.539,2.372A3.134,3.134,0,0,1,21.518,71.945Z" transform="translate(600.922 236.554)" fill="#9f4246"/><path d="M26.941,59.748H26.7a3.242,3.242,0,0,1-2.326-1.313,3.831,3.831,0,0,1,.348-4.942L40.947,37.638,24.8,22.877a3.831,3.831,0,0,1-.491-4.931,3.263,3.263,0,0,1,2.3-1.393,3.134,3.134,0,0,1,2.469.825L48.124,34.79a3.831,3.831,0,0,1,.5,4.931,3.7,3.7,0,0,1-.494.568L29.162,58.829a3.19,3.19,0,0,1-2.222.919Z" transform="translate(614.415 241.485)" fill="#9f4246"/><path d="M32.357,59.738a3.183,3.183,0,0,1-2.225-.93L11.146,40.258a3.133,3.133,0,0,1-.46-.533,3.81,3.81,0,0,1,.491-4.924L30.229,17.389a3.068,3.068,0,0,1,2.438-.829,3.277,3.277,0,0,1,2.316,1.393,3.831,3.831,0,0,1-.488,4.935L18.347,37.636,34.572,53.484a3.806,3.806,0,0,1,.348,4.942,3.228,3.228,0,0,1-2.33,1.313Z" transform="translate(580.6 241.505)" fill="#9f4246"/></g></g></svg>