<svg xmlns="http://www.w3.org/2000/svg" viewBox="0 0 112.72 98.64"><defs><style>.cls-1{fill:#bfa66d;}.cls-2{fill:#8a7820;}.cls-3,.cls-4{fill:none;stroke:#6c0;stroke-linecap:round;stroke-linejoin:round;stroke-width:8px;}.cls-3{isolation:isolate;opacity:0.34;}</style></defs><g id="Camada_2" data-name="Camada 2"><g id="Camada_1-2" data-name="Camada 1"><path class="cls-1" d="M88.18,0H20.31C14.06,0,9,11.19,9,25V35c0,2.76,1,5,2.26,5H30.63c1,0,1.82,1.35,2.15,3.36l2.46,16.49C36.19,65.9,38.77,70,41.67,70H97.23c1.25,0,2.27-2.24,2.27-5V25C99.49,11.19,94.43,0,88.18,0Z"/><path class="cls-2" d="M101.71,26.47h-60a2.4,2.4,0,0,1-2.15-1.85l-2.46-9c-1-3.32-3.53-5.55-6.42-5.57H6.78C3,10,0,13.69,0,18.23A93.65,93.65,0,0,0,2.67,40.54l9,36.52c1.44,5.81,5.85,9.8,10.85,9.79H86.39c4.72,0,9-3.54,10.61-8.92l9.77-31.63a40,40,0,0,0,1.72-11.6C108.49,30.15,105.45,26.47,101.71,26.47Z"/><g id="SVGRepo_iconCarrier" data-name="SVGRepo iconCarrier"><path class="cls-3" d="M96.25,55.43A21.56,21.56,0,0,1,105.4,70.8"/><path class="cls-3" d="M62.59,70.93a21.47,21.47,0,0,1,9-15.37"/><path class="cls-3" d="M74.33,92.34a21.53,21.53,0,0,0,19,.18"/><path class="cls-4" d="M84,59.25a6.95,6.95,0,1,0-6.94-6.94A6.95,6.95,0,0,0,84,59.25Z"/><path class="cls-4" d="M65.94,89.79A6.95,6.95,0,1,0,59,82.85,6.95,6.95,0,0,0,65.94,89.79Z"/><path class="cls-4" d="M101.78,89.79a6.95,6.95,0,1,0-7-6.94A6.94,6.94,0,0,0,101.78,89.79Z"/></g></g></g></svg>