<svg xmlns="http://www.w3.org/2000/svg" viewBox="0 0 116.19 94.76"><defs><style>.cls-1{fill:#7ead77;}.cls-2{fill:#5e7a63;}.cls-3{fill:#4ca046;stroke:#4ca046;stroke-miterlimit:10;stroke-width:4px;}</style></defs><g id="Camada_2" data-name="Camada 2"><g id="Camada_1-2" data-name="Camada 1"><path class="cls-1" d="M88.18,0H20.31C14.06,0,9,11.19,9,25V35c0,2.76,1,5,2.26,5H30.63c1,0,1.82,1.35,2.15,3.36l2.46,16.49C36.19,65.9,38.77,70,41.67,70H97.23c1.25,0,2.27-2.24,2.27-5V25C99.49,11.19,94.43,0,88.18,0Z"/><path class="cls-2" d="M101.71,26.47h-60a2.4,2.4,0,0,1-2.15-1.85l-2.46-9c-1-3.32-3.53-5.55-6.42-5.57H6.78C3,10,0,13.69,0,18.23A93.65,93.65,0,0,0,2.67,40.54l9,36.52c1.44,5.81,5.85,9.8,10.85,9.79H86.39c4.72,0,9-3.54,10.61-8.92l9.77-31.63a40,40,0,0,0,1.72-11.6C108.49,30.15,105.45,26.47,101.71,26.47Z"/><g id="SVGRepo_iconCarrier" data-name="SVGRepo iconCarrier"><rect class="cls-3" x="63.25" y="67.25" width="25.47" height="25.47"/><polygon class="cls-3" points="101.63 41.78 100.39 41.78 95.18 41.78 95.18 46.09 100.39 46.09 101.63 46.09 109.88 46.09 109.88 48.23 109.88 55.61 109.88 60.88 114.19 60.88 114.19 55.61 114.19 48.23 114.19 46.09 114.19 41.81 114.19 41.78 101.63 41.78"/><polygon class="cls-3" points="109.86 84.85 109.88 84.85 109.88 88.44 101.63 88.44 100.39 88.44 95.18 88.44 95.18 92.72 100.39 92.72 100.39 92.76 114.19 92.76 114.19 92.72 114.19 88.44 114.19 84.85 114.19 78.92 114.19 73.62 109.86 73.62 109.86 84.85"/><polygon class="cls-3" points="67.58 53.54 67.56 53.54 67.56 46.06 73.77 46.06 77.04 46.06 82.44 46.06 82.44 41.74 77.04 41.74 73.77 41.74 63.25 41.74 63.25 41.78 63.25 46.06 63.25 53.54 63.25 55.58 63.25 60.88 67.58 60.88 67.58 53.54"/></g></g></g></svg>