<svg xmlns="http://www.w3.org/2000/svg" xmlns:xlink="http://www.w3.org/1999/xlink" width="122.464" height="100.992" viewBox="0 0 122.464 100.992"><defs><radialGradient id="a" cx="0.501" cy="0.497" r="0.903" gradientTransform="matrix(0.987, 0.08, 0.054, -0.681, 1.311, -34.928)" gradientUnits="objectBoundingBox"><stop offset="0" stop-color="#0663b4"/><stop offset="1" stop-color="#16adff" stop-opacity="0.686"/></radialGradient><linearGradient id="b" x1="80.029" y1="-213.814" x2="80.029" y2="-212.759" gradientUnits="objectBoundingBox"><stop offset="0" stop-color="#047fc7"/><stop offset="1" stop-color="#11abe8"/></linearGradient></defs><g transform="translate(-16 -1654.488)"><path d="M117.206,53.334H33.653a12.257,12.257,0,0,0-12.17,13.885,2.457,2.457,0,0,0,3.681,1.8,6.96,6.96,0,0,1,3.573-.944h17.5a7.412,7.412,0,0,1,6.989,5l.418,1.347a12.346,12.346,0,0,0,11.656,8.4h56.816a7.372,7.372,0,0,1,3.671.983,2.462,2.462,0,0,0,3.7-2.123V65.621a12.287,12.287,0,0,0-12.281-12.287Z" transform="translate(-5 1602.224)" fill="#5599bf"/><path d="M102.856,111.089a11.235,11.235,0,0,0-5.664-1.528H44.934a6.817,6.817,0,0,1-6.428-4.6l-.384-1.239A11.355,11.355,0,0,0,27.4,96H11.3a10.816,10.816,0,0,0-5.533,1.46A11.274,11.274,0,0,0,0,107.3v54.247a11.3,11.3,0,0,0,11.3,11.3H97.192a11.3,11.3,0,0,0,11.3-11.3V120.862A11.224,11.224,0,0,0,102.856,111.089Z" transform="translate(16 1558.489)" fill="#345e75"/><rect width="68.51" height="68.51" rx="5.775" transform="translate(69.954 1686.97)" fill="#c7ebf1"/><rect width="65.814" height="65.14" rx="5.47" transform="translate(71.302 1688.992)" opacity="0.823" fill="url(#a)"/><rect width="56.103" height="56.103" rx="4.565" transform="translate(75.037 1694.479)" fill="#016fd2"/><path d="M79.289,33.161A21.051,21.051,0,0,0,58.307,13.712H34.622A21.063,21.063,0,0,0,13.559,34.775V57.786c0,.477.039.943.069,1.413q2.258.121,4.548.123A84.3,84.3,0,0,0,79.289,33.161Z" transform="translate(57.747 1675.276)" fill="#5fffe6" opacity="0.173"/><path d="M49.66,35.843a14.376,14.376,0,0,1-28.752,0h0a14.376,14.376,0,0,1,28.752,0Z" transform="translate(78.696 1697.381)" fill="#fff"/><path d="M32.223,24.532a8.312,8.312,0,0,1-16.623,0h0a8.312,8.312,0,0,1,16.623,0Z" transform="translate(63.565 1682.427)" fill="#fff"/><path d="M25.723,18.613a7.863,7.863,0,1,1-15.722,0h0a7.863,7.863,0,1,1,15.722,0Z" transform="translate(47.6 1666.336)" fill="rgba(203,237,242,0.93)"/><path d="M22.6,17.153a6.065,6.065,0,1,1-12.129,0h0a6.065,6.065,0,1,1,12.129,0Z" transform="translate(48.933 1667.796)" fill="url(#b)"/></g></svg>