<svg xmlns="http://www.w3.org/2000/svg" viewBox="0 0 128.27 103.49"><defs><style>.cls-1{fill:#c60;}.cls-2{fill:#f99;}.cls-3{fill:#eb5424;}</style></defs><g id="Camada_2" data-name="Camada 2"><g id="Camada_1-2" data-name="Camada 1"><path class="cls-1" d="M96.21,1.07H12.65A12.27,12.27,0,0,0,.37,13.3,12.82,12.82,0,0,0,.48,15a2.46,2.46,0,0,0,2.76,2.12,2.35,2.35,0,0,0,.92-.32,7,7,0,0,1,3.58-.94h17.5a7.43,7.43,0,0,1,7,5l.41,1.35a12.36,12.36,0,0,0,11.66,8.4h56.82a7.42,7.42,0,0,1,3.67,1,2.45,2.45,0,0,0,3.36-.89,2.42,2.42,0,0,0,.34-1.23V13.36A12.28,12.28,0,0,0,96.21,1.07Z"/><path class="cls-2" d="M102.86,15.09a11.29,11.29,0,0,0-5.67-1.53H44.93A6.8,6.8,0,0,1,38.51,9l-.39-1.24A11.35,11.35,0,0,0,27.4,0H11.3A10.84,10.84,0,0,0,5.77,1.46,11.26,11.26,0,0,0,0,11.3V65.55a11.3,11.3,0,0,0,11.3,11.3H97.19a11.3,11.3,0,0,0,11.3-11.3h0V24.86A11.22,11.22,0,0,0,102.86,15.09Z"/><path class="cls-3" d="M115.41,90.17l-7-21.55,18.33-13.31H104.09l-7-21.55h22.65l7,21.55h0a31.2,31.2,0,0,1-11.34,34.87Zm-36.65,0h0l18.33,13.32,18.33-13.32L97.09,76.85,78.76,90.17ZM67.43,55.3h0A31.21,31.21,0,0,0,78.75,90.17h0l7-21.54L67.44,55.31H90.08l7-21.55H74.43l-7,21.55Z"/></g></g></svg>