<svg xmlns="http://www.w3.org/2000/svg" viewBox="0 0 136.85 112.67"><defs><style>.cls-1{fill:#ef7b7b;}.cls-2{fill:#e02b22;}.cls-3{fill:#912626;}.cls-4{fill:#c6302b;}.cls-5{fill:#fff;}.cls-6{fill:#621b1c;}.cls-7{fill:#9a2928;}</style></defs><g id="Camada_2" data-name="Camada 2"><g id="Camada_1-2" data-name="Camada 1"><path class="cls-1" d="M88.3,0H20.4C14.2,0,9.1,11.2,9.1,25V35c0,2.8,1,5,2.3,5H30.8c1,0,1.8,1.4,2.2,3.4l2.5,16.5c1,6,3.5,10.1,6.4,10.1H97.5c1.2,0,2.3-2.2,2.3-5V25C99.6,11.2,94.5,0,88.3,0Z"/><path class="cls-2" d="M101.8,26.5h-60a2.58,2.58,0,0,1-2.2-1.8l-2.5-9c-1-3.3-3.5-5.6-6.4-5.6H6.8C3,10,0,13.7,0,18.3A93.21,93.21,0,0,0,2.7,40.6l9,36.5c1.4,5.8,5.9,9.8,10.9,9.8H86.5c4.7,0,9-3.5,10.6-8.9l9.8-31.6a41.75,41.75,0,0,0,1.7-11.6C108.6,30.1,105.5,26.5,101.8,26.5Z"/><path class="cls-3" d="M133.62,96.47c-4.41,2.3-27.23,11.68-32.09,14.21s-7.55,2.51-11.39.68S62,99.71,57.64,97.62c-2.19-1-3.34-1.93-3.34-2.76V86.52S85.92,79.63,91,77.8s6.88-1.9,11.22-.31,30.32,6.28,34.61,7.86v8.22c0,.83-1,1.73-3.23,2.9"/><path class="cls-4" d="M133.62,88.17c-4.41,2.3-27.23,11.68-32.09,14.22s-7.56,2.51-11.39.67S62,91.42,57.64,89.33s-4.47-3.53-.17-5.22S85.92,73,91,71.12s6.88-1.9,11.22-.3,27,10.62,31.33,12.19,4.45,2.87.05,5.16"/><path class="cls-3" d="M133.62,83c-4.41,2.29-27.23,11.68-32.09,14.21s-7.55,2.51-11.39.68S62,86.21,57.64,84.12c-2.19-1.05-3.34-1.93-3.34-2.76V73S85.92,66.13,91,64.3s6.88-1.9,11.22-.31,30.32,6.28,34.61,7.85v8.23c0,.82-1,1.73-3.23,2.9"/><path class="cls-4" d="M133.62,74.67c-4.41,2.3-27.23,11.68-32.09,14.22s-7.56,2.5-11.39.67S62,77.91,57.64,75.82s-4.47-3.53-.17-5.21S85.92,59.45,91,57.62s6.88-1.9,11.22-.31,27,10.62,31.33,12.2,4.45,2.87.05,5.16h0"/><path class="cls-3" d="M133.62,69c-4.41,2.29-27.23,11.68-32.09,14.21s-7.55,2.51-11.39.67S62,72.21,57.64,70.12c-2.19-1.05-3.34-1.93-3.34-2.76V59S85.92,52.13,91,50.3s6.88-1.9,11.22-.31,30.32,6.28,34.61,7.85v8.23c0,.82-1,1.73-3.23,2.9"/><path class="cls-4" d="M133.62,60.67c-4.41,2.3-27.23,11.68-32.09,14.21s-7.56,2.51-11.39.68S62,63.91,57.64,61.82s-4.47-3.53-.17-5.21S85.92,45.45,91,43.62s6.88-1.9,11.22-.31,27,10.62,31.33,12.2,4.45,2.86.05,5.16"/><path class="cls-5" d="M105.67,52.55l-7.1.74L97,57.11l-2.57-4.26-8.19-.74,6.11-2.21L90.5,46.52l5.72,2.24,5.4-1.77-1.46,3.5,5.51,2.06"/><path class="cls-5" d="M96.55,71.1,83.31,65.61l19-2.92L96.55,71.1"/><path class="cls-5" d="M78.19,54.68c5.6,0,10.14,1.76,10.14,3.93s-4.54,3.93-10.14,3.93S68,60.78,68,58.61s4.55-3.93,10.15-3.93"/><path class="cls-6" d="M114.05,53.6,125.29,58l-11.23,4.43V53.6"/><path class="cls-7" d="M101.63,58.51l12.42-4.91v8.87l-1.22.48-11.21-4.44"/></g></g></svg>