<svg xmlns="http://www.w3.org/2000/svg" viewBox="0 0 118.57 98.45"><defs><style>.cls-1{fill:#d2a6f4;}.cls-2{fill:#af84f4;}.cls-3{fill:#563d7c;fill-rule:evenodd;}</style></defs><g id="Camada_2" data-name="Camada 2"><g id="Camada_1-2" data-name="Camada 1"><path class="cls-1" d="M88.18,0H20.31C14.06,0,9,11.19,9,25V35c0,2.76,1,5,2.26,5H30.63c1,0,1.82,1.35,2.15,3.36l2.46,16.49C36.19,65.9,38.77,70,41.67,70H97.23c1.25,0,2.27-2.24,2.27-5V25C99.49,11.19,94.43,0,88.18,0Z"/><path class="cls-2" d="M101.71,26.47h-60a2.4,2.4,0,0,1-2.15-1.85l-2.46-9c-1-3.32-3.53-5.55-6.42-5.57H6.78C3,10,0,13.69,0,18.23A93.65,93.65,0,0,0,2.67,40.54l9,36.52c1.44,5.81,5.85,9.8,10.85,9.79H86.39c4.72,0,9-3.54,10.61-8.92l9.77-31.63a40,40,0,0,0,1.72-11.6C108.49,30.15,105.45,26.47,101.71,26.47Z"/><g id="SVGRepo_iconCarrier" data-name="SVGRepo iconCarrier"><path class="cls-3" d="M65.5,45.08a6.68,6.68,0,0,0-6.53,7A37.5,37.5,0,0,1,57.8,63.74c-1.14,3.69-3.07,6-6.22,6.33v3.39c3.15.3,5.08,2.64,6.22,6.33A37.44,37.44,0,0,1,59,91.47a6.68,6.68,0,0,0,6.53,7h39.16a6.68,6.68,0,0,0,6.53-7,37.44,37.44,0,0,1,1.17-11.68c1.14-3.69,3.06-6,6.21-6.33V70.07c-3.15-.3-5.07-2.64-6.21-6.33a37.5,37.5,0,0,1-1.17-11.69,6.68,6.68,0,0,0-6.53-7ZM97,77.93c0,5-3.73,8-9.91,8H76.56a1.1,1.1,0,0,1-.8-.34,1.14,1.14,0,0,1-.33-.8V58.71a1.16,1.16,0,0,1,.33-.81,1.14,1.14,0,0,1,.8-.33H87c5.16,0,8.54,2.79,8.54,7.08a6.35,6.35,0,0,1-5.18,6.18V71C94.34,71.42,97,74.15,97,77.93ZM85.94,61.17h-6v8.48h5c3.91,0,6.07-1.58,6.07-4.39C91.06,62.63,89.2,61.17,85.94,61.17ZM79.94,73v9.35h6.22c4.07,0,6.23-1.64,6.23-4.71S90.17,73,85.9,73Z"/></g></g></g></svg>