<svg xmlns="http://www.w3.org/2000/svg" viewBox="0 0 119.63 87.9"><defs><style>.cls-1{fill:#bba56b;}.cls-2{fill:#8e7b22;}.cls-3,.cls-4{fill:none;stroke:#6c0;stroke-linecap:round;stroke-linejoin:round;stroke-width:8px;}.cls-3{isolation:isolate;opacity:0.34;}</style></defs><g id="Camada_2" data-name="Camada 2"><g id="Camada_1-2" data-name="Camada 1"><path class="cls-1" d="M96.21,1.07H12.65A12.27,12.27,0,0,0,.37,13.3,12.82,12.82,0,0,0,.48,15a2.46,2.46,0,0,0,2.76,2.12,2.35,2.35,0,0,0,.92-.32,7,7,0,0,1,3.58-.94h17.5a7.43,7.43,0,0,1,7,5l.41,1.35a12.36,12.36,0,0,0,11.66,8.4h56.82a7.42,7.42,0,0,1,3.67,1,2.45,2.45,0,0,0,3.36-.89,2.42,2.42,0,0,0,.34-1.23V13.36A12.28,12.28,0,0,0,96.21,1.07Z"/><path class="cls-2" d="M102.86,15.09a11.29,11.29,0,0,0-5.67-1.53H44.93A6.8,6.8,0,0,1,38.51,9l-.39-1.24A11.35,11.35,0,0,0,27.4,0H11.3A10.84,10.84,0,0,0,5.77,1.46,11.26,11.26,0,0,0,0,11.3V65.55a11.3,11.3,0,0,0,11.3,11.3H97.19a11.3,11.3,0,0,0,11.3-11.3h0V24.86A11.22,11.22,0,0,0,102.86,15.09Z"/><g id="SVGRepo_iconCarrier" data-name="SVGRepo iconCarrier"><path class="cls-3" d="M103.16,44.69a21.54,21.54,0,0,1,9.14,15.37"/><path class="cls-3" d="M69.49,60.19a21.49,21.49,0,0,1,9-15.37"/><path class="cls-3" d="M81.24,81.61a21.33,21.33,0,0,0,9.67,2.29,21.08,21.08,0,0,0,9.32-2.12"/><path class="cls-4" d="M90.91,48.52a7,7,0,1,0-7-7A6.95,6.95,0,0,0,90.91,48.52Z"/><path class="cls-4" d="M72.84,79.06a7,7,0,1,0-6.94-7A6.95,6.95,0,0,0,72.84,79.06Z"/><path class="cls-4" d="M108.68,79.06a7,7,0,1,0-7-7A6.95,6.95,0,0,0,108.68,79.06Z"/></g></g></g></svg>