<svg xmlns="http://www.w3.org/2000/svg" width="108.492" height="76.848" viewBox="0 0 108.492 76.848"><g transform="translate(-532 -546.488)"><path d="M117.206,53.334H33.653a12.257,12.257,0,0,0-12.17,13.885,2.457,2.457,0,0,0,3.681,1.8,6.96,6.96,0,0,1,3.573-.944h17.5a7.412,7.412,0,0,1,6.989,5l.418,1.347a12.346,12.346,0,0,0,11.656,8.4h56.816a7.372,7.372,0,0,1,3.671.983,2.462,2.462,0,0,0,3.7-2.123V65.621a12.287,12.287,0,0,0-12.281-12.287Z" transform="translate(511 494.224)" fill="#2a8243"/><path d="M102.856,111.089a11.235,11.235,0,0,0-5.664-1.528H44.934a6.817,6.817,0,0,1-6.428-4.6l-.384-1.239A11.355,11.355,0,0,0,27.4,96H11.3a10.816,10.816,0,0,0-5.533,1.46A11.274,11.274,0,0,0,0,107.3v54.247a11.3,11.3,0,0,0,11.3,11.3H97.192a11.3,11.3,0,0,0,11.3-11.3V120.862A11.224,11.224,0,0,0,102.856,111.089Z" transform="translate(532 450.489)" fill="#14622a"/><g transform="translate(182 238)"><path d="M23.265,24.381l.9-.894c4.164.136,4.228-.01,4.411-.438l1.144-2.785L29.805,20l-.093-.231c-.049-.122-.2-.486-2.8-2.965V15.5c3-2.89,2.936-3.038,2.765-3.461L28.538,9.225c-.171-.422-.236-.587-4.37-.474l-.9-.93a20.166,20.166,0,0,0-.141-4.106l-.116-.263-2.974-1.3c-.438-.2-.592-.272-3.4,2.786l-1.262-.019c-2.891-3.086-3.028-3.03-3.461-2.855L9.149,3.182c-.433.175-.586.237-.418,4.437l-.893.89c-4.162-.136-4.226.012-4.407.438L2.285,11.733,2.195,12l.094.232c.049.12.194.48,2.8,2.962v1.3c-3,2.89-2.935,3.038-2.763,3.462l1.138,2.817c.174.431.236.584,4.369.476l.9.935a20.243,20.243,0,0,0,.137,4.1l.116.265,2.993,1.308c.435.182.586.247,3.386-2.8l1.262.016c2.9,3.09,3.043,3.03,3.466,2.859l2.759-1.115C23.288,28.644,23.44,28.583,23.265,24.381ZM11.407,17.857A4.957,4.957,0,1,1,17.9,20.681,5.014,5.014,0,0,1,11.407,17.857Z" transform="translate(410.805 331.003)" fill="#c09553"/><path d="M15.28,15.9l.559-.555c2.586.084,2.626-.006,2.739-.272l.71-1.73.053-.164-.058-.143c-.03-.076-.124-.3-1.739-1.841v-.81c1.863-1.795,1.823-1.887,1.717-2.149l-.707-1.748c-.106-.262-.147-.365-2.714-.294l-.559-.578a12.524,12.524,0,0,0-.088-2.55L15.122,2.9l-1.847-.807c-.272-.124-.368-.169-2.112,1.73l-.784-.012C8.585,1.9,8.5,1.93,8.231,2.039l-1.717.694c-.269.109-.364.147-.26,2.756L5.7,6.041c-2.585-.084-2.624.007-2.737.272l-.712,1.73-.056.166.058.144c.03.075.12.3,1.739,1.84V11C2.129,12.8,2.17,12.887,2.276,13.15L2.983,14.9c.108.268.147.363,2.713.3l.559.581a12.571,12.571,0,0,0,.085,2.546l.072.165,1.859.812c.27.113.364.153,2.1-1.739l.784.01c1.8,1.919,1.89,1.882,2.153,1.776l1.713-.692C15.294,18.546,15.389,18.508,15.28,15.9ZM7.916,11.847A3.078,3.078,0,1,1,11.945,13.6,3.114,3.114,0,0,1,7.916,11.847Z" transform="translate(425.805 359.003)" fill="#c09553"/></g></g></svg>