<svg xmlns="http://www.w3.org/2000/svg" viewBox="0 0 108.49 86.85"><defs><style>.cls-1{fill:#dcb67a;}.cls-2{fill:#c09553;}.cls-3{fill:#ffb13b;}</style></defs><g id="Camada_2" data-name="Camada 2"><g id="Camada_1-2" data-name="Camada 1"><path class="cls-1" d="M88.18,0H20.31C14.06,0,9,11.19,9,25V35c0,2.76,1,5,2.26,5H30.63c1,0,1.82,1.35,2.15,3.36l2.46,16.49C36.19,65.9,38.77,70,41.67,70H97.23c1.25,0,2.27-2.24,2.27-5V25C99.49,11.19,94.43,0,88.18,0Z"/><path class="cls-2" d="M101.71,26.47h-60a2.4,2.4,0,0,1-2.15-1.85l-2.46-9c-1-3.32-3.53-5.55-6.42-5.57H6.78C3,10,0,13.69,0,18.23A93.65,93.65,0,0,0,2.67,40.54l9,36.52c1.44,5.81,5.85,9.8,10.85,9.79H86.39c4.72,0,9-3.54,10.61-8.92l9.77-31.63a40,40,0,0,0,1.72-11.6C108.49,30.15,105.45,26.47,101.71,26.47Z"/><path d="M95.65,62.47a7.74,7.74,0,0,0-5.47-13.2,7.64,7.64,0,0,0-1.44.14A7.73,7.73,0,1,0,78,38.68a7.76,7.76,0,0,0-2.13-6.92,7.74,7.74,0,0,0-10.93,0,7.76,7.76,0,0,0-2.12,6.92A7.73,7.73,0,1,0,52.08,49.41a7.73,7.73,0,1,0,0,15.19A7.72,7.72,0,1,0,62.82,75.32a7.78,7.78,0,0,0,2.12,6.92,7.74,7.74,0,0,0,10.93,0A7.76,7.76,0,0,0,78,75.32,7.72,7.72,0,1,0,88.74,64.6a7.8,7.8,0,0,0,6.91-2.13"/><path class="cls-3" d="M93.31,53.87a4.42,4.42,0,0,0-6.26,0H78l6.42-6.42A4.43,4.43,0,1,0,80,43l-6.42,6.42V40.36a4.43,4.43,0,1,0-6.27,0v9.08L60.86,43a4.44,4.44,0,1,0-4.43,4.43l6.41,6.42H53.77a4.43,4.43,0,1,0,0,6.27h9.07l-6.41,6.41A4.44,4.44,0,1,0,60.86,71l6.41-6.41v9.07a4.43,4.43,0,1,0,6.27,0V64.57L80,71a4.43,4.43,0,1,0,4.43-4.43L78,60.14h9.08a4.43,4.43,0,1,0,6.26-6.27"/></g></g></svg>