<svg xmlns="http://www.w3.org/2000/svg" width="108.489" height="86.849" viewBox="0 0 108.489 86.849"><g transform="translate(-678 -536)"><path d="M121.846,74.667H53.978c-6.247,0-11.311,11.193-11.311,25v10c0,2.762,1.013,5,2.262,5H64.294c.965.01,1.824,1.352,2.149,3.36l2.466,16.491c.951,6.052,3.526,10.12,6.425,10.15H130.9c1.249,0,2.262-2.239,2.262-5v-40C133.157,85.86,128.093,74.667,121.846,74.667Z" transform="translate(644.333 461.333)" fill="#2a8243"/><path d="M101.709,155.135H41.678a2.4,2.4,0,0,1-2.147-1.844l-2.464-9.052c-.952-3.321-3.523-5.553-6.419-5.572H6.781C3.036,138.667,0,142.353,0,146.9a93.392,93.392,0,0,0,2.672,22.308l9.041,36.515c1.432,5.819,5.843,9.8,10.845,9.793H86.385c4.728.016,8.964-3.542,10.618-8.92l9.764-31.629a39.708,39.708,0,0,0,1.722-11.6C108.49,158.821,105.454,155.135,101.709,155.135Z" transform="translate(678 407.333)" fill="#14622a"/><g transform="translate(319 238)"><path d="M23.265,24.381l.9-.894c4.164.136,4.228-.01,4.411-.438l1.144-2.785L29.805,20l-.093-.231c-.049-.122-.2-.486-2.8-2.965V15.5c3-2.89,2.936-3.038,2.765-3.461L28.538,9.225c-.171-.422-.236-.587-4.37-.474l-.9-.93a20.166,20.166,0,0,0-.141-4.106l-.116-.263-2.974-1.3c-.438-.2-.592-.272-3.4,2.786l-1.262-.019c-2.891-3.086-3.028-3.03-3.461-2.855L9.149,3.182c-.433.175-.586.237-.418,4.437l-.893.89c-4.162-.136-4.226.012-4.407.438L2.285,11.733,2.195,12l.094.232c.049.12.194.48,2.8,2.962v1.3c-3,2.89-2.935,3.038-2.763,3.462l1.138,2.817c.174.431.236.584,4.369.476l.9.935a20.243,20.243,0,0,0,.137,4.1l.116.265,2.993,1.308c.435.182.586.247,3.386-2.8l1.262.016c2.9,3.09,3.043,3.03,3.466,2.859l2.759-1.115C23.288,28.644,23.44,28.583,23.265,24.381ZM11.407,17.857A4.957,4.957,0,1,1,17.9,20.681,5.014,5.014,0,0,1,11.407,17.857Z" transform="translate(410.805 331.003)" fill="#c09553"/><path d="M15.28,15.9l.559-.555c2.586.084,2.626-.006,2.739-.272l.71-1.73.053-.164-.058-.143c-.03-.076-.124-.3-1.739-1.841v-.81c1.863-1.795,1.823-1.887,1.717-2.149l-.707-1.748c-.106-.262-.147-.365-2.714-.294l-.559-.578a12.524,12.524,0,0,0-.088-2.55L15.122,2.9l-1.847-.807c-.272-.124-.368-.169-2.112,1.73l-.784-.012C8.585,1.9,8.5,1.93,8.231,2.039l-1.717.694c-.269.109-.364.147-.26,2.756L5.7,6.041c-2.585-.084-2.624.007-2.737.272l-.712,1.73-.056.166.058.144c.03.075.12.3,1.739,1.84V11C2.129,12.8,2.17,12.887,2.276,13.15L2.983,14.9c.108.268.147.363,2.713.3l.559.581a12.571,12.571,0,0,0,.085,2.546l.072.165,1.859.812c.27.113.364.153,2.1-1.739l.784.01c1.8,1.919,1.89,1.882,2.153,1.776l1.713-.692C15.294,18.546,15.389,18.508,15.28,15.9ZM7.916,11.847A3.078,3.078,0,1,1,11.945,13.6,3.114,3.114,0,0,1,7.916,11.847Z" transform="translate(425.805 359.003)" fill="#c09553"/></g></g></svg>