<svg xmlns="http://www.w3.org/2000/svg" width="118.245" height="129.907" viewBox="0 0 118.245 129.907"><g transform="translate(-72 -1593)"><path d="M121.846,74.667H53.978c-6.247,0-11.311,11.193-11.311,25v10c0,2.762,1.013,5,2.262,5H64.294c.965.01,1.824,1.352,2.149,3.36l2.466,16.491c.951,6.052,3.526,10.12,6.425,10.15H130.9c1.249,0,2.262-2.239,2.262-5v-40C133.157,85.86,128.093,74.667,121.846,74.667Z" transform="translate(38.333 1518.333)" fill="#9f4246"/><path d="M101.709,155.135H41.678a2.4,2.4,0,0,1-2.147-1.844l-2.464-9.052c-.952-3.321-3.523-5.553-6.419-5.572H6.781C3.036,138.667,0,142.353,0,146.9a93.392,93.392,0,0,0,2.672,22.308l9.041,36.515c1.432,5.819,5.843,9.8,10.845,9.793H86.385c4.728.016,8.964-3.542,10.618-8.92l9.764-31.629a39.708,39.708,0,0,0,1.722-11.6C108.49,158.821,105.454,155.135,101.709,155.135Z" transform="translate(72 1464.333)" fill="#dd7a7d"/><path d="M78.249,48.771a13.415,13.415,0,0,1-1.437,5.708l-1.3.649c-1.065,2.069.1,1.3-.658,2.96A35.944,35.944,0,0,1,68.729,63c-.792,0,.537-.935.71-1.3-2.224,1.528-1.787,2.294-5.193,3.224l-.1-.221c-8.4,3.951-20.058-3.895-19.906-14.558-.091.679-.255.511-.433.783a13.446,13.446,0,0,1,7.547-13.268A12.736,12.736,0,0,1,65.509,39.5a12.619,12.619,0,0,0-10.317-4.951,11.658,11.658,0,0,0-10.014,5.976c-2.281,1.437-2.549,5.539-3.544,6.292C40.3,56.656,44.153,60.905,50.674,65.9c1.026.692.29.8.433,1.324A17.7,17.7,0,0,1,45.326,62.8a15.54,15.54,0,0,0,3.008,3.462c-2.043-.692-4.76-4.951-5.569-5.124,3.523,6.305,14.281,11.057,19.906,8.7a23.52,23.52,0,0,1-8.854-1.03c-1.229-.632-2.9-1.947-2.6-2.19a21.984,21.984,0,0,0,22.3-3.159c1.692-1.3,3.544-3.562,4.076-3.6-.8,1.212.138.584-.48,1.653,1.688-2.722-.731-1.108,1.731-4.7l.913,1.259c-.342-2.259,2.8-5,2.488-8.577.723-1.095.8,1.177.039,3.691,1.065-2.787.281-3.237.554-5.539a20.914,20.914,0,0,1,.865,2.41,10.615,10.615,0,0,1,1.056-6.106c-.342-.151-1.069,1.19-1.233-1.991.026-1.385.385-.723.524-1.065a6.11,6.11,0,0,1-1.415-3.25c.316-.476.84,1.238,1.268,1.3a31.589,31.589,0,0,1-.766-4.089c-1.251-2.6-.433.346-1.454-1.121-1.329-4.146,1.1-.961,1.268-2.847a33.291,33.291,0,0,1,3.691,9.317A38.172,38.172,0,0,0,84.8,33.577c.61.255-.987-4.7.8-1.415a29.591,29.591,0,0,0-13.852-16.6c.7.645,1.588,1.45,1.272,1.575-2.856-1.7-2.354-1.831-2.761-2.549-2.324-.948-2.48.078-4.02,0a47.719,47.719,0,0,0-9.261-3.536l.182.865c-2.9-.965-3.384.368-6.522,0-.19-.147,1-.541,1.991-.684-2.809.372-2.674-.554-5.422.1a23.339,23.339,0,0,1,2.116-1.194c-2.289.138-5.466,1.333-4.483.247a52.748,52.748,0,0,0-14.086,7.5l-.117-.783c-1.705,2.047-7.435,6.115-7.893,8.763l-.454.108a49.142,49.142,0,0,0-2.164,4.76c-1.16,1.978-1.7.762-1.536,1.069a72.27,72.27,0,0,0-4.4,11.706,67.131,67.131,0,0,1,.281,10.473c-1.147,20.7,14.527,40.8,31.664,45.439a34.495,34.495,0,0,0,9.417.961c-3.748-1.073-4.232-.567-7.885-1.839-2.635-1.242-3.211-2.657-5.076-4.276l.74,1.3c-3.657-1.3-2.129-1.6-5.1-2.545l.788-1.03a6.781,6.781,0,0,1-3.674-3.055l-1.3.052c-1.558-1.921-2.389-3.311-2.328-4.384l-.433.749c-.476-.814-5.734-7.214-3.008-5.725a6.154,6.154,0,0,1-1.9-2.077l.554-.636a10.572,10.572,0,0,1-2.333-4.574,2.969,2.969,0,0,0,1.666,1.3c-3.315-8.222-3.5-.433-6.015-8.374l.532-.043a17.587,17.587,0,0,1-.982-1.934l.229-2.307c-2.389-2.761-.666-11.736-.325-16.661a47.9,47.9,0,0,1,3.328-7.474l-.814-.138C23.762,34,31.08,25.827,34.468,26.246c1.64-2.064-.325,0-.645-.528,3.6-3.73,4.76-2.635,7.175-3.306,2.622-1.558-2.255.606-1.008-.593,4.535-1.16,3.215-2.635,9.135-3.224.623.355-1.45.55-1.969,1.008a24.394,24.394,0,0,1,17.275,1.026A25.294,25.294,0,0,1,77.8,40.047l.312.082a37.351,37.351,0,0,1-.632,10.256l.762-1.6" transform="translate(103.6 1622.5)" fill="#a80030"/></g></svg>