<svg xmlns="http://www.w3.org/2000/svg" width="113.375" height="98.847" viewBox="0 0 113.375 98.847"><g transform="translate(1502 -2246)"><path d="M121.846,74.667H53.978c-6.247,0-11.311,11.193-11.311,25v10c0,2.762,1.013,5,2.262,5H64.294c.965.01,1.824,1.352,2.149,3.36l2.466,16.491c.951,6.052,3.526,10.12,6.425,10.15H130.9c1.249,0,2.262-2.239,2.262-5v-40C133.157,85.86,128.093,74.667,121.846,74.667Z" transform="translate(-1535.667 2171.333)" fill="#7bbedb"/><path d="M101.709,155.135H41.678a2.4,2.4,0,0,1-2.147-1.844l-2.464-9.052c-.952-3.321-3.523-5.553-6.419-5.572H6.781C3.036,138.667,0,142.353,0,146.9a93.392,93.392,0,0,0,2.672,22.308l9.041,36.515c1.432,5.819,5.843,9.8,10.845,9.793H86.385c4.728.016,8.964-3.542,10.618-8.92l9.764-31.629a39.708,39.708,0,0,0,1.722-11.6C108.49,158.821,105.454,155.135,101.709,155.135Z" transform="translate(-1502 2117.333)" fill="#55a1bf"/><g transform="translate(-321 17)"><path d="M28.307,38.222l4.209-4.209a12.164,12.164,0,0,0,9.49-.224,1.159,1.159,0,0,0,.34-1.874L34.828,24.4a2.337,2.337,0,0,1,0-3.308l7.509-7.509a1.164,1.164,0,0,0-.328-1.886A12.122,12.122,0,0,0,25.649,26.968l-4.3,4.3Z" transform="translate(-1116.611 2259.5)" fill="#675f58"/><path d="M29.187,22.121l-5.834-5.834-6.962,6.962,5.834,5.834,6.962,6.962L50.513,57.37a1.56,1.56,0,0,0,2.206,0l4.756-4.756a1.56,1.56,0,0,0,0-2.205L36.149,29.082Z" transform="translate(-1125.556 2269.743)" fill="#675f58"/><path d="M34.209,13.311l-6.235,6.235a1.277,1.277,0,0,0,0,1.8l4.807,4.807a1.274,1.274,0,0,0,1.9-.1,12.136,12.136,0,0,0,1.6-12.363,1.274,1.274,0,0,0-2.071-.382Z" transform="translate(-1105.312 2263.686)" fill="#675f58"/><path d="M13.159,27.86l7.517,7.517a2.337,2.337,0,0,1,0,3.308l-7.509,7.509a1.164,1.164,0,0,0,.342,1.886A12.122,12.122,0,0,0,29.883,32.852l4.65-4.65-6.962-6.962-4.534,4.537a12.164,12.164,0,0,0-9.54.208,1.159,1.159,0,0,0-.337,1.874Z" transform="translate(-1132.009 2278.689)" fill="#675f58"/><path d="M13.331,24.541a12.136,12.136,0,0,0-1.6,12.363,1.274,1.274,0,0,0,2.068.382l6.235-6.235a1.277,1.277,0,0,0,0-1.8l-4.8-4.8a1.274,1.274,0,0,0-1.9.1Z" transform="translate(-1135.798 2283.791)" fill="#675f58"/><path d="M18.5,28.127a1.911,1.911,0,0,0,2.7,0l.359-.359a1.911,1.911,0,0,0,0-2.7l-.721-.721,1.42-1.42L15.6,16.258l-1.42,1.42-.721-.721a1.911,1.911,0,0,0-2.7,0l-.359.359a1.911,1.911,0,0,0,0,2.7Z" transform="translate(-1137.4 2269.69)" fill="#675f58"/><path d="M16.6,13.249l6.586,6.586c7.59-5.051,11.836-.817,6-6.65C25.144,9.147,20.046,11.055,16.6,13.249Z" transform="translate(-1125.18 2259.876)" fill="#675f58"/><path d="M23.2,12.113a1.911,1.911,0,0,0-2.7,0l-8.109,8.109a1.911,1.911,0,0,0,0,2.7l.721.721,6.667,6.667.721.721a1.911,1.911,0,0,0,2.475.194,1.942,1.942,0,0,0,.227-.194l.345-.34L30.5,23.733l.561-.561.255-.255a1.911,1.911,0,0,0,0-2.7l-.786-.786-6.611-6.611Z" transform="translate(-1133.804 2261.194)" fill="#675f58"/></g></g></svg>