<svg xmlns="http://www.w3.org/2000/svg" width="112.248" height="109.5" viewBox="0 0 112.248 109.5"><g transform="translate(-278 -1644)"><path d="M121.846,74.667H53.978c-6.247,0-11.311,11.193-11.311,25v10c0,2.762,1.013,5,2.262,5H64.294c.965.01,1.824,1.352,2.149,3.36l2.466,16.491c.951,6.052,3.526,10.12,6.425,10.15H130.9c1.249,0,2.262-2.239,2.262-5v-40C133.157,85.86,128.093,74.667,121.846,74.667Z" transform="translate(244.333 1569.333)" fill="#9b9b9b"/><path d="M101.709,155.135H41.678a2.4,2.4,0,0,1-2.147-1.844l-2.464-9.052c-.952-3.321-3.523-5.553-6.419-5.572H6.781C3.036,138.667,0,142.353,0,146.9a93.392,93.392,0,0,0,2.672,22.308l9.041,36.515c1.432,5.819,5.843,9.8,10.845,9.793H86.385c4.728.016,8.964-3.542,10.618-8.92l9.764-31.629a39.708,39.708,0,0,0,1.722-11.6C108.49,158.821,105.454,155.135,101.709,155.135Z" transform="translate(278 1515.333)" fill="gray"/><g transform="translate(58 100.763)"><path d="M17.957,71.417,12.482,10H72.648L67.166,71.407l-24.637,6.83Z" transform="translate(259.6 1574.5)" fill="#e44f26"/><path d="M21.74,69.54l19.909-5.521,4.686-52.474H21.74Z" transform="translate(280.425 1577.975)" fill="#f1662a"/><path d="M34.486,43.18,14.99,31.46V27.213l19.5-11.724v6.574L22.048,29.335,34.486,36.61Z" transform="translate(265.241 1586.847)" fill="#fff"/><path d="M22.49,43.169V36.6L35.016,29.33,22.49,22.061v-6.57l19.5,11.669V31.5Z" transform="translate(282.112 1586.851)" fill="#fff"/></g></g></svg>