<svg xmlns="http://www.w3.org/2000/svg" xmlns:xlink="http://www.w3.org/1999/xlink" width="108.49" height="86.85" viewBox="0 0 108.49 86.85"><defs><style>.a{fill:#ffa000;}.b{fill:#ffc107;}.c{fill:url(#a);}.d{fill:url(#b);}.e{fill:url(#c);}.f{fill:url(#d);}</style><linearGradient id="a" x1="0.514" y1="0.751" x2="0.962" y2="0.233" gradientUnits="objectBoundingBox"><stop offset="0" stop-color="#1011a1"/><stop offset="1" stop-color="#6969e1"/></linearGradient><linearGradient id="b" x1="0.017" y1="0.366" x2="0.699" y2="0.944" gradientUnits="objectBoundingBox"><stop offset="0" stop-color="#b40e0e"/><stop offset="1" stop-color="#ff5959"/></linearGradient><linearGradient id="c" x1="0.705" y1="0.664" x2="0.223" y2="0.518" gradientUnits="objectBoundingBox"><stop offset="0" stop-color="#01a300"/><stop offset="1" stop-color="#01df00"/></linearGradient><linearGradient id="d" x1="0.501" y1="0.838" x2="0.476" y2="0.114" gradientUnits="objectBoundingBox"><stop offset="0" stop-color="#848484"/><stop offset="1" stop-color="#d2d2d2"/></linearGradient></defs><g transform="translate(-215 -317)"><path class="a" d="M121.846,74.667H53.978c-6.247,0-11.311,11.193-11.311,25v10c0,2.762,1.013,5,2.262,5H64.294c.965.01,1.824,1.352,2.149,3.36l2.466,16.491c.951,6.052,3.526,10.12,6.425,10.15h55.561c1.249,0,2.262-2.239,2.262-5v-40C133.157,85.86,128.093,74.667,121.846,74.667Z" transform="translate(181.333 242.333)"/><path class="b" d="M101.709,155.135H41.678a2.4,2.4,0,0,1-2.147-1.844l-2.464-9.052c-.952-3.321-3.523-5.553-6.419-5.572H6.781C3.036,138.667,0,142.353,0,146.9a93.392,93.392,0,0,0,2.672,22.308l9.041,36.515c1.432,5.819,5.843,9.8,10.845,9.793H86.385c4.728.016,8.964-3.542,10.618-8.92l9.764-31.629a39.708,39.708,0,0,0,1.722-11.6C108.49,158.821,105.454,155.135,101.709,155.135Z" transform="translate(215 188.333)"/><g transform="translate(198 -267)"><path class="c" d="M37.213,36.57l-27.151,23.2,24.88-49.678Z" transform="translate(48.191 605.228)"/><path d="M10.131,59.938l-.091-.069L35.015,10l.017.212,2.274,26.51-.021.019ZM34.92,10.431,10.278,59.657l26.9-22.987Z" transform="translate(48.161 605.102)"/><path class="d" d="M24.03,51.058,20.5,10.089,45.4,59.777Z" transform="translate(62.633 605.225)"/><path d="M45.562,59.9l-.145-.057L24.01,51.128V51.09L20.475,10.109l.112-.031Zm-21.44-8.872,21.19,8.645L20.62,10.409Z" transform="translate(62.598 605.21)"/><path class="e" d="M26.183,25.124,59.862,38.97h-49.8Z" transform="translate(48.196 626.027)"/><path d="M59.952,39.063H10l.122-.1L26.261,25.1l.036.014,33.68,13.844Zm-49.638-.122h49.34L26.284,25.226Z" transform="translate(48.106 625.994)"/><path class="f" d="M16.849,30.564l10.964-9.348,1.525,14.435Z" transform="translate(57.582 620.378)"/><path d="M29.609,35.977l-.184-.079-12.671-5.16.148-.126,11.138-9.5.024.226ZM17.214,30.665,29.339,35.6,27.859,21.59Z" transform="translate(57.45 620.482)"/><path d="M59.884,60.336H10.325a.458.458,0,0,1-.369-.179A.436.436,0,0,1,10,59.75L34.847,10.124a.348.348,0,0,1,.288-.2h0a.319.319,0,0,1,.267.191l24.849,49.6a.477.477,0,0,1,.038.443A.458.458,0,0,1,59.884,60.336Zm-49.595-.365H59.884a.386.386,0,0,0,.091,0,.333.333,0,0,0-.043-.086l-24.8-49.523L10.32,59.9Z" transform="translate(48 605)"/></g></g></svg>