<svg xmlns="http://www.w3.org/2000/svg" width="115" height="106.5" viewBox="0 0 115 106.5"><g transform="translate(-208 -1549)"><g transform="translate(-6 1009)"><path d="M121.846,74.667H53.978c-6.247,0-11.311,11.193-11.311,25v10c0,2.762,1.013,5,2.262,5H64.294c.965.01,1.824,1.352,2.149,3.36l2.466,16.491c.951,6.052,3.526,10.12,6.425,10.15H130.9c1.249,0,2.262-2.239,2.262-5v-40C133.157,85.86,128.093,74.667,121.846,74.667Z" transform="translate(180.333 465.333)" fill="#dcb67a"/><path d="M101.709,155.135H41.678a2.4,2.4,0,0,1-2.147-1.844l-2.464-9.052c-.952-3.321-3.523-5.553-6.419-5.572H6.781C3.036,138.667,0,142.353,0,146.9a93.392,93.392,0,0,0,2.672,22.308l9.041,36.515c1.432,5.819,5.843,9.8,10.845,9.793H86.385c4.728.016,8.964-3.542,10.618-8.92l9.764-31.629a39.708,39.708,0,0,0,1.722-11.6C108.49,158.821,105.454,155.135,101.709,155.135Z" transform="translate(214 411.333)" fill="#c09553"/></g><path d="M43.524,18.381V23.41H30.114a6.725,6.725,0,0,0-6.7,6.7v13.41H18.381a8.381,8.381,0,0,0,0,16.762H23.41V73.7a6.725,6.725,0,0,0,6.7,6.7H42.853V75.371a9.051,9.051,0,1,1,18.1,0V80.4H73.7a6.725,6.725,0,0,0,6.7-6.7V60.956H75.371a9.051,9.051,0,1,1,0-18.1H80.4V30.114a6.725,6.725,0,0,0-6.7-6.7H60.286V18.381a8.381,8.381,0,0,0-16.762,0Z" transform="translate(242.6 1575.1)" fill="gray"/></g></svg>