<svg xmlns="http://www.w3.org/2000/svg" viewBox="0 0 126.91 108.81"><defs><style>.cls-1{fill:#7cd87c;}.cls-2{fill:#17560a;}.cls-3{fill:#00a23c;}</style></defs><g id="Camada_2" data-name="Camada 2"><g id="Camada_1-2" data-name="Camada 1"><path class="cls-1" d="M88.3,0H20.4C14.2,0,9.1,11.2,9.1,25V35c0,2.8,1,5,2.3,5H30.8c1,0,1.8,1.4,2.2,3.4l2.5,16.5c1,6,3.5,10.1,6.4,10.1H97.5c1.2,0,2.3-2.2,2.3-5V25C99.6,11.2,94.5,0,88.3,0Z"/><path class="cls-2" d="M101.8,26.5h-60a2.58,2.58,0,0,1-2.2-1.8l-2.5-9c-1-3.3-3.5-5.6-6.4-5.6H6.8C3,10,0,13.7,0,18.3A93.21,93.21,0,0,0,2.7,40.6l9,36.5c1.4,5.8,5.9,9.8,10.9,9.8H86.5c4.7,0,9-3.5,10.6-8.9l9.8-31.6a41.75,41.75,0,0,0,1.7-11.6C108.6,30.1,105.5,26.5,101.8,26.5Z"/><path class="cls-3" d="M111,45.32a17.2,17.2,0,0,1,8.67,5A23,23,0,0,1,123,54.77c0,.18-6,4.23-9.64,6.49-.14.09-.66-.49-1.26-1.37A7.87,7.87,0,0,0,105.59,56c-4.2-.28-6.91,1.92-6.89,5.59a5.13,5.13,0,0,0,.6,2.6c.92,1.91,2.64,3.06,8,5.39,9.92,4.28,14.18,7.09,16.81,11.09a20.13,20.13,0,0,1,1.62,16.91,18.58,18.58,0,0,1-15.33,11,42.48,42.48,0,0,1-10.57-.11,25.49,25.49,0,0,1-14.11-7.35,24.64,24.64,0,0,1-3.61-5.35,10.62,10.62,0,0,1,1.28-.81c.61-.35,3-1.69,5.15-3l4-2.31.84,1.22a18.78,18.78,0,0,0,5.27,5.05,12.87,12.87,0,0,0,13.49-.68,6,6,0,0,0,.78-7.7c-1.08-1.55-3.28-2.83-9.54-5.54a34.42,34.42,0,0,1-13.06-8A18.34,18.34,0,0,1,86.52,67a28,28,0,0,1-.24-8.85A16.88,16.88,0,0,1,100.5,45,34.89,34.89,0,0,1,111,45.32ZM78.45,51.11l0,5.67H60.43v51.29H47.68V56.79h-18V51.22a54.55,54.55,0,0,1,.15-5.72c.07-.09,11-.13,24.37-.11l24.23.07Z"/></g></g></svg>