<svg xmlns="http://www.w3.org/2000/svg" width="149.768" height="97" viewBox="0 0 149.768 97"><g transform="translate(-288 -1723)"><path d="M121.846,74.667H53.978c-6.247,0-11.311,11.193-11.311,25v10c0,2.762,1.013,5,2.262,5H64.294c.965.01,1.824,1.352,2.149,3.36l2.466,16.491c.951,6.052,3.526,10.12,6.425,10.15H130.9c1.249,0,2.262-2.239,2.262-5v-40C133.157,85.86,128.093,74.667,121.846,74.667Z" transform="translate(254.333 1648.333)" fill="#dcb67a"/><path d="M101.709,155.135H41.678a2.4,2.4,0,0,1-2.147-1.844l-2.464-9.052c-.952-3.321-3.523-5.553-6.419-5.572H6.781C3.036,138.667,0,142.353,0,146.9a93.392,93.392,0,0,0,2.672,22.308l9.041,36.515c1.432,5.819,5.843,9.8,10.845,9.793H86.385c4.728.016,8.964-3.542,10.618-8.92l9.764-31.629a39.708,39.708,0,0,0,1.722-11.6C108.49,158.821,105.454,155.135,101.709,155.135Z" transform="translate(288 1594.333)" fill="#c09553"/><g transform="translate(434 -73)"><g transform="translate(-96.915 1831.792)"><path d="M40.4,44.5,30.954,22,21.271,44.5ZM64.574,67.913H39.158v-4.9l1.648-.083a6.643,6.643,0,0,0,3.5-.719,1.126,1.126,0,0,0,.519-.946,14.954,14.954,0,0,0-1.506-5.035l-2.931-6.949H21.138l-3.316,7.729a11.93,11.93,0,0,0-1.255,4.162c0,.13,0,.429.553.865a8.922,8.922,0,0,0,4.283.889l1.611.119V67.91H2V63.2l1.439-.252a7.869,7.869,0,0,0,3.6-1.143,22.721,22.721,0,0,0,4.243-7.435L31.334,7.488h3.759L54.908,54.87a18.9,18.9,0,0,0,3.773,6.6,7.046,7.046,0,0,0,4.279,1.439l1.632.1Z" transform="translate(-2 -7.488)" fill="#755838"/><path d="M42.218,44.945V30.615A81.073,81.073,0,0,0,34.212,34.1a13.832,13.832,0,0,0-4.639,3.773,7.3,7.3,0,0,0-1.4,4.323,7.016,7.016,0,0,0,1.765,4.9,5.36,5.36,0,0,0,4.063,1.956A14.9,14.9,0,0,0,42.218,44.945ZM30.23,55.549a10.187,10.187,0,0,1-7.692-3.211,11.529,11.529,0,0,1-3-8.218,10.642,10.642,0,0,1,1.492-5.671A17.982,17.982,0,0,1,27.474,32.6,85.868,85.868,0,0,1,40.482,26.9v-.266A10.447,10.447,0,0,0,39.1,20.04a4.765,4.765,0,0,0-3.866-1.482,4.15,4.15,0,0,0-2.939.935,2.471,2.471,0,0,0-1,1.928l.083,2.324a5.825,5.825,0,0,1-1.439,4.165,5.325,5.325,0,0,1-7.552-.069,5.879,5.879,0,0,1-1.406-4.079,10.07,10.07,0,0,1,4.252-7.829,17.309,17.309,0,0,1,11.239-3.353,19.351,19.351,0,0,1,9.02,1.885,9.451,9.451,0,0,1,4.362,4.841,22.984,22.984,0,0,1,.878,7.912V39.986a52.734,52.734,0,0,0,.183,6.29,2.377,2.377,0,0,0,.194.719c.306-.28,1.022-.809,3.112-2.9l2.939-2.977v7.073l-.36.46c-3.439,4.611-6.76,6.859-10.167,6.859a5.754,5.754,0,0,1-4.52-2,6.43,6.43,0,0,1-1.288-2.664,34.839,34.839,0,0,1-5.154,3.513,12.87,12.87,0,0,1-5.445,1.195Z" transform="translate(43.52 5.656)" fill="#755838"/></g></g></g></svg>