<svg xmlns="http://www.w3.org/2000/svg" viewBox="0 0 128.24 85.15"><defs><style>.cls-1{fill:#4f4d4a;}.cls-2{fill:#494540;}.cls-3{fill:#c0874a;}.cls-4{fill:#69b25f;}.cls-5{fill:#a2cc86;}.cls-6{fill:#53a654;}.cls-7{fill:#f0ba7d;}.cls-8{fill:#e5a864;}.cls-9{fill:#eef3ca;opacity:0.68;}.cls-11,.cls-9{isolation:isolate;}.cls-10{fill:#ecb168;}.cls-11{fill:#badb9e;opacity:0.2;}</style></defs><g id="Camada_2" data-name="Camada 2"><g id="Camada_1-2" data-name="Camada 1"><path class="cls-1" d="M96.3,1H12.7A12.27,12.27,0,0,0,.4,13.2a8.08,8.08,0,0,0,.1,1.6,2.49,2.49,0,0,0,2.8,2.1,3.18,3.18,0,0,0,.9-.3,6.44,6.44,0,0,1,3.6-.9H25.3a7.33,7.33,0,0,1,7,5l.4,1.3a12.38,12.38,0,0,0,11.7,8.4h56.8a6.86,6.86,0,0,1,3.7,1,2.47,2.47,0,0,0,3.4-.9,2.66,2.66,0,0,0,.3-1.2V13.2A12.4,12.4,0,0,0,96.3,1Z"/><path class="cls-2" d="M102.9,15a11.29,11.29,0,0,0-5.7-1.5H44.9a6.79,6.79,0,0,1-6.4-4.6l-.4-1.2A11.39,11.39,0,0,0,27.4,0H11.3A10.58,10.58,0,0,0,5.8,1.5,11.27,11.27,0,0,0,0,11.3V65.5A11.35,11.35,0,0,0,11.3,76.8H97.2a11.35,11.35,0,0,0,11.3-11.3h0V24.8A11.2,11.2,0,0,0,102.9,15Z"/><polygon class="cls-3" points="128.17 50.01 127.12 50.67 121.9 53.95 99.51 68 99.23 68.18 99.17 68.22 98.03 68.94 97.99 68.96 97.05 68.37 96.88 68.26 75.67 54.95 74.23 54.04 67.87 50.05 67.8 50.01 74.23 45.97 97.26 31.51 98.71 31.51 121.9 46.06 122.66 46.55 128.17 50.01"/><path class="cls-4" d="M123,31.4V76.71A2,2,0,0,1,121,78.6H75.16a2,2,0,0,1-2.08-1.89V31.4a2,2,0,0,1,2.08-1.89H121A2,2,0,0,1,123,31.4Z"/><rect class="cls-5" x="80.88" y="38.37" width="22.49" height="3"/><rect class="cls-6" x="80.88" y="37.9" width="22.49" height="3"/><rect class="cls-5" x="80.88" y="54.85" width="34.17" height="3"/><rect class="cls-6" x="80.88" y="54.37" width="34.17" height="3"/><rect class="cls-5" x="80.88" y="63.09" width="34.17" height="3"/><rect class="cls-6" x="80.88" y="62.61" width="34.17" height="3"/><rect class="cls-5" x="80.88" y="46.61" width="34.17" height="3"/><rect class="cls-6" x="80.88" y="46.14" width="34.17" height="3"/><polygon class="cls-7" points="98.06 67.53 97.7 67.74 90.88 71.72 90.04 72.22 69.27 84.35 67.87 85.15 67.87 49.91 76.24 54.79 96.92 66.86 97.08 66.96 98.03 67.51 98.06 67.53"/><path class="cls-8" d="M128,49.25c.12-.06.21,0,.21.12v35l0,0-.05,0h0l-.22-.12L99.14,67.4l-.41-.25-.1-.06c-.12-.06-.29-.17-.39-.23s-.09-.16,0-.23l.73-.42.22-.13,0,0,.23-.13.64-.37.42-.24Z"/><circle class="cls-9" cx="112.32" cy="38.37" r="4.51"/><path class="cls-3" d="M128.24,79.7v5.41h-.06l-.87,0H71.07l0-.84,3.25-2.23L74.4,82l2.95-2L82,76.8l1.33-.92,14-9.63.94-.66a2.86,2.86,0,0,1,.75-.34,4.3,4.3,0,0,1,1-.21,2.2,2.2,0,0,1,.36,0,2.17,2.17,0,0,1,.36,0,4.17,4.17,0,0,1,.94.08,3.15,3.15,0,0,1,.88.3l10.59,5.89,5.24,2.92,1.36.75,4.93,2.75,3.25,1.8.29.16Z"/><path class="cls-10" d="M128.24,81.61v3.54H67.87V81.61l3.36-2.07.12-.08,3-1.88,4.75-3,1.37-.86,14.42-9,1-.6a3.72,3.72,0,0,1,1.81-.47h.71a3.18,3.18,0,0,1,.82.1,3.11,3.11,0,0,1,1,.37l1.4.87,8.9,5.52,5.08,3.16,1.32.83,4.81,3,3.15,2,.29.16c.64.42,1.47.93,2.25,1.41Z"/><path class="cls-11" d="M123,31.4v.51A2,2,0,0,0,121,30H75.16a2,2,0,0,0-2.08,1.9V31.4a2,2,0,0,1,2.08-1.89H121A2,2,0,0,1,123,31.4Z"/></g></g></svg>