<svg xmlns="http://www.w3.org/2000/svg" width="144" height="85.002" viewBox="0 0 144 85.002"><g transform="translate(-229 -899)"><path d="M117.206,53.334H33.653a12.257,12.257,0,0,0-12.17,13.885,2.457,2.457,0,0,0,3.681,1.8,6.96,6.96,0,0,1,3.573-.944h17.5a7.412,7.412,0,0,1,6.989,5l.418,1.347a12.346,12.346,0,0,0,11.656,8.4h56.816a7.372,7.372,0,0,1,3.671.983,2.462,2.462,0,0,0,3.7-2.123V65.621a12.287,12.287,0,0,0-12.281-12.287Z" transform="translate(208 845.735)" fill="#55bbbf"/><g transform="translate(195 664.51)"><g transform="translate(16 -18)"><path d="M102.856,111.089a11.235,11.235,0,0,0-5.664-1.528H44.934a6.817,6.817,0,0,1-6.428-4.6l-.384-1.239A11.355,11.355,0,0,0,27.4,96H11.3a10.816,10.816,0,0,0-5.533,1.46A11.274,11.274,0,0,0,0,107.3v54.247a11.3,11.3,0,0,0,11.3,11.3H97.192a11.3,11.3,0,0,0,11.3-11.3V120.862A11.224,11.224,0,0,0,102.856,111.089Z" transform="translate(18 156.49)" fill="#11a798"/></g></g><path d="M37.353,4a2.309,2.309,0,0,0-1.321.454L18.389,16.831a3,3,0,0,1-2.217.642H4.8a3.07,3.07,0,0,0-1.988.688A2.178,2.178,0,0,0,2,19.838V35.164a2.179,2.179,0,0,0,.818,1.675,3.071,3.071,0,0,0,1.987.687H16.161a3,3,0,0,1,2.217.642L36.021,50.543c1.209.848,2.509.439,2.509-.566V5.022a.887.887,0,0,0-.322-.729A1.264,1.264,0,0,0,37.353,4ZM60.036,8.5l-4.158,3.511a25.071,25.071,0,0,1,0,31.026l4.144,3.478c9.3-11.457,9.3-26.554.014-38.015ZM49.977,16.97l-4.09,3.48a10.372,10.372,0,0,1,0,14.172l4.076,3.439a14.768,14.768,0,0,0,.023-21.088Z" transform="translate(306 933)" fill="#55bbbf"/></g></svg>