<svg xmlns="http://www.w3.org/2000/svg" viewBox="0 0 119.81 100.99"><defs><style>.cls-1{fill:#cc6;}.cls-2{fill:#993;}.cls-3{fill:#3d6deb;}.cls-4{fill:#5286fa;}.cls-5{fill:#424ede;}.cls-6{fill:#6e76e5;}</style></defs><g id="Camada_2" data-name="Camada 2"><g id="Camada_1-2" data-name="Camada 1"><path class="cls-1" d="M88.18,0H20.31C14.06,0,9,11.19,9,25V35c0,2.76,1,5,2.26,5H30.63c1,0,1.82,1.35,2.15,3.36l2.46,16.49C36.19,65.9,38.77,70,41.67,70H97.23c1.25,0,2.27-2.24,2.27-5V25C99.49,11.19,94.43,0,88.18,0Z"/><path class="cls-2" d="M101.71,26.47h-60a2.4,2.4,0,0,1-2.15-1.85l-2.46-9c-1-3.32-3.53-5.55-6.42-5.57H6.78C3,10,0,13.69,0,18.23A93.65,93.65,0,0,0,2.67,40.54l9,36.52c1.44,5.81,5.85,9.8,10.85,9.79H86.39c4.72,0,9-3.54,10.61-8.92l9.77-31.63a40,40,0,0,0,1.72-11.6C108.49,30.15,105.45,26.47,101.71,26.47Z"/><path class="cls-3" d="M119.38,61.28A8.74,8.74,0,0,0,111,55.22a8.63,8.63,0,0,0-2.71.43,8.79,8.79,0,0,0-6.06,8.12L97.85,65.2A12.73,12.73,0,0,0,90,59.47V54.82a8.78,8.78,0,0,0-2.92-17,8.45,8.45,0,0,0-1.34.11h0a7.79,7.79,0,0,0-1.27.29h0c-.26.09-.51.18-.76.29h0l-.38.17-.08,0-.3.16,0,0-.68.41,0,0-.33.23-.11.09-.22.17a.39.39,0,0,1-.1.08l-.22.2-.09.09-.21.2-.15.15-.14.15-.24.27,0,0-.16.21-.1.12-.14.21a.71.71,0,0,0-.1.14l-.14.21-.09.14a7.45,7.45,0,0,0-.54,1,.36.36,0,0,0,0,.09.94.94,0,0,0-.06.15c0,.11-.09.22-.13.33s-.13.38-.18.57a9.29,9.29,0,0,0-.22,1q-.06.4-.09.81c0,.17,0,.35,0,.53a8.79,8.79,0,0,0,5.84,8.27v4.65a12.68,12.68,0,0,0-6.81,4.22,13.57,13.57,0,0,0-1.09,1.52l-4.41-1.44a8.79,8.79,0,0,0-6.06-8.12l-.33-.1c-.22-.06-.45-.12-.67-.16A8.27,8.27,0,0,0,63,55.22a8.73,8.73,0,0,0-8.34,6.06,8.61,8.61,0,0,0-.35,3.88,7.71,7.71,0,0,0,.26,1.25,8.62,8.62,0,0,0,.82,1.93,8.35,8.35,0,0,0,1.87,2.28,3,3,0,0,0,.33.28c.22.17.46.34.7.5a9.41,9.41,0,0,0,2,.94,8.93,8.93,0,0,0,2.71.43l.52,0a8.61,8.61,0,0,0,1-.12A9,9,0,0,0,66,72.24a8.81,8.81,0,0,0,2.58-1.47A9.4,9.4,0,0,0,70,69.33l4.42,1.45,0,.5c0,.17,0,.34,0,.51a12.76,12.76,0,0,0,.46,3.41c.1.36.22.72.35,1.07A12.84,12.84,0,0,0,77.42,80l-2.73,3.77a8.66,8.66,0,0,0-5.54.18,9,9,0,0,0-1.83.93l-.42.3a9.85,9.85,0,0,0-.78.67,8.89,8.89,0,0,0-1,1.17,8.77,8.77,0,0,0-1.53,3.58,7.9,7.9,0,0,0-.11.85q0,.42,0,.84c0,.28,0,.56,0,.84a9,9,0,0,0,.48,2,8.57,8.57,0,0,0,1.76,2.91A8.3,8.3,0,0,0,67,99.31c.19.14.39.27.58.39s.6.34.91.49a8.38,8.38,0,0,0,2,.63,7.77,7.77,0,0,0,1.37.16h.35a8.89,8.89,0,0,0,4-1,8.73,8.73,0,0,0,3.12-2.66,8.82,8.82,0,0,0,.13-10.12l2.73-3.76a12.76,12.76,0,0,0,4.88,1,12.42,12.42,0,0,0,4.85-1l2.76,3.76A8.77,8.77,0,0,0,101.87,101h0A8.67,8.67,0,0,0,107,99.31a8.77,8.77,0,0,0-7.66-15.5l-2.74-3.75a12.6,12.6,0,0,0,3.08-8.27c0-.34,0-.69,0-1l4.42-1.44a8.75,8.75,0,0,0,7,3.44h0a8.64,8.64,0,0,0,2.71-.44A8.77,8.77,0,0,0,119.38,61.28Z"/><path class="cls-3" d="M111.94,66.77a2.79,2.79,0,0,1-.9.15,2.93,2.93,0,0,1-.91-5.71,2.83,2.83,0,0,1,.91-.14,2.92,2.92,0,0,1,.9,5.7Zm-31.74,5A6.83,6.83,0,1,1,87,78.61,6.83,6.83,0,0,1,80.2,71.79ZM87,43.62a2.93,2.93,0,1,1-2.93,2.93A2.93,2.93,0,0,1,87,43.62ZM62.11,66.77a2.92,2.92,0,0,1,.91-5.7,2.77,2.77,0,0,1,.9.14,2.93,2.93,0,0,1-.9,5.71A2.85,2.85,0,0,1,62.11,66.77Zm8.36,27.81a2.93,2.93,0,0,1-.65-4.08,2.9,2.9,0,0,1,2.37-1.21,3,3,0,0,1,1.72.56,2.93,2.93,0,0,1,.64,4.09,2.9,2.9,0,0,1-2.37,1.2A2.87,2.87,0,0,1,70.47,94.58Zm33.76-4.08a2.92,2.92,0,0,1-2.36,4.64h0a2.93,2.93,0,1,1,2.36-4.64Z"/><path class="cls-4" d="M87,65a6.82,6.82,0,1,0,6.82,6.82A6.84,6.84,0,0,0,87,65Z"/><path class="cls-4" d="M87,49.47a2.93,2.93,0,1,0-2.93-2.92A2.92,2.92,0,0,0,87,49.47Z"/><path class="cls-4" d="M73.91,89.85a3,3,0,0,0-1.72-.56,2.9,2.9,0,0,0-2.37,1.21,2.93,2.93,0,0,0,.65,4.08,2.87,2.87,0,0,0,1.71.56,2.9,2.9,0,0,0,2.37-1.2A2.93,2.93,0,0,0,73.91,89.85Z"/><path class="cls-4" d="M111,66.92a2.79,2.79,0,0,0,.9-.15,2.92,2.92,0,0,0-.9-5.7,2.83,2.83,0,0,0-.91.14,2.93,2.93,0,0,0,.91,5.71Z"/><path class="cls-4" d="M101.87,95.14a2.92,2.92,0,1,0-2.37-1.21,2.9,2.9,0,0,0,2.37,1.21Z"/><path class="cls-5" d="M80.2,71.79A6.83,6.83,0,0,1,87,65V49.47a2.93,2.93,0,1,1,0-5.85V37.77a8.78,8.78,0,0,0-2.93,17v4.65a12.74,12.74,0,0,0-7.9,5.74l-4.41-1.44a8.79,8.79,0,0,0-6.06-8.12A8.63,8.63,0,0,0,63,55.22a8.77,8.77,0,0,0-2.71,17.11,8.64,8.64,0,0,0,2.71.44,8.73,8.73,0,0,0,7-3.44l4.42,1.45c0,.33,0,.67,0,1A12.6,12.6,0,0,0,77.42,80L74.69,83.8a9.1,9.1,0,0,0-2.5-.36A8.77,8.77,0,0,0,67,99.31,8.69,8.69,0,0,0,72.18,101a8.77,8.77,0,0,0,7.24-13.74l2.73-3.77a12.58,12.58,0,0,0,4.88,1V78.61A6.83,6.83,0,0,1,80.2,71.79ZM65.8,64.9a2.92,2.92,0,0,1-2.78,2,2.85,2.85,0,0,1-.91-.15,2.92,2.92,0,0,1,.91-5.7,2.77,2.77,0,0,1,.9.14A2.93,2.93,0,0,1,65.8,64.9Zm8.75,29a2.9,2.9,0,0,1-2.37,1.2,2.87,2.87,0,0,1-1.71-.56,2.93,2.93,0,0,1-.65-4.08,2.9,2.9,0,0,1,2.37-1.21,3,3,0,0,1,1.72.56A2.93,2.93,0,0,1,74.55,93.94Z"/><path class="cls-6" d="M80.2,71.79A6.83,6.83,0,0,0,87,78.61V65A6.83,6.83,0,0,0,80.2,71.79Z"/><path class="cls-6" d="M84.1,46.55A2.93,2.93,0,0,0,87,49.47V43.62A2.93,2.93,0,0,0,84.1,46.55Z"/><path class="cls-6" d="M63.92,61.21a2.77,2.77,0,0,0-.9-.14,2.92,2.92,0,0,0-.91,5.7,2.85,2.85,0,0,0,.91.15,2.93,2.93,0,0,0,.9-5.71Z"/><path class="cls-6" d="M73.91,89.85a3,3,0,0,0-1.72-.56,2.9,2.9,0,0,0-2.37,1.21,2.93,2.93,0,0,0,.65,4.08,2.87,2.87,0,0,0,1.71.56,2.9,2.9,0,0,0,2.37-1.2A2.93,2.93,0,0,0,73.91,89.85Z"/></g></g></svg>