<svg xmlns="http://www.w3.org/2000/svg" width="122" height="120.518" viewBox="0 0 122 120.518"><g transform="translate(-776 -1526)"><path d="M121.846,74.667H53.978c-6.247,0-11.311,11.193-11.311,25v10c0,2.762,1.013,5,2.262,5H64.294c.965.01,1.824,1.352,2.149,3.36l2.466,16.491c.951,6.052,3.526,10.12,6.425,10.15H130.9c1.249,0,2.262-2.239,2.262-5v-40C133.157,85.86,128.093,74.667,121.846,74.667Z" transform="translate(742.333 1451.333)" fill="#dd7a7d"/><path d="M101.709,155.135H41.678a2.4,2.4,0,0,1-2.147-1.844l-2.464-9.052c-.952-3.321-3.523-5.553-6.419-5.572H6.781C3.036,138.667,0,142.353,0,146.9a93.392,93.392,0,0,0,2.672,22.308l9.041,36.515c1.432,5.819,5.843,9.8,10.845,9.793H86.385c4.728.016,8.964-3.542,10.618-8.92l9.764-31.629a39.708,39.708,0,0,0,1.722-11.6C108.49,158.821,105.454,155.135,101.709,155.135Z" transform="translate(776 1397.333)" fill="#9f4246"/><path d="M88.674,51.523A6.916,6.916,0,0,0,83,54.489L77.9,53.6v-.576a16.869,16.869,0,0,0-1.259-6.4l8.64-5.213a6.929,6.929,0,1,0-2.633-4.32l-8.6,5.188a16.976,16.976,0,0,0-10.562-6.04V25.626a7.994,7.994,0,1,0-5.061,0V36.242a17.021,17.021,0,0,0-12.956,9.85L29.637,41.228a9.854,9.854,0,1,0-1.9,4.711l16.371,5.028a16.869,16.869,0,0,0,4.6,13.8l-7.13,7.591a8.393,8.393,0,1,0,3.789,3.357l7.348-7.859a16.927,16.927,0,0,0,16.108.177l7.352,11.179a9.838,9.838,0,1,0,4.386-2.534L72.912,65.038a17,17,0,0,0,4.069-6.472l4.847.823a6.92,6.92,0,1,0,6.851-7.9Z" transform="translate(801.6 1550.5)" fill="#c09553"/></g></svg>