<svg xmlns="http://www.w3.org/2000/svg" width="134.391" height="120.511" viewBox="0 0 134.391 120.511"><g transform="translate(-80 -1642.488)"><g transform="translate(-16 1102.977)"><path d="M117.206,53.334H33.653a12.257,12.257,0,0,0-12.17,13.885,2.457,2.457,0,0,0,3.681,1.8,6.96,6.96,0,0,1,3.573-.944h17.5a7.412,7.412,0,0,1,6.989,5l.418,1.347a12.346,12.346,0,0,0,11.656,8.4h56.816a7.372,7.372,0,0,1,3.671.983,2.462,2.462,0,0,0,3.7-2.123V65.621a12.287,12.287,0,0,0-12.281-12.287Z" transform="translate(75 487.247)" fill="#dcb67a"/><path d="M102.856,111.089a11.235,11.235,0,0,0-5.664-1.528H44.934a6.817,6.817,0,0,1-6.428-4.6l-.384-1.239A11.355,11.355,0,0,0,27.4,96H11.3a10.816,10.816,0,0,0-5.533,1.46A11.274,11.274,0,0,0,0,107.3v54.247a11.3,11.3,0,0,0,11.3,11.3H97.192a11.3,11.3,0,0,0,11.3-11.3V120.862A11.224,11.224,0,0,0,102.856,111.089Z" transform="translate(96 443.512)" fill="#c09553"/></g><g transform="translate(-85 100.236)"><path d="M90.466,83.982h0A8.689,8.689,0,0,1,89.1,80.365a7.1,7.1,0,0,0-2.009-4.108h0a5.093,5.093,0,0,0-.764-.536,4.78,4.78,0,0,0-.781-.362,20.45,20.45,0,0,0-.705-14.489A48.331,48.331,0,0,0,76,47.243a20.191,20.191,0,0,1-6.336-13.19c.094-8.417.96-24.031-14.413-24.053-.625,0-1.277.022-1.96.076-17.177,1.34-12.618,18.829-12.873,24.683A20.691,20.691,0,0,1,36.13,46.618,58.1,58.1,0,0,0,25.07,64.327a20.437,20.437,0,0,0-1.17,9.765c-.156.134-.3.277-.447.42-1.054,1.085-1.831,2.4-2.7,3.286a8.483,8.483,0,0,1-3.233,1.514,5.769,5.769,0,0,0-3.514,2.652h0a4.626,4.626,0,0,0-.527,2.273A14.075,14.075,0,0,0,13.7,86.4a9.042,9.042,0,0,1,.156,3.8,7.144,7.144,0,0,0-.447,5.8,5.135,5.135,0,0,0,3.818,2.233,41.807,41.807,0,0,1,11.279,2.3l.3-.549-.3.554a16.521,16.521,0,0,0,10.627,1.9,6.858,6.858,0,0,0,4.912-3.7c2.38,0,5-.982,9.18-1.206,2.844-.223,6.39.973,10.48.755a5.122,5.122,0,0,0,.469,1.228h0a7.676,7.676,0,0,0,7.653,4.206A14,14,0,0,0,81,98.61l-.5-.4.5.4a33.041,33.041,0,0,1,9.7-5.894,4.434,4.434,0,0,0,2.679-3.318C93.466,87.9,92.556,86.224,90.466,83.982Z" transform="translate(206 1559)" fill="#20201f"/><path d="M91.036,73.432c-.058.92-.75,1.607-2.032,2.349a32.108,32.108,0,0,0-9.993,6.166,12.761,12.761,0,0,1-8.283,4.675,6.251,6.251,0,0,1-6.4-3.532h0a9.689,9.689,0,0,1,.219-6.635,43.2,43.2,0,0,0,1.889-7.443h0a38.186,38.186,0,0,1,.79-7.086,5.492,5.492,0,0,1,2.6-3.858l.179-.107a5.613,5.613,0,0,0,3.572,5.4,9.037,9.037,0,0,0,7.3-2.987l.853-.031a4.6,4.6,0,0,1,3.443.964h0a6.349,6.349,0,0,1,1.594,3.443,8.859,8.859,0,0,0,1.661,4.166h0C90.447,71.061,91.09,72.507,91.036,73.432ZM42.4,80.254h0a5.3,5.3,0,0,1-4.545,5.108,15.4,15.4,0,0,1-9.738-1.786h0a39.462,39.462,0,0,0-11.609-2.416,3.911,3.911,0,0,1-2.934-1.6,6.224,6.224,0,0,1,.5-4.831v-.022a9.22,9.22,0,0,0-.107-4.385,6.032,6.032,0,0,1,.17-3.67h0a4.385,4.385,0,0,1,2.813-2.063,9.033,9.033,0,0,0,3.715-1.813h0c1.031-1.049,1.786-2.362,2.715-3.3a3.572,3.572,0,0,1,2.679-1.34h.04a3.908,3.908,0,0,1,.643.054,6.64,6.64,0,0,1,4.153,2.934l3.715,6.524h0a44.776,44.776,0,0,0,4.845,6.407A10.354,10.354,0,0,1,42.4,80.254ZM60.919,19.435a3.545,3.545,0,0,0-1.947-1.509h0a31.753,31.753,0,0,1-4.3-1.71,9.305,9.305,0,0,0-4.912-1.63,5.947,5.947,0,0,0-1.9.308,9.337,9.337,0,0,0-3.407,2.3h0c-.134.121-.3.232-.723.527s-1.049.741-1.956,1.4a1.866,1.866,0,0,0-.79,2.233,5.425,5.425,0,0,0,2.791,2.8h0a20.222,20.222,0,0,1,2.487,1.956,5.621,5.621,0,0,0,1.317.786,5.4,5.4,0,0,0,1.817.384,7.2,7.2,0,0,0,4.1-1.014,18.869,18.869,0,0,1,3.152-1.71h0a6.555,6.555,0,0,0,4.318-3.3,2.116,2.116,0,0,0-.058-1.813Z" transform="translate(207.055 1574.891)" fill="#fdbb14"/><path d="M70.485,64.941h-.79c.607-1.853-.737-3.219-4.327-4.787-3.724-1.585-6.7-1.429-7.193,1.786-.031.165-.058.339-.076.509a5.593,5.593,0,0,0-.839.362,6.756,6.756,0,0,0-3.233,4.648,38.725,38.725,0,0,0-.831,7.314h0a27.684,27.684,0,0,1-1.295,5.3,19.316,19.316,0,0,1-21.754,1.281c-.487-.741-1.045-1.478-1.621-2.2-.371-.447-.746-.924-1.121-1.38a4.725,4.725,0,0,0,1.871-.335,2.362,2.362,0,0,0,1.295-1.286,5.063,5.063,0,0,0-1.407-4.572A25.42,25.42,0,0,0,21.9,65.624h0a10.024,10.024,0,0,1-4.67-5.47,11.864,11.864,0,0,1-.063-6.452,37.721,37.721,0,0,1,5.18-10.832c.447-.313.156.576-1.648,3.809-1.616,2.951-4.644,9.77-.5,15.1A30.841,30.841,0,0,1,22.816,50.51c2.3-5.014,7.1-13.708,7.479-20.642.2.138.893.58,1.174.746h0a21.791,21.791,0,0,1,2.4,1.893,6.032,6.032,0,0,0,3.572,1.34h.447a8.167,8.167,0,0,0,4.059-1.125,21.624,21.624,0,0,1,3.009-1.648h0a8.109,8.109,0,0,0,4.237-2.746,92.587,92.587,0,0,0,7.068,17.534,40.007,40.007,0,0,1,4.465,11.832,7.792,7.792,0,0,1,2.081.255,15.628,15.628,0,0,0-4.429-15.543c-.893-.835-.938-1.206-.491-1.188a22.384,22.384,0,0,1,6.7,10.8,13.333,13.333,0,0,1,.076,6.537c.272.107.554.228.835.357C69.673,60.886,71.231,62.6,70.485,64.941ZM49.173,18.865a6.832,6.832,0,0,1-.621,3,5.93,5.93,0,0,1-.893,1.4c-.116-.054-.237-.1-.362-.152-.447-.179-.813-.326-1.156-.447s-.607-.21-.893-.3c.2-.237.594-.509.737-.853a4.255,4.255,0,0,0,.353-1.63v-.076a4.309,4.309,0,0,0-.241-1.581A2.88,2.88,0,0,0,45.338,17a1.567,1.567,0,0,0-1.081-.478h-.036a1.639,1.639,0,0,0-1.054.4,2.911,2.911,0,0,0-.848,1.179,4.385,4.385,0,0,0-.353,1.634v.071a5.072,5.072,0,0,0,.071.938,12.583,12.583,0,0,0-2.469-.808,8.59,8.59,0,0,1-.071-.893v-.085a6.8,6.8,0,0,1,.616-3,5.358,5.358,0,0,1,1.746-2.233,3.929,3.929,0,0,1,2.407-.826h.045a3.938,3.938,0,0,1,2.38.781,5.278,5.278,0,0,1,1.786,2.179,6.7,6.7,0,0,1,.674,2.907.241.241,0,0,0,0,.08Zm-13.163,1.1-.339.1a6.907,6.907,0,0,0-1.594.741,4.2,4.2,0,0,0,0-1v-.058a4.4,4.4,0,0,0-.33-1.286,2.474,2.474,0,0,0-.674-.951,1.116,1.116,0,0,0-.746-.3h-.08a1.067,1.067,0,0,0-.768.447,2.393,2.393,0,0,0-.487,1.045,3.983,3.983,0,0,0-.094,1.38v.054a3.956,3.956,0,0,0,.33,1.295,2.411,2.411,0,0,0,.674.947,1.583,1.583,0,0,0,.138.1c-.286.214-.478.366-.714.531l-.54.38a4.688,4.688,0,0,1-1.121-1.607,6.881,6.881,0,0,1-.621-2.559h0a6.836,6.836,0,0,1,.313-2.617,4.394,4.394,0,0,1,1.161-1.96,2.5,2.5,0,0,1,1.7-.79h.147a2.55,2.55,0,0,1,1.634.6,4.563,4.563,0,0,1,1.384,1.822A6.859,6.859,0,0,1,36,18.834h0a8.077,8.077,0,0,1,0,1.139Z" transform="translate(218.997 1569.049)" fill="#fff"/><path d="M33.005,21.424a13.842,13.842,0,0,1-6.05,1.974,8.511,8.511,0,0,1-5.2-1.938c-.625-.478-1.134-.951-1.518-1.3-.665-.5-.585-1.215-.313-1.192.447.054.527.634.817.893.388.353.893.808,1.469,1.264a7.774,7.774,0,0,0,4.742,1.786,13.4,13.4,0,0,0,5.684-1.875,30.308,30.308,0,0,0,2.634-1.786c.634-.447.612-.987,1.134-.929s.134.6-.6,1.215A15.824,15.824,0,0,1,33.005,21.424Zm-4.4-6.211c.076.228.447.192.674.3s.348.3.563.313.527-.071.554-.268-.357-.424-.612-.522a1.34,1.34,0,0,0-1.054,0c-.071.036-.147.125-.125.2Zm-2.233,0c-.071.228-.447.192-.67.3s-.348.3-.563.313-.531-.071-.558-.268.362-.424.616-.522a1.34,1.34,0,0,1,1.054,0c.067.036.147.125.121.2Z" transform="translate(229.321 1576.072)" fill="#20201f"/></g></g></svg>