<svg xmlns="http://www.w3.org/2000/svg" viewBox="0 0 117.09 103.87"><defs><style>.cls-1{fill:#ef937b;}.cls-2{fill:#ed4a35;}.cls-3{fill:#ff7855;}.cls-4{fill:#ff562b;}.cls-5{fill:#fff;}.cls-6{fill:#ffeac3;}</style></defs><g id="Camada_2" data-name="Camada 2"><g id="Camada_1-2" data-name="Camada 1"><path class="cls-1" d="M88.18,0H20.31C14.06,0,9,11.19,9,25V35c0,2.76,1,5,2.26,5H30.63c1,0,1.82,1.35,2.15,3.36l2.46,16.49C36.19,65.9,38.77,70,41.67,70H97.23c1.25,0,2.27-2.24,2.27-5V25C99.49,11.19,94.43,0,88.18,0Z"/><path class="cls-2" d="M101.71,26.47h-60a2.4,2.4,0,0,1-2.15-1.85l-2.46-9c-1-3.32-3.53-5.55-6.42-5.57H6.78C3,10,0,13.69,0,18.23A93.65,93.65,0,0,0,2.67,40.54l9,36.52c1.44,5.81,5.85,9.8,10.85,9.79H86.39c4.72,0,9-3.54,10.61-8.92l9.77-31.63a40,40,0,0,0,1.72-11.6C108.49,30.15,105.45,26.47,101.71,26.47Z"/><path class="cls-3" d="M50.25,70.45a33.43,33.43,0,0,0,33.42,33.42l2.91-33.42L83.67,37A33.42,33.42,0,0,0,50.25,70.45Z"/><path class="cls-4" d="M83.67,37v66.84a33.42,33.42,0,0,0,0-66.84Z"/><polygon class="cls-5" points="71.34 51.95 65.18 58.12 77.51 70.45 65.18 82.78 71.34 88.94 83.67 76.61 86.58 70.45 83.67 64.28 71.34 51.95"/><polygon class="cls-6" points="102.17 58.12 96 51.95 83.67 64.28 83.67 76.61 96 88.94 102.17 82.78 89.84 70.45 102.17 58.12"/></g></g></svg>