<svg xmlns="http://www.w3.org/2000/svg" viewBox="0 0 111.86 98.4"><defs><style>.cls-1{fill:#81cde2;}.cls-2{fill:#63a7b7;}.cls-3{fill:#153959;}</style></defs><g id="Camada_2" data-name="Camada 2"><g id="Camada_1-2" data-name="Camada 1"><path class="cls-1" d="M88.3,0H20.4C14.2,0,9.1,11.2,9.1,25V35c0,2.8,1,5,2.3,5H30.8c1,0,1.8,1.4,2.2,3.4l2.5,16.5c1,6,3.5,10.1,6.4,10.1H97.5c1.2,0,2.3-2.2,2.3-5V25C99.6,11.2,94.5,0,88.3,0Z"/><path class="cls-2" d="M101.8,26.5h-60a2.58,2.58,0,0,1-2.2-1.8l-2.5-9c-1-3.3-3.5-5.6-6.4-5.6H6.8C3,10,0,13.7,0,18.3A93.21,93.21,0,0,0,2.7,40.6l9,36.5c1.4,5.8,5.9,9.8,10.9,9.8H86.5c4.7,0,9-3.5,10.6-8.9l9.8-31.6a41.75,41.75,0,0,0,1.7-11.6C108.6,30.1,105.5,26.5,101.8,26.5Z"/><path class="cls-3" d="M95.56,98.4a35.45,35.45,0,0,0,7.54-.62,9.69,9.69,0,0,0,8.14-8.14,35.45,35.45,0,0,0,.62-7.54V75a4.67,4.67,0,0,0-4.67-4.67H88.49A4.67,4.67,0,0,0,83.82,75v18.7a4.67,4.67,0,0,0,4.67,4.67Z"/><path class="cls-3" d="M65.12,82.1a35.45,35.45,0,0,0,.62,7.54,9.72,9.72,0,0,0,8.14,8.14l.62.13a4.06,4.06,0,0,0,4.64-4.24V75a4.67,4.67,0,0,0-4.67-4.67H69.79A4.67,4.67,0,0,0,65.12,75Z"/><path class="cls-3" d="M81.42,51.66a35.45,35.45,0,0,0-7.54.62,9.72,9.72,0,0,0-8.14,8.14c0,.18-.07.35-.11.53a4.13,4.13,0,0,0,4.3,4.73h37.2A4.06,4.06,0,0,0,111.37,61c0-.21-.08-.41-.13-.62a9.69,9.69,0,0,0-8.14-8.14,35.45,35.45,0,0,0-7.54-.62Z"/></g></g></svg>