<svg xmlns="http://www.w3.org/2000/svg" xmlns:xlink="http://www.w3.org/1999/xlink" width="115.84" height="101.123" viewBox="0 0 115.84 101.123"><defs><linearGradient id="a" x1="-244.515" y1="45.04" x2="-246.887" y2="45.042" gradientUnits="objectBoundingBox"><stop offset="0.231" stop-color="#999875"/><stop offset="0.563" stop-color="#9b9977"/><stop offset="0.683" stop-color="#a09f7e"/><stop offset="0.768" stop-color="#a9a889"/><stop offset="0.837" stop-color="#b7b69a"/><stop offset="0.896" stop-color="#c9c7b0"/><stop offset="0.948" stop-color="#deddcb"/><stop offset="0.994" stop-color="#f8f6eb"/><stop offset="1" stop-color="#fbf9ef"/></linearGradient><linearGradient id="b" x1="-142.274" y1="44.946" x2="-144.258" y2="45.856" gradientUnits="objectBoundingBox"><stop offset="0" stop-color="#48a547"/><stop offset="1" stop-color="#3f9143"/></linearGradient><linearGradient id="c" x1="-138.764" y1="45.031" x2="-140.147" y2="44.784" gradientUnits="objectBoundingBox"><stop offset="0" stop-color="#41a247"/><stop offset="0.352" stop-color="#4ba74b"/><stop offset="0.956" stop-color="#67b554"/><stop offset="1" stop-color="#69b655"/></linearGradient></defs><g transform="translate(1256 -2443)"><path d="M117.206,53.334H33.653a12.257,12.257,0,0,0-12.17,13.885,2.457,2.457,0,0,0,3.681,1.8,6.96,6.96,0,0,1,3.573-.944h17.5a7.412,7.412,0,0,1,6.989,5l.418,1.347a12.346,12.346,0,0,0,11.656,8.4h56.816a7.372,7.372,0,0,1,3.671.983,2.462,2.462,0,0,0,3.7-2.123V65.621a12.287,12.287,0,0,0-12.281-12.287Z" transform="translate(-1277 2389.735)" fill="#dcb67a"/><g transform="translate(-1290 2208.51)"><g transform="translate(16 -18)"><path d="M102.856,111.089a11.235,11.235,0,0,0-5.664-1.528H44.934a6.817,6.817,0,0,1-6.428-4.6l-.384-1.239A11.355,11.355,0,0,0,27.4,96H11.3a10.816,10.816,0,0,0-5.533,1.46A11.274,11.274,0,0,0,0,107.3v54.247a11.3,11.3,0,0,0,11.3,11.3H97.192a11.3,11.3,0,0,0,11.3-11.3V120.862A11.224,11.224,0,0,0,102.856,111.089Z" transform="translate(18 156.49)" fill="#c09553"/></g></g><g transform="translate(48 222)"><path d="M31.084,76.132l-1.947-.647s.249-9.859-3.306-10.548c-2.345-2.718.346-116.045,8.877-.387A7.031,7.031,0,0,0,31.25,68.5a36.571,36.571,0,0,0-.166,7.632Z" transform="translate(-1233.96 2245.991)" fill="url(#a)"/><path d="M29.2,72.967a34.3,34.3,0,0,0,12.961-34.3c-3.8-16.821-12.833-22.351-13.805-24.46a25.318,25.318,0,0,1-2.141-4.15l.719,46.866S25.445,71.242,29.2,72.967Z" transform="translate(-1231.025 2239.635)" fill="url(#b)"/><path d="M36.584,73.725S20.707,62.911,21.627,43.784A40.309,40.309,0,0,1,35.941,13.572,4.5,4.5,0,0,0,37.514,10c.989,2.127.827,31.754.93,35.219C38.849,58.7,37.7,71.18,36.584,73.725Z" transform="translate(-1242.4 2239.5)" fill="url(#c)"/></g></g></svg>