<svg xmlns="http://www.w3.org/2000/svg" viewBox="0 0 125.87 86.43"><defs><style>.cls-1{fill:#6cf;}.cls-2{fill:#69c;}.cls-3{fill:#0cf;}</style></defs><g id="Camada_2" data-name="Camada 2"><g id="Camada_1-2" data-name="Camada 1"><path class="cls-1" d="M96.21,1.07H12.65A12.27,12.27,0,0,0,.37,13.3,12.82,12.82,0,0,0,.48,15a2.46,2.46,0,0,0,2.76,2.12,2.35,2.35,0,0,0,.92-.32,7,7,0,0,1,3.58-.94h17.5a7.43,7.43,0,0,1,7,5l.41,1.35a12.36,12.36,0,0,0,11.66,8.4h56.82a7.42,7.42,0,0,1,3.67,1,2.45,2.45,0,0,0,3.36-.89,2.42,2.42,0,0,0,.34-1.23V13.36A12.28,12.28,0,0,0,96.21,1.07Z"/><path class="cls-2" d="M102.86,15.09a11.29,11.29,0,0,0-5.67-1.53H44.93A6.8,6.8,0,0,1,38.51,9l-.39-1.24A11.35,11.35,0,0,0,27.4,0H11.3A10.84,10.84,0,0,0,5.77,1.46,11.26,11.26,0,0,0,0,11.3V65.55a11.3,11.3,0,0,0,11.3,11.3H97.19a11.3,11.3,0,0,0,11.3-11.3h0V24.86A11.22,11.22,0,0,0,102.86,15.09Z"/><path class="cls-3" d="M60,86.17a3.23,3.23,0,0,1-1.52-1.43l-.35-.59V34.76l.4-.71a3,3,0,0,1,2.1-1.57c.5-.11,9.36-.14,31.82-.11l31.12,0,.55.29a3.83,3.83,0,0,1,1,.78c.87,1,.81-.8.78,26.18l0,24.49-.29.54a3.76,3.76,0,0,1-1.88,1.6c-.39.11-8.44.15-31.83.14-30.86,0-31.32,0-31.83-.26ZM96.46,76.05c2.43-.57,2.69-.66,2.69-.9s-.09-1.07-.2-2c-.27-2.5-.27-2.51.21-2.79.22-.13.76-.53,1.2-.88l.79-.65,2.15.86c1.74.7,2.17.83,2.3.69a39,39,0,0,0,2.89-4.79L106.55,64c-1.82-1.44-1.82-1.44-1.74-1.89,0-.26.13-.89.18-1.41a3.15,3.15,0,0,1,.22-1.06c.07-.07,1-.48,2.12-.93s2-.85,2.11-.91a46.79,46.79,0,0,0-1.23-5.47,10.2,10.2,0,0,0-2.14.12c-2.95.34-2.83.35-3.26-.31-.21-.3-.6-.82-.88-1.15l-.5-.6.92-2.2c.51-1.21.91-2.21.89-2.22-.27-.19-4.88-2.94-4.92-2.94s-.77.86-1.63,1.9c-1.06,1.29-1.63,1.88-1.76,1.83a17.35,17.35,0,0,0-2.56-.36l-.59,0-1-2.06c-.52-1.13-1-2.09-1-2.13s-5.56,1.33-5.63,1.42.12,1,.29,2.18.31,2.26.31,2.38-.22.35-.49.52a8.42,8.42,0,0,0-1.06.8l-.56.51-2.15-.87c-1.77-.72-2.18-.84-2.32-.7s-.79,1.19-1.57,2.43l-1.4,2.25L77,54.51,78.84,56a3,3,0,0,1-.1,1.17,11.76,11.76,0,0,0-.2,1.56v.48l-2,.82c-1.12.46-2.08.87-2.13.92a53.44,53.44,0,0,0,1.26,5.57s1-.08,2.23-.21,2.26-.25,2.35-.25.35.3.58.68A10.07,10.07,0,0,0,81.74,68a2.93,2.93,0,0,1,.52.65c0,.06-.36,1-.8,2a21.08,21.08,0,0,0-.8,2,14.76,14.76,0,0,0,2.43,1.63l2.42,1.47.5-.57c.28-.32.94-1.12,1.47-1.79l1-1.21.74.08c.4,0,1.14.13,1.64.17l.9.08.89,2.13a9.65,9.65,0,0,0,1,2.07L96.46,76Zm-6.52-8.76a8.17,8.17,0,0,1-6.26-7.77,7,7,0,0,1,.86-3.74,8.19,8.19,0,0,1,4.66-4.07,9.75,9.75,0,0,1,4.64-.24,8.46,8.46,0,0,1,5.43,4.26,7.6,7.6,0,0,1,0,7.32,8.37,8.37,0,0,1-5.39,4.24,10.44,10.44,0,0,1-3.94,0ZM93.35,62a2.88,2.88,0,0,0-.06-5.11A2.94,2.94,0,0,0,89,59.92a3.27,3.27,0,0,0,1.51,2,3.52,3.52,0,0,0,2.86,0Z"/></g></g></svg>