<svg xmlns="http://www.w3.org/2000/svg" width="114" height="100.012" viewBox="0 0 114 100.012"><defs><style>.a{fill:#ffa000;}.b{fill:#ffc107;}.c{fill:#c09553;}</style></defs><g transform="translate(-53 -317.488)"><path class="a" d="M117.206,53.334H33.653A12.257,12.257,0,0,0,21.483,67.219a2.457,2.457,0,0,0,3.681,1.8,6.96,6.96,0,0,1,3.573-.944h17.5a7.412,7.412,0,0,1,6.989,5l.418,1.347A12.346,12.346,0,0,0,65.3,82.823h56.816a7.372,7.372,0,0,1,3.671.983,2.462,2.462,0,0,0,3.7-2.123V65.621A12.287,12.287,0,0,0,117.206,53.334Z" transform="translate(32 264.225)"/><path class="b" d="M102.856,111.089a11.235,11.235,0,0,0-5.664-1.528H44.934a6.817,6.817,0,0,1-6.428-4.6l-.384-1.239A11.355,11.355,0,0,0,27.395,96H11.3a10.816,10.816,0,0,0-5.533,1.46A11.274,11.274,0,0,0,0,107.3v54.247a11.3,11.3,0,0,0,11.3,11.3H97.192a11.3,11.3,0,0,0,11.3-11.3V120.862A11.224,11.224,0,0,0,102.856,111.089Z" transform="translate(53 221.49)"/><g transform="translate(-25 -226.731)"><path class="c" d="M22.578,30.405a55.716,55.716,0,0,0,19.584,3.142,55.716,55.716,0,0,0,19.584-3.16c4.915-1.913,6.65-4.041,6.65-5.266V15.775a27.273,27.273,0,0,1-5.488,2.833,58.7,58.7,0,0,1-20.747,3.43,58.879,58.879,0,0,1-20.747-3.423,27.069,27.069,0,0,1-5.488-2.84v9.35C15.928,26.371,17.673,28.5,22.578,30.405Z" transform="translate(123.6 575.001)"/><path class="c" d="M22.56,35.131a41.107,41.107,0,0,0,6.846,1.952,68.7,68.7,0,0,0,25.479,0,41.117,41.117,0,0,0,6.846-1.952c4.915-1.913,6.65-4.041,6.65-5.267V20.939a28.188,28.188,0,0,1-4.455,2.173,61.853,61.853,0,0,1-21.768,3.536A61.857,61.857,0,0,1,20.391,23.1a28.517,28.517,0,0,1-4.455-2.173v8.936C15.911,31.089,17.656,33.206,22.56,35.131Z" transform="translate(123.617 587.933)"/><path class="c" d="M42.147,43.676c14.483,0,26.234-4.592,26.234-10.256V25.952a27.649,27.649,0,0,1-4.041,2l-.414.165a61.846,61.846,0,0,1-21.768,3.557,61.674,61.674,0,0,1-21.768-3.557c-.14-.053-.277-.112-.414-.165a27.649,27.649,0,0,1-4.041-2v7.471C15.913,39.083,27.664,43.676,42.147,43.676Z" transform="translate(123.615 600.556)"/><ellipse class="c" cx="26.234" cy="10.256" rx="26.234" ry="10.256" transform="translate(139.528 570.5)"/></g></g></svg>