<svg xmlns="http://www.w3.org/2000/svg" viewBox="0 0 118.4 111.49"><defs><style>.cls-1{fill:#7ba2db;}.cls-2{fill:#5576bf;}.cls-3{fill:#3d66b8;stroke:#a1aace;stroke-miterlimit:133.33;stroke-width:10px;}</style></defs><g id="Camada_2" data-name="Camada 2"><g id="Camada_1-2" data-name="Camada 1"><path class="cls-1" d="M88.3,0H20.4C14.2,0,9.1,11.2,9.1,25V35c0,2.8,1,5,2.3,5H30.8c1,0,1.8,1.4,2.2,3.4l2.5,16.5c1,6,3.5,10.1,6.4,10.1H97.5c1.2,0,2.3-2.2,2.3-5V25C99.6,11.2,94.5,0,88.3,0Z"/><path class="cls-2" d="M101.8,26.5h-60a2.58,2.58,0,0,1-2.2-1.8l-2.5-9c-1-3.3-3.5-5.6-6.4-5.6H6.8C3,10,0,13.7,0,18.3A93.21,93.21,0,0,0,2.7,40.6l9,36.5c1.4,5.8,5.9,9.8,10.9,9.8H86.5c4.7,0,9-3.5,10.6-8.9l9.8-31.6a41.75,41.75,0,0,0,1.7-11.6C108.6,30.1,105.5,26.5,101.8,26.5Z"/><g id="SVGRepo_iconCarrier" data-name="SVGRepo iconCarrier"><path class="cls-3" d="M62.7,96l6.85,6.85a12.66,12.66,0,0,0,17.82,0L94.22,96a3.52,3.52,0,0,0,0-5L80.9,77.69a3.48,3.48,0,0,0-4.92,0L62.66,91A3.56,3.56,0,0,0,62.7,96Z"/><path class="cls-3" d="M102.88,87.3l6.85-6.85a12.66,12.66,0,0,0,0-17.82l-6.85-6.85a3.49,3.49,0,0,0-4.93,0L84.64,69.09a3.49,3.49,0,0,0,0,4.93L97.92,87.3A3.52,3.52,0,0,0,102.88,87.3Z"/><path class="cls-3" d="M47.19,80.45,54,87.3a3.48,3.48,0,0,0,4.92,0L72.28,74a3.48,3.48,0,0,0,0-4.92L59,55.75a3.46,3.46,0,0,0-4.92,0l-6.85,6.84A12.71,12.71,0,0,0,47.19,80.45Z"/><path class="cls-3" d="M94.22,47.12l-6.85-6.84a12.64,12.64,0,0,0-17.82,0L62.7,47.12a3.49,3.49,0,0,0,0,4.93L76,65.36a3.47,3.47,0,0,0,4.93,0L94.25,52.05A3.52,3.52,0,0,0,94.22,47.12Z"/></g></g></g></svg>