<svg xmlns="http://www.w3.org/2000/svg" width="72.9" height="62.477" viewBox="0 0 72.9 62.477"><path d="M49.65,13a2.343,2.343,0,0,0-1.482.6L28.381,30.058a3.017,3.017,0,0,1-2.486.854H13.145A3.124,3.124,0,0,0,10,34.016s0,.028,0,.042V54.434a3.124,3.124,0,0,0,3.124,3.124H25.9a3.017,3.017,0,0,1,2.485.854L48.171,74.867c1.357,1.128,2.815.583,2.815-.753V14.357A1.288,1.288,0,0,0,49.758,13Zm25.438,5.988-4.662,4.669a38.293,38.293,0,0,1,0,41.25l4.648,4.624a44.756,44.756,0,0,0,.014-50.547ZM63.806,30.239,59.221,34.87a15.711,15.711,0,0,1,0,18.843l4.586,4.568a22.272,22.272,0,0,0,.028-28.038Z" transform="translate(-10 -13)" fill="#55bbbf"/></svg>