<svg xmlns="http://www.w3.org/2000/svg" viewBox="0 0 112.89 87.54"><defs><style>.cls-1{fill:#c1bfbc;}.cls-2{fill:#edeae6;}.cls-3{fill:#e76f00;}.cls-4{fill:#5382a1;}</style></defs><g id="Camada_2" data-name="Camada 2"><g id="Camada_1-2" data-name="Camada 1"><path class="cls-1" d="M96.3,1H12.7A12.27,12.27,0,0,0,.4,13.2a8.08,8.08,0,0,0,.1,1.6,2.49,2.49,0,0,0,2.8,2.1,3.18,3.18,0,0,0,.9-.3,6.44,6.44,0,0,1,3.6-.9H25.3a7.33,7.33,0,0,1,7,5l.4,1.3a12.38,12.38,0,0,0,11.7,8.4h56.8a6.86,6.86,0,0,1,3.7,1,2.47,2.47,0,0,0,3.4-.9,2.66,2.66,0,0,0,.3-1.2V13.2A12.4,12.4,0,0,0,96.3,1Z"/><path class="cls-2" d="M102.9,15a11.29,11.29,0,0,0-5.7-1.5H44.9a6.79,6.79,0,0,1-6.4-4.6l-.4-1.2A11.39,11.39,0,0,0,27.4,0H11.3A10.58,10.58,0,0,0,5.8,1.5,11.27,11.27,0,0,0,0,11.3V65.5A11.35,11.35,0,0,0,11.3,76.8H97.2a11.35,11.35,0,0,0,11.3-11.3h0V24.8A11.2,11.2,0,0,0,102.9,15Z"/><path class="cls-3" d="M85.74,34C100.71,22.39,93,14.84,93,14.84c1.14,12-12.37,14.85-16,23.1-2.48,5.63,1.69,10.57,8.69,16.78a25.42,25.42,0,0,0-2.54-4.07C79.89,46,76.46,41.22,85.74,34Z"/><path class="cls-3" d="M88.13,57.27s4.5-3.63.94-7.67C77,35.9,102.29,29.69,102.29,29.69,86.83,37.13,89.14,41.55,93,46.92,97.18,52.67,88.13,57.27,88.13,57.27Z"/><path class="cls-4" d="M101.39,68.1c13.87-7.08,7.45-13.89,3-13a11.38,11.38,0,0,0-1.59.42,2.52,2.52,0,0,1,1.19-.9c8.85-3.06,15.66,9-2.86,13.82A1.3,1.3,0,0,0,101.39,68.1Z"/><path class="cls-4" d="M72.52,59.13c-8.68-1.14,4.76-4.27,4.76-4.27a25.72,25.72,0,0,0-11.63,2.7c-7.59,3.61,18.77,5.25,32.41,1.72a24.21,24.21,0,0,1,3.38-1.78s-5.58,1-11.14,1.45C83.49,59.51,76.19,59.62,72.52,59.13Z"/><path class="cls-4" d="M75.83,65.9c-4.84-.49-1.68-2.8-1.68-2.8-12.52,4.09,7,8.73,24.47,3.69a8.7,8.7,0,0,1-3-1.82A60.53,60.53,0,0,1,75.83,65.9Z"/><path class="cls-4" d="M77.93,73.22c-4.83-.54-2-2.16-2-2.16-11.36,3.13,6.92,9.58,21.39,3.48a27.53,27.53,0,0,1-4.07-2A43,43,0,0,1,77.93,73.22Z"/><path class="cls-4" d="M108.21,77s2.09,1.69-2.31,3c-8.35,2.49-34.77,3.24-42.11.1-2.63-1.12,2.31-2.69,3.87-3a9.89,9.89,0,0,1,2.55-.28c-2.93-2-19,4-8.14,5.71C91.58,87.17,115.86,80.35,108.21,77Z"/><path class="cls-4" d="M112.89,80.65c-.48,6.2-20.93,7.5-34.24,6.66C70,86.76,68.22,85.4,68.19,85.38a111.69,111.69,0,0,0,33.7-.51C112,83,112.89,80.65,112.89,80.65Z"/></g></g></svg>