<svg xmlns="http://www.w3.org/2000/svg" width="119" height="101.512" viewBox="0 0 119 101.512"><defs><style>.a{fill:#bfb555;}.b{fill:#f5de19;}</style></defs><g transform="translate(-35 -297.488)"><g transform="translate(1 63)"><g transform="translate(16 -18)"><path class="a" d="M102.856,111.089a11.235,11.235,0,0,0-5.664-1.528H44.934a6.817,6.817,0,0,1-6.428-4.6l-.384-1.239A11.355,11.355,0,0,0,27.395,96H11.3a10.816,10.816,0,0,0-5.533,1.46A11.274,11.274,0,0,0,0,107.3v54.247a11.3,11.3,0,0,0,11.3,11.3H97.192a11.3,11.3,0,0,0,11.3-11.3V120.862A11.224,11.224,0,0,0,102.856,111.089Z" transform="translate(18 156.49)"/></g></g><g transform="translate(88 333)"><rect class="b" width="64" height="64" transform="translate(2 2)"/><path d="M35.418,35.6a6.527,6.527,0,0,0,5.921,3.644c2.482,0,4.07-1.241,4.07-2.961,0-2.05-1.631-2.783-4.363-3.979l-1.5-.642c-4.327-1.842-7.2-4.149-7.2-9.028,0-4.493,3.416-7.916,8.775-7.916a8.857,8.857,0,0,1,8.522,4.8l-4.685,2.995a4.074,4.074,0,0,0-3.846-2.569,2.608,2.608,0,0,0-2.867,2.569c0,1.8,1.114,2.526,3.685,3.644l1.5.642c5.092,2.184,7.971,4.409,7.971,9.412,0,5.4-4.238,8.351-9.929,8.351a11.512,11.512,0,0,1-10.92-6.128Zm-21.168.519c.941,1.669,1.8,3.081,3.856,3.081,1.968,0,3.211-.77,3.211-3.765V15.061h5.992V35.516c0,6.2-3.644,9.028-8.948,9.028a9.3,9.3,0,0,1-8.989-5.466Z" transform="translate(9.417 16.217)"/></g></g></svg>