<svg xmlns="http://www.w3.org/2000/svg" width="108.489" height="100.142" viewBox="0 0 108.489 100.142"><g transform="translate(1105 -2721)"><path d="M121.846,74.667H53.978c-6.247,0-11.311,11.193-11.311,25v10c0,2.762,1.013,5,2.262,5H64.294c.965.01,1.824,1.352,2.149,3.36l2.466,16.491c.951,6.052,3.526,10.12,6.425,10.15H130.9c1.249,0,2.262-2.239,2.262-5v-40C133.157,85.86,128.093,74.667,121.846,74.667Z" transform="translate(-1138.667 2646.333)" fill="#9b9b9b"/><path d="M101.709,155.135H41.678a2.4,2.4,0,0,1-2.147-1.844l-2.464-9.052c-.952-3.321-3.523-5.553-6.419-5.572H6.781C3.036,138.667,0,142.353,0,146.9a93.392,93.392,0,0,0,2.672,22.308l9.041,36.515c1.432,5.819,5.843,9.8,10.845,9.793H86.385c4.728.016,8.964-3.542,10.618-8.92l9.764-31.629a39.708,39.708,0,0,0,1.722-11.6C108.49,158.821,105.454,155.135,101.709,155.135Z" transform="translate(-1105 2592.333)" fill="#686868"/><g transform="translate(78 570)"><path d="M61.642,28.867h0v-.022l-5.976-4.773a2.643,2.643,0,0,1-.209-.366,5.277,5.277,0,0,0-1.579-1.8,7.788,7.788,0,0,0-2.393-1.171l-2.754-2.2c-1.967-1.566-3.935-3.145-5.9-4.707-.14-.1-.192-.3-.278-.457a5.277,5.277,0,0,0-1.579-1.8A8.688,8.688,0,0,0,36.111,10h-.536A8.71,8.71,0,0,0,30.7,11.547,5.356,5.356,0,0,0,29.125,13.3c-.081.145-.138.31-.229.448a2.924,2.924,0,0,1-.33.275l-5.656,4.508-2.759,2.213a7.835,7.835,0,0,0-2.358,1.151,5.356,5.356,0,0,0-1.571,1.748c-.074.13-.13.278-.207.406L10,28.842v.017h0L22.913,39.17v.022h0L35.821,49.5,48.729,39.2v-.03Zm-6.62,2.474a6.441,6.441,0,0,1-2.245,1.785,9.18,9.18,0,0,1-4.043.9,9.02,9.02,0,0,1-3.9-.824,6.059,6.059,0,0,1-2.749-2.4,3.935,3.935,0,0,1-.529-2.056c0-.9-.025-1.793.017-2.685.091.219.108.472.2.693a5.164,5.164,0,0,0,2.048,2.511,8.993,8.993,0,0,0,4.918,1.414,9.116,9.116,0,0,0,4.82-1.35,5.727,5.727,0,0,0,1.721-1.721,4.3,4.3,0,0,0,.588-1.576,3.345,3.345,0,0,1,.027.671v2.24A4.1,4.1,0,0,1,55.022,31.34ZM28.662,15.727c.091.219.108.472.2.693a5.164,5.164,0,0,0,2.048,2.511,8.993,8.993,0,0,0,4.918,1.414A9.116,9.116,0,0,0,40.648,19a5.727,5.727,0,0,0,1.721-1.721,4.3,4.3,0,0,0,.588-1.576,3.344,3.344,0,0,1,.027.671c0,.738,0,1.493,0,2.24a4.1,4.1,0,0,1-.878,2.408A6.441,6.441,0,0,1,39.861,22.8a9.18,9.18,0,0,1-4.043.9,9.02,9.02,0,0,1-3.9-.824,6.059,6.059,0,0,1-2.749-2.4,3.935,3.935,0,0,1-.529-2.056C28.655,17.518,28.618,16.62,28.662,15.727Zm-5.749,18.3a9.02,9.02,0,0,1-3.9-.824,6.059,6.059,0,0,1-2.749-2.4,3.935,3.935,0,0,1-.529-2.056c0-.9-.025-1.793.017-2.685.091.219.108.472.2.693A5.164,5.164,0,0,0,18,29.265a8.993,8.993,0,0,0,4.918,1.414,9.116,9.116,0,0,0,4.82-1.35,5.727,5.727,0,0,0,1.721-1.721,4.3,4.3,0,0,0,.588-1.576,3.345,3.345,0,0,1,.027.671c0,.738,0,1.493,0,2.24a4.1,4.1,0,0,1-.878,2.408,6.44,6.44,0,0,1-2.245,1.785,9.18,9.18,0,0,1-4.035.888Zm19.2,7.65a6.441,6.441,0,0,1-2.245,1.785,9.18,9.18,0,0,1-4.043.9,9.02,9.02,0,0,1-3.9-.824,6.059,6.059,0,0,1-2.749-2.4,3.935,3.935,0,0,1-.529-2.056c0-.9-.025-1.793.017-2.685.091.219.108.472.2.693A5.164,5.164,0,0,0,30.908,39.6a8.993,8.993,0,0,0,4.918,1.414,9.116,9.116,0,0,0,4.82-1.35,5.727,5.727,0,0,0,1.721-1.721,4.3,4.3,0,0,0,.588-1.576,3.345,3.345,0,0,1,.027.671v2.24a4.1,4.1,0,0,1-.871,2.4Z" transform="translate(-1138.4 2189.5)" fill="#f1c40f"/><path d="M24.538,19.415a6.441,6.441,0,0,0,2.245-1.785,4.1,4.1,0,0,0,.878-2.408v-2.24a3.344,3.344,0,0,0-.027-.671,4.3,4.3,0,0,1-.588,1.576,5.727,5.727,0,0,1-1.721,1.721,9.116,9.116,0,0,1-4.82,1.35q0,1.671,0,3.344a9.18,9.18,0,0,0,4.033-.888Z" transform="translate(-1123.072 2192.872)" fill="#f39c12"/><path d="M19.288,23.615a6.441,6.441,0,0,0,2.245-1.785,4.1,4.1,0,0,0,.878-2.408v-2.24a3.345,3.345,0,0,0-.027-.671,4.3,4.3,0,0,1-.588,1.576,5.727,5.727,0,0,1-1.721,1.721,9.116,9.116,0,0,1-4.82,1.35q0,1.671,0,3.344a9.18,9.18,0,0,0,4.033-.888Z" transform="translate(-1130.732 2199)" fill="#f39c12"/><path d="M32.884,16.515a4.3,4.3,0,0,1-.588,1.576,5.727,5.727,0,0,1-1.721,1.721,9.116,9.116,0,0,1-4.82,1.35v3.344a9.18,9.18,0,0,0,4.043-.9,6.441,6.441,0,0,0,2.245-1.785,4.1,4.1,0,0,0,.878-2.408c0-.738,0-1.493,0-2.24a3.345,3.345,0,0,0-.037-.662Z" transform="translate(-1115.411 2199.006)" fill="#f39c12"/><path d="M27.63,20.717a4.3,4.3,0,0,1-.588,1.576,5.727,5.727,0,0,1-1.721,1.721,9.116,9.116,0,0,1-4.82,1.35v3.344a9.18,9.18,0,0,0,4.043-.9,6.441,6.441,0,0,0,2.245-1.785,4.1,4.1,0,0,0,.878-2.407v-2.24a3.345,3.345,0,0,0-.037-.662Z" transform="translate(-1123.078 2205.138)" fill="#f39c12"/><path d="M20.5,38.308l0,12.138L46.321,29.8V17.673Z" transform="translate(-1123.079 2200.696)" fill="#f39c12"/><path d="M20.862,19.467a9.02,9.02,0,0,0,3.9.824V16.946a8.993,8.993,0,0,1-4.918-1.414A5.164,5.164,0,0,1,17.8,13.021c-.091-.221-.108-.475-.2-.693-.042.893,0,1.79-.017,2.685a3.935,3.935,0,0,0,.529,2.056A6.059,6.059,0,0,0,20.862,19.467Z" transform="translate(-1127.341 2192.897)" fill="#e67e22"/><path d="M14.6,19.735a5.164,5.164,0,0,1-2.048-2.511c-.091-.221-.108-.475-.2-.693-.042.893,0,1.79-.017,2.685a3.935,3.935,0,0,0,.529,2.056,6.059,6.059,0,0,0,2.749,2.4,9.02,9.02,0,0,0,3.9.824V21.149A8.993,8.993,0,0,1,14.6,19.735Z" transform="translate(-1135 2199.03)" fill="#e67e22"/><path d="M25.1,19.735a5.164,5.164,0,0,1-2.048-2.511c-.091-.221-.108-.475-.2-.693-.042.893,0,1.79-.017,2.685a3.935,3.935,0,0,0,.529,2.056,6.059,6.059,0,0,0,2.749,2.4,9.02,9.02,0,0,0,3.9.824V21.149A8.993,8.993,0,0,1,25.1,19.735Z" transform="translate(-1119.679 2199.03)" fill="#e67e22"/><path d="M19.845,23.937A5.164,5.164,0,0,1,17.8,21.426c-.091-.221-.108-.475-.2-.693-.042.893,0,1.79-.017,2.685a3.935,3.935,0,0,0,.529,2.056,6.059,6.059,0,0,0,2.749,2.4,9.02,9.02,0,0,0,3.9.824V25.351A8.993,8.993,0,0,1,19.845,23.937Z" transform="translate(-1127.342 2205.161)" fill="#e67e22"/><path d="M22.911,28h0V27.98L10,17.669V29.81c4.3,3.443,12.911,10.309,12.911,10.309v.025c4.3,3.448,12.911,10.309,12.911,10.309V38.314Z" transform="translate(-1138.4 2200.69)" fill="#e67e22"/></g></g></svg>