<svg xmlns="http://www.w3.org/2000/svg" xmlns:xlink="http://www.w3.org/1999/xlink" width="108.493" height="76.85" viewBox="0 0 108.493 76.85"><defs><style>.a{fill:#ffa000;}.b{fill:#ffc107;}.c{fill:url(#a);}.d{fill:url(#b);}.e{fill:url(#c);}.f{fill:url(#d);}</style><linearGradient id="a" x1="0.514" y1="0.751" x2="0.962" y2="0.233" gradientUnits="objectBoundingBox"><stop offset="0" stop-color="#1011a1"/><stop offset="1" stop-color="#6969e1"/></linearGradient><linearGradient id="b" x1="0.017" y1="0.366" x2="0.699" y2="0.944" gradientUnits="objectBoundingBox"><stop offset="0" stop-color="#b40e0e"/><stop offset="1" stop-color="#ff5959"/></linearGradient><linearGradient id="c" x1="0.705" y1="0.664" x2="0.223" y2="0.518" gradientUnits="objectBoundingBox"><stop offset="0" stop-color="#01a300"/><stop offset="1" stop-color="#01df00"/></linearGradient><linearGradient id="d" x1="0.501" y1="0.838" x2="0.476" y2="0.114" gradientUnits="objectBoundingBox"><stop offset="0" stop-color="#848484"/><stop offset="1" stop-color="#d2d2d2"/></linearGradient></defs><g transform="translate(-53 -317.488)"><path class="a" d="M117.206,53.334H33.653A12.257,12.257,0,0,0,21.483,67.219a2.457,2.457,0,0,0,3.681,1.8,6.96,6.96,0,0,1,3.573-.944h17.5a7.412,7.412,0,0,1,6.989,5l.418,1.347A12.346,12.346,0,0,0,65.3,82.823h56.816a7.372,7.372,0,0,1,3.671.983,2.462,2.462,0,0,0,3.7-2.123V65.621A12.287,12.287,0,0,0,117.206,53.334Z" transform="translate(32 264.225)"/><path class="b" d="M102.856,111.089a11.235,11.235,0,0,0-5.664-1.528H44.934a6.817,6.817,0,0,1-6.428-4.6l-.384-1.239A11.355,11.355,0,0,0,27.395,96H11.3a10.816,10.816,0,0,0-5.533,1.46A11.274,11.274,0,0,0,0,107.3v54.247a11.3,11.3,0,0,0,11.3,11.3H97.192a11.3,11.3,0,0,0,11.3-11.3V120.862A11.224,11.224,0,0,0,102.856,111.089Z" transform="translate(53 221.49)"/><g transform="translate(41 -282)"><path class="c" d="M39.543,38.842,10.062,64.032,37.077,10.091Z" transform="translate(48.22 605.262)"/><path d="M10.138,64.223l-.1-.075L37.158,10l.018.23,2.469,28.785-.023.021ZM37.055,10.468,10.3,63.918l29.212-24.96Z" transform="translate(48.185 605.117)"/><path class="d" d="M24.333,54.573,20.5,10.089,47.535,64.041Z" transform="translate(64.796 605.259)"/><path d="M47.715,64.18l-.158-.062L24.313,54.65v-.041l-3.838-44.5.122-.034Zm-23.28-9.633,23.008,9.387-26.81-53.5Z" transform="translate(64.757 605.241)"/><path class="e" d="M27.566,25.124l36.57,15.034H10.065Z" transform="translate(48.224 629.136)"/><path d="M64.239,40.261H10l.132-.114L27.656,25.1l.039.016,36.57,15.032Zm-53.9-.132H63.915L27.682,25.237Z" transform="translate(48.121 629.098)"/><path class="f" d="M16.849,31.367,28.754,21.216,30.411,36.89Z" transform="translate(58.998 622.666)"/><path d="M30.712,37.253l-.2-.085-13.758-5.6.16-.137L29.009,21.116l.026.246ZM17.253,31.484l13.166,5.363L28.812,21.631Z" transform="translate(58.847 622.771)"/><path d="M64.171,64.662H10.359a.5.5,0,0,1-.4-.194A.474.474,0,0,1,10,64.025L36.986,10.141a.378.378,0,0,1,.313-.215h0a.347.347,0,0,1,.29.207L64.57,63.994a.518.518,0,0,1,.041.481A.5.5,0,0,1,64.171,64.662Zm-53.851-.4H64.171a.419.419,0,0,0,.1,0,.362.362,0,0,0-.047-.093L37.3,10.4,10.354,64.191Z" transform="translate(48 605)"/></g></g></svg>