<svg xmlns="http://www.w3.org/2000/svg" viewBox="0 0 132.85 103.09"><defs><style>.cls-1{fill:#8e7552;}.cls-2{fill:#a08e80;}.cls-3{fill:#ffb13b;}</style></defs><g id="Camada_2" data-name="Camada 2"><g id="Camada_1-2" data-name="Camada 1"><path class="cls-1" d="M96.2,1.1H12.7A12.21,12.21,0,0,0,.4,13.3,9.7,9.7,0,0,0,.5,15a2.49,2.49,0,0,0,2.8,2.1h0a3.18,3.18,0,0,0,.9-.3,6.44,6.44,0,0,1,3.6-.9H25.3a7.33,7.33,0,0,1,7,5l.4,1.4a12.38,12.38,0,0,0,11.7,8.4h56.8a7.87,7.87,0,0,1,3.7,1,2.47,2.47,0,0,0,3.4-.9h0a2.66,2.66,0,0,0,.3-1.2V13.4A12.44,12.44,0,0,0,96.2,1.1Z"/><path class="cls-2" d="M102.9,15.1a11.29,11.29,0,0,0-5.7-1.5H44.9A6.66,6.66,0,0,1,38.5,9l-.4-1.2A11.16,11.16,0,0,0,27.4,0H11.3A10.58,10.58,0,0,0,5.8,1.5,11.15,11.15,0,0,0,0,11.3V65.6A11.35,11.35,0,0,0,11.3,76.9H97.2a11.35,11.35,0,0,0,11.3-11.3h0V24.9A11.17,11.17,0,0,0,102.9,15.1Z"/><path d="M129.7,72.3a10.85,10.85,0,0,0-7.6-18.5,13.55,13.55,0,0,0-2,.2,10.79,10.79,0,0,0-12.2-17.8,10.65,10.65,0,0,0-2.8,2.8,10.69,10.69,0,0,0-3-9.7A10.84,10.84,0,0,0,83.8,39,10.79,10.79,0,1,0,66,51.2,10.65,10.65,0,0,0,68.8,54a10.81,10.81,0,1,0-4.2,21.2,9.91,9.91,0,0,0,4.2,0A10.8,10.8,0,0,0,80.9,93.1a11.42,11.42,0,0,0,2.9-2.9,10.85,10.85,0,1,0,21.3,4.1,9.45,9.45,0,0,0,0-4.1A10.79,10.79,0,0,0,122.9,78a10.65,10.65,0,0,0-2.8-2.8,10.63,10.63,0,0,0,9.6-2.9"/><path class="cls-3" d="M126.5,60.2a6.28,6.28,0,0,0-8.8,0H105l9-9a6.2,6.2,0,1,0-6.2-6.2h0l-9,9V41.4a6.22,6.22,0,1,0-8.8,0V54.1l-9-9a6.2,6.2,0,1,0-6.2,6.2h0l9,9H71.2a6.22,6.22,0,1,0,0,8.8H83.9l-9,8.9a6.2,6.2,0,1,0,6.2,6.2l9-9V87.9a6.22,6.22,0,1,0,8.8,0V75.2l9,9a6.2,6.2,0,1,0,6.2-6.2h0l-9-8.9h12.7a6.28,6.28,0,0,0,8.8,0,6.5,6.5,0,0,0-.1-8.9h0"/></g></g></svg>