<svg xmlns="http://www.w3.org/2000/svg" width="123.479" height="108.729" viewBox="0 0 123.479 108.729"><g transform="translate(1495 -2723)"><path d="M121.846,74.667H53.978c-6.247,0-11.311,11.193-11.311,25v10c0,2.762,1.013,5,2.262,5H64.294c.965.01,1.824,1.352,2.149,3.36l2.466,16.491c.951,6.052,3.526,10.12,6.425,10.15H130.9c1.249,0,2.262-2.239,2.262-5v-40C133.157,85.86,128.093,74.667,121.846,74.667Z" transform="translate(-1528.667 2648.333)" fill="#9b9b9b"/><path d="M101.709,155.135H41.678a2.4,2.4,0,0,1-2.147-1.844l-2.464-9.052c-.952-3.321-3.523-5.553-6.419-5.572H6.781C3.036,138.667,0,142.353,0,146.9a93.392,93.392,0,0,0,2.672,22.308l9.041,36.515c1.432,5.819,5.843,9.8,10.845,9.793H86.385c4.728.016,8.964-3.542,10.618-8.92l9.764-31.629a39.708,39.708,0,0,0,1.722-11.6C108.49,158.821,105.454,155.135,101.709,155.135Z" transform="translate(-1495 2594.333)" fill="#686868"/><g transform="translate(-116 -38.388)"><path d="M84.879,14V74.617H10V14Z" transform="translate(-1340.4 2795.5)" fill="#707070"/><path d="M10.5,14.5V71.551H81.814V14.5ZM78.391,68.317H13.852V17.734h64.61V68.317ZM22.837,50.253l2.425,2.218,13.764-12.3L25.048,27.75l-2.425,2.139L34.176,40.159Zm16.188,3.676H60.42v2.535H39.025Z" transform="translate(-1339.117 2796.783)" fill="#c09553"/></g></g></svg>