<svg xmlns="http://www.w3.org/2000/svg" width="117" height="102.012" viewBox="0 0 117 102.012"><g transform="translate(-57 -1549.488)"><g transform="translate(-39 1009.977)"><path d="M117.206,53.334H33.653a12.257,12.257,0,0,0-12.17,13.885,2.457,2.457,0,0,0,3.681,1.8,6.96,6.96,0,0,1,3.573-.944h17.5a7.412,7.412,0,0,1,6.989,5l.418,1.347a12.346,12.346,0,0,0,11.656,8.4h56.816a7.372,7.372,0,0,1,3.671.983,2.462,2.462,0,0,0,3.7-2.123V65.621a12.287,12.287,0,0,0-12.281-12.287Z" transform="translate(75 487.247)" fill="#dcb67a"/><path d="M102.856,111.089a11.235,11.235,0,0,0-5.664-1.528H44.934a6.817,6.817,0,0,1-6.428-4.6l-.384-1.239A11.355,11.355,0,0,0,27.4,96H11.3a10.816,10.816,0,0,0-5.533,1.46A11.274,11.274,0,0,0,0,107.3v54.247a11.3,11.3,0,0,0,11.3,11.3H97.192a11.3,11.3,0,0,0,11.3-11.3V120.862A11.224,11.224,0,0,0,102.856,111.089Z" transform="translate(96 443.512)" fill="#c09553"/></g><path d="M43.524,18.381V23.41H30.114a6.725,6.725,0,0,0-6.7,6.7v13.41H18.381a8.381,8.381,0,0,0,0,16.762H23.41V73.7a6.725,6.725,0,0,0,6.7,6.7H42.853V75.371a9.051,9.051,0,1,1,18.1,0V80.4H73.7a6.725,6.725,0,0,0,6.7-6.7V60.956H75.371a9.051,9.051,0,1,1,0-18.1H80.4V30.114a6.725,6.725,0,0,0-6.7-6.7H60.286V18.381a8.381,8.381,0,0,0-16.762,0Z" transform="translate(93.6 1571.1)" fill="gray"/></g></svg>