<svg xmlns="http://www.w3.org/2000/svg" width="108.699" height="91.802" viewBox="0 0 108.699 91.802"><g transform="translate(-56 -451.488)"><path d="M117.206,53.334H33.653A12.257,12.257,0,0,0,21.483,67.219a2.457,2.457,0,0,0,3.681,1.8,6.96,6.96,0,0,1,3.573-.944h17.5a7.412,7.412,0,0,1,6.989,5l.418,1.347A12.346,12.346,0,0,0,65.3,82.823h56.816a7.372,7.372,0,0,1,3.671.983,2.462,2.462,0,0,0,3.7-2.123V65.621A12.287,12.287,0,0,0,117.206,53.334Z" transform="translate(35 398.225)" fill="#ccda91"/><path d="M102.856,111.089a11.235,11.235,0,0,0-5.664-1.528H44.934a6.817,6.817,0,0,1-6.428-4.6l-.384-1.239A11.355,11.355,0,0,0,27.395,96H11.3a10.816,10.816,0,0,0-5.533,1.46A11.274,11.274,0,0,0,0,107.3v54.247a11.3,11.3,0,0,0,11.3,11.3H97.192a11.3,11.3,0,0,0,11.3-11.3V120.862A11.224,11.224,0,0,0,102.856,111.089Z" transform="translate(56 355.49)" fill="#809136"/><path d="M17.907,16.469H56.83A1.568,1.568,0,0,1,58.4,18.037V50.676a1.568,1.568,0,0,1-1.568,1.568H49.889V63.237a4.623,4.623,0,0,1-4.63,4.63h0a4.623,4.623,0,0,1-4.612-4.63V52.244h-6.46V63.237a4.623,4.623,0,0,1-4.623,4.623h0a4.623,4.623,0,0,1-4.623-4.623V52.244H17.907a1.568,1.568,0,0,1-1.568-1.568V18.034A1.568,1.568,0,0,1,17.907,16.469Z" transform="translate(95.042 475.423)" fill="#aac148"/><path d="M17.849,16.466h0A4.637,4.637,0,0,1,22.487,21.1v18.83a4.637,4.637,0,0,1-4.637,4.637h0a4.637,4.637,0,0,1-4.637-4.637V21.1A4.637,4.637,0,0,1,17.849,16.466Z" transform="translate(142.212 475.415)" fill="#aac148"/><path d="M33.243,16.466h0A4.637,4.637,0,0,1,37.881,21.1v18.83a4.637,4.637,0,0,1-4.637,4.637h0a4.637,4.637,0,0,1-4.637-4.637V21.1A4.637,4.637,0,0,1,33.243,16.466Z" transform="translate(71.394 475.415)" fill="#aac148"/><path d="M56.2,32.5H18a1.568,1.568,0,0,1-1.536-1.895,21.118,21.118,0,0,1,10.3-14.029L23.5,10.685a.825.825,0,0,1,1.436-.8l3.291,5.936a21.135,21.135,0,0,1,17.73,0l3.3-5.936a.825.825,0,1,1,1.436.8l-3.266,5.893a21.118,21.118,0,0,1,10.3,14.029A1.568,1.568,0,0,1,56.2,32.5ZM25.7,23.72a1.774,1.774,0,1,1,.007,0Zm21.046-1.777a1.777,1.777,0,1,0,1.777,1.777,1.777,1.777,0,0,0-1.777-1.777Z" transform="translate(95.353 457.1)" fill="#aac148"/></g></svg>