<svg xmlns="http://www.w3.org/2000/svg" viewBox="0 0 133.99 89.27"><defs><style>.cls-1{fill:#3c7077;}.cls-2{fill:#375466;}.cls-3{fill:#beddf5;}.cls-4{fill:#93c7ef;}.cls-5{fill:#78b9eb;}</style></defs><g id="Camada_2" data-name="Camada 2"><g id="Camada_1-2" data-name="Camada 1"><path class="cls-1" d="M96.3,1H12.7A12.27,12.27,0,0,0,.4,13.2a8.08,8.08,0,0,0,.1,1.6,2.49,2.49,0,0,0,2.8,2.1,3.18,3.18,0,0,0,.9-.3,6.44,6.44,0,0,1,3.6-.9H25.3a7.33,7.33,0,0,1,7,5l.4,1.3a12.38,12.38,0,0,0,11.7,8.4h56.8a6.86,6.86,0,0,1,3.7,1,2.47,2.47,0,0,0,3.4-.9,2.66,2.66,0,0,0,.3-1.2V13.2A12.4,12.4,0,0,0,96.3,1Z"/><path class="cls-2" d="M102.9,15a11.29,11.29,0,0,0-5.7-1.5H44.9a6.79,6.79,0,0,1-6.4-4.6l-.4-1.2A11.39,11.39,0,0,0,27.4,0H11.3A10.58,10.58,0,0,0,5.8,1.5,11.27,11.27,0,0,0,0,11.3V65.5A11.35,11.35,0,0,0,11.3,76.8H97.2a11.35,11.35,0,0,0,11.3-11.3h0V24.8A11.2,11.2,0,0,0,102.9,15Z"/><rect class="cls-3" x="72.99" y="35.45" width="23.32" height="13.45"/><rect class="cls-4" x="105.28" y="35.45" width="23.32" height="13.45"/><rect class="cls-4" x="67.61" y="46.21" width="66.38" height="43.06"/><rect class="cls-5" x="100.8" y="46.21" width="33.19" height="43.06"/></g></g></svg>