<svg xmlns="http://www.w3.org/2000/svg" width="128.248" height="96.012" viewBox="0 0 128.248 96.012"><g transform="translate(-127 -1644.488)"><path d="M117.206,53.334H33.653a12.257,12.257,0,0,0-12.17,13.885,2.457,2.457,0,0,0,3.681,1.8,6.96,6.96,0,0,1,3.573-.944h17.5a7.412,7.412,0,0,1,6.989,5l.418,1.347a12.346,12.346,0,0,0,11.656,8.4h56.816a7.372,7.372,0,0,1,3.671.983,2.462,2.462,0,0,0,3.7-2.123V65.621a12.287,12.287,0,0,0-12.281-12.287Z" transform="translate(106 1592.224)" fill="#9b9b9b"/><path d="M102.856,111.089a11.235,11.235,0,0,0-5.664-1.528H44.934a6.817,6.817,0,0,1-6.428-4.6l-.384-1.239A11.355,11.355,0,0,0,27.4,96H11.3a10.816,10.816,0,0,0-5.533,1.46A11.274,11.274,0,0,0,0,107.3v54.247a11.3,11.3,0,0,0,11.3,11.3H97.192a11.3,11.3,0,0,0,11.3-11.3V120.862A11.224,11.224,0,0,0,102.856,111.089Z" transform="translate(127 1548.489)" fill="gray"/><g transform="translate(-77 87.763)"><path d="M17.957,71.417,12.482,10H72.648L67.166,71.407l-24.637,6.83Z" transform="translate(259.6 1574.5)" fill="#e44f26"/><path d="M21.74,69.54l19.909-5.521,4.686-52.474H21.74Z" transform="translate(280.425 1577.975)" fill="#f1662a"/><path d="M34.486,43.18,14.99,31.46V27.213l19.5-11.724v6.574L22.048,29.335,34.486,36.61Z" transform="translate(265.241 1586.847)" fill="#fff"/><path d="M22.49,43.169V36.6L35.016,29.33,22.49,22.061v-6.57l19.5,11.669V31.5Z" transform="translate(282.112 1586.851)" fill="#fff"/></g></g></svg>