<svg xmlns="http://www.w3.org/2000/svg" viewBox="0 0 126.05 120.29"><defs><style>.cls-1{fill:#8e7552;}.cls-2{fill:#a08e80;}.cls-3{fill:#ffb13b;}</style></defs><g id="Camada_2" data-name="Camada 2"><g id="Camada_1-2" data-name="Camada 1"><path class="cls-1" d="M88.2,0H20.3C14.1,0,9,11.2,9,25V35c0,2.8,1,5,2.3,5H30.7c1,0,1.8,1.3,2.1,3.4l2.5,16.5c1,6.1,3.5,10.2,6.4,10.2H97.3c1.2,0,2.3-2.2,2.3-5V25C99.5,11.2,94.4,0,88.2,0Z"/><path class="cls-2" d="M101.7,26.5h-60a2.55,2.55,0,0,1-2.2-1.9l-2.5-9c-1-3.3-3.5-5.6-6.4-5.6H6.8C3,10,0,13.7,0,18.2A93.21,93.21,0,0,0,2.7,40.5l9,36.5c1.4,5.8,5.9,9.8,10.9,9.8H86.5c4.7,0,9-3.5,10.6-8.9l9.8-31.6a41.75,41.75,0,0,0,1.7-11.6C108.5,30.1,105.4,26.5,101.7,26.5Z"/><path d="M122.9,89.5A10.85,10.85,0,0,0,115.3,71a13.55,13.55,0,0,0-2,.2,10.79,10.79,0,0,0-12.2-17.8,10.65,10.65,0,0,0-2.8,2.8,10.69,10.69,0,0,0-3-9.7A10.84,10.84,0,0,0,77,56.2,10.79,10.79,0,0,0,59.2,68.4,10.65,10.65,0,0,0,62,71.2a10.81,10.81,0,1,0-4.2,21.2,9.91,9.91,0,0,0,4.2,0,10.8,10.8,0,0,0,12.1,17.9,11.42,11.42,0,0,0,2.9-2.9,10.85,10.85,0,1,0,21.3,4.1,9.45,9.45,0,0,0,0-4.1,10.79,10.79,0,0,0,17.8-12.2,10.65,10.65,0,0,0-2.8-2.8,10.2,10.2,0,0,0,9.6-2.9"/><path class="cls-3" d="M119.6,77.5a6.28,6.28,0,0,0-8.8,0H98.2l9-9a6.2,6.2,0,1,0-6.2-6.2h0l-9,9V58.6a6.22,6.22,0,1,0-8.8,0V71.3l-9-9A6.2,6.2,0,1,0,68,68.5h0l9,9H64.3a6.22,6.22,0,1,0,0,8.8H77l-9,8.9a6.2,6.2,0,1,0,6.2,6.2l9-9v12.7a6.22,6.22,0,1,0,8.8,0V92.4l9,9a6.2,6.2,0,1,0,6.2-6.2h0l-9-8.9h12.7a6.28,6.28,0,0,0,8.8,0,6.37,6.37,0,0,0-.1-8.8h0"/></g></g></svg>