<svg xmlns="http://www.w3.org/2000/svg" viewBox="0 0 145.52 87.04"><defs><style>.cls-1{fill:#d88091;}.cls-2{fill:#af6175;}.cls-3{fill:#ff4b4b;}.cls-4{fill:#7d353b;}.cls-5{fill:#bd4043;}</style></defs><g id="Camada_2" data-name="Camada 2"><g id="Camada_1-2" data-name="Camada 1"><path class="cls-1" d="M96.3,1H12.7A12.27,12.27,0,0,0,.4,13.2a8.08,8.08,0,0,0,.1,1.6,2.49,2.49,0,0,0,2.8,2.1,3.18,3.18,0,0,0,.9-.3,6.44,6.44,0,0,1,3.6-.9H25.3a7.33,7.33,0,0,1,7,5l.4,1.3a12.38,12.38,0,0,0,11.7,8.4h56.8a6.86,6.86,0,0,1,3.7,1,2.47,2.47,0,0,0,3.4-.9,2.66,2.66,0,0,0,.3-1.2V13.2A12.4,12.4,0,0,0,96.3,1Z"/><path class="cls-2" d="M102.9,15a11.29,11.29,0,0,0-5.7-1.5H44.9a6.79,6.79,0,0,1-6.4-4.6l-.4-1.2A11.39,11.39,0,0,0,27.4,0H11.3A10.58,10.58,0,0,0,5.8,1.5,11.27,11.27,0,0,0,0,11.3V65.5A11.35,11.35,0,0,0,11.3,76.8H97.2a11.35,11.35,0,0,0,11.3-11.3h0V24.8A11.2,11.2,0,0,0,102.9,15Z"/><path class="cls-3" d="M88.4,27.8a2.16,2.16,0,0,1,3.57,0h0l17.62,26.26L128.32,82a8.38,8.38,0,0,1-.76,1.11,7.93,7.93,0,0,1-.62.68h0l-.16.13-.06.05a7.66,7.66,0,0,1-.66.45,4,4,0,0,1-.54.32c-.22.1-.57.23-.78.3a2.51,2.51,0,0,1-.43.13l-.23,0-.16,0h0l-.23,0c-.25,0-.5,0-.76,0a301.67,301.67,0,0,1-65.4,0h-.41a5.12,5.12,0,0,1-.61-.11l-.41-.09a5.46,5.46,0,0,1-3.91-3l-.06-.12h0L34.94,38.11a1.49,1.49,0,0,1,2-1.88.18.18,0,0,1,.12,0h0l33.68,17.8Zm54.91,8.46a1.48,1.48,0,0,1,2.13,1.79h0v.06L128.32,82l-18.73-27.9,33.69-17.8Z"/><path class="cls-4" d="M143.31,36.26h0l-33.69,17.8L128.32,82l17.12-43.85v-.06a1.48,1.48,0,0,0-2.13-1.79"/><path class="cls-5" d="M92,27.8a2.16,2.16,0,0,0-3.57,0L70.77,54.06l19.4,10.26,36.77,19.43a7.93,7.93,0,0,0,.62-.68,8.38,8.38,0,0,0,.76-1.11l-18.73-27.9Z"/></g></g></svg>