<svg xmlns="http://www.w3.org/2000/svg" width="131.134" height="94.5" viewBox="0 0 131.134 94.5"><g transform="translate(-606 -1377)"><path d="M117.206,53.334H33.653a12.257,12.257,0,0,0-12.17,13.885,2.457,2.457,0,0,0,3.681,1.8,6.96,6.96,0,0,1,3.573-.944h17.5a7.412,7.412,0,0,1,6.989,5l.418,1.347a12.346,12.346,0,0,0,11.656,8.4h56.816a7.372,7.372,0,0,1,3.671.983,2.462,2.462,0,0,0,3.7-2.123V65.621a12.287,12.287,0,0,0-12.281-12.287Z" transform="translate(585 1323.735)" fill="#55bbbf"/><g transform="translate(572 1142.51)"><g transform="translate(16 -18)"><path d="M102.856,111.089a11.235,11.235,0,0,0-5.664-1.528H44.934a6.817,6.817,0,0,1-6.428-4.6l-.384-1.239A11.355,11.355,0,0,0,27.4,96H11.3a10.816,10.816,0,0,0-5.533,1.46A11.274,11.274,0,0,0,0,107.3v54.247a11.3,11.3,0,0,0,11.3,11.3H97.192a11.3,11.3,0,0,0,11.3-11.3V120.862A11.224,11.224,0,0,0,102.856,111.089Z" transform="translate(18 156.49)" fill="#11a798"/></g></g><g transform="translate(305 175.889)"><path d="M32.506,10V29.743L15.432,19.87" transform="translate(365.483 1216.5)" fill="#b2cde5"/><path d="M37.69,19.87,20.62,29.743V10" transform="translate(377.369 1216.5)" fill="#b2cde5"/><path d="M37.69,13V32.748L20.62,22.872" transform="translate(377.369 1223.371)" fill="#4c89c3"/><path d="M15.432,13V32.748l17.074-9.876" transform="translate(365.483 1223.371)" fill="#0057a9"/><path d="M32.506,16V35.748L15.432,25.875" transform="translate(365.483 1230.244)" fill="#0057a9"/><path d="M20.627,16,20.62,35.748l17.07-9.866" transform="translate(377.369 1230.244)" fill="#4c89c3"/><path d="M37.69,19V38.746L20.62,28.873" transform="translate(377.369 1237.119)" fill="#b2cde5"/><path d="M15.432,19V38.746l17.074-9.873" transform="translate(365.483 1237.119)" fill="#b2cde5"/><path d="M32.506,22V41.746L15.432,31.873" transform="translate(365.483 1243.992)" fill="#4c89c3"/><path d="M20.627,22,20.62,41.746,37.69,31.88" transform="translate(377.369 1243.992)" fill="#0057a9"/><path d="M27.316,19V38.746l-17.07-9.873" transform="translate(353.6 1237.119)" fill="#b2cde5"/><path d="M10.245,22V41.746l17.07-9.873" transform="translate(353.6 1243.992)" fill="#0057a9"/><path d="M27.316,25V44.746l-17.07-9.873" transform="translate(353.6 1250.865)" fill="#0057a9"/><path d="M15.439,25l-.007,19.746L32.506,34.88" transform="translate(365.483 1250.865)" fill="#4c89c3"/><path d="M42.881,28.88,25.807,38.746,25.817,19" transform="translate(389.253 1237.119)" fill="#b2cde5"/><path d="M42.881,22V41.746L25.807,31.873" transform="translate(389.253 1243.992)" fill="#4c89c3"/><path d="M37.69,25V44.746L20.62,34.873" transform="translate(377.369 1250.865)" fill="#0057a9"/><path d="M25.817,25l-.01,19.746L42.881,34.88" transform="translate(389.253 1250.865)" fill="#4c89c3"/></g></g></svg>