<svg xmlns="http://www.w3.org/2000/svg" width="113.652" height="109.488" viewBox="0 0 113.652 109.488"><defs><style>.a{fill:#db7bab;}.b{fill:#bf558a;}.c{fill:#fff;}</style></defs><g transform="translate(-233 -451)"><path class="a" d="M121.846,74.667H53.978c-6.247,0-11.311,11.193-11.311,25v10c0,2.762,1.013,5,2.262,5H64.294c.965.01,1.824,1.352,2.149,3.36l2.466,16.491c.951,6.052,3.526,10.12,6.425,10.15H130.9c1.249,0,2.262-2.239,2.262-5v-40C133.157,85.86,128.093,74.667,121.846,74.667Z" transform="translate(199.333 376.333)"/><path class="b" d="M101.709,155.135H41.678a2.4,2.4,0,0,1-2.147-1.844l-2.464-9.052c-.952-3.321-3.523-5.553-6.419-5.572H6.781C3.036,138.667,0,142.353,0,146.9a93.392,93.392,0,0,0,2.672,22.308l9.041,36.515c1.432,5.819,5.843,9.8,10.845,9.793H86.385c4.728.016,8.964-3.542,10.618-8.92l9.764-31.629a39.708,39.708,0,0,0,1.722-11.6C108.49,158.821,105.454,155.135,101.709,155.135Z" transform="translate(233 322.333)"/><path class="c" d="M40.083,47.4c-1.078.5-2.258,1.141-4.62,2.437-.9.5-1.834,1.009-2.7,1.493-.06-.06-.122-.137-.182-.2-4.674-5-13.321-8.524-12.953-15.232.137-2.443.977-8.861,16.606-16.651,12.864-6.341,23.1-4.582,24.87-.687,2.536,5.561-5.484,15.886-18.774,17.385a10.011,10.011,0,0,1-8.4-2.124c-.7-.765-.809-.809-1.069-.657-.427.23-.152.917,0,1.314a7.846,7.846,0,0,0,4.8,3.772,25.539,25.539,0,0,0,15.582-1.544c8.064-3.115,14.336-11.776,12.5-19.034C63.88,10.313,51.659,7.882,40.1,12a58.24,58.24,0,0,0-19.691,11.3c-6.371,5.958-7.377,11.137-6.965,13.306,1.493,7.7,12.1,12.708,16.346,16.427-.215.122-.412.23-.579.32-2.124,1.054-10.22,5.286-12.245,9.76-2.291,5.077.367,8.706,2.124,9.2a13.064,13.064,0,0,0,14.07-5.7,14.112,14.112,0,0,0,1.251-13,11.267,11.267,0,0,1,1.6-1.069c1.084-.642,2.118-1.272,3.034-1.759h0A23.463,23.463,0,0,1,49.07,48.57c7.273.854,8.706,5.391,8.431,7.3a4.833,4.833,0,0,1-2.306,3.27c-.5.32-.672.427-.627.657.06.337.3.32.735.26a5.675,5.675,0,0,0,3.96-5.089c.23-4.48-4.047-9.4-11.609-9.348a17.368,17.368,0,0,0-6.6,1.314q-.5.209-.98.442ZM29.274,64.945c-2.413,2.628-5.773,3.62-7.225,2.781-1.559-.9-.947-4.779,2.016-7.562a38.483,38.483,0,0,1,5.675-4.232c.352-.215.872-.52,1.493-.9l.167-.093.367-.23A10.432,10.432,0,0,1,29.274,64.945Z" transform="translate(280.6 487.814)"/></g></svg>