<svg xmlns="http://www.w3.org/2000/svg" width="119.066" height="104.281" viewBox="0 0 119.066 104.281"><g transform="translate(-130 -1385)"><path d="M121.846,74.667H53.978c-6.247,0-11.311,11.193-11.311,25v10c0,2.762,1.013,5,2.262,5H64.294c.965.01,1.824,1.352,2.149,3.36l2.466,16.491c.951,6.052,3.526,10.12,6.425,10.15H130.9c1.249,0,2.262-2.239,2.262-5v-40C133.157,85.86,128.093,74.667,121.846,74.667Z" transform="translate(96.333 1310.333)" fill="#55bbbf"/><path d="M101.709,155.135H41.678a2.4,2.4,0,0,1-2.147-1.844l-2.464-9.052c-.952-3.321-3.523-5.553-6.419-5.572H6.781C3.036,138.667,0,142.353,0,146.9a93.392,93.392,0,0,0,2.672,22.308l9.041,36.515c1.432,5.819,5.843,9.8,10.845,9.793H86.385c4.728.016,8.964-3.542,10.618-8.92l9.764-31.629a39.708,39.708,0,0,0,1.722-11.6C108.49,158.821,105.454,155.135,101.709,155.135Z" transform="translate(130 1256.333)" fill="#11a798"/><g transform="translate(160 17)"><path d="M14.077,29.443l-1.4-1.33V25.37a16.318,16.318,0,0,0,20.246,0v2.743l-1.4,1.33A12.646,12.646,0,0,1,14.077,29.443Z" transform="translate(11.6 1427.196)" fill="#e4e4e4"/><path d="M12.682,52.712V13a14.679,14.679,0,0,0,20.246,0V52.712l-1.4,1.33a12.646,12.646,0,0,1-17.455,0ZM16.73,29.194H28.876V25.147H16.73Z" transform="translate(11.6 1394.499)" fill="#e4e4e4"/><path d="M22.8,31.112a16.635,16.635,0,0,1-10.121-3.519V35.16a14.679,14.679,0,0,0,20.246,0V27.593A16.639,16.639,0,0,1,22.8,31.112Z" transform="translate(11.6 1433.072)" fill="#e4e4e4"/><path d="M37.644,29.443l1.4-1.33V25.37a16.318,16.318,0,0,1-20.246,0v2.743l1.4,1.33a12.646,12.646,0,0,0,17.455,0Z" transform="translate(27.756 1427.196)" fill="#c18053"/><path d="M18.794,52.712V13A14.679,14.679,0,0,0,39.04,13V52.712l-1.4,1.33a12.646,12.646,0,0,1-17.455,0Zm4.048-23.517h12.15V25.147H22.845Z" transform="translate(27.756 1394.499)" fill="#c18053"/><path d="M28.916,31.112A16.635,16.635,0,0,1,18.8,27.593V35.16a14.679,14.679,0,0,0,20.246,0V27.593a16.639,16.639,0,0,1-10.125,3.519Z" transform="translate(27.758 1433.072)" fill="#c18053"/><path d="M43.757,29.443l1.4-1.33V25.37a16.318,16.318,0,0,1-20.246,0v2.743l1.4,1.33a12.646,12.646,0,0,0,17.455,0Z" transform="translate(43.914 1427.196)" fill="#9f4246"/><path d="M24.907,52.712V13a14.679,14.679,0,0,0,20.246,0V52.712l-1.4,1.33a12.646,12.646,0,0,1-17.455,0Zm4.048-23.517H41.1V25.147H28.955Z" transform="translate(43.914 1394.499)" fill="#9f4246"/><path d="M35.028,31.112a16.632,16.632,0,0,1-10.121-3.519V35.16a14.679,14.679,0,0,0,20.246,0V27.593a16.639,16.639,0,0,1-10.125,3.519Z" transform="translate(43.914 1433.072)" fill="#9f4246"/></g></g></svg>