<svg xmlns="http://www.w3.org/2000/svg" xmlns:xlink="http://www.w3.org/1999/xlink" width="114.365" height="117.012" viewBox="0 0 114.365 117.012"><defs><linearGradient id="a" x1="0.453" y1="0.631" x2="0.225" y2="1.146" gradientUnits="objectBoundingBox"><stop offset="0" stop-color="#f1f1f2"/><stop offset="0.391" stop-color="#eaebec"/><stop offset="1" stop-color="#e6e7e8"/></linearGradient><linearGradient id="b" x1="0.331" y1="0.08" x2="0.754" y2="1.266" gradientUnits="objectBoundingBox"><stop offset="0" stop-color="#e6e7e8"/><stop offset="0.482" stop-color="#dbdcde"/><stop offset="1" stop-color="#d7d8da"/></linearGradient><linearGradient id="c" x1="0.846" y1="-0.032" x2="0.139" y2="0.705" gradientUnits="objectBoundingBox"><stop offset="0" stop-color="#fff57e"/><stop offset="1" stop-color="#fdbf0f"/></linearGradient><linearGradient id="d" x1="0.192" y1="0.025" x2="0.987" y2="0.891" gradientUnits="objectBoundingBox"><stop offset="0" stop-color="#fbe574"/><stop offset="1" stop-color="#efab14"/></linearGradient></defs><g transform="translate(-565 -339.488)"><g transform="translate(469 -200.023)"><path d="M117.206,53.334H33.653a12.257,12.257,0,0,0-12.17,13.885,2.457,2.457,0,0,0,3.681,1.8,6.96,6.96,0,0,1,3.573-.944h17.5a7.412,7.412,0,0,1,6.989,5l.418,1.347a12.346,12.346,0,0,0,11.656,8.4h56.816a7.372,7.372,0,0,1,3.671.983,2.462,2.462,0,0,0,3.7-2.123V65.621a12.287,12.287,0,0,0-12.281-12.287Z" transform="translate(75 487.247)" fill="#dcb67a"/><path d="M102.856,111.089a11.235,11.235,0,0,0-5.664-1.528H44.934a6.817,6.817,0,0,1-6.428-4.6l-.384-1.239A11.355,11.355,0,0,0,27.4,96H11.3a10.816,10.816,0,0,0-5.533,1.46A11.274,11.274,0,0,0,0,107.3v54.247a11.3,11.3,0,0,0,11.3,11.3H97.192a11.3,11.3,0,0,0,11.3-11.3V120.862A11.224,11.224,0,0,0,102.856,111.089Z" transform="translate(96 443.512)" fill="#c09553"/></g><g transform="translate(137 -68.617)"><path d="M14.38,14.679,75.9,10v92.614L14.38,92.585Z" transform="translate(454.6 422.503)" fill="url(#a)"/><path d="M28.329,10l11.7,6.351.168,74.06-11.868,12.2Z" transform="translate(502.169 422.503)" fill="url(#b)"/><path d="M75.9,44.328C64.431,42.043,56.766,58.851,47.7,65.783,31.664,78.044,22.08,55.715,14.38,37.973V14.678C34.887,12.416,55.395,12.257,75.9,10V44.323Z" transform="translate(454.6 422.5)" fill="url(#c)"/><path d="M40.109,66.931l-.075-50.6L28.329,10V44.289C36.056,44.9,32.475,66.146,40.109,66.931Z" transform="translate(502.169 422.503)" fill="url(#d)"/><path d="M70.838,34.881l.265.476a12.351,12.351,0,0,0,1.014-1.2l-.309-.441a11.825,11.825,0,0,1-.97,1.164Zm1.8-2.47L73,32.76a9.429,9.429,0,0,0,.666-1.619l-.406-.229a8.688,8.688,0,0,1-.631,1.5Zm1.283-4.97-.441.137a6.725,6.725,0,0,1,.1,1.147q0,.265,0,.534l.441.062q.022-.3.022-.6a7.525,7.525,0,0,0-.119-1.288ZM73.382,25.7a6.007,6.007,0,0,0-.913-1.407l-.282.441a5.407,5.407,0,0,1,.825,1.27ZM71.3,23.291a4.569,4.569,0,0,0-1.323-.551l-.079.591a4.2,4.2,0,0,1,1.2.507ZM67.3,22.9l.11.578h0a4.635,4.635,0,0,1,1.252-.26v-.6a4.952,4.952,0,0,0-1.358.3Zm-2.315,1.433-.128.115.247.5.123-.115a7.581,7.581,0,0,1,.983-.759l-.185-.542a7.974,7.974,0,0,0-1.032.816Zm-2.245,2.293.278.463q.52-.582,1.028-1.107l-.265-.476q-.507.547-1.032,1.133Zm-2.007,2.342.291.441q.5-.6.992-1.178l-.287-.441q-.485.582-1.006,1.191Zm-1.976,2.377.291.441.988-1.186-.291-.441Zm-2,2.342.282.441q.512-.582,1.006-1.164l-.287-.441Q57.276,33.108,56.751,33.686ZM54.7,35.917l.265.476q.529-.551,1.041-1.107l-.273-.467q-.49.551-1.014,1.1Zm-2.13,2.077.243.5q.556-.507,1.089-1.028l-.238-.5q-.529.534-1.076,1.032Zm-2.205,1.87.216.52q.582-.441,1.142-.917l-.229-.507q-.56.467-1.133.909Zm-2.329,1.614.181.547h0q.609-.375,1.2-.785l-.2-.534q-.582.406-1.178.776ZM45.616,42.8l.141.565q.631-.3,1.244-.626l-.163-.556q-.6.322-1.226.617Zm-2.5.979.1.582q.653-.207,1.283-.441l-.119-.578q-.626.234-1.27.437Zm-2.567.631.057.6q.666-.115,1.323-.273l-.079-.591q-.648.154-1.3.269Zm-2.289.26h-.3v.6h.318q.512-.026,1.01-.079l-.035-.6q-.49.049-.992.075ZM35.3,45a10.827,10.827,0,0,0,1.323.225l.035-.6a10.471,10.471,0,0,1-1.283-.221Zm-2.576-.917A13.427,13.427,0,0,0,34,44.619l.11-.578a13.232,13.232,0,0,1-1.239-.52ZM30.29,42.634q.591.419,1.2.781l.176-.547q-.6-.353-1.173-.763Zm-2.28-1.852q.551.507,1.12.97l.225-.512q-.56-.441-1.1-.953Zm-2.13-2.165q.512.573,1.045,1.116l.26-.481q-.525-.534-1.032-1.1Zm-1.98-2.4q.476.622.975,1.222L25.166,37q-.49-.591-.961-1.208Zm-1.852-2.584h0q.441.662.913,1.323l.313-.419q-.441-.644-.882-1.3ZM20.31,30.9q.415.688.856,1.38l.3-.388q-.441-.684-.847-1.367Zm-1.627-2.845q.384.71.8,1.438l.344-.37q-.415-.723-.794-1.424Zm-1.53-2.946h0q.357.719.754,1.486l.357-.344c-.265-.507-.512-1-.745-1.473Zm-1.433-3.039c.212.472.441.983.706,1.53l.37-.322c-.256-.542-.49-1.054-.7-1.522Zm-.935-3.422-.388.273s.225.6.648,1.6l.366-.318c-.212-.494-.37-.882-.476-1.16s-.163-.4-.163-.4Z" transform="translate(454.655 451.991)" fill="#fdbf0f"/><path d="M29.041,18.624l.3,1.87v.093l.075.053,1.552,1.085.088-.4-4.41.714.216.344,2.576-3.669Zm-2.324,3.85,4.41-.714.534-.088-.441-.309-1.552-1.085.093.146-.3-1.87-.084-.534-.309.441L26.492,22.13l-.3.441Z" transform="translate(494.881 449.853)" fill="#fdbf0f"/></g></g></svg>