<svg xmlns="http://www.w3.org/2000/svg" width="148.284" height="102.262" viewBox="0 0 148.284 102.262"><g transform="translate(-1471 -376.488)"><g transform="translate(1375 -163.023)"><path d="M117.206,53.334H33.653a12.257,12.257,0,0,0-12.17,13.885,2.457,2.457,0,0,0,3.681,1.8,6.96,6.96,0,0,1,3.573-.944h17.5a7.412,7.412,0,0,1,6.989,5l.418,1.347a12.346,12.346,0,0,0,11.656,8.4h56.816a7.372,7.372,0,0,1,3.671.983,2.462,2.462,0,0,0,3.7-2.123V65.621a12.287,12.287,0,0,0-12.281-12.287Z" transform="translate(75 487.247)" fill="#dcb67a"/><path d="M102.856,111.089a11.235,11.235,0,0,0-5.664-1.528H44.934a6.817,6.817,0,0,1-6.428-4.6l-.384-1.239A11.355,11.355,0,0,0,27.4,96H11.3a10.816,10.816,0,0,0-5.533,1.46A11.274,11.274,0,0,0,0,107.3v54.247a11.3,11.3,0,0,0,11.3,11.3H97.192a11.3,11.3,0,0,0,11.3-11.3V120.862A11.224,11.224,0,0,0,102.856,111.089Z" transform="translate(96 443.512)" fill="#c09553"/></g><path d="M91.25,14.38H18.43c-4.652.008-8.421,3.393-8.43,7.572V70.57c.016,4.174,3.783,7.552,8.43,7.56H91.25c4.654-.006,8.425-3.392,8.435-7.572V21.952c-.012-4.179-3.782-7.563-8.435-7.572Z" transform="translate(1519.6 400.62)" fill="#675f58"/><path d="M93.182,62.865a3.778,3.778,0,0,1-3.92,3.57H14.994a3.778,3.778,0,0,1-3.92-3.57V17.62h82.1V62.865Z" transform="translate(1522.15 408.229)" fill="#ccc"/><path d="M31.7,17.248c1.105-.069,2.411-.471,3.362.336.87.8.829,2.1,1.105,3.168a21.725,21.725,0,0,1,3.874,1.234c.816-.719,1.526-1.771,2.687-1.884,1.033-.072,1.78.738,2.511,1.334a9.644,9.644,0,0,1,2.15,2.132c.527,1.4-.628,2.581-1.325,3.635A24.135,24.135,0,0,1,47.8,30.656c1.353.085,3.259-.22,3.9,1.334a16.093,16.093,0,0,1,.446,4.684c-.345,1.667-2.332,1.73-3.686,2.028-.226,1.234-.738,2.386-1.074,3.588.367,1.055,1.673,1.57,1.921,2.737.267,1.271-.863,2.176-1.57,3.08-.678.716-1.224,1.758-2.282,1.95-1.375.248-2.367-.926-3.481-1.5a19.686,19.686,0,0,1-3.453,1.771c-.1,1.419.257,3.507-1.419,4.131a15.81,15.81,0,0,1-4.765.367c-1.648-.527-1.551-2.511-1.921-3.9-1.224-.226-2.348-.8-3.56-1.033-1.105.782-2.006,2.383-3.582,1.981A11.166,11.166,0,0,1,20.595,49.9c-.65-.584-1.51-1.193-1.475-2.166-.066-1.293,1.231-2.091,1.475-3.265-.439-1.061-1.105-2.019-1.526-3.1-1.149-.1-2.461.2-3.453-.5-.926-.628-.873-1.884-1.008-2.857a9.286,9.286,0,0,1,.038-3.045c.65-1.375,2.383-1.306,3.645-1.667A20.349,20.349,0,0,1,19.4,29.613c-.738-.866-1.8-1.57-2.056-2.756-.144-1.083.738-1.884,1.356-2.665a8.476,8.476,0,0,1,2.2-2.2c1.381-.458,2.493.691,3.56,1.359a18.556,18.556,0,0,1,3.632-1.843c.292-1.177-.166-2.653.844-3.541C29.661,17.219,30.766,17.373,31.7,17.248Zm.367,12.017a6.731,6.731,0,1,0,5.99,1.777A6.731,6.731,0,0,0,32.072,29.265Z" transform="translate(1541.6 413.755)" fill="#c09553"/></g></svg>