<svg xmlns="http://www.w3.org/2000/svg" width="125.748" height="86.849" viewBox="0 0 125.748 86.849"><g transform="translate(1153 -1963)"><path d="M121.846,74.667H53.978c-6.247,0-11.311,11.193-11.311,25v10c0,2.762,1.013,5,2.262,5H64.294c.965.01,1.824,1.352,2.149,3.36l2.466,16.491c.951,6.052,3.526,10.12,6.425,10.15H130.9c1.249,0,2.262-2.239,2.262-5v-40C133.157,85.86,128.093,74.667,121.846,74.667Z" transform="translate(-1186.667 1888.333)" fill="#dcb67a"/><path d="M101.709,155.135H41.678a2.4,2.4,0,0,1-2.147-1.844l-2.464-9.052c-.952-3.321-3.523-5.553-6.419-5.572H6.781C3.036,138.667,0,142.353,0,146.9a93.392,93.392,0,0,0,2.672,22.308l9.041,36.515c1.432,5.819,5.843,9.8,10.845,9.793H86.385c4.728.016,8.964-3.542,10.618-8.92l9.764-31.629a39.708,39.708,0,0,0,1.722-11.6C108.49,158.821,105.454,155.135,101.709,155.135Z" transform="translate(-1153 1834.333)" fill="#c09553"/><g transform="translate(96 -109.041)"><path d="M77.167,15.4c-1.108.034-.758.356-3.156.944a48.452,48.452,0,0,0-7.98,1.507c-7.776,3.263-9.337,14.408-16.405,18.4-5.286,2.984-10.617,3.222-15.409,4.726a28.193,28.193,0,0,0-9.449,5.472c-2.215,1.911-2.273,3.59-4.591,5.983C17.7,55,10.335,52.48,7,56.4c1.076,1.088,1.547,1.392,3.664,1.111-.439.832-3.024,1.532-2.519,2.755.534,1.286,6.784,2.161,12.468-1.271a20.784,20.784,0,0,1,8.875-4.451A68.34,68.34,0,0,1,47.14,55.892a27.513,27.513,0,0,1-4.227,6.72c-.456.491.915.545,2.482.25a24.71,24.71,0,0,0,6.97-2.494c2.611-1.521,3.007-5.415,6.21-6.258a7.174,7.174,0,0,0,9.65,1.2c-2.643-.749-3.372-6.373-2.482-8.853.844-2.347,1.679-6.1,2.531-9.2a50.544,50.544,0,0,1,2.356-9.226,21.808,21.808,0,0,1,5.1-4.878,7.154,7.154,0,0,0,3.016-6.129c-.014-1.062-.574-1.653-1.573-1.621Z" transform="translate(-1202 2086)" fill="#002b64"/><path d="M8.533,58.756a15.926,15.926,0,0,0,9.756-1.409,87.927,87.927,0,0,1,8.7-4.72c4.795-1.538,10.043,0,15.18.31a22.077,22.077,0,0,0,3.713-.057c1.911-1.174,1.871-5.564,3.73-5.966A21.171,21.171,0,0,1,44.4,60.328a14.95,14.95,0,0,0,11.145-8.5,31.409,31.409,0,0,0,1.782-4.175c.8.611.344,2.474.746,3.481,3.834-2.135,6.026-7.01,7.484-11.94,1.682-5.7,2.37-11.478,3.443-13.168a14.368,14.368,0,0,1,4.21-3.73,6.726,6.726,0,0,0,3.5-4.72c-1.8-.166-2.218-.574-2.485-1.492a5.375,5.375,0,0,1-2.669.646c-.812.026-1.707,0-2.8.1C59.734,17.753,58.589,27.7,52.8,33.343a13.571,13.571,0,0,1-1.357,1.148,28.457,28.457,0,0,1-6.8,3.464c-3.7,1.415-7.217,1.515-10.689,2.735a32.013,32.013,0,0,0-7.231,3.627c-.522.359-1.016.723-1.469,1.1a14.4,14.4,0,0,0-2.815,3.266,21.707,21.707,0,0,1-2.766,3.561c-1.917,1.882-9.085.548-11.61,2.3a2.057,2.057,0,0,0-.657.709c1.377.626,2.3.241,3.88.416.207,1.5-3.268,2.4-2.755,3.088Z" transform="translate(-1201.234 2087.274)" fill="gray"/><path d="M27.742,18.955a2.129,2.129,0,0,0,3.481-1.989C29.237,16.8,28.086,17.474,27.742,18.955Z" transform="translate(-1163.219 2088.884)" fill="#002b64"/><path d="M31.648,16.942a6.646,6.646,0,0,0-.99,3.443c0,.313-.235.525-.241.046a6.786,6.786,0,0,1,.987-3.55C31.637,16.471,31.774,16.641,31.648,16.942Z" transform="translate(-1158.218 2088.317)" fill="#002b64"/><path d="M31.884,16.846a8.187,8.187,0,0,0-1.527,3.73c-.029.31-.287.5-.244.023a8.362,8.362,0,0,1,1.532-3.831C31.912,16.379,32.036,16.56,31.884,16.846Z" transform="translate(-1158.795 2088.143)" fill="#002b64"/><path d="M32.254,16.721A9.7,9.7,0,0,0,30,20.644c-.055.307-.324.476-.244,0a10.064,10.064,0,0,1,2.267-4.017C32.323,16.256,32.432,16.449,32.254,16.721Z" transform="translate(-1159.478 2087.912)" fill="#002b64"/><path d="M32.575,16.584a13.384,13.384,0,0,0-2.87,4.2c-.1.287-.387.428-.244-.032a13.306,13.306,0,0,1,2.9-4.3c.347-.321.428-.118.215.129Z" transform="translate(-1160.077 2087.654)" fill="#002b64"/></g></g></svg>