<svg xmlns="http://www.w3.org/2000/svg" width="121.488" height="116.4" viewBox="0 0 121.488 116.4"><g transform="translate(-915 -1209)"><path d="M121.846,74.667H53.978c-6.247,0-11.311,11.193-11.311,25v10c0,2.762,1.013,5,2.262,5H64.294c.965.01,1.824,1.352,2.149,3.36l2.466,16.491c.951,6.052,3.526,10.12,6.425,10.15H130.9c1.249,0,2.262-2.239,2.262-5v-40C133.157,85.86,128.093,74.667,121.846,74.667Z" transform="translate(881.333 1134.333)" fill="#bbb"/><path d="M101.709,155.135H41.678a2.4,2.4,0,0,1-2.147-1.844l-2.464-9.052c-.952-3.321-3.523-5.553-6.419-5.572H6.781C3.036,138.667,0,142.353,0,146.9a93.392,93.392,0,0,0,2.672,22.308l9.041,36.515c1.432,5.819,5.843,9.8,10.845,9.793H86.385c4.728.016,8.964-3.542,10.618-8.92l9.764-31.629a39.708,39.708,0,0,0,1.722-11.6C108.49,158.821,105.454,155.135,101.709,155.135Z" transform="translate(915 1080.333)" fill="#707070"/><g transform="translate(252 3)"><path d="M86.488,48.244A38.244,38.244,0,1,1,48.244,10,38.244,38.244,0,0,1,86.488,48.244Z" transform="translate(698 1235.912)" fill="#fff" fill-rule="evenodd"/><path d="M50.044,60.926A9.054,9.054,0,0,0,47.467,53.9c8.454-.94,17.328-4.15,17.328-18.727a14.643,14.643,0,0,0-3.9-10.186,13.634,13.634,0,0,0-.38-10.045s-3.181-1.019-10.424,3.893a35.925,35.925,0,0,0-19.005,0c-7.247-4.912-10.435-3.893-10.435-3.893a13.656,13.656,0,0,0-.361,10.045,14.664,14.664,0,0,0-3.907,10.168c0,14.541,8.859,17.8,17.288,18.756a8.126,8.126,0,0,0-2.411,5.06,8.075,8.075,0,0,1-11.042-3.155A7.985,7.985,0,0,0,14.4,51.9s-3.7-.047-.26,2.31a10.041,10.041,0,0,1,4.215,5.548s2.227,7.385,12.785,5.089c0,3.166.051,5.556.051,6.456a2.191,2.191,0,0,1-.116.64,36.789,36.789,0,0,0,19.049,0A2.19,2.19,0,0,1,50,71.321C50,70.078,50.044,65.986,50.044,60.926Z" transform="translate(701.326 1249.146)" fill="#333" fill-rule="evenodd"/></g></g></svg>