<svg xmlns="http://www.w3.org/2000/svg" width="108.49" height="105.29" viewBox="0 0 108.49 105.29"><g transform="translate(-230 -463)"><path d="M121.846,74.667H53.978c-6.247,0-11.311,11.193-11.311,25v10c0,2.762,1.013,5,2.262,5H64.294c.965.01,1.824,1.352,2.149,3.36l2.466,16.491c.951,6.052,3.526,10.12,6.425,10.15h55.561c1.249,0,2.262-2.239,2.262-5v-40C133.157,85.86,128.093,74.667,121.846,74.667Z" transform="translate(196.333 388.333)" fill="#ccda91"/><path d="M101.709,155.135H41.678a2.4,2.4,0,0,1-2.147-1.844l-2.464-9.052c-.952-3.321-3.523-5.553-6.419-5.572H6.781C3.036,138.667,0,142.353,0,146.9a93.392,93.392,0,0,0,2.672,22.308l9.041,36.515c1.432,5.819,5.843,9.8,10.845,9.793H86.385c4.728.016,8.964-3.542,10.618-8.92l9.764-31.629a39.708,39.708,0,0,0,1.722-11.6C108.49,158.821,105.454,155.135,101.709,155.135Z" transform="translate(230 334.333)" fill="#809136"/><path d="M17.907,16.469H56.83A1.568,1.568,0,0,1,58.4,18.037V50.676a1.568,1.568,0,0,1-1.568,1.568H49.889V63.237a4.623,4.623,0,0,1-4.63,4.63h0a4.623,4.623,0,0,1-4.612-4.63V52.244h-6.46V63.237a4.623,4.623,0,0,1-4.623,4.623h0a4.623,4.623,0,0,1-4.623-4.623V52.244H17.907a1.568,1.568,0,0,1-1.568-1.568V18.034A1.568,1.568,0,0,1,17.907,16.469Z" transform="translate(256.042 500.423)" fill="#aac148"/><path d="M17.849,16.466h0A4.637,4.637,0,0,1,22.487,21.1v18.83a4.637,4.637,0,0,1-4.637,4.637h0a4.637,4.637,0,0,1-4.637-4.637V21.1A4.637,4.637,0,0,1,17.849,16.466Z" transform="translate(303.212 500.415)" fill="#aac148"/><path d="M33.243,16.466h0A4.637,4.637,0,0,1,37.881,21.1v18.83a4.637,4.637,0,0,1-4.637,4.637h0a4.637,4.637,0,0,1-4.637-4.637V21.1A4.637,4.637,0,0,1,33.243,16.466Z" transform="translate(232.394 500.415)" fill="#aac148"/><path d="M56.2,32.5H18a1.568,1.568,0,0,1-1.536-1.895,21.118,21.118,0,0,1,10.3-14.029L23.5,10.685a.825.825,0,0,1,1.436-.8l3.291,5.936a21.135,21.135,0,0,1,17.73,0l3.3-5.936a.825.825,0,1,1,1.436.8l-3.266,5.893a21.118,21.118,0,0,1,10.3,14.029A1.568,1.568,0,0,1,56.2,32.5ZM25.7,23.72a1.774,1.774,0,1,1,.007,0Zm21.046-1.777a1.777,1.777,0,1,0,1.777,1.777,1.777,1.777,0,0,0-1.777-1.777Z" transform="translate(256.353 482.1)" fill="#aac148"/></g></svg>