<svg xmlns="http://www.w3.org/2000/svg" viewBox="0 0 124.1 90.79"><defs><style>.cls-1{fill:#dcb67a;}.cls-2{fill:#c09553;}.cls-3{fill:#298988;}</style></defs><g id="Camada_2" data-name="Camada 2"><g id="Camada_1-2" data-name="Camada 1"><path class="cls-1" d="M96.3,1H12.7A12.27,12.27,0,0,0,.4,13.2a8.08,8.08,0,0,0,.1,1.6,2.49,2.49,0,0,0,2.8,2.1,3.18,3.18,0,0,0,.9-.3,6.44,6.44,0,0,1,3.6-.9H25.3a7.33,7.33,0,0,1,7,5l.4,1.3a12.38,12.38,0,0,0,11.7,8.4h56.8a6.86,6.86,0,0,1,3.7,1,2.47,2.47,0,0,0,3.4-.9,2.66,2.66,0,0,0,.3-1.2V13.2A12.4,12.4,0,0,0,96.3,1Z"/><path class="cls-2" d="M102.9,15a11.29,11.29,0,0,0-5.7-1.5H44.9a6.79,6.79,0,0,1-6.4-4.6l-.4-1.2A11.39,11.39,0,0,0,27.4,0H11.3A10.58,10.58,0,0,0,5.8,1.5,11.27,11.27,0,0,0,0,11.3V65.5A11.35,11.35,0,0,0,11.3,76.8H97.2a11.35,11.35,0,0,0,11.3-11.3h0V24.8A11.2,11.2,0,0,0,102.9,15Z"/><g id="SVGRepo_iconCarrier" data-name="SVGRepo iconCarrier"><path class="cls-3" d="M77.87,28.46,61.78,36.18v2.71l15.77-7.57-15.77,12V58.09l17-6.13-8.32-1.22,24.65-6L61.78,68.82v5.7l45.84-24.86L97,52.06l15.1-9.36,12-4.54V35.54c-8.3,3.76-16.69,5.57-25.47,7.72l5.82-4,19.65-9.55V28.46h-2.95c-10.43,5.92-21.27,9.33-32.53,13.24l20.82-13.24H98.76L73.88,41l16-12.51ZM124.1,44.8,89.39,65.29l19.74-5.12L69.48,80.91,82.9,69,61.78,79.64V90.79H66.1s22.3-13.28,34.66-18.27l-9.22,6.86,14.77-4.51L78,90.54l37.5-13.39L104.71,84.7l19.39-5.45V65.14L105.76,72l9.53-7.67L97.76,70.51,121,55.42,117.7,61l6.4-2.42V44.8Z"/></g></g></g></svg>