<svg xmlns="http://www.w3.org/2000/svg" xmlns:xlink="http://www.w3.org/1999/xlink" viewBox="0 0 132.48 119.95"><defs><style>.cls-1{fill:#e07575;}.cls-2{fill:#bf6d55;}.cls-3{fill:url(#Gradiente_sem_nome_10);}.cls-4{fill:none;}.cls-5,.cls-6{fill:#be202e;}.cls-6{isolation:isolate;opacity:0.35;}.cls-7{fill:url(#Gradiente_sem_nome_18);}.cls-8{fill:url(#Gradiente_sem_nome_14);}.cls-9{fill:url(#Gradiente_sem_nome_18-2);}.cls-10{fill:url(#Gradiente_sem_nome_14-2);}.cls-11{fill:url(#Gradiente_sem_nome_18-3);}.cls-12{fill:url(#Gradiente_sem_nome_18-4);}.cls-13{fill:url(#Gradiente_sem_nome_18-5);}.cls-14{fill:url(#Gradiente_sem_nome_18-6);}.cls-15{fill:url(#Gradiente_sem_nome_10-2);}.cls-16{fill:url(#Gradiente_sem_nome_18-7);}.cls-17{fill:url(#Gradiente_sem_nome_14-3);}.cls-18{fill:url(#Gradiente_sem_nome_18-8);}.cls-19{fill:url(#Gradiente_sem_nome_14-4);}.cls-20{fill:url(#Gradiente_sem_nome_18-9);}.cls-21{fill:url(#Gradiente_sem_nome_18-10);}.cls-22{fill:url(#Gradiente_sem_nome_18-11);}</style><linearGradient id="Gradiente_sem_nome_10" x1="-8333.76" y1="-3187.79" x2="-8329.48" y2="-3182.78" gradientTransform="translate(4518.32 -25972.12) rotate(-101.21) scale(2.96)" gradientUnits="userSpaceOnUse"><stop offset="0" stop-color="#f69923"/><stop offset="0.31" stop-color="#f79a23"/><stop offset="0.84" stop-color="#e97826"/></linearGradient><linearGradient id="Gradiente_sem_nome_18" x1="-8363.48" y1="-3189.8" x2="-8332.91" y2="-3189.8" gradientTransform="translate(4518.32 -25972.12) rotate(-101.21) scale(2.96)" gradientUnits="userSpaceOnUse"><stop offset="0.32" stop-color="#9e2064"/><stop offset="0.63" stop-color="#c92037"/><stop offset="0.75" stop-color="#cd2335"/><stop offset="1" stop-color="#e97826"/></linearGradient><linearGradient id="Gradiente_sem_nome_14" x1="-8359.79" y1="-3186.7" x2="-8341.57" y2="-3186.7" gradientTransform="translate(4518.32 -25972.12) rotate(-101.21) scale(2.96)" gradientUnits="userSpaceOnUse"><stop offset="0" stop-color="#282662"/><stop offset="0.1" stop-color="#662e8d"/><stop offset="0.79" stop-color="#9f2064"/><stop offset="0.95" stop-color="#cd2032"/></linearGradient><linearGradient id="Gradiente_sem_nome_18-2" x1="-8361.76" y1="-3190.06" x2="-8331.19" y2="-3190.06" xlink:href="#Gradiente_sem_nome_18"/><linearGradient id="Gradiente_sem_nome_14-2" x1="-8359.53" y1="-3189.63" x2="-8343.47" y2="-3189.63" xlink:href="#Gradiente_sem_nome_14"/><linearGradient id="Gradiente_sem_nome_18-3" x1="-8361.76" y1="-3186.9" x2="-8331.19" y2="-3186.9" xlink:href="#Gradiente_sem_nome_18"/><linearGradient id="Gradiente_sem_nome_18-4" x1="-8363.66" y1="-3187.06" x2="-8333.09" y2="-3187.06" xlink:href="#Gradiente_sem_nome_18"/><linearGradient id="Gradiente_sem_nome_18-5" x1="-8361.76" y1="-3185.95" x2="-8331.19" y2="-3185.95" xlink:href="#Gradiente_sem_nome_18"/><linearGradient id="Gradiente_sem_nome_18-6" x1="-8361.76" y1="-3186.06" x2="-8331.19" y2="-3186.06" xlink:href="#Gradiente_sem_nome_18"/><linearGradient id="Gradiente_sem_nome_10-2" x1="-9177.38" y1="-2824.97" x2="-9173.09" y2="-2819.96" gradientTransform="translate(25001.5 -20436.29) rotate(-56.55) scale(3.36)" xlink:href="#Gradiente_sem_nome_10"/><linearGradient id="Gradiente_sem_nome_18-7" x1="-9208.1" y1="-2824.03" x2="-9177.53" y2="-2824.03" gradientTransform="translate(25001.5 -20436.29) rotate(-56.55) scale(3.36)" xlink:href="#Gradiente_sem_nome_18"/><linearGradient id="Gradiente_sem_nome_14-3" x1="-9204.41" y1="-2820.94" x2="-9186.19" y2="-2820.94" gradientTransform="translate(25001.5 -20436.29) rotate(-56.55) scale(3.36)" xlink:href="#Gradiente_sem_nome_14"/><linearGradient id="Gradiente_sem_nome_18-8" x1="-9206.38" y1="-2824.29" x2="-9175.81" y2="-2824.29" gradientTransform="translate(25001.5 -20436.29) rotate(-56.55) scale(3.36)" xlink:href="#Gradiente_sem_nome_18"/><linearGradient id="Gradiente_sem_nome_14-4" x1="-9204.15" y1="-2823.86" x2="-9188.09" y2="-2823.86" gradientTransform="translate(25001.5 -20436.29) rotate(-56.55) scale(3.36)" xlink:href="#Gradiente_sem_nome_14"/><linearGradient id="Gradiente_sem_nome_18-9" x1="-9206.38" y1="-2821.14" x2="-9175.81" y2="-2821.14" gradientTransform="translate(25001.5 -20436.29) rotate(-56.55) scale(3.36)" xlink:href="#Gradiente_sem_nome_18"/><linearGradient id="Gradiente_sem_nome_18-10" x1="-9208.28" y1="-2821.3" x2="-9177.71" y2="-2821.3" gradientTransform="translate(25001.5 -20436.29) rotate(-56.55) scale(3.36)" xlink:href="#Gradiente_sem_nome_18"/><linearGradient id="Gradiente_sem_nome_18-11" x1="-9206.38" y1="-2820.19" x2="-9175.81" y2="-2820.19" gradientTransform="translate(25001.5 -20436.29) rotate(-56.55) scale(3.36)" xlink:href="#Gradiente_sem_nome_18"/></defs><g id="Camada_2" data-name="Camada 2"><g id="Camada_1-2" data-name="Camada 1"><path class="cls-1" d="M88.3,0H20.4C14.2,0,9.1,11.2,9.1,25V35c0,2.8,1,5,2.3,5H30.8c1,0,1.8,1.4,2.2,3.4l2.5,16.5c1,6,3.5,10.1,6.4,10.1H97.5c1.2,0,2.3-2.2,2.3-5V25C99.6,11.2,94.5,0,88.3,0Z"/><path class="cls-2" d="M101.8,26.5h-60a2.58,2.58,0,0,1-2.2-1.8l-2.5-9c-1-3.3-3.5-5.6-6.4-5.6H6.8C3,10,0,13.7,0,18.3A93.21,93.21,0,0,0,2.7,40.6l9,36.5c1.4,5.8,5.9,9.8,10.9,9.8H86.5c4.7,0,9-3.5,10.6-8.9l9.8-31.6a41.75,41.75,0,0,0,1.7-11.6C108.6,30.1,105.5,26.5,101.8,26.5Z"/><path class="cls-3" d="M61.43,24.82A33.26,33.26,0,0,0,60.05,34L65,36.41a61.57,61.57,0,0,1,.35-8.8c0-.2,0-.32,0-.32s0,.21,0,.32a54.68,54.68,0,0,0,0,8.68,95.79,95.79,0,0,0,7.32-6.93,10.53,10.53,0,0,0-5.52-5.89S62.75,21.71,61.43,24.82Z"/><path class="cls-4" d="M74.29,49.72a.07.07,0,0,0,0,0l-.27.25s0,0,0,.06Z"/><path class="cls-4" d="M77.32,58.27c-.13.16-.29.31-.44.47C77,58.58,77.18,58.43,77.32,58.27Z"/><path class="cls-4" d="M74.47,84.54a1.12,1.12,0,0,0-.06-.23l-1.23-4.5q-.65-2.46-1.24-4.82c-.41-1.63-.8-3.24-1.16-4.79S70,67,69.7,65.47c-.27-1.24-.53-2.45-.77-3.63-.08-.39-.15-.78-.23-1.16-.14-.77-.29-1.51-.43-2.24s-.25-1.34-.38-2c0-.22-.08-.45-.12-.65l0-.12-.24.22L67,55.65a.47.47,0,0,0,0,.17c.16,1,.34,2,.52,3,.11.56.22,1.15.32,1.73.31,1.61.63,3.21,1,4.82s.69,3.26,1.07,4.85.74,3.17,1.12,4.74.77,3.12,1.17,4.66.83,3.2,1.27,4.76c.09.35.19.71.29,1,.35,1.27.69,2.5,1,3.72l.79.39.26-.23a.17.17,0,0,0,0-.1C75.35,87.63,74.9,86.06,74.47,84.54Z"/><path class="cls-5" d="M78.57,62.79c-.23.25-.47.49-.71.73h0l.37-.38C78.35,63,78.46,62.91,78.57,62.79Z"/><path class="cls-6" d="M78.57,62.79c-.23.25-.47.49-.71.73h0l.37-.38C78.35,63,78.46,62.91,78.57,62.79Z"/><path class="cls-5" d="M76.76,58.84h0l.11-.1c.15-.16.31-.31.44-.47-.17.19-.37.37-.56.57Z"/><path class="cls-6" d="M76.76,58.84h0l.11-.1c.15-.16.31-.31.44-.47-.17.19-.37.37-.56.57Z"/><path class="cls-7" d="M66.3,51c-.23-1.64-.44-3.26-.63-4.85s-.34-3.27-.45-4.88a1.31,1.31,0,0,1,0-.28c-.13-1.56-.2-3.09-.24-4.59L60.05,34c0,.29,0,.6,0,.93,0,1.18-.09,2.42-.1,3.75,0,1.49,0,3,0,4.67s.1,3,.18,4.64c.08,1.36.17,2.73.28,4.13v.16L67,55.65C66.77,54.09,66.53,52.54,66.3,51Z"/><path class="cls-8" d="M76.06,90c.35,1.24.74,2.51,1.14,3.8v0c.06.18.1.36.17.54.26.87.52,1.64,1.06,3.41a6.61,6.61,0,0,1,3.79.91,5.36,5.36,0,0,0-3.6-2,11.59,11.59,0,0,0,6.32-10.31c0-.37-.09-.75-.16-1.13a4.67,4.67,0,0,1-2.65,4h0a13.06,13.06,0,0,0,2.11-8.22c0-.67-.14-1.39-.26-2.15a10.56,10.56,0,0,1-6.14,8.53l-2,1.84C75.92,89.57,76,89.79,76.06,90Z"/><path class="cls-9" d="M73.48,84.4q-.63-2.36-1.27-4.76c-.4-1.54-.78-3.09-1.17-4.66s-.75-3.16-1.12-4.74-.73-3.24-1.07-4.85-.65-3.22-1-4.82c-.12-.59-.22-1.15-.33-1.74-.18-1-.34-2-.52-3a.47.47,0,0,0,0-.16l-6.56-3.35a1.72,1.72,0,0,1,0,.32c.14,1.48.26,3,.44,4.5s.37,3.08.6,4.65c.19,1.31.4,2.62.62,3.94,0,.26.09.53.14.79.3,1.63.63,3.2,1,4.68.39,1.66.81,3.23,1.23,4.69.29,1,.57,1.88.85,2.75s.52,1.47.78,2.2c.63,1.71,1.33,3.36,2.08,5l6.63,3.36-1-3.72C73.67,85.11,73.58,84.76,73.48,84.4Z"/><path class="cls-10" d="M68.26,86a51.79,51.79,0,0,0,3,5.63l.12.19a13.29,13.29,0,0,0-5.06-.39,18.57,18.57,0,0,1,8.15,4.74,8.53,8.53,0,0,1-3.85,1.94,8.52,8.52,0,0,0,4.22-.38,10.46,10.46,0,0,0-2.57,5,10.67,10.67,0,0,1,4.18-4.42c2,6.6,4.39,13.75,7,21.26a2,2,0,0,0,.31-1.87c-.48-1.35-3.65-10.28-7.25-22.4-.11-.35-.2-.7-.31-1L76.2,94c-.37-1.27-.74-2.58-1.13-3.92-.08-.32-.17-.61-.25-.92h0l-6.63-3.36A.86.86,0,0,0,68.26,86Z"/><path class="cls-11" d="M67.77,55.79c0,.22.08.42.12.65.13.66.24,1.32.38,2s.29,1.47.43,2.24c.08.38.15.77.23,1.16.24,1.18.5,2.39.77,3.63.35,1.53.69,3.1,1.08,4.73s.75,3.16,1.16,4.79.8,3.17,1.24,4.82c.39,1.47.81,3,1.23,4.5a1.55,1.55,0,0,0,.06.23c.43,1.52.88,3.09,1.34,4.69a.54.54,0,0,0,0,.1l2-1.85s-.09,0-.15.08a19.25,19.25,0,0,0,4.88-10.79,25.8,25.8,0,0,0-.07-6,40.8,40.8,0,0,0-1-5.14q-.58-2.38-1.47-5a9.85,9.85,0,0,1-1.53,2.2l-.35.38c-.11.13-.24.24-.37.38h0a11.67,11.67,0,0,0,1.44-8.69,10.76,10.76,0,0,1-2,3.44,6.31,6.31,0,0,1-.44.47l-.12.11h0A12.59,12.59,0,0,0,78,56a5.66,5.66,0,0,0,.15-.59,9.1,9.1,0,0,0,.16-.91c0-.2,0-.39.07-.59a8.54,8.54,0,0,0,0-1.43,1.68,1.68,0,0,0,0-.45c0-.22-.07-.43-.11-.63-.16-.93-.34-1.73-.51-2.43-.09-.34-.18-.66-.27-1,0-.11-.06-.22-.1-.34-.11-.32-.19-.61-.29-.85a7.91,7.91,0,0,0-.37-.84h0a1.9,1.9,0,0,1-.14.4,13.1,13.1,0,0,1-2.25,3.23L76.14,48l-1.85,1.67a.05.05,0,0,0,0,0A1.93,1.93,0,0,0,74,50s0-.05,0-.07l-6.3,5.77S67.78,55.77,67.77,55.79Z"/><path class="cls-12" d="M65.33,36.29c.07,1.39.2,2.94.34,4.66a2.51,2.51,0,0,0,0,.27c.14,1.49.32,3.11.56,4.88.2,1.52.42,3.11.69,4.84.22,1.5.5,3.07.79,4.74l6.3-5.77a10.37,10.37,0,0,0,1.58-5.71c0-.49,0-1-.07-1.55-.1-1.66-.29-3.31-.55-5a44.51,44.51,0,0,0-.94-4.45c-.2-.77-.45-1.52-.72-2.27-.23-.56-.46-1.08-.7-1.57A99.23,99.23,0,0,1,65.33,36.29Z"/><path class="cls-5" d="M78.24,63.15c-.12.13-.25.24-.37.37h0A4.31,4.31,0,0,1,78.24,63.15Z"/><path class="cls-6" d="M78.24,63.15c-.12.13-.25.24-.37.37h0A4.31,4.31,0,0,1,78.24,63.15Z"/><path class="cls-13" d="M78.24,63.15c-.12.13-.25.24-.37.37h0A4.31,4.31,0,0,1,78.24,63.15Z"/><path class="cls-5" d="M76.76,58.85l.12-.11Z"/><path class="cls-6" d="M76.76,58.85l.12-.11Z"/><path class="cls-14" d="M76.76,58.85l.12-.11Z"/><path class="cls-15" d="M126,26.06a37.5,37.5,0,0,0-8.4,6.31l2.07,5.85a69.85,69.85,0,0,1,7.28-6.8c.17-.15.28-.23.28-.23s-.19.14-.28.23a62.48,62.48,0,0,0-6.93,7,111,111,0,0,0,11.39.25,11.92,11.92,0,0,0,.24-9.14S129.56,24.6,126,26.06Z"/><path class="cls-4" d="M116.59,56.32h.06l-.42,0a.09.09,0,0,0-.08,0Z"/><path class="cls-4" d="M112.24,65.6a5.86,5.86,0,0,1-.73,0A5.78,5.78,0,0,0,112.24,65.6Z"/><path class="cls-4" d="M89.08,84.49a2.36,2.36,0,0,0,.13-.23c.88-1.58,1.73-3.11,2.6-4.61,1-1.66,1.9-3.29,2.82-4.85S96.57,71.56,97.5,70s2-3.17,2.9-4.66c.77-1.21,1.52-2.39,2.26-3.53l.74-1.12,1.43-2.15c.44-.64.86-1.27,1.28-1.9l.42-.61.07-.1h-.35l-.2-.59s-.07.1-.1.16c-.65.92-1.31,1.86-2,2.82L102.88,60c-1,1.54-2,3.08-3,4.66s-2,3.18-3,4.77-1.92,3.13-2.86,4.7-1.86,3.12-2.77,4.68-1.88,3.24-2.77,4.85c-.21.35-.42.73-.6,1.09C87.1,86,86.4,87.3,85.71,88.56l.32,1,.4,0a.24.24,0,0,0,.06-.11C87.33,87.67,88.22,86.06,89.08,84.49Z"/><path class="cls-5" d="M109.66,70.24c-.39,0-.77,0-1.16,0h.6Z"/><path class="cls-6" d="M109.66,70.24c-.39,0-.77,0-1.16,0h.6Z"/><path class="cls-5" d="M111.34,65.62h.17a5.78,5.78,0,0,0,.73,0c-.29,0-.59,0-.9,0Z"/><path class="cls-6" d="M111.34,65.62h.17a5.78,5.78,0,0,0,.73,0c-.29,0-.59,0-.9,0Z"/><path class="cls-16" d="M109.14,51c1.13-1.51,2.24-3,3.36-4.41s2.32-2.9,3.51-4.28a2.54,2.54,0,0,1,.2-.24c1.16-1.35,2.31-2.64,3.47-3.87l-2.08-5.84-.78.71c-1,.91-2,1.9-3.06,3s-2.42,2.45-3.68,3.78-2.35,2.53-3.55,3.87q-1.52,1.74-3,3.55l-.12.14L106,55.29C107.07,53.86,108.11,52.41,109.14,51Z"/><path class="cls-17" d="M86,90.16c-.69,1.29-1.38,2.6-2.09,4,0,0,0,0,0,0-.11.2-.21.38-.3.57-.47.91-.88,1.73-1.85,3.59A7.45,7.45,0,0,1,84,102.07a6.1,6.1,0,0,0-1.34-4.44c5.4,1,10.3.35,13.29-3.27.26-.33.52-.67.76-1a5.26,5.26,0,0,1-5.3,1.1h0a14.83,14.83,0,0,0,8.23-5c.48-.58,1-1.22,1.49-1.93a12,12,0,0,1-11.72,2l-3.07-.11Z"/><path class="cls-18" d="M88.39,83.58l2.77-4.85q1.35-2.33,2.77-4.68c.95-1.56,1.9-3.14,2.86-4.7s2-3.19,3-4.77,2-3.11,3-4.66c.37-.56.73-1.1,1.12-1.66.64-.94,1.3-1.88,2-2.82a.86.86,0,0,0,.1-.16l-2.62-7.91a2,2,0,0,1-.23.27c-1.07,1.31-2.17,2.62-3.24,4s-2.15,2.77-3.21,4.22c-.89,1.21-1.76,2.42-2.63,3.66l-.51.75c-1,1.56-2,3.08-2.93,4.55-1,1.65-1.92,3.25-2.74,4.76-.53,1-1,2-1.5,2.89s-.75,1.6-1.12,2.39c-.85,1.87-1.6,3.76-2.28,5.66l2.67,8c.69-1.26,1.4-2.52,2.11-3.81C88,84.31,88.19,84,88.39,83.58Z"/><path class="cls-19" d="M82.89,80.76a58.41,58.41,0,0,0-2,7c0,.07-.05.16-.06.24a15,15,0,0,0-3.76-4.33,21,21,0,0,1,2.79,10.29,9.69,9.69,0,0,1-4.64-1.5,9.7,9.7,0,0,0,3.7,3,11.82,11.82,0,0,0-6.05,2,12,12,0,0,1,6.87-.24c-3.66,6.89-7.4,14.55-11.22,22.71a2.27,2.27,0,0,0,1.73-1.26c.69-1.48,5.23-11.17,12-23.8.19-.35.39-.71.58-1.09.06-.11.1-.2.16-.3q1.06-2,2.21-4c.18-.32.34-.63.52-.94v0l-2.67-8A1.22,1.22,0,0,0,82.89,80.76Z"/><path class="cls-20" d="M106.52,56l-.41.61c-.42.63-.86,1.26-1.28,1.9s-.94,1.42-1.43,2.15l-.74,1.12c-.75,1.14-1.5,2.32-2.27,3.53-1,1.49-1.9,3-2.89,4.66s-1.9,3.14-2.87,4.78S92.76,78,91.8,79.63c-.85,1.49-1.71,3-2.6,4.61a2.53,2.53,0,0,1-.12.23c-.87,1.57-1.76,3.18-2.65,4.85a.24.24,0,0,0-.06.11l3.08.11a1.31,1.31,0,0,0-.19-.07,21.75,21.75,0,0,0,12.5-4.81,29.19,29.19,0,0,0,4.73-4.89,46.32,46.32,0,0,0,3.32-4.9c.94-1.59,1.89-3.34,2.82-5.23a11.29,11.29,0,0,1-3,.56l-.59,0h-.59a13.22,13.22,0,0,0,8-5.85,12.25,12.25,0,0,1-4.32,1.19,5.78,5.78,0,0,1-.73,0h-.19a13.23,13.23,0,0,0,3.27-1.25c.2-.1.4-.22.59-.34s.57-.4.85-.6l.53-.43a9.54,9.54,0,0,0,1.13-1.16,3.89,3.89,0,0,0,.32-.39c.15-.21.29-.4.41-.59.61-.87,1.11-1.67,1.53-2.37.2-.35.38-.68.54-1l.19-.35c.17-.34.32-.64.44-.91s.26-.64.37-1h0a2.39,2.39,0,0,1-.43.2,14.88,14.88,0,0,1-4.38.82l2.82.11-2.82-.11h-.51a.09.09,0,0,0,.08,0l-9.66-.35A.11.11,0,0,1,106.52,56Z"/><path class="cls-21" d="M120.05,38.39c-1,1.18-2.17,2.52-3.41,4a1.5,1.5,0,0,0-.19.25C115.37,44,114.24,45.44,113,47c-1,1.39-2.15,2.85-3.3,4.47-1,1.38-2,2.87-3.12,4.44l9.66.34A11.71,11.71,0,0,0,122.07,53c.38-.41.78-.85,1.17-1.31q1.86-2.13,3.49-4.43a49.06,49.06,0,0,0,2.77-4.34,25.48,25.48,0,0,0,1.21-2.39c.27-.63.49-1.23.7-1.82A110.4,110.4,0,0,1,120.05,38.39Z"/><path class="cls-5" d="M109.1,70.27h0Z"/><path class="cls-6" d="M109.1,70.27h0Z"/><path class="cls-22" d="M109.1,70.27h0Z"/></g></g></svg>