<svg xmlns="http://www.w3.org/2000/svg" width="139.412" height="125.475" viewBox="0 0 139.412 125.475"><g transform="translate(-845 -1268)"><path d="M121.846,74.667H53.978c-6.247,0-11.311,11.193-11.311,25v10c0,2.762,1.013,5,2.262,5H64.294c.965.01,1.824,1.352,2.149,3.36l2.466,16.491c.951,6.052,3.526,10.12,6.425,10.15H130.9c1.249,0,2.262-2.239,2.262-5v-40C133.157,85.86,128.093,74.667,121.846,74.667Z" transform="translate(811.333 1193.333)" fill="#fc6d26"/><path d="M101.709,155.135H41.678a2.4,2.4,0,0,1-2.147-1.844l-2.464-9.052c-.952-3.321-3.523-5.553-6.419-5.572H6.781C3.036,138.667,0,142.353,0,146.9a93.392,93.392,0,0,0,2.672,22.308l9.041,36.515c1.432,5.819,5.843,9.8,10.845,9.793H86.385c4.728.016,8.964-3.542,10.618-8.92l9.764-31.629a39.708,39.708,0,0,0,1.722-11.6C108.49,158.821,105.454,155.135,101.709,155.135Z" transform="translate(845 1139.333)" fill="#c7872d"/><g transform="translate(487 -47.173)"><path d="M33.723,71.664h0l17.09-52.592H16.633Z" transform="translate(417.283 1368.97)" fill="#e24329"/><path d="M52.254,71.664,35.163,19.072H11.214Z" transform="translate(398.752 1368.97)" fill="#fc6d26"/><path d="M15.366,19.072h0L10.173,35.053a3.536,3.536,0,0,0,1.286,3.955L56.406,71.677Z" transform="translate(394.6 1368.97)" fill="#fca326"/><path d="M11.214,44.526H35.163L24.853,12.851a1.768,1.768,0,0,0-3.363,0Z" transform="translate(398.752 1343.517)" fill="#e24329"/><path d="M20.5,71.664,37.59,19.072H61.539Z" transform="translate(430.506 1368.97)" fill="#fc6d26"/><path d="M61.539,19.072h0l5.193,15.981a3.536,3.536,0,0,1-1.286,3.955L20.5,71.677Z" transform="translate(430.506 1368.97)" fill="#fca326"/><path d="M48.316,44.543H24.367l10.311-31.7a1.768,1.768,0,0,1,3.363,0Z" transform="translate(443.729 1343.5)" fill="#e24329"/></g></g></svg>