<svg xmlns="http://www.w3.org/2000/svg" viewBox="0 0 123.13 82.27"><defs><style>.cls-1{fill:#73ddef;}.cls-2{fill:#63a7b7;}.cls-3{fill:#153959;}</style></defs><g id="Camada_2" data-name="Camada 2"><g id="Camada_1-2" data-name="Camada 1"><path class="cls-1" d="M96.3,1H12.7A12.27,12.27,0,0,0,.4,13.2a8.08,8.08,0,0,0,.1,1.6,2.49,2.49,0,0,0,2.8,2.1,3.18,3.18,0,0,0,.9-.3,6.44,6.44,0,0,1,3.6-.9H25.3a7.33,7.33,0,0,1,7,5l.4,1.3a12.38,12.38,0,0,0,11.7,8.4h56.8a6.86,6.86,0,0,1,3.7,1,2.47,2.47,0,0,0,3.4-.9,2.66,2.66,0,0,0,.3-1.2V13.2A12.4,12.4,0,0,0,96.3,1Z"/><path class="cls-2" d="M102.9,15a11.29,11.29,0,0,0-5.7-1.5H44.9a6.79,6.79,0,0,1-6.4-4.6l-.4-1.2A11.39,11.39,0,0,0,27.4,0H11.3A10.58,10.58,0,0,0,5.8,1.5,11.27,11.27,0,0,0,0,11.3V65.5A11.35,11.35,0,0,0,11.3,76.8H97.2a11.35,11.35,0,0,0,11.3-11.3h0V24.8A11.2,11.2,0,0,0,102.9,15Z"/><path class="cls-3" d="M106.83,82.27a35.45,35.45,0,0,0,7.54-.62,9.69,9.69,0,0,0,8.14-8.14,35.45,35.45,0,0,0,.62-7.54V58.9a4.67,4.67,0,0,0-4.67-4.67H99.76a4.67,4.67,0,0,0-4.67,4.67V77.6a4.67,4.67,0,0,0,4.67,4.67Z"/><path class="cls-3" d="M76.39,66A36.12,36.12,0,0,0,77,73.51a9.72,9.72,0,0,0,8.14,8.14l.62.13a4.06,4.06,0,0,0,4.64-4.24V58.9a4.67,4.67,0,0,0-4.67-4.67H81.07a4.68,4.68,0,0,0-4.68,4.67Z"/><path class="cls-3" d="M92.7,35.53a35.55,35.55,0,0,0-7.55.62A9.72,9.72,0,0,0,77,44.29c0,.18-.07.35-.11.53a4.14,4.14,0,0,0,4.3,4.73h37.2a4.06,4.06,0,0,0,4.24-4.64c0-.21-.08-.41-.13-.62a10.66,10.66,0,0,0-2.73-5.41,10.69,10.69,0,0,0-5.41-2.73,35.45,35.45,0,0,0-7.54-.62Z"/></g></g></svg>