<svg xmlns="http://www.w3.org/2000/svg" width="122.488" height="114.912" viewBox="0 0 122.488 114.912"><g transform="translate(-662 -1207.488)"><path d="M117.206,53.334H33.653a12.257,12.257,0,0,0-12.17,13.885,2.457,2.457,0,0,0,3.681,1.8,6.96,6.96,0,0,1,3.573-.944h17.5a7.412,7.412,0,0,1,6.989,5l.418,1.347a12.346,12.346,0,0,0,11.656,8.4h56.816a7.372,7.372,0,0,1,3.671.983,2.462,2.462,0,0,0,3.7-2.123V65.621a12.287,12.287,0,0,0-12.281-12.287Z" transform="translate(641 1155.224)" fill="#bbb"/><path d="M102.856,111.089a11.235,11.235,0,0,0-5.664-1.528H44.934a6.817,6.817,0,0,1-6.428-4.6l-.384-1.239A11.355,11.355,0,0,0,27.4,96H11.3a10.816,10.816,0,0,0-5.533,1.46A11.274,11.274,0,0,0,0,107.3v54.247a11.3,11.3,0,0,0,11.3,11.3H97.192a11.3,11.3,0,0,0,11.3-11.3V120.862A11.224,11.224,0,0,0,102.856,111.089Z" transform="translate(662 1111.489)" fill="#707070"/><path d="M86.488,48.244A38.244,38.244,0,1,1,48.244,10,38.244,38.244,0,0,1,86.488,48.244Z" transform="translate(698 1235.912)" fill="#fff" fill-rule="evenodd"/><path d="M50.044,60.926A9.054,9.054,0,0,0,47.467,53.9c8.454-.94,17.328-4.15,17.328-18.727a14.643,14.643,0,0,0-3.9-10.186,13.634,13.634,0,0,0-.38-10.045s-3.181-1.019-10.424,3.893a35.925,35.925,0,0,0-19.005,0c-7.247-4.912-10.435-3.893-10.435-3.893a13.656,13.656,0,0,0-.361,10.045,14.664,14.664,0,0,0-3.907,10.168c0,14.541,8.859,17.8,17.288,18.756a8.126,8.126,0,0,0-2.411,5.06,8.075,8.075,0,0,1-11.042-3.155A7.985,7.985,0,0,0,14.4,51.9s-3.7-.047-.26,2.31a10.041,10.041,0,0,1,4.215,5.548s2.227,7.385,12.785,5.089c0,3.166.051,5.556.051,6.456a2.191,2.191,0,0,1-.116.64,36.789,36.789,0,0,0,19.049,0A2.19,2.19,0,0,1,50,71.321C50,70.078,50.044,65.986,50.044,60.926Z" transform="translate(701.326 1249.146)" fill="#333" fill-rule="evenodd"/></g></svg>