<svg xmlns="http://www.w3.org/2000/svg" width="130.234" height="114.504" viewBox="0 0 130.234 114.504"><g transform="translate(-540 -1481)"><path d="M121.846,74.667H53.978c-6.247,0-11.311,11.193-11.311,25v10c0,2.762,1.013,5,2.262,5H64.294c.965.01,1.824,1.352,2.149,3.36l2.466,16.491c.951,6.052,3.526,10.12,6.425,10.15H130.9c1.249,0,2.262-2.239,2.262-5v-40C133.157,85.86,128.093,74.667,121.846,74.667Z" transform="translate(506.333 1406.333)" fill="#345e75"/><path d="M101.709,155.135H41.678a2.4,2.4,0,0,1-2.147-1.844l-2.464-9.052c-.952-3.321-3.523-5.553-6.419-5.572H6.781C3.036,138.667,0,142.353,0,146.9a93.392,93.392,0,0,0,2.672,22.308l9.041,36.515c1.432,5.819,5.843,9.8,10.845,9.793H86.385c4.728.016,8.964-3.542,10.618-8.92l9.764-31.629a39.708,39.708,0,0,0,1.722-11.6C108.49,158.821,105.454,155.135,101.709,155.135Z" transform="translate(540 1352.333)" fill="#5599bf"/><path d="M85.734,15.781v54.9H10v-54.9H85.734" transform="translate(584.5 1524.823)" fill="#345e75"/><path d="M31.875,17.894a5.961,5.961,0,1,0,3.047,1.684,5.961,5.961,0,0,0-3.047-1.684" transform="translate(622.758 1530.002)" fill="#fff"/><path d="M48.525,41.274,33.8,20.786l-21.862,30.4H41.417q3.56-4.955,7.126-9.907" transform="translate(589.551 1537.878)" fill="#fff"/><path d="M35.959,23.391q-7.555,10.5-15.1,21H51.066Q43.514,33.882,35.959,23.391Z" transform="translate(612.792 1544.668)" fill="#fff"/></g></svg>