<svg xmlns="http://www.w3.org/2000/svg" width="118" height="106.012" viewBox="0 0 118 106.012"><defs><style>.a{fill:#7bb6db;}.b{fill:#5597bf;}.c{fill:#1572b6;}.d{fill:#33a9dc;}.e{fill:#fff;}.f{fill:#ebebeb;}</style></defs><g transform="translate(-53 -317.488)"><path class="a" d="M117.206,53.334H33.653A12.257,12.257,0,0,0,21.483,67.219a2.457,2.457,0,0,0,3.681,1.8,6.96,6.96,0,0,1,3.573-.944h17.5a7.412,7.412,0,0,1,6.989,5l.418,1.347A12.346,12.346,0,0,0,65.3,82.823h56.816a7.372,7.372,0,0,1,3.671.983,2.462,2.462,0,0,0,3.7-2.123V65.621A12.287,12.287,0,0,0,117.206,53.334Z" transform="translate(32 264.225)"/><path class="b" d="M102.856,111.089a11.235,11.235,0,0,0-5.664-1.528H44.934a6.817,6.817,0,0,1-6.428-4.6l-.384-1.239A11.355,11.355,0,0,0,27.395,96H11.3a10.816,10.816,0,0,0-5.533,1.46A11.274,11.274,0,0,0,0,107.3v54.247a11.3,11.3,0,0,0,11.3,11.3H97.192a11.3,11.3,0,0,0,11.3-11.3V120.862A11.224,11.224,0,0,0,102.856,111.089Z" transform="translate(53 221.49)"/><g transform="translate(11 -240.75)"><path class="c" d="M18.49,77.278,12.492,10H78.4l-6,67.268L45.407,84.75Z" transform="translate(81.6 579.5)"/><path class="d" d="M21.75,75.075l21.809-6.048,5.133-57.483H21.75Z" transform="translate(105.296 583.454)"/><path class="e" d="M21.75,30.4H32.671l.751-8.45H21.75V13.7H42.441l-.2,2.214L40.213,38.653H21.75Z" transform="translate(105.296 588.973)"/><path class="f" d="M34.777,30.922l-.036.011L25.55,28.452l-.587-6.582H16.68l1.157,12.957,16.9,4.691.039-.011Z" transform="translate(92.319 609.881)"/><path class="e" d="M31.95,20.613l-.993,11.052-9.2,2.481v8.586l16.915-4.688.125-1.4L40.23,20.613Z" transform="translate(105.311 606.664)"/><path class="f" d="M36.621,13.7v8.251H16.691L16.524,20.1l-.374-4.182-.2-2.214Z" transform="translate(90.453 588.973)"/><path class="f" d="M28.8,18.393v8.255H19.731l-.164-1.855-.377-4.186-.2-2.214Z" transform="translate(98.242 600.982)"/></g></g></svg>