<svg xmlns="http://www.w3.org/2000/svg" viewBox="0 0 130.24 97.77"><defs><style>.cls-1{fill:#7ba2db;}.cls-2{fill:#5576bf;}.cls-3{fill:#3d66b8;stroke:#a1aace;stroke-miterlimit:133.33;stroke-width:10px;}</style></defs><g id="Camada_2" data-name="Camada 2"><g id="Camada_1-2" data-name="Camada 1"><path class="cls-1" d="M96.3,1H12.7A12.27,12.27,0,0,0,.4,13.2a8.08,8.08,0,0,0,.1,1.6,2.49,2.49,0,0,0,2.8,2.1,3.18,3.18,0,0,0,.9-.3,6.44,6.44,0,0,1,3.6-.9H25.3a7.33,7.33,0,0,1,7,5l.4,1.3a12.38,12.38,0,0,0,11.7,8.4h56.8a6.86,6.86,0,0,1,3.7,1,2.47,2.47,0,0,0,3.4-.9,2.66,2.66,0,0,0,.3-1.2V13.2A12.4,12.4,0,0,0,96.3,1Z"/><path class="cls-2" d="M102.9,15a11.29,11.29,0,0,0-5.7-1.5H44.9a6.79,6.79,0,0,1-6.4-4.6l-.4-1.2A11.39,11.39,0,0,0,27.4,0H11.3A10.58,10.58,0,0,0,5.8,1.5,11.27,11.27,0,0,0,0,11.3V65.5A11.35,11.35,0,0,0,11.3,76.8H97.2a11.35,11.35,0,0,0,11.3-11.3h0V24.8A11.2,11.2,0,0,0,102.9,15Z"/><g id="SVGRepo_iconCarrier" data-name="SVGRepo iconCarrier"><path class="cls-3" d="M74.54,82.26l6.85,6.84a12.64,12.64,0,0,0,17.82,0l6.85-6.84a3.54,3.54,0,0,0,0-5L92.75,64a3.49,3.49,0,0,0-4.93,0L74.51,77.29A3.57,3.57,0,0,0,74.54,82.26Z"/><path class="cls-3" d="M114.72,73.58l6.85-6.84a12.66,12.66,0,0,0,0-17.82l-6.85-6.85a3.46,3.46,0,0,0-4.92,0L96.48,55.38a3.49,3.49,0,0,0,0,4.93l13.28,13.27A3.51,3.51,0,0,0,114.72,73.58Z"/><path class="cls-3" d="M59,66.74l6.85,6.84a3.47,3.47,0,0,0,4.93,0L84.12,60.27a3.48,3.48,0,0,0,0-4.92L70.81,42a3.49,3.49,0,0,0-4.93,0L59,48.88A12.71,12.71,0,0,0,59,66.74Z"/><path class="cls-3" d="M106.06,33.41l-6.85-6.85a12.66,12.66,0,0,0-17.82,0l-6.84,6.85a3.47,3.47,0,0,0,0,4.93L87.86,51.65a3.48,3.48,0,0,0,4.92,0L106.1,38.34A3.53,3.53,0,0,0,106.06,33.41Z"/></g></g></g></svg>