<svg xmlns="http://www.w3.org/2000/svg" xmlns:xlink="http://www.w3.org/1999/xlink" width="141.768" height="110.423" viewBox="0 0 141.768 110.423"><defs><style>.a{fill:#7ba2db;}.b{fill:#5580bf;}.c{fill:url(#a);}.d{fill:#6280b6;}.e{fill:#fff;}.f{fill:#000004;}</style><radialGradient id="a" cx="0.3" cy="0.176" r="1.248" gradientTransform="translate(-0.456) scale(0.526 1)" gradientUnits="objectBoundingBox"><stop offset="0" stop-color="#fff"/><stop offset="0.5" stop-color="#4c6b96"/><stop offset="1" stop-color="#231f20"/></radialGradient></defs><g transform="translate(-187 -317)"><path class="a" d="M121.846,74.667H53.978c-6.247,0-11.311,11.193-11.311,25v10c0,2.762,1.013,5,2.262,5H64.294c.965.01,1.824,1.352,2.149,3.36l2.466,16.491c.951,6.052,3.526,10.12,6.425,10.15h55.561c1.249,0,2.262-2.239,2.262-5v-40C133.157,85.86,128.093,74.667,121.846,74.667Z" transform="translate(153.333 242.333)"/><path class="b" d="M101.709,155.135H41.678a2.4,2.4,0,0,1-2.147-1.844l-2.464-9.052c-.952-3.321-3.523-5.553-6.419-5.572H6.781C3.036,138.667,0,142.353,0,146.9a93.392,93.392,0,0,0,2.672,22.308l9.041,36.515c1.432,5.819,5.843,9.8,10.845,9.793H86.385c4.728.016,8.964-3.542,10.618-8.92l9.764-31.629a39.708,39.708,0,0,0,1.722-11.6C108.49,158.821,105.454,155.135,101.709,155.135Z" transform="translate(187 188.333)"/><g transform="translate(76 -113.377)"><ellipse class="c" cx="53.634" cy="28.212" rx="53.634" ry="28.212" transform="translate(145.5 484.377)"/><ellipse class="d" cx="51.54" cy="26.117" rx="51.54" ry="26.117" transform="translate(147.594 486.471)"/><path class="e" d="M61.523,50.612l2.554-13.158a6.712,6.712,0,0,0-1.425-6.584,11.238,11.238,0,0,0-7.662-2.013H50.572l1.267-6.518a.838.838,0,0,0-.822-1.022h-6.13a.838.838,0,0,0-.822.679L41.378,35.983a7.856,7.856,0,0,0-1.829-4.035,10.66,10.66,0,0,0-8.428-3.09H19.27a.838.838,0,0,0-.822.679l-5.5,28.273a.838.838,0,0,0,.822,1.022h6.15a.838.838,0,0,0,.822-.679l1.328-6.84h4.6a19.794,19.794,0,0,0,6.007-.776,11.749,11.749,0,0,0,4.408-2.641,13.557,13.557,0,0,0,2.605-3.233l-1.1,5.649a.838.838,0,0,0,.822,1.022h6.13a.838.838,0,0,0,.822-.679l3.014-15.518h4.194c1.788,0,2.309.358,2.452.511s.4.633.1,2.181L53.693,50.337a.838.838,0,0,0,.822,1.022h6.206a.838.838,0,0,0,.8-.746ZM33.2,39.737a6.7,6.7,0,0,1-2.15,4.183,8.316,8.316,0,0,1-5.037,1.231H23.29l1.961-10.134h3.53c2.595,0,3.637.557,4.056,1.022a4.526,4.526,0,0,1,.368,3.7Z" transform="translate(148.051 470.42)"/><path class="e" d="M48.963,25.915a10.66,10.66,0,0,0-8.428-3.09H28.689a.838.838,0,0,0-.822.679l-5.5,28.273a.838.838,0,0,0,.822,1.022h6.16a.838.838,0,0,0,.822-.679l1.328-6.84h4.6a19.793,19.793,0,0,0,6.007-.776,11.748,11.748,0,0,0,4.408-2.641,13.122,13.122,0,0,0,4.122-7.381,9.624,9.624,0,0,0-1.675-8.566Zm-6.39,7.79a6.7,6.7,0,0,1-2.15,4.183,8.316,8.316,0,0,1-5.036,1.231H32.658L34.63,28.98h3.53c2.595,0,3.637.557,4.056,1.022a4.526,4.526,0,0,1,.358,3.7Z" transform="translate(186.745 476.457)"/><path class="f" d="M28.087,27.453a6.3,6.3,0,0,1,4.679,1.3,5.108,5.108,0,0,1,.557,4.449,7.453,7.453,0,0,1-2.462,4.684,9.046,9.046,0,0,1-5.547,1.4H21.569l2.3-11.835ZM13.1,51.266h6.13l1.461-7.519h5.282a18.9,18.9,0,0,0,5.746-.736,10.88,10.88,0,0,0,4.086-2.462,12.259,12.259,0,0,0,3.867-6.926A8.8,8.8,0,0,0,38.2,25.793a9.838,9.838,0,0,0-7.795-2.8H18.576Z" transform="translate(148.746 477.121)"/><path class="f" d="M23.624,21.486h6.13L28.267,29h5.445A10.6,10.6,0,0,1,40.8,30.8a5.93,5.93,0,0,1,1.17,5.808L39.418,49.764H33.211l2.431-12.509a3.4,3.4,0,0,0-.306-2.912,4.3,4.3,0,0,0-3.065-.776H27.388l-3.147,16.2h-6.13Z" transform="translate(169.335 471.11)"/><path class="f" d="M37.514,27.453a6.3,6.3,0,0,1,4.679,1.3A5.108,5.108,0,0,1,42.75,33.2a7.453,7.453,0,0,1-2.462,4.684,9.046,9.046,0,0,1-5.547,1.4H31l2.3-11.835ZM22.507,51.266h6.16l1.466-7.519H35.41a18.9,18.9,0,0,0,5.747-.736,10.88,10.88,0,0,0,4.086-2.462,12.259,12.259,0,0,0,3.867-6.926,8.8,8.8,0,0,0-1.476-7.831,9.838,9.838,0,0,0-7.795-2.8H28Z" transform="translate(187.39 477.121)"/></g></g></svg>