<svg xmlns="http://www.w3.org/2000/svg" width="108.493" height="96.022" viewBox="0 0 108.493 96.022"><defs><style>.a{fill:#ffa000;}.b{fill:#ffc107;}.c{fill:#7d6a4c;}.d{fill:#644d31;}.e{fill:#885630;}.f{fill:#fff;}.g{fill:#1a1a1a;}.h{fill:#2e2e2e;}.i{fill:#f6e5cc;}</style></defs><g transform="translate(-29 -319.488)"><path class="a" d="M117.206,53.334H33.653A12.257,12.257,0,0,0,21.483,67.219a2.457,2.457,0,0,0,3.681,1.8,6.96,6.96,0,0,1,3.573-.944h17.5a7.412,7.412,0,0,1,6.989,5l.418,1.347A12.346,12.346,0,0,0,65.3,82.823h56.816a7.372,7.372,0,0,1,3.671.983,2.462,2.462,0,0,0,3.7-2.123V65.621A12.287,12.287,0,0,0,117.206,53.334Z" transform="translate(8 266.225)"/><g transform="translate(-5 85)"><g transform="translate(16 -18)"><path class="b" d="M102.856,111.089a11.235,11.235,0,0,0-5.664-1.528H44.934a6.817,6.817,0,0,1-6.428-4.6l-.384-1.239A11.355,11.355,0,0,0,27.395,96H11.3a10.816,10.816,0,0,0-5.533,1.46A11.274,11.274,0,0,0,0,107.3v54.247a11.3,11.3,0,0,0,11.3,11.3H97.192a11.3,11.3,0,0,0,11.3-11.3V120.862A11.224,11.224,0,0,0,102.856,111.089Z" transform="translate(18 156.49)"/></g></g><g transform="translate(-55 -233.585)"><path class="c" d="M49.825,51.025l9.431-3.843.156-3.334,1.639-3.384.359-3.746,1.845-5.638L65.3,26.364l-.181-1.13-.312-1.027.206-1.171-.362-1.4.206-.971-1.845-2.254-8.2,2.872.359,1.077-.765,1.283.715,2.2L54,28.057l1.589,4.767,3.384,1.792c-.156.05-4.305-.359-4.305-.359l.971,2-1.127,3.122-1.333.668-1.127.359-2.2,2.56-1.639,4.059,1.383,4Zm-34.7-28.31,8.367.958,1.077,5.307-1.82,4.3,1.015.737,1.751,4.864,2.042,2.26,1.4.849,2.5,2.376,2.888,2.148-1.021,2.2.172,1.639-.34.908-.624,1.751L26.5,51.265l.172-1.021-.849-1.127.284-1.077L17.844,42l-.624-1.53-1.8-.574-.056-12.956-.737-1.873Z" transform="translate(119.327 591.362)"/><path class="d" d="M56.952,31.925a3,3,0,0,0-.468-.062.937.937,0,0,0-.144,0,.312.312,0,0,0-.275.219,1.4,1.4,0,0,0-.041.184.2.2,0,0,0,0,.062c.412.15.821.312,1.249.453H57.3C57.286,32.412,57.4,32.022,56.952,31.925Zm-.312,4.215.05.069a.623.623,0,0,1,.05.1,6.619,6.619,0,0,1,.518.659h0v.022c0-.172.1-.593-.022-.737s-.415-.116-.609-.106Zm3.581-4.371a.071.071,0,0,0-.044.134h0a.069.069,0,0,0,.031-.131Zm0-7.727c0,.418,0,.668.468.668s.8.034.821-.5c0-.184.056-.546-.1-.687s-.434-.062-.587-.078c-.518-.041-.624.05-.6.587Zm-1.6,3.4c.084-.106.034-.384.028-.5a1.792,1.792,0,0,0-.078-.609c-.144-.184-.837-.128-1.015,0s-.247,1.027,0,1.136c.153.056.937.119,1.055-.031ZM31.736,48.668s.022-.041.028-.056a.346.346,0,0,0,.028-.15.723.723,0,0,0-.022-.212,1.184,1.184,0,0,0,0-.156.087.087,0,0,1-.028-.056v-.059a.768.768,0,0,0,0-.128,3.383,3.383,0,0,0-.028-.375h-.206a2.141,2.141,0,0,0-.821,0c-.144.069-.162.234-.172.406v.334c0,.256,0,.418.275.5a1.873,1.873,0,0,0,.821,0,.1.1,0,0,1,.106-.062Zm.821-1.061-.1-.028a1.81,1.81,0,0,1-.518.078c0,.056.028.119.028.178a1.474,1.474,0,0,1,0,.178.1.1,0,0,1-.022.062q0,.081,0,.162h0a.2.2,0,0,0,0,.062v.034a.936.936,0,0,0,.028.178.872.872,0,0,1,.022.144h.119a.78.78,0,0,1,.078-.347c.106-.234.284-.481.384-.7h-.034Zm-.524,1.417V49.1h-.091v.624q-.005.106,0,.212c.05.122.15.134.234.162s.2-.022.312-.028h0a4.889,4.889,0,0,0-.234-1.043Zm.091,1.324a.312.312,0,0,0-.15.078c-.091.128-.041.44-.034.624v.05a.9.9,0,0,0,.312-.234.912.912,0,0,0,.2-.537l-.284.034Zm17.227-1.58c.284,0,.587.056.759-.091a1.03,1.03,0,0,0,.112-.565,1.058,1.058,0,0,0-.106-.565,2.232,2.232,0,0,0-1.055-.05.468.468,0,0,0-.134.406v.262a1.286,1.286,0,0,1-.022.234v.034a2.525,2.525,0,0,0,.078.247v.056h.247c.087-.012.122-.012.137.016ZM61.085,31.91c-.234-.034-.731-.078-.859.15a1.792,1.792,0,0,0,.056,1c.134.172.546.134.837.116a.9.9,0,0,1,.134,0,.509.509,0,0,1-.056-.128.178.178,0,0,0,0-.084.715.715,0,0,1,.091-.356l.022-.041h0c-.119-.331.231-.6-.209-.668Zm-43.12-7.271c.206.106.987.112,1.083-.128s-.2-1.046.194-1.118a.468.468,0,0,0-.29-.05c-.312.212-.843-.144-1.077.15-.165.19-.137,1.012.087,1.133ZM57.2,46.18a.375.375,0,0,0-.219-.1c-.234-.034-.7-.069-.855.128a1.427,1.427,0,0,0-.034,1.015.425.425,0,0,0,.312.122,3.022,3.022,0,0,1,.44,0h.309l.078-.034-.022-.262c-.022-.312,0-.593,0-.874Zm-3.681-1.545h0c-.39,0-.312.4-.312.681,0,.425-.034.553.406.565.234,0,.659.084.815-.156s0-.574.041-.855a.234.234,0,0,1,.034-.1c-.05-.056-.106-.162-.156-.162a.646.646,0,0,0-.116,0,2.516,2.516,0,0,1-.727,0Zm-29.128,0c-.206-.022-.743-.078-.874.106a2.326,2.326,0,0,0-.05,1.005.34.34,0,0,0,.069.034.15.15,0,0,0,.05-.078.1.1,0,0,1,0,.062l-.022.028.156.106a2.473,2.473,0,0,1,.724-.022c.375.022.284-.378.284-.624-.006-.322.05-.571-.337-.609Zm30.96-22.84h.312a.256.256,0,0,1,.2-.119.79.79,0,0,0,.028-.15.131.131,0,0,1-.034-.078,3.885,3.885,0,0,0-.069-.49h0c-.331.206-.524.056-.418.593a.986.986,0,0,1,0,.24Zm.206,1.417c.268,0,.234-.593.234-.759,0-.069.028-.156.028-.234a.25.25,0,0,1-.2-.19h-.312a4.8,4.8,0,0,1-.743,1.005,1.36,1.36,0,0,1,0,.172,6.879,6.879,0,0,0,1.015,0Zm3.056,8.741a1.655,1.655,0,0,0-1.061,0c-.247.206-.022.659-.172.937l.312.2a1.468,1.468,0,0,1,.134.091l.041.028.022-.022a.122.122,0,0,1,.172,0c.19-.1.468.069.624-.144a1.745,1.745,0,0,0-.041-1.077ZM16.135,37.61c-.212-.19-.715.022-.993-.112a5.65,5.65,0,0,0-.19.965,1.486,1.486,0,0,0,.034.347h0c.331,0,1.289.178,1.249-.347C16.2,38.213,16.332,37.788,16.135,37.61Zm42.477-.284c.19-.172.084-.731.084-.937,0-.347-.821-.312-1.049-.219-.34.156-.119.687-.256.993a.518.518,0,0,0,.162.234c.244-.006.852.106,1.058-.072Zm2.666-16.9c.184,0,.268-.234.29-.468a.833.833,0,0,0,.05.234v.022h0c.1.234.312.187.456.187.284,0,.668.069.759-.2a4.058,4.058,0,0,0,.028-.937.468.468,0,0,0-.134-.1,1.424,1.424,0,0,0-.425,0c-.178,0-.524-.022-.624.144a.7.7,0,0,0-.112.359.989.989,0,0,0-.078-.312c-.19-.331-.624-.022-.809-.247l-.128.05a.281.281,0,0,1-.275.219c0,.15-.034.378-.034.565a.849.849,0,0,0,.078.378c.15.212.746.106.958.106ZM26.688,50.139c.284,0,.624.084.793-.128a1.68,1.68,0,0,0,.034-1.021c-.091-.156-.849-.172-1.021-.084-.284.144-.15.574-.219.865.034.162.247.284.384.353Zm23.927-6.868c-.19,0-.234.172-.234.359v.537c0,.206.069.284.368.312.15,0,.624.084.765-.034l.034-.034a1.639,1.639,0,0,0,.134-.546c0-.2-.091-.384-.091-.565h0a1.7,1.7,0,0,0-.284-.028ZM20.247,41.816c-.206,0-.765-.106-.937.05s-.1.624-.078.849v.069a2.222,2.222,0,0,0,.359.275.275.275,0,0,1,.15.022h0c.312-.116.681.128.724-.359.031-.237.137-.912-.219-.912Zm38.4-6.615a1.729,1.729,0,0,1-.028-.268,3.574,3.574,0,0,0-.9-.234H57.5a1.979,1.979,0,0,0,0,1.055c.084.2.234.212.44.234s.593.078.724-.069.028-.425.034-.624a.1.1,0,0,1-.034-.078ZM54.432,48.219c0-.2.069-.44,0-.574-.119-.206-.624-.184-.874-.172h0c-.1.1-.172,0-.219-.028h0a1.755,1.755,0,0,0-.106,1.061.287.287,0,0,0,.119.19c.078.041.178,0,.29.022a.815.815,0,0,1,.184-.062,1.473,1.473,0,0,1,.4-.034l.368-.172a.14.14,0,0,1-.091,0,.36.36,0,0,0,.091,0,.256.256,0,0,1-.134-.222Zm-4.283-3.534h-.006a4.683,4.683,0,0,0-.89-.037c-.112.247-.234.5-.34.737.056.184.022.384.212.49a1.9,1.9,0,0,0,.771.022c.518-.1.234-.674.368-1.077a.552.552,0,0,1-.056-.116ZM21.917,31.107c-.034-.212,0-.6-.219-.6a2.909,2.909,0,0,0-.887,0c-.184.091-.134.4-.15.609s-.069.434.084.574a1.37,1.37,0,0,0,.646.156,3.536,3.536,0,0,1,.347-.384l.028-.028h0c.05-.106.091-.219.144-.312ZM31.673,50.36a1.523,1.523,0,0,0-.834-.037c-.234.05-.256.119-.275.368,0,.162-.084.674.041.8s.681.078.859.078h0c.069-.212.256-.275.4-.406v-.05c-.059-.244.069-.624-.172-.762Zm25.6-14.608c.069-.234.084-.843-.134-.977a1.776,1.776,0,0,0-1,0c-.15.128-.084.312-.069.5v.034a1.436,1.436,0,0,1-.022.347l.353.312c.034,0,.069.034.1.05.312-.153.668.1.777-.287ZM17.287,37.567c-.553.05-.837-.106-.88.565,0,.178-.084.481.062.624a.275.275,0,0,0,.234.056h0a.368.368,0,0,1,.275.041.1.1,0,0,1,.028.028c.144-.106.453-.368.5-.106a.147.147,0,0,1,0,.1c.2-.312.331-1.358-.228-1.308ZM56.034,21.554c.022.19.128.234.312.268s.743.056.88-.106a2.082,2.082,0,0,0,.05-.815c0-.234-.069-.375-.347-.384-.184.056-.378.119-.553.19A1.979,1.979,0,0,1,56,20.88a3.044,3.044,0,0,1,.078.565.094.094,0,0,1-.056.1ZM25.092,46.071c-.29.1-.178.375-.212.624v.156a.846.846,0,0,1,.144.134l.022.028c.128.1.262.2.39.29a.234.234,0,0,1,.062-.028.357.357,0,0,1,.091,0,.453.453,0,0,1,.156.041.409.409,0,0,0,.347-.1c.128-.144.034-.724.034-.908C26.141,45.921,25.329,45.993,25.092,46.071Zm3.568,4.215a2.107,2.107,0,0,0-.759.031c-.275.128-.2.587-.184.88v.084a12.408,12.408,0,0,0,1.249.312.312.312,0,0,1,0-.078c0-.128.028-.262.022-.4-.025-.347.1-.777-.312-.846ZM53.19,46.18a3.628,3.628,0,0,0,.29,1.183,1.639,1.639,0,0,1,.668-.056c.212,0,.256-.106.29-.29a2.138,2.138,0,0,0,0-.793c-.14-.312-.99-.2-1.249-.047Zm-2.432-3.122a1.708,1.708,0,0,1,.5-.028.515.515,0,0,1,.284.128c-.041-.375-.134-.743-.156-1.121,0-.144.156-.793-.028-.855-.05,0-.134.062-.234.184-.29.34-.7,1.049-.821,1.171.1.312.031.571.456.518Zm13.359-18.11a.724.724,0,0,0-.206-.116h-.334l-.028.022a1.193,1.193,0,0,1-.418.2,2.587,2.587,0,0,0,0,.581c0,.178-.028.353.144.453a1.155,1.155,0,0,0,.581.041,2.568,2.568,0,0,0,.29-.05v.19a1.986,1.986,0,0,1-.34-.022,1.108,1.108,0,0,0-.546.05c-.234.128-.106.412-.1.624,0,.39,0,.468.15.537.069.028.172.062.312.112.172-.434.509-.793.509-1.289a.384.384,0,0,0,.056-.234c.062-.312.134-.624.212-.937a.656.656,0,0,1-.287-.172Zm-8.56,2.7a2.792,2.792,0,0,1-.593,0,7.181,7.181,0,0,0-.234,1.005.771.771,0,0,1,.234.262c.275.022.737.084.874-.128a1.115,1.115,0,0,0,.028-.468c0-.268.087-.646-.312-.659ZM51.629,49.124v-.031h0c-.053-.256-.268-.209-.493-.209s-.559-.078-.7.078a1.208,1.208,0,0,0,0,1,.406.406,0,0,0,.178.219h0c.353-.172.752-.347,1.136-.49a.312.312,0,0,1-.119-.262A1.4,1.4,0,0,0,51.629,49.124Zm3.943-8.72a1.814,1.814,0,0,1-.78-.062,4.761,4.761,0,0,0,0,1.417c.034-.34.874.062,1.049-.262a2.02,2.02,0,0,0,.041-.771c0-.228-.034-.35-.312-.312Zm.268-16.883c.022-.128-1.193-.284-1.289.178a3.278,3.278,0,0,0,.559.993c.091-.034.178-.062.268-.091a.109.109,0,0,1,.128.05.359.359,0,0,0,.287-.087c.187-.206,0-.8.044-1.043Zm3.278,9.8c-.418.116-.078.418-.247.668l.062.078a1.56,1.56,0,0,1,.312.119.481.481,0,0,1,.275.375c.184,0,.418.056.531-.091a2.076,2.076,0,0,0-.028-1.061c-.137-.181-.724-.144-.937-.087ZM22.679,39.237a3.681,3.681,0,0,1-.624.028,2.907,2.907,0,0,0,0,.7c.056.275.262.247.509.256.353,0,.765.069.8-.4-.122-.234-.312-.434-.418-.674A1.171,1.171,0,0,1,22.679,39.237ZM21.205,36.1a7.848,7.848,0,0,0-.609,1.027c.078.275.275.275.518.275s.624.091.765-.134a2.054,2.054,0,0,0,0-.937c-.128-.306-.44-.1-.674-.24Zm4.215,5.132a.169.169,0,0,1,.069.078c0,.062-.05.116-.134.15-.15.056-.312-.062-.434-.084h0c0,.312.771.4,1.005.284s.212-.312.206-.518a.234.234,0,0,1-.206-.259h0a.468.468,0,0,1,0-.1,7.58,7.58,0,0,1-1.083-1.1h0c.081.543-.006,1.161.562,1.536Zm30.167.553a2.931,2.931,0,0,1-.787.022v.312a4.215,4.215,0,0,0,.062.937c.353,0,.937.172,1.015-.284a3.56,3.56,0,0,0,.034-.446c0-.262-.069-.537-.312-.537Zm.05,4.105c.312-.116.234-.34.234-.624,0-.234.116-.6-.234-.6a1.371,1.371,0,0,1-.609-.056c.034.256.062.509.1.809a3.674,3.674,0,0,0-.312-.284,2.055,2.055,0,0,1-.2-.19.469.469,0,0,1,0,.091c-.022.247-.091.715.084.837a2.248,2.248,0,0,0,.937.016Zm-.15-6.868c-.178-.069-.39.062-.524-.134a4.327,4.327,0,0,0-.162,1.4c.453-.212,1.043.19,1.071-.468,0-.091.034-.312.034-.468a.49.49,0,0,0-.034-.234c-.081-.144-.237-.109-.387-.109ZM19.37,34.754c-.212.128-.144.49-.134.7,0,.581.262.5.771.5h.028a4.917,4.917,0,0,0,.368-1.171h0a1.758,1.758,0,0,0-1.033-.028ZM62.555,29.2a1.247,1.247,0,0,1-.156,0h-.022a.35.35,0,0,0,.128,0,.881.881,0,0,0-.134,0,.125.125,0,0,1-.119-.122v-.028c-.312-.028-.668,0-.687.34v.234a1.249,1.249,0,0,0,.1.574.312.312,0,0,0,.184.128.1.1,0,0,1,.084-.05h.4c-.034-.069-.106-.062-.184-.078.084,0,.178,0,.212.078h.069a9.459,9.459,0,0,0,.475-1.033,2.532,2.532,0,0,1-.312-.05ZM30.643,44.6h-.028c-.078.29-.234,1.227.162,1.277a2.407,2.407,0,0,0,.874,0c.275-.112.078-.29.212-.481a3.434,3.434,0,0,0-1.221-.8Zm28.41-23.758a1.1,1.1,0,0,1,.156-.212,1.639,1.639,0,0,0-.262.022.39.39,0,0,0-.056.262c.053-.094.034-.094.15-.072Zm-.069-.468.028.022h1.08a1.979,1.979,0,0,0,.056-.815h-.312v-.234a2.139,2.139,0,0,0-.359.15s-.028.022-.041.034a1.717,1.717,0,0,1-.587.384v.34h.022a.524.524,0,0,0,.091.125Zm.331,1.439c.29,0,.737.106.815-.247a2.891,2.891,0,0,0-.05-.652.752.752,0,0,0,0-.268,2.671,2.671,0,0,1-.34,0c-.041.022-.084.05-.119.069a.144.144,0,0,0,.062-.069h-.453a1.037,1.037,0,0,0-.162.212c-.1-.028-.084,0-.162.069,0,.475-.153.893.415.908ZM52.056,45.83h.028a.2.2,0,0,0,.062,0,1.849,1.849,0,0,1,.2,0c-.134-.418-.312-.827-.468-1.249a1.577,1.577,0,0,0-.078.378,1.427,1.427,0,0,0,.028.659.406.406,0,0,0,.212.209Zm.234.234a1.087,1.087,0,0,0-.212,0h-.05a.234.234,0,0,0-.156.078c-.134.162-.041.624-.034.815a.914.914,0,0,0,.022.172.312.312,0,0,1,.091.128.79.79,0,0,0,.384.041c.234,0,.524.056.715-.091a.334.334,0,0,0,.069-.069c-.219-.359-.44-.715-.668-1.077a1.25,1.25,0,0,0-.19,0ZM21.945,23.783c-.446-.069-.9-.134-1.327-.206s-.937-.112-1.346-.172a3.746,3.746,0,0,0,0,.937c0,.39.234.312.587.29.234,0,.524.069.624-.2s-.069-.531.119-.815c.219.5-.2,1.015.524,1.021.178,0,.553.078.7-.034s.116-.646.134-.815v-.022h0Zm-6.163,13.6c.537.05.468-.4.468-.843,0-.509-.434-.39-.849-.4a6.765,6.765,0,0,0-.234,1.249c.194,0,.4-.031.606-.012Zm5.526,5.807h0c-.518,0-.537.022-.674.468a.247.247,0,0,0,0,.069h0a13.772,13.772,0,0,0,1.136.793l.022-.028a1.111,1.111,0,0,0,.178-.7,1.249,1.249,0,0,0-.05-.406c-.131-.243-.365-.194-.621-.194Zm1.717-14.28a4.7,4.7,0,0,0,.034-.481c-.041-.256-.091-.518-.134-.771h-.565c-.19,0-.234.091-.275.234a3.185,3.185,0,0,0,0,.78c.1.34.6.253.937.231Zm26.92,19.98h-.581a.125.125,0,0,1-.091.041h-.184a4.721,4.721,0,0,0,.347,1.121.9.9,0,0,1,.234.05c.162-.062.453.116.537-.234v-.019a2.027,2.027,0,0,0,.041-.406c0-.272-.059-.562-.312-.556Zm5.679-5.657h-.759c.056.434.112.865.178,1.3.312-.134.731.1.837-.29.059-.256.125-1.03-.256-1.024Zm.234-5.27a.419.419,0,0,1,0-.134.119.119,0,0,0-.1-.137h-.072a.958.958,0,0,0-.624.659v.041l-.062.44c.234,0,.674.062.865-.134a2.84,2.84,0,0,1-.022-.546,1.01,1.01,0,0,1,.031-.2Zm3.687-3.225v.022c.122.15.553.609.284.646a2.1,2.1,0,0,1-.368-.184,3.278,3.278,0,0,0-.559-.2v.028a.363.363,0,0,0,0,.084.112.112,0,0,1-.028.1c-.022.256-.034.587.15.7a1.492,1.492,0,0,0,.993-.022c.19-.15.156-.743.106-.958-.066-.312-.312-.234-.574-.228Zm-44.038-.016a1.561,1.561,0,0,1-.184.412l.062.765v.078c.481,0,.837.112.849-.446,0-.219.084-.624-.1-.771s-.434-.009-.64-.037Zm8.276,5.651-.047-.041h0c-.268.15-.412,1.049-.144,1.249.106.084.368.041.5.041.312,0,.659.05.715-.34a9.618,9.618,0,0,1-1.061-.955Zm8.741,5.638H32.5c-.134.084-.312,0-.418.144s-.062.509-.069.668c-.028.509.162.425.44.481a.094.094,0,0,1,.084,0,.64.64,0,0,0,.19.05h.041a1.218,1.218,0,0,0,.234-.652,1.071,1.071,0,0,0-.481-.687ZM64,22.2a.1.1,0,0,1-.069.041h-.028c-.122,0-.353-.022-.453.062s-.084.256-.106.359l-.041.19-.022.091c.247.091.624.256.78.15.069-.05.106-.425.122-.518a1.722,1.722,0,0,0,.022-.262A.884.884,0,0,1,64.132,22H64.1a.125.125,0,0,1-.056.165ZM30.256,45.868c.184-.256.212-.915-.112-1a.487.487,0,0,1-.144.05l-.219.022a1.286,1.286,0,0,1-.234,0c-.106.15-.212.312-.312.44a.312.312,0,0,1-.091.353.25.25,0,0,1-.1.144h0c.312.106,1.04.194,1.183-.009ZM55.65,26.237a.134.134,0,0,1-.062.028,1.6,1.6,0,0,1-.184,0,.253.253,0,0,1-.19.144l-.022.056h0a3.684,3.684,0,0,1-.156,1.005c.312,0,.731.091.837-.234.075-.24.137-1.03-.215-1.036Zm.234-.646c0-.156.078-.546-.034-.681a.409.409,0,0,0-.312-.091.116.116,0,0,1-.05.028,1.3,1.3,0,0,0-.178.056,1.077,1.077,0,0,1,.116,1.115v.028a1.368,1.368,0,0,0,.172,0h.066c.169-.078.225-.144.225-.462Zm7.09-3.334c0-.234-.268-.284-.524-.284a1.9,1.9,0,0,0-.368.022c-.331.022-.425.347-.378.659a.9.9,0,0,0,.1.312c.375-.359.793-.156,1.249-.069a.935.935,0,0,1-.041-.128,2.466,2.466,0,0,1-.025-.518ZM54.126,44.476a1.251,1.251,0,0,1,.156,0,4.333,4.333,0,0,1-.537-1.3.393.393,0,0,0-.156.069l-.034.022a.131.131,0,0,1-.144-.028c-.184.034-.234.275-.234.524a4.2,4.2,0,0,0,.062.49C53.308,44.575,53.777,44.5,54.126,44.476Zm1.143-14.111c.178-.112.375.028.531-.134s.056-.674.069-.88c.022-.39-.518-.234-.821-.234v.078a.256.256,0,0,1-.062.172c.087.353.175.662.275,1ZM58.7,37.888a.084.084,0,0,1,0-.056c0-.434-.752-.268-1.021-.262h0a9.831,9.831,0,0,1,.509,1.249h-.056c.172,0,.412.05.524-.1s.041-.584.031-.818ZM22.439,26.228c-.49-.041-.375.518-.368.843,0,.6.425.268.837.468-.091-.49-.184-.977-.275-1.474a.162.162,0,0,1-.162.165ZM50.068,44.419c.162-.128.106-.406.106-.587h0c0-.284,0-.44-.106-.524-.022,0-.034-.041-.062-.041h-.312c-.156.425-.275.793-.4,1.2h0C49.5,44.463,49.912,44.544,50.068,44.419ZM27.524,50.551c0,.059.016.125,0,0h0c-.037-.312-.5-.281-.837-.253a.128.128,0,0,1-.156.041.066.066,0,0,0-.044-.022,3.861,3.861,0,0,0,0,.406.087.087,0,0,0,0,.041h0a.387.387,0,0,0,.172.268,3.55,3.55,0,0,0,.965.234A.256.256,0,0,1,27.6,51.2a1.774,1.774,0,0,1-.059-.652Zm-5.4-11.863a2.069,2.069,0,0,0,.468-.022.662.662,0,0,0,.219-.091c-.034-.268-.078-.531-.134-.8a.937.937,0,0,1-.134-.156.528.528,0,0,1-.05-.084c-.162.028-.347.041-.425.19a1.908,1.908,0,0,0,0,.752.443.443,0,0,0,.072.219Zm33.5,8.773c-.212,0-.752-.106-.937.05-.091.078-.106.378-.1.624v.29l1.108-.5a.568.568,0,0,1,.144-.284l-.028-.069a.2.2,0,0,0-.2-.109Zm7.6-25.706a.571.571,0,0,0,.368.091.087.087,0,0,1,.056-.041.64.64,0,0,1,.144-.041h.041A.8.8,0,0,1,63.7,21.3a.662.662,0,0,1,.156-.587,1.035,1.035,0,0,1,.034-.112,2.89,2.89,0,0,0-.353,0,.624.624,0,0,0-.172.022c-.284.078-.247.234-.247.5C63.121,21.286,63.058,21.6,63.22,21.754Zm-41.044,2.81a.624.624,0,0,0,.2,0h.041a3.466,3.466,0,0,0-.112-.418.84.84,0,0,0-.134-.256.733.733,0,0,0-.106-.05,3.219,3.219,0,0,1,0,.453.659.659,0,0,0,.112.272Zm-.106.937h0a1.437,1.437,0,0,0,0,.169v-.112c0,.509.022.509.562.509a.24.24,0,0,0,0-.091c-.028-.234-.078-.731-.156-1.193a.087.087,0,0,1-.041,0,.937.937,0,0,1-.2.022c-.041.062-.119.119-.15.2a1.561,1.561,0,0,0,0,.481Zm-1.424,7.259h0c0,.2.059.312.2.356a.687.687,0,0,1,.056-.206v-.041a3.022,3.022,0,0,1,.368-.827c-.234.041-.468,0-.468.39v-.084a.53.53,0,0,0,0,.069h0a1.049,1.049,0,0,0,.056.418l-.034-.05a1.068,1.068,0,0,1-.034-.518c.078-.234.284-.206.468-.256a1,1,0,0,1,.091-.094,2.185,2.185,0,0,0-.609.028.2.2,0,0,0-.078.109,1.948,1.948,0,0,0-.012.706ZM22.485,44.65c-.134,0-.275-.022-.384.091a.1.1,0,0,1-.028.028,14.321,14.321,0,0,0,1.171.887.443.443,0,0,1,.084.034h0c0-.128.022-.312.022-.453a.749.749,0,0,0-.084-.418c-.172-.228-.562-.165-.79-.165Zm-.234-14.2v-.031a4.489,4.489,0,0,1,.724-1.171.128.128,0,0,1,0-.069V29.1a2.326,2.326,0,0,0-.668.028c-.425.106-.312.987-.106,1.277Zm6.662,15.657c-.34.412-.7.8-1.083,1.183.275,0,.9.128,1.1-.1.15-.178.062-.752.041-1.055C28.948,46.133,28.935,46.105,28.913,46.105Zm27.2-8.336v.022a2.966,2.966,0,0,1-.056.347,2.369,2.369,0,0,0,0,.5.259.259,0,0,0,.262.162h.837a4.471,4.471,0,0,0-1.043-1.036Zm-2.894,5.17a.215.215,0,0,0,.084.091.312.312,0,0,0,.106.034h0l.056-.041a.843.843,0,0,1,.112-.056.624.624,0,0,1-.19-.234.518.518,0,0,1-.041-.212.468.468,0,0,0,.041.2.7.7,0,0,0,.2.256.537.537,0,0,1,.1-.028,8.841,8.841,0,0,1-.2-2.2c-.022,0-.05.022-.069.022-.056.312-.119.659-.178.987-.028.156-.056.312-.084.434v.234a.387.387,0,0,1,.022-.122c.2.119-.062.446.047.637Zm-.375,5.975h-.034c-.262-.022-.787-.15-.977.128a.571.571,0,0,0-.056.353,2.342,2.342,0,0,1,.022.312l1.249-.553C52.984,49.049,52.956,48.943,52.84,48.915Zm3.019-17.889c0-.493-.134-.446-.553-.584a5.017,5.017,0,0,1,.234,1.211,1.351,1.351,0,0,0,.056.49.275.275,0,0,0,.184.156.372.372,0,0,0,0-.091.349.349,0,0,1,.022-.091.521.521,0,0,1-.091-.39c.028-.116.134-.178.162-.312a1.848,1.848,0,0,0,0-.4Zm-33.4,5.067a.556.556,0,0,0-.406.649c0,.434.084.6.412.646a.487.487,0,0,1,.122-.4c-.044-.312-.084-.609-.122-.905ZM63.423,20.38h.262a.862.862,0,0,1,.275.062l.062-.106a6.816,6.816,0,0,0-.908-1.049.559.559,0,0,1,.028.184c0,.162-.041.331-.041.468h0c0,.393.134.434.312.434ZM18.742,41.922a4.713,4.713,0,0,1-.546-.028,1.561,1.561,0,0,1,.234.312,1.268,1.268,0,0,1,.106.219,5.275,5.275,0,0,0,.481.331.656.656,0,0,1,.028.15,2.589,2.589,0,0,1,0-.312c.028-.331,0-.7-.312-.69Zm-1.211-2.991a8.511,8.511,0,0,0-.5,1.3c.134,0,.434.034.537-.056s.069-.378.069-.587h0c0-.2.056-.528-.122-.659Zm4.964-4.23h-.05c-.119.05-.262.022-.34.156s0,.434,0,.581c0,.384-.028.468.353.6-.084-.184-.234-.312-.234-.531,0,.206.15.347.234.518h0a11.963,11.963,0,0,1,.041-1.339ZM15.04,38.993h0c.028.172.553.468.937.553l.056-.05a.678.678,0,0,0,.156-.234.534.534,0,0,0,.056-.091c-.137-.34-.918-.19-1.2-.19Zm46.892-8.5H61.9c-.128.041-.19.15-.2.412v.234a4.308,4.308,0,0,0,.056.737c.184-.468.368-.9.559-1.4Zm-44.625,9.9a.33.33,0,0,1-.312-.116.312.312,0,0,0-.028.262,1.052,1.052,0,0,0,.15.334c.078.084.156.178.234.268a1.352,1.352,0,0,0,.1.106c.056.056.112.106.172.156.05-.347.175-1.055-.306-1.015ZM31.183,51.725h-.1a.565.565,0,0,0-.624.312l-.022.05c.144.069.581.312.759.247s.219-.49.256-.652H31.43a.808.808,0,0,1-.247.044ZM26.5,41.635a1.676,1.676,0,0,0,.759,0l-.041-.062h-.006a1.3,1.3,0,0,1-.106-.19l-.668-.34a.218.218,0,0,1-.078.062.677.677,0,0,0,.668.446.718.718,0,0,1-.687-.434.1.1,0,0,1-.05,0c0,.206,0,.412.209.5Zm1.317,2.75c.053.094.144.137.184.234h0c-.275.075-.212.256-.212.509a2.943,2.943,0,0,0-.041.531.247.247,0,0,0,.162.234h0a.484.484,0,0,0,.028-.184c.028-.234.056-.624.078-.859v-.2a.172.172,0,0,0,.025-.122v-.056a4.653,4.653,0,0,0,.041-.624,3.637,3.637,0,0,0,0-.39.262.262,0,0,1-.2-.184.293.293,0,0,0-.144.2.359.359,0,0,0,0,.091v.359a.871.871,0,0,0,.112.462Zm30.32-23.967h0c.312,0,.412-.069.481-.206v-.219a3.149,3.149,0,0,1-.468.069l-.347.128c-.134.05-.268.106-.406.162v.022a2.522,2.522,0,0,0,.731.062Zm.05,18.807h0a2.591,2.591,0,0,1,.284,1.193.98.98,0,0,0,.2-.908c-.05-.265-.219-.281-.481-.281ZM15.208,23h0v.047c.05.234.425.2.624.19.259,0,.4-.215.624-.234a.234.234,0,0,0,.234.234h0a4.412,4.412,0,0,0,.971-.062.209.209,0,0,0-.116-.028A6.129,6.129,0,0,0,16.463,23h0c-.412-.119-.846-.112-1.249-.212a.312.312,0,0,1-.006.212ZM55.575,34.735h-.668l.937.724v-.144a.122.122,0,0,1,.034-.091c.012-.253,0-.509-.3-.493ZM24.355,46.158a1.914,1.914,0,0,1-.446-.034h-.022c.022.028.041.062.062.1v.028a5.837,5.837,0,0,0,.49.446,1.4,1.4,0,0,1,.172.034.339.339,0,0,0,0-.084h0a.131.131,0,0,1,.091-.116c0-.231-.075-.425-.334-.375ZM62.228,19a3.96,3.96,0,0,1,.5,0h.078a1.033,1.033,0,0,0-.468-.384.818.818,0,0,0-.724.15.6.6,0,0,0,.624.225ZM21.274,35.99c.375,0,.624.062.624-.368v-.574a.116.116,0,0,1-.056.022H21.82c-.187.287-.378.593-.546.912Zm36.214,3.475a.915.915,0,0,0,0,.553.468.468,0,0,0,.312.178l.234.041a3.331,3.331,0,0,0-.5-.971,1.247,1.247,0,0,1-.053.19Zm-.041,6.953v.509a1.309,1.309,0,0,0,0,.234l.128-.128.078-.062a.624.624,0,0,1,0-.128c0-.284.069-.681.078-.827a.468.468,0,0,0-.287.4Zm5.666-18.46V28.1h0v.481a6.5,6.5,0,0,0,.434-.9.743.743,0,0,0-.331.041c-.062.022-.084.084-.091.225ZM30.05,51.725h-.624a7.393,7.393,0,0,0,.965.34v-.119C30.4,51.772,30.268,51.7,30.05,51.725ZM58.266,33.305h-.184a3.892,3.892,0,0,0,.624.5c.059-.415,0-.5-.443-.5ZM20.1,43.352h-.034a.234.234,0,0,1-.091-.034l.062.069a1.92,1.92,0,0,0,.412.353.374.374,0,0,1,0,.056h0a1.146,1.146,0,0,0,0-.234c-.016-.144-.1-.2-.334-.206Zm12.26,2.538a1.4,1.4,0,0,0-.212-.234.293.293,0,0,1-.162-.144H31.96c.016.368.022.381.4.4ZM26.925,48.7h0c.553,0,.593-.119.624-.659v-.1c0-.434-.134-.446-.624-.446s-.624,0-.624.509v.15a.887.887,0,0,0,.05.378.278.278,0,0,0,.234.156,2.339,2.339,0,0,0,.34,0h0ZM21.28,26.222H21.2c-.453,0-.531.1-.531.609v.028h0c0,.5.069.624.624.624s.624-.069.624-.624-.106-.624-.624-.624Zm-.624,14.948c0,.268-.022.384.262.44a2.5,2.5,0,0,0,.687,0c.359-.056.268-.34.268-.659,0-.4,0-.565-.425-.581-.184,0-.587-.078-.743.062s-.041.568-.031.752Zm-.827-2.185c-.531,0-.581.056-.581.587,0,.4-.028.587.4.624a1.461,1.461,0,0,0,.724-.034c.156-.106.119-.425.134-.6V39.48c0-.434-.209-.49-.677-.49Zm10.134,8.467c-.172,0-.624-.078-.743.041-.184.162-.069.587-.084.793-.028.481.331.412.715.406.331,0,.5,0,.524-.375.031-.421.1-.859-.415-.859Zm-12.176-20.5c0,.565.275.524.787.518.406,0,.446-.134.446-.425V26.78c0-.553-.078-.553-.624-.553h0c-.537,0-.624.122-.624.574Zm.624,9.019c.518.034.609-.041.609-.559v-.094c0-.468-.056-.581-.6-.581s-.593.069-.624.593a1.4,1.4,0,0,0,0,.172c.059.409.165.45.656.487ZM28.945,48.088c0-.406,0-.624-.425-.624-.2,0-.546-.056-.7.062a.415.415,0,0,0-.106.312v.378c0,.39.106.468.481.468h.128c.537.022.624-.05.624-.593ZM20.609,29.821c0,.531.268.481.759.468s.49-.084.49-.546c0-.565,0-.724-.624-.7s-.6.206-.587.8Zm-1.583,6.9c-.05-.509-.112-.587-.624-.587s-.624.078-.624.624c0,.49.087.587.524.624h.116c.6.009.7-.084.646-.643ZM19.8,27.5c.559,0,.624-.084.624-.624s-.1-.624-.668-.624-.574.134-.574.646c0,.562.025.624.6.624Zm9.956,19.784c.524,0,.593-.091.593-.609,0-.468,0-.624-.5-.624h-.212c-.425,0-.553.062-.553.6h0c0,.571.091.649.659.649ZM19.81,24.807c-.574,0-.6.162-.624.7v.05c0,.5.234.49.724.5s.524-.172.524-.565v-.178c0-.512-.119-.506-.624-.506Zm11.963,21.36c-.106-.162-.353-.091-.518-.084-.546,0-.787-.091-.787.537,0,.574.106.687.687.687h.091c.425,0,.531-.022.537-.509,0-.091.028-.268.028-.412a.484.484,0,0,0-.041-.225Zm-4.215.368v.156c0-.553-.078-.659-.624-.659s-.624.091-.624.624c0,.468.028.624.509.624h.156c.468,0,.587-.062.587-.609V46.52ZM22.7,41.816c-.553,0-.624.069-.624.624s.134.624.724.624c.49,0,.518-.162.518-.624-.009-.531-.1-.624-.618-.624Zm1.417,1.4h-.215c-.312,0-.412.078-.418.5,0,.574-.034.771.587.78.15,0,.468.062.587-.084s.034-.537.05-.7c.059-.531-.084-.475-.593-.481ZM18.305,33.146h.312c.347,0,.434-.062.434-.518,0-.574-.112-.743-.7-.737-.537,0-.531.162-.531.646s.041.593.49.606Zm3,8.7c-.553,0-.624.062-.659.609v.084c0,.481.128.524.668.518s.574-.128.581-.646v-.078c0-.443-.075-.559-.587-.49Zm.425-2.766a1.043,1.043,0,0,0-.453-.056c-.468,0-.646,0-.624.518s.056.7.624.7.646-.091.624-.659V39.5a1,1,0,0,0-.041-.272.234.234,0,0,1-.131-.147ZM20.647,25.188a2.107,2.107,0,0,0,.028.759c.134.234.624.172.893.134.412-.05.347-.4.34-.743-.022-.509-.172-.518-.659-.468C20.893,24.876,20.693,24.7,20.647,25.188Zm4.683,17.882c.44.022.78.078.809-.418.034-.553.034-.765-.537-.815-.44-.034-.674-.084-.7.406s-.081.8.434.83Zm-3.887-5.5h-.2c-.593,0-.652.312-.593.865.041.468.368.384.771.375.178,0,.331.028.44-.119a1.489,1.489,0,0,0,.056-.7c-.028-.375-.2-.415-.481-.415Zm5.2,4.246c-.4,0-.312.234-.312.537s-.112.587.184.7a2.126,2.126,0,0,0,.874,0c.247-.1.172-.359.144-.593q.021-.137.028-.275h0a.119.119,0,0,1,0-.069.2.2,0,0,0,0-.062c-.05-.069-.106-.134-.162-.206a2.625,2.625,0,0,0-.756-.028Zm2.882,8.51c-.468.041-.412.425-.384.837.034.468.34.418.752.412.537,0,.537-.206.481-.7-.059-.6-.284-.628-.849-.559ZM21.277,27.655c-.509,0-.6.084-.624.593v.184c0,.4.112.468.609.468.553,0,.624-.069.624-.624h0C21.886,27.742,21.817,27.655,21.277,27.655Zm-2.81,4.059c.531,0,.609-.091.609-.624s0-.624-.587-.624-.624.069-.624.624.047.637.59.637Zm8.514,11.551c-.178,0-.425-.05-.553.1a1.449,1.449,0,0,0-.106.624c-.041.6.312.468.815.468.453,0,.434-.062.434-.509-.012-.546-.019-.684-.606-.684ZM16.9,37.364h.268c.256,0,.453-.034.481-.368.041-.453.1-.865-.412-.874h-.475a.484.484,0,0,0-.284.056c-.125.112-.069.384-.059.546h0C16.413,37.233,16.419,37.364,16.9,37.364Zm.453-5.479a2.07,2.07,0,0,0-.809.028c-.2.106-.116.434-.116.624,0,.5,0,.574.518.581.268,0,.559.062.674-.219s.153-1.043-.275-1.027ZM31.717,48.952h0a.506.506,0,0,0-.29-.084h-.234c-.2.022-.518-.069-.624.178a3.044,3.044,0,0,0,0,.674c-.022.406.184.412.537.406a1.149,1.149,0,0,0,.593-.091,2.575,2.575,0,0,1,0-.406v-.677Zm-8.985-8.567c-.581,0-.624.134-.659.7-.028.5.134.531.6.531s.624-.034.624-.524c.012-.54,0-.7-.574-.7Zm-4.261,1.249c.524,0,.553-.144.593-.652s-.056-.593-.587-.593c-.624,0-.659.172-.652.765,0,.518.147.5.643.481Zm2.02-12.247c0-.178-.062-.312-.312-.312-.312,0-.821-.184-.937.19a.653.653,0,0,0,0,.206c0,.15.022.312.022.412v.091a.331.331,0,0,0,.078.268,1.6,1.6,0,0,0,.965.041.293.293,0,0,0,.2-.312c0-.078-.022-.172-.028-.268h0c0-.109.019-.215.019-.312Zm-2.07-3.328h.125c.481,0,.518-.062.518-.609s-.15-.624-.724-.624c-.49,0-.518.156-.518.624,0,.524.084.624.593.624ZM19,37.61c-.15-.119-.5-.034-.668-.028-.49.028-.531.056-.5.537,0,.134-.05.537.069.646s.39.041.531.041h.178c.44-.022.5-.156.468-.687,0-.125.041-.412-.078-.509Zm-1.171-9.253a.771.771,0,0,0,.178.524c.128.1.378,0,.537.028h.091a.1.1,0,0,1,.106-.056h.234a2.945,2.945,0,0,0,.134-.468,1.036,1.036,0,0,0-.078-.565c-.156-.29-.553-.212-.843-.162-.378.069-.406.331-.372.7Zm.206,1.957c.234.069.893.1,1.021-.144a1.2,1.2,0,0,0,.069-.468,1,1,0,0,0-.144-.624h-.234a.106.106,0,0,1-.069-.022c-.284-.022-.7-.078-.827.178a.918.918,0,0,0-.062.375c-.016.312.056.64.237.706Zm6.088,11.5c-.29,0-.546-.056-.624.262a1.371,1.371,0,0,0,.1.908c.15.15.659.112.859.084.347-.05.312-.312.275-.624.047-.734,0-.624-.624-.624Zm1.4,4.059c.524,0,.624-.05.646-.587s-.05-.624-.574-.624-.668,0-.674.559,0,.668.584.668ZM19.314,30.527a1.486,1.486,0,0,0-.184.874c.028.359.062.359.418.359v-.034h.531c.284,0,.312-.247.312-.468,0-.162.122-.624-.022-.731a1.7,1.7,0,0,0-1.055,0Zm-.247,3.312c0-.275.091-.537-.284-.524-.537.022-.908-.144-.937.509-.028.537-.022.724.553.737.15,0,.481.062.6-.056s.062-.5.062-.665Zm7.98,12.085c.481,0,.518-.2.518-.587v-.169c0-.509-.116-.524-.624-.524-.581,0-.559.1-.587.624,0,.106-.034.234-.041.347a.312.312,0,0,0,.084.256c.125.116.49.059.643.053ZM19.9,40.389c-.4,0-.681-.041-.652.412,0,.116.056.234.056.347s-.056.219-.034.284c.091.29.581.212.843.2.468,0,.368-.256.384-.652.019-.531-.053-.59-.6-.59ZM16.757,30.305c.29.022.809.116.893-.234a3.7,3.7,0,0,0,.022-.687c0-.178.034-.312-.19-.312a3.1,3.1,0,0,1-.624,0c-.406-.069-.446.128-.434.468s-.125.74.331.768Zm13.2,18.585c-.178,0-.553-.078-.7.028-.234.162-.078.49-.091.724V49.8q0-.053,0-.106c-.022.534.312.453.818.428s.384-.172.4-.593.019-.618-.425-.64ZM17.287,27.655a5.022,5.022,0,0,0-.652,0c-.312.062-.256.406-.234.652.022.481,0,.553.468.559.331,0,.674.172.771-.219C17.718,28.31,17.753,27.608,17.287,27.655Zm-.915-3.547a2.447,2.447,0,0,0,0,.268c.034.262.178.312.406.312h.106c.624,0,.731,0,.731-.659,0-.256,0-.453-.262-.546-.2-.069-.7-.19-.874,0a1.218,1.218,0,0,0-.122.624Zm1.205,2.985h.056c0-.284.078-.646-.219-.743-.212-.078-.908-.128-.987.091A2.413,2.413,0,0,0,16.4,27a1.068,1.068,0,0,0,0,.368c.091.19.256.212.468.206h0c.54-.019.709.172.709-.465Zm-1,8.848a1.739,1.739,0,0,0,.971,0c.206-.156.091-.771.084-1,0-.29-.44-.184-.646-.2s-.44-.069-.559.091-.069,1,.15,1.108ZM15.1,24.564a.487.487,0,0,0,.284.069c.184,0,.587.084.737-.034s.106-.468.106-.668.056-.418-.144-.524a2.826,2.826,0,0,0-.977,0,.4.4,0,0,0-.062.219,2.185,2.185,0,0,1-.041.524C15.03,24.286,15.077,24.43,15.1,24.564ZM26.141,43.608c0-.406-.172-.44-.624-.44s-.646.05-.646.468v.116c.028.546.069.687.624.7.15,0,.468.056.565-.069a.546.546,0,0,0,.056-.312v-.337a1.077,1.077,0,0,0,0-.112ZM20.475,32.653c0-.468.05-.752-.468-.765-.434,0-.7-.122-.743.347-.056.553-.1.787.49.865.5.062.7.116.724-.44Zm-3.412.668c-.624,0-.581.15-.624.7a1.612,1.612,0,0,0,0,.178c0,.368.162.4.646.39s.587-.084.581-.49v-.069c-.028-.531-.056-.7-.624-.7h.028ZM18.124,40.2c.284,0,.668.078.793-.19a1.37,1.37,0,0,0,.116-.668c-.1-.425-.5-.406-.859-.39-.468,0-.446.6-.44.937s.1.312.393.312Zm-1.6-8.392a1.424,1.424,0,0,0,.993-.106c.234-.19.29-1.249-.144-1.221h0a2.226,2.226,0,0,0-.865.15c-.172.116-.106.5-.106.715h0c.006.209-.05.353.125.471Zm3.746-4.133c-.2-.069-.859-.078-.977.116a1.829,1.829,0,0,0-.05.743c0,.2.028.368.268.368a2.825,2.825,0,0,0,.815-.022c.184-.106.15-.412.156-.624s.034-.484-.222-.578Zm.219,6.191c0-.359-.056-.537-.509-.553-.384,0-.78-.069-.78.4.069.5.084.827.624.849h.019a2.088,2.088,0,0,0,.312,0,.35.35,0,0,0,.256-.091.624.624,0,0,0,.106-.412,1.454,1.454,0,0,1-.016-.187Zm8.058,15.017H28.5c-.468.022-.668,0-.715.5-.034.412-.112.765.39.752.384,0,.759.028.809-.406.053-.5.066-.862-.437-.859Zm-6.472-5.02c.041.509.184.565.687.593s.587-.112.553-.574c-.05-.537-.119-.674-.668-.668s-.609.131-.565.656ZM15.564,26.016a.743.743,0,0,0,.5.034c.234-.116.284-1.221,0-1.221a2.107,2.107,0,0,0-.915.056c.091.162.184.312.275.5.153.181-.031.493.147.64Zm.275,4.458c-.49,0-.406.275-.406.7s.028.624.518.546c.384-.062.275-.44.268-.771s-.025-.471-.381-.471Zm.128,1.417-.116-.016h0a.309.309,0,0,0-.4.234c-.084.234-.1.849.078,1a.446.446,0,0,0,.7-.256c.041-.312.119-.9-.268-.958ZM15.8,34.554c.574,0,.434-.5.425-.937,0-.275-.5-.44-.7-.262-.119.1-.112.353-.1.559a.9.9,0,0,1,.112.609.584.584,0,0,0,.268.031Zm.425-5.226c0-.262-.312-.312-.524-.219s-.178.312-.268.518v.212c.022.359.056.49.446.468.518-.031.34-.568.347-.98ZM15.6,27.564a.793.793,0,0,0,.5,0c.106-.062.172-.347.172-.624s-.056-.531-.19-.574h0v-.034l-.1-.022h0c-.415-.056-.468.372-.468.768,0,.215-.069.368.1.478Zm.331.078c-.262,0-.4,0-.44.275s-.116.859.172.971a.412.412,0,0,0,.537-.222l.022-.066c.059-.312.137-.952-.287-.958ZM19.26,38.709c.134.172.9.156,1.049.078.312-.162.172-1.015.091-1.289-.184.368-.378.737-.559,1.1l-.062-.022v-.062c.034-.715.078-1.433.112-2.157.022-.069.041-.15.062-.219l-.028.022c-.034.022-.084.034-.106.05s-.056-.034-.056-.062h-.581v.028c0,.022.022.028-.034.041a1.77,1.77,0,0,0,.028,1.015c.1.206.4.156.6.156-.028.284-.234.116-.384.162-.234.078-.041.034-.078.19-.041.212-.231.759-.047.98ZM56.724,24.554a.125.125,0,0,1,.112.078.506.506,0,0,0,.15,0c.256-.041.268-.119.275-.375a2.238,2.238,0,0,0,0-.652c-.078-.234-.212-.178-.44-.178-.4,0-.765-.172-.78.312,0,.256-.078.609.069.821q.322,0,.631,0Zm.453.284c-.05-.041-.378,0-.531-.041a2.03,2.03,0,0,0-.5,0,.5.5,0,0,0-.106.518c.069.375-.162.687.347.724.353.022.809.128.88-.275.028-.178.084-.8-.094-.937Zm4.037,5.619h-.268c-.069,0-.2-.022-.312-.022a.415.415,0,0,0-.29.078c-.144.144-.062.553-.062.731-.028.106-.056.144-.078.144a1.018,1.018,0,0,1-.1-.375h0c0-.4,0-.537-.425-.553h-.312c-.234,0-.446.041-.518.268s-.041.827.162.965c.406.247,1.033-.19,1.483.022a2.525,2.525,0,0,0,.865,0c.184-.1.156-.262.162-.468s.1-.524,0-.668a.39.39,0,0,0-.312-.1Zm-.958-7.643a.788.788,0,0,1,0-.109.19.19,0,0,0,.037.109h0c0,.212-.028.34.178.4a.906.906,0,0,0,.256.022,2.81,2.81,0,0,0,.481-.05.393.393,0,0,0,.312-.312H61.5a4.557,4.557,0,0,0,0-.624.312.312,0,0,0-.312-.312h-.028a4.011,4.011,0,0,0-.468.056c-.384.062-.39.262-.468.559a2.467,2.467,0,0,1,.034.281Zm-.771,14.551c.518,0,.609-.078.609-.593h0c0-.553-.069-.646-.624-.646s-.609.119-.609.574v.162c0,.481.172.509.64.509ZM58.185,23.4c-.434,0-.7-.084-.724.406v.312c0,.312.062.546.468.537.468,0,.771,0,.787-.509V23.88c0-.331-.059-.478-.518-.478Zm1.1,9.756a1.583,1.583,0,0,0,.731-.056c.219-.15.112-.412.128-.624v-.159h0c0-.287-.081-.418-.443-.418-.312,0-.715-.069-.809.284-.116.406-.1.924.384.974Zm-2.922-9.934h0c.284,0,.849.112.859-.275,0,.022.05,0,.05,0a.364.364,0,0,0,.034-.134c0-.178.091-.681-.112-.765a1.1,1.1,0,0,0-.937-.05h.056a.518.518,0,0,0-.125.034l-.034.022a.312.312,0,0,1-.116.144h0a3.722,3.722,0,0,0-.091.787c-.072.312.2.212.415.212Zm4.517,1.6c-.206,0-.412-.034-.524.156a1.561,1.561,0,0,0-.062.7c.028.468.434.406.846.384.5-.022.412-.353.412-.8,0-.5-.212-.434-.674-.443Zm-2.432,5.694a4.018,4.018,0,0,0-.537-.062.5.5,0,0,0-.368.1,1.5,1.5,0,0,0-.056.937c.069.234.247.247.446.247h.487a.275.275,0,0,0,.219-.078c.112-.112.022-.44.041-.593a1.474,1.474,0,0,0,0-.172v.028h0v-.031h0c.041-.209,0-.312-.259-.372Zm1.221-5.854c.425,0,.468-.134.468-.44v-.234c0-.559-.069-.581-.624-.581s-.624.084-.624.624v.234a.421.421,0,0,0,.122.347c.131.106.484.044.656.044Zm-2.551,3.006a1.833,1.833,0,0,0-.7,0c-.247.028-.312.056-.347.312,0,.084-.022.262-.022.425a1.021,1.021,0,0,0,.028.312c.056.156.162.178.312.184h.15c.284,0,.7.119.793-.247a.106.106,0,0,0,0-.05,2.245,2.245,0,0,0,.028-.331c-.019-.247-.069-.5-.237-.587Zm.44,2.61c.172.15,1.015.162,1.121-.091a1.171,1.171,0,0,0,.041-.468,1.024,1.024,0,0,1-.069.44,2.6,2.6,0,0,0,0-.993,2.576,2.576,0,0,0-1.077-.069c-.228.094-.312,1.071-.037,1.183ZM59.5,29.066c-.6,0-.624.156-.609.737,0,.518.206.509.7.509s.546-.091.537-.624-.078-.624-.624-.624Zm.6-6.884c-.116-.178-.312-.119-.524-.19-.553,0-.668-.041-.7.537v.234c0,.312.078.44.49.453s.737.106.765-.378c0-.084.022-.247.022-.39a.643.643,0,0,0-.056-.265Zm-3.815,8.136a.546.546,0,0,0,.312-.028h.19c.19,0,.347-.022.412-.256a1.758,1.758,0,0,0-.034-.9.624.624,0,0,0-.434-.112,1.918,1.918,0,0,0-.468.05c-.312.091-.284.353-.284.646h0c.019.528.019.606.3.6ZM62.649,20.6h0a.087.087,0,0,0-.041,0h-.122c-.468.022-.765-.106-.787.44s-.028.765.565.752c.162,0,.5.084.624-.056s.078-.559.069-.724c-.009-.322-.091-.4-.318-.415ZM57.52,24.9c-.134.134-.041.453-.034.609,0,.234-.078.546.234.559.368,0,.887.178.971-.29.041-.206.1-.787-.106-.937a1.767,1.767,0,0,0-1.071.056Zm4.03,3.156c-.022-.446-.212-.39-.624-.39-.537,0-.624.069-.624.609v.062c0,.353,0,.531.412.559.206,0,.581.062.737-.084a.568.568,0,0,0,.119-.418c-.012-.122-.028-.244-.028-.343Zm-2.014-.4c-.559,0-.624.084-.652.624s.084.624.652.609.587-.119.593-.646-.044-.593-.6-.593Zm-2.288-1.342c-.091-.134-.453-.078-.587-.069-.418,0-.587,0-.624.446s-.084.78.453.8c.156,0,.6.091.724-.022a.8.8,0,0,0,0-.681c-.084-.128.112-.331.019-.471ZM56.78,30.48c-.453,0-.7,0-.724.509,0,.587,0,.737.624.737.553,0,.624-.084.624-.624,0-.465-.041-.624-.537-.606ZM58.1,27.67c-.5,0-.624-.062-.624.481s.022.78.624.759.624-.15.624-.731C58.728,27.664,58.606,27.67,58.1,27.67Zm0-7.084c-.162,0-.468-.05-.587.091s-.041.524-.034.674c.028.368.056.468.434.468a1.473,1.473,0,0,0,.609-.022c.275-.144.2-.574.184-.837-.016-.425-.209-.359-.593-.375Zm4.517,7.077c-.524.041-.865-.156-.88.468,0,.574-.034.78.6.78a2.6,2.6,0,0,0,.34,0,.312.312,0,0,0,.268-.29,2.635,2.635,0,0,0,.041-.39c0-.287-.059-.584-.375-.565Zm-4.3-5.657c-.681-.034-.827.078-.827.765h0c0,.468.156.5.587.5h.1c.284,0,.49-.028.518-.418,0-.144.028-.284.028-.4.006-.272-.069-.443-.415-.465Zm2.107,8.283a1.829,1.829,0,0,0,.958.034.312.312,0,0,0,.162-.312,1.362,1.362,0,0,1,0-.172v-.2c0-.537-.034-.537-.624-.537-.384,0-.524,0-.587.406a2.5,2.5,0,0,0-.056.425.4.4,0,0,0,.144.368ZM58.94,26.034c.15.134.771.084.937.05.312-.069.234-.353.234-.652-.022-.162.078-.39-.056-.524s-.312,0-.481-.028c-.312-.028-.609-.106-.687.247-.016.14-.069.787.053.905Zm2.544-4.293c.119-.144.056-.553.05-.7,0-.262,0-.468-.356-.446s-.681-.106-.821.234c-.084.206-.144.837.062.977a1.445,1.445,0,0,0,1.058-.078Zm-.284,4.5c-.206.034-.574-.084-.759.05s-.134.468-.119.681c.041.524.212.524.715.524.312,0,.468.028.5-.312s.162-1.033-.337-.937ZM59.746,37.56c-.34,0-.793-.128-.874.268a1.976,1.976,0,0,0,0,.815c.156.312,1.093.234,1.171-.122a1.289,1.289,0,0,0,.05-.624c-.028-.265-.078-.312-.365-.312ZM60.1,26.446c-.078-.34-.524-.234-.827-.212-.418.019-.434.19-.378.518-.022-.125-.041-.219.025.147.05.268-.134.5.219.587a2.107,2.107,0,0,0,.815-.028C60.17,27.349,60.148,26.668,60.1,26.446Zm1.661.908a1.292,1.292,0,0,0,1.027.116c.284-.144.156-.759.15-1.021s-.971-.312-1.171-.119a1.358,1.358,0,0,0,0,1.027Zm1.027-2.341c-.312.05-.624,0-.937.034a.275.275,0,0,1-.134,0,2.557,2.557,0,0,0,.05.737c.05.368.247.312.593.312.234-.034.49.084.581-.2a4.16,4.16,0,0,0,.041-.524.593.593,0,0,0-.062-.312.234.234,0,0,1-.134-.041Zm-3.6,13.968c-.434-.062-.29.453-.312.7-.028.624.256.49.765.531A2.007,2.007,0,0,0,60,38.965a3.933,3.933,0,0,1-.818,0Zm2.616-15.566a1.623,1.623,0,0,0-.078,1.108.162.162,0,0,1,.106-.041,4.416,4.416,0,0,1,.531,0c.119,0,.368.028.468-.05a.543.543,0,0,1,.084-.05v-.022a1.873,1.873,0,0,0-.041-.212,9.072,9.072,0,0,0-1.083-.734Zm-.5,9.89a1.123,1.123,0,0,1-.206,0,1.336,1.336,0,0,0-.687.041c-.184.128-.106.312-.1.531s-.1.5.056.624a.5.5,0,0,0,.453.022.375.375,0,0,0,.15-.084c.112-.353.234-.715.347-1.071v-.022Zm-1.021,1.873c0,.234-.078.937.234.674a.087.087,0,0,0,.034-.034,4.431,4.431,0,0,1,.29-1.005.468.468,0,0,0-.091-.028c-.362-.134-.468-.034-.468.39Zm-1.58,6.409a1,1,0,0,1,0-.19c-.028-.312-.05-.587-.056-.887a.284.284,0,0,0-.128-.112c-.034.256.106.509.022.771-.128-.028-.206-.144-.268-.284a2.988,2.988,0,0,0-.206-.5h-.184c-.312.022-.434.1-.44.509,0,.184-.069.581.084.7a2,2,0,0,0,1.136,0h.062v-.062a.115.115,0,0,1-.034.044Zm.2-1.021a6.536,6.536,0,0,0,.062.915V41.46a.7.7,0,0,0,.056-.1,8.325,8.325,0,0,0,.518-.958h-.331a.293.293,0,0,0-.312.156Zm-2.185,2.5c.524,0,.574-.1.574-.624s-.034-.6-.6-.6-.624.041-.624.6.078.618.643.618Zm-1.433,2.991c-.219,0-.481-.056-.624.156a1.374,1.374,0,0,0-.034.681c.028.368.178.406.481.412h.144c.312,0,.565.078.624-.275a2.135,2.135,0,0,0,0-.765c-.106-.265-.356-.2-.59-.2Zm1.389-4.424c.546,0,.624-.119.624-.581V40.9c0-.49-.156-.509-.624-.509-.524,0-.593.091-.593.624h0c0,.556.05.624.6.624Zm.144-2.654c-.587,0-.7,0-.743.574s0,.652.49.668h.262c.418,0,.468-.069.468-.581s.034-.646-.478-.652Zm.116,5.66c-.1,0-.284-.028-.468-.028a.556.556,0,0,0-.331.078c-.206.172-.069.559-.069.787v.084a.344.344,0,0,1,0-.075c-.05.5.546.425.908.387s.312-.312.312-.681S57.329,44.66,56.936,44.638Zm.022-1.4h-.234c-.4.028-.674-.05-.681.406a2.342,2.342,0,0,0,0,.624c.062.219.172.19.406.2.378,0,.8.15.827-.312.025-.312.1-.937-.312-.918Zm1.5-1.383c-.518,0-.993-.178-1,.453v.056c0,.559.069.715.674.715a9.146,9.146,0,0,0,.574-1.068c-.031-.144-.134-.162-.25-.162Zm-1,1.78c0,.359-.134.937.39.793a3.481,3.481,0,0,1,.184-1.183.9.9,0,0,0-.134,0c-.293,0-.434.016-.443.387Zm.15,1.033c-.262,0-.312,1.249.134,1.227a5.224,5.224,0,0,0,.062-1c-.025-.119-.053-.237-.2-.231ZM51.588,46.18c-.112-.156-.347-.128-.518-.119h-.034c-.524,0-.652,0-.652.537s0,.7.587.7a1.854,1.854,0,0,0,.434-.022.234.234,0,0,1,.19-.19,1.07,1.07,0,0,0,.034-.312c0-.147.053-.487-.044-.624Zm-.156,1.342a1.108,1.108,0,0,0-.44-.028c-.531.034-.624.078-.624.624s.116.624.674.624.565-.119.574-.624a1.074,1.074,0,0,0-.062-.468.275.275,0,0,1-.128-.125Zm.162-2.744c-.119-.184-.359-.128-.553-.128-.6,0-.674.128-.659.724,0,.312,0,.468.312.509s.958.119.937-.347c0-.2.069-.606-.044-.765Zm-1.439,1.377c-.144-.144-.29,0-.453-.062-.262-.119-.646-.091-.731.2a1.714,1.714,0,0,0,.056.965c.144.144.771.091.937.05.312-.069.234-.353.234-.646-.016-.153.084-.381-.05-.509Zm2.616,1.324c-.234,0-.743-.106-.9.084s-.069.537-.062.7c.022.39.134.425.509.446.268,0,.587.091.7-.19s.14-1.055-.25-1.046ZM17.056,24.826c-.559,0-.643.187-.643.652v.1c0,.559.284.5.787.49s.453-.156.468-.624v-.1c0-.446-.112-.515-.612-.518Z" transform="translate(120.021 591.72)"/><path class="e" d="M24.876,44.5l-.156-.153-.181-.178A.509.509,0,0,0,24,44.041a.49.49,0,0,0-.312.425c-.034.256-.044.509-.053.756a5,5,0,0,1-.1.974l-.116.518h.79l.116-.234.331-.665.331-.662h0a.559.559,0,0,0-.087-.624ZM48,41.306l-.144-.062a.734.734,0,0,0-.671.109l-.1.05a.624.624,0,0,0-.468.624,16.646,16.646,0,0,0,.2,2.007l.209,1.342.584-1.224a1.53,1.53,0,0,0,.134-.468v-.059c.056-.34.116-.671.172-1.005L48,42.152a.792.792,0,0,1,.031-.1.771.771,0,0,0,.028-.6Zm-.815-5.882c-.181.022-.365.05-.546.078a3.852,3.852,0,0,1-1.4.05h-.075a1.748,1.748,0,0,0-.19-.031,1.828,1.828,0,0,0-.222,0H43.1l1.5.818a2.641,2.641,0,0,0,1.38.437,3.141,3.141,0,0,1,.481.041l.209.028h0a7.588,7.588,0,0,0,.818.041,10.963,10.963,0,0,0,1.652-.153l1.2-.181-1.052-.6a3.412,3.412,0,0,0-2.11-.537ZM19.3,35.047a.528.528,0,0,0,.312-.1l.094-.066.1-.059h.022a7.18,7.18,0,0,1,3.084-1.361c.49-.091.98-.175,1.474-.262,1.171-.2,2.376-.412,3.553-.7a4.345,4.345,0,0,0,.874-.234l3.328-1.389-5.086.84-.855.106c-.871.106-1.77.219-2.657.312h0a7.411,7.411,0,0,0-2.316.531l-.752.35c-.25.116-.556.265-.843.393a1.118,1.118,0,0,0-.734,1.208v.459ZM51.6,34.391a2.6,2.6,0,0,0-1.23-.468l-.912-.119a.468.468,0,0,0,.234-.084.7.7,0,0,0,.287-.378l.041-.119-.031-.122-.034-.147a.9.9,0,0,0-.031-.187l-.019-.072L47.46,29.262l-.724-.624.034.019.443.234.431.234a.6.6,0,0,0,.468.075l.549-.156-.312-.468a11.863,11.863,0,0,0-2.482-2.092,12.3,12.3,0,0,1-1.205-.937,1.156,1.156,0,0,0-.112-.109l-.031-.031-.053-.053-.069-.031a7.023,7.023,0,0,0-.937-.334h.066a3.89,3.89,0,0,1,.884.268,17.3,17.3,0,0,1,1.926,1.015,2.719,2.719,0,0,0,.574.334l1.723.737-1.249-1.4a19.125,19.125,0,0,0-5.516-4.524l-.072-.028h-.034a3.169,3.169,0,0,0-2.023.1h0a.587.587,0,0,0-.44.706l.016.056a5.46,5.46,0,0,1,.159,1.68v.265a.624.624,0,0,0,.393.624.606.606,0,0,0-.2.131.74.74,0,0,0-.19.556v.353l-.134-.268v1.333a.987.987,0,0,0,0,.415v.084h0v.14l.075.075.041.078h0l.078.206-.047-.028a.468.468,0,0,0-.412-.031.49.49,0,0,0-.234.194,1.9,1.9,0,0,0-.172-1.342l-.05-.078.14.028.159-.187a1.839,1.839,0,0,0,.284-.818l.019-.094a5.083,5.083,0,0,0-.1-2.42,5.747,5.747,0,0,0-2.089-3.331,9.678,9.678,0,0,0-3.653-1.745,9.129,9.129,0,0,0-4.393.559l-.34.1c-.265.081-.521.175-.752.265a4.058,4.058,0,0,0-.624.334,15.167,15.167,0,0,0-2.4,1.8l-.087.087a.976.976,0,0,1-.084.078l-.031.022c-.2.153-.365.312-.524.453l-.234.209-.144.131a22.064,22.064,0,0,0-2.054,2.769,9.9,9.9,0,0,0-.821,1.445c-.1.234-.234.453-.359.69a8.005,8.005,0,0,0-.44.874l-.624,1.561,1.3-1.08c.528-.443,1.027-.937,1.517-1.4l.066-.059.078-.072.044-.044a3.9,3.9,0,0,1,.624-.543l.509-.331a11.451,11.451,0,0,1,2.373-1.3l.106-.034c.184-.081.372-.159.581-.234l.087-.041a4.149,4.149,0,0,1,.937-.334l.718-.125c.387-.066.771-.134,1.149-.209a10.88,10.88,0,0,1,2.285-.262,11.617,11.617,0,0,1,2.154.268,6.181,6.181,0,0,0-1.149-.072c-.624.022-1.3.041-1.942.05a9.294,9.294,0,0,0-1.77.215,15.269,15.269,0,0,0-6.244,3.094A26.536,26.536,0,0,0,20.5,29.14c-.222.234-.443.443-.668.668a1.306,1.306,0,0,0-.178.234l-1.908,3.022a2.354,2.354,0,0,0-.312.7l-.278,1.152.937-.721.109-.081a2.454,2.454,0,0,0,.234-.178,7.118,7.118,0,0,1,2.657-1.346h.031a13.836,13.836,0,0,1,3.553-.7,30.96,30.96,0,0,0,5.285-.937,10.365,10.365,0,0,0,3.187-1.3A12.44,12.44,0,0,0,34.5,28.634a1.639,1.639,0,0,1-.312.88A4.5,4.5,0,0,1,32.437,30.8l-.037.019a20.848,20.848,0,0,1-4.13,1.592c-.559.153-1.146.275-1.717.387-.49.1-.993.2-1.489.312-.365.091-.743.172-1.108.247a10.683,10.683,0,0,0-2.891.893,3.831,3.831,0,0,0-1.761,1.8,1.989,1.989,0,0,0-.128,1.336l.272,1.083.509-1c.05-.1.1-.19.137-.284a2.6,2.6,0,0,1,.275-.5,2.738,2.738,0,0,1,1.751-1.052c.45-.084.9-.134,1.38-.184l.652-.072c.84-.106,1.7-.172,2.538-.234,1.015-.078,2.07-.159,3.1-.312a10.58,10.58,0,0,0,4.418-1.477c.234-.156.468-.312.7-.456a10.8,10.8,0,0,0,2.026-1.514,7.44,7.44,0,0,0,1.539-2.107,3.234,3.234,0,0,0,.865,2.941,1.441,1.441,0,0,0,.128.119,9.516,9.516,0,0,0,2.663,1.814,16.919,16.919,0,0,0,2.691.958,3.328,3.328,0,0,0,1.136.087l.144-.016A19.847,19.847,0,0,1,48.74,35h.521a15.45,15.45,0,0,1,2.023.119l1.639.234Zm-9.684-3.9c.415.312.815.609,1.171.862.134.094.262.19.393.287a6.353,6.353,0,0,0,1.667.987c.234.087.5.184.737.281.35.137.7.281,1.071.393l.272.084.2.059h.041c.412.084.843.162,1.224.234a25.323,25.323,0,0,1-2.91-.521,3.946,3.946,0,0,1-1.661-.765c-.865-.731-1.561-1.342-2.185-1.908Z" transform="translate(124.689 590.478)"/><path class="f" d="M65.113,21a.365.365,0,0,0,.275-.384c.034-.524.078-1.055.128-1.58.056-.715.122-1.433.184-2.185l-.119.028c-4.19,1.227-8.663,2.376-12.866,3.6-.212.062,0,.4.069.546.659,1.155,1.361,2.22,2.007,3.384.056.1.106.15.178.162s.15-.091.19-.106q4.967-1.736,9.95-3.453Zm-.624-3.019c.446,0,.681.234.7.715a.893.893,0,0,1-.787.893.78.78,0,0,1-.752-.752.865.865,0,0,1,.837-.865ZM20.413,26.066l1.992.275c1.021.144,2.042.275,3.066.418h.056c.119,0,.144-.112.172-.219.268-.9.537-1.792.821-2.694.062-.19,0-.247-.178-.312q-2.86-.743-5.723-1.5l-5.716-1.5a.393.393,0,0,0-.112-.022.109.109,0,0,0-.116.056V20.6a.356.356,0,0,0,0,.091c-.144,1.4-.29,2.81-.453,4.215-.022.178,0,.256.15.29l.106.022C16.429,25.526,18.421,25.8,20.413,26.066Zm-4.6-3.746a.912.912,0,0,1,.624-.172.727.727,0,0,1,.8.553,1.327,1.327,0,0,1-.284,1.58.843.843,0,0,1-1.121,0,1.377,1.377,0,0,1-.053-1.945l.019-.019Z" transform="translate(118.457 588.032)"/><path class="g" d="M63.664,17.207a.883.883,0,0,0-.843.865.78.78,0,0,0,.752.743.905.905,0,0,0,.787-.893C64.345,17.425,64.117,17.188,63.664,17.207ZM15.627,21.4a.912.912,0,0,0-.624.172A1.364,1.364,0,0,0,15,23.5l.034.034a.843.843,0,0,0,1.121,0,1.314,1.314,0,0,0,.284-1.58.737.737,0,0,0-.815-.556Z" transform="translate(119.281 588.793)"/><path class="g" d="M65.485,36.377c.412-.144.815-.312,1.249-.446a.4.4,0,0,0,.312-.418c.134-1.786.268-3.581.412-5.367.022-.247-.022-.312-.275-.219-1.339.425-2.682.827-4.027,1.249-.412.128-.418.128-.6-.275-.681-1.53-1.211-3.122-1.773-4.683a1.171,1.171,0,0,1,.022-.937,4.427,4.427,0,0,0,.056-1.673,28.13,28.13,0,0,0-.765-4.658A17.8,17.8,0,0,0,58.62,15.2c-.674-1.277-1.4-2.538-2.185-3.765a2.981,2.981,0,0,0-1.283-1.249A2.073,2.073,0,0,0,54.487,10a.6.6,0,0,0-.581.275,1.227,1.227,0,0,0-.206,1.268c.559,1.211,1.071,2.454,1.561,3.693.028.056.062.116.112.2a.2.2,0,0,1-.184-.128,19.853,19.853,0,0,0-2.95-2.376,37.831,37.831,0,0,0-4.449-2.576,1.708,1.708,0,0,0-.624-.19l-1.136-.119a.855.855,0,0,0-1.049.865c0,.312-.134.39-.4.412a.8.8,0,0,0-.581.565,2.051,2.051,0,0,0,.674,1.829c1.311,1.227,2.576,2.5,3.852,3.765a.281.281,0,0,1,.128.134c-.1,0-.134-.022-.162-.056-.2-.128-.39-.234-.565-.347-.887-.587-1.758-1.193-2.644-1.764a2.788,2.788,0,0,0-1.361-.5,1.339,1.339,0,0,0-1.155.425.827.827,0,0,0-.262.743,1.314,1.314,0,0,0,.659.937,24.133,24.133,0,0,1,4.015,3.462,3.747,3.747,0,0,0,.34.331,3.334,3.334,0,0,1,.771,1.049c.1.178.062.219-.128.219a17.889,17.889,0,0,0-3.681.6,1.342,1.342,0,0,0-1.171.827c-.19.624-.284.965.468,1.155a28.271,28.271,0,0,1,4.4,1.524,1.4,1.4,0,0,1,.347.234,9.77,9.77,0,0,0,1.071.893,11.489,11.489,0,0,0,3.6,1.723c.156.034.312.112.446.15a.35.35,0,0,1,.275.275,1.171,1.171,0,0,0,.9.971c.062.022.116.062.178.084a.425.425,0,0,1,.275.312c.2.7.406,1.4.624,2.107.078.234,0,.312-.206.359-1.1.312-2.185.652-3.278.987-.39.119-.4.128-.2.481L54.9,39.63c.378.681.39.681,1.077.312.069-.034.172-.156.234-.041s.178.262.069.384a13.252,13.252,0,0,0-.843,1.249.268.268,0,0,0,0,.347c.312.49.593.987.887,1.483a4.346,4.346,0,0,1-.275,1.249,7.492,7.492,0,0,0-.937-2.107,29.714,29.714,0,0,0-1.829-2.4,3.713,3.713,0,0,0-.312-.34,9.581,9.581,0,0,0-2.064-1.4,3.044,3.044,0,0,0-1.005-.378,6.444,6.444,0,0,0-3.306,0,.368.368,0,0,1-.481-.178,5.179,5.179,0,0,0-.849-1.1,9.678,9.678,0,0,0-2.916-1.723,8.714,8.714,0,0,0-2.551-.5,12.6,12.6,0,0,0-1.371.05,7.18,7.18,0,0,0-3.369.865c-.206.128-.44.2-.652.312a12.828,12.828,0,0,0-3,2.007c-.915.9-1.829,1.8-2.654,2.785a18,18,0,0,0-2.31,3.746.468.468,0,0,1-.206.284c-.119-.752-.234-1.474-.353-2.185-.022-.134.062-.128.156-.116.262.028.518.041.78.078.2.028.312,0,.353-.234.062-.312.134-.609.2-.937.234-1.171.587-2.307.893-3.453.056-.219.022-.312-.206-.353-1.127-.268-2.254-.565-3.384-.837-.212-.05-.312-.128-.247-.353a26.8,26.8,0,0,1,.715-2.66.528.528,0,0,1,.162-.256,1,1,0,0,0,.468-.893.6.6,0,0,1,.412-.624c.537-.256,1.055-.553,1.561-.849a2.5,2.5,0,0,0,.965-.987A54.748,54.748,0,0,1,31.6,24.533a3.173,3.173,0,0,1,.312-.44,27.888,27.888,0,0,1,2.276-2.307,1.049,1.049,0,0,0,.34-.843,1.374,1.374,0,0,0-.446-.9.937.937,0,0,0-.821-.434A1.183,1.183,0,0,1,33,19.566c.056-.116.15-.144.234-.19q1.5-.968,3-1.942c1.211-.78,2.42-1.561,3.637-2.341.156-.1.234-.178.056-.312-.353-.418-.353-.418-.7-.212L29.059,20.889c-.312.184-.312.184-.446-.15a23.416,23.416,0,0,1-.771-2.391.312.312,0,0,1,.172-.406c.849-.681,1.639-1.445,2.42-2.185a1.783,1.783,0,0,0,.515-1.071c.062-.5-.268-.765-.724-.581a5.038,5.038,0,0,0-.652.312,30.786,30.786,0,0,1-6.344,2.5c-.128.034-.234.078-.347-.056a3.9,3.9,0,0,0-.821-.624.215.215,0,0,0-.184-.041,1.249,1.249,0,0,0-.787.434c-.468.687-1.055,1.3-1.5,2.014-.5.827-.987,1.661-1.561,2.448-.106.15-.15.172-.247,0-.624-1.1-1.249-2.185-1.873-3.3a8.38,8.38,0,0,0-.668-1,1.118,1.118,0,0,0-1.055-.468c-.078,0-.178,0-.206.106a3.234,3.234,0,0,0-.172.977,19.335,19.335,0,0,0,.44,2.382c.34,1.352.724,2.694,1.127,4.03s.827,2.6,1.249,3.909c.034.116.1.212-.056.312s-.518.172-.553.368.15.446.234.668.128.468.256.537.312-.15.481-.234.19-.062.256.084c.368.865.743,1.723,1.121,2.588a.534.534,0,0,1,.022.406,12.22,12.22,0,0,0-.565,2.129c-.034.206-.112.206-.268.162-.821-.212-1.639-.418-2.46-.624-.359-.091-.359-.091-.406.275-.178,1.992-.353,3.956-.537,5.932,0,.178,0,.247.2.268.574.069,1.143.162,1.708.247.106,0,.2.022.172.178-.128.668-.234,1.342-.368,2a.528.528,0,0,0,.1.481c.2.256.39.518.587.78a.565.565,0,0,1,.112.624.593.593,0,0,0-.1.347c.022,1.227.022,2.454.078,3.681.028.593.022,1.193.034,1.786.028,1.58.119,3.156.178,4.736.028.771-.106,1.539-.069,2.31a.312.312,0,0,0,.247.359c.468.15.937.34,1.4.49a.827.827,0,0,1,.546.468,1.286,1.286,0,0,1,.116.646.49.49,0,0,0,.234.468c.731.524,1.455,1.061,2.185,1.6,1.923,1.417,3.843,2.844,5.772,4.255.178.134.219.234.116.434s-.162.4-.262.581a.265.265,0,0,0,.053.375l.037.025a8.764,8.764,0,0,1,.7.553.581.581,0,0,1,.144.624c-.041.144-.256,0-.39,0a1.873,1.873,0,0,1-.275-.041c-.915-.15-1.82-.384-2.75-.468a40.666,40.666,0,0,0-4.458-.206c-.078,0-.2-.069-.219.084s-.05.262.091.347a1.317,1.317,0,0,0,.234.106,14.17,14.17,0,0,1,2.382,1.149,9.486,9.486,0,0,0,1.53.793c.1.034.2.116.312,0q-1.232-.979-2.46-1.964a.343.343,0,0,1,.29-.041,19.223,19.223,0,0,1,2.922.44q3.159.756,6.269,1.7a7.043,7.043,0,0,1,2.014.715.387.387,0,0,1,.219.384,10.672,10.672,0,0,1-1.561-.062,31.846,31.846,0,0,0-4.115-.284c-1.033.028-2.073-.041-3.1.028-1.461.1-2.922.29-4.371.446-.069,0-.184,0-.184.078a.234.234,0,0,0,.178.256,1.707,1.707,0,0,0,.331.034c.737.028,1.467.022,2.2.034,1.829.041,3.665-.034,5.5.119a19.622,19.622,0,0,1,1.97.15q4.564.849,9.091,1.82a4.521,4.521,0,0,1,1.061.312c-.162.15,1.012.078,3.122,1.021a.434.434,0,0,1,.184-.4,16.718,16.718,0,0,0,1.8-1.667,17.809,17.809,0,0,1,1.773-1.561c.069-.056.128-.144.234-.1l1.651.652c-1.108.674-2.157,1.317-3.2,1.951a.7.7,0,0,1-.156.056,2.4,2.4,0,0,0-1,.593c-1.108,1.1,3.156-.668,2.963-.849a38.3,38.3,0,0,1,7.443-3.294c3.072-1.055,6.2-1.9,9.344-2.71l-.219-.05c-.206.022-.406.041-.609.056a15.054,15.054,0,0,0-2.576.4.718.718,0,0,1-.312.062c.05-.178.6-.771.752-.731.128-.162.2-.219.312-.234a2.051,2.051,0,0,1,.581-.553,3.388,3.388,0,0,1,.468-.256c.468,0,.937-.574,1.43-.771a7.287,7.287,0,0,0-2.126.415c-1.455.537-2.956.958-4.371,1.583-2.185.958-4.371,1.914-6.481,3.056a2.415,2.415,0,0,1-.234.106c-.056-.509-.106-1-.162-1.489a.177.177,0,0,1,.119-.184c1.873-.987,3.746-1.964,5.685-2.772,1.6-.668,3.191-1.389,4.8-2.042a13.7,13.7,0,0,0-1.09,2.02.172.172,0,0,0,.2-.05c.331-.353.668-.7.993-1.055a12.25,12.25,0,0,1,2.079-1.9c.056-.234-.034-.184-.1-.172-.731.15-1.461.284-2.185.453-.234.056-.234-.028-.234-.2,0-.581.078-1.149.1-1.73a1.873,1.873,0,0,1,.172-.731c.29-.668.581-1.324.88-1.992a4.149,4.149,0,0,0,.29-1.043c.091-.565.162-1.143.219-1.717.091-.88.406-1.708.553-2.576a16.783,16.783,0,0,1,.759-3.278c.368-.937.724-1.873,1.1-2.81a25.1,25.1,0,0,0,1.489-3.809,1.979,1.979,0,0,0,0-1.355,5.831,5.831,0,0,1-.234-.8,1.171,1.171,0,0,1-.034-.6,2.907,2.907,0,0,0-.184-2.107c-.106-.184.022-.312.128-.412.262-.268.275-.39.05-.681s-.518-.659-.8-.965c-.234-.247-.453-.518-.687-.771C65.289,36.509,65.289,36.443,65.485,36.377Zm-9.562-6.509c-.069-.2-.156-.312-.375-.256a.437.437,0,0,1-.518-.284,2.941,2.941,0,0,0-.624-1.061,3.278,3.278,0,0,0-1.193-.34,9.088,9.088,0,0,0-.937-.219,4.215,4.215,0,0,1-1.808-.809c-.893-.659-1.814-1.268-2.757-1.851a5.529,5.529,0,0,1-.893-.178c-.821-.172-1.639-.347-2.46-.5-.2-.034-.234-.184-.247-.312a.4.4,0,0,1,.19-.425,2.376,2.376,0,0,1,.859-.234,28.625,28.625,0,0,1,3.98-.384,3.391,3.391,0,0,1,.937.19.531.531,0,0,0,.49-.084c.624-.425,1.283-.827,1.923-1.249.1-.062.284-.106.206-.275a.247.247,0,0,0-.041-.062.194.194,0,0,0-.14-.044h-.184a3.434,3.434,0,0,0-1.97.587.834.834,0,0,1-.915-.162A19.855,19.855,0,0,0,45.661,18.1c-.6-.524-1.193-1.071-1.829-1.561a.487.487,0,0,1-.128-.581c.144-.212.312-.119.5-.041a8.816,8.816,0,0,1,1.561.865,58.088,58.088,0,0,0,5.226,3.206,1.512,1.512,0,0,0,.15.078c.268.091.412-.028.368-.312a.787.787,0,0,0-.187-.4c-1.439-1.7-2.956-3.319-4.449-4.97a12.979,12.979,0,0,0-1.027-.937,2.522,2.522,0,0,1-.652-.821.468.468,0,0,1,.069-.559A.284.284,0,0,1,45.652,12h0a8.117,8.117,0,0,1,1.427.865q1.171.893,2.376,1.786l2.382,1.78c.062.05.128.1.184.15.15.134.275.275.418.418l.084.084a1.043,1.043,0,0,0,.178.178c.162.1.331.184.5,0a.278.278,0,0,0,.091-.162.2.2,0,0,0,0-.062v-.028a.506.506,0,0,0-.128-.212l-.531-.553a11.878,11.878,0,0,0-.937-.88c-1.027-.859-2.085-1.689-3.15-2.5a16.1,16.1,0,0,0-1.758-1.027,2.151,2.151,0,0,1-.509-.468.425.425,0,0,1-.037-.428c.062-.156.219-.15.353-.162a1.074,1.074,0,0,1,.587.15c1.371.674,2.716,1.4,4.021,2.185.106.062.212.128.312.2a25.975,25.975,0,0,1,2.107,1.539,5.854,5.854,0,0,1,.837.971c.112.144.034.268-.069.368a1.2,1.2,0,0,1-.256.162c-.091.062-.212.119-.178.256s.162.15.268.172a.808.808,0,0,0,.468-.041c.5-.206.915.144,1.249.49.084.091.119.275.275.219s.184-.234.172-.406a9.091,9.091,0,0,0-.247-1.311,20.51,20.51,0,0,0-1.23-3.178c-.156-.378-.312-.752-.481-1.127a.54.54,0,0,1,.144-.537c.091-.119.234,0,.359.041a1.967,1.967,0,0,1,.937.977c.234.446.524.859.771,1.289a24.6,24.6,0,0,1,1.289,2.248A21.8,21.8,0,0,1,59.36,18.92,28.721,28.721,0,0,1,60.1,22.21c.05.425-.028.837.022,1.249a4.333,4.333,0,0,1-.359,2.354.7.7,0,0,0,.034.624c.743,1.561,1.361,3.2,1.979,4.83.078.212.041.312-.178.359-1.427.418-2.85.849-4.277,1.283-.206.062-.268,0-.331-.178-.359-.965-.7-1.908-1.043-2.86Zm-8.951,8.991a2.81,2.81,0,0,1,1.77-.091h.041a16.187,16.187,0,0,1,2.276.765.827.827,0,0,1,.331.234,5.991,5.991,0,0,1,1.268,1.2A27.518,27.518,0,0,1,54.3,43.249l-.1-.037h0a3.009,3.009,0,0,1-.543-.312,19.043,19.043,0,0,0-1.992-1.049,4.333,4.333,0,0,0-.977-.312A9.768,9.768,0,0,0,48,41.419c-.247.022-.5,0-.752,0a.234.234,0,0,1-.268-.268,6.79,6.79,0,0,0-.178-2.073c-.041-.144.041-.2.162-.234Zm-.181,5.114.022-.056v-.131a.066.066,0,0,1,0-.05v-.365a.087.087,0,0,1,0-.041.118.118,0,0,1,0-.05v-.787c0-.234.078-.331.312-.312s.468,0,.718,0h.578a6.592,6.592,0,0,1,1.127.069,2.975,2.975,0,0,1,1.623.481,8.239,8.239,0,0,1,.821.425c.652.39,1.3.793,1.957,1.193a1.146,1.146,0,0,1,.347.312c.212.312.44.624.659.937.034.05.091.106.041.172a.109.109,0,0,1-.056.041h0a.209.209,0,0,1-.15-.034c-.29-.162-.587-.312-.88-.481A14.049,14.049,0,0,0,50.7,44.017l-.293-.078a5.932,5.932,0,0,0-.955-.234l-.446-.1s0,.034.05.069l.034.041a.406.406,0,0,0,.119.1l.056.028c.674.34,1.808.553,2.638.937h0l-.041-.022-.275-.128-.078-.034h0l.078.034.275.128.034.016h0l.184.091a9.147,9.147,0,0,1,1.3.859l.793.609a5.872,5.872,0,0,1,2.276,3.453.91.91,0,0,0,.028.128l.028.041a.368.368,0,0,1,.05.284.1.1,0,0,0,0,.062c0,.206-.178.119-.269.119a7.393,7.393,0,0,1-1.8-.312h-.019c-.153-.044-.35-.112-.49-.156-.624-.219-1.211-.481-1.814-.7A8.223,8.223,0,0,1,50.2,48.025a22.968,22.968,0,0,1-2.956-2.41,1,1,0,0,1-.234-.312c-.062-.15-.128-.312-.184-.453l-.106-.275c-.022-.056-.041-.112-.069-.178v-.041h0v-.028a.5.5,0,0,1,0-.312Zm4.464.434-.062-.022h0Zm-.091-.034h0c-.05,0-.091-.034-.144-.05l-.056-.019.056.019C51.071,44.345,51.112,44.345,51.165,44.373Zm-1.4-.468Zm-.362-.116V43.72a.33.33,0,0,0,.081.022h0c-.031.022-.081,0-.1.056Zm-2.81-4.73a.253.253,0,0,0-.016.087.234.234,0,0,1,.016-.084Zm-.312,6.275c.022-.069.059-.1.1-.094h0c.022,0,.041.028.062.069a4.539,4.539,0,0,0,.887,1.171c.368.353.765.681,1.149,1.027q1.193,1.074,2.419,2.107a4.474,4.474,0,0,0,1.829.849,41.523,41.523,0,0,0,4.652.752,2.129,2.129,0,0,1,1.108.468h-.022l.069.056a21.59,21.59,0,0,0-2.616-.134,21.034,21.034,0,0,0-2.838.2,2.913,2.913,0,0,1-.993-.078,15.832,15.832,0,0,1-2.626-.937,9.107,9.107,0,0,1-2.544-1.736l-.172-.162a2.96,2.96,0,0,1-.6-.827v-.031a3.166,3.166,0,0,1-.047-2.092c.056-.206.119-.412.184-.624Zm7.68,12.435h-.184c-.112,0-.234.028-.34.034a.253.253,0,0,0-.256.172c-.05.112-.116.212-.172.312l-.022.05a4.533,4.533,0,0,1-.937,1.417c-.084.091-.178.178-.268.262-.234.212-.481.412-.737.6a5.76,5.76,0,0,1-1.383.659l-.106.041-.1.041-.056.022-.091.028a.187.187,0,0,0-.134.268.331.331,0,0,0,.347.234.725.725,0,0,0,.119,0,1.8,1.8,0,0,0,.44-.1c.144-.05.284-.116.434-.178.1-.041.2-.084.312-.122a9.112,9.112,0,0,1-.247,1.005c-.022.056-.041.106-.062.156-.084.19-.172.378-.262.565-.056.128-.119.247-.184.368a11.123,11.123,0,0,1-1.2,1.936,4.135,4.135,0,0,1-.312.353,4.994,4.994,0,0,1-.743.652c-.1.069-.2.144-.312.212q-.312.19-.624.359c-.172.091-.331.172-.5.247l-.19.084-.156.062-.128.05c-.119.05-.234.091-.359.134a.54.54,0,0,1-.112.034c-.128.041-.256.084-.384.119q-.6.178-1.205.312c-.156.034-.312.062-.481.091H43.3l-.481.078L42.3,68.4a6.369,6.369,0,0,1-1.723-.05.206.206,0,0,1-.062,0l-.084-.022a2.007,2.007,0,0,1-.425-.178c-.184-.1-.353-.206-.537-.312q-.19-.1-.384-.212a5.5,5.5,0,0,1-.468-.312,1.873,1.873,0,0,1-.687-.821,5.308,5.308,0,0,0-.268-.574c-.028-.056-.062-.106-.091-.156a8.03,8.03,0,0,0-.815-1.083c-.122-.144-.234-.284-.368-.418-.062-.069-.122-.144-.184-.206-.247-.275-.5-.553-.765-.815l-.209-.165a8.231,8.231,0,0,0-.849-.731,2.615,2.615,0,0,0-.234-.162,8.224,8.224,0,0,0-.715-.468l-.178-.106-.178-.084a4.664,4.664,0,0,1-1.829-2.185l-.031-.059a.624.624,0,0,0-.649-.365,1.873,1.873,0,0,1-.743-.144h0a1.349,1.349,0,0,1-.39-.247l-.075-.047a2.532,2.532,0,0,1-.172-.265,15.644,15.644,0,0,1-1.14-1.945v.022l-.016-.041v.016c-.069-.194-.134-.387-.215-.578-.037-.087-.075-.172-.106-.253a1.127,1.127,0,0,1-.05-.312,1.024,1.024,0,0,1,0-.15l.022-.091v-.041a.424.424,0,0,1,.056-.1,1.358,1.358,0,0,1,.375-.418l.2-.15c.134-.1.275-.184.412-.275.212-.128.425-.247.646-.359a12.157,12.157,0,0,1,2.532-.937l.156-.034c.1-.022.206-.028.312-.041a2.364,2.364,0,0,1,.312,0H33a1.144,1.144,0,0,0,.156,0c.353,0,.7-.034,1.061-.056q.8-.053,1.6-.128c.531-.05,1.061-.106,1.6-.162a10.346,10.346,0,0,0,2.779-.7c.184-.078.368-.162.546-.247.106-.056.219-.106.312-.162l.184-.1c.425-.234.849-.446,1.249-.687a.278.278,0,0,1,.162-.1h.028v.034a.175.175,0,0,1-.056.1l-.062.041a11.326,11.326,0,0,1-1.467,1.324c-.05.041-.1.084-.15.134-.156.128-.312.262-.49.406a6.244,6.244,0,0,0,1.764-.234A4.886,4.886,0,0,0,44.362,50.7a5.422,5.422,0,0,0,.412-.481,7.181,7.181,0,0,0,.846-1.467,4.939,4.939,0,0,0,1.108,1.7l.084.112.084.116a.7.7,0,0,0,.178.178,1.326,1.326,0,0,0,.134.1,1.65,1.65,0,0,1,.134.1l.062.05c.312.247.624.481.937.715.212.156.425.312.646.453.312.234.652.446.971.674a9.5,9.5,0,0,0,1.383.787l.359.162c.368.156.737.29,1.121.412l.062.022a5,5,0,0,0,.737.116c.091,0,.184.022.268.028a.574.574,0,0,1,.178.069,1.215,1.215,0,0,1,.2.15,1.342,1.342,0,0,1,.44.652.219.219,0,0,1,0,.069v.028c-.028.05-.069.091-.1.144-.084.15-.178.312-.247.453l-.034.078a.937.937,0,0,0,0,.771,4.8,4.8,0,0,0,.865-1.115,3.091,3.091,0,0,0,.162-.347,2.609,2.609,0,0,0,.091-.247c.028-.078,0-.172.028-.247s-.069-.206-.028-.262h0l.041-.022h.078a1.251,1.251,0,0,1,.162,0,1.352,1.352,0,0,1,.412.062c.084.028.056.134.05.212h0a2.26,2.26,0,0,1-.212.715,1.616,1.616,0,0,1-.069.162,4.945,4.945,0,0,1-.565,1.108,1.848,1.848,0,0,1-1.4.915Zm.771,1.333c-.091.5-.172.987-.256,1.483a1.311,1.311,0,0,1-.144.49l-.022-.128-.034.069a15.671,15.671,0,0,1-.219-2.085c0-.156.1-.19.2-.234.162-.056.368-.234.468-.156l.034.041h.022c.128.1-.022.312-.056.5ZM44.241,69.632a5.181,5.181,0,0,1-.809.062,3.618,3.618,0,0,1-.821-.091.219.219,0,0,1-.194-.244h0c0-.078.062-.078.122-.078a.313.313,0,0,1,.112,0h.765a3.365,3.365,0,0,0,.7-.069.362.362,0,0,1,.122,0c.091,0,.162,0,.172.156s.028.234-.178.268ZM31.028,63.264h0a16.493,16.493,0,0,0,.162-1.773c0-.119.078-.106.15-.041s.219.219.331.312h0l.041.041a.144.144,0,0,1,.034.178c-.219.446-.44.887-.659,1.324l-.069-.022v-.034Zm22.828-9.831a5.308,5.308,0,0,0-.752-.069,2.682,2.682,0,0,1-1.333-.468h.05l-.106-.056a1.159,1.159,0,0,1,.219,0l.247.041a6.612,6.612,0,0,0,2.079-.128,3.122,3.122,0,0,1,1.936.524H56.16c.028,0,.056.034.091.05a9.366,9.366,0,0,1-2.4.091ZM27.282,44.379a13.689,13.689,0,0,1,.771-1.283c.144-.206.284-.412.434-.609.069-.1.15-.2.234-.312q.34-.446.7-.874c.234-.284.481-.565.731-.849s.5-.559.737-.843a2.709,2.709,0,0,1,.34-.29l.075-.087c.234-.2.434-.406.7-.624l.034-.028.2-.184A15.2,15.2,0,0,1,34.6,36.671q.126-.08.253-.15.152-.078.312-.14a.436.436,0,0,1,.084-.034q.256-.106.509-.19l.347-.106c.412-.119.821-.219,1.227-.347a7.34,7.34,0,0,1,2.31-.34H40a4.87,4.87,0,0,1,1.68.49c.234.106.468.206.7.312l.172.084c.172.084.347.172.509.268l.331.19a3.22,3.22,0,0,1,.312.212,5.732,5.732,0,0,1,.624.49A4.9,4.9,0,0,1,45.7,39.54a8.118,8.118,0,0,1,.384,1.82,5.129,5.129,0,0,1-.284,1.751c-.022.084-.056.106-.084.1s-.062-.062-.1-.106L45,42.365a6.219,6.219,0,0,0-3.078-2.02,12.284,12.284,0,0,0-2.935-.453,11.3,11.3,0,0,0-2.376.268c-.624.119-1.249.219-1.873.331a5,5,0,0,0-1.143.418l-.534.234H33a14.692,14.692,0,0,0-3.028,1.686,4.739,4.739,0,0,0-.715.64l-.028.025-.19.19c-.446.434-.887.874-1.371,1.268a6.409,6.409,0,0,1-.793.787,4.171,4.171,0,0,1,.434-1.4Zm-.187,2.853a.843.843,0,0,1,.122-.156,35.82,35.82,0,0,1,3.019-2.85,14.957,14.957,0,0,1,6.072-3A7.911,7.911,0,0,1,38,41.017c.652,0,1.3-.028,1.951-.05a6.088,6.088,0,0,1,3.434.958,6,6,0,0,1,1.071.84l.041.041a6.359,6.359,0,0,1,.937,1.211,1.639,1.639,0,0,1,.091,1.221,5.585,5.585,0,0,1-1.751,2.916A15.662,15.662,0,0,1,41.1,50.067a10.065,10.065,0,0,1-4.246,1.4c-1.873.275-3.746.312-5.619.553-.681.084-1.371.144-2.048.262A3.162,3.162,0,0,0,27.182,53.5a6.885,6.885,0,0,0-.468.893.568.568,0,0,1-.028-.106,1.561,1.561,0,0,1,.106-1.055,3.309,3.309,0,0,1,1.561-1.6,17.071,17.071,0,0,1,3.909-1.108c1.061-.268,2.157-.425,3.212-.715a21.367,21.367,0,0,0,4.215-1.623,5.061,5.061,0,0,0,1.936-1.433,2.157,2.157,0,0,0,.353-1.639c0-.1-.041-.15-.078-.156s-.084.022-.15.078a14.634,14.634,0,0,1-1.689,1.324,9.831,9.831,0,0,1-3.066,1.249,30.976,30.976,0,0,1-5.211.915,14.3,14.3,0,0,0-3.659.715,7.586,7.586,0,0,0-2.838,1.445,4.776,4.776,0,0,1-.384.29l.022-.112-.078.056h0a.409.409,0,0,1,.069-.05,1.77,1.77,0,0,1,.247-.587q.937-1.511,1.908-3.019Zm7.077,1.873,1.545-.256.268-.05a3.674,3.674,0,0,1-1.015.312c-1.652.412-3.34.652-5.014.965A7.689,7.689,0,0,0,26.7,51.516a1.689,1.689,0,0,1-.184.128c-.078.05-.116.034-.128-.028a.144.144,0,0,1,0-.056.7.7,0,0,1,.49-.809c.531-.234,1.061-.5,1.6-.743a6.837,6.837,0,0,1,2.185-.5c1.171-.128,2.341-.275,3.512-.412ZM34.113,49.049ZM28.06,21.361c.028.078.034.144-.05.19l-.759.468a1.247,1.247,0,0,1-.134.056.936.936,0,0,0-.091-.15l-1.6-1.829c-.069-.084-.144-.162,0-.234.524-.312.937-.78,1.474-1.033.144-.062.19-.069.262.084.353.793.593,1.639.893,2.454Zm-4.327-3.746c.752-.268,1.489-.574,2.232-.874a30.546,30.546,0,0,0,3.072-1.561c.106-.056.206-.128.312-.184s.172-.172.29-.106.091.234.091.4a.663.663,0,0,1-.234.468c-1.021.937-2.085,1.851-3.178,2.722a9.128,9.128,0,0,1-1.445.771c-.1.05-.156,0-.212-.069-.353-.453-.7-.915-1.055-1.371-.134-.162.05-.156.134-.19Zm-6.434,9.7c-.809-2.5-1.661-5-2.341-7.539-.156-.587-.219-1.205-.331-1.808a.312.312,0,0,1,.2-.331c.156-.078.162.106.219.178a45.488,45.488,0,0,1,2.788,4.923c.268.5.574.977.865,1.467.056.091.1.172.234.122s.128-.156.1-.268a9.831,9.831,0,0,0-.565-1.455.534.534,0,0,1,0-.468c.406-.837.971-1.561,1.417-2.37.412-.731.937-1.383,1.333-2.12a.624.624,0,0,1,.987-.144,3.044,3.044,0,0,1,.531.674,12.1,12.1,0,0,0,1.908,2.185c.481.481.971.937,1.483,1.389a1.539,1.539,0,0,1,.29.565.116.116,0,0,1-.041.156h0a.524.524,0,0,0-.091.056,1.052,1.052,0,0,1-1.3.056,9.4,9.4,0,0,1-2.551-1.908.751.751,0,0,0-.084-.069c-.34-.256-.353-.234-.5.15s-.256.809-.434,1.193c-.062.134.034.275.134.378s.19.29.4.262a.181.181,0,0,0,.162-.162c.05-.234.116-.468.178-.759A26.607,26.607,0,0,0,24.757,23.4l-.821.468q-3.159,1.776-6.322,3.562c-.172.091-.234.112-.312-.1Zm.737,1.639c-.078-.162-.05-.234.1-.312q3.821-2.357,7.633-4.739c.134-.084.262-.034.39-.062a3.89,3.89,0,0,0,1.268-.481c.028-.022.078-.034.091-.062a2.5,2.5,0,0,1,1.445-1.09,18.129,18.129,0,0,0,3.512-1.873.543.543,0,0,1,.7.022.624.624,0,0,1,.234.646,1.639,1.639,0,0,1-.468.859,16.328,16.328,0,0,0-2.616,3.219,24.38,24.38,0,0,0-1.845,3.278,2.269,2.269,0,0,1-.434.609,7.586,7.586,0,0,1-2.523,1.873.5.5,0,0,0-.312.468c0,.178-.069.347-.084.524a1.417,1.417,0,0,1-.559,1.127.668.668,0,0,0-.178.368l-.809,2.7a.137.137,0,0,1,0,.056c0,.041,0,.091-.05.112a.468.468,0,0,1-.331-.062c-1.317-.312-2.626-.624-3.927-.987-.162-.034-.312-.084-.49-.106-.262-.034-.284-.156-.162-.353a5.854,5.854,0,0,1,.88-2.354.362.362,0,0,0,0-.453c-.559-.937-.987-1.942-1.455-2.922ZM15.291,39.774l-.106-.022c-.128-.034-.172-.116-.15-.29q.234-2.107.453-4.215a.194.194,0,0,1,0-.091v-.041a.116.116,0,0,1,.112-.056.4.4,0,0,1,.116.022l5.713,1.511L27.185,38.1c.184.05.234.106.178.312l-.821,2.694c-.028.106-.05.219-.172.219h-.056c-1.021-.144-2.042-.275-3.066-.418l-1.992-.275c-1.979-.284-3.98-.553-5.963-.821ZM16.852,42.5a.347.347,0,0,1,0-.256.872.872,0,0,1,.05-.122v.041a.821.821,0,0,1-.062.331Zm17.53,26.49h0c-.069,0-.078.05-.112.069l-.056.041a1.074,1.074,0,0,1-.112.078.568.568,0,0,0-.234.256V69.5h.022v.041c-.069.206-.106.353-.144.468,0,.028-.022.05-.028.069l-.028.05-.028.034a.134.134,0,0,1-.069.034H33.57a.49.49,0,0,1-.15-.034l-.406-.144h-.069l-.078-.034H32.82v-.037h0c-.212-.069-.412-.112-.6-.19-.116-.041-.234-.078-.353-.128a2.035,2.035,0,0,0-.446-.106c-.412-.144-.827-.212-1.227-.353a.73.73,0,0,1-.128,0h0c-.284-.056-.509-.128-.78-.178a.347.347,0,0,1-.35-.437,2.721,2.721,0,0,0,0-.34v-.14c-.041-.069-.106-.156-.162-.247a.4.4,0,0,1-.041-.078c-.034-.034-.106-.069-.106-.112-.069,0-.041-.028-.062-.041-.219-.206-.156-.481-.128-.743v-.084l.022-.162a.141.141,0,0,1,0-.078c.116-.44.144-.859-.331-1.121-.056-.034-.091-.069-.162-.122h0a8.122,8.122,0,0,0-.668-.49c-.034-.069-.041-.084-.116-.112a4.186,4.186,0,0,1-.915-.674c-.069-.041-.15-.078-.219-.119h.05c-.041-.069-.091-.062-.128-.1a1.953,1.953,0,0,0-.178-.116c-.356-.312-.837-.587-1.221-.937a1.062,1.062,0,0,1-.312-.234v-.022c-.375-.262-.743-.518-1.115-.8h0c-.041,0-.041-.034-.116-.069a4.058,4.058,0,0,1-.609-.425.181.181,0,0,0-.172-.069c-.172-.144-.312-.206-.468-.331-.056-.034-.106-.078-.178-.122a6.434,6.434,0,0,1-1.171-.849l-.034-.034-.062-.069a.556.556,0,0,1-.078-.128.543.543,0,0,1-.034-.116v.056a9.312,9.312,0,0,1-.624-.887l-.022-.041a.1.1,0,0,1,0-.041.312.312,0,0,1,0-.078.347.347,0,0,1,.069-.156v-.059a5.854,5.854,0,0,1,.5-1.289v-.106a.546.546,0,0,0,0-.091v-.041h0a.109.109,0,0,0-.05-.028h-.069a.362.362,0,0,0-.172.062.936.936,0,0,0-.162.128l-.056.041L19.59,57l-.034.025h0a4.311,4.311,0,0,1-.537.453c-.034.034-.1.078-.1.116H18.89a.162.162,0,0,1-.212.034c-.312-.134-.609-.262-.915-.406a.256.256,0,0,1-.119-.184l-.022-.091L17.6,56.87h0a2.775,2.775,0,0,1,.156-1.289.565.565,0,0,0,0-.106,10.468,10.468,0,0,1,.219-1.249v-.187h0c-.066-.453-.066-.9-.1-1.355v-.222c-.041-.846-.1-1.689-.128-2.532-.062-1.764-.206-3.525-.156-5.292a1.973,1.973,0,0,0-.219-.937c-.084-.162-.184-.312-.29-.481a.781.781,0,0,1-.144-.7c.106-.412.184-.837.262-1.249.034-.2.091-.312.312-.234a1.171,1.171,0,0,0,.275.028c.378.084.765.091,1.143.184a.212.212,0,0,1,.1.028,6.408,6.408,0,0,1,1.071.144.234.234,0,0,1,.116.028c.425.056.849.106,1.277.178a.468.468,0,0,1,.275.05H21.8c.5.056.887.091,1.311.162H23.08v.009c.284.034.468.069.687.106a4.583,4.583,0,0,0,.681.091h.112a.212.212,0,0,1,.219.206h0c.112.674.206,1.349.347,2.02,0,.05.028.091.022.134.022.116.034.219.056.312.062.312.119.652.184.977a.468.468,0,0,0,0,.106v.028c.069.425.15.809.219,1.211V47.2a5.069,5.069,0,0,0-.384.468,4.755,4.755,0,0,0-.5.887c-.091.219-.206.446-.312.668h0a4.546,4.546,0,0,1-.29.659l-.022.028A.227.227,0,0,1,24.06,50h0a10.035,10.035,0,0,1-.406.937c-.05.1-.106.2-.162.312s-.069.112-.069.162a3.45,3.45,0,0,1-.268.787,2.232,2.232,0,0,1-.219.668,6.207,6.207,0,0,1-.384,1.171.5.5,0,0,0-.056.162v.022l-.028.084a.446.446,0,0,1-.028.091v.028c-.034.731-.078,1.461-.112,2.185l.062.022c.091-.184.184-.359.275-.546s.162-.359.262-.546a1.071,1.071,0,0,0,.15-.384c.212-.356.406-.7.624-1.033a.375.375,0,0,0,.084-.128c.184-.284.4-.659.624-.987.078-.125.159-.234.234-.359h0c.05-.144.128-.162.19-.234a.646.646,0,0,1,.234-.19,1.2,1.2,0,0,1,0,.156v.028a.372.372,0,0,1-.022.084v.084a.159.159,0,0,0,0,.056c0,.022,0,.034,0,.056a.16.16,0,0,1,0,.041h0a10.615,10.615,0,0,0-.069,1.352c0,.022,0,.056,0,.069h0c.056.425.128.849.184,1.277h0a.481.481,0,0,1,0,.128c.069.425.162.855.212,1.289v.05a.312.312,0,0,1,0,.078,3.5,3.5,0,0,0,.481.874c.112.162.234.353.34.5h0a13.078,13.078,0,0,0,1.049.915c.056,0,.112.069.172.069h0v.05c.144,0,.262.128.412.084a.259.259,0,0,0,.078-.034.076.076,0,0,0,.056-.05.149.149,0,0,0-.078-.119c-.581-.368-.49-.971-.559-1.539h.022a4.818,4.818,0,0,1,.359.412.369.369,0,0,0,.069.078l.15.162a3.155,3.155,0,0,0,.312.312,2.294,2.294,0,0,0,.368.262c.056.022.116.069.162.069h0c.425.206.793.406,1.183.609a.44.44,0,0,1,.234.106,3.278,3.278,0,0,1,.268,1.346.356.356,0,0,1,.034.084.194.194,0,0,1,0,.091,4.852,4.852,0,0,1,0,1.249.131.131,0,0,1,0,.112v.034h0a4.764,4.764,0,0,1-.116,1.227,11.749,11.749,0,0,1-.178,1.2v.05c-.022.078-.056.172.112.15h0a14.515,14.515,0,0,0,1.121-1.249h0a.393.393,0,0,1,.172-.284,4.681,4.681,0,0,0,.446-.587l.446-.609v-.034a.219.219,0,0,1,.084-.134h.081a.4.4,0,0,1,.15.056,2.463,2.463,0,0,1,.234.144,3.581,3.581,0,0,1,1.227.793c.034.034.078.041.116.112a1.14,1.14,0,0,1,.39.39l.112.106h.022c.559.468.6.731.2,1.361,0,.022-.034.041-.05.041a.7.7,0,0,1-.069.162.769.769,0,0,1-.056.106l-.028.05a1.767,1.767,0,0,0-.262.546,1.305,1.305,0,0,0-.034.5c.078.275.15.559.206.843a4.129,4.129,0,0,1,.084.518.768.768,0,0,1-.5.849Zm1.873,3.456c-.091.116-.106.347-.256.312h-.056a1.842,1.842,0,0,1-.787-.256c-.084-.056-.062-.162-.062-.262V70.894c0-.091.034-.2-.056-.262-.312-.2-.234-.537-.312-.821-.028-.116.05-.172.112-.234.275-.312.546-.609.821-.915A.528.528,0,0,0,35.786,68a1.561,1.561,0,0,1,0-1.433c.162-.384.268-.787.418-1.249l.05.066h0a6.885,6.885,0,0,1,.737.993,4.524,4.524,0,0,0,1.957,1.936,3.553,3.553,0,0,0,1.221.565h.053c.05,0,.119,0,.106.069s-.05.041-.091.034h-.022a.088.088,0,0,1-.041,0,8.093,8.093,0,0,0-1.455.2c-.253.053-.5.112-.752.172s-.453.1-.677.15h-.041c-.1.022-.144.069-.128.172a.209.209,0,0,0,.2.212,3.853,3.853,0,0,0,.771.05h.034a7.4,7.4,0,0,0,1.043-.1,7.158,7.158,0,0,1,1.171-.091,7.7,7.7,0,0,1,1.136.084,15.519,15.519,0,0,0-3.469,1.4c-.593.247-1.055.724-1.623,1.027-.041.05-.062.128-.106.178Zm3.675.937h-.05a.088.088,0,0,1-.034-.034L37.3,72.72c.29-.234.5-.368.859-.234.581.234,1.121.546,1.68.809a.125.125,0,0,1,.084.028v.034h0Zm5.807-1.055c-.652.524-1.3,1.055-1.908,1.639a.312.312,0,0,1-.421.053h0A27.571,27.571,0,0,0,40.166,72.4c-.49-.206-1.005-.29-1.511-.468.056-.106.162-.106.247-.134,1.083-.406,2.185-.765,3.253-1.249a1.4,1.4,0,0,1,.821,0,1.82,1.82,0,0,0,1.171-.134.234.234,0,0,1,.212-.028c.821.34,1.639.681,2.5,1.027-.39.312-.752.624-1.108.9Zm5.076-3.6a1.483,1.483,0,0,0-.234,1.445.958.958,0,0,1-.44,1.283l-.1.041a.674.674,0,0,1-.356.106.372.372,0,0,1-.262-.084,14.773,14.773,0,0,0-3.665-1.461,4.575,4.575,0,0,0-.531-.172c-.212-.05-.2-.19-.172-.34s.078-.119.134-.112a1.342,1.342,0,0,1,.184.041,34.757,34.757,0,0,1,4.215,1.171.582.582,0,0,0,.128.034c.1,0,.128-.106.112-.234-.028-.312-.056-.624-.425-.8a8.27,8.27,0,0,0-2.878-.687c-.15,0-.29-.022-.44-.028a14.015,14.015,0,0,0,2.107-1.2,2.948,2.948,0,0,0,.219-.2L49.582,66.1c.05-.078.091-.156.144-.234l.034.022.022-.022a.312.312,0,0,1,.15.219c.312.731.587,1.467.887,2.185a.4.4,0,0,1-.022.44ZM65.979,38.588a.194.194,0,0,1,.041.069.069.069,0,0,1,0,.062.122.122,0,0,1-.041.041l-.028.041h0v.028h0v.022a.8.8,0,0,0,.028,1.227.234.234,0,0,1,.041.106c.284.375.05.752,0,1.127a.062.062,0,0,1-.041.062h-.022a.352.352,0,0,1-.084,0h-.028c-.247-.069-.5-.15-.743-.234a.063.063,0,0,1-.056-.022.063.063,0,0,0-.056-.022.837.837,0,0,1-.347-.056.743.743,0,0,0-.865.15.165.165,0,0,1,0,.056.837.837,0,0,0,.5.275,13.39,13.39,0,0,1,2.007,1.027.434.434,0,0,1,.172.446,2.575,2.575,0,0,1-.056.312l-.212.915a.375.375,0,0,1-.056.234c0,.5-.34.865-.5,1.289a.378.378,0,0,0-.056.119,9.526,9.526,0,0,1-.384.88c0,.022-.028.05-.034.069h0v.05a.768.768,0,0,1-.172.39,5.651,5.651,0,0,1-.553,1.277.209.209,0,0,0-.05.106c-.184.425-.378.937-.559,1.4-.041.172-.078.34-.119.5l-.069.047h0a.05.05,0,0,1-.022.041,1.33,1.33,0,0,1-.106.565c-.034.116-.062.234-.1.353V51.6q-.312,1.352-.593,2.694c-.162.737-.234,1.489-.347,2.226s-.144,1.4-.312,2.092a7.216,7.216,0,0,1-.624,1.417,13.709,13.709,0,0,1-.609,1.311l-.022.041a.484.484,0,0,0-.034.091.066.066,0,0,1,0,.05l-.022.1a.536.536,0,0,0,0,.106.536.536,0,0,1,0,.106v.116a2.121,2.121,0,0,1,0,.212,18.915,18.915,0,0,0-.119,2.282.234.234,0,0,1-.172.268l-.172.062a3.084,3.084,0,0,0-.331.144l-.178.069a1.939,1.939,0,0,1-.29.1h-.034l-.39.162-.275.116a1.873,1.873,0,0,1-.624.268l-.15.1c-.446.2-.915.406-1.342.6a.237.237,0,0,1-.056.022,5.529,5.529,0,0,0-.731.312L55.2,67c-.412.184-.821.353-1.249.537H53.9c-.375.144-.765.347-1.121.509a5.266,5.266,0,0,1-.524.234c-.312.128-.4.112-.468-.219-.212-.156-.234-.418-.312-.624s-.144-.446-.212-.659c0-.069-.05-.056-.05-.1a.968.968,0,0,1-.106-.29v-.05c-.022,0-.022-.034-.028-.056l-.022-.05h0c-.1-.312-.206-.587-.275-.887a3.845,3.845,0,0,1-.234-.593.506.506,0,0,1,0-.206l.022-.1a.066.066,0,0,1,0-.05,4.584,4.584,0,0,1,.219-.412c.05-.116.091-.234.144-.34a3.313,3.313,0,0,0,.144-.34c.116-.212.184-.468.312-.7a.8.8,0,0,1,.056-.172,13.054,13.054,0,0,1,.44-1.289v-.05c.05-.256.29-.347.434-.5h0c.069-.022.106-.062.144-.062a.625.625,0,0,1,.128-.144,3.359,3.359,0,0,0,.219-.29,1.752,1.752,0,0,0,.162-.147c.134-.2.256-.406.406-.6.05-.062.091-.162.172-.162h.034c.116.028.078.162.062.247a2.6,2.6,0,0,0,0,.965c.034.247.078.5.1.743v.112a1.708,1.708,0,0,1,.106.559c.056.234.106.468.178.715a9.634,9.634,0,0,1,.509,1.342h0c.234.353.481.765.724,1.155a2.809,2.809,0,0,0,.219.262h0v.056c.069,0,.106.156.212,0-.022-.069-.034-.069-.056-.069a1.324,1.324,0,0,1-.091-.234,1.473,1.473,0,0,1-.041-.15,1.125,1.125,0,0,1-.034-.15.128.128,0,0,0,0-.069.855.855,0,0,0-.028-.144,1.437,1.437,0,0,0-.034-.219c-.012-.075-.022-.15-.034-.219a.1.1,0,0,1-.022-.078.4.4,0,0,0-.028-.084A1.593,1.593,0,0,0,55.3,63.7l-.062-.509c0-.084-.034-.172-.041-.256a10.737,10.737,0,0,1,.106-2.779h.041c.084-.425.172-.915.256-1.377h.069a8.872,8.872,0,0,0,.219,2.288.119.119,0,0,1,0,.05c.106.29.219.581.312.88.022.062.041.128.062.184a.771.771,0,0,0,.084.172,1.015,1.015,0,0,0,.078.106c.022.034.062.069.062.106a1.85,1.85,0,0,1,.162.178c.041.05.078.106.119.156.15.144.312.275.49.468-.022-.15-.034-.275-.05-.412s-.034-.256-.05-.4c0,0-.034-.022-.034-.034a2.446,2.446,0,0,0-.109-.312c-.041-.312-.078-.652-.122-.971a.291.291,0,0,1,0-.078.739.739,0,0,1,0-.078,8,8,0,0,1-.056-1.227v-.05a.275.275,0,0,1-.022-.1,3.325,3.325,0,0,1,0-.993v-.39a4.655,4.655,0,0,1,.162-1.4v-.05c.034-.212.069-.468.106-.7s.069-.468.1-.7c0-.1.041-.15.1-.15a.234.234,0,0,1,.119.05c.05.028.1.062.15.091a2.41,2.41,0,0,1,.219.144,1.492,1.492,0,0,1,.206.162L58,55.79l.05.034h0a3.665,3.665,0,0,1,1.108,1.055.743.743,0,0,1,.156.144.918.918,0,0,1,.172.312,3.2,3.2,0,0,1,.5.937.456.456,0,0,0,.028.091c0,.028.022,0,.028.084a1.024,1.024,0,0,1,.128.247c.034.084.062.172.1.247s.034.078.056.122a.256.256,0,0,0,.05.069.2.2,0,0,0,.122.069c.078-.262-.106-.509-.034-.759h.025c0-.069-.022-.069-.022-.106a5.067,5.067,0,0,0-.312-1.339.832.832,0,0,1,0-.116,6.528,6.528,0,0,0-.5-1.249.312.312,0,0,1-.106-.184.762.762,0,0,1-.162-.234l-.112-.184v.028h0a8.143,8.143,0,0,0-.652-.821l-.028-.028c-.028-.028-.056-.028-.084-.1a2.5,2.5,0,0,1-.478-.4c-.022-.022-.041-.028-.056-.05s0-.028-.069-.05c-.353-.234-.624-.537-.937-.752-.056-.069-.128-.028-.156-.144a21.926,21.926,0,0,1,2.722.106v-.047h0a5.23,5.23,0,0,1,1.289.331.106.106,0,0,0,.05.022h0a4.033,4.033,0,0,1,.821.312c.056.028.128.122.19.034s-.028-.134-.069-.19c-.106-.15-.206-.312-.312-.446-.022-.034-.056-.069-.056-.106-.212-.206-.378-.44-.559-.646a2.422,2.422,0,0,1-.178-.19,3.434,3.434,0,0,1-.624-.5c-.034-.022-.069-.062-.106-.062-.091,0-.19-.1-.284-.162s-.19-.119-.284-.184l-.106-.056c-.434-.162-.865-.312-1.3-.468h-.091a.312.312,0,0,1-.212-.084.234.234,0,0,1-.078-.106v-.034a.4.4,0,0,1-.022-.184,2.857,2.857,0,0,0-.034-.652,1.723,1.723,0,0,0-.034-.184l-.044-.184a1.094,1.094,0,0,0-.041-.184c-.012-.062-.05-.19-.069-.262a.028.028,0,0,1-.028-.028,10.676,10.676,0,0,0-.368-1.289c-.022-.056-.028-.1-.05-.172a1.09,1.09,0,0,1-.172-.5,1.248,1.248,0,0,1,0-.162v-.078a1.493,1.493,0,0,1,.056-.234c.028-.106.062-.212.1-.312v-.05h0a11.292,11.292,0,0,1,.434-1.383h0l.025-.031h0a.784.784,0,0,0,.156-.546.965.965,0,0,0-.078-.312,3.628,3.628,0,0,0-.178-.375.1.1,0,0,0-.041-.034v-.022a3.534,3.534,0,0,1-.624-1.049c0-.034-.034-.078-.05-.116l-.006-.044v-.022l-.022-.05h0a.831.831,0,0,1,.034-.128l.041-.078a.47.47,0,0,1,.056-.062l.028-.022c.19-.275.368-.565.581-.837a.765.765,0,0,0,.15-.743c-.122-.406-.106-.412.312-.559.069-.028.937-.353,1.277-.468l.219-.084.056-.022.162-.062c.446-.172.893-.331,1.342-.5a.119.119,0,0,1,.05,0,9.7,9.7,0,0,1,1.3-.5,1.044,1.044,0,0,1,.178-.056c.069-.056.284-.106.353-.162a9.97,9.97,0,0,1,.958-.347c.468-.353.849-.206,1.171.234a1.473,1.473,0,0,1,.128.091c.062.056.084.122.156.19.29.331.624.659.915.987Zm-9.971.39-.116.028c-.106,0-.162-.034-.234-.162Q54.69,37.1,53.7,35.369c-.084-.15-.116-.234.1-.284L66.363,31.4a1.356,1.356,0,0,0,.178-.041h0c-.059.756-.125,1.47-.181,2.185-.041.524-.084,1.055-.128,1.58a.372.372,0,0,1-.275.384q-4.964,1.72-9.937,3.462ZM35.377,54.9c1.171.1,2.341.331,3.512.5a1.321,1.321,0,0,1,.468.106,1.489,1.489,0,0,1,.668.859,5.539,5.539,0,0,1,.312,1.667,1.224,1.224,0,0,1-.425,1.121,1.639,1.639,0,0,0-.587.821,1.3,1.3,0,0,1,1.143.468,4.74,4.74,0,0,0,.659.646,1.118,1.118,0,0,0,1.73-.234c.172-.275.331-.559.518-.827a2.126,2.126,0,0,1,.958-.937c.275-.091.156-.234.062-.34a.624.624,0,0,0-.827-.056A4.77,4.77,0,0,0,42.442,59.8a1.892,1.892,0,0,1-.331.34.312.312,0,0,1-.446,0l-.022-.025a6.835,6.835,0,0,0-.524-.5.293.293,0,0,1-.125-.4l.022-.037a2.151,2.151,0,0,0,.234-1.221,4.2,4.2,0,0,0-.887-2.56c-.069-.078-.069-.119.028-.19A2.775,2.775,0,0,0,41.6,53.136c.022-.219-.022-.4-.2-.468s-.29.119-.368.262q-.283.447-.609.865a1.2,1.2,0,0,1-1.249.453c-1.689-.262-3.375-.434-5.076-.531-.084,0-.172-.028-.234.028a4.649,4.649,0,0,0-1.427,1.383l.056.022a1.415,1.415,0,0,0,.162-.028,8.32,8.32,0,0,1,2.725-.212Zm15.766.659q-.624.312-1.227.659a.936.936,0,0,1-.331.144,11.91,11.91,0,0,1-2.135.219,2.007,2.007,0,0,1-1.083-.384.849.849,0,0,1-.434-.593.624.624,0,0,1,.312.022,6.088,6.088,0,0,0,1.127.162,10.053,10.053,0,0,0,2.654-.624c.284-.1.559-.206.837-.312.128-.041.162-.084.05-.206a.418.418,0,0,0-.434-.1,16.621,16.621,0,0,1-5.526-.134c-.531-.1-1.1-.134-1.3-.793a4.644,4.644,0,0,1-.15-.537,1.1,1.1,0,0,0-.275-.5.262.262,0,0,0-.256-.109c-.112.028-.106.15-.106.234a7.678,7.678,0,0,0,.056.893,1.873,1.873,0,0,0,.331.908,2.5,2.5,0,0,0,1.5.987c.468.106.468.112.5.587a.574.574,0,0,0,.234.5,2.445,2.445,0,0,0,1.071.434,1.289,1.289,0,0,1,.715.2,1.72,1.72,0,0,0,.937.29c.247.022.5.028.752.069a.528.528,0,0,0,.468-.15c.7-.581,1.4-1.171,2.054-1.82a.265.265,0,0,0-.312-.034Zm-5.822,5.735a.144.144,0,0,0-.234-.062,4.8,4.8,0,0,1-1.808.406c-.262.034-.587-.041-.78.15-.468.468-.865.268-1.277-.056a.234.234,0,0,0-.069-.041,1.639,1.639,0,0,0-1.845,0,1,1,0,0,1-.787.2.537.537,0,0,0-.559.112,2.241,2.241,0,0,1-.312.206c-.275.184-.275.212-.022.418a.509.509,0,0,0,.2.091,2.107,2.107,0,0,0,1.661-.234,1.311,1.311,0,0,1,1.53.091,1.352,1.352,0,0,0,1.417.134,8.772,8.772,0,0,1,1.929-.624c.1,0,.2-.05.29.028.284.262.553.078.821-.028a.227.227,0,0,0,.144-.256c-.016-.231-.187-.359-.287-.537Zm-2.576,1.851a7.108,7.108,0,0,0-2.079.359c-.546.184-1.155.312-1.439.937a9.205,9.205,0,0,0-.256,1.127,1.951,1.951,0,0,0,.219.827c.05.069.069.184.19.178s.172-.112.206-.2a5.93,5.93,0,0,0,.234-.859,1.442,1.442,0,0,1,.827-1.033c.5-.212,1.015-.412,1.524-.609a.543.543,0,0,1,.312-.019,4.268,4.268,0,0,1,1.851.434.234.234,0,0,0,.184.034c.212-.05.234-.119.106-.29a2.135,2.135,0,0,0-1.873-.88ZM37.816,56.7c.425-.041.849-.1,1.268-.156.112,0,.29.028.312-.106s-.134-.234-.234-.312a.481.481,0,0,0-.206-.078,2.419,2.419,0,0,0-1.289-.041,6.178,6.178,0,0,1-2.626,0,7.29,7.29,0,0,0-.765-.091,5.778,5.778,0,0,0-1.043.312c-.234.116-.256.247-.041.412a.4.4,0,0,0,.412.091,1.377,1.377,0,0,1,1.461.284,1.5,1.5,0,0,0,1.545.256,5.525,5.525,0,0,0,.893-.443.937.937,0,0,1,.312-.128Zm-7.586.793a.958.958,0,0,0-.375-.937,1.03,1.03,0,0,1-.412-.593,2.135,2.135,0,0,0-.4-.908c-.069-.069-.122-.234-.247-.178a.468.468,0,0,0-.331.34,1.455,1.455,0,0,0,.821,1.639,1.442,1.442,0,0,1,.668.681c.05.106.056.312.212.275s.031-.24.069-.312Z" transform="translate(117.6 573.5)"/><path class="h" d="M14.853,20.335v-.041c0,.034-.034.078-.05.122a.44.44,0,0,0,0,.256.624.624,0,0,0,.062-.331" transform="translate(119.664 595.346)"/><path class="i" d="M54.828,56.322a4.943,4.943,0,0,0,.565-1.108,1.639,1.639,0,0,1,.069-.162,2.089,2.089,0,0,0,.212-.715h0c0-.078.028-.184-.05-.212a1.38,1.38,0,0,0-.412-.062,1.173,1.173,0,0,0-.162,0,.137.137,0,0,0-.078,0l-.041.022h0c-.041.062.056.178.028.262s0,.172-.028.247-.056.162-.091.247-.106.234-.162.347a5,5,0,0,1-.865,1.115.937.937,0,0,1,0-.771.362.362,0,0,1,.034-.078A4.185,4.185,0,0,1,54.095,55c.028-.05.069-.091.1-.144v-.028a.119.119,0,0,0,0-.069,1.292,1.292,0,0,0-.44-.652,1.2,1.2,0,0,0-.2-.147.574.574,0,0,0-.178-.069c-.091,0-.178-.022-.268-.028a3.631,3.631,0,0,1-.737-.112l-.062-.022a11.9,11.9,0,0,1-1.121-.412c-.119-.05-.234-.106-.359-.162a8.9,8.9,0,0,1-1.383-.787c-.312-.234-.652-.446-.971-.674-.212-.15-.434-.312-.646-.453-.312-.234-.624-.468-.937-.715l-.062-.05c-.041-.034-.091-.062-.134-.1l-.134-.1a.827.827,0,0,1-.178-.178q-.042-.061-.084-.112l-.084-.112a5.051,5.051,0,0,1-1.108-1.7,6.831,6.831,0,0,1-.821,1.427,6.264,6.264,0,0,1-.412.481,4.758,4.758,0,0,1-2.157,1.289,6.285,6.285,0,0,1-1.764.234l.49-.406c.05-.041.1-.084.15-.134a11.312,11.312,0,0,0,1.467-1.327l.062-.041a.137.137,0,0,0,.056-.1v-.034H42.15a.312.312,0,0,0-.162.1c-.412.234-.837.468-1.249.687l-.184.1c-.106.056-.212.116-.312.162-.184.091-.359.172-.546.247a10.065,10.065,0,0,1-2.779.7c-.531.062-1.061.116-1.6.162s-1.061.091-1.6.128c-.353.022-.7.041-1.061.056H32.2a2.311,2.311,0,0,0-.312,0,2.343,2.343,0,0,0-.312.041l-.156.034a12.576,12.576,0,0,0-2.532.937c-.219.116-.434.234-.646.359-.144.084-.275.178-.412.275a2.4,2.4,0,0,0-.2.15,1.286,1.286,0,0,0-.375.418.438.438,0,0,0-.034.084v.041l-.022.091a1.045,1.045,0,0,0,0,.15,1.692,1.692,0,0,0,.144.565,13.967,13.967,0,0,0,1.355,2.523,1.6,1.6,0,0,0,.262.312l.39.247a1.873,1.873,0,0,0,.743.144.624.624,0,0,1,.681.44A4.664,4.664,0,0,0,32.6,60.908c.056.034.116.078.178.116l.178.106a7.83,7.83,0,0,1,.715.468l.234.162a9.234,9.234,0,0,1,.849.731c.062.062.134.128.2.2.262.262.518.537.765.815.062.069.119.144.184.206.119.144.247.275.368.418a8.039,8.039,0,0,1,.815,1.083,1.786,1.786,0,0,1,.091.156,3.512,3.512,0,0,1,.268.574,1.873,1.873,0,0,0,.687.821,5.413,5.413,0,0,0,.468.312c.128.069.247.144.384.212.184.091.353.206.537.312a2.248,2.248,0,0,0,.425.178l.084.022a.1.1,0,0,1,.062,0,6.662,6.662,0,0,0,1.723.05c.172-.022.347-.041.518-.069l.481-.078h.056c.162-.028.312-.056.481-.091a11.183,11.183,0,0,0,1.205-.312c.128-.034.256-.078.384-.119a.7.7,0,0,1,.112-.034c.122-.041.234-.084.359-.134l.128-.05L45.7,66.9l.19-.084c.172-.078.34-.162.5-.247s.412-.234.624-.359c.106-.069.206-.144.312-.212a5.453,5.453,0,0,0,.743-.652c.106-.112.206-.234.312-.353a11.386,11.386,0,0,0,1.2-1.936c.062-.122.122-.247.184-.368.091-.184.178-.378.262-.565.022-.05.041-.106.062-.156a7.747,7.747,0,0,0,.247-1.005l-.312.119c-.15.062-.29.128-.434.178a1.8,1.8,0,0,1-.44.1.725.725,0,0,1-.122,0,.312.312,0,0,1-.347-.234.184.184,0,0,1,.134-.268.343.343,0,0,1,.091-.028l.056-.022.1-.041.106-.041a5.185,5.185,0,0,0,2.12-1.249c.091-.084.184-.172.268-.262A4.492,4.492,0,0,0,52.49,57.8l.022-.05c.05-.116.122-.212.172-.312a.253.253,0,0,1,.256-.172c.112,0,.234-.028.34-.034h.181A1.783,1.783,0,0,0,54.828,56.322Zm-25.2.971c-.156.034-.162-.172-.212-.275a1.38,1.38,0,0,0-.671-.7,1.436,1.436,0,0,1-.821-1.639.468.468,0,0,1,.331-.34c.134-.05.178.106.247.178a2.135,2.135,0,0,1,.4.908,1.03,1.03,0,0,0,.412.593.958.958,0,0,1,.375.937c-.034.078.091.268-.062.312Zm2.31-2.672a.1.1,0,0,1-.056-.022,4.652,4.652,0,0,1,1.424-1.4c.078-.056.162-.028.234-.028,1.7.106,3.39.275,5.076.531a1.2,1.2,0,0,0,1.249-.453,9.055,9.055,0,0,0,.624-.865c.084-.144.2-.312.368-.262s.234.234.2.468a2.775,2.775,0,0,1-1.205,2.073c-.1.069-.1.112-.028.19a4.2,4.2,0,0,1,.887,2.56,2.276,2.276,0,0,1-.234,1.221.293.293,0,0,0,.069.412h.022a6,6,0,0,1,.524.5.312.312,0,0,0,.443.05l.025-.022a2.163,2.163,0,0,0,.331-.34,4.642,4.642,0,0,1,1.127-1.108.624.624,0,0,1,.827.056c.091.112.212.247-.062.34a2.054,2.054,0,0,0-.958.937c-.184.268-.347.553-.518.827a1.118,1.118,0,0,1-1.73.234,5.163,5.163,0,0,1-.659-.646,1.292,1.292,0,0,0-1.143-.468,1.733,1.733,0,0,1,.587-.821,1.221,1.221,0,0,0,.425-1.121,5.769,5.769,0,0,0-.312-1.667,1.461,1.461,0,0,0-.668-.855,1.314,1.314,0,0,0-.468-.106c-1.171-.162-2.326-.4-3.512-.5a8.923,8.923,0,0,0-2.744.2.281.281,0,0,1-.144.041Zm4.143,2.135a1.539,1.539,0,0,1-1.545-.256,1.38,1.38,0,0,0-1.461-.284.4.4,0,0,1-.412-.091c-.212-.172-.2-.312.041-.412a5.95,5.95,0,0,1,1.043-.312,7.06,7.06,0,0,1,.765.091,6.294,6.294,0,0,0,2.626,0,2.342,2.342,0,0,1,1.289.041.78.78,0,0,1,.206.078c.1.091.262.178.234.312s-.206.091-.312.106c-.425.056-.843.112-1.268.156a.893.893,0,0,0-.331.137,5.526,5.526,0,0,1-.865.44Zm7.908,7.059a.234.234,0,0,1-.184-.034,4.193,4.193,0,0,0-1.854-.437.6.6,0,0,0-.312.034c-.509.2-1.021.39-1.524.609a1.427,1.427,0,0,0-.827,1.033,6.186,6.186,0,0,1-.234.859c-.041.091-.078.19-.206.2s-.144-.106-.19-.178a1.873,1.873,0,0,1-.219-.827,9.241,9.241,0,0,1,.256-1.127c.284-.624.893-.759,1.439-.937a7.146,7.146,0,0,1,2.079-.359,2.154,2.154,0,0,1,1.873.88c.122.172.1.234-.112.29Zm.965-2.26c-.268.112-.537.29-.821.028-.084-.078-.184-.05-.29-.028a8.741,8.741,0,0,0-1.929.624,1.352,1.352,0,0,1-1.417-.134,1.3,1.3,0,0,0-1.53-.091,2.107,2.107,0,0,1-1.661.234.509.509,0,0,1-.2-.091c-.256-.212-.256-.234.022-.418a2.792,2.792,0,0,0,.312-.206A.553.553,0,0,1,38,61.361a1,1,0,0,0,.787-.2,1.639,1.639,0,0,1,1.845,0l.069.041c.412.331.8.518,1.277.056.19-.184.518-.116.78-.15a4.939,4.939,0,0,0,1.808-.406.144.144,0,0,1,.234.062c.1.178.268.312.284.531,0,.106,0,.19-.106.234ZM48.9,56.909a.54.54,0,0,1-.468.15c-.247-.041-.5-.05-.752-.069a1.779,1.779,0,0,1-.937-.29,1.346,1.346,0,0,0-.715-.2,2.5,2.5,0,0,1-1.071-.434.556.556,0,0,1-.234-.5c-.041-.468-.05-.481-.5-.587a2.5,2.5,0,0,1-1.524-.983,1.873,1.873,0,0,1-.331-.908c-.034-.312-.05-.593-.056-.893,0-.084,0-.206.106-.234a.25.25,0,0,1,.268.112,1.171,1.171,0,0,1,.275.5,4.635,4.635,0,0,0,.15.537c.206.659.78.7,1.3.793a16.6,16.6,0,0,0,5.526.134c.156-.022.312-.05.434.1s.078.156-.05.206c-.284.1-.559.206-.837.312a10.037,10.037,0,0,1-2.654.624,6.088,6.088,0,0,1-1.127-.162.724.724,0,0,0-.312-.022.868.868,0,0,0,.434.593,1.985,1.985,0,0,0,1.083.384,11.355,11.355,0,0,0,2.135-.219.987.987,0,0,0,.331-.144q.6-.35,1.227-.659a.287.287,0,0,1,.353.022A25.019,25.019,0,0,1,48.9,56.9ZM26.363,18.316c-.553.256-.937.743-1.474,1.033-.144.078-.069.156,0,.234l1.6,1.829a.968.968,0,0,1,.091.15,1.2,1.2,0,0,0,.134-.056l.759-.468c.084-.05.078-.116.05-.19-.312-.815-.537-1.661-.887-2.46-.078-.153-.131-.153-.268-.084Zm-2.248.39c.056.069.112.128.212.069A10.115,10.115,0,0,0,25.773,18c1.09-.865,2.157-1.764,3.178-2.722.162-.15.275-.312.234-.468s.05-.312-.091-.4-.2.056-.29.106-.206.128-.312.184a32.947,32.947,0,0,1-3.072,1.561c-.743.29-1.474.6-2.232.874-.084.028-.262.028-.122.206.347.44.7.887,1.049,1.346Zm.091,4.19a25.692,25.692,0,0,1-2.482-1.723c-.069.29-.128.524-.178.759a.181.181,0,0,1-.162.162c-.206.034-.29-.15-.4-.262a.359.359,0,0,1-.134-.384c.178-.384.284-.8.434-1.193s.172-.406.5-.15a.748.748,0,0,1,.084.069,9.4,9.4,0,0,0,2.551,1.908,1.043,1.043,0,0,0,1.3-.056c.028-.022.062-.034.091-.056a.116.116,0,0,0,.062-.15h0a1.542,1.542,0,0,0-.29-.565c-.518-.44-1-.915-1.483-1.389A12.1,12.1,0,0,1,22.2,17.679a3.534,3.534,0,0,0-.543-.693.609.609,0,0,0-.987.144c-.4.737-.937,1.389-1.333,2.12-.446.8-1.015,1.53-1.417,2.37a.534.534,0,0,0,0,.468,8.845,8.845,0,0,1,.565,1.455c.028.116.05.212-.1.268s-.184-.028-.234-.119c-.29-.49-.593-.965-.865-1.467a45.486,45.486,0,0,0-2.81-4.917c-.056-.069-.062-.256-.219-.178a.293.293,0,0,0-.19.312c.116.6.178,1.221.331,1.808.674,2.544,1.517,5.036,2.341,7.539.069.219.144.19.312.1q3.159-1.786,6.322-3.562a7.975,7.975,0,0,0,.827-.437Zm-5.254,8.941a5.76,5.76,0,0,0-.877,2.354c-.112.2-.1.312.162.353.162.022.312.069.49.106q1.957.531,3.927.987a.468.468,0,0,0,.331.062c.056-.022.05-.062.05-.112a.138.138,0,0,1,0-.056l.809-2.7a.668.668,0,0,1,.178-.368,1.4,1.4,0,0,0,.559-1.127c0-.178.069-.347.084-.524a.509.509,0,0,1,.312-.468A7.586,7.586,0,0,0,27.5,28.468a2.279,2.279,0,0,0,.434-.624,24.381,24.381,0,0,1,1.845-3.278,16.072,16.072,0,0,1,2.6-3.225,1.67,1.67,0,0,0,.468-.859.624.624,0,0,0-.234-.646.549.549,0,0,0-.7-.022A18.123,18.123,0,0,1,28.4,21.687a2.5,2.5,0,0,0-1.445,1.093c0,.028-.056.041-.091.062a3.88,3.88,0,0,1-1.268.481c-.128.028-.256-.022-.39.062q-3.784,2.391-7.605,4.748c-.15.091-.178.162-.1.312a30.281,30.281,0,0,0,1.467,2.916.393.393,0,0,1-.022.465Zm4.077,3.746v.041a.059.059,0,0,1,0-.037Zm33.689-3.2q2.129-.659,4.277-1.283c.234-.062.262-.15.178-.359-.624-1.623-1.249-3.247-1.979-4.83a.7.7,0,0,1-.034-.624,4.33,4.33,0,0,0,.35-2.354c-.05-.412.028-.827-.022-1.249a27.535,27.535,0,0,0-.734-3.291,21.158,21.158,0,0,0-1.427-3.475,24.464,24.464,0,0,0-1.289-2.248c-.247-.44-.537-.849-.771-1.289a2,2,0,0,0-.937-.977c-.112-.05-.268-.156-.359-.041a.54.54,0,0,0-.144.537c.156.378.312.752.481,1.127a20.966,20.966,0,0,1,1.249,3.169A7.492,7.492,0,0,1,55.8,16.5c0,.162,0,.347-.172.406s-.19-.128-.275-.219c-.312-.347-.737-.7-1.249-.49a.809.809,0,0,1-.468.041c-.106-.022-.234-.05-.268-.172s.084-.19.178-.256a2.267,2.267,0,0,0,.256-.162c.106-.1.184-.234.069-.368a5.807,5.807,0,0,0-.837-.971c-.687-.537-1.383-1.071-2.107-1.539l-.312-.2c-1.3-.787-2.654-1.5-4.021-2.185a1.136,1.136,0,0,0-.587-.15c-.144,0-.29,0-.353.162a.412.412,0,0,0,.069.446,2.023,2.023,0,0,0,.509.468,14.049,14.049,0,0,1,1.758,1.027c1.061.815,2.12,1.639,3.15,2.5a10.772,10.772,0,0,1,.937.88l.531.553a.44.44,0,0,1,.128.212v.091a.312.312,0,0,1-.091.162c-.172.172-.34.078-.5,0a.84.84,0,0,1-.178-.178l-.084-.084c-.144-.144-.268-.284-.418-.418a1.874,1.874,0,0,0-.184-.15L48.9,14.129l-2.376-1.786a8.139,8.139,0,0,0-1.427-.865.29.29,0,0,0-.406.069h0a.468.468,0,0,0-.069.559,2.619,2.619,0,0,0,.652.821,9.99,9.99,0,0,1,1.027.937c1.489,1.652,3.006,3.278,4.449,4.97a.79.79,0,0,1,.184.4c.041.275-.1.406-.368.312a1.5,1.5,0,0,1-.15-.078,58,58,0,0,1-5.232-3.206,8.842,8.842,0,0,0-1.561-.865c-.172-.078-.353-.172-.5.041a.509.509,0,0,0,.128.581c.624.481,1.227,1.027,1.829,1.561a19.668,19.668,0,0,1,3.787,3.809.834.834,0,0,0,.915.162,3.434,3.434,0,0,1,1.97-.587h.187a.194.194,0,0,1,.128.034.106.106,0,0,1,.041.062c.078.172-.106.212-.206.275L49.98,22.58a.553.553,0,0,1-.49.084,3.388,3.388,0,0,0-.937-.19,26.691,26.691,0,0,0-3.98.384,2.454,2.454,0,0,0-.859.234.4.4,0,0,0-.19.425.28.28,0,0,0,.247.312c.821.162,1.639.331,2.46.5a5.358,5.358,0,0,0,.893.178c.937.587,1.873,1.2,2.757,1.851a4.215,4.215,0,0,0,1.808.809c.312.05.624.144.937.219a3.434,3.434,0,0,1,1.193.34,3.122,3.122,0,0,1,.624,1.061c.112.234.256.347.518.284s.312.056.378.256c.331.937.681,1.9,1.005,2.838C56.449,32.386,56.514,32.442,56.717,32.38Z" transform="translate(118.148 574.01)"/></g></g></svg>