<svg xmlns="http://www.w3.org/2000/svg" width="120.492" height="116.505" viewBox="0 0 120.492 116.505"><defs><style>.a{fill:#dbd27b;}.b{fill:#bfb555;}.c{fill:#f5de19;}</style></defs><g transform="translate(-192 -287)"><path class="a" d="M121.846,74.667H53.978c-6.247,0-11.311,11.193-11.311,25v10c0,2.762,1.013,5,2.262,5H64.294c.965.01,1.824,1.352,2.149,3.36l2.466,16.491c.951,6.052,3.526,10.12,6.425,10.15h55.561c1.249,0,2.262-2.239,2.262-5v-40C133.157,85.86,128.093,74.667,121.846,74.667Z" transform="translate(158.333 212.333)"/><path class="b" d="M101.709,155.135H41.678a2.4,2.4,0,0,1-2.147-1.844l-2.464-9.052c-.952-3.321-3.523-5.553-6.419-5.572H6.781C3.036,138.667,0,142.353,0,146.9a93.392,93.392,0,0,0,2.672,22.308l9.041,36.515c1.432,5.819,5.843,9.8,10.845,9.793H86.385c4.728.016,8.964-3.542,10.618-8.92l9.764-31.629a39.708,39.708,0,0,0,1.722-11.6C108.49,158.821,105.454,155.135,101.709,155.135Z" transform="translate(192 158.333)"/><g transform="translate(129 -141.913)"><path class="c" d="M11,42.027a7.091,7.091,0,0,0,4.437-1.463,6.711,6.711,0,0,0,2.281-3.843,43,43,0,0,0,.608-8.324q.031-5.9.21-7.767a14.783,14.783,0,0,1,1.185-4.752A8.524,8.524,0,0,1,21.859,13a8.639,8.639,0,0,1,3.262-1.643,19.475,19.475,0,0,1,4.372-.339h1.982v5.543h-1.1A6.619,6.619,0,0,0,25.5,17.888,9.6,9.6,0,0,0,24.3,23.8a101.739,101.739,0,0,1-.387,11.688,13.371,13.371,0,0,1-2.176,5.825,12.9,12.9,0,0,1-4.827,3.612,10.768,10.768,0,0,1,5.635,4.956,25.022,25.022,0,0,1,1.752,10.931q0,6.884.143,8.2a4.953,4.953,0,0,0,1.426,3.34,7.492,7.492,0,0,0,4.508.954h1.1v5.567H29.484a15.955,15.955,0,0,1-5.021-.567,8.425,8.425,0,0,1-3.751-2.627,9.5,9.5,0,0,1-1.9-4.613,68.039,68.039,0,0,1-.482-9.165,46.679,46.679,0,0,0-.608-8.782,6.789,6.789,0,0,0-2.281-3.849A7.034,7.034,0,0,0,11,47.794Z" transform="translate(104.6 466.529)"/><path class="c" d="M45.454,47.809a7.057,7.057,0,0,0-4.437,1.483,6.789,6.789,0,0,0-2.281,3.846,46.507,46.507,0,0,0-.6,8.789,68.051,68.051,0,0,1-.489,9.165,9.454,9.454,0,0,1-1.928,4.61,8.439,8.439,0,0,1-3.751,2.631,16.06,16.06,0,0,1-5.021.563H24.964V73.34h1.1a7.468,7.468,0,0,0,4.508-.951A4.959,4.959,0,0,0,32,69.036q.143-1.31.143-8.2A25,25,0,0,1,33.9,49.907a10.774,10.774,0,0,1,5.652-4.953,12.923,12.923,0,0,1-4.817-3.636,13.365,13.365,0,0,1-2.173-5.825,101.771,101.771,0,0,1-.39-11.688,9.583,9.583,0,0,0-1.2-5.913,6.63,6.63,0,0,0-4.881-1.324h-1.1v-5.56H26.97a19.383,19.383,0,0,1,4.362.339,8.711,8.711,0,0,1,3.255,1.643,8.592,8.592,0,0,1,2.139,2.879,14.845,14.845,0,0,1,1.181,4.752q.18,1.87.214,7.767a43.11,43.11,0,0,0,.6,8.334A6.735,6.735,0,0,0,41,40.552a7.129,7.129,0,0,0,4.454,1.507Z" transform="translate(138.038 466.5)"/></g></g></svg>