<svg xmlns="http://www.w3.org/2000/svg" width="119.411" height="109.491" viewBox="0 0 119.411 109.491"><defs><style>.a{fill:#db847b;}.b{fill:#bf5e55;}.c{fill:#e75749;}.d{fill:#fff;}.e{fill:#c0392b;}</style></defs><g transform="translate(-187 -317)"><path class="a" d="M121.846,74.667H53.978c-6.247,0-11.311,11.193-11.311,25v10c0,2.762,1.013,5,2.262,5H64.294c.965.01,1.824,1.352,2.149,3.36l2.466,16.491c.951,6.052,3.526,10.12,6.425,10.15h55.561c1.249,0,2.262-2.239,2.262-5v-40C133.157,85.86,128.093,74.667,121.846,74.667Z" transform="translate(153.333 242.333)"/><path class="b" d="M101.709,155.135H41.678a2.4,2.4,0,0,1-2.147-1.844l-2.464-9.052c-.952-3.321-3.523-5.553-6.419-5.572H6.781C3.036,138.667,0,142.353,0,146.9a93.392,93.392,0,0,0,2.672,22.308l9.041,36.515c1.432,5.819,5.843,9.8,10.845,9.793H86.385c4.728.016,8.964-3.542,10.618-8.92l9.764-31.629a39.708,39.708,0,0,0,1.722-11.6C108.49,158.821,105.454,155.135,101.709,155.135Z" transform="translate(187 188.333)"/><g transform="translate(85 -159.3)"><path class="c" d="M15.095,10.955A6.524,6.524,0,0,1,18.562,10H70.429A6.48,6.48,0,0,1,76.6,14.969a8.582,8.582,0,0,1,.183,2.194V45.627H72.776a4.619,4.619,0,0,0-.56.054,13.333,13.333,0,0,0-1.481-.027c-.764.017-1.552-.034-2.326.034a5.794,5.794,0,0,0-1.019-.051H55.323c-.509,0-1,.02-1.494-.024l.255-.166L37.9,35.737v9.9H20.994a5.79,5.79,0,0,0-.638.054,10.932,10.932,0,0,0-1.634-.041,21.1,21.1,0,0,0-2.174.037,5.226,5.226,0,0,0-.645-.054H11.974q.024-13.887,0-27.761a12.189,12.189,0,0,1,.18-2.88,6.47,6.47,0,0,1,2.941-4.042Zm1.358,5.573a1.627,1.627,0,0,0-1.246,1.542v3.352a1.627,1.627,0,0,0,1.6,1.528h3.335A1.623,1.623,0,0,0,21.666,21.4c0-1.083,0-2.174,0-3.257a1.64,1.64,0,0,0-.839-1.464,1.8,1.8,0,0,0-.91-.2H17.024a2.754,2.754,0,0,0-.554.044Zm51.806,0a1.627,1.627,0,0,0-1.206,1.545V21.4a1.623,1.623,0,0,0,1.528,1.549h3.332a1.627,1.627,0,0,0,1.6-1.542c0-1.114,0-2.231,0-3.345A1.623,1.623,0,0,0,72,16.477c-.886-.024-1.783,0-2.663,0a5.043,5.043,0,0,0-1.073.061Zm-51.786,9.72a1.623,1.623,0,0,0-1.151,1.019,2.744,2.744,0,0,0-.105.982v2.89a1.623,1.623,0,0,0,1.528,1.528c1.019.02,2.038,0,3.036,0A2.1,2.1,0,0,0,20.8,32.5a1.634,1.634,0,0,0,.917-1.46V27.783a1.623,1.623,0,0,0-1.528-1.589c-.859-.02-1.725,0-2.588,0a6.072,6.072,0,0,0-1.128.054Zm51.8,0a1.623,1.623,0,0,0-1.1,1.019,2.717,2.717,0,0,0-.105.985v2.88a1.623,1.623,0,0,0,1.549,1.545h3.1a1.881,1.881,0,0,0,.968-.2,1.63,1.63,0,0,0,.852-1.42V27.79a1.623,1.623,0,0,0-1.511-1.583c-.89-.024-1.783,0-2.666,0a4.911,4.911,0,0,0-1.09.054Zm-51.8,9.73a1.627,1.627,0,0,0-1.25,1.549v3.349a1.623,1.623,0,0,0,1.6,1.528h3.311a1.623,1.623,0,0,0,1.549-1.545V37.53a1.623,1.623,0,0,0-1.542-1.593c-.886-.017-1.783,0-2.663,0A5.4,5.4,0,0,0,16.474,35.978Zm51.789,0A1.617,1.617,0,0,0,67.169,37a2.717,2.717,0,0,0-.105.982v2.88a1.623,1.623,0,0,0,1.545,1.549h3.325a1.627,1.627,0,0,0,1.6-1.542c0-1.114,0-2.231,0-3.345a1.623,1.623,0,0,0-1.508-1.583c-.89-.024-1.783,0-2.663,0a4.859,4.859,0,0,0-1.1.037Z" transform="translate(144.601 504.5)"/><path class="d" d="M19.6,17.574l16.18,9.71-.255.166Q27.561,32.2,19.6,37V27.488C19.6,24.183,19.6,20.885,19.6,17.574Z" transform="translate(162.922 522.649)"/><path class="e" d="M11.975,20.528H15.9a5.224,5.224,0,0,1,.645.054,1.644,1.644,0,0,0-1.043.679,2.248,2.248,0,0,0-.282,1.318v2.663A1.746,1.746,0,0,0,16.961,27h3.057a1.732,1.732,0,0,0,1.674-1.45c.02-1.138,0-2.292,0-3.42a1.61,1.61,0,0,0-1.328-1.562A5.791,5.791,0,0,1,21,20.511h16.91v9.509q7.964-4.755,15.921-9.547c.509.044,1,.017,1.494.024H67.4a5.794,5.794,0,0,1,1.019.051,1.623,1.623,0,0,0-1.209.982,2.5,2.5,0,0,0-.115,1.036v2.581a1.725,1.725,0,0,0,1.613,1.827h3.1A1.742,1.742,0,0,0,73.555,25.3V22.794a2.734,2.734,0,0,0-.255-1.5,1.634,1.634,0,0,0-1.07-.744,4.619,4.619,0,0,1,.56-.054H76.8c.027,4.385,0,8.769,0,13.154V49.675a6.538,6.538,0,0,1-1.559,4.2,6.453,6.453,0,0,1-3.98,2.211,19.19,19.19,0,0,1-2.5.085h-48a23.606,23.606,0,0,1-3.485-.122,6.511,6.511,0,0,1-5.094-4.7,7.193,7.193,0,0,1-.228-1.9V22.828C11.971,22.063,11.948,21.292,11.975,20.528Zm4.571,9.788a1.562,1.562,0,0,0-.982.594,1.939,1.939,0,0,0-.34,1.182v2.958a1.746,1.746,0,0,0,1.746,1.674h3.267A1.749,1.749,0,0,0,21.685,34.9V31.872a1.572,1.572,0,0,0-.509-1.165,1.814,1.814,0,0,0-1.24-.431H17.042a2.646,2.646,0,0,0-.5.037Zm51.867,0a1.579,1.579,0,0,0-1.328,1.477V34.9a1.722,1.722,0,0,0,1.61,1.827H72.1a1.783,1.783,0,0,0,1.43-1.742V32.408a2.292,2.292,0,0,0-.289-1.443,1.7,1.7,0,0,0-1.358-.679H69.456a5.719,5.719,0,0,0-1.019.027ZM16.55,40.036a1.552,1.552,0,0,0-1.019.635,1.949,1.949,0,0,0-.316,1.141V44.7a1.783,1.783,0,0,0,1.528,1.752h3.518a1.749,1.749,0,0,0,1.443-1.827V41.592a1.572,1.572,0,0,0-.509-1.168,1.807,1.807,0,0,0-1.233-.431H17.056a2.619,2.619,0,0,0-.506.044Zm51.857,0a1.569,1.569,0,0,0-1.253,1.087,2.52,2.52,0,0,0-.075.839v3.057a1.735,1.735,0,0,0,1.671,1.443h3.04A1.756,1.756,0,0,0,73.538,44.7V41.666a1.674,1.674,0,0,0-.727-1.389,3.736,3.736,0,0,0-2-.278c-.795.024-1.6-.051-2.377.044Z" transform="translate(144.6 529.598)"/></g></g></svg>