<svg xmlns="http://www.w3.org/2000/svg" width="131.492" height="106.017" viewBox="0 0 131.492 106.017"><defs><style>.a{fill:#dbd27b;}.b{fill:#bfb555;}.c{fill:#f5de19;}</style></defs><g transform="translate(-35 -297.488)"><path class="a" d="M117.206,53.334H33.653A12.257,12.257,0,0,0,21.483,67.219a2.457,2.457,0,0,0,3.681,1.8,6.96,6.96,0,0,1,3.573-.944h17.5a7.412,7.412,0,0,1,6.989,5l.418,1.347A12.346,12.346,0,0,0,65.3,82.823h56.816a7.372,7.372,0,0,1,3.671.983,2.462,2.462,0,0,0,3.7-2.123V65.621A12.287,12.287,0,0,0,117.206,53.334Z" transform="translate(14 244.225)"/><g transform="translate(1 63)"><g transform="translate(16 -18)"><path class="b" d="M102.856,111.089a11.235,11.235,0,0,0-5.664-1.528H44.934a6.817,6.817,0,0,1-6.428-4.6l-.384-1.239A11.355,11.355,0,0,0,27.395,96H11.3a10.816,10.816,0,0,0-5.533,1.46A11.274,11.274,0,0,0,0,107.3v54.247a11.3,11.3,0,0,0,11.3,11.3H97.192a11.3,11.3,0,0,0,11.3-11.3V120.862A11.224,11.224,0,0,0,102.856,111.089Z" transform="translate(18 156.49)"/></g></g><g transform="translate(-17 -141.913)"><path class="c" d="M11,42.027a7.091,7.091,0,0,0,4.437-1.463,6.711,6.711,0,0,0,2.281-3.843,43,43,0,0,0,.608-8.324q.031-5.9.21-7.767a14.783,14.783,0,0,1,1.185-4.752A8.524,8.524,0,0,1,21.859,13a8.639,8.639,0,0,1,3.262-1.643,19.475,19.475,0,0,1,4.372-.339h1.982v5.543h-1.1A6.619,6.619,0,0,0,25.5,17.888,9.6,9.6,0,0,0,24.3,23.8a101.739,101.739,0,0,1-.387,11.688,13.371,13.371,0,0,1-2.176,5.825,12.9,12.9,0,0,1-4.827,3.612,10.768,10.768,0,0,1,5.635,4.956,25.022,25.022,0,0,1,1.752,10.931q0,6.884.143,8.2a4.953,4.953,0,0,0,1.426,3.34,7.492,7.492,0,0,0,4.508.954h1.1v5.567H29.484a15.955,15.955,0,0,1-5.021-.567,8.425,8.425,0,0,1-3.751-2.627,9.5,9.5,0,0,1-1.9-4.613,68.039,68.039,0,0,1-.482-9.165,46.679,46.679,0,0,0-.608-8.782,6.789,6.789,0,0,0-2.281-3.849A7.034,7.034,0,0,0,11,47.794Z" transform="translate(104.6 466.529)"/><path class="c" d="M45.454,47.809a7.057,7.057,0,0,0-4.437,1.483,6.789,6.789,0,0,0-2.281,3.846,46.507,46.507,0,0,0-.6,8.789,68.051,68.051,0,0,1-.489,9.165,9.454,9.454,0,0,1-1.928,4.61,8.439,8.439,0,0,1-3.751,2.631,16.06,16.06,0,0,1-5.021.563H24.964V73.34h1.1a7.468,7.468,0,0,0,4.508-.951A4.959,4.959,0,0,0,32,69.036q.143-1.31.143-8.2A25,25,0,0,1,33.9,49.907a10.774,10.774,0,0,1,5.652-4.953,12.923,12.923,0,0,1-4.817-3.636,13.365,13.365,0,0,1-2.173-5.825,101.771,101.771,0,0,1-.39-11.688,9.583,9.583,0,0,0-1.2-5.913,6.63,6.63,0,0,0-4.881-1.324h-1.1v-5.56H26.97a19.383,19.383,0,0,1,4.362.339,8.711,8.711,0,0,1,3.255,1.643,8.592,8.592,0,0,1,2.139,2.879,14.845,14.845,0,0,1,1.181,4.752q.18,1.87.214,7.767a43.11,43.11,0,0,0,.6,8.334A6.735,6.735,0,0,0,41,40.552a7.129,7.129,0,0,0,4.454,1.507Z" transform="translate(138.038 466.5)"/></g></g></svg>