<svg xmlns="http://www.w3.org/2000/svg" xmlns:xlink="http://www.w3.org/1999/xlink" width="133.095" height="114.501" viewBox="0 0 133.095 114.501"><defs><radialGradient id="a" cx="0.337" cy="0.3" r="0.774" gradientTransform="translate(0)" gradientUnits="objectBoundingBox"><stop offset="0" stop-color="#d3e9ff"/><stop offset="0.155" stop-color="#d3e9ff"/><stop offset="0.75" stop-color="#4074ae"/><stop offset="1" stop-color="#36486c"/></radialGradient><radialGradient id="b" cx="0.263" cy="0.2" r="1.151" gradientUnits="objectBoundingBox"><stop offset="0" stop-color="#fff"/><stop offset="1" stop-color="#fff" stop-opacity="0.165"/></radialGradient><radialGradient id="c" cx="0.499" cy="0.499" r="0.497" gradientTransform="matrix(-0.808, 0.591, 0.592, 0.806, -16.948, 5.542)" gradientUnits="objectBoundingBox"><stop offset="0" stop-color="#fff"/><stop offset="1" stop-color="#fff" stop-opacity="0"/></radialGradient><radialGradient id="d" cx="0.498" cy="0.499" r="0.498" gradientTransform="matrix(-0.807, 0.591, 0.592, 0.806, -11.835, 3.873)" xlink:href="#c"/><radialGradient id="e" cx="0.501" cy="0.502" r="0.5" gradientTransform="matrix(-0.807, 0.591, 0.591, 0.806, -16.964, 5.552)" xlink:href="#c"/><radialGradient id="f" cx="0.499" cy="0.499" r="0.498" gradientTransform="matrix(-0.807, 0.592, 0.592, 0.806, -15.309, 5.014)" xlink:href="#c"/><linearGradient id="g" x1="-4.999" y1="1.312" x2="-4.907" y2="1.08" gradientTransform="matrix(1, 0, 0, 1, 0, 0)" xlink:href="#c"/><linearGradient id="h" x1="-1.717" y1="-1.43" x2="-1.639" y2="-1.772" gradientTransform="matrix(1, 0, 0, 1, 0, 0)" xlink:href="#c"/><linearGradient id="i" x1="-4.807" y1="1.221" x2="-4.816" y2="1.403" gradientTransform="matrix(1, 0, 0, 1, 0, 0)" xlink:href="#c"/><linearGradient id="j" x1="-5.537" y1="-7.934" x2="-5.52" y2="-8.216" gradientTransform="matrix(1, 0, 0, 1, 0, 0)" xlink:href="#c"/></defs><g transform="translate(-1727 -620)"><g transform="translate(1513 80)"><path d="M121.846,74.667H53.978c-6.247,0-11.311,11.193-11.311,25v10c0,2.762,1.013,5,2.262,5H64.294c.965.01,1.824,1.352,2.149,3.36l2.466,16.491c.951,6.052,3.526,10.12,6.425,10.15H130.9c1.249,0,2.262-2.239,2.262-5v-40C133.157,85.86,128.093,74.667,121.846,74.667Z" transform="translate(180.333 465.333)" fill="#dcb67a"/><path d="M101.709,155.135H41.678a2.4,2.4,0,0,1-2.147-1.844l-2.464-9.052c-.952-3.321-3.523-5.553-6.419-5.572H6.781C3.036,138.667,0,142.353,0,146.9a93.392,93.392,0,0,0,2.672,22.308l9.041,36.515c1.432,5.819,5.843,9.8,10.845,9.793H86.385c4.728.016,8.964-3.542,10.618-8.92l9.764-31.629a39.708,39.708,0,0,0,1.722-11.6C108.49,158.821,105.454,155.135,101.709,155.135Z" transform="translate(214 411.333)" fill="#c09553"/></g><g transform="translate(140 -220.57)"><path d="M81.921,46.692a35.384,35.384,0,1,1-35.385-35.38H46.53A35.388,35.388,0,0,1,81.921,46.7Z" transform="translate(1634.759 870.163)" fill="url(#a)"/><path d="M47.2,83.661a36.3,36.3,0,1,1,36.3-36.3,36.295,36.295,0,0,1-36.3,36.3Zm0-70.771A34.472,34.472,0,1,0,81.675,47.362h0A34.513,34.513,0,0,0,47.2,12.89Z" transform="translate(1634.094 869.5)" fill="#39396c"/><path d="M54.3,36.2h0l-.976,1.121A20.852,20.852,0,0,0,51.367,35.4l-1.5.221L48.5,34.072v1.891l1.174.893.781.893L51.5,36.558c.262.493.52.983.785,1.5v1.477l-1.174,1.327-2.149,1.5-1.626,1.622-1.043-1.192.52-1.327-1.043-1.192L44.007,36.5l-1.5-1.7-.419.422.594,2.138,1.121,1.256a50.832,50.832,0,0,0,2.086,5.312,29.735,29.735,0,0,0,3.779-.3v1.035L48.111,48.5,46.68,50.127l-1.174,2.512v4.13l.392,1.622-.654.748-1.435.893-1.5,1.256,1.241,1.4-1.7,1.5.325.957L39.641,68.02H37.933l-1.432.893h-.916V67.721l-.374-2.362c-.5-1.5-1.032-2.953-1.562-4.422,0-1.084.067-2.161.131-3.245l.654-1.477-.916-1.772.067-2.433-1.241-1.4.621-2.026-1.006-1.144H30.188l-.594-.665-1.761,1.121-.714-.815-1.63,1.4L22.181,44.7l-1.3-3.1,1.174-1.768-.654-.748,1.432-3.394c1.177-1.462,2.4-2.871,3.648-4.28L28.7,30.82l2.475-.3,1.7.445,2.411,2.43.845-.957,1.17-.146,2.217.748h1.7L42.385,32l.52-.748L41.73,30.51l-1.955-.146a19.663,19.663,0,0,0-1.693-2.213l-.654.3-.262,1.918-1.174-1.327-.258-1.5-1.3-1.032h-.523l1.3,1.477-.52,1.327-1.043.3.654-1.327-1.174-.594L32.094,26.5l-1.959.441-.258.594-1.174.748-.654,1.622-1.626.811-.718-.811h-.789V27.273l1.7-.893h1.3l-.262-1.032-1.035-1.024,1.757-.374.976-1.121.781-1.327h1.435l-.392-1.032.912-.579v1.192l1.955.441,1.951-1.633.131-.748,1.693-1.192a12.967,12.967,0,0,0-1.824.3V16.926l.654-1.5h-.654l-1.432,1.327-.392.748.392,1.035-.654,1.768-1.043-.594-.912-1.032-1.435,1.032L30,17.356l2.475-1.622V14.84l1.562-1.032,2.475-.594,1.7.594,3.125.594-.781.893h-1.7l1.7,1.768,1.3-1.477.4-.65a46.269,46.269,0,0,1,7.85,9.375A34.12,34.12,0,0,1,54.3,36.2Z" transform="translate(1661.389 875.37)" fill="rgba(32,74,135,0.71)"/><path d="M21.283,14.177l-.131.893.916.594,1.562-1.032-.781-.893-1.043.594-.52-.15" transform="translate(1662.134 876.81)" fill="rgba(32,74,135,0.71)"/><path d="M31.118,13.212l-3.39-1.327-3.91.43L19,13.642l-.912.893,2.99,2.063v1.192L19.9,18.983l1.562,3.1,1.039-.594,1.3-2.063a44.856,44.856,0,0,0,5.73-2.213L31.1,13.227" transform="translate(1653.733 871.731)" fill="rgba(32,74,135,0.71)"/><path d="M23.563,16.529l-.52-1.331-.916.3.262,1.622,1.174-.594" transform="translate(1664.806 880.802)" fill="rgba(32,74,135,0.71)"/><path d="M23.039,17.534l-.262,1.772,1.432-.3,1.043-1.032-.916-.893a24.06,24.06,0,0,0-1.043-2.359h-.781v.893l.52.594v1.327" transform="translate(1665.857 879.502)" fill="rgba(32,74,135,0.71)"/><path d="M34.12,49.686l-1.043-2.063-1.955-.449-1.043-2.8-2.617.3L25.25,43.052,22.9,45.115v.325a8.938,8.938,0,0,1-2.213-.624l-.52-1.477V41.713l-1.562.146q.2-1.548.374-3.1h-.9l-.912,1.192-.912.441-1.29-.748-.131-1.622.262-1.768,1.955-1.477H18.6l.258-.893,1.955.441L22.24,36.1,22.5,33.15,25,31.1l.912-2.213,1.824-.748,1.043-1.476,2.344-.445,1.163-1.764H28.767l2.217-1.035h1.562l2.217-.748.262-.893-.785-.748-.912-.3.262-.893-.654-1.327-1.562.594.262-1.192L29.81,16.878l-1.439,2.531.131.893L27.07,20.9l-.912,1.914-.374-1.768L23.306,20l-.374-1.327,3.26-1.918,1.432-1.327.131-1.622-.781-.445-1.043-.15-.654,1.622s-1.091.213-1.372.284A37.241,37.241,0,0,0,11.419,38.981,20.225,20.225,0,0,0,12.638,41.1l2.736,1.622,2.736.748,1.174,1.5,1.824,1.327,1.043-.146.781.351v.239l-1.043,2.8L21.1,50.729l.262.594-.654,2.209,2.344,4.28L25.4,59.876l1.043,1.477-.127,3.058.785,1.768-.785,3.409s-.064-.022.037.318a15.726,15.726,0,0,0,4.433,2.411l.478-.374-.258-.748,1.043-1.035.374-1.035,1.7-.594,1.3-3.245-.374-.893.912-1.327,1.955-.445,1.043-2.359-.262-2.949L40.257,55.1l.262-2.213c-2.138-1.062-4.261-2.153-6.384-3.245" transform="translate(1635.485 875.373)" fill="rgba(32,74,135,0.71)"/><path d="M16.736,14.56l1.3.893H19.08V14.414l-1.316-.6-1.043.748" transform="translate(1650.002 877.018)" fill="rgba(32,74,135,0.71)"/><path d="M16.3,15.907l-.654,1.622h1.3l.654-1.5c.564-.4,1.121-.8,1.693-1.192l1.3.445,2.617,1.768,1.3-1.192-1.435-.594-.654-1.327-2.475-.3-.131-.748-1.174.3-.52,1.032L17.479,12.9l-.258.594.131,1.5-1.043.893" transform="translate(1647.053 874.494)" fill="rgba(32,74,135,0.71)"/><path d="M18.312,14.779l.654-.594,1.3-.3a20.56,20.56,0,0,1,2.736-1.035l-.52-.893L20.8,12.2l-.8.792-1.312.191-1.166.549-.564.273-.344.464,1.693.3" transform="translate(1649.73 871.929)" fill="rgba(32,74,135,0.71)"/><path d="M17.952,17.989l.785-1.192L17.563,15.9l.374,2.063" transform="translate(1652.307 882.733)" fill="rgba(32,74,135,0.71)"/><path d="M45.892,80.552a34.5,34.5,0,1,1,34.5-34.5,34.5,34.5,0,0,1-34.5,34.5Zm0-67.175A32.677,32.677,0,1,0,78.569,46.054h0A32.711,32.711,0,0,0,45.892,13.377Z" transform="translate(1635.405 870.811)" opacity="0.396" fill="url(#b)"/><path d="M13.907,31.912a12.26,12.26,0,1,0,20.01-14.171q-.117-.164-.24-.325h0A12.26,12.26,0,1,0,13.9,31.913Z" transform="translate(1635.785 873.149)" fill="url(#c)"/><path d="M14.533,20.7a3.784,3.784,0,0,0,6.1-4.486h0a3.784,3.784,0,0,0-6.1,4.486Z" transform="translate(1641.996 879.353)" fill="#fff"/><path d="M24.318,47.762A15.9,15.9,0,1,0,50.159,29.226l-.2-.269h0A15.9,15.9,0,1,0,24.31,47.762Z" transform="translate(1662.351 900.674)" fill="url(#d)"/><path d="M25.124,33.2a4.9,4.9,0,1,0,7.906-5.8h0a4.9,4.9,0,1,0-7.906,5.8Z" transform="translate(1670.411 908.73)" fill="#fff"/><path d="M13.351,38.491a12.265,12.265,0,0,0,19.785-14.5h0a12.26,12.26,0,1,0-19.772,14.5Z" transform="translate(1634.308 891.158)" fill="url(#e)"/><path d="M13.989,27.272a3.784,3.784,0,1,0,6.1-4.486h0a3.784,3.784,0,1,0-6.1,4.486Z" transform="translate(1640.506 897.357)" fill="#fff"/><path d="M19.542,33.1A13.232,13.232,0,1,0,40.953,17.551l-.071-.1h0A13.232,13.232,0,1,0,19.47,33.008Z" transform="translate(1650.609 872.039)" fill="url(#f)"/><path d="M20.2,20.966a4.079,4.079,0,1,0,6.605-4.788l-.026-.034h0a4.079,4.079,0,1,0-6.605,4.788Z" transform="translate(1657.329 878.779)" fill="#fff"/><path d="M26.171,72.919A11.412,11.412,0,0,1,17.5,69.682c-3.364-3.6-3.574-9.7-.594-17.15A64.181,64.181,0,0,1,32.72,30.706c15.449-14.458,32.973-20,39.9-12.6,3.364,3.607,3.574,9.7.594,17.15A64.211,64.211,0,0,1,57.4,57.081,64.207,64.207,0,0,1,34.563,71.413,27.5,27.5,0,0,1,26.171,72.919ZM63.9,16.438c-8.044,0-19.662,5.685-30.091,15.442A62.566,62.566,0,0,0,18.4,53.142c-2.744,6.852-2.643,12.335.28,15.453s8.392,3.574,15.4,1.3a62.566,62.566,0,0,0,22.226-13.98A62.567,62.567,0,0,0,71.719,34.672c2.744-6.852,2.646-12.335-.284-15.453A9.951,9.951,0,0,0,63.9,16.438Z" transform="translate(1644.79 879.801)" fill="url(#g)"/><path d="M64.249,62.332a61.471,61.471,0,0,1-27.822-8.224c-18.6-10.093-29.4-24.958-24.573-33.866,2.355-4.344,8.044-6.482,16.073-5.981a64.181,64.181,0,0,1,25.7,8.1,64.189,64.189,0,0,1,20.817,17.12c4.766,6.455,6.112,12.4,3.757,16.746C75.99,60.313,70.9,62.332,64.249,62.332Zm-38.5-46.538c-6.257,0-10.642,1.824-12.485,5.233C8.938,29,19.67,43.22,37.186,52.71s35.283,10.724,39.623,2.751c2.041-3.764.748-9.1-3.633-15.023a62.566,62.566,0,0,0-20.29-16.664,62.566,62.566,0,0,0-25.044-7.891q-1.08-.086-2.093-.086Z" transform="translate(1633.529 878.042)" fill="url(#h)"/><path d="M23.876,70.271A11.192,11.192,0,0,1,15.383,67.1c-3.308-3.536-3.517-9.5-.594-16.8A62.75,62.75,0,0,1,30.246,28.966C45.358,14.826,62.512,9.413,69.274,16.657h0c6.777,7.244.247,23.99-14.866,38.127a62.742,62.742,0,0,1-22.319,14,26.884,26.884,0,0,1-8.212,1.484Zm36.86-55.187c-7.85,0-19.183,5.555-29.362,15.083A61.075,61.075,0,0,0,16.329,50.912c-2.68,6.672-2.579,12.018.269,15.06s8.179,3.491,15.008,1.263a61.112,61.112,0,0,0,21.7-13.651C67.513,40.3,74.144,24.23,68.1,17.775h0a9.719,9.719,0,0,0-7.364-2.691Z" transform="translate(1639.101 876.013)" fill="url(#i)"/><path d="M53.756,51.851c-2.561,0-5.207-.127-7.921-.4C24.776,49.38,9.054,39.867,10.044,29.774h0C11.035,19.682,28.316,13.417,49.372,15.5S86.15,27.087,85.159,37.179C84.3,45.964,71.071,51.851,53.756,51.851ZM11.648,29.935c-.893,9.031,14.518,17.965,34.345,19.92s36.681-3.805,37.57-12.836S69.045,19.058,49.215,17.1,12.538,20.908,11.648,29.935Z" transform="translate(1631.6 880.535)" fill="url(#j)"/></g></g></svg>