<svg xmlns="http://www.w3.org/2000/svg" viewBox="0 0 130.63 128.81"><defs><style>.cls-1{fill:#dcb67a;}.cls-2{fill:#c09553;}.cls-3{fill:#ffebe3;}.cls-4{fill:#f20;}.cls-5{fill:#00a302;}.cls-6{fill:#f9ff16;}</style></defs><g id="Camada_2" data-name="Camada 2"><g id="Camada_1-2" data-name="Camada 1"><path class="cls-1" d="M88.3,0H20.4C14.2,0,9.1,11.2,9.1,25V35c0,2.8,1,5,2.3,5H30.8c1,0,1.8,1.4,2.2,3.4l2.5,16.5c1,6,3.5,10.1,6.4,10.1H97.5c1.2,0,2.3-2.2,2.3-5V25C99.6,11.2,94.5,0,88.3,0Z"/><path class="cls-2" d="M101.8,26.5h-60a2.58,2.58,0,0,1-2.2-1.8l-2.5-9c-1-3.3-3.5-5.6-6.4-5.6H6.8C3,10,0,13.7,0,18.3A93.21,93.21,0,0,0,2.7,40.6l9,36.5c1.4,5.8,5.9,9.8,10.9,9.8H86.5c4.7,0,9-3.5,10.6-8.9l9.8-31.6a41.75,41.75,0,0,0,1.7-11.6C108.6,30.1,105.5,26.5,101.8,26.5Z"/><rect class="cls-3" x="48.68" y="44.18" width="81.94" height="84.63"/><rect class="cls-4" x="50.03" y="45.52" width="21.49" height="37.61"/><rect class="cls-5" x="73.12" y="45.52" width="30.86" height="59.45"/><rect class="cls-6" x="50.03" y="84.83" width="21.49" height="42.51"/><rect class="cls-6" x="105.77" y="45.52" width="23.33" height="18.81"/><rect class="cls-4" x="105.77" y="66.02" width="12.65" height="12.65"/><rect class="cls-5" x="105.77" y="80.47" width="23.33" height="17.13"/><rect class="cls-5" x="119.51" y="66.02" width="9.59" height="12.65"/><rect class="cls-4" x="73.12" y="106.37" width="22.12" height="20.97"/><rect class="cls-5" x="96.18" y="106.37" width="7.8" height="17.13"/><rect class="cls-6" x="96.18" y="124.53" width="23.33" height="2.81"/><rect class="cls-4" x="119.51" y="98.46" width="9.59" height="7.63"/><rect class="cls-4" x="105.77" y="98.46" width="12.65" height="7.63"/><rect class="cls-4" x="105.77" y="107.31" width="9.59" height="9.59"/><rect class="cls-5" x="116.15" y="107.31" width="12.95" height="12.65"/><rect class="cls-5" x="105.77" y="118.12" width="9.59" height="5.37"/><rect class="cls-5" x="120.29" y="120.81" width="8.38" height="6.41"/><rect class="cls-6" x="116.15" y="120.69" width="3.36" height="2.81"/></g></g></svg>