<svg xmlns="http://www.w3.org/2000/svg" xmlns:xlink="http://www.w3.org/1999/xlink" viewBox="0 0 131.23 106.59"><defs><style>.cls-1{fill:#e07575;}.cls-2{fill:#bf6d55;}.cls-3{fill:url(#Gradiente_sem_nome_10);}.cls-4{fill:none;}.cls-5,.cls-6{fill:#be202e;}.cls-6{isolation:isolate;opacity:0.35;}.cls-7{fill:url(#Gradiente_sem_nome_18);}.cls-8{fill:url(#Gradiente_sem_nome_14);}.cls-9{fill:url(#Gradiente_sem_nome_18-2);}.cls-10{fill:url(#Gradiente_sem_nome_14-2);}.cls-11{fill:url(#Gradiente_sem_nome_18-3);}.cls-12{fill:url(#Gradiente_sem_nome_18-4);}.cls-13{fill:url(#Gradiente_sem_nome_18-5);}.cls-14{fill:url(#Gradiente_sem_nome_18-6);}.cls-15{fill:url(#Gradiente_sem_nome_10-2);}.cls-16{fill:url(#Gradiente_sem_nome_18-7);}.cls-17{fill:url(#Gradiente_sem_nome_14-3);}.cls-18{fill:url(#Gradiente_sem_nome_18-8);}.cls-19{fill:url(#Gradiente_sem_nome_14-4);}.cls-20{fill:url(#Gradiente_sem_nome_18-9);}.cls-21{fill:url(#Gradiente_sem_nome_18-10);}.cls-22{fill:url(#Gradiente_sem_nome_18-11);}</style><linearGradient id="Gradiente_sem_nome_10" x1="-7975.36" y1="-3293.26" x2="-7971.08" y2="-3288.25" gradientTransform="translate(5029.01 -25006.75) rotate(-101.21) scale(2.96)" gradientUnits="userSpaceOnUse"><stop offset="0" stop-color="#f69923"/><stop offset="0.31" stop-color="#f79a23"/><stop offset="0.84" stop-color="#e97826"/></linearGradient><linearGradient id="Gradiente_sem_nome_18" x1="-8005.08" y1="-3295.26" x2="-7974.51" y2="-3295.26" gradientTransform="translate(5029.01 -25006.75) rotate(-101.21) scale(2.96)" gradientUnits="userSpaceOnUse"><stop offset="0.32" stop-color="#9e2064"/><stop offset="0.63" stop-color="#c92037"/><stop offset="0.75" stop-color="#cd2335"/><stop offset="1" stop-color="#e97826"/></linearGradient><linearGradient id="Gradiente_sem_nome_14" x1="-8001.39" y1="-3292.17" x2="-7983.17" y2="-3292.17" gradientTransform="translate(5029.01 -25006.75) rotate(-101.21) scale(2.96)" gradientUnits="userSpaceOnUse"><stop offset="0" stop-color="#282662"/><stop offset="0.1" stop-color="#662e8d"/><stop offset="0.79" stop-color="#9f2064"/><stop offset="0.95" stop-color="#cd2032"/></linearGradient><linearGradient id="Gradiente_sem_nome_18-2" x1="-8003.36" y1="-3295.53" x2="-7972.79" y2="-3295.53" xlink:href="#Gradiente_sem_nome_18"/><linearGradient id="Gradiente_sem_nome_14-2" x1="-8001.13" y1="-3295.1" x2="-7985.07" y2="-3295.1" xlink:href="#Gradiente_sem_nome_14"/><linearGradient id="Gradiente_sem_nome_18-3" x1="-8003.36" y1="-3292.36" x2="-7972.79" y2="-3292.36" xlink:href="#Gradiente_sem_nome_18"/><linearGradient id="Gradiente_sem_nome_18-4" x1="-8005.26" y1="-3292.53" x2="-7974.69" y2="-3292.53" xlink:href="#Gradiente_sem_nome_18"/><linearGradient id="Gradiente_sem_nome_18-5" x1="-8003.36" y1="-3291.42" x2="-7972.79" y2="-3291.42" xlink:href="#Gradiente_sem_nome_18"/><linearGradient id="Gradiente_sem_nome_18-6" x1="-8003.36" y1="-3291.53" x2="-7972.79" y2="-3291.53" xlink:href="#Gradiente_sem_nome_18"/><linearGradient id="Gradiente_sem_nome_10-2" x1="-8896.8" y1="-2906.71" x2="-8892.52" y2="-2901.7" gradientTransform="translate(24710.07 -19512.8) rotate(-56.55) scale(3.36)" xlink:href="#Gradiente_sem_nome_10"/><linearGradient id="Gradiente_sem_nome_18-7" x1="-8927.52" y1="-2905.78" x2="-8896.95" y2="-2905.78" gradientTransform="translate(24710.07 -19512.8) rotate(-56.55) scale(3.36)" xlink:href="#Gradiente_sem_nome_18"/><linearGradient id="Gradiente_sem_nome_14-3" x1="-8923.83" y1="-2902.69" x2="-8905.62" y2="-2902.69" gradientTransform="translate(24710.07 -19512.8) rotate(-56.55) scale(3.36)" xlink:href="#Gradiente_sem_nome_14"/><linearGradient id="Gradiente_sem_nome_18-8" x1="-8925.8" y1="-2906.04" x2="-8895.24" y2="-2906.04" gradientTransform="translate(24710.07 -19512.8) rotate(-56.55) scale(3.36)" xlink:href="#Gradiente_sem_nome_18"/><linearGradient id="Gradiente_sem_nome_14-4" x1="-8923.58" y1="-2905.6" x2="-8907.51" y2="-2905.6" gradientTransform="translate(24710.07 -19512.8) rotate(-56.55) scale(3.36)" xlink:href="#Gradiente_sem_nome_14"/><linearGradient id="Gradiente_sem_nome_18-9" x1="-8925.8" y1="-2902.89" x2="-8895.24" y2="-2902.89" gradientTransform="translate(24710.07 -19512.8) rotate(-56.55) scale(3.36)" xlink:href="#Gradiente_sem_nome_18"/><linearGradient id="Gradiente_sem_nome_18-10" x1="-8927.7" y1="-2903.05" x2="-8897.13" y2="-2903.05" gradientTransform="translate(24710.07 -19512.8) rotate(-56.55) scale(3.36)" xlink:href="#Gradiente_sem_nome_18"/><linearGradient id="Gradiente_sem_nome_18-11" x1="-8925.8" y1="-2901.94" x2="-8895.24" y2="-2901.94" gradientTransform="translate(24710.07 -19512.8) rotate(-56.55) scale(3.36)" xlink:href="#Gradiente_sem_nome_18"/></defs><g id="Camada_2" data-name="Camada 2"><g id="Camada_1-2" data-name="Camada 1"><path class="cls-1" d="M96.3,1H12.7A12.27,12.27,0,0,0,.4,13.2a8.08,8.08,0,0,0,.1,1.6,2.49,2.49,0,0,0,2.8,2.1,3.18,3.18,0,0,0,.9-.3,6.44,6.44,0,0,1,3.6-.9H25.3a7.33,7.33,0,0,1,7,5l.4,1.3a12.38,12.38,0,0,0,11.7,8.4h56.8a6.86,6.86,0,0,1,3.7,1,2.47,2.47,0,0,0,3.4-.9,2.66,2.66,0,0,0,.3-1.2V13.2A12.4,12.4,0,0,0,96.3,1Z"/><path class="cls-2" d="M102.9,15a11.29,11.29,0,0,0-5.7-1.5H44.9a6.79,6.79,0,0,1-6.4-4.6l-.4-1.2A11.39,11.39,0,0,0,27.4,0H11.3A10.58,10.58,0,0,0,5.8,1.5,11.27,11.27,0,0,0,0,11.3V65.5A11.35,11.35,0,0,0,11.3,76.8H97.2a11.35,11.35,0,0,0,11.3-11.3h0V24.8A11.2,11.2,0,0,0,102.9,15Z"/><path class="cls-3" d="M60.18,11.46a33,33,0,0,0-1.38,9.2l4.94,2.39a61.57,61.57,0,0,1,.35-8.8,3.09,3.09,0,0,1,0-.32c0,.11,0,.21,0,.32a53.52,53.52,0,0,0,0,8.68A97.67,97.67,0,0,0,71.4,16a10.54,10.54,0,0,0-5.52-5.89S61.5,8.35,60.18,11.46Z"/><path class="cls-4" d="M73,36.36s0,0,0,0l-.28.24s0,0,0,.07Z"/><path class="cls-4" d="M76.07,44.91c-.14.16-.29.31-.45.47C75.78,45.23,75.93,45.07,76.07,44.91Z"/><path class="cls-4" d="M73.22,71.18a1.8,1.8,0,0,0-.06-.22l-1.23-4.5q-.65-2.47-1.24-4.82c-.41-1.64-.8-3.25-1.17-4.8s-.74-3.2-1.07-4.73c-.27-1.24-.53-2.45-.77-3.62-.08-.4-.15-.78-.23-1.17-.14-.77-.3-1.51-.43-2.24s-.26-1.33-.38-2c0-.22-.08-.44-.12-.64l0-.12-.24.21-.49-.24a.9.9,0,0,0,0,.16c.17,1,.35,2,.53,3,.1.57.22,1.15.32,1.73.31,1.61.63,3.21,1,4.83s.69,3.25,1.07,4.84.74,3.17,1.12,4.74.77,3.12,1.17,4.66.83,3.21,1.26,4.76c.09.35.19.72.3,1,.34,1.27.69,2.5,1,3.72l.79.4.26-.24a.19.19,0,0,0,0-.1C74.1,74.27,73.65,72.7,73.22,71.18Z"/><path class="cls-5" d="M77.32,49.43c-.23.25-.47.49-.71.73h0c.12-.11.25-.25.37-.37Z"/><path class="cls-6" d="M77.32,49.43c-.23.25-.47.49-.71.73h0c.12-.11.25-.25.37-.37Z"/><path class="cls-5" d="M75.51,45.48h0l.11-.1c.15-.16.31-.31.44-.47-.17.19-.37.37-.56.57Z"/><path class="cls-6" d="M75.51,45.48h0l.11-.1c.15-.16.31-.31.44-.47-.17.19-.37.37-.56.57Z"/><path class="cls-7" d="M65.05,37.64c-.24-1.64-.44-3.26-.63-4.85s-.34-3.27-.45-4.87a1.31,1.31,0,0,1,0-.28q-.19-2.36-.24-4.59l-4.94-2.38c0,.3,0,.6,0,.93,0,1.18-.09,2.42-.1,3.76,0,1.49,0,3,0,4.66s.1,3.06.18,4.64c.08,1.36.17,2.73.28,4.13V39l6.6,3.34C65.52,40.73,65.28,39.18,65.05,37.64Z"/><path class="cls-8" d="M74.81,76.68c.35,1.23.74,2.5,1.14,3.79v0a4.84,4.84,0,0,0,.17.54c.26.87.51,1.65,1.06,3.41a6.69,6.69,0,0,1,3.79.91,5.4,5.4,0,0,0-3.6-2,11.61,11.61,0,0,0,6.32-10.31c0-.37-.09-.75-.16-1.13a4.66,4.66,0,0,1-2.65,4h0A13.06,13.06,0,0,0,83,67.75c0-.67-.14-1.38-.26-2.14a10.57,10.57,0,0,1-6.14,8.52l-2,1.85C74.66,76.21,74.73,76.44,74.81,76.68Z"/><path class="cls-9" d="M72.23,71Q71.6,68.7,71,66.28c-.4-1.54-.79-3.09-1.17-4.66s-.75-3.15-1.12-4.74S67.94,53.65,67.6,52s-.66-3.22-1-4.82c-.11-.58-.21-1.15-.32-1.73-.18-1-.34-2-.52-3a.47.47,0,0,0,0-.16L59.18,39c0,.1,0,.21,0,.31.13,1.49.26,3,.44,4.5s.37,3.09.59,4.65c.2,1.31.41,2.62.62,3.94l.15.79c.3,1.63.62,3.21,1,4.68.39,1.67.82,3.23,1.24,4.7.28,1,.56,1.87.85,2.74s.52,1.48.78,2.2q.94,2.57,2.08,5l6.63,3.36c-.34-1.21-.69-2.45-1-3.71C72.42,71.75,72.33,71.4,72.23,71Z"/><path class="cls-10" d="M67,72.68a51.79,51.79,0,0,0,3,5.63l.11.19a13.44,13.44,0,0,0-5-.39,18.64,18.64,0,0,1,8.15,4.75,8.57,8.57,0,0,1-3.85,1.93,8.53,8.53,0,0,0,4.22-.37,10.38,10.38,0,0,0-2.57,5A10.73,10.73,0,0,1,75.25,85c2,6.6,4.38,13.76,7,21.26a2,2,0,0,0,.31-1.87C82.11,103.05,79,94.12,75.35,82c-.11-.35-.2-.69-.31-1L75,80.67c-.37-1.27-.74-2.58-1.13-3.92-.08-.31-.17-.6-.25-.92h0l-6.64-3.36A1.8,1.8,0,0,0,67,72.68Z"/><path class="cls-11" d="M66.52,42.44l.12.64c.13.66.24,1.32.38,2s.29,1.48.43,2.24c.08.39.15.77.23,1.17.24,1.17.5,2.38.77,3.62.34,1.53.69,3.1,1.07,4.73s.76,3.16,1.17,4.8.8,3.16,1.24,4.81c.39,1.47.81,3,1.23,4.51a1.8,1.8,0,0,0,.06.22c.43,1.52.88,3.09,1.34,4.69a.19.19,0,0,0,0,.1l2-1.84s-.09,0-.15.07A19.21,19.21,0,0,0,81.31,63.4a25.17,25.17,0,0,0-.06-6,40.62,40.62,0,0,0-1-5.15c-.4-1.59-.88-3.27-1.47-5a10.19,10.19,0,0,1-1.53,2.2l-.35.39-.37.37h0A11.7,11.7,0,0,0,78,41.48a11,11,0,0,1-2,3.43c-.13.16-.29.31-.44.47s-.07.07-.13.11h0a12.12,12.12,0,0,0,1.29-2.81c.06-.2.11-.39.15-.59s.12-.61.16-.91,0-.39.07-.6a8.54,8.54,0,0,0,0-1.43,1.68,1.68,0,0,0,0-.45c0-.22-.07-.43-.11-.63-.16-.92-.35-1.73-.52-2.42-.09-.35-.17-.67-.26-.95,0-.12-.06-.23-.1-.35-.11-.32-.2-.61-.29-.85a7.91,7.91,0,0,0-.37-.84h0a1.9,1.9,0,0,1-.14.4,13,13,0,0,1-2.25,3.24l1.84-1.69L73,36.29s0,0,0,0l-.27.3s0,0,0-.06l-6.3,5.76A.13.13,0,0,1,66.52,42.44Z"/><path class="cls-12" d="M64.08,22.93c.07,1.39.19,2.94.34,4.66l0,.27c.15,1.5.33,3.12.56,4.88.21,1.52.43,3.12.7,4.85.22,1.5.5,3.07.78,4.73l6.31-5.77a10.37,10.37,0,0,0,1.58-5.71c0-.49,0-1-.08-1.54-.1-1.67-.28-3.32-.54-5a44.7,44.7,0,0,0-.94-4.46c-.21-.77-.45-1.52-.73-2.26-.22-.57-.46-1.08-.69-1.58A99.23,99.23,0,0,1,64.08,22.93Z"/><path class="cls-5" d="M77,49.79c-.11.13-.24.24-.37.38h0C76.73,50,76.85,49.91,77,49.79Z"/><path class="cls-6" d="M77,49.79c-.11.13-.24.24-.37.38h0C76.73,50,76.85,49.91,77,49.79Z"/><path class="cls-13" d="M77,49.79c-.11.13-.24.24-.37.38h0C76.73,50,76.85,49.91,77,49.79Z"/><path class="cls-5" d="M75.51,45.49l.12-.11Z"/><path class="cls-6" d="M75.51,45.49l.12-.11Z"/><path class="cls-14" d="M75.51,45.49l.12-.11Z"/><path class="cls-15" d="M124.78,12.7A37.33,37.33,0,0,0,116.37,19l2.08,5.86a69,69,0,0,1,7.28-6.81c.17-.15.28-.23.28-.23l-.28.23a62.48,62.48,0,0,0-6.93,7,108.2,108.2,0,0,0,11.39.25,11.92,11.92,0,0,0,.24-9.14S128.31,11.24,124.78,12.7Z"/><path class="cls-4" d="M115.33,43h.06l-.42,0a.07.07,0,0,0-.07,0Z"/><path class="cls-4" d="M111,52.24a6,6,0,0,1-.74,0A5.86,5.86,0,0,0,111,52.24Z"/><path class="cls-4" d="M87.83,71.14c0-.07.08-.16.13-.23.88-1.58,1.73-3.12,2.59-4.61,1-1.67,1.91-3.29,2.83-4.85s1.94-3.25,2.87-4.79S98.19,53.5,99.14,52c.78-1.21,1.52-2.38,2.27-3.52.25-.39.49-.76.74-1.12l1.43-2.15,1.28-1.91c.14-.21.29-.42.41-.61l.08-.1H105l-.2-.59c0,.06-.07.11-.1.16-.66.92-1.31,1.87-2,2.83-.37.54-.74,1.1-1.13,1.65-1,1.54-2,3.08-3,4.67s-2,3.18-3,4.76-1.92,3.13-2.86,4.71-1.86,3.11-2.78,4.68-1.87,3.24-2.77,4.85c-.2.34-.41.72-.6,1.08-.72,1.3-1.43,2.56-2.11,3.81l.32,1,.4,0a.24.24,0,0,0,.06-.11C86.08,74.32,87,72.7,87.83,71.14Z"/><path class="cls-5" d="M108.41,56.88c-.39,0-.77,0-1.16,0h.6A5.33,5.33,0,0,0,108.41,56.88Z"/><path class="cls-6" d="M108.41,56.88c-.39,0-.77,0-1.16,0h.6A5.33,5.33,0,0,0,108.41,56.88Z"/><path class="cls-5" d="M110.08,52.27h.18a5.78,5.78,0,0,0,.73,0c-.29,0-.59,0-.9,0Z"/><path class="cls-6" d="M110.08,52.27h.18a5.78,5.78,0,0,0,.73,0c-.29,0-.59,0-.9,0Z"/><path class="cls-16" d="M107.89,37.64c1.12-1.51,2.24-3,3.35-4.41s2.33-2.9,3.51-4.28c.07-.09.15-.17.21-.24q1.74-2,3.46-3.87L116.35,19l-.78.71q-1.47,1.37-3.06,2.94c-1.19,1.19-2.43,2.45-3.69,3.78s-2.34,2.54-3.54,3.88q-1.52,1.73-3,3.54l-.12.14,2.65,7.93C105.82,40.5,106.86,39.06,107.89,37.64Z"/><path class="cls-17" d="M84.73,76.81q-1,1.92-2.1,4s0,0,0,0c-.11.2-.21.38-.3.58-.48.9-.89,1.73-1.85,3.58a7.59,7.59,0,0,1,2.33,3.74,6.16,6.16,0,0,0-1.34-4.44c5.39,1,10.3.35,13.28-3.27.26-.32.52-.67.77-1a5.27,5.27,0,0,1-5.31,1.1h0a14.66,14.66,0,0,0,8.23-5c.49-.58,1-1.21,1.5-1.93a12,12,0,0,1-11.72,2l-3.08-.11C85,76.33,84.86,76.56,84.73,76.81Z"/><path class="cls-18" d="M87.14,70.23C88,68.63,89,67,89.91,65.38s1.81-3.12,2.77-4.68,1.9-3.14,2.86-4.71,2-3.18,3-4.76,2-3.12,3-4.67c.37-.56.73-1.1,1.12-1.65.64-.95,1.3-1.89,2-2.83,0,0,.07-.1.1-.16L102.14,34a3.11,3.11,0,0,1-.23.28c-1.08,1.3-2.17,2.62-3.24,4S96.52,41,95.46,42.48c-.89,1.21-1.76,2.43-2.63,3.67-.17.24-.35.5-.51.75-1,1.55-2,3.08-2.94,4.54q-1.51,2.49-2.73,4.76c-.53,1-1,2-1.5,2.9-.38.79-.75,1.59-1.12,2.39-.85,1.87-1.6,3.75-2.29,5.65l2.67,8c.7-1.27,1.41-2.52,2.12-3.81C86.72,71,86.93,70.6,87.14,70.23Z"/><path class="cls-19" d="M81.64,67.41a56,56,0,0,0-2,7,1.68,1.68,0,0,1-.06.24,15.15,15.15,0,0,0-3.76-4.33,21,21,0,0,1,2.79,10.3A9.7,9.7,0,0,1,74,79.07a9.72,9.72,0,0,0,3.7,3.06,11.68,11.68,0,0,0-6.05,2,12.08,12.08,0,0,1,6.87-.24c-3.66,6.89-7.4,14.56-11.23,22.71A2.24,2.24,0,0,0,69,105.33c.69-1.47,5.23-11.17,12-23.8.18-.34.39-.71.58-1.09l.16-.3,2.2-4,.53-.94v0l-2.67-8A.64.64,0,0,0,81.64,67.41Z"/><path class="cls-20" d="M105.27,42.67l-.42.61c-.41.63-.85,1.26-1.27,1.91l-1.43,2.15c-.25.36-.5.73-.75,1.12-.74,1.14-1.49,2.31-2.26,3.52q-1.42,2.24-2.89,4.66t-2.87,4.79c-.92,1.57-1.87,3.18-2.83,4.85-.85,1.48-1.71,3-2.6,4.61a2.36,2.36,0,0,0-.13.23C87,72.68,86.07,74.3,85.18,76a.21.21,0,0,0-.06.1l3.08.11c-.06,0-.12,0-.19-.07A21.63,21.63,0,0,0,100.5,71.3a29.18,29.18,0,0,0,4.74-4.88,47.41,47.41,0,0,0,3.31-4.91q1.42-2.38,2.83-5.23a11.28,11.28,0,0,1-3,.56l-.58,0h-.59a13.2,13.2,0,0,0,8-5.84A12.69,12.69,0,0,1,111,52.22c-.24,0-.48,0-.73,0H110A13.77,13.77,0,0,0,113.3,51c.2-.11.4-.22.59-.35s.57-.39.85-.6l.53-.42a11.14,11.14,0,0,0,1.12-1.16c.12-.14.23-.26.33-.4s.29-.4.41-.59c.61-.87,1.11-1.66,1.52-2.37.21-.35.39-.67.55-1,.06-.12.13-.23.19-.34.16-.35.32-.65.44-.92a10,10,0,0,0,.37-1h0a2.19,2.19,0,0,1-.44.2,14.51,14.51,0,0,1-4.38.82l2.83.11-2.83-.11h-.5a.09.09,0,0,0,.08,0l-9.66-.34A.1.1,0,0,1,105.27,42.67Z"/><path class="cls-21" d="M118.8,25c-1,1.17-2.18,2.52-3.42,4a1.55,1.55,0,0,0-.19.24c-1.07,1.32-2.21,2.77-3.42,4.37-1,1.39-2.15,2.86-3.31,4.47-1,1.39-2,2.87-3.11,4.44l9.66.34a11.64,11.64,0,0,0,5.81-3.33c.38-.4.77-.84,1.17-1.3,1.23-1.42,2.4-2.9,3.49-4.44a48.9,48.9,0,0,0,2.77-4.33c.44-.78.85-1.58,1.21-2.4.27-.63.49-1.23.7-1.81Q124.48,25.46,118.8,25Z"/><path class="cls-5" d="M107.85,56.91h0Z"/><path class="cls-6" d="M107.85,56.91h0Z"/><path class="cls-22" d="M107.85,56.91h0Z"/></g></g></svg>