<svg xmlns="http://www.w3.org/2000/svg" viewBox="0 0 136.88 111.9"><defs><style>.cls-1{fill:#c87d4c;}.cls-2{fill:#8e5613;}</style></defs><g id="Camada_2" data-name="Camada 2"><g id="Camada_1-2" data-name="Camada 1"><path class="cls-1" d="M96.3,1H12.7A12.27,12.27,0,0,0,.4,13.2a8.08,8.08,0,0,0,.1,1.6,2.49,2.49,0,0,0,2.8,2.1,3.18,3.18,0,0,0,.9-.3,6.44,6.44,0,0,1,3.6-.9H25.3a7.33,7.33,0,0,1,7,5l.4,1.3a12.38,12.38,0,0,0,11.7,8.4h56.8a6.86,6.86,0,0,1,3.7,1,2.47,2.47,0,0,0,3.4-.9,2.66,2.66,0,0,0,.3-1.2V13.2A12.4,12.4,0,0,0,96.3,1Z"/><path class="cls-2" d="M102.9,15a11.29,11.29,0,0,0-5.7-1.5H44.9a6.79,6.79,0,0,1-6.4-4.6l-.4-1.2A11.39,11.39,0,0,0,27.4,0H11.3A10.58,10.58,0,0,0,5.8,1.5,11.27,11.27,0,0,0,0,11.3V65.5A11.35,11.35,0,0,0,11.3,76.8H97.2a11.35,11.35,0,0,0,11.3-11.3h0V24.8A11.2,11.2,0,0,0,102.9,15Z"/><g id="SVGRepo_iconCarrier" data-name="SVGRepo iconCarrier"><path class="cls-1" d="M95,54.33a16,16,0,0,1,4.12.56l9-24.63a41.82,41.82,0,0,0-26.17,0l9,24.64A15.51,15.51,0,0,1,95,54.33Z"/><path class="cls-1" d="M79.31,70a15.58,15.58,0,0,1,.57-4.12L55.24,57a42,42,0,0,0,0,26.16l24.64-9A15.58,15.58,0,0,1,79.31,70Z"/><path class="cls-1" d="M134.78,57l-24.63,9a15.44,15.44,0,0,1,0,8.24l24.63,9a41.78,41.78,0,0,0,0-26.16Z"/><path class="cls-1" d="M95,85.73a15.92,15.92,0,0,1-4.11-.56l-9,24.63a41.82,41.82,0,0,0,26.17,0l-9-24.64A15.53,15.53,0,0,1,95,85.73Z"/><path class="cls-1" d="M101.76,55.88,120.67,37a42.12,42.12,0,0,0-10.12-5.81l-9,24.63Z"/><path class="cls-1" d="M109.25,63.46l24.64-9a41.9,41.9,0,0,0-5.82-10.11l-18.91,18.9A1.51,1.51,0,0,1,109.25,63.46Z"/><path class="cls-1" d="M88.44,55.79l-9-24.63A41.53,41.53,0,0,0,69.36,37l18.9,18.91Z"/><path class="cls-1" d="M80.86,63.28,62,44.38a41.57,41.57,0,0,0-5.82,10.11l24.63,9Z"/><path class="cls-1" d="M109.16,76.78l18.91,18.91a41.78,41.78,0,0,0,5.81-10.12l-24.63-9A1.51,1.51,0,0,1,109.16,76.78Z"/><path class="cls-1" d="M101.59,84.27l9,24.63a41.78,41.78,0,0,0,10.12-5.81L101.76,84.18A1.4,1.4,0,0,1,101.59,84.27Z"/><path class="cls-1" d="M80.77,76.6l-24.63,9A41.57,41.57,0,0,0,62,95.68l18.9-18.9Z"/><path class="cls-1" d="M88.26,84.18l-18.9,18.91a41.86,41.86,0,0,0,10.11,5.81l9-24.63Z"/><path class="cls-1" d="M104.26,57.08l-.17.17,0,0a1.29,1.29,0,0,0,.13,1.65l1.85,1.85a1.29,1.29,0,0,0,1.65.13s0,0,0,0l.17-.17,18.43-18.43.08-.07a1.31,1.31,0,0,0,0-1.85l-1.85-1.85a1.31,1.31,0,0,0-1.85,0l-18.51,18.5Z"/><path class="cls-1" d="M82.06,60.78h0l.17.17,0,0a1.29,1.29,0,0,0,1.65-.13l1.85-1.85a1.28,1.28,0,0,0,.13-1.65l0,0-.17-.17L67.33,38.65l-.07-.07a1.29,1.29,0,0,0-1.85,0l-1.85,1.85a1.31,1.31,0,0,0,0,1.85Z"/><path class="cls-1" d="M85.76,83l.17-.17,0,0a1.29,1.29,0,0,0-.13-1.65l-1.85-1.85a1.29,1.29,0,0,0-1.65-.13l0,0-.17.17L63.63,97.71l-.07.07a1.31,1.31,0,0,0,0,1.85l1.85,1.85a1.31,1.31,0,0,0,1.85,0L85.76,83Z"/><path class="cls-1" d="M108,79.28h0l-.17-.17,0,0a1.29,1.29,0,0,0-1.65.13l-1.85,1.85a1.29,1.29,0,0,0-.13,1.65l0,0,.17.17,18.43,18.43.08.07a1.29,1.29,0,0,0,1.85,0l1.85-1.85a1.31,1.31,0,0,0,0-1.85Z"/></g></g></g></svg>