<svg xmlns="http://www.w3.org/2000/svg" width="132.282" height="93.794" viewBox="0 0 132.282 93.794"><g transform="translate(-1628 -758.488)"><g transform="translate(1532 218.977)"><path d="M117.206,53.334H33.653a12.257,12.257,0,0,0-12.17,13.885,2.457,2.457,0,0,0,3.681,1.8,6.96,6.96,0,0,1,3.573-.944h17.5a7.412,7.412,0,0,1,6.989,5l.418,1.347a12.346,12.346,0,0,0,11.656,8.4h56.816a7.372,7.372,0,0,1,3.671.983,2.462,2.462,0,0,0,3.7-2.123V65.621a12.287,12.287,0,0,0-12.281-12.287Z" transform="translate(75 487.247)" fill="#dcb67a"/><path d="M102.856,111.089a11.235,11.235,0,0,0-5.664-1.528H44.934a6.817,6.817,0,0,1-6.428-4.6l-.384-1.239A11.355,11.355,0,0,0,27.4,96H11.3a10.816,10.816,0,0,0-5.533,1.46A11.274,11.274,0,0,0,0,107.3v54.247a11.3,11.3,0,0,0,11.3,11.3H97.192a11.3,11.3,0,0,0,11.3-11.3V120.862A11.224,11.224,0,0,0,102.856,111.089Z" transform="translate(96 443.512)" fill="#c09553"/></g><g transform="translate(1700 792)"><path d="M30.641,59.282A28.641,28.641,0,1,1,59.282,30.641,28.641,28.641,0,0,1,30.641,59.282Zm0-54.868A26.227,26.227,0,1,0,56.868,30.641,26.227,26.227,0,0,0,30.641,4.414Z" transform="translate(0 0)" fill="#5578bf" stroke="#5578bf" stroke-width="2"/><rect width="54.071" height="2.414" transform="translate(3.596 29.434)" fill="#5578bf" stroke="#5578bf" stroke-width="2"/><path d="M28.765,13.273A91.611,91.611,0,0,1,4.42,10.1l.7-2.312c.225,0,23.077,6.792,45.887,0l.675,2.312a80.543,80.543,0,0,1-22.913,3.171Z" transform="translate(2.531 6.055)" fill="#5578bf" stroke="#5578bf" stroke-width="2"/><path d="M5.146,26.714,4.45,24.4c23.527-7,46.3-.286,47.258,0l-.7,2.312C50.787,26.633,27.956,19.922,5.146,26.714Z" transform="translate(2.562 20.109)" fill="#5578bf" stroke="#5578bf" stroke-width="2"/><path d="M14.4,55.648a72.524,72.524,0,0,1-1.514-52.6l2.209.941a70.028,70.028,0,0,0,1.514,50.715Z" transform="translate(6.977 1.098)" fill="#5578bf" stroke="#5578bf" stroke-width="2"/><path d="M21.569,55.637,19.36,54.7A70.028,70.028,0,0,0,20.874,4l2.209-.941a72.544,72.544,0,0,1-1.514,52.577Z" transform="translate(18.155 1.109)" fill="#5578bf" stroke="#5578bf" stroke-width="2"/><rect width="2.414" height="55.073" transform="translate(29.434 3.596)" fill="#5578bf" stroke="#5578bf" stroke-width="2"/></g></g></svg>