<svg xmlns="http://www.w3.org/2000/svg" viewBox="0 0 121.17 87.9"><defs><style>.cls-1{fill:#dcb67a;}.cls-2{fill:#c09553;}.cls-3{fill:#ff4893;}.cls-4{fill:#4f46a3;}</style></defs><g id="Camada_2" data-name="Camada 2"><g id="Camada_1-2" data-name="Camada 1"><path class="cls-1" d="M96.21,1.07H12.65A12.27,12.27,0,0,0,.37,13.3,12.82,12.82,0,0,0,.48,15a2.46,2.46,0,0,0,2.76,2.12,2.35,2.35,0,0,0,.92-.32,7,7,0,0,1,3.58-.94h17.5a7.43,7.43,0,0,1,7,5l.41,1.35a12.36,12.36,0,0,0,11.66,8.4h56.82a7.42,7.42,0,0,1,3.67,1,2.45,2.45,0,0,0,3.36-.89,2.42,2.42,0,0,0,.34-1.23V13.36A12.28,12.28,0,0,0,96.21,1.07Z"/><path class="cls-2" d="M102.86,15.09a11.29,11.29,0,0,0-5.67-1.53H44.93A6.8,6.8,0,0,1,38.51,9l-.39-1.24A11.35,11.35,0,0,0,27.4,0H11.3A10.84,10.84,0,0,0,5.77,1.46,11.26,11.26,0,0,0,0,11.3V65.55a11.3,11.3,0,0,0,11.3,11.3H97.19a11.3,11.3,0,0,0,11.3-11.3h0V24.86A11.22,11.22,0,0,0,102.86,15.09Z"/><path class="cls-3" d="M119.4,15.29l-26,28,26,15.18L69.56,86.14l26-27.66-26-15.18Z"/><path class="cls-4" d="M69.56,87.9a1.76,1.76,0,0,1-1.77-1.76,1.79,1.79,0,0,1,.48-1.22l24.48-26L68.67,44.82A1.77,1.77,0,0,1,68,42.4a1.87,1.87,0,0,1,.66-.65l49.84-28a1.77,1.77,0,0,1,2.41.68,1.75,1.75,0,0,1-.24,2.06L96.19,42.88,120.29,57a1.77,1.77,0,0,1,0,3.08L70.42,87.68a1.72,1.72,0,0,1-.86.22Zm3.56-44.57L96.45,57a1.77,1.77,0,0,1,.64,2.42,1.91,1.91,0,0,1-.24.32L78.61,79.09l37.22-20.65L92.51,44.82a1.77,1.77,0,0,1-.64-2.42,2.26,2.26,0,0,1,.23-.31l18.32-19.72-37.3,21Z"/></g></g></svg>