<svg xmlns="http://www.w3.org/2000/svg" viewBox="0 0 101.09 101.09"><defs><style>.cls-1{fill:#5578bf;stroke:#5578bf;stroke-width:2px;}</style></defs><g id="Camada_2" data-name="Camada 2"><g id="Camada_1-2" data-name="Camada 1"><path class="cls-1" d="M50.54,100.09a49.55,49.55,0,1,1,49.55-49.55h0A49.54,49.54,0,0,1,50.54,100.09Zm0-94.91A45.37,45.37,0,1,0,95.91,50.54,45.36,45.36,0,0,0,50.54,5.18Z"/><rect class="cls-1" x="3.76" y="48.46" width="93.53" height="4.18"/><path class="cls-1" d="M51.68,31A158.49,158.49,0,0,1,9.56,25.49l1.22-4c.38,0,39.91,11.75,79.37,0l1.17,4A139.49,139.49,0,0,1,51.68,31Z"/><path class="cls-1" d="M10.87,78.54l-1.2-4c40.7-12.11,80.09-.49,81.75,0l-1.21,4C89.82,78.4,50.33,66.79,10.87,78.54Z"/><path class="cls-1" d="M34.52,95.7a125.47,125.47,0,0,1-2.62-91l3.82,1.63a121.15,121.15,0,0,0,2.62,87.73Z"/><path class="cls-1" d="M66.26,95.7l-3.83-1.62a121.07,121.07,0,0,0,2.62-87.7l3.82-1.63a125.46,125.46,0,0,1-2.61,91Z"/><rect class="cls-1" x="48.46" y="3.76" width="4.18" height="95.27"/></g></g></svg>