<svg xmlns="http://www.w3.org/2000/svg" viewBox="0 0 126.48 87.05"><defs><style>.cls-1{fill:#b68eef;}.cls-2{fill:#7355bf;}.cls-3{fill:#4028b8;}</style></defs><g id="Camada_2" data-name="Camada 2"><g id="Camada_1-2" data-name="Camada 1"><path class="cls-1" d="M96.21,1.07H12.65A12.27,12.27,0,0,0,.37,13.3,12.82,12.82,0,0,0,.48,15a2.46,2.46,0,0,0,2.76,2.12,2.35,2.35,0,0,0,.92-.32,7,7,0,0,1,3.58-.94h17.5a7.43,7.43,0,0,1,7,5l.41,1.35a12.36,12.36,0,0,0,11.66,8.4h56.82a7.42,7.42,0,0,1,3.67,1,2.45,2.45,0,0,0,3.36-.89,2.42,2.42,0,0,0,.34-1.23V13.36A12.28,12.28,0,0,0,96.21,1.07Z"/><path class="cls-2" d="M102.86,15.09a11.29,11.29,0,0,0-5.67-1.53H44.93A6.8,6.8,0,0,1,38.51,9l-.39-1.24A11.35,11.35,0,0,0,27.4,0H11.3A10.84,10.84,0,0,0,5.77,1.46,11.26,11.26,0,0,0,0,11.3V65.55a11.3,11.3,0,0,0,11.3,11.3H97.19a11.3,11.3,0,0,0,11.3-11.3h0V24.86A11.22,11.22,0,0,0,102.86,15.09Z"/><g id="SVGRepo_iconCarrier" data-name="SVGRepo iconCarrier"><g id="Layer_3" data-name="Layer 3"><path class="cls-3" d="M92.79,87.05V75.82a22.46,22.46,0,0,1,0-44.92V19.67H85.74v6.54a27.93,27.93,0,0,0-8.6,3.84l-4.2-4.2L65,33.79l4.27,4.27a27.6,27.6,0,0,0-3.63,8.26H59.1V60.4h6.54a28.23,28.23,0,0,0,3.73,8.44L65,73.21l7.94,7.94,4.38-4.37a28.06,28.06,0,0,0,8.45,3.74v6.53Z"/><path class="cls-3" d="M92.79,60.38a7,7,0,0,1,0-14V40.72a12.64,12.64,0,0,0,0,25.27Z"/><path class="cls-3" d="M109.94,87.05V71.79a29.5,29.5,0,0,0,1.67-52.12v24.9L96.94,57.43V87.05Z"/></g></g></g></g></svg>