<svg xmlns="http://www.w3.org/2000/svg" width="125.453" height="98.5" viewBox="0 0 125.453 98.5"><g transform="translate(-707 -734)"><path d="M121.846,74.667H53.978c-6.247,0-11.311,11.193-11.311,25v10c0,2.762,1.013,5,2.262,5H64.294c.965.01,1.824,1.352,2.149,3.36l2.466,16.491c.951,6.052,3.526,10.12,6.425,10.15H130.9c1.249,0,2.262-2.239,2.262-5v-40C133.157,85.86,128.093,74.667,121.846,74.667Z" transform="translate(673.333 659.333)" fill="#dd7a7d"/><path d="M101.709,155.135H41.678a2.4,2.4,0,0,1-2.147-1.844l-2.464-9.052c-.952-3.321-3.523-5.553-6.419-5.572H6.781C3.036,138.667,0,142.353,0,146.9a93.392,93.392,0,0,0,2.672,22.308l9.041,36.515c1.432,5.819,5.843,9.8,10.845,9.793H86.385c4.728.016,8.964-3.542,10.618-8.92l9.764-31.629a39.708,39.708,0,0,0,1.722-11.6C108.49,158.821,105.454,155.135,101.709,155.135Z" transform="translate(707 605.333)" fill="#9f4246"/><g transform="translate(-94 -14.455)"><path d="M74.19,14.38H16.66A6.674,6.674,0,0,0,10,21.04V63.805a6.674,6.674,0,0,0,6.66,6.65H74.19a6.674,6.674,0,0,0,6.664-6.66V21.04a6.677,6.677,0,0,0-6.664-6.66Z" transform="translate(845.6 776.5)" fill="#675f58"/><path d="M74.677,56.1A3.053,3.053,0,0,1,71.64,59.14H14.111A3.053,3.053,0,0,1,11.074,56.1V17.62h63.6V56.1Z" transform="translate(848.15 784.192)" fill="#ccc"/><rect width="9.447" height="9.447" transform="translate(872.133 824.842)" fill="#ff931e"/><rect width="9.447" height="9.451" transform="translate(872.133 810.672)" fill="#ff931e"/><rect width="9.447" height="9.451" transform="translate(886.303 810.672)" fill="#ff931e"/><rect width="9.447" height="9.451" transform="translate(900.474 810.672)" fill="#ff931e"/><rect width="9.447" height="9.447" transform="translate(886.303 824.842)" fill="#ff931e"/><rect width="9.447" height="9.447" transform="translate(900.474 824.842)" fill="#ff931e"/></g></g></svg>