<svg xmlns="http://www.w3.org/2000/svg" width="118.729" height="101.139" viewBox="0 0 118.729 101.139">
  <g id="gi_folder_open" transform="translate(-415 -750)">
    <path id="Caminho_10" data-name="Caminho 10" d="M121.846,74.667H53.978c-6.247,0-11.311,11.193-11.311,25v10c0,2.762,1.013,5,2.262,5H64.294c.965.01,1.824,1.352,2.149,3.36l2.466,16.491c.951,6.052,3.526,10.12,6.425,10.15h55.561c1.249,0,2.262-2.239,2.262-5v-40C133.157,85.86,128.093,74.667,121.846,74.667Z" transform="translate(381.333 675.333)" fill="#bf5e55"/>
    <path id="Caminho_11" data-name="Caminho 11" d="M101.709,155.135H41.678a2.4,2.4,0,0,1-2.147-1.844l-2.464-9.052c-.952-3.321-3.523-5.553-6.419-5.572H6.781C3.036,138.667,0,142.353,0,146.9a93.392,93.392,0,0,0,2.672,22.308l9.041,36.515c1.432,5.819,5.843,9.8,10.845,9.793H86.385c4.728.016,8.964-3.542,10.618-8.92l9.764-31.629a39.708,39.708,0,0,0,1.722-11.6C108.49,158.821,105.454,155.135,101.709,155.135Z" transform="translate(415 621.333)" fill="#db847b"/>
    <g id="Grupo_2" data-name="Grupo 2" transform="translate(-196 -136)">
      <g id="Retângulo_1" data-name="Retângulo 1" transform="translate(696.268 924.412) rotate(45)" fill="#fff" stroke="#fff" stroke-width="1">
        <rect width="44" height="44" rx="7" stroke="none"/>
        <rect x="0.5" y="0.5" width="43" height="43" rx="6.5" fill="none"/>
      </g>
      <path id="Caminho_22" data-name="Caminho 22" d="M72.036,38.8l-27.6-27.6a4.072,4.072,0,0,0-5.762,0L32.948,16.92l7.274,7.274a4.837,4.837,0,0,1,6.126,6.165l7.015,7.015a4.84,4.84,0,1,1-2.9,2.732l-6.554-6.539V50.773a4.837,4.837,0,1,1-3.985-.142V33.265a4.849,4.849,0,0,1-2.629-6.355L30.12,19.739,11.2,38.672a4.075,4.075,0,0,0,0,5.762l27.6,27.6a4.075,4.075,0,0,0,5.762,0L72.036,44.563a4.075,4.075,0,0,0,0-5.762" transform="translate(656.5 913.91)" fill="#dd4c35"/>
    </g>
  </g>
</svg>
