<svg xmlns="http://www.w3.org/2000/svg" viewBox="0 0 130.52 102.44"><defs><style>.cls-1{fill:#897d7d;}.cls-2{fill:#e8dad9;}.cls-3{fill:#7c2424;stroke:#7c2424;stroke-miterlimit:32;stroke-width:2px;}</style></defs><g id="Camada_2" data-name="Camada 2"><g id="Camada_1-2" data-name="Camada 1"><path class="cls-1" d="M96.3,1H12.7A12.27,12.27,0,0,0,.4,13.2a8.08,8.08,0,0,0,.1,1.6,2.49,2.49,0,0,0,2.8,2.1,3.18,3.18,0,0,0,.9-.3,6.44,6.44,0,0,1,3.6-.9H25.3a7.33,7.33,0,0,1,7,5l.4,1.3a12.38,12.38,0,0,0,11.7,8.4h56.8a6.86,6.86,0,0,1,3.7,1,2.47,2.47,0,0,0,3.4-.9,2.66,2.66,0,0,0,.3-1.2V13.2A12.4,12.4,0,0,0,96.3,1Z"/><path class="cls-2" d="M102.9,15a11.29,11.29,0,0,0-5.7-1.5H44.9a6.79,6.79,0,0,1-6.4-4.6l-.4-1.2A11.39,11.39,0,0,0,27.4,0H11.3A10.58,10.58,0,0,0,5.8,1.5,11.27,11.27,0,0,0,0,11.3V65.5A11.35,11.35,0,0,0,11.3,76.8H97.2a11.35,11.35,0,0,0,11.3-11.3h0V24.8A11.2,11.2,0,0,0,102.9,15Z"/><g id="SVGRepo_iconCarrier" data-name="SVGRepo iconCarrier"><path class="cls-3" d="M58.66,51.85H70.3A2.9,2.9,0,0,0,71.78,51l10.4-13a1.86,1.86,0,0,1,3,0l10.4,13a1.85,1.85,0,0,0,1.48.62h11.88a2,2,0,0,0,2-1.94V33.36a5.81,5.81,0,0,0-5.79-5.82H62.5a5.81,5.81,0,0,0-5.82,5.8V49.82a2,2,0,0,0,1.88,2Z"/><path class="cls-3" d="M108,62.45a12.36,12.36,0,0,1,2.77-.35V59.35a2,2,0,0,0-1.93-2H97.16a3.4,3.4,0,0,0-1.49.75l-10.4,13a1.86,1.86,0,0,1-3,0l-10.52-13a1.79,1.79,0,0,0-1.48-.62H58.66a2,2,0,0,0-2,1.93V75.94a5.82,5.82,0,0,0,5.8,5.82h30.1l8-13.74A12.89,12.89,0,0,1,108,62.45Z"/><path class="cls-3" d="M128.69,92.6,116.23,71.2a5.76,5.76,0,0,0-2.08-2.08,5.18,5.18,0,0,0-2.93-.86,6.59,6.59,0,0,0-1.6.25,5.92,5.92,0,0,0-3.54,2.69L93.6,92.6a5.17,5.17,0,0,0-.85,2.93,5.82,5.82,0,0,0,5.75,5.9h25.18a6.19,6.19,0,0,0,2.94-.85A5.66,5.66,0,0,0,129.31,97,5.55,5.55,0,0,0,128.69,92.6Zm-17.6,3.79a2.7,2.7,0,0,1-2.72-2.68h0a2.89,2.89,0,0,1,1.24-2.24,2.68,2.68,0,1,1,1.48,5Zm2.69-8.07a.83.83,0,0,1-.81.85h-3.59a.84.84,0,0,1-.86-.82V76.68a.83.83,0,0,1,.83-.85h3.57a.83.83,0,0,1,.86.8V88.32Z"/></g></g></g></svg>