<svg xmlns="http://www.w3.org/2000/svg" width="108.492" height="76.847" viewBox="0 0 108.492 76.847"><defs><style>.a{fill:#dcb67a;}.b{fill:#c09553;}.c{fill:#755838;}</style></defs><g transform="translate(-84 -617.512)"><g transform="translate(-12 78)"><path class="a" d="M117.206,53.334H33.653a12.257,12.257,0,0,0-12.17,13.885,2.457,2.457,0,0,0,3.681,1.8,6.96,6.96,0,0,1,3.573-.944h17.5a7.412,7.412,0,0,1,6.989,5l.418,1.347a12.346,12.346,0,0,0,11.656,8.4h56.816a7.372,7.372,0,0,1,3.671.983,2.462,2.462,0,0,0,3.7-2.123V65.621a12.287,12.287,0,0,0-12.281-12.287Z" transform="translate(75 487.247)"/><path class="b" d="M102.856,111.089a11.235,11.235,0,0,0-5.664-1.528H44.934a6.817,6.817,0,0,1-6.428-4.6l-.384-1.239A11.355,11.355,0,0,0,27.4,96H11.3a10.816,10.816,0,0,0-5.533,1.46A11.274,11.274,0,0,0,0,107.3v54.247a11.3,11.3,0,0,0,11.3,11.3H97.192a11.3,11.3,0,0,0,11.3-11.3V120.862A11.224,11.224,0,0,0,102.856,111.089Z" transform="translate(96 443.512)"/></g><path class="c" d="M36.393,10H49L26.67,60.371H14.2Z" transform="translate(127.6 628.151)"/></g></svg>