<svg xmlns="http://www.w3.org/2000/svg" viewBox="0 0 108.49 76.85"><defs><style>.cls-1{fill:#dcb67a;}.cls-2{fill:#c09553;}.cls-3{fill:#c2c2c2;}</style></defs><g id="Camada_2" data-name="Camada 2"><g id="Camada_1-2" data-name="Camada 1"><path class="cls-1" d="M96.21,1.07H12.65A12.27,12.27,0,0,0,.37,13.3,12.82,12.82,0,0,0,.48,15a2.46,2.46,0,0,0,2.76,2.12,2.35,2.35,0,0,0,.92-.32,7,7,0,0,1,3.58-.94h17.5a7.43,7.43,0,0,1,7,5l.41,1.35a12.36,12.36,0,0,0,11.66,8.4h56.82a7.42,7.42,0,0,1,3.67,1,2.45,2.45,0,0,0,3.36-.89,2.42,2.42,0,0,0,.34-1.23V13.36A12.28,12.28,0,0,0,96.21,1.07Z"/><path class="cls-2" d="M102.86,15.09a11.29,11.29,0,0,0-5.67-1.53H44.93A6.8,6.8,0,0,1,38.51,9l-.39-1.24A11.35,11.35,0,0,0,27.4,0H11.3A10.84,10.84,0,0,0,5.77,1.46,11.26,11.26,0,0,0,0,11.3V65.55a11.3,11.3,0,0,0,11.3,11.3H97.19a11.3,11.3,0,0,0,11.3-11.3h0V24.86A11.22,11.22,0,0,0,102.86,15.09Z"/><g id="SVGRepo_iconCarrier" data-name="SVGRepo iconCarrier"><path class="cls-3" d="M93.41,51.35c-.06,2-3.81,3.33-2.28,5.28,3.37.48,1.84,2.73,3.69,3.5-3.27,5.38-8.53,6.05-13.54,2.68a5.91,5.91,0,0,0-4.44-.88c-.77,1.24.37,1.38,1.1,1.56,3.51.71,7.07,6.21,19,1,1.59-.67,1.35-2.66.66-4.22,1.32-.57,1.4-2.06,1.6-4C100.48,52,96.22,52.35,93.41,51.35ZM74.67,42a16,16,0,0,0-5,2.11c2,1.19,2.78,2.6,5,2.16s2.18-1.88,1.31-3.56A1.31,1.31,0,0,0,74.67,42Zm9.38-28.29c-2.71.13-5,7.47-7.81,12.68-7.95,3.34-9.94-1-12.54-.28-4.42-9.11-11-18.25-12.76-7.38.39,8.2-2.84,8.88-2.56,20.59,0,0-5.79,11.76-3.42,22.17A13.79,13.79,0,0,0,56.39,72.25c.41-3,5.06-9.76,3.79-11.34C57,57,58,47.33,66.05,46.33c1.1-8.11,6.56-6.58,6-8.93-1.75-7.35,5.8-3.92,7.07-1.51,2.27,3.82,3.88,7.57,5.74,9.35a19,19,0,0,0,5.77,3.57c-.68-.41-6.47-5.37-8.16-9.35a26.53,26.53,0,0,1-.92-7.78c2.94-.47,4.12,4.53,7.31,9.06a.89.89,0,0,1,0,.81c-.43-.23-.59-.82-1.12-.9s-.87.69-.87,1.55.64,1.15,1.51,1.55a7.41,7.41,0,0,0,3.71,3.51L88.15,35.64c-.15-7.28.62-14.55-3.55-21.83A1.75,1.75,0,0,0,84.05,13.73Zm0,2.32c.21,0,.41.15.59.49,2.18,4.13,2.26,13.84,2.25,17.28-1-2.38-2.59-6.38-7.47-7.6,0,0,2.85-10.14,4.63-10.17ZM54.84,17c1,0,2.12.58,3.43,3,2.09,3.86,3.59,6.43,4.32,7.77,1.49,2.71-.65.57-1.32,7.54A3.3,3.3,0,0,1,59.61,38a22.84,22.84,0,0,1-4.79-10.59c-2.08,3.13,1.35,8,1.41,12.11a8.81,8.81,0,0,1-4.67.06c-1.08-.55-1.43-7.17.56-12.32,1.66-4.28.87-9.73,1.61-10C54.24,17.15,54.24,17,54.84,17Z"/></g></g></g></svg>