<svg xmlns="http://www.w3.org/2000/svg" xmlns:xlink="http://www.w3.org/1999/xlink" width="125.464" height="117.48" viewBox="0 0 125.464 117.48"><defs><radialGradient id="a" cx="0.501" cy="0.497" r="0.903" gradientTransform="matrix(0.987, 0.08, 0.054, -0.681, 1.311, -34.928)" gradientUnits="objectBoundingBox"><stop offset="0" stop-color="#0663b4"/><stop offset="1" stop-color="#16adff" stop-opacity="0.686"/></radialGradient><linearGradient id="b" x1="80.029" y1="-213.814" x2="80.029" y2="-212.759" gradientUnits="objectBoundingBox"><stop offset="0" stop-color="#047fc7"/><stop offset="1" stop-color="#11abe8"/></linearGradient></defs><g transform="translate(-192 -1653)"><path d="M121.846,74.667H53.978c-6.247,0-11.311,11.193-11.311,25v10c0,2.762,1.013,5,2.262,5H64.294c.965.01,1.824,1.352,2.149,3.36l2.466,16.491c.951,6.052,3.526,10.12,6.425,10.15H130.9c1.249,0,2.262-2.239,2.262-5v-40C133.157,85.86,128.093,74.667,121.846,74.667Z" transform="translate(158.333 1578.333)" fill="#5599bf"/><path d="M101.709,155.135H41.678a2.4,2.4,0,0,1-2.147-1.844l-2.464-9.052c-.952-3.321-3.523-5.553-6.419-5.572H6.781C3.036,138.667,0,142.353,0,146.9a93.392,93.392,0,0,0,2.672,22.308l9.041,36.515c1.432,5.819,5.843,9.8,10.845,9.793H86.385c4.728.016,8.964-3.542,10.618-8.92l9.764-31.629a39.708,39.708,0,0,0,1.722-11.6C108.49,158.821,105.454,155.135,101.709,155.135Z" transform="translate(192 1524.333)" fill="#345e75"/><g transform="translate(104 109.836)"><rect width="68.51" height="68.51" rx="5.775" transform="translate(144.954 1592.134)" fill="#c7ebf1"/><rect width="65.814" height="65.14" rx="5.47" transform="translate(146.302 1594.156)" opacity="0.823" fill="url(#a)"/><rect width="56.103" height="56.103" rx="4.565" transform="translate(150.037 1599.643)" fill="#016fd2"/><path d="M79.289,33.161A21.051,21.051,0,0,0,58.307,13.712H34.622A21.063,21.063,0,0,0,13.559,34.775V57.786c0,.477.039.943.069,1.413q2.258.121,4.548.123A84.3,84.3,0,0,0,79.289,33.161Z" transform="translate(132.747 1580.44)" fill="#5fffe6" opacity="0.173"/><path d="M49.66,35.843a14.376,14.376,0,0,1-28.752,0h0a14.376,14.376,0,0,1,28.752,0Z" transform="translate(153.696 1602.545)" fill="#fff"/><path d="M32.223,24.532a8.312,8.312,0,0,1-16.623,0h0a8.312,8.312,0,0,1,16.623,0Z" transform="translate(138.565 1587.591)" fill="#fff"/><path d="M25.723,18.613a7.863,7.863,0,1,1-15.722,0h0a7.863,7.863,0,1,1,15.722,0Z" transform="translate(122.6 1571.5)" fill="rgba(203,237,242,0.93)"/><path d="M22.6,17.153a6.065,6.065,0,1,1-12.129,0h0a6.065,6.065,0,1,1,12.129,0Z" transform="translate(123.933 1572.96)" fill="url(#b)"/></g></g></svg>