<svg xmlns="http://www.w3.org/2000/svg" width="108.489" height="86.849" viewBox="0 0 108.489 86.849"><g transform="translate(-723 -233)"><g transform="translate(509 -307)"><path d="M121.846,74.667H53.978c-6.247,0-11.311,11.193-11.311,25v10c0,2.762,1.013,5,2.262,5H64.294c.965.01,1.824,1.352,2.149,3.36l2.466,16.491c.951,6.052,3.526,10.12,6.425,10.15H130.9c1.249,0,2.262-2.239,2.262-5v-40C133.157,85.86,128.093,74.667,121.846,74.667Z" transform="translate(180.333 465.333)" fill="#dcb67a"/><path d="M101.709,155.135H41.678a2.4,2.4,0,0,1-2.147-1.844l-2.464-9.052c-.952-3.321-3.523-5.553-6.419-5.572H6.781C3.036,138.667,0,142.353,0,146.9a93.392,93.392,0,0,0,2.672,22.308l9.041,36.515c1.432,5.819,5.843,9.8,10.845,9.793H86.385c4.728.016,8.964-3.542,10.618-8.92l9.764-31.629a39.708,39.708,0,0,0,1.722-11.6C108.49,158.821,105.454,155.135,101.709,155.135Z" transform="translate(214 411.333)" fill="#c09553"/></g><g transform="translate(165 15.38)"><path d="M21.161,65.78a2.8,2.8,0,0,1-.643-.078,3.236,3.236,0,0,1-2.257-3.771L26.682,17.07a3.224,3.224,0,0,1,1.38-2.123,2.779,2.779,0,0,1,2.176-.379,3.242,3.242,0,0,1,2.26,3.771L24.055,63.2a3.211,3.211,0,0,1-1.374,2.117A2.8,2.8,0,0,1,21.161,65.78Z" transform="translate(597.862 236.554)" fill="#9f4246"/><path d="M26.585,55.111h-.211A2.894,2.894,0,0,1,24.3,53.939a3.42,3.42,0,0,1,.311-4.411l14.48-14.154L24.67,22.2a3.42,3.42,0,0,1-.438-4.4,2.913,2.913,0,0,1,2.055-1.243,2.8,2.8,0,0,1,2.2.737l17,15.543a3.42,3.42,0,0,1,.448,4.4,3.3,3.3,0,0,1-.441.507L28.568,54.29a2.848,2.848,0,0,1-1.983.821Z" transform="translate(609.324 239.823)" fill="#9f4246"/><path d="M29.958,55.1a2.841,2.841,0,0,1-1.986-.83L11.023,37.713a2.8,2.8,0,0,1-.41-.476,3.4,3.4,0,0,1,.438-4.4L28.059,17.3a2.739,2.739,0,0,1,2.176-.74A2.925,2.925,0,0,1,32.3,17.8a3.42,3.42,0,0,1-.435,4.4L17.452,35.372,31.935,49.52a3.4,3.4,0,0,1,.311,4.411,2.882,2.882,0,0,1-2.08,1.172Z" transform="translate(580.6 239.836)" fill="#9f4246"/></g></g></svg>