<svg xmlns="http://www.w3.org/2000/svg" viewBox="0 0 112.85 93.69"><defs><style>.cls-1{fill:#ccc;}.cls-2{fill:#6f9cd3;}.cls-3{fill:#fff;}.cls-4{fill:#4630eb;}</style></defs><g id="Camada_2" data-name="Camada 2"><g id="Camada_1-2" data-name="Camada 1"><path class="cls-1" d="M88.18,0H20.31C14.06,0,9,11.19,9,25V35c0,2.76,1,5,2.26,5H30.63c1,0,1.82,1.35,2.15,3.36l2.46,16.49C36.19,65.9,38.77,70,41.67,70H97.23c1.25,0,2.27-2.24,2.27-5V25C99.49,11.19,94.43,0,88.18,0Z"/><path class="cls-2" d="M101.71,26.47h-60a2.4,2.4,0,0,1-2.15-1.85l-2.46-9c-1-3.32-3.53-5.55-6.42-5.57H6.78C3,10,0,13.69,0,18.23A93.65,93.65,0,0,0,2.67,40.54l9,36.52c1.44,5.81,5.85,9.8,10.85,9.79H86.39c4.72,0,9-3.54,10.61-8.92l9.77-31.63a40,40,0,0,0,1.72-11.6C108.49,30.15,105.45,26.47,101.71,26.47Z"/><path class="cls-3" d="M55.05,72,72.3,41.66l17-8.39,5,2.35L77.44,44.41,94.87,92.7l-5.61-3L76.22,62,59.1,74Z"/><ellipse class="cls-3" cx="105.46" cy="58.64" rx="6.37" ry="5.47"/><path class="cls-4" d="M110.11,56.2a6.08,6.08,0,0,0-8-1.29,5.53,5.53,0,0,0-1.82,1.94,4.53,4.53,0,0,0,1,5.36A8.37,8.37,0,0,0,110.11,56.2ZM93,35.54l-3.67-1.86-16,8.2,1.27.63L77,43.68l4.39-2.24L93,35.5ZM94.46,35a.58.58,0,0,1,.41.35l5.34,14.56a.46.46,0,0,1-.25.63,9.26,9.26,0,0,0-5,10.9c1.52,4.65,6.43,7.63,11.66,7.09a.69.69,0,0,1,.66.38l5.53,14.94a.56.56,0,0,1-.25.65l-17,9.16a.75.75,0,0,1-.26.05.7.7,0,0,1-.45-.07l-6-3.45a.72.72,0,0,1-.25-.24L77,65.24l-17.73,9.3-.13,0a.68.68,0,0,1-.56,0l-4-2.11a.54.54,0,0,1-.26-.71L71.53,41.61a.58.58,0,0,1,.28-.23L89,32.54a.72.72,0,0,1,.61,0Zm-21.3,8.1-.84-.4L55.72,71.81l3,1.58L73.07,56.12a.76.76,0,0,1,.59-.24.73.73,0,0,1,.51.35L89.76,89.35l4.16,2.37L77.19,46.61l-.71-1.88L73.14,43ZM98.84,60.45A5.79,5.79,0,0,1,102,53.64a7.47,7.47,0,0,1,8.26.94,5.61,5.61,0,0,1,.18,8.39h0l-.18.17a7.37,7.37,0,0,1-9.83-.2A6.33,6.33,0,0,1,98.84,60.45Z"/></g></g></svg>