<svg xmlns="http://www.w3.org/2000/svg" viewBox="0 0 112.39 113.65"><defs><style>.cls-1{fill:#897bdb;}.cls-2{fill:#798fe0;}.cls-3{fill:#6d8aca;}.cls-4{fill:#283961;}.cls-5{fill:#39549f;}.cls-6{fill:#4762af;}.cls-7{fill:#4d76f6;}.cls-8{fill:#3faaf3;}.cls-9{fill:#72dfff;}.cls-10{fill:#40def1;}.cls-11{fill:#426ffe;}</style></defs><g id="Camada_2" data-name="Camada 2"><g id="Camada_1-2" data-name="Camada 1"><path class="cls-1" d="M88.3,0H20.4C14.2,0,9.1,11.2,9.1,25V35c0,2.8,1,5,2.3,5H30.8c1,0,1.8,1.4,2.2,3.4l2.5,16.5c1,6,3.5,10.1,6.4,10.1H97.5c1.2,0,2.3-2.2,2.3-5V25C99.6,11.2,94.5,0,88.3,0Z"/><path class="cls-2" d="M101.8,26.5h-60a2.58,2.58,0,0,1-2.2-1.8l-2.5-9c-1-3.3-3.5-5.6-6.4-5.6H6.8C3,10,0,13.7,0,18.3A93.21,93.21,0,0,0,2.7,40.6l9,36.5c1.4,5.8,5.9,9.8,10.9,9.8H86.5c4.7,0,9-3.5,10.6-8.9l9.8-31.6a41.75,41.75,0,0,0,1.7-11.6C108.6,30.1,105.5,26.5,101.8,26.5Z"/><path class="cls-3" d="M83.35,96.88l-29-16.77V96.88l29.05,16.77Z"/><path class="cls-4" d="M68.82,71.73,54.3,80.11,83.35,96.88l14.52-8.39Z"/><path class="cls-3" d="M68.82,71.73,54.3,63.34V79l14.52,8.38V71.73Z"/><path class="cls-5" d="M97.87,55,68.82,71.73V87.37L97.87,70.6Z"/><path class="cls-6" d="M83.35,46.57l-29,16.77,14.52,8.39L97.87,55Zm29,33.54-29,16.77v16.77l29-16.77Z"/><path class="cls-6" d="M112.39,63.34,97.87,71.73v33.53l14.52-8.38Z"/><path class="cls-7" d="M105.13,94.59c0,.47.29.69.64.48l2.35-1.36a1.53,1.53,0,0,0,.64-1.22c0-.47-.29-.69-.64-.48l-2.35,1.36a1.53,1.53,0,0,0-.64,1.22Zm0,3.14c0,.47.29.69.64.49l2.35-1.36a1.53,1.53,0,0,0,.64-1.22c0-.47-.29-.69-.64-.49l-2.35,1.36A1.53,1.53,0,0,0,105.13,97.73Zm0-6.29c0,.48.29.69.64.49l2.35-1.36a1.53,1.53,0,0,0,.64-1.22c0-.47-.29-.69-.64-.49l-2.35,1.36A1.55,1.55,0,0,0,105.13,91.44Zm0-3.14c0,.47.29.69.64.48l2.35-1.35a1.57,1.57,0,0,0,.64-1.23c0-.47-.29-.68-.64-.48l-2.35,1.36A1.53,1.53,0,0,0,105.13,88.3Zm0-3.14c0,.47.29.68.64.48l2.35-1.36a1.53,1.53,0,0,0,.64-1.22c0-.47-.29-.69-.64-.48l-2.35,1.35A1.55,1.55,0,0,0,105.13,85.16Z"/><path class="cls-8" d="M85.66,50.41a1.77,1.77,0,0,0-1.58-.07c-.41.23-.36.64.11.91l1.94,1.12a1.77,1.77,0,0,0,1.58.07c.4-.24.35-.65-.11-.91ZM82.93,52a1.75,1.75,0,0,0-1.57-.07c-.41.24-.36.64.11.91l1.94,1.12A1.77,1.77,0,0,0,85,54c.4-.23.35-.64-.12-.91L82.93,52Zm-8.16,4.71a1.77,1.77,0,0,0-1.58-.06c-.41.23-.36.64.11.91l1.94,1.12a1.73,1.73,0,0,0,1.58.06c.4-.23.35-.64-.12-.91Zm2.72-1.57a1.74,1.74,0,0,0-1.58-.06c-.41.23-.35.64.11.91L78,57.09a1.74,1.74,0,0,0,1.58.06c.4-.23.35-.64-.11-.91Zm2.72-1.57a1.77,1.77,0,0,0-1.58-.07c-.4.24-.35.65.12.92l1.93,1.12a1.8,1.8,0,0,0,1.58.06c.41-.23.36-.64-.11-.91Z"/><path class="cls-9" d="M57.93,91.42a1.5,1.5,0,0,0-.62-1.19c-.35-.2-.63,0-.63.47v2.53a1.48,1.48,0,0,0,.63,1.19c.34.2.62,0,.62-.47Zm10.89,6.29a1.5,1.5,0,0,0-.62-1.19c-.35-.2-.63,0-.63.47v2.53a1.48,1.48,0,0,0,.63,1.19c.34.2.62,0,.62-.47ZM60.65,93A1.52,1.52,0,0,0,60,91.8c-.35-.2-.63,0-.63.47V94.8A1.47,1.47,0,0,0,60,96c.34.2.62,0,.62-.47Zm2.73,1.57a1.5,1.5,0,0,0-.63-1.2c-.34-.19-.62,0-.62.48v2.52a1.52,1.52,0,0,0,.62,1.2c.35.2.63,0,.63-.47Zm2.72,1.57A1.5,1.5,0,0,0,65.48,95c-.35-.2-.63,0-.63.47V98a1.48,1.48,0,0,0,.63,1.19c.34.2.62,0,.62-.47Z"/><path class="cls-6" d="M98.79,55.49,84.27,63.87l13.6,7.86,14.52-8.39-13.6-7.85Z"/><path class="cls-3" d="M97.87,71.73l-13.6-7.86V80.64l13.6,7.85Z"/><path class="cls-10" d="M83.35,80.11,74.54,75V85.19l8.81,5.09Z"/><path class="cls-11" d="M92.15,75l-8.8,5.08V90.28l8.8-5.09Z"/><path class="cls-8" d="M83.35,69.94,74.54,75l8.81,5.08L92.15,75Z"/></g></g></svg>