<svg xmlns="http://www.w3.org/2000/svg" viewBox="0 0 109.72 97.22"><defs><style>.cls-1{fill:#c1bfbc;}.cls-2{fill:#edeae6;}.cls-3{fill:#e76f00;}.cls-4{fill:#5382a1;}</style></defs><g id="Camada_2" data-name="Camada 2"><g id="Camada_1-2" data-name="Camada 1"><path class="cls-1" d="M88.3,0H20.4C14.2,0,9.1,11.2,9.1,25V35c0,2.8,1,5,2.3,5H30.8c1,0,1.8,1.4,2.2,3.4l2.5,16.5c1,6,3.5,10.1,6.4,10.1H97.5c1.2,0,2.3-2.2,2.3-5V25C99.6,11.2,94.5,0,88.3,0Z"/><path class="cls-2" d="M101.8,26.5h-60a2.58,2.58,0,0,1-2.2-1.8l-2.5-9c-1-3.3-3.5-5.6-6.4-5.6H6.8C3,10,0,13.7,0,18.3A93.21,93.21,0,0,0,2.7,40.6l9,36.5c1.4,5.8,5.9,9.8,10.9,9.8H86.5c4.7,0,9-3.5,10.6-8.9l9.8-31.6a41.75,41.75,0,0,0,1.7-11.6C108.6,30.1,105.5,26.5,101.8,26.5Z"/><path class="cls-3" d="M82.57,43.69c15-11.62,7.29-19.18,7.29-19.18,1.14,12-12.37,14.85-16,23.11-2.48,5.63,1.69,10.56,8.69,16.78A23.92,23.92,0,0,0,80,60.33C76.72,55.71,73.29,50.9,82.57,43.69Z"/><path class="cls-3" d="M85,67s4.5-3.64.94-7.67C73.81,45.58,99.12,39.36,99.12,39.36,83.66,46.81,86,51.22,89.86,56.59,94,62.35,85,67,85,67Z"/><path class="cls-4" d="M98.22,77.78c13.87-7.09,7.46-13.9,3-13a9.79,9.79,0,0,0-1.59.42,2.52,2.52,0,0,1,1.19-.9c8.85-3.06,15.66,9-2.86,13.82A1.3,1.3,0,0,0,98.22,77.78Z"/><path class="cls-4" d="M69.35,68.81c-8.67-1.14,4.76-4.28,4.76-4.28a25.66,25.66,0,0,0-11.63,2.71C54.89,70.85,81.25,72.49,94.89,69a24.21,24.21,0,0,1,3.38-1.78s-5.58,1-11.14,1.44C80.32,69.18,73,69.29,69.35,68.81Z"/><path class="cls-4" d="M72.66,75.58c-4.84-.5-1.67-2.8-1.67-2.8-12.53,4.09,7,8.72,24.46,3.69a8.8,8.8,0,0,1-3-1.83A60.85,60.85,0,0,1,72.66,75.58Z"/><path class="cls-4" d="M74.76,82.9c-4.83-.55-2-2.16-2-2.16-11.36,3.12,6.92,9.57,21.39,3.47a26.39,26.39,0,0,1-4.07-1.95A43,43,0,0,1,74.76,82.9Z"/><path class="cls-4" d="M105,86.63s2.09,1.69-2.31,3c-8.35,2.49-34.77,3.24-42.11.1-2.63-1.13,2.31-2.7,3.87-3A10.28,10.28,0,0,1,67,86.42c-2.93-2-19,4-8.14,5.72C88.41,96.85,112.69,90,105,86.63Z"/><path class="cls-4" d="M109.72,90.33c-.48,6.19-20.93,7.5-34.24,6.66-8.69-.55-10.43-1.92-10.46-1.94a111.37,111.37,0,0,0,33.7-.51C108.79,92.68,109.72,90.33,109.72,90.33Z"/></g></g></svg>