<svg xmlns="http://www.w3.org/2000/svg" width="108.493" height="76.85" viewBox="0 0 108.493 76.85"><g transform="translate(-284 -747.488)"><path d="M117.206,53.334H33.653A12.257,12.257,0,0,0,21.483,67.219a2.457,2.457,0,0,0,3.681,1.8,6.96,6.96,0,0,1,3.573-.944h17.5a7.412,7.412,0,0,1,6.989,5l.418,1.347A12.346,12.346,0,0,0,65.3,82.823h56.816a7.372,7.372,0,0,1,3.671.983,2.462,2.462,0,0,0,3.7-2.123V65.621A12.287,12.287,0,0,0,117.206,53.334Z" transform="translate(263 694.225)" fill="#c6e89b"/><path d="M102.856,111.089a11.235,11.235,0,0,0-5.664-1.528H44.934a6.817,6.817,0,0,1-6.428-4.6l-.384-1.239A11.355,11.355,0,0,0,27.395,96H11.3a10.816,10.816,0,0,0-5.533,1.46A11.274,11.274,0,0,0,0,107.3v54.247a11.3,11.3,0,0,0,11.3,11.3H97.192a11.3,11.3,0,0,0,11.3-11.3V120.862A11.224,11.224,0,0,0,102.856,111.089Z" transform="translate(284 651.49)" fill="#8ebf55"/><g transform="translate(-320 -36)"><path d="M38.159,65.879a4.605,4.605,0,0,1-2.234-.575L28.809,61.26c-1.06-.572-.554-.774-.194-.891a14.458,14.458,0,0,0,3.209-1.408.573.573,0,0,1,.529.04l5.465,3.119a.731.731,0,0,0,.662,0L59.8,50.3a.639.639,0,0,0,.327-.554V26.112a.655.655,0,0,0-.329-.564L38.5,13.738a.7.7,0,0,0-.659,0L16.542,25.55a.653.653,0,0,0-.338.561V49.745a.624.624,0,0,0,.335.548l5.836,3.241c3.167,1.522,5.108-.266,5.108-2.07V28.129a.577.577,0,0,1,.18-.419.625.625,0,0,1,.437-.171h2.7a.6.6,0,0,1,.615.591V51.464A5.535,5.535,0,0,1,29.845,56.1a6.034,6.034,0,0,1-4.734,1.751A9.4,9.4,0,0,1,20.2,56.565l-5.587-3.092a4.3,4.3,0,0,1-2.234-3.726V26.112a4.286,4.286,0,0,1,2.234-3.726L35.928,10.552a4.831,4.831,0,0,1,4.477,0L61.723,22.386a4.294,4.294,0,0,1,2.237,3.726V49.745a4.3,4.3,0,0,1-2.237,3.726L40.4,65.294a4.607,4.607,0,0,1-2.245.585Z" transform="translate(642.6 791.911)" fill="#fff"/><path d="M20.231,29.772a.524.524,0,0,1,.527-.527h2.373a.529.529,0,0,1,.524.446c.356,2.4,1.424,3.617,6.251,3.617,3.847,0,5.484-.871,5.484-2.912,0-1.187-.475-2.05-6.443-2.637-5-.494-8.088-1.6-8.088-5.6,0-3.686,3.107-5.883,8.306-5.883,5.852,0,8.745,2.031,9.113,6.386a.527.527,0,0,1-.524.574H35.382a.527.527,0,0,1-.513-.413c-.567-2.53-1.953-3.339-5.7-3.339-4.2,0-4.687,1.464-4.687,2.561,0,1.329.577,1.716,6.246,2.466,5.613.743,8.278,1.792,8.278,5.738s-3.322,6.258-9.1,6.258C21.9,36.516,20.231,32.85,20.231,29.772Z" transform="translate(657.875 804.723)" fill="#fff"/></g></g></svg>