<svg xmlns="http://www.w3.org/2000/svg" viewBox="0 0 116.78 102.71"><defs><style>.cls-1{fill:#dcb67a;}.cls-2{fill:#c09553;}.cls-3{fill:#298988;}</style></defs><g id="Camada_2" data-name="Camada 2"><g id="Camada_1-2" data-name="Camada 1"><path class="cls-1" d="M88.3,0H20.4C14.2,0,9.1,11.2,9.1,25V35c0,2.8,1,5,2.3,5H30.8c1,0,1.8,1.4,2.2,3.4l2.5,16.5c1,6,3.5,10.1,6.4,10.1H97.5c1.2,0,2.3-2.2,2.3-5V25C99.6,11.2,94.5,0,88.3,0Z"/><path class="cls-2" d="M101.8,26.5h-60a2.58,2.58,0,0,1-2.2-1.8l-2.5-9c-1-3.3-3.5-5.6-6.4-5.6H6.8C3,10,0,13.7,0,18.3A93.21,93.21,0,0,0,2.7,40.6l9,36.5c1.4,5.8,5.9,9.8,10.9,9.8H86.5c4.7,0,9-3.5,10.6-8.9l9.8-31.6a41.75,41.75,0,0,0,1.7-11.6C108.6,30.1,105.5,26.5,101.8,26.5Z"/><g id="SVGRepo_iconCarrier" data-name="SVGRepo iconCarrier"><path class="cls-3" d="M70.54,40.38,54.45,48.1v2.72l15.78-7.57-15.78,12V70l17-6.14L63.1,62.66l24.66-6L54.45,80.74v5.71l45.84-24.86L89.66,64l15.11-9.37,12-4.53V47.46c-8.3,3.77-16.7,5.58-25.48,7.73l5.82-4,19.66-9.55v-1.3h-3c-10.44,5.92-21.27,9.33-32.54,13.25l20.83-13.25H91.43L66.55,52.89l16-12.51Zm46.24,16.34L82.07,77.22l19.73-5.13L62.15,92.83l13.43-11.9L54.45,91.56v11.15h4.32s22.3-13.27,34.67-18.27L84.22,91.3,99,86.79,70.63,102.46l37.51-13.39L97.38,96.62l19.4-5.45V77.06L98.43,83.92,108,76.25,90.43,82.44l23.21-15.1-3.26,5.58,6.4-2.43V56.72Z"/></g></g></g></svg>