<svg xmlns="http://www.w3.org/2000/svg" viewBox="0 0 113.77 91.76"><defs><style>.cls-1{fill:#cc6;}.cls-2{fill:#993;}.cls-3{fill:#3d6deb;}.cls-4{fill:#5286fa;}.cls-5{fill:#424ede;}.cls-6{fill:#6e76e5;}</style></defs><g id="Camada_2" data-name="Camada 2"><g id="Camada_1-2" data-name="Camada 1"><path class="cls-1" d="M96.21,1.07H12.65A12.27,12.27,0,0,0,.37,13.3,12.82,12.82,0,0,0,.48,15a2.46,2.46,0,0,0,2.76,2.12,2.35,2.35,0,0,0,.92-.32,7,7,0,0,1,3.58-.94h17.5a7.43,7.43,0,0,1,7,5l.41,1.35a12.36,12.36,0,0,0,11.66,8.4h56.82a7.42,7.42,0,0,1,3.67,1,2.45,2.45,0,0,0,3.36-.89,2.42,2.42,0,0,0,.34-1.23V13.36A12.28,12.28,0,0,0,96.21,1.07Z"/><path class="cls-2" d="M102.86,15.09a11.29,11.29,0,0,0-5.67-1.53H44.93A6.8,6.8,0,0,1,38.51,9l-.39-1.24A11.35,11.35,0,0,0,27.4,0H11.3A10.84,10.84,0,0,0,5.77,1.46,11.26,11.26,0,0,0,0,11.3V65.55a11.3,11.3,0,0,0,11.3,11.3H97.19a11.3,11.3,0,0,0,11.3-11.3h0V24.86A11.22,11.22,0,0,0,102.86,15.09Z"/><path class="cls-3" d="M113.34,52.05A8.75,8.75,0,0,0,105,46a8.64,8.64,0,0,0-2.71.44,8.77,8.77,0,0,0-6.06,8.11L91.81,56a12.74,12.74,0,0,0-7.9-5.74V45.58a8.77,8.77,0,0,0-2.92-17,9.83,9.83,0,0,0-1.34.1h0a9,9,0,0,0-1.27.3h0c-.27.08-.52.18-.77.28h0l-.38.18-.08,0-.3.15,0,0a6.82,6.82,0,0,0-.68.41h0l-.33.24-.11.09-.22.17-.1.08-.22.19-.09.09-.21.2-.15.16-.14.15-.24.27,0,0-.16.21-.1.12-.14.2-.1.14-.14.21-.09.15a6.94,6.94,0,0,0-.54,1l0,.08-.06.16c0,.11-.09.21-.13.32s-.13.39-.18.58a8.39,8.39,0,0,0-.22,1c0,.26-.07.53-.09.8s0,.36,0,.53a8.77,8.77,0,0,0,5.84,8.27v4.65a12.75,12.75,0,0,0-6.81,4.23A13.57,13.57,0,0,0,70.16,56l-4.41-1.44a8.78,8.78,0,0,0-6.06-8.12l-.33-.1c-.22-.07-.45-.12-.67-.17A9,9,0,0,0,57,46a8.74,8.74,0,0,0-8.34,6.07,8.6,8.6,0,0,0-.35,3.88,7.38,7.38,0,0,0,.26,1.24,8.84,8.84,0,0,0,2.69,4.22l.33.27a6.85,6.85,0,0,0,.7.5,8.53,8.53,0,0,0,2,.94,9,9,0,0,0,1.34.33,8.93,8.93,0,0,0,1.37.1h.52a8.37,8.37,0,0,0,1-.12A9,9,0,0,0,60,63a8.62,8.62,0,0,0,2.58-1.48,8.9,8.9,0,0,0,1.38-1.43l4.42,1.45,0,.5c0,.17,0,.34,0,.51A12.81,12.81,0,0,0,68.78,66c.11.36.22.72.35,1.06a12.89,12.89,0,0,0,2.25,3.78l-2.73,3.76a9,9,0,0,0-2.49-.36,8.68,8.68,0,0,0-3,.55,9,9,0,0,0-1.83.93,3.91,3.91,0,0,0-.41.3,8.37,8.37,0,0,0-.79.66,9,9,0,0,0-1,1.18,8.72,8.72,0,0,0-1.53,3.58,8,8,0,0,0-.11.84c0,.28,0,.57,0,.85s0,.56,0,.84a9.12,9.12,0,0,0,.48,2,8.73,8.73,0,0,0,1.76,2.91A8.3,8.3,0,0,0,61,90.08c.19.14.39.27.58.39s.6.34.91.49a9.06,9.06,0,0,0,2,.63,8.84,8.84,0,0,0,1.37.16h.35a8.66,8.66,0,0,0,3-.55c.32-.12.63-.26.94-.41a8.73,8.73,0,0,0,3.12-2.66,8.74,8.74,0,0,0,1.28-7.72A8.9,8.9,0,0,0,73.38,78l2.73-3.76a12.58,12.58,0,0,0,4.88,1,12.42,12.42,0,0,0,4.85-1L88.6,78a8.77,8.77,0,0,0,7.23,13.74h0A8.67,8.67,0,0,0,101,90.08a8.77,8.77,0,0,0-7.66-15.5l-2.74-3.75a12.6,12.6,0,0,0,3.08-8.27c0-.35,0-.69,0-1L98,60.1a8.77,8.77,0,0,0,7,3.43h0a8.63,8.63,0,0,0,2.71-.43A8.77,8.77,0,0,0,113.34,52.05Z"/><path class="cls-3" d="M105.9,57.54a2.77,2.77,0,0,1-.9.14,2.92,2.92,0,0,1-.91-5.7,2.85,2.85,0,0,1,.91-.15,2.93,2.93,0,0,1,.9,5.71Zm-31.74,5A6.83,6.83,0,1,1,81,69.38,6.84,6.84,0,0,1,74.16,62.56ZM81,34.39a2.93,2.93,0,1,1-2.93,2.92A2.92,2.92,0,0,1,81,34.39ZM56.07,57.54A2.93,2.93,0,0,1,57,51.83a2.79,2.79,0,0,1,.9.15,2.92,2.92,0,0,1-.9,5.7A2.83,2.83,0,0,1,56.07,57.54Zm8.36,27.81a2.93,2.93,0,0,1-.65-4.08,2.93,2.93,0,1,1,.65,4.08Zm33.76-4.09a2.93,2.93,0,0,1-.64,4.09,3,3,0,0,1-1.72.56h0a2.92,2.92,0,0,1-1.72-5.29,2.85,2.85,0,0,1,1.71-.56A2.9,2.9,0,0,1,98.19,81.26Z"/><path class="cls-4" d="M81,55.74a6.82,6.82,0,1,0,6.82,6.82A6.84,6.84,0,0,0,81,55.74Z"/><path class="cls-4" d="M81,40.24a2.93,2.93,0,1,0-2.93-2.93A2.93,2.93,0,0,0,81,40.24Z"/><path class="cls-4" d="M67.87,80.62a2.92,2.92,0,0,0-4.09.65,2.93,2.93,0,0,0,2.36,4.64,2.88,2.88,0,0,0,2.37-1.21A2.92,2.92,0,0,0,67.87,80.62Z"/><path class="cls-4" d="M105,57.68a2.77,2.77,0,0,0,.9-.14,2.93,2.93,0,0,0-.9-5.71,2.85,2.85,0,0,0-.91.15,2.92,2.92,0,0,0,.91,5.7Z"/><path class="cls-4" d="M95.83,85.91a3,3,0,0,0,1.72-.56,2.93,2.93,0,0,0,.64-4.09,2.9,2.9,0,0,0-2.37-1.2,2.85,2.85,0,0,0-1.71.56,2.92,2.92,0,0,0,1.72,5.29Z"/><path class="cls-5" d="M74.16,62.56A6.84,6.84,0,0,1,81,55.74V40.24a2.93,2.93,0,1,1,0-5.85V28.54a8.77,8.77,0,0,0-2.93,17v4.65A12.72,12.72,0,0,0,70.16,56l-4.41-1.44a8.78,8.78,0,0,0-6.06-8.12A8.64,8.64,0,0,0,57,46,8.78,8.78,0,0,0,54.27,63.1a8.63,8.63,0,0,0,2.71.43,8.75,8.75,0,0,0,7-3.43l4.42,1.44c0,.34,0,.68,0,1a12.6,12.6,0,0,0,3.06,8.25l-2.73,3.76a8.78,8.78,0,1,0-2.51,17.19A8.78,8.78,0,0,0,73.38,78l2.73-3.76a12.58,12.58,0,0,0,4.88,1V69.38A6.84,6.84,0,0,1,74.16,62.56Zm-14.4-6.9a2.91,2.91,0,0,1-2.78,2,2.83,2.83,0,0,1-.91-.14A2.93,2.93,0,0,1,57,51.83a2.79,2.79,0,0,1,.9.15A2.92,2.92,0,0,1,59.76,55.66Zm8.75,29a2.88,2.88,0,0,1-2.37,1.21,2.93,2.93,0,0,1-2.36-4.64,2.92,2.92,0,1,1,4.73,3.43Z"/><path class="cls-6" d="M74.16,62.56A6.84,6.84,0,0,0,81,69.38V55.74A6.84,6.84,0,0,0,74.16,62.56Z"/><path class="cls-6" d="M78.06,37.31A2.93,2.93,0,0,0,81,40.24V34.39A2.93,2.93,0,0,0,78.06,37.31Z"/><path class="cls-6" d="M57.88,52a2.79,2.79,0,0,0-.9-.15,2.93,2.93,0,0,0-.91,5.71,2.83,2.83,0,0,0,.91.14,2.92,2.92,0,0,0,.9-5.7Z"/><path class="cls-6" d="M67.87,80.62a2.92,2.92,0,0,0-4.09.65,2.93,2.93,0,0,0,2.36,4.64,2.88,2.88,0,0,0,2.37-1.21A2.92,2.92,0,0,0,67.87,80.62Z"/></g></g></svg>