<svg xmlns="http://www.w3.org/2000/svg" width="125.492" height="109.102" viewBox="0 0 125.492 109.102"><g transform="translate(1103 -2593)"><path d="M121.846,74.667H53.978c-6.247,0-11.311,11.193-11.311,25v10c0,2.762,1.013,5,2.262,5H64.294c.965.01,1.824,1.352,2.149,3.36l2.466,16.491c.951,6.052,3.526,10.12,6.425,10.15H130.9c1.249,0,2.262-2.239,2.262-5v-40C133.157,85.86,128.093,74.667,121.846,74.667Z" transform="translate(-1136.667 2518.333)" fill="#55a1bf"/><path d="M101.709,155.135H41.678a2.4,2.4,0,0,1-2.147-1.844l-2.464-9.052c-.952-3.321-3.523-5.553-6.419-5.572H6.781C3.036,138.667,0,142.353,0,146.9a93.392,93.392,0,0,0,2.672,22.308l9.041,36.515c1.432,5.819,5.843,9.8,10.845,9.793H86.385c4.728.016,8.964-3.542,10.618-8.92l9.764-31.629a39.708,39.708,0,0,0,1.722-11.6C108.49,158.821,105.454,155.135,101.709,155.135Z" transform="translate(-1103 2464.333)" fill="#00608b"/><g transform="translate(157 445)"><rect width="55.958" height="37.475" transform="translate(-1203.867 2206.691)" fill="#fff"/><path d="M67.2,15.6H11.88A1.853,1.853,0,0,0,10,17.423V57.295a1.85,1.85,0,0,0,1.88,1.823H33.064v2.815s.068,2.528-1.607,3.038c-.338.108-1.448.338-1.448.338a1.141,1.141,0,0,0,0,2.282H49.139a1.141,1.141,0,1,0,0-2.282,10.6,10.6,0,0,1-1.583-.361,2.674,2.674,0,0,1-1.421-2.157c-.1-.925-.047-3.68-.047-3.68H67.2a1.853,1.853,0,0,0,1.88-1.823V17.41A1.857,1.857,0,0,0,67.2,15.6Zm-.986,34.906H12.876V18.473H66.214Z" transform="translate(-1215.4 2189.5)" fill="#eec06e"/><rect width="36.081" height="29.869" transform="translate(-1176.57 2227.152)" fill="#fff"/><path d="M59.776,45.924V22.931a1.185,1.185,0,0,0-1.205-1.168H22.55a1.185,1.185,0,0,0-1.2,1.168V45.907l-4.6,5.2c0,.743.581,1.779,1.293,1.779h45.05c.716,0,1.3-1.036,1.3-1.779ZM43.045,52.27H38.079c-.425,0-.766-.733-.766-1.1v-.041H43.8v.041C43.811,51.538,43.467,52.27,43.045,52.27Zm14.8-7.842H23.28V23.748H57.848Z" transform="translate(-1199.378 2204.143)" fill="#f16d6f"/><rect width="22.939" height="31.135" transform="translate(-1158.388 2225.132)" fill="#fff"/><path d="M46.463,21.231H25.327a1.523,1.523,0,0,0-1.546,1.5v30a1.523,1.523,0,0,0,1.546,1.5H46.463a1.522,1.522,0,0,0,1.546-1.5v-30A1.522,1.522,0,0,0,46.463,21.231ZM35.893,53.393a2.587,2.587,0,1,1,.007,0Zm10.286-3.1H25.611V23.128H46.186Z" transform="translate(-1182.659 2202.879)" fill="#489cd6"/><rect width="9.945" height="19.36" transform="translate(-1144.936 2237.404)" fill="#fff"/><path d="M37.713,25.127h-9a.911.911,0,0,0-.925.9V44a.911.911,0,0,0,.925.9h9a.911.911,0,0,0,.925-.9V26.025a.911.911,0,0,0-.925-.9Zm-5.543.415h2.08v.307H32.167ZM33.213,44.4a.69.69,0,1,1,.49-.2.7.7,0,0,1-.49.2Zm4.5-1.978h-9V26.43h9Z" transform="translate(-1173.146 2212.135)" fill="#d488b9"/></g></g></svg>