<svg xmlns="http://www.w3.org/2000/svg" width="114.105" height="97.012" viewBox="0 0 114.105 97.012"><g transform="translate(-566 -858.488)"><g transform="translate(470 318.977)"><path d="M117.206,53.334H33.653a12.257,12.257,0,0,0-12.17,13.885,2.457,2.457,0,0,0,3.681,1.8,6.96,6.96,0,0,1,3.573-.944h17.5a7.412,7.412,0,0,1,6.989,5l.418,1.347a12.346,12.346,0,0,0,11.656,8.4h56.816a7.372,7.372,0,0,1,3.671.983,2.462,2.462,0,0,0,3.7-2.123V65.621a12.287,12.287,0,0,0-12.281-12.287Z" transform="translate(75 487.247)" fill="#dcb67a"/><path d="M102.856,111.089a11.235,11.235,0,0,0-5.664-1.528H44.934a6.817,6.817,0,0,1-6.428-4.6l-.384-1.239A11.355,11.355,0,0,0,27.4,96H11.3a10.816,10.816,0,0,0-5.533,1.46A11.274,11.274,0,0,0,0,107.3v54.247a11.3,11.3,0,0,0,11.3,11.3H97.192a11.3,11.3,0,0,0,11.3-11.3V120.862A11.224,11.224,0,0,0,102.856,111.089Z" transform="translate(96 443.512)" fill="#c09553"/></g><g transform="translate(211 -63)"><path d="M29.9,10H68.432a10.382,10.382,0,0,1,6.331,2.7,15.654,15.654,0,0,1,4.511,9.376c.1.7.159,1.407.232,2.115v1.218a2.317,2.317,0,0,1-1.013,1.625,3.971,3.971,0,0,1-2.244.331H70.831q-.03,20.085,0,40.17a11.825,11.825,0,0,1-1.761,6.248,12.013,12.013,0,0,1-6.245,5.05,14.4,14.4,0,0,1-3.217.662H22.98a13.354,13.354,0,0,1-7.334-2.648,14.836,14.836,0,0,1-5.3-8.935c-.179-.854-.252-1.728-.354-2.595V63.944a2.419,2.419,0,0,1,.993-1.5A3.67,3.67,0,0,1,13.1,62.11h5.563V21.934a11.868,11.868,0,0,1,3.73-8.624A12.056,12.056,0,0,1,29.9,10" transform="translate(389.6 939.002)" fill="#345e75"/><path d="M14.49,16.188a15.111,15.111,0,0,0-.51,5.47V59.115c8.055.02,16.11,0,24.159,0a2.154,2.154,0,0,1,1.943,1.433,10.094,10.094,0,0,1,.169,1.893,11.3,11.3,0,0,0,3.435,7.539,8.816,8.816,0,0,0,5.977,2.158A7.612,7.612,0,0,0,57.4,64.684V19.868a6.344,6.344,0,0,1,.1-1.542,15.16,15.16,0,0,1,1.883-4.633,7.281,7.281,0,0,1,2.227-2.379q-20.025-.026-40.044,0A7.635,7.635,0,0,0,14.49,16.188Z" transform="translate(398.659 942.004)" fill="#5599bf"/><path d="M24.409,17.421a2.317,2.317,0,0,1,2.009-.854,2.171,2.171,0,0,1,1.926,2.389h0a.6.6,0,0,1-.03.185c-.149.847-.887,1.373-1.446,1.956-2.111,2.121-4.279,4.186-6.367,6.328,2.164,2.2,4.392,4.345,6.573,6.533a3.465,3.465,0,0,1,1.241,1.754,2.178,2.178,0,0,1-1.542,2.518,2.151,2.151,0,0,1-2.082-.523c-2.929-2.863-5.815-5.772-8.737-8.641a2.2,2.2,0,0,1-.142-3.108v-.02Q20.113,21.661,24.409,17.421Z" transform="translate(401.7 954.148)" fill="#14622a"/><path d="M21.815,18.592a2.181,2.181,0,0,1,1.9-2.015,2.227,2.227,0,0,1,1.81.622q4.3,4.253,8.588,8.515a2.231,2.231,0,0,1,.347,3.134,2.353,2.353,0,0,1-.311.331q-4.167,4.117-8.313,8.244a2.535,2.535,0,0,1-1.572.917,2.171,2.171,0,0,1-2.379-1.585,2.2,2.2,0,0,1,.6-2.138c2.4-2.389,4.819-4.746,7.195-7.155-2.353-2.36-4.732-4.693-7.1-7.036a2.27,2.27,0,0,1-.764-1.833Z" transform="translate(416.883 954.158)" fill="#14622a"/></g></g></svg>