<svg xmlns="http://www.w3.org/2000/svg" width="126" height="112.03" viewBox="0 0 126 112.03"><g transform="translate(-460 -1520.488)"><path d="M117.206,53.334H33.653a12.257,12.257,0,0,0-12.17,13.885,2.457,2.457,0,0,0,3.681,1.8,6.96,6.96,0,0,1,3.573-.944h17.5a7.412,7.412,0,0,1,6.989,5l.418,1.347a12.346,12.346,0,0,0,11.656,8.4h56.816a7.372,7.372,0,0,1,3.671.983,2.462,2.462,0,0,0,3.7-2.123V65.621a12.287,12.287,0,0,0-12.281-12.287Z" transform="translate(439 1468.224)" fill="#dd7a7d"/><path d="M102.856,111.089a11.235,11.235,0,0,0-5.664-1.528H44.934a6.817,6.817,0,0,1-6.428-4.6l-.384-1.239A11.355,11.355,0,0,0,27.4,96H11.3a10.816,10.816,0,0,0-5.533,1.46A11.274,11.274,0,0,0,0,107.3v54.247a11.3,11.3,0,0,0,11.3,11.3H97.192a11.3,11.3,0,0,0,11.3-11.3V120.862A11.224,11.224,0,0,0,102.856,111.089Z" transform="translate(460 1424.489)" fill="#9f4246"/><path d="M88.674,51.523A6.916,6.916,0,0,0,83,54.489L77.9,53.6v-.576a16.869,16.869,0,0,0-1.259-6.4l8.64-5.213a6.929,6.929,0,1,0-2.633-4.32l-8.6,5.188a16.976,16.976,0,0,0-10.562-6.04V25.626a7.994,7.994,0,1,0-5.061,0V36.242a17.021,17.021,0,0,0-12.956,9.85L29.637,41.228a9.854,9.854,0,1,0-1.9,4.711l16.371,5.028a16.869,16.869,0,0,0,4.6,13.8l-7.13,7.591a8.393,8.393,0,1,0,3.789,3.357l7.348-7.859a16.927,16.927,0,0,0,16.108.177l7.352,11.179a9.838,9.838,0,1,0,4.386-2.534L72.912,65.038a17,17,0,0,0,4.069-6.472l4.847.823a6.92,6.92,0,1,0,6.851-7.9Z" transform="translate(489.6 1536.5)" fill="#c09553"/></g></svg>