<svg xmlns="http://www.w3.org/2000/svg" width="118" height="102.022" viewBox="0 0 118 102.022"><g transform="translate(225 -1334.488)"><path d="M117.206,53.334H33.653a12.257,12.257,0,0,0-12.17,13.885,2.457,2.457,0,0,0,3.681,1.8,6.96,6.96,0,0,1,3.573-.944h17.5a7.412,7.412,0,0,1,6.989,5l.418,1.347a12.346,12.346,0,0,0,11.656,8.4h56.816a7.372,7.372,0,0,1,3.671.983,2.462,2.462,0,0,0,3.7-2.123V65.621a12.287,12.287,0,0,0-12.281-12.287Z" transform="translate(-246 1282.224)" fill="#dbd27b"/><path d="M102.856,111.089a11.235,11.235,0,0,0-5.664-1.528H44.934a6.817,6.817,0,0,1-6.428-4.6l-.384-1.239A11.355,11.355,0,0,0,27.4,96H11.3a10.816,10.816,0,0,0-5.533,1.46A11.274,11.274,0,0,0,0,107.3v54.247a11.3,11.3,0,0,0,11.3,11.3H97.192a11.3,11.3,0,0,0,11.3-11.3V120.862A11.224,11.224,0,0,0,102.856,111.089Z" transform="translate(-225 1238.489)" fill="#bfb555"/><g transform="translate(-173 1370.51)"><rect width="64" height="64" transform="translate(2 2)" fill="#f5de19"/><path d="M35.418,35.6a6.527,6.527,0,0,0,5.921,3.644c2.482,0,4.07-1.241,4.07-2.961,0-2.05-1.631-2.783-4.363-3.979l-1.5-.642c-4.327-1.842-7.2-4.149-7.2-9.028,0-4.493,3.416-7.916,8.775-7.916a8.857,8.857,0,0,1,8.522,4.8l-4.685,2.995a4.074,4.074,0,0,0-3.846-2.569,2.608,2.608,0,0,0-2.867,2.569c0,1.8,1.114,2.526,3.685,3.644l1.5.642c5.092,2.184,7.971,4.409,7.971,9.412,0,5.4-4.238,8.351-9.929,8.351a11.512,11.512,0,0,1-10.92-6.128Zm-21.168.519c.941,1.669,1.8,3.081,3.856,3.081,1.968,0,3.211-.77,3.211-3.765V15.061h5.992V35.516c0,6.2-3.644,9.028-8.948,9.028a9.3,9.3,0,0,1-8.989-5.466Z" transform="translate(9.417 16.217)"/></g></g></svg>