<svg xmlns="http://www.w3.org/2000/svg" width="120.805" height="105.748" viewBox="0 0 120.805 105.748"><g transform="translate(1507 -2006)"><path d="M121.846,74.667H53.978c-6.247,0-11.311,11.193-11.311,25v10c0,2.762,1.013,5,2.262,5H64.294c.965.01,1.824,1.352,2.149,3.36l2.466,16.491c.951,6.052,3.526,10.12,6.425,10.15H130.9c1.249,0,2.262-2.239,2.262-5v-40C133.157,85.86,128.093,74.667,121.846,74.667Z" transform="translate(-1540.667 1931.333)" fill="#7d6933"/><path d="M101.709,155.135H41.678a2.4,2.4,0,0,1-2.147-1.844l-2.464-9.052c-.952-3.321-3.523-5.553-6.419-5.572H6.781C3.036,138.667,0,142.353,0,146.9a93.392,93.392,0,0,0,2.672,22.308l9.041,36.515c1.432,5.819,5.843,9.8,10.845,9.793H86.385c4.728.016,8.964-3.542,10.618-8.92l9.764-31.629a39.708,39.708,0,0,0,1.722-11.6C108.49,158.821,105.454,155.135,101.709,155.135Z" transform="translate(-1507 1877.333)" fill="#5c4300"/><path d="M53.176,56.157l2.178-2.163c10.075.329,10.23-.024,10.673-1.06L68.795,46.2,69,45.557,68.775,45c-.119-.3-.484-1.176-6.775-7.174V34.668c7.259-6.993,7.1-7.351,6.69-8.374l-2.756-6.809c-.414-1.021-.571-1.42-10.574-1.147l-2.178-2.25a48.794,48.794,0,0,0-.341-9.935l-.281-.636-7.2-3.145c-1.06-.484-1.432-.658-8.227,6.741l-3.054-.046c-7-7.467-7.327-7.331-8.374-6.908l-6.69,2.705c-1.048.423-1.418.573-1.011,10.736l-2.161,2.153c-10.07-.329-10.225.029-10.663,1.06L2.413,25.554l-.218.646.227.561c.119.29.469,1.161,6.775,7.167v3.145c-7.259,6.993-7.1,7.351-6.685,8.377l2.754,6.816c.421,1.043.571,1.413,10.571,1.152l2.178,2.262a48.979,48.979,0,0,0,.331,9.92l.281.641,7.242,3.165c1.053.44,1.418.6,8.193-6.775l3.054.039c7,7.477,7.363,7.331,8.386,6.918l6.676-2.7C53.232,66.472,53.6,66.324,53.176,56.157ZM24.484,40.371a11.994,11.994,0,1,1,15.7,6.833A12.132,12.132,0,0,1,24.484,40.371Z" transform="translate(-1455.195 2042.002)" fill="#675f58"/></g></svg>