<svg xmlns="http://www.w3.org/2000/svg" width="119.066" height="95.281" viewBox="0 0 119.066 95.281"><g transform="translate(141 -1361)"><path d="M117.206,53.334H33.653a12.257,12.257,0,0,0-12.17,13.885,2.457,2.457,0,0,0,3.681,1.8,6.96,6.96,0,0,1,3.573-.944h17.5a7.412,7.412,0,0,1,6.989,5l.418,1.347a12.346,12.346,0,0,0,11.656,8.4h56.816a7.372,7.372,0,0,1,3.671.983,2.462,2.462,0,0,0,3.7-2.123V65.621a12.287,12.287,0,0,0-12.281-12.287Z" transform="translate(-162 1307.735)" fill="#55bbbf"/><g transform="translate(-175 1126.51)"><g transform="translate(16 -18)"><path d="M102.856,111.089a11.235,11.235,0,0,0-5.664-1.528H44.934a6.817,6.817,0,0,1-6.428-4.6l-.384-1.239A11.355,11.355,0,0,0,27.4,96H11.3a10.816,10.816,0,0,0-5.533,1.46A11.274,11.274,0,0,0,0,107.3v54.247a11.3,11.3,0,0,0,11.3,11.3H97.192a11.3,11.3,0,0,0,11.3-11.3V120.862A11.224,11.224,0,0,0,102.856,111.089Z" transform="translate(18 156.49)" fill="#11a798"/></g></g><g transform="translate(-111 -16)"><path d="M14.077,29.443l-1.4-1.33V25.37a16.318,16.318,0,0,0,20.246,0v2.743l-1.4,1.33A12.646,12.646,0,0,1,14.077,29.443Z" transform="translate(11.6 1427.196)" fill="#e4e4e4"/><path d="M12.682,52.712V13a14.679,14.679,0,0,0,20.246,0V52.712l-1.4,1.33a12.646,12.646,0,0,1-17.455,0ZM16.73,29.194H28.876V25.147H16.73Z" transform="translate(11.6 1394.499)" fill="#e4e4e4"/><path d="M22.8,31.112a16.635,16.635,0,0,1-10.121-3.519V35.16a14.679,14.679,0,0,0,20.246,0V27.593A16.639,16.639,0,0,1,22.8,31.112Z" transform="translate(11.6 1433.072)" fill="#e4e4e4"/><path d="M37.644,29.443l1.4-1.33V25.37a16.318,16.318,0,0,1-20.246,0v2.743l1.4,1.33a12.646,12.646,0,0,0,17.455,0Z" transform="translate(27.756 1427.196)" fill="#c18053"/><path d="M18.794,52.712V13A14.679,14.679,0,0,0,39.04,13V52.712l-1.4,1.33a12.646,12.646,0,0,1-17.455,0Zm4.048-23.517h12.15V25.147H22.845Z" transform="translate(27.756 1394.499)" fill="#c18053"/><path d="M28.916,31.112A16.635,16.635,0,0,1,18.8,27.593V35.16a14.679,14.679,0,0,0,20.246,0V27.593a16.639,16.639,0,0,1-10.125,3.519Z" transform="translate(27.758 1433.072)" fill="#c18053"/><path d="M43.757,29.443l1.4-1.33V25.37a16.318,16.318,0,0,1-20.246,0v2.743l1.4,1.33a12.646,12.646,0,0,0,17.455,0Z" transform="translate(43.914 1427.196)" fill="#9f4246"/><path d="M24.907,52.712V13a14.679,14.679,0,0,0,20.246,0V52.712l-1.4,1.33a12.646,12.646,0,0,1-17.455,0Zm4.048-23.517H41.1V25.147H28.955Z" transform="translate(43.914 1394.499)" fill="#9f4246"/><path d="M35.028,31.112a16.632,16.632,0,0,1-10.121-3.519V35.16a14.679,14.679,0,0,0,20.246,0V27.593a16.639,16.639,0,0,1-10.125,3.519Z" transform="translate(43.914 1433.072)" fill="#9f4246"/></g></g></svg>