<svg xmlns="http://www.w3.org/2000/svg" width="132.982" height="108.012" viewBox="0 0 132.982 108.012"><g transform="translate(-64 -1569.488)"><path d="M117.206,53.334H33.653a12.257,12.257,0,0,0-12.17,13.885,2.457,2.457,0,0,0,3.681,1.8,6.96,6.96,0,0,1,3.573-.944h17.5a7.412,7.412,0,0,1,6.989,5l.418,1.347a12.346,12.346,0,0,0,11.656,8.4h56.816a7.372,7.372,0,0,1,3.671.983,2.462,2.462,0,0,0,3.7-2.123V65.621a12.287,12.287,0,0,0-12.281-12.287Z" transform="translate(43 1517.224)" fill="#5599bf"/><path d="M102.856,111.089a11.235,11.235,0,0,0-5.664-1.528H44.934a6.817,6.817,0,0,1-6.428-4.6l-.384-1.239A11.355,11.355,0,0,0,27.4,96H11.3a10.816,10.816,0,0,0-5.533,1.46A11.274,11.274,0,0,0,0,107.3v54.247a11.3,11.3,0,0,0,11.3,11.3H97.192a11.3,11.3,0,0,0,11.3-11.3V120.862A11.224,11.224,0,0,0,102.856,111.089Z" transform="translate(64 1473.489)" fill="#345e75"/><g transform="translate(22 -172.382)"><path d="M67.5,77.664a5.254,5.254,0,0,0,5.292-5.2V19.417a5.254,5.254,0,0,0-5.292-5.2H15.968L36.649,77.664Z" transform="translate(102.192 1772.218)" fill="#d9d9d9"/><path d="M38.55,27.035,25.07,42.023l-4.9-14.988Z" transform="translate(113.865 1807.859)" fill="#4352b8"/><path d="M51.255,26V22.9H36.3V17.884h-4.85v5.009H21.91v3.1H40.9a27.489,27.489,0,0,1-5.447,9.583c-3.882-4.589-3.9-6.082-3.9-6.082H27.542s.166,2.234,5.606,8.611a38.293,38.293,0,0,1-3.107,2.877l1.24,3.871s1.867-1.607,4.215-4.094c2.347,2.544,5.375,5.606,9.3,9.257l2.544-2.544c-4.2-3.81-7.277-6.831-9.533-9.257a28.143,28.143,0,0,0,6.751-12.225h6.71Z" transform="translate(118.711 1782.418)" fill="#617d8b"/><path d="M15.292,10A5.292,5.292,0,0,0,10,15.292V69.121a5.292,5.292,0,0,0,5.292,5.292h51.53L46.142,10Z" transform="translate(85.6 1760.5)" fill="#4f8bf5"/><path d="M21.242,14.216H52.836a5.254,5.254,0,0,1,5.292,5.2V51.238Z" transform="translate(116.854 1772.221)" fill="#fff" opacity="0.2"/><path d="M16.853,28.7c1.731-4.461,3.432-8.929,5.16-13.389h5.016c.272.688.533,1.38.8,2.071,1.266,3.27,2.514,6.547,3.78,9.828s2.491,6.479,3.739,9.722l1.009,2.616h-4.4q-.941-2.865-1.867-5.738H18.958q-.926,2.873-1.864,5.738h-4.4l4.158-10.834m3.349,1.89h8.649c-1.444-3.78-2.873-7.59-4.324-11.382-1.452,3.791-2.877,7.594-4.321,11.386Z" transform="translate(93.081 1775.273)" fill="#f2f2f2"/></g></g></svg>