<svg xmlns="http://www.w3.org/2000/svg" viewBox="0 0 120.83 97.69"><defs><style>.cls-1{fill:#4f4d4a;}.cls-2{fill:#494540;}.cls-3{fill:#c0874a;}.cls-4{fill:#69b25f;}.cls-5{fill:#a2cc86;}.cls-6{fill:#53a654;}.cls-7{fill:#f0ba7d;}.cls-8{fill:#e5a864;}.cls-9{fill:#eef3ca;opacity:0.68;}.cls-11,.cls-9{isolation:isolate;}.cls-10{fill:#ecb168;}.cls-11{fill:#badb9e;opacity:0.2;}</style></defs><g id="Camada_2" data-name="Camada 2"><g id="Camada_1-2" data-name="Camada 1"><path class="cls-1" d="M88.3,0H20.4C14.2,0,9.1,11.2,9.1,25V35c0,2.8,1,5,2.3,5H30.8c1,0,1.8,1.4,2.2,3.4l2.5,16.5c1,6,3.5,10.1,6.4,10.1H97.5c1.2,0,2.3-2.2,2.3-5V25C99.6,11.2,94.5,0,88.3,0Z"/><path class="cls-2" d="M101.8,26.5h-60a2.58,2.58,0,0,1-2.2-1.8l-2.5-9c-1-3.3-3.5-5.6-6.4-5.6H6.8C3,10,0,13.7,0,18.3A93.21,93.21,0,0,0,2.7,40.6l9,36.5c1.4,5.8,5.9,9.8,10.9,9.8H86.5c4.7,0,9-3.5,10.6-8.9l9.8-31.6a41.75,41.75,0,0,0,1.7-11.6C108.6,30.1,105.5,26.5,101.8,26.5Z"/><polygon class="cls-3" points="120.76 62.54 119.71 63.2 114.49 66.48 92.1 80.53 91.82 80.72 91.76 80.76 90.62 81.47 90.58 81.49 89.64 80.91 89.47 80.79 68.26 67.48 66.82 66.58 60.46 62.59 60.39 62.54 66.82 58.51 89.85 44.05 91.3 44.05 114.49 58.6 115.25 59.08 120.76 62.54"/><path class="cls-4" d="M115.62,43.94V89.25a2,2,0,0,1-2.08,1.89H67.75a2,2,0,0,1-2.08-1.89V43.94A2,2,0,0,1,67.75,42h45.79A2,2,0,0,1,115.62,43.94Z"/><rect class="cls-5" x="73.47" y="50.91" width="22.49" height="3"/><rect class="cls-6" x="73.47" y="50.43" width="22.49" height="3"/><rect class="cls-5" x="73.47" y="67.38" width="34.17" height="3"/><rect class="cls-6" x="73.47" y="66.91" width="34.17" height="3"/><rect class="cls-5" x="73.47" y="75.62" width="34.17" height="3"/><rect class="cls-6" x="73.47" y="75.15" width="34.17" height="3"/><rect class="cls-5" x="73.47" y="59.14" width="34.17" height="3"/><rect class="cls-6" x="73.47" y="58.67" width="34.17" height="3"/><polygon class="cls-7" points="90.65 80.07 90.29 80.27 83.46 84.26 82.63 84.76 61.85 96.88 60.46 97.69 60.46 62.44 68.83 67.32 89.51 79.4 89.67 79.49 90.62 80.05 90.65 80.07"/><path class="cls-8" d="M120.62,61.79c.12-.07.21,0,.21.12v35l0,0,0,0,0,0-.22-.12L91.73,79.93l-.41-.24-.1-.06-.39-.23c-.1-.06-.09-.16,0-.23l.73-.43.22-.13h0l.23-.13.64-.38.42-.24Z"/><circle class="cls-9" cx="104.91" cy="50.91" r="4.51"/><path class="cls-3" d="M120.83,92.24v5.41h-.06l-.87,0H63.66l0-.84,3.25-2.23.12-.08,3-2,4.6-3.18,1.33-.91,14-9.64.94-.65a3,3,0,0,1,.74-.35,4.49,4.49,0,0,1,1-.21,13,13,0,0,0,.72,0,4.17,4.17,0,0,1,.94.08,3.15,3.15,0,0,1,.88.3l10.59,5.9,5.23,2.91,1.37.76,4.93,2.74L120.46,92l.29.16Z"/><path class="cls-10" d="M120.83,94.15v3.54H60.46V94.15c1.06-.65,2.45-1.53,3.36-2.07l.12-.08,3-1.89,4.75-2.94,1.37-.86,14.42-9,1-.61a3.7,3.7,0,0,1,1.8-.46,2.16,2.16,0,0,1,.36,0,2.16,2.16,0,0,1,.36,0,3.68,3.68,0,0,1,.82.09,3.11,3.11,0,0,1,1,.37l1.4.87,8.9,5.53,5.08,3.16,1.32.83,4.8,3,3.16,2,.28.16,2.25,1.4Z"/><path class="cls-11" d="M115.62,43.94v.5a2,2,0,0,0-2.08-1.89H67.75a2,2,0,0,0-2.08,1.89v-.5A2,2,0,0,1,67.75,42h45.79A2,2,0,0,1,115.62,43.94Z"/></g></g></svg>